G04 #@! TF.GenerationSoftware,KiCad,Pcbnew,(5.1.10)-1*
G04 #@! TF.CreationDate,2021-11-17T17:41:03-06:00*
G04 #@! TF.ProjectId,RJ45 Clearpath BOB,524a3435-2043-46c6-9561-727061746820,rev?*
G04 #@! TF.SameCoordinates,Original*
G04 #@! TF.FileFunction,Legend,Top*
G04 #@! TF.FilePolarity,Positive*
%FSLAX46Y46*%
G04 Gerber Fmt 4.6, Leading zero omitted, Abs format (unit mm)*
G04 Created by KiCad (PCBNEW (5.1.10)-1) date 2021-11-17 17:41:03*
%MOMM*%
%LPD*%
G01*
G04 APERTURE LIST*
%ADD10C,0.120000*%
%ADD11C,0.150000*%
G04 APERTURE END LIST*
D10*
X217000000Y-99130000D02*
X217500000Y-99630000D01*
X217000000Y-100130000D02*
X217000000Y-99130000D01*
X217500000Y-99630000D02*
X217000000Y-100130000D01*
X234425000Y-108190000D02*
X234425000Y-102630000D01*
X217695000Y-108190000D02*
X217695000Y-102630000D01*
X217695000Y-108190000D02*
X234425000Y-108190000D01*
X234425000Y-92220000D02*
X234425000Y-99830000D01*
X217695000Y-92220000D02*
X217695000Y-99830000D01*
X217695000Y-92220000D02*
X234425000Y-92220000D01*
X217110000Y-109160000D02*
X218440000Y-109160000D01*
X217110000Y-110490000D02*
X217110000Y-109160000D01*
X217110000Y-111760000D02*
X219770000Y-111760000D01*
X219770000Y-111760000D02*
X219770000Y-114360000D01*
X217110000Y-111760000D02*
X217110000Y-114360000D01*
X217110000Y-114360000D02*
X219770000Y-114360000D01*
D11*
X225726666Y-90282380D02*
X225726666Y-90996666D01*
X225679047Y-91139523D01*
X225583809Y-91234761D01*
X225440952Y-91282380D01*
X225345714Y-91282380D01*
X226107619Y-90282380D02*
X226726666Y-90282380D01*
X226393333Y-90663333D01*
X226536190Y-90663333D01*
X226631428Y-90710952D01*
X226679047Y-90758571D01*
X226726666Y-90853809D01*
X226726666Y-91091904D01*
X226679047Y-91187142D01*
X226631428Y-91234761D01*
X226536190Y-91282380D01*
X226250476Y-91282380D01*
X226155238Y-91234761D01*
X226107619Y-91187142D01*
X218106666Y-107612380D02*
X218106666Y-108326666D01*
X218059047Y-108469523D01*
X217963809Y-108564761D01*
X217820952Y-108612380D01*
X217725714Y-108612380D01*
X219106666Y-108612380D02*
X218535238Y-108612380D01*
X218820952Y-108612380D02*
X218820952Y-107612380D01*
X218725714Y-107755238D01*
X218630476Y-107850476D01*
X218535238Y-107898095D01*
M02*
