M48
INCH,TZ
T1C0.0197
T2C0.0350
T3C0.0394
T4C0.0618
%
G90
G05
T1
X88000Y-38000
X89504Y-41130
X90000Y-38000
X90000Y-42500
T2
X86299Y-42098
X87201Y-42098
X87598Y-39500
X87998Y-40201
X88398Y-39500
X88798Y-40201
X89198Y-39500
X89598Y-40201
X89998Y-39500
X90398Y-40201
X90799Y-42098
X91701Y-42098
T3
X86000Y-43500
X86000Y-44500
X87000Y-43500
X87000Y-44500
X88000Y-43500
X88000Y-44500
X89000Y-43500
X89000Y-44500
X90000Y-43500
X90000Y-44500
X91000Y-43500
X91000Y-44500
T4
X85799Y-39850
X92201Y-39850
T0
M30
