G04 #@! TF.GenerationSoftware,KiCad,Pcbnew,(5.1.10)-1*
G04 #@! TF.CreationDate,2021-11-17T17:41:03-06:00*
G04 #@! TF.ProjectId,RJ45 Clearpath BOB,524a3435-2043-46c6-9561-727061746820,rev?*
G04 #@! TF.SameCoordinates,Original*
G04 #@! TF.FileFunction,Legend,Bot*
G04 #@! TF.FilePolarity,Positive*
%FSLAX46Y46*%
G04 Gerber Fmt 4.6, Leading zero omitted, Abs format (unit mm)*
G04 Created by KiCad (PCBNEW (5.1.10)-1) date 2021-11-17 17:41:03*
%MOMM*%
%LPD*%
G01*
G04 APERTURE LIST*
%ADD10C,0.120000*%
%ADD11C,0.150000*%
G04 APERTURE END LIST*
D10*
X232012258Y-105297500D02*
X231537742Y-105297500D01*
X232012258Y-104252500D02*
X231537742Y-104252500D01*
X221027258Y-105297500D02*
X220552742Y-105297500D01*
X221027258Y-104252500D02*
X220552742Y-104252500D01*
X224660000Y-107680000D02*
X227460000Y-107680000D01*
X227460000Y-107680000D02*
X227460000Y-105680000D01*
X227460000Y-105680000D02*
X224660000Y-105680000D01*
X224660000Y-105680000D02*
X224660000Y-107680000D01*
X219710000Y-109220000D02*
X219710000Y-110490000D01*
X220980000Y-109220000D02*
X219710000Y-109220000D01*
X231520000Y-111532929D02*
X231520000Y-111987071D01*
X230760000Y-111532929D02*
X230760000Y-111987071D01*
X231520000Y-114072929D02*
X231520000Y-114470000D01*
X230760000Y-114072929D02*
X230760000Y-114470000D01*
X231520000Y-123130000D02*
X231520000Y-117130000D01*
X230760000Y-123130000D02*
X231520000Y-123130000D01*
X230760000Y-117130000D02*
X230760000Y-123130000D01*
X229870000Y-114470000D02*
X229870000Y-117130000D01*
X228980000Y-111532929D02*
X228980000Y-111987071D01*
X228220000Y-111532929D02*
X228220000Y-111987071D01*
X228980000Y-114072929D02*
X228980000Y-114470000D01*
X228220000Y-114072929D02*
X228220000Y-114470000D01*
X228980000Y-123130000D02*
X228980000Y-117130000D01*
X228220000Y-123130000D02*
X228980000Y-123130000D01*
X228220000Y-117130000D02*
X228220000Y-123130000D01*
X227330000Y-114470000D02*
X227330000Y-117130000D01*
X226440000Y-111532929D02*
X226440000Y-111987071D01*
X225680000Y-111532929D02*
X225680000Y-111987071D01*
X226440000Y-114072929D02*
X226440000Y-114470000D01*
X225680000Y-114072929D02*
X225680000Y-114470000D01*
X226440000Y-123130000D02*
X226440000Y-117130000D01*
X225680000Y-123130000D02*
X226440000Y-123130000D01*
X225680000Y-117130000D02*
X225680000Y-123130000D01*
X224790000Y-114470000D02*
X224790000Y-117130000D01*
X223900000Y-111532929D02*
X223900000Y-111987071D01*
X223140000Y-111532929D02*
X223140000Y-111987071D01*
X223900000Y-114072929D02*
X223900000Y-114470000D01*
X223140000Y-114072929D02*
X223140000Y-114470000D01*
X223900000Y-123130000D02*
X223900000Y-117130000D01*
X223140000Y-123130000D02*
X223900000Y-123130000D01*
X223140000Y-117130000D02*
X223140000Y-123130000D01*
X222250000Y-114470000D02*
X222250000Y-117130000D01*
X221360000Y-111600000D02*
X221360000Y-111987071D01*
X220600000Y-111600000D02*
X220600000Y-111987071D01*
X221360000Y-114072929D02*
X221360000Y-114470000D01*
X220600000Y-114072929D02*
X220600000Y-114470000D01*
X221260000Y-117130000D02*
X221260000Y-123130000D01*
X221140000Y-117130000D02*
X221140000Y-123130000D01*
X221020000Y-117130000D02*
X221020000Y-123130000D01*
X220900000Y-117130000D02*
X220900000Y-123130000D01*
X220780000Y-117130000D02*
X220780000Y-123130000D01*
X220660000Y-117130000D02*
X220660000Y-123130000D01*
X221360000Y-123130000D02*
X221360000Y-117130000D01*
X220600000Y-123130000D02*
X221360000Y-123130000D01*
X220600000Y-117130000D02*
X220600000Y-123130000D01*
X219650000Y-117130000D02*
X219650000Y-114470000D01*
X232470000Y-117130000D02*
X219650000Y-117130000D01*
X232470000Y-114470000D02*
X232470000Y-117130000D01*
X219650000Y-114470000D02*
X232470000Y-114470000D01*
D11*
X231941666Y-103797380D02*
X232275000Y-103321190D01*
X232513095Y-103797380D02*
X232513095Y-102797380D01*
X232132142Y-102797380D01*
X232036904Y-102845000D01*
X231989285Y-102892619D01*
X231941666Y-102987857D01*
X231941666Y-103130714D01*
X231989285Y-103225952D01*
X232036904Y-103273571D01*
X232132142Y-103321190D01*
X232513095Y-103321190D01*
X231560714Y-102892619D02*
X231513095Y-102845000D01*
X231417857Y-102797380D01*
X231179761Y-102797380D01*
X231084523Y-102845000D01*
X231036904Y-102892619D01*
X230989285Y-102987857D01*
X230989285Y-103083095D01*
X231036904Y-103225952D01*
X231608333Y-103797380D01*
X230989285Y-103797380D01*
X220956666Y-103797380D02*
X221290000Y-103321190D01*
X221528095Y-103797380D02*
X221528095Y-102797380D01*
X221147142Y-102797380D01*
X221051904Y-102845000D01*
X221004285Y-102892619D01*
X220956666Y-102987857D01*
X220956666Y-103130714D01*
X221004285Y-103225952D01*
X221051904Y-103273571D01*
X221147142Y-103321190D01*
X221528095Y-103321190D01*
X220004285Y-103797380D02*
X220575714Y-103797380D01*
X220290000Y-103797380D02*
X220290000Y-102797380D01*
X220385238Y-102940238D01*
X220480476Y-103035476D01*
X220575714Y-103083095D01*
X226893333Y-107932380D02*
X226893333Y-108646666D01*
X226940952Y-108789523D01*
X227036190Y-108884761D01*
X227179047Y-108932380D01*
X227274285Y-108932380D01*
X226417142Y-108932380D02*
X226417142Y-107932380D01*
X226036190Y-107932380D01*
X225940952Y-107980000D01*
X225893333Y-108027619D01*
X225845714Y-108122857D01*
X225845714Y-108265714D01*
X225893333Y-108360952D01*
X225940952Y-108408571D01*
X226036190Y-108456190D01*
X226417142Y-108456190D01*
X224893333Y-108932380D02*
X225464761Y-108932380D01*
X225179047Y-108932380D02*
X225179047Y-107932380D01*
X225274285Y-108075238D01*
X225369523Y-108170476D01*
X225464761Y-108218095D01*
X218162380Y-115811666D02*
X218876666Y-115811666D01*
X219019523Y-115764047D01*
X219114761Y-115668809D01*
X219162380Y-115525952D01*
X219162380Y-115430714D01*
X218257619Y-116240238D02*
X218210000Y-116287857D01*
X218162380Y-116383095D01*
X218162380Y-116621190D01*
X218210000Y-116716428D01*
X218257619Y-116764047D01*
X218352857Y-116811666D01*
X218448095Y-116811666D01*
X218590952Y-116764047D01*
X219162380Y-116192619D01*
X219162380Y-116811666D01*
M02*
