G04 #@! TF.GenerationSoftware,KiCad,Pcbnew,(5.1.10)-1*
G04 #@! TF.CreationDate,2021-11-17T17:41:03-06:00*
G04 #@! TF.ProjectId,RJ45 Clearpath BOB,524a3435-2043-46c6-9561-727061746820,rev?*
G04 #@! TF.SameCoordinates,Original*
G04 #@! TF.FileFunction,Soldermask,Bot*
G04 #@! TF.FilePolarity,Negative*
%FSLAX46Y46*%
G04 Gerber Fmt 4.6, Leading zero omitted, Abs format (unit mm)*
G04 Created by KiCad (PCBNEW (5.1.10)-1) date 2021-11-17 17:41:03*
%MOMM*%
%LPD*%
G01*
G04 APERTURE LIST*
%ADD10C,0.150000*%
%ADD11C,1.500000*%
%ADD12C,2.300000*%
%ADD13C,3.250000*%
%ADD14R,1.500000X1.500000*%
%ADD15O,1.700000X1.700000*%
%ADD16R,1.700000X1.700000*%
G04 APERTURE END LIST*
G36*
G01*
X231350000Y-104500000D02*
X231350000Y-105050000D01*
G75*
G02*
X231150000Y-105250000I-200000J0D01*
G01*
X230750000Y-105250000D01*
G75*
G02*
X230550000Y-105050000I0J200000D01*
G01*
X230550000Y-104500000D01*
G75*
G02*
X230750000Y-104300000I200000J0D01*
G01*
X231150000Y-104300000D01*
G75*
G02*
X231350000Y-104500000I0J-200000D01*
G01*
G37*
G36*
G01*
X233000000Y-104500000D02*
X233000000Y-105050000D01*
G75*
G02*
X232800000Y-105250000I-200000J0D01*
G01*
X232400000Y-105250000D01*
G75*
G02*
X232200000Y-105050000I0J200000D01*
G01*
X232200000Y-104500000D01*
G75*
G02*
X232400000Y-104300000I200000J0D01*
G01*
X232800000Y-104300000D01*
G75*
G02*
X233000000Y-104500000I0J-200000D01*
G01*
G37*
G36*
G01*
X220365000Y-104500000D02*
X220365000Y-105050000D01*
G75*
G02*
X220165000Y-105250000I-200000J0D01*
G01*
X219765000Y-105250000D01*
G75*
G02*
X219565000Y-105050000I0J200000D01*
G01*
X219565000Y-104500000D01*
G75*
G02*
X219765000Y-104300000I200000J0D01*
G01*
X220165000Y-104300000D01*
G75*
G02*
X220365000Y-104500000I0J-200000D01*
G01*
G37*
G36*
G01*
X222015000Y-104500000D02*
X222015000Y-105050000D01*
G75*
G02*
X221815000Y-105250000I-200000J0D01*
G01*
X221415000Y-105250000D01*
G75*
G02*
X221215000Y-105050000I0J200000D01*
G01*
X221215000Y-104500000D01*
G75*
G02*
X221415000Y-104300000I200000J0D01*
G01*
X221815000Y-104300000D01*
G75*
G02*
X222015000Y-104500000I0J-200000D01*
G01*
G37*
D10*
G36*
X226335000Y-106680000D02*
G01*
X225835000Y-107430000D01*
X224835000Y-107430000D01*
X224835000Y-105930000D01*
X225835000Y-105930000D01*
X226335000Y-106680000D01*
G37*
G36*
X227285000Y-107430000D02*
G01*
X226135000Y-107430000D01*
X226635000Y-106680000D01*
X226135000Y-105930000D01*
X227285000Y-105930000D01*
X227285000Y-107430000D01*
G37*
D11*
X232920000Y-106930000D03*
X230630000Y-106930000D03*
X221490000Y-106930000D03*
X219200000Y-106930000D03*
D12*
X217930000Y-101220000D03*
X234190000Y-101220000D03*
D13*
X232410000Y-97790000D03*
X219710000Y-97790000D03*
D11*
X229612000Y-102110000D03*
X227580000Y-102110000D03*
X225548000Y-102110000D03*
X223516000Y-102110000D03*
X228596000Y-100330000D03*
X226564000Y-100330000D03*
X224532000Y-100330000D03*
D14*
X222500000Y-100330000D03*
D15*
X231140000Y-113030000D03*
X231140000Y-110490000D03*
X228600000Y-113030000D03*
X228600000Y-110490000D03*
X226060000Y-113030000D03*
X226060000Y-110490000D03*
X223520000Y-113030000D03*
X223520000Y-110490000D03*
X220980000Y-113030000D03*
D16*
X220980000Y-110490000D03*
D15*
X218440000Y-113030000D03*
D16*
X218440000Y-110490000D03*
M02*
