M48
INCH,TZ
T1C0.0150
T2C0.0157
T3C0.0200
T4C0.0300
T5C0.0315
T6C0.0315
T7C0.0350
T8C0.0370
T9C0.0394
T10C0.0618
T11C0.0638
T12C0.1299
%
G90
G05
T1
X29651Y-64001
X29801Y-57101
X31851Y-59751
X40389Y-62606
X40989Y-61056
X41439Y-59006
X54480Y-27772
X54598Y-26197
X54992Y-27693
X55188Y-26473
T2
X30499Y-30651
X31451Y-60451
X51448Y-32418
X51566Y-26866
X52984Y-31394
X53110Y-28000
X54598Y-27063
X55031Y-31394
X60300Y-32800
X61100Y-29500
X75831Y-34281
X76040Y-27561
T3
X32149Y-26001
X32149Y-34101
X32699Y-36151
X38189Y-60256
X38189Y-61206
X38189Y-63156
X38218Y-58356
X50897Y-33481
X51173Y-30843
X52236Y-36394
X52708Y-29583
X55385Y-24504
T4
X32000Y-64500
X33000Y-64500
X40000Y-64500
X41000Y-64500
T5
X29000Y-57500
X29000Y-58500
X29000Y-59500
X29000Y-60500
X29000Y-61500
X29000Y-62500
X29000Y-63500
X29000Y-64500
X34000Y-57500
X34000Y-58500
X34000Y-59500
X34000Y-60500
X34000Y-61500
X34000Y-62500
X34000Y-63500
X34000Y-64500
X34399Y-25851
X35399Y-26851
X36399Y-25851
X37000Y-57500
X37000Y-58500
X37000Y-59500
X37000Y-60500
X37000Y-61500
X37000Y-62500
X37000Y-63500
X37000Y-64500
X42000Y-57500
X42000Y-58500
X42000Y-59500
X42000Y-60500
X42000Y-61500
X42000Y-62500
X42000Y-63500
X42000Y-64500
T6
X35249Y-31001
X35249Y-36001
X38249Y-31001
X38249Y-33001
X38249Y-36001
T7
X45098Y-61748
X46000Y-61748
X46398Y-59150
X46798Y-59850
X47198Y-59150
X47598Y-59850
X47998Y-59150
X48398Y-59850
X48798Y-59150
X49198Y-59850
X49598Y-61748
X50500Y-61748
T8
X40800Y-28997
X40800Y-29800
X40800Y-30603
X40800Y-31406
X41800Y-29398
X41800Y-30202
X41800Y-31005
X41800Y-31808
X42749Y-27702
X42749Y-28603
X42749Y-32202
X42749Y-33103
X61700Y-31594
X61700Y-32397
X61700Y-33200
X61700Y-34003
X62700Y-31995
X62700Y-32798
X62700Y-33602
X62700Y-34405
X63649Y-30298
X63649Y-31200
X63649Y-34798
X63649Y-35700
X79550Y-29194
X79550Y-29998
X79550Y-30801
X79550Y-31604
X80550Y-29596
X80550Y-30399
X80550Y-31202
X80550Y-32006
X81499Y-27899
X81499Y-28801
X81499Y-32399
X81499Y-33301
T9
X29500Y-25000
X29500Y-26000
X29500Y-27000
X29500Y-28000
X29500Y-29000
X29500Y-30000
X29500Y-31000
X29500Y-32000
X29500Y-33000
X29500Y-34000
X29500Y-35000
X29500Y-36000
X31393Y-24905
X32393Y-24905
X38410Y-24905
X38410Y-25905
X39410Y-24905
X39410Y-25905
X45947Y-63286
X45947Y-64286
X46947Y-63286
X46947Y-64286
X47947Y-63286
X47947Y-64286
X48947Y-63286
X48947Y-64286
X49500Y-25000
X49500Y-26000
X49500Y-27000
X49500Y-28000
X49500Y-29000
X49500Y-30000
X49500Y-31000
X49500Y-32000
X49500Y-33000
X49500Y-34000
X49500Y-35000
X49500Y-36000
X49947Y-63286
X49947Y-64286
X53480Y-35370
X54480Y-35370
X58000Y-25000
X58000Y-26000
X58000Y-27000
X58000Y-28000
X58000Y-29000
X58000Y-30000
X58000Y-31000
X58000Y-32000
X58000Y-33000
X58000Y-34000
X58000Y-35000
X58000Y-36000
X61000Y-24815
X61000Y-25815
X61000Y-26815
X61000Y-27815
X61000Y-28815
X62000Y-24815
X62000Y-25815
X62000Y-26815
X62000Y-27815
X62000Y-28815
X63716Y-24879
X63716Y-25879
X69000Y-25000
X69000Y-26000
X69000Y-27000
X69000Y-28000
X69000Y-29000
X69000Y-30000
X69000Y-31000
X69000Y-32000
X69000Y-33000
X69000Y-34000
X69000Y-35000
X69000Y-36000
X83941Y-24994
X83941Y-25994
X83941Y-34852
X83941Y-35852
T10
X44598Y-59500
X51000Y-59500
T11
X42119Y-27202
X42119Y-33603
X63019Y-29798
X63019Y-36200
X80869Y-27399
X80869Y-33801
T12
X40450Y-27902
X40450Y-32902
X61350Y-30499
X61350Y-35499
X79200Y-28100
X79200Y-33100
T0
M30
