G04 #@! TF.GenerationSoftware,KiCad,Pcbnew,(5.1.9)-1*
G04 #@! TF.CreationDate,2021-03-12T17:13:45-06:00*
G04 #@! TF.ProjectId,Torch Module,546f7263-6820-44d6-9f64-756c652e6b69,rev?*
G04 #@! TF.SameCoordinates,Original*
G04 #@! TF.FileFunction,Legend,Top*
G04 #@! TF.FilePolarity,Positive*
%FSLAX46Y46*%
G04 Gerber Fmt 4.6, Leading zero omitted, Abs format (unit mm)*
G04 Created by KiCad (PCBNEW (5.1.9)-1) date 2021-03-12 17:13:45*
%MOMM*%
%LPD*%
G01*
G04 APERTURE LIST*
%ADD10C,0.300000*%
%ADD11C,0.150000*%
%ADD12C,0.120000*%
%ADD13C,0.100000*%
%ADD14C,0.254000*%
G04 APERTURE END LIST*
D10*
X127778190Y-71453333D02*
X128730571Y-71453333D01*
X127587714Y-72024761D02*
X128254380Y-70024761D01*
X128921047Y-72024761D01*
X131016285Y-69929523D02*
X129302000Y-72500952D01*
X131682952Y-72024761D02*
X131682952Y-70024761D01*
X132159142Y-70024761D01*
X132444857Y-70120000D01*
X132635333Y-70310476D01*
X132730571Y-70500952D01*
X132825809Y-70881904D01*
X132825809Y-71167619D01*
X132730571Y-71548571D01*
X132635333Y-71739047D01*
X132444857Y-71929523D01*
X132159142Y-72024761D01*
X131682952Y-72024761D01*
D11*
X95182964Y-144739620D02*
X95182964Y-143739620D01*
X95516298Y-144453906D01*
X95849631Y-143739620D01*
X95849631Y-144739620D01*
X96468679Y-144739620D02*
X96373440Y-144692001D01*
X96325821Y-144644382D01*
X96278202Y-144549144D01*
X96278202Y-144263430D01*
X96325821Y-144168192D01*
X96373440Y-144120573D01*
X96468679Y-144072954D01*
X96611536Y-144072954D01*
X96706774Y-144120573D01*
X96754393Y-144168192D01*
X96802012Y-144263430D01*
X96802012Y-144549144D01*
X96754393Y-144644382D01*
X96706774Y-144692001D01*
X96611536Y-144739620D01*
X96468679Y-144739620D01*
X97182964Y-144692001D02*
X97278202Y-144739620D01*
X97468679Y-144739620D01*
X97563917Y-144692001D01*
X97611536Y-144596763D01*
X97611536Y-144549144D01*
X97563917Y-144453906D01*
X97468679Y-144406287D01*
X97325821Y-144406287D01*
X97230583Y-144358668D01*
X97182964Y-144263430D01*
X97182964Y-144215811D01*
X97230583Y-144120573D01*
X97325821Y-144072954D01*
X97468679Y-144072954D01*
X97563917Y-144120573D01*
X97897250Y-144072954D02*
X98278202Y-144072954D01*
X98040107Y-144739620D02*
X98040107Y-143882478D01*
X98087726Y-143787240D01*
X98182964Y-143739620D01*
X98278202Y-143739620D01*
X98992488Y-144692001D02*
X98897250Y-144739620D01*
X98706774Y-144739620D01*
X98611536Y-144692001D01*
X98563917Y-144596763D01*
X98563917Y-144215811D01*
X98611536Y-144120573D01*
X98706774Y-144072954D01*
X98897250Y-144072954D01*
X98992488Y-144120573D01*
X99040107Y-144215811D01*
X99040107Y-144311049D01*
X98563917Y-144406287D01*
X99325821Y-144072954D02*
X99706774Y-144072954D01*
X99468679Y-143739620D02*
X99468679Y-144596763D01*
X99516298Y-144692001D01*
X99611536Y-144739620D01*
X99706774Y-144739620D01*
X100802012Y-144739620D02*
X100802012Y-143739620D01*
X101040107Y-143739620D01*
X101182964Y-143787240D01*
X101278202Y-143882478D01*
X101325821Y-143977716D01*
X101373440Y-144168192D01*
X101373440Y-144311049D01*
X101325821Y-144501525D01*
X101278202Y-144596763D01*
X101182964Y-144692001D01*
X101040107Y-144739620D01*
X100802012Y-144739620D01*
X101802012Y-144739620D02*
X101802012Y-144072954D01*
X101802012Y-144263430D02*
X101849631Y-144168192D01*
X101897250Y-144120573D01*
X101992488Y-144072954D01*
X102087726Y-144072954D01*
X102421060Y-144739620D02*
X102421060Y-144072954D01*
X102421060Y-143739620D02*
X102373440Y-143787240D01*
X102421060Y-143834859D01*
X102468679Y-143787240D01*
X102421060Y-143739620D01*
X102421060Y-143834859D01*
X102802012Y-144072954D02*
X103040107Y-144739620D01*
X103278202Y-144072954D01*
X104040107Y-144692001D02*
X103944869Y-144739620D01*
X103754393Y-144739620D01*
X103659155Y-144692001D01*
X103611536Y-144596763D01*
X103611536Y-144215811D01*
X103659155Y-144120573D01*
X103754393Y-144072954D01*
X103944869Y-144072954D01*
X104040107Y-144120573D01*
X104087726Y-144215811D01*
X104087726Y-144311049D01*
X103611536Y-144406287D01*
X104516298Y-144739620D02*
X104516298Y-144072954D01*
X104516298Y-144263430D02*
X104563917Y-144168192D01*
X104611536Y-144120573D01*
X104706774Y-144072954D01*
X104802012Y-144072954D01*
X204406857Y-92783920D02*
X204406857Y-91783920D01*
X204740190Y-92498206D01*
X205073523Y-91783920D01*
X205073523Y-92783920D01*
X205692571Y-92783920D02*
X205597333Y-92736301D01*
X205549714Y-92688682D01*
X205502095Y-92593444D01*
X205502095Y-92307730D01*
X205549714Y-92212492D01*
X205597333Y-92164873D01*
X205692571Y-92117254D01*
X205835428Y-92117254D01*
X205930666Y-92164873D01*
X205978285Y-92212492D01*
X206025904Y-92307730D01*
X206025904Y-92593444D01*
X205978285Y-92688682D01*
X205930666Y-92736301D01*
X205835428Y-92783920D01*
X205692571Y-92783920D01*
X206883047Y-92783920D02*
X206883047Y-91783920D01*
X206883047Y-92736301D02*
X206787809Y-92783920D01*
X206597333Y-92783920D01*
X206502095Y-92736301D01*
X206454476Y-92688682D01*
X206406857Y-92593444D01*
X206406857Y-92307730D01*
X206454476Y-92212492D01*
X206502095Y-92164873D01*
X206597333Y-92117254D01*
X206787809Y-92117254D01*
X206883047Y-92164873D01*
X207787809Y-92117254D02*
X207787809Y-92783920D01*
X207359238Y-92117254D02*
X207359238Y-92641063D01*
X207406857Y-92736301D01*
X207502095Y-92783920D01*
X207644952Y-92783920D01*
X207740190Y-92736301D01*
X207787809Y-92688682D01*
X208406857Y-92783920D02*
X208311619Y-92736301D01*
X208264000Y-92641063D01*
X208264000Y-91783920D01*
X209168761Y-92736301D02*
X209073523Y-92783920D01*
X208883047Y-92783920D01*
X208787809Y-92736301D01*
X208740190Y-92641063D01*
X208740190Y-92260111D01*
X208787809Y-92164873D01*
X208883047Y-92117254D01*
X209073523Y-92117254D01*
X209168761Y-92164873D01*
X209216380Y-92260111D01*
X209216380Y-92355349D01*
X208740190Y-92450587D01*
X210168761Y-92783920D02*
X209597333Y-92783920D01*
X209883047Y-92783920D02*
X209883047Y-91783920D01*
X209787809Y-91926778D01*
X209692571Y-92022016D01*
X209597333Y-92069635D01*
X104328364Y-92021920D02*
X104328364Y-91021920D01*
X104661698Y-91736206D01*
X104995031Y-91021920D01*
X104995031Y-92021920D01*
X105614079Y-92021920D02*
X105518840Y-91974301D01*
X105471221Y-91926682D01*
X105423602Y-91831444D01*
X105423602Y-91545730D01*
X105471221Y-91450492D01*
X105518840Y-91402873D01*
X105614079Y-91355254D01*
X105756936Y-91355254D01*
X105852174Y-91402873D01*
X105899793Y-91450492D01*
X105947412Y-91545730D01*
X105947412Y-91831444D01*
X105899793Y-91926682D01*
X105852174Y-91974301D01*
X105756936Y-92021920D01*
X105614079Y-92021920D01*
X106804555Y-92021920D02*
X106804555Y-91021920D01*
X106804555Y-91974301D02*
X106709317Y-92021920D01*
X106518840Y-92021920D01*
X106423602Y-91974301D01*
X106375983Y-91926682D01*
X106328364Y-91831444D01*
X106328364Y-91545730D01*
X106375983Y-91450492D01*
X106423602Y-91402873D01*
X106518840Y-91355254D01*
X106709317Y-91355254D01*
X106804555Y-91402873D01*
X107709317Y-91355254D02*
X107709317Y-92021920D01*
X107280745Y-91355254D02*
X107280745Y-91879063D01*
X107328364Y-91974301D01*
X107423602Y-92021920D01*
X107566460Y-92021920D01*
X107661698Y-91974301D01*
X107709317Y-91926682D01*
X108328364Y-92021920D02*
X108233126Y-91974301D01*
X108185507Y-91879063D01*
X108185507Y-91021920D01*
X109090269Y-91974301D02*
X108995031Y-92021920D01*
X108804555Y-92021920D01*
X108709317Y-91974301D01*
X108661698Y-91879063D01*
X108661698Y-91498111D01*
X108709317Y-91402873D01*
X108804555Y-91355254D01*
X108995031Y-91355254D01*
X109090269Y-91402873D01*
X109137888Y-91498111D01*
X109137888Y-91593349D01*
X108661698Y-91688587D01*
X110233126Y-91021920D02*
X110852174Y-91021920D01*
X110518840Y-91402873D01*
X110661698Y-91402873D01*
X110756936Y-91450492D01*
X110804555Y-91498111D01*
X110852174Y-91593349D01*
X110852174Y-91831444D01*
X110804555Y-91926682D01*
X110756936Y-91974301D01*
X110661698Y-92021920D01*
X110375983Y-92021920D01*
X110280745Y-91974301D01*
X110233126Y-91926682D01*
X165084190Y-77160380D02*
X165084190Y-76160380D01*
X165750857Y-76160380D02*
X165941333Y-76160380D01*
X166036571Y-76208000D01*
X166131809Y-76303238D01*
X166179428Y-76493714D01*
X166179428Y-76827047D01*
X166131809Y-77017523D01*
X166036571Y-77112761D01*
X165941333Y-77160380D01*
X165750857Y-77160380D01*
X165655619Y-77112761D01*
X165560380Y-77017523D01*
X165512761Y-76827047D01*
X165512761Y-76493714D01*
X165560380Y-76303238D01*
X165655619Y-76208000D01*
X165750857Y-76160380D01*
X168616380Y-69238666D02*
X169330666Y-69238666D01*
X169473523Y-69286285D01*
X169568761Y-69381523D01*
X169616380Y-69524380D01*
X169616380Y-69619619D01*
X168616380Y-68905333D02*
X168616380Y-68333904D01*
X169616380Y-68619619D02*
X168616380Y-68619619D01*
X169330666Y-68048190D02*
X169330666Y-67572000D01*
X169616380Y-68143428D02*
X168616380Y-67810095D01*
X169616380Y-67476761D01*
X168664000Y-66619619D02*
X168616380Y-66714857D01*
X168616380Y-66857714D01*
X168664000Y-67000571D01*
X168759238Y-67095809D01*
X168854476Y-67143428D01*
X169044952Y-67191047D01*
X169187809Y-67191047D01*
X169378285Y-67143428D01*
X169473523Y-67095809D01*
X169568761Y-67000571D01*
X169616380Y-66857714D01*
X169616380Y-66762476D01*
X169568761Y-66619619D01*
X169521142Y-66572000D01*
X169187809Y-66572000D01*
X169187809Y-66762476D01*
X74806206Y-162792682D02*
X74758587Y-162840301D01*
X74615730Y-162887920D01*
X74520492Y-162887920D01*
X74377635Y-162840301D01*
X74282397Y-162745063D01*
X74234778Y-162649825D01*
X74187159Y-162459349D01*
X74187159Y-162316492D01*
X74234778Y-162126016D01*
X74282397Y-162030778D01*
X74377635Y-161935540D01*
X74520492Y-161887920D01*
X74615730Y-161887920D01*
X74758587Y-161935540D01*
X74806206Y-161983159D01*
X75377635Y-162887920D02*
X75282397Y-162840301D01*
X75234778Y-162745063D01*
X75234778Y-161887920D01*
X76139540Y-162840301D02*
X76044301Y-162887920D01*
X75853825Y-162887920D01*
X75758587Y-162840301D01*
X75710968Y-162745063D01*
X75710968Y-162364111D01*
X75758587Y-162268873D01*
X75853825Y-162221254D01*
X76044301Y-162221254D01*
X76139540Y-162268873D01*
X76187159Y-162364111D01*
X76187159Y-162459349D01*
X75710968Y-162554587D01*
X77044301Y-162887920D02*
X77044301Y-162364111D01*
X76996682Y-162268873D01*
X76901444Y-162221254D01*
X76710968Y-162221254D01*
X76615730Y-162268873D01*
X77044301Y-162840301D02*
X76949063Y-162887920D01*
X76710968Y-162887920D01*
X76615730Y-162840301D01*
X76568111Y-162745063D01*
X76568111Y-162649825D01*
X76615730Y-162554587D01*
X76710968Y-162506968D01*
X76949063Y-162506968D01*
X77044301Y-162459349D01*
X77520492Y-162887920D02*
X77520492Y-162221254D01*
X77520492Y-162411730D02*
X77568111Y-162316492D01*
X77615730Y-162268873D01*
X77710968Y-162221254D01*
X77806206Y-162221254D01*
X78139540Y-162221254D02*
X78139540Y-163221254D01*
X78139540Y-162268873D02*
X78234778Y-162221254D01*
X78425254Y-162221254D01*
X78520492Y-162268873D01*
X78568111Y-162316492D01*
X78615730Y-162411730D01*
X78615730Y-162697444D01*
X78568111Y-162792682D01*
X78520492Y-162840301D01*
X78425254Y-162887920D01*
X78234778Y-162887920D01*
X78139540Y-162840301D01*
X79472873Y-162887920D02*
X79472873Y-162364111D01*
X79425254Y-162268873D01*
X79330016Y-162221254D01*
X79139540Y-162221254D01*
X79044301Y-162268873D01*
X79472873Y-162840301D02*
X79377635Y-162887920D01*
X79139540Y-162887920D01*
X79044301Y-162840301D01*
X78996682Y-162745063D01*
X78996682Y-162649825D01*
X79044301Y-162554587D01*
X79139540Y-162506968D01*
X79377635Y-162506968D01*
X79472873Y-162459349D01*
X79806206Y-162221254D02*
X80187159Y-162221254D01*
X79949063Y-161887920D02*
X79949063Y-162745063D01*
X79996682Y-162840301D01*
X80091920Y-162887920D01*
X80187159Y-162887920D01*
X80520492Y-162887920D02*
X80520492Y-161887920D01*
X80949063Y-162887920D02*
X80949063Y-162364111D01*
X80901444Y-162268873D01*
X80806206Y-162221254D01*
X80663349Y-162221254D01*
X80568111Y-162268873D01*
X80520492Y-162316492D01*
X82187159Y-162887920D02*
X82187159Y-161887920D01*
X82425254Y-161887920D01*
X82568111Y-161935540D01*
X82663349Y-162030778D01*
X82710968Y-162126016D01*
X82758587Y-162316492D01*
X82758587Y-162459349D01*
X82710968Y-162649825D01*
X82663349Y-162745063D01*
X82568111Y-162840301D01*
X82425254Y-162887920D01*
X82187159Y-162887920D01*
X83187159Y-162887920D02*
X83187159Y-162221254D01*
X83187159Y-162411730D02*
X83234778Y-162316492D01*
X83282397Y-162268873D01*
X83377635Y-162221254D01*
X83472873Y-162221254D01*
X83806206Y-162887920D02*
X83806206Y-162221254D01*
X83806206Y-161887920D02*
X83758587Y-161935540D01*
X83806206Y-161983159D01*
X83853825Y-161935540D01*
X83806206Y-161887920D01*
X83806206Y-161983159D01*
X84187159Y-162221254D02*
X84425254Y-162887920D01*
X84663349Y-162221254D01*
X85425254Y-162840301D02*
X85330016Y-162887920D01*
X85139540Y-162887920D01*
X85044301Y-162840301D01*
X84996682Y-162745063D01*
X84996682Y-162364111D01*
X85044301Y-162268873D01*
X85139540Y-162221254D01*
X85330016Y-162221254D01*
X85425254Y-162268873D01*
X85472873Y-162364111D01*
X85472873Y-162459349D01*
X84996682Y-162554587D01*
X85901444Y-162887920D02*
X85901444Y-162221254D01*
X85901444Y-162411730D02*
X85949063Y-162316492D01*
X85996682Y-162268873D01*
X86091920Y-162221254D01*
X86187159Y-162221254D01*
X168402095Y-62746000D02*
X168306857Y-62698380D01*
X168164000Y-62698380D01*
X168021142Y-62746000D01*
X167925904Y-62841238D01*
X167878285Y-62936476D01*
X167830666Y-63126952D01*
X167830666Y-63269809D01*
X167878285Y-63460285D01*
X167925904Y-63555523D01*
X168021142Y-63650761D01*
X168164000Y-63698380D01*
X168259238Y-63698380D01*
X168402095Y-63650761D01*
X168449714Y-63603142D01*
X168449714Y-63269809D01*
X168259238Y-63269809D01*
X168878285Y-63698380D02*
X168878285Y-62698380D01*
X169449714Y-63698380D01*
X169449714Y-62698380D01*
X169925904Y-63698380D02*
X169925904Y-62698380D01*
X170164000Y-62698380D01*
X170306857Y-62746000D01*
X170402095Y-62841238D01*
X170449714Y-62936476D01*
X170497333Y-63126952D01*
X170497333Y-63269809D01*
X170449714Y-63460285D01*
X170402095Y-63555523D01*
X170306857Y-63650761D01*
X170164000Y-63698380D01*
X169925904Y-63698380D01*
X168084666Y-72604380D02*
X168418000Y-73604380D01*
X168751333Y-72604380D01*
X169656095Y-73509142D02*
X169608476Y-73556761D01*
X169465619Y-73604380D01*
X169370380Y-73604380D01*
X169227523Y-73556761D01*
X169132285Y-73461523D01*
X169084666Y-73366285D01*
X169037047Y-73175809D01*
X169037047Y-73032952D01*
X169084666Y-72842476D01*
X169132285Y-72747238D01*
X169227523Y-72652000D01*
X169370380Y-72604380D01*
X169465619Y-72604380D01*
X169608476Y-72652000D01*
X169656095Y-72699619D01*
X170656095Y-73509142D02*
X170608476Y-73556761D01*
X170465619Y-73604380D01*
X170370380Y-73604380D01*
X170227523Y-73556761D01*
X170132285Y-73461523D01*
X170084666Y-73366285D01*
X170037047Y-73175809D01*
X170037047Y-73032952D01*
X170084666Y-72842476D01*
X170132285Y-72747238D01*
X170227523Y-72652000D01*
X170370380Y-72604380D01*
X170465619Y-72604380D01*
X170608476Y-72652000D01*
X170656095Y-72699619D01*
X164076190Y-72604380D02*
X164647619Y-72604380D01*
X164361904Y-73604380D02*
X164361904Y-72604380D01*
X164980952Y-73604380D02*
X164980952Y-72604380D01*
X165219047Y-72604380D01*
X165361904Y-72652000D01*
X165457142Y-72747238D01*
X165504761Y-72842476D01*
X165552380Y-73032952D01*
X165552380Y-73175809D01*
X165504761Y-73366285D01*
X165457142Y-73461523D01*
X165361904Y-73556761D01*
X165219047Y-73604380D01*
X164980952Y-73604380D01*
X165980952Y-73604380D02*
X165980952Y-72604380D01*
X164044476Y-70064380D02*
X164615904Y-70064380D01*
X164330190Y-71064380D02*
X164330190Y-70064380D01*
X164949238Y-71064380D02*
X164949238Y-70064380D01*
X165187333Y-70064380D01*
X165330190Y-70112000D01*
X165425428Y-70207238D01*
X165473047Y-70302476D01*
X165520666Y-70492952D01*
X165520666Y-70635809D01*
X165473047Y-70826285D01*
X165425428Y-70921523D01*
X165330190Y-71016761D01*
X165187333Y-71064380D01*
X164949238Y-71064380D01*
X166139714Y-70064380D02*
X166330190Y-70064380D01*
X166425428Y-70112000D01*
X166520666Y-70207238D01*
X166568285Y-70397714D01*
X166568285Y-70731047D01*
X166520666Y-70921523D01*
X166425428Y-71016761D01*
X166330190Y-71064380D01*
X166139714Y-71064380D01*
X166044476Y-71016761D01*
X165949238Y-70921523D01*
X165901619Y-70731047D01*
X165901619Y-70397714D01*
X165949238Y-70207238D01*
X166044476Y-70112000D01*
X166139714Y-70064380D01*
X164068285Y-67270380D02*
X164639714Y-67270380D01*
X164354000Y-68270380D02*
X164354000Y-67270380D01*
X165544476Y-68175142D02*
X165496857Y-68222761D01*
X165354000Y-68270380D01*
X165258761Y-68270380D01*
X165115904Y-68222761D01*
X165020666Y-68127523D01*
X164973047Y-68032285D01*
X164925428Y-67841809D01*
X164925428Y-67698952D01*
X164973047Y-67508476D01*
X165020666Y-67413238D01*
X165115904Y-67318000D01*
X165258761Y-67270380D01*
X165354000Y-67270380D01*
X165496857Y-67318000D01*
X165544476Y-67365619D01*
X165973047Y-68270380D02*
X165973047Y-67270380D01*
X166544476Y-68270380D02*
X166115904Y-67698952D01*
X166544476Y-67270380D02*
X165973047Y-67841809D01*
X164020666Y-64984380D02*
X164592095Y-64984380D01*
X164306380Y-65984380D02*
X164306380Y-64984380D01*
X164925428Y-65984380D02*
X164925428Y-64984380D01*
X165258761Y-65698666D01*
X165592095Y-64984380D01*
X165592095Y-65984380D01*
X166020666Y-65936761D02*
X166163523Y-65984380D01*
X166401619Y-65984380D01*
X166496857Y-65936761D01*
X166544476Y-65889142D01*
X166592095Y-65793904D01*
X166592095Y-65698666D01*
X166544476Y-65603428D01*
X166496857Y-65555809D01*
X166401619Y-65508190D01*
X166211142Y-65460571D01*
X166115904Y-65412952D01*
X166068285Y-65365333D01*
X166020666Y-65270095D01*
X166020666Y-65174857D01*
X166068285Y-65079619D01*
X166115904Y-65032000D01*
X166211142Y-64984380D01*
X166449238Y-64984380D01*
X166592095Y-65032000D01*
X203635428Y-89591968D02*
X204651428Y-89591968D01*
X203635428Y-91115968D01*
X204651428Y-91115968D01*
X207118857Y-91115968D02*
X206393142Y-91115968D01*
X206393142Y-89591968D01*
X207626857Y-91115968D02*
X207626857Y-89591968D01*
X208352571Y-91115968D02*
X208352571Y-89591968D01*
X208860571Y-90680540D01*
X209368571Y-89591968D01*
X209368571Y-91115968D01*
X210094285Y-91115968D02*
X210094285Y-89591968D01*
X210602285Y-89591968D02*
X211473142Y-89591968D01*
X211037714Y-91115968D02*
X211037714Y-89591968D01*
X181824571Y-74845206D02*
X182300761Y-74845206D01*
X181729333Y-75130920D02*
X182062666Y-74130920D01*
X182396000Y-75130920D01*
X183205523Y-75130920D02*
X182729333Y-75130920D01*
X182729333Y-74130920D01*
X183538857Y-75130920D02*
X183538857Y-74464254D01*
X183538857Y-74130920D02*
X183491238Y-74178540D01*
X183538857Y-74226159D01*
X183586476Y-74178540D01*
X183538857Y-74130920D01*
X183538857Y-74226159D01*
X184015047Y-75130920D02*
X184015047Y-74464254D01*
X184015047Y-74559492D02*
X184062666Y-74511873D01*
X184157904Y-74464254D01*
X184300761Y-74464254D01*
X184396000Y-74511873D01*
X184443619Y-74607111D01*
X184443619Y-75130920D01*
X184443619Y-74607111D02*
X184491238Y-74511873D01*
X184586476Y-74464254D01*
X184729333Y-74464254D01*
X184824571Y-74511873D01*
X184872190Y-74607111D01*
X184872190Y-75130920D01*
X185348380Y-75130920D02*
X185348380Y-74464254D01*
X185348380Y-74130920D02*
X185300761Y-74178540D01*
X185348380Y-74226159D01*
X185396000Y-74178540D01*
X185348380Y-74130920D01*
X185348380Y-74226159D01*
X185681714Y-74464254D02*
X186062666Y-74464254D01*
X185824571Y-74130920D02*
X185824571Y-74988063D01*
X185872190Y-75083301D01*
X185967428Y-75130920D01*
X186062666Y-75130920D01*
X181729333Y-79210920D02*
X182396000Y-79210920D01*
X181729333Y-80210920D01*
X182396000Y-80210920D01*
X183253142Y-80210920D02*
X182776952Y-80210920D01*
X182776952Y-79210920D01*
X183586476Y-80210920D02*
X183586476Y-79544254D01*
X183586476Y-79210920D02*
X183538857Y-79258540D01*
X183586476Y-79306159D01*
X183634095Y-79258540D01*
X183586476Y-79210920D01*
X183586476Y-79306159D01*
X184062666Y-80210920D02*
X184062666Y-79544254D01*
X184062666Y-79639492D02*
X184110285Y-79591873D01*
X184205523Y-79544254D01*
X184348380Y-79544254D01*
X184443619Y-79591873D01*
X184491238Y-79687111D01*
X184491238Y-80210920D01*
X184491238Y-79687111D02*
X184538857Y-79591873D01*
X184634095Y-79544254D01*
X184776952Y-79544254D01*
X184872190Y-79591873D01*
X184919809Y-79687111D01*
X184919809Y-80210920D01*
X185396000Y-80210920D02*
X185396000Y-79544254D01*
X185396000Y-79210920D02*
X185348380Y-79258540D01*
X185396000Y-79306159D01*
X185443619Y-79258540D01*
X185396000Y-79210920D01*
X185396000Y-79306159D01*
X185729333Y-79544254D02*
X186110285Y-79544254D01*
X185872190Y-79210920D02*
X185872190Y-80068063D01*
X185919809Y-80163301D01*
X186015047Y-80210920D01*
X186110285Y-80210920D01*
X180482952Y-88338920D02*
X179911523Y-88338920D01*
X180197238Y-88338920D02*
X180197238Y-87338920D01*
X180102000Y-87481778D01*
X180006761Y-87577016D01*
X179911523Y-87624635D01*
X181387714Y-87338920D02*
X180911523Y-87338920D01*
X180863904Y-87815111D01*
X180911523Y-87767492D01*
X181006761Y-87719873D01*
X181244857Y-87719873D01*
X181340095Y-87767492D01*
X181387714Y-87815111D01*
X181435333Y-87910349D01*
X181435333Y-88148444D01*
X181387714Y-88243682D01*
X181340095Y-88291301D01*
X181244857Y-88338920D01*
X181006761Y-88338920D01*
X180911523Y-88291301D01*
X180863904Y-88243682D01*
X181721047Y-87338920D02*
X182054380Y-88338920D01*
X182387714Y-87338920D01*
D12*
X208788000Y-64010540D02*
G75*
G03*
X208788000Y-64010540I-1524000J0D01*
G01*
D11*
X102794888Y-87892587D02*
X104246317Y-87892587D01*
X103520602Y-90432587D02*
X103520602Y-87892587D01*
X105455840Y-90432587D02*
X105213936Y-90311635D01*
X105092983Y-90190682D01*
X104972031Y-89948778D01*
X104972031Y-89223063D01*
X105092983Y-88981159D01*
X105213936Y-88860206D01*
X105455840Y-88739254D01*
X105818698Y-88739254D01*
X106060602Y-88860206D01*
X106181555Y-88981159D01*
X106302507Y-89223063D01*
X106302507Y-89948778D01*
X106181555Y-90190682D01*
X106060602Y-90311635D01*
X105818698Y-90432587D01*
X105455840Y-90432587D01*
X107391079Y-90432587D02*
X107391079Y-88739254D01*
X107391079Y-89223063D02*
X107512031Y-88981159D01*
X107632983Y-88860206D01*
X107874888Y-88739254D01*
X108116793Y-88739254D01*
X110052031Y-90311635D02*
X109810126Y-90432587D01*
X109326317Y-90432587D01*
X109084412Y-90311635D01*
X108963460Y-90190682D01*
X108842507Y-89948778D01*
X108842507Y-89223063D01*
X108963460Y-88981159D01*
X109084412Y-88860206D01*
X109326317Y-88739254D01*
X109810126Y-88739254D01*
X110052031Y-88860206D01*
X111140602Y-90432587D02*
X111140602Y-87892587D01*
X112229174Y-90432587D02*
X112229174Y-89102111D01*
X112108221Y-88860206D01*
X111866317Y-88739254D01*
X111503460Y-88739254D01*
X111261555Y-88860206D01*
X111140602Y-88981159D01*
D12*
X108455460Y-64137540D02*
G75*
G03*
X108455460Y-64137540I-1524000J0D01*
G01*
D13*
X113792000Y-85477000D02*
X109742000Y-85477000D01*
X113792000Y-68967000D02*
X113792000Y-85477000D01*
X109742000Y-68967000D02*
X113792000Y-68967000D01*
X100202000Y-85477000D02*
X105242000Y-85477000D01*
X100202000Y-68967000D02*
X100202000Y-85477000D01*
X105242000Y-68967000D02*
X100202000Y-68967000D01*
X203668000Y-69469000D02*
X198628000Y-69469000D01*
X198628000Y-69469000D02*
X198628000Y-85979000D01*
X198628000Y-85979000D02*
X203668000Y-85979000D01*
X208168000Y-69469000D02*
X212218000Y-69469000D01*
X212218000Y-69469000D02*
X212218000Y-85979000D01*
X212218000Y-85979000D02*
X208168000Y-85979000D01*
X166878000Y-92073000D02*
X162828000Y-92073000D01*
X166878000Y-75563000D02*
X166878000Y-92073000D01*
X162828000Y-75563000D02*
X166878000Y-75563000D01*
X153288000Y-92073000D02*
X158328000Y-92073000D01*
X153288000Y-75563000D02*
X153288000Y-92073000D01*
X158328000Y-75563000D02*
X153288000Y-75563000D01*
D12*
X103113333Y-166430000D02*
X108679999Y-166430000D01*
X103113333Y-166070000D02*
X103113333Y-166430000D01*
X97546667Y-166070000D02*
X103113333Y-166070000D01*
X97546667Y-166430000D02*
X97546667Y-166070000D01*
X91980000Y-166430000D02*
X97546667Y-166430000D01*
X91980001Y-143450000D02*
X91980000Y-166430000D01*
X108680000Y-143450000D02*
X91980001Y-143450000D01*
X108679999Y-166430000D02*
X108680000Y-143450000D01*
X82793333Y-166430000D02*
X88359999Y-166430000D01*
X82793333Y-166070000D02*
X82793333Y-166430000D01*
X77226667Y-166070000D02*
X82793333Y-166070000D01*
X77226667Y-166430000D02*
X77226667Y-166070000D01*
X71660000Y-166430000D02*
X77226667Y-166430000D01*
X71660001Y-143450000D02*
X71660000Y-166430000D01*
X88360000Y-143450000D02*
X71660001Y-143450000D01*
X88359999Y-166430000D02*
X88360000Y-143450000D01*
X84834184Y-73013040D02*
X84324736Y-73013040D01*
X84834184Y-74058040D02*
X84324736Y-74058040D01*
X79645727Y-70231540D02*
X79353193Y-70231540D01*
X79645727Y-71251540D02*
X79353193Y-71251540D01*
X84725727Y-71251540D02*
X84433193Y-71251540D01*
X84725727Y-70231540D02*
X84433193Y-70231540D01*
X84817460Y-81572540D02*
X84817460Y-85472540D01*
X82817460Y-81572540D02*
X82817460Y-85472540D01*
X84817460Y-81572540D02*
X82817460Y-81572540D01*
X76260000Y-92770000D02*
X74930000Y-92770000D01*
X76260000Y-91440000D02*
X76260000Y-92770000D01*
X76260000Y-90170000D02*
X73600000Y-90170000D01*
X73600000Y-90170000D02*
X73600000Y-62170000D01*
X76260000Y-90170000D02*
X76260000Y-62170000D01*
X76260000Y-62170000D02*
X73600000Y-62170000D01*
X90548460Y-86616540D02*
X90548460Y-82679540D01*
X91818460Y-86616540D02*
X90548460Y-86616540D01*
X91818460Y-82679540D02*
X91818460Y-86616540D01*
X90548460Y-82679540D02*
X91818460Y-82679540D01*
X90675460Y-84076540D02*
X91818460Y-85219540D01*
X91183460Y-91315540D02*
X90929460Y-91315540D01*
X91183460Y-86616540D02*
X91183460Y-91315540D01*
X91183460Y-78742540D02*
X90802460Y-78742540D01*
X91183460Y-82552540D02*
X91183460Y-78742540D01*
X88232460Y-76942540D02*
X98432460Y-76942540D01*
X88232460Y-93042540D02*
X88232460Y-76942540D01*
X98432460Y-93042540D02*
X88232460Y-93042540D01*
X98432460Y-76942540D02*
X98432460Y-93042540D01*
X89532460Y-79942540D02*
X89532460Y-80742540D01*
X89932460Y-80342540D02*
X89132460Y-80342540D01*
X88032460Y-78742540D02*
X88032460Y-76742540D01*
X88032460Y-76742540D02*
X89632460Y-76742540D01*
X86609460Y-91295340D02*
X85149460Y-91295340D01*
X86609460Y-88135340D02*
X84449460Y-88135340D01*
X86609460Y-88135340D02*
X86609460Y-89065340D01*
X86609460Y-91295340D02*
X86609460Y-90365340D01*
X96774724Y-70597500D02*
X96265276Y-70597500D01*
X96774724Y-71642500D02*
X96265276Y-71642500D01*
X83254960Y-66752816D02*
X83254960Y-67262264D01*
X84299960Y-66752816D02*
X84299960Y-67262264D01*
X79754184Y-91838040D02*
X79244736Y-91838040D01*
X79754184Y-90793040D02*
X79244736Y-90793040D01*
X79117736Y-66565040D02*
X79627184Y-66565040D01*
X79117736Y-65520040D02*
X79627184Y-65520040D01*
X80012540Y-144040540D02*
X78062540Y-144040540D01*
X80012540Y-144040540D02*
X81962540Y-144040540D01*
X80012540Y-154160540D02*
X78062540Y-154160540D01*
X80012540Y-154160540D02*
X83462540Y-154160540D01*
X115494980Y-173375300D02*
X115494980Y-164745300D01*
X115613075Y-173375300D02*
X115613075Y-164745300D01*
X115731170Y-173375300D02*
X115731170Y-164745300D01*
X115849265Y-173375300D02*
X115849265Y-164745300D01*
X115967360Y-173375300D02*
X115967360Y-164745300D01*
X116085455Y-173375300D02*
X116085455Y-164745300D01*
X116203550Y-173375300D02*
X116203550Y-164745300D01*
X116321645Y-173375300D02*
X116321645Y-164745300D01*
X116439740Y-173375300D02*
X116439740Y-164745300D01*
X116557835Y-173375300D02*
X116557835Y-164745300D01*
X116675930Y-173375300D02*
X116675930Y-164745300D01*
X116794025Y-173375300D02*
X116794025Y-164745300D01*
X116912120Y-173375300D02*
X116912120Y-164745300D01*
X117030215Y-173375300D02*
X117030215Y-164745300D01*
X117148310Y-173375300D02*
X117148310Y-164745300D01*
X117266405Y-173375300D02*
X117266405Y-164745300D01*
X117384500Y-173375300D02*
X117384500Y-164745300D01*
X117502595Y-173375300D02*
X117502595Y-164745300D01*
X117620690Y-173375300D02*
X117620690Y-164745300D01*
X117738785Y-173375300D02*
X117738785Y-164745300D01*
X117856880Y-173375300D02*
X117856880Y-164745300D01*
X116344980Y-164745300D02*
X116344980Y-164335300D01*
X116344980Y-162235300D02*
X116344980Y-161855300D01*
X117064980Y-164745300D02*
X117064980Y-164335300D01*
X117064980Y-162235300D02*
X117064980Y-161855300D01*
X118884980Y-164745300D02*
X118884980Y-164335300D01*
X118884980Y-162235300D02*
X118884980Y-161795300D01*
X119604980Y-164745300D02*
X119604980Y-164335300D01*
X119604980Y-162235300D02*
X119604980Y-161795300D01*
X121424980Y-164745300D02*
X121424980Y-164335300D01*
X121424980Y-162235300D02*
X121424980Y-161795300D01*
X122144980Y-164745300D02*
X122144980Y-164335300D01*
X122144980Y-162235300D02*
X122144980Y-161795300D01*
X123964980Y-164745300D02*
X123964980Y-164335300D01*
X123964980Y-162235300D02*
X123964980Y-161795300D01*
X124684980Y-164745300D02*
X124684980Y-164335300D01*
X124684980Y-162235300D02*
X124684980Y-161795300D01*
X126504980Y-164745300D02*
X126504980Y-164335300D01*
X126504980Y-162235300D02*
X126504980Y-161795300D01*
X127224980Y-164745300D02*
X127224980Y-164335300D01*
X127224980Y-162235300D02*
X127224980Y-161795300D01*
X117974980Y-173375300D02*
X117974980Y-164745300D01*
X120514980Y-173375300D02*
X120514980Y-164745300D01*
X123054980Y-173375300D02*
X123054980Y-164745300D01*
X125594980Y-173375300D02*
X125594980Y-164745300D01*
X115374980Y-173375300D02*
X115374980Y-164745300D01*
X115374980Y-164745300D02*
X128194980Y-164745300D01*
X128194980Y-173375300D02*
X128194980Y-164745300D01*
X115374980Y-173375300D02*
X128194980Y-173375300D01*
X115374980Y-159635300D02*
X116704980Y-159635300D01*
X115374980Y-160745300D02*
X115374980Y-159635300D01*
X191264000Y-70722273D02*
X191264000Y-71014807D01*
X190244000Y-70722273D02*
X190244000Y-71014807D01*
X191518000Y-85492807D02*
X191518000Y-85200273D01*
X190498000Y-85492807D02*
X190498000Y-85200273D01*
X176590000Y-62170000D02*
X173930000Y-62170000D01*
X176590000Y-90170000D02*
X176590000Y-62170000D01*
X173930000Y-90170000D02*
X173930000Y-62170000D01*
X176590000Y-90170000D02*
X173930000Y-90170000D01*
X176590000Y-91440000D02*
X176590000Y-92770000D01*
X176590000Y-92770000D02*
X175260000Y-92770000D01*
X196342724Y-75172040D02*
X195833276Y-75172040D01*
X196342724Y-76217040D02*
X195833276Y-76217040D01*
X196342724Y-81297040D02*
X195833276Y-81297040D01*
X196342724Y-80252040D02*
X195833276Y-80252040D01*
X194549500Y-71123264D02*
X194549500Y-70613816D01*
X195594500Y-71123264D02*
X195594500Y-70613816D01*
X194549500Y-85091816D02*
X194549500Y-85601264D01*
X195594500Y-85091816D02*
X195594500Y-85601264D01*
X191261276Y-76217040D02*
X191770724Y-76217040D01*
X191261276Y-75172040D02*
X191770724Y-75172040D01*
X191261276Y-80252040D02*
X191770724Y-80252040D01*
X191261276Y-81297040D02*
X191770724Y-81297040D01*
X148650000Y-92770000D02*
X147320000Y-92770000D01*
X148650000Y-91440000D02*
X148650000Y-92770000D01*
X148650000Y-90170000D02*
X145990000Y-90170000D01*
X145990000Y-90170000D02*
X145990000Y-62170000D01*
X148650000Y-90170000D02*
X148650000Y-62170000D01*
X148650000Y-62170000D02*
X145990000Y-62170000D01*
X81532184Y-73013040D02*
X81022736Y-73013040D01*
X81532184Y-74058040D02*
X81022736Y-74058040D01*
X81532184Y-77360040D02*
X81022736Y-77360040D01*
X81532184Y-76315040D02*
X81022736Y-76315040D01*
X85983460Y-60971540D02*
X93844460Y-60971540D01*
X85983460Y-63001540D02*
X93844460Y-63001540D01*
X93844460Y-63001540D02*
X93844460Y-60971540D01*
X85983460Y-63001540D02*
X85983460Y-60971540D01*
X85727460Y-63001540D02*
X94098460Y-63001540D01*
X85727460Y-69211540D02*
X94098460Y-69211540D01*
X94098460Y-69211540D02*
X94098460Y-63001540D01*
X85727460Y-69211540D02*
X85727460Y-63001540D01*
X158810000Y-74520100D02*
X157480000Y-74520100D01*
X158810000Y-73190100D02*
X158810000Y-74520100D01*
X156210000Y-74520100D02*
X153610000Y-74520100D01*
X156210000Y-71920100D02*
X156210000Y-74520100D01*
X158810000Y-71920100D02*
X156210000Y-71920100D01*
X153610000Y-74520100D02*
X153610000Y-61700100D01*
X158810000Y-71920100D02*
X158810000Y-61700100D01*
X158810000Y-61700100D02*
X153610000Y-61700100D01*
X97383060Y-159979240D02*
X98843060Y-159979240D01*
X97383060Y-163139240D02*
X99543060Y-163139240D01*
X97383060Y-163139240D02*
X97383060Y-162209240D01*
X97383060Y-159979240D02*
X97383060Y-160909240D01*
X97383060Y-150327240D02*
X98843060Y-150327240D01*
X97383060Y-153487240D02*
X99543060Y-153487240D01*
X97383060Y-153487240D02*
X97383060Y-152557240D01*
X97383060Y-150327240D02*
X97383060Y-151257240D01*
X97383060Y-155153240D02*
X97383060Y-156083240D01*
X97383060Y-158313240D02*
X97383060Y-157383240D01*
X97383060Y-158313240D02*
X99543060Y-158313240D01*
X97383060Y-155153240D02*
X98843060Y-155153240D01*
X97399060Y-145440240D02*
X97399060Y-146370240D01*
X97399060Y-148600240D02*
X97399060Y-147670240D01*
X97399060Y-148600240D02*
X99559060Y-148600240D01*
X97399060Y-145440240D02*
X98859060Y-145440240D01*
X103716560Y-161305964D02*
X103716560Y-160796516D01*
X104761560Y-161305964D02*
X104761560Y-160796516D01*
X101840560Y-161178964D02*
X101840560Y-160669516D01*
X100795560Y-161178964D02*
X100795560Y-160669516D01*
X103589560Y-153050964D02*
X103589560Y-152541516D01*
X104634560Y-153050964D02*
X104634560Y-152541516D01*
X101840560Y-151653964D02*
X101840560Y-151144516D01*
X100795560Y-151653964D02*
X100795560Y-151144516D01*
X103589560Y-157622964D02*
X103589560Y-157113516D01*
X104634560Y-157622964D02*
X104634560Y-157113516D01*
X101840560Y-156479964D02*
X101840560Y-155970516D01*
X100795560Y-156479964D02*
X100795560Y-155970516D01*
X103589560Y-148605964D02*
X103589560Y-148096516D01*
X104634560Y-148605964D02*
X104634560Y-148096516D01*
X101840560Y-147208964D02*
X101840560Y-146699516D01*
X100795560Y-147208964D02*
X100795560Y-146699516D01*
X150584276Y-84710600D02*
X151093724Y-84710600D01*
X150584276Y-85755600D02*
X151093724Y-85755600D01*
X150584276Y-83110600D02*
X151093724Y-83110600D01*
X150584276Y-82065600D02*
X151093724Y-82065600D01*
X150584276Y-78890600D02*
X151093724Y-78890600D01*
X150584276Y-79935600D02*
X151093724Y-79935600D01*
X150584276Y-77141600D02*
X151093724Y-77141600D01*
X150584276Y-76096600D02*
X151093724Y-76096600D01*
X150584276Y-73175600D02*
X151093724Y-73175600D01*
X150584276Y-74220600D02*
X151093724Y-74220600D01*
X150584276Y-71680600D02*
X151093724Y-71680600D01*
X150584276Y-70635600D02*
X151093724Y-70635600D01*
X150584276Y-67841600D02*
X151093724Y-67841600D01*
X150584276Y-68886600D02*
X151093724Y-68886600D01*
X150584276Y-66005600D02*
X151093724Y-66005600D01*
X150584276Y-64960600D02*
X151093724Y-64960600D01*
X137324887Y-79730820D02*
X137032353Y-79730820D01*
X137324887Y-80750820D02*
X137032353Y-80750820D01*
X129788620Y-82694553D02*
X129788620Y-82987087D01*
X128768620Y-82694553D02*
X128768620Y-82987087D01*
X130788620Y-73694553D02*
X130788620Y-73987087D01*
X129768620Y-73694553D02*
X129768620Y-73987087D01*
X128968620Y-89194553D02*
X128968620Y-89487087D01*
X129988620Y-89194553D02*
X129988620Y-89487087D01*
X136438620Y-78600820D02*
X136438620Y-75740820D01*
X134518620Y-78600820D02*
X136438620Y-78600820D01*
X134518620Y-75740820D02*
X134518620Y-78600820D01*
X139938620Y-77840820D02*
X139938620Y-74980820D01*
X139938620Y-74980820D02*
X138018620Y-74980820D01*
X138018620Y-74980820D02*
X138018620Y-77840820D01*
X130173896Y-91918320D02*
X130683344Y-91918320D01*
X130173896Y-92963320D02*
X130683344Y-92963320D01*
X130683344Y-86018320D02*
X130173896Y-86018320D01*
X130683344Y-87063320D02*
X130173896Y-87063320D01*
X134508620Y-88510820D02*
X134508620Y-91170820D01*
X137108620Y-88510820D02*
X134508620Y-88510820D01*
X137108620Y-91170820D02*
X134508620Y-91170820D01*
X137108620Y-88510820D02*
X137108620Y-91170820D01*
X138378620Y-88510820D02*
X139708620Y-88510820D01*
X139708620Y-88510820D02*
X139708620Y-89840820D01*
X83607460Y-61927540D02*
X83607460Y-63257540D01*
X82277460Y-61927540D02*
X83607460Y-61927540D01*
X81007460Y-61927540D02*
X81007460Y-64587540D01*
X81007460Y-64587540D02*
X78407460Y-64587540D01*
X81007460Y-61927540D02*
X78407460Y-61927540D01*
X78407460Y-61927540D02*
X78407460Y-64587540D01*
X127060000Y-92770000D02*
X125730000Y-92770000D01*
X127060000Y-91440000D02*
X127060000Y-92770000D01*
X127060000Y-90170000D02*
X124400000Y-90170000D01*
X124400000Y-90170000D02*
X124400000Y-62170000D01*
X127060000Y-90170000D02*
X127060000Y-62170000D01*
X127060000Y-62170000D02*
X124400000Y-62170000D01*
X137956120Y-86086096D02*
X137956120Y-86595544D01*
X139001120Y-86086096D02*
X139001120Y-86595544D01*
X135356120Y-86595544D02*
X135356120Y-86086096D01*
X136401120Y-86595544D02*
X136401120Y-86086096D01*
X139256120Y-81886096D02*
X139256120Y-82395544D01*
X140301120Y-81886096D02*
X140301120Y-82395544D01*
X133356120Y-83195544D02*
X133356120Y-82686096D01*
X134401120Y-83195544D02*
X134401120Y-82686096D01*
X140156120Y-64795544D02*
X140156120Y-64286096D01*
X141201120Y-64795544D02*
X141201120Y-64286096D01*
X132756120Y-64286096D02*
X132756120Y-64795544D01*
X133801120Y-64286096D02*
X133801120Y-64795544D01*
X129456120Y-64186096D02*
X129456120Y-64695544D01*
X130501120Y-64186096D02*
X130501120Y-64695544D01*
X137201120Y-64286096D02*
X137201120Y-64795544D01*
X136156120Y-64286096D02*
X136156120Y-64795544D01*
X128468620Y-77560820D02*
X128468620Y-79990820D01*
X131538620Y-79320820D02*
X131538620Y-77560820D01*
D11*
X136603620Y-69965820D02*
X136603620Y-69790820D01*
X133353620Y-69965820D02*
X133353620Y-69690820D01*
X133353620Y-66715820D02*
X133353620Y-66990820D01*
X136603620Y-66715820D02*
X136603620Y-66990820D01*
X136603620Y-69965820D02*
X133353620Y-69965820D01*
X136603620Y-66715820D02*
X133353620Y-66715820D01*
X136603620Y-69790820D02*
X137678620Y-69790820D01*
D12*
X101432461Y-61927540D02*
X101432461Y-63257540D01*
X100102461Y-61927540D02*
X101432461Y-61927540D01*
X101432461Y-64527540D02*
X101432461Y-67127540D01*
X98832461Y-64527540D02*
X101432461Y-64527540D01*
X98832461Y-61927540D02*
X98832461Y-64527540D01*
X101432461Y-67127540D02*
X96232461Y-67127540D01*
X98832461Y-61927540D02*
X96232461Y-61927540D01*
X96232461Y-61927540D02*
X96232461Y-67127540D01*
X137456120Y-83195544D02*
X137456120Y-82686096D01*
X138501120Y-83195544D02*
X138501120Y-82686096D01*
X136201120Y-83195544D02*
X136201120Y-82686096D01*
X135156120Y-83195544D02*
X135156120Y-82686096D01*
X112350000Y-149040000D02*
X112850000Y-149540000D01*
X112350000Y-150040000D02*
X112350000Y-149040000D01*
X112850000Y-149540000D02*
X112350000Y-150040000D01*
X129775000Y-158100000D02*
X129775000Y-152540000D01*
X113045000Y-158100000D02*
X113045000Y-152540000D01*
X113045000Y-158100000D02*
X129775000Y-158100000D01*
X129775000Y-142130000D02*
X129775000Y-149740000D01*
X113045000Y-142130000D02*
X113045000Y-149740000D01*
X113045000Y-142130000D02*
X129775000Y-142130000D01*
X163169000Y-61863100D02*
X160509000Y-61863100D01*
X163169000Y-64463100D02*
X163169000Y-61863100D01*
X160509000Y-64463100D02*
X160509000Y-61863100D01*
X163169000Y-64463100D02*
X160509000Y-64463100D01*
X163169000Y-65733100D02*
X163169000Y-67063100D01*
X163169000Y-67063100D02*
X161839000Y-67063100D01*
X214540000Y-67354540D02*
X213210000Y-67354540D01*
X214540000Y-66024540D02*
X214540000Y-67354540D01*
X214540000Y-64754540D02*
X211880000Y-64754540D01*
X211880000Y-64754540D02*
X211880000Y-62154540D01*
X214540000Y-64754540D02*
X214540000Y-62154540D01*
X214540000Y-62154540D02*
X211880000Y-62154540D01*
X211880000Y-92394540D02*
X214540000Y-92394540D01*
X211880000Y-89794540D02*
X211880000Y-92394540D01*
X214540000Y-89794540D02*
X214540000Y-92394540D01*
X211880000Y-89794540D02*
X214540000Y-89794540D01*
X211880000Y-88524540D02*
X211880000Y-87194540D01*
X211880000Y-87194540D02*
X213210000Y-87194540D01*
D14*
X112352666Y-64328523D02*
X112352666Y-65235666D01*
X112292190Y-65417095D01*
X112171238Y-65538047D01*
X111989809Y-65598523D01*
X111868857Y-65598523D01*
X113622666Y-65598523D02*
X112896952Y-65598523D01*
X113259809Y-65598523D02*
X113259809Y-64328523D01*
X113138857Y-64509952D01*
X113017904Y-64630904D01*
X112896952Y-64691380D01*
X198458666Y-64328523D02*
X198458666Y-65235666D01*
X198398190Y-65417095D01*
X198277238Y-65538047D01*
X198095809Y-65598523D01*
X197974857Y-65598523D01*
X199607714Y-64751857D02*
X199607714Y-65598523D01*
X199305333Y-64268047D02*
X199002952Y-65175190D01*
X199789142Y-65175190D01*
X168232666Y-82870523D02*
X168232666Y-83777666D01*
X168172190Y-83959095D01*
X168051238Y-84080047D01*
X167869809Y-84140523D01*
X167748857Y-84140523D01*
X169018857Y-83414809D02*
X168897904Y-83354333D01*
X168837428Y-83293857D01*
X168776952Y-83172904D01*
X168776952Y-83112428D01*
X168837428Y-82991476D01*
X168897904Y-82931000D01*
X169018857Y-82870523D01*
X169260761Y-82870523D01*
X169381714Y-82931000D01*
X169442190Y-82991476D01*
X169502666Y-83112428D01*
X169502666Y-83172904D01*
X169442190Y-83293857D01*
X169381714Y-83354333D01*
X169260761Y-83414809D01*
X169018857Y-83414809D01*
X168897904Y-83475285D01*
X168837428Y-83535761D01*
X168776952Y-83656714D01*
X168776952Y-83898619D01*
X168837428Y-84019571D01*
X168897904Y-84080047D01*
X169018857Y-84140523D01*
X169260761Y-84140523D01*
X169381714Y-84080047D01*
X169442190Y-84019571D01*
X169502666Y-83898619D01*
X169502666Y-83656714D01*
X169442190Y-83535761D01*
X169381714Y-83475285D01*
X169260761Y-83414809D01*
D11*
X201168095Y-64460380D02*
X201168095Y-63460380D01*
X201168095Y-63936571D02*
X201739523Y-63936571D01*
X201739523Y-64460380D02*
X201739523Y-63460380D01*
X202168095Y-63555619D02*
X202215714Y-63508000D01*
X202310952Y-63460380D01*
X202549047Y-63460380D01*
X202644285Y-63508000D01*
X202691904Y-63555619D01*
X202739523Y-63650857D01*
X202739523Y-63746095D01*
X202691904Y-63888952D01*
X202120476Y-64460380D01*
X202739523Y-64460380D01*
X110744095Y-63444380D02*
X110744095Y-62444380D01*
X110744095Y-62920571D02*
X111315523Y-62920571D01*
X111315523Y-63444380D02*
X111315523Y-62444380D01*
X112315523Y-63444380D02*
X111744095Y-63444380D01*
X112029809Y-63444380D02*
X112029809Y-62444380D01*
X111934571Y-62587238D01*
X111839333Y-62682476D01*
X111744095Y-62730095D01*
X98758476Y-164806380D02*
X98758476Y-165520666D01*
X98710857Y-165663523D01*
X98615619Y-165758761D01*
X98472761Y-165806380D01*
X98377523Y-165806380D01*
X99758476Y-165806380D02*
X99187047Y-165806380D01*
X99472761Y-165806380D02*
X99472761Y-164806380D01*
X99377523Y-164949238D01*
X99282285Y-165044476D01*
X99187047Y-165092095D01*
X100710857Y-165806380D02*
X100139428Y-165806380D01*
X100425142Y-165806380D02*
X100425142Y-164806380D01*
X100329904Y-164949238D01*
X100234666Y-165044476D01*
X100139428Y-165092095D01*
X78914666Y-164806380D02*
X78914666Y-165520666D01*
X78867047Y-165663523D01*
X78771809Y-165758761D01*
X78628952Y-165806380D01*
X78533714Y-165806380D01*
X79295619Y-164806380D02*
X79914666Y-164806380D01*
X79581333Y-165187333D01*
X79724190Y-165187333D01*
X79819428Y-165234952D01*
X79867047Y-165282571D01*
X79914666Y-165377809D01*
X79914666Y-165615904D01*
X79867047Y-165711142D01*
X79819428Y-165758761D01*
X79724190Y-165806380D01*
X79438476Y-165806380D01*
X79343238Y-165758761D01*
X79295619Y-165711142D01*
X84412793Y-75417920D02*
X84079460Y-74941730D01*
X83841364Y-75417920D02*
X83841364Y-74417920D01*
X84222317Y-74417920D01*
X84317555Y-74465540D01*
X84365174Y-74513159D01*
X84412793Y-74608397D01*
X84412793Y-74751254D01*
X84365174Y-74846492D01*
X84317555Y-74894111D01*
X84222317Y-74941730D01*
X83841364Y-74941730D01*
X85365174Y-75417920D02*
X84793745Y-75417920D01*
X85079460Y-75417920D02*
X85079460Y-74417920D01*
X84984221Y-74560778D01*
X84888983Y-74656016D01*
X84793745Y-74703635D01*
X79332793Y-72528682D02*
X79285174Y-72576301D01*
X79142317Y-72623920D01*
X79047079Y-72623920D01*
X78904221Y-72576301D01*
X78808983Y-72481063D01*
X78761364Y-72385825D01*
X78713745Y-72195349D01*
X78713745Y-72052492D01*
X78761364Y-71862016D01*
X78808983Y-71766778D01*
X78904221Y-71671540D01*
X79047079Y-71623920D01*
X79142317Y-71623920D01*
X79285174Y-71671540D01*
X79332793Y-71719159D01*
X80285174Y-72623920D02*
X79713745Y-72623920D01*
X79999460Y-72623920D02*
X79999460Y-71623920D01*
X79904221Y-71766778D01*
X79808983Y-71862016D01*
X79713745Y-71909635D01*
X84412793Y-72528682D02*
X84365174Y-72576301D01*
X84222317Y-72623920D01*
X84127079Y-72623920D01*
X83984221Y-72576301D01*
X83888983Y-72481063D01*
X83841364Y-72385825D01*
X83793745Y-72195349D01*
X83793745Y-72052492D01*
X83841364Y-71862016D01*
X83888983Y-71766778D01*
X83984221Y-71671540D01*
X84127079Y-71623920D01*
X84222317Y-71623920D01*
X84365174Y-71671540D01*
X84412793Y-71719159D01*
X84793745Y-71719159D02*
X84841364Y-71671540D01*
X84936602Y-71623920D01*
X85174698Y-71623920D01*
X85269936Y-71671540D01*
X85317555Y-71719159D01*
X85365174Y-71814397D01*
X85365174Y-71909635D01*
X85317555Y-72052492D01*
X84746126Y-72623920D01*
X85365174Y-72623920D01*
X85367904Y-84272380D02*
X85367904Y-83272380D01*
X85606000Y-83272380D01*
X85748857Y-83320000D01*
X85844095Y-83415238D01*
X85891714Y-83510476D01*
X85939333Y-83700952D01*
X85939333Y-83843809D01*
X85891714Y-84034285D01*
X85844095Y-84129523D01*
X85748857Y-84224761D01*
X85606000Y-84272380D01*
X85367904Y-84272380D01*
X86891714Y-84272380D02*
X86320285Y-84272380D01*
X86606000Y-84272380D02*
X86606000Y-83272380D01*
X86510761Y-83415238D01*
X86415523Y-83510476D01*
X86320285Y-83558095D01*
X76882666Y-83399380D02*
X76882666Y-84113666D01*
X76835047Y-84256523D01*
X76739809Y-84351761D01*
X76596952Y-84399380D01*
X76501714Y-84399380D01*
X77311238Y-83494619D02*
X77358857Y-83447000D01*
X77454095Y-83399380D01*
X77692190Y-83399380D01*
X77787428Y-83447000D01*
X77835047Y-83494619D01*
X77882666Y-83589857D01*
X77882666Y-83685095D01*
X77835047Y-83827952D01*
X77263619Y-84399380D01*
X77882666Y-84399380D01*
X92494364Y-76494920D02*
X92494364Y-75494920D01*
X93065793Y-76494920D02*
X92637221Y-75923492D01*
X93065793Y-75494920D02*
X92494364Y-76066349D01*
X94018174Y-76494920D02*
X93446745Y-76494920D01*
X93732460Y-76494920D02*
X93732460Y-75494920D01*
X93637221Y-75637778D01*
X93541983Y-75733016D01*
X93446745Y-75780635D01*
X85754221Y-87762959D02*
X85658983Y-87715340D01*
X85563745Y-87620101D01*
X85420888Y-87477244D01*
X85325650Y-87429625D01*
X85230412Y-87429625D01*
X85278031Y-87667720D02*
X85182793Y-87620101D01*
X85087555Y-87524863D01*
X85039936Y-87334387D01*
X85039936Y-87001054D01*
X85087555Y-86810578D01*
X85182793Y-86715340D01*
X85278031Y-86667720D01*
X85468507Y-86667720D01*
X85563745Y-86715340D01*
X85658983Y-86810578D01*
X85706602Y-87001054D01*
X85706602Y-87334387D01*
X85658983Y-87524863D01*
X85563745Y-87620101D01*
X85468507Y-87667720D01*
X85278031Y-87667720D01*
X86658983Y-87667720D02*
X86087555Y-87667720D01*
X86373269Y-87667720D02*
X86373269Y-86667720D01*
X86278031Y-86810578D01*
X86182793Y-86905816D01*
X86087555Y-86953435D01*
X96353333Y-73002380D02*
X96020000Y-72526190D01*
X95781904Y-73002380D02*
X95781904Y-72002380D01*
X96162857Y-72002380D01*
X96258095Y-72050000D01*
X96305714Y-72097619D01*
X96353333Y-72192857D01*
X96353333Y-72335714D01*
X96305714Y-72430952D01*
X96258095Y-72478571D01*
X96162857Y-72526190D01*
X95781904Y-72526190D01*
X96686666Y-72002380D02*
X97305714Y-72002380D01*
X96972380Y-72383333D01*
X97115238Y-72383333D01*
X97210476Y-72430952D01*
X97258095Y-72478571D01*
X97305714Y-72573809D01*
X97305714Y-72811904D01*
X97258095Y-72907142D01*
X97210476Y-72954761D01*
X97115238Y-73002380D01*
X96829523Y-73002380D01*
X96734285Y-72954761D01*
X96686666Y-72907142D01*
X81621333Y-68016380D02*
X81288000Y-67540190D01*
X81049904Y-68016380D02*
X81049904Y-67016380D01*
X81430857Y-67016380D01*
X81526095Y-67064000D01*
X81573714Y-67111619D01*
X81621333Y-67206857D01*
X81621333Y-67349714D01*
X81573714Y-67444952D01*
X81526095Y-67492571D01*
X81430857Y-67540190D01*
X81049904Y-67540190D01*
X82478476Y-67349714D02*
X82478476Y-68016380D01*
X82240380Y-66968761D02*
X82002285Y-67683047D01*
X82621333Y-67683047D01*
X79332793Y-93197920D02*
X78999460Y-92721730D01*
X78761364Y-93197920D02*
X78761364Y-92197920D01*
X79142317Y-92197920D01*
X79237555Y-92245540D01*
X79285174Y-92293159D01*
X79332793Y-92388397D01*
X79332793Y-92531254D01*
X79285174Y-92626492D01*
X79237555Y-92674111D01*
X79142317Y-92721730D01*
X78761364Y-92721730D01*
X80237555Y-92197920D02*
X79761364Y-92197920D01*
X79713745Y-92674111D01*
X79761364Y-92626492D01*
X79856602Y-92578873D01*
X80094698Y-92578873D01*
X80189936Y-92626492D01*
X80237555Y-92674111D01*
X80285174Y-92769349D01*
X80285174Y-93007444D01*
X80237555Y-93102682D01*
X80189936Y-93150301D01*
X80094698Y-93197920D01*
X79856602Y-93197920D01*
X79761364Y-93150301D01*
X79713745Y-93102682D01*
X79110793Y-67709920D02*
X78777460Y-67233730D01*
X78539364Y-67709920D02*
X78539364Y-66709920D01*
X78920317Y-66709920D01*
X79015555Y-66757540D01*
X79063174Y-66805159D01*
X79110793Y-66900397D01*
X79110793Y-67043254D01*
X79063174Y-67138492D01*
X79015555Y-67186111D01*
X78920317Y-67233730D01*
X78539364Y-67233730D01*
X79967936Y-66709920D02*
X79777460Y-66709920D01*
X79682221Y-66757540D01*
X79634602Y-66805159D01*
X79539364Y-66948016D01*
X79491745Y-67138492D01*
X79491745Y-67519444D01*
X79539364Y-67614682D01*
X79586983Y-67662301D01*
X79682221Y-67709920D01*
X79872698Y-67709920D01*
X79967936Y-67662301D01*
X80015555Y-67614682D01*
X80063174Y-67519444D01*
X80063174Y-67281349D01*
X80015555Y-67186111D01*
X79967936Y-67138492D01*
X79872698Y-67090873D01*
X79682221Y-67090873D01*
X79586983Y-67138492D01*
X79539364Y-67186111D01*
X79491745Y-67281349D01*
X79250635Y-154452920D02*
X79250635Y-155262444D01*
X79298254Y-155357682D01*
X79345873Y-155405301D01*
X79441111Y-155452920D01*
X79631587Y-155452920D01*
X79726825Y-155405301D01*
X79774444Y-155357682D01*
X79822063Y-155262444D01*
X79822063Y-154452920D01*
X80822063Y-155452920D02*
X80250635Y-155452920D01*
X80536349Y-155452920D02*
X80536349Y-154452920D01*
X80441111Y-154595778D01*
X80345873Y-154691016D01*
X80250635Y-154738635D01*
X113387360Y-166728633D02*
X114101646Y-166728633D01*
X114244503Y-166776252D01*
X114339741Y-166871490D01*
X114387360Y-167014347D01*
X114387360Y-167109585D01*
X113387360Y-165776252D02*
X113387360Y-166252442D01*
X113863551Y-166300061D01*
X113815932Y-166252442D01*
X113768313Y-166157204D01*
X113768313Y-165919109D01*
X113815932Y-165823871D01*
X113863551Y-165776252D01*
X113958789Y-165728633D01*
X114196884Y-165728633D01*
X114292122Y-165776252D01*
X114339741Y-165823871D01*
X114387360Y-165919109D01*
X114387360Y-166157204D01*
X114339741Y-166252442D01*
X114292122Y-166300061D01*
X190587333Y-68683142D02*
X190539714Y-68730761D01*
X190396857Y-68778380D01*
X190301619Y-68778380D01*
X190158761Y-68730761D01*
X190063523Y-68635523D01*
X190015904Y-68540285D01*
X189968285Y-68349809D01*
X189968285Y-68206952D01*
X190015904Y-68016476D01*
X190063523Y-67921238D01*
X190158761Y-67826000D01*
X190301619Y-67778380D01*
X190396857Y-67778380D01*
X190539714Y-67826000D01*
X190587333Y-67873619D01*
X191444476Y-68111714D02*
X191444476Y-68778380D01*
X191206380Y-67730761D02*
X190968285Y-68445047D01*
X191587333Y-68445047D01*
X188809333Y-84685142D02*
X188761714Y-84732761D01*
X188618857Y-84780380D01*
X188523619Y-84780380D01*
X188380761Y-84732761D01*
X188285523Y-84637523D01*
X188237904Y-84542285D01*
X188190285Y-84351809D01*
X188190285Y-84208952D01*
X188237904Y-84018476D01*
X188285523Y-83923238D01*
X188380761Y-83828000D01*
X188523619Y-83780380D01*
X188618857Y-83780380D01*
X188761714Y-83828000D01*
X188809333Y-83875619D01*
X189714095Y-83780380D02*
X189237904Y-83780380D01*
X189190285Y-84256571D01*
X189237904Y-84208952D01*
X189333142Y-84161333D01*
X189571238Y-84161333D01*
X189666476Y-84208952D01*
X189714095Y-84256571D01*
X189761714Y-84351809D01*
X189761714Y-84589904D01*
X189714095Y-84685142D01*
X189666476Y-84732761D01*
X189571238Y-84780380D01*
X189333142Y-84780380D01*
X189237904Y-84732761D01*
X189190285Y-84685142D01*
X177339666Y-90892380D02*
X177339666Y-91606666D01*
X177292047Y-91749523D01*
X177196809Y-91844761D01*
X177053952Y-91892380D01*
X176958714Y-91892380D01*
X177720619Y-90892380D02*
X178387285Y-90892380D01*
X177958714Y-91892380D01*
X195445142Y-74620380D02*
X195111809Y-74144190D01*
X194873714Y-74620380D02*
X194873714Y-73620380D01*
X195254666Y-73620380D01*
X195349904Y-73668000D01*
X195397523Y-73715619D01*
X195445142Y-73810857D01*
X195445142Y-73953714D01*
X195397523Y-74048952D01*
X195349904Y-74096571D01*
X195254666Y-74144190D01*
X194873714Y-74144190D01*
X196397523Y-74620380D02*
X195826095Y-74620380D01*
X196111809Y-74620380D02*
X196111809Y-73620380D01*
X196016571Y-73763238D01*
X195921333Y-73858476D01*
X195826095Y-73906095D01*
X197349904Y-74620380D02*
X196778476Y-74620380D01*
X197064190Y-74620380D02*
X197064190Y-73620380D01*
X196968952Y-73763238D01*
X196873714Y-73858476D01*
X196778476Y-73906095D01*
X195445142Y-79700380D02*
X195111809Y-79224190D01*
X194873714Y-79700380D02*
X194873714Y-78700380D01*
X195254666Y-78700380D01*
X195349904Y-78748000D01*
X195397523Y-78795619D01*
X195445142Y-78890857D01*
X195445142Y-79033714D01*
X195397523Y-79128952D01*
X195349904Y-79176571D01*
X195254666Y-79224190D01*
X194873714Y-79224190D01*
X196397523Y-79700380D02*
X195826095Y-79700380D01*
X196111809Y-79700380D02*
X196111809Y-78700380D01*
X196016571Y-78843238D01*
X195921333Y-78938476D01*
X195826095Y-78986095D01*
X196778476Y-78795619D02*
X196826095Y-78748000D01*
X196921333Y-78700380D01*
X197159428Y-78700380D01*
X197254666Y-78748000D01*
X197302285Y-78795619D01*
X197349904Y-78890857D01*
X197349904Y-78986095D01*
X197302285Y-79128952D01*
X196730857Y-79700380D01*
X197349904Y-79700380D01*
X194429142Y-68778380D02*
X194095809Y-68302190D01*
X193857714Y-68778380D02*
X193857714Y-67778380D01*
X194238666Y-67778380D01*
X194333904Y-67826000D01*
X194381523Y-67873619D01*
X194429142Y-67968857D01*
X194429142Y-68111714D01*
X194381523Y-68206952D01*
X194333904Y-68254571D01*
X194238666Y-68302190D01*
X193857714Y-68302190D01*
X195381523Y-68778380D02*
X194810095Y-68778380D01*
X195095809Y-68778380D02*
X195095809Y-67778380D01*
X195000571Y-67921238D01*
X194905333Y-68016476D01*
X194810095Y-68064095D01*
X195714857Y-67778380D02*
X196333904Y-67778380D01*
X196000571Y-68159333D01*
X196143428Y-68159333D01*
X196238666Y-68206952D01*
X196286285Y-68254571D01*
X196333904Y-68349809D01*
X196333904Y-68587904D01*
X196286285Y-68683142D01*
X196238666Y-68730761D01*
X196143428Y-68778380D01*
X195857714Y-68778380D01*
X195762476Y-68730761D01*
X195714857Y-68683142D01*
X197048380Y-85986857D02*
X196572190Y-86320190D01*
X197048380Y-86558285D02*
X196048380Y-86558285D01*
X196048380Y-86177333D01*
X196096000Y-86082095D01*
X196143619Y-86034476D01*
X196238857Y-85986857D01*
X196381714Y-85986857D01*
X196476952Y-86034476D01*
X196524571Y-86082095D01*
X196572190Y-86177333D01*
X196572190Y-86558285D01*
X197048380Y-85034476D02*
X197048380Y-85605904D01*
X197048380Y-85320190D02*
X196048380Y-85320190D01*
X196191238Y-85415428D01*
X196286476Y-85510666D01*
X196334095Y-85605904D01*
X196381714Y-84177333D02*
X197048380Y-84177333D01*
X196000761Y-84415428D02*
X196715047Y-84653523D01*
X196715047Y-84034476D01*
X190873142Y-74716920D02*
X190539809Y-74240730D01*
X190301714Y-74716920D02*
X190301714Y-73716920D01*
X190682666Y-73716920D01*
X190777904Y-73764540D01*
X190825523Y-73812159D01*
X190873142Y-73907397D01*
X190873142Y-74050254D01*
X190825523Y-74145492D01*
X190777904Y-74193111D01*
X190682666Y-74240730D01*
X190301714Y-74240730D01*
X191825523Y-74716920D02*
X191254095Y-74716920D01*
X191539809Y-74716920D02*
X191539809Y-73716920D01*
X191444571Y-73859778D01*
X191349333Y-73955016D01*
X191254095Y-74002635D01*
X192730285Y-73716920D02*
X192254095Y-73716920D01*
X192206476Y-74193111D01*
X192254095Y-74145492D01*
X192349333Y-74097873D01*
X192587428Y-74097873D01*
X192682666Y-74145492D01*
X192730285Y-74193111D01*
X192777904Y-74288349D01*
X192777904Y-74526444D01*
X192730285Y-74621682D01*
X192682666Y-74669301D01*
X192587428Y-74716920D01*
X192349333Y-74716920D01*
X192254095Y-74669301D01*
X192206476Y-74621682D01*
X190873142Y-79796920D02*
X190539809Y-79320730D01*
X190301714Y-79796920D02*
X190301714Y-78796920D01*
X190682666Y-78796920D01*
X190777904Y-78844540D01*
X190825523Y-78892159D01*
X190873142Y-78987397D01*
X190873142Y-79130254D01*
X190825523Y-79225492D01*
X190777904Y-79273111D01*
X190682666Y-79320730D01*
X190301714Y-79320730D01*
X191825523Y-79796920D02*
X191254095Y-79796920D01*
X191539809Y-79796920D02*
X191539809Y-78796920D01*
X191444571Y-78939778D01*
X191349333Y-79035016D01*
X191254095Y-79082635D01*
X192682666Y-78796920D02*
X192492190Y-78796920D01*
X192396952Y-78844540D01*
X192349333Y-78892159D01*
X192254095Y-79035016D01*
X192206476Y-79225492D01*
X192206476Y-79606444D01*
X192254095Y-79701682D01*
X192301714Y-79749301D01*
X192396952Y-79796920D01*
X192587428Y-79796920D01*
X192682666Y-79749301D01*
X192730285Y-79701682D01*
X192777904Y-79606444D01*
X192777904Y-79368349D01*
X192730285Y-79273111D01*
X192682666Y-79225492D01*
X192587428Y-79177873D01*
X192396952Y-79177873D01*
X192301714Y-79225492D01*
X192254095Y-79273111D01*
X192206476Y-79368349D01*
X150066476Y-90384380D02*
X150066476Y-91098666D01*
X150018857Y-91241523D01*
X149923619Y-91336761D01*
X149780761Y-91384380D01*
X149685523Y-91384380D01*
X151066476Y-91384380D02*
X150495047Y-91384380D01*
X150780761Y-91384380D02*
X150780761Y-90384380D01*
X150685523Y-90527238D01*
X150590285Y-90622476D01*
X150495047Y-90670095D01*
X151685523Y-90384380D02*
X151780761Y-90384380D01*
X151876000Y-90432000D01*
X151923619Y-90479619D01*
X151971238Y-90574857D01*
X152018857Y-90765333D01*
X152018857Y-91003428D01*
X151971238Y-91193904D01*
X151923619Y-91289142D01*
X151876000Y-91336761D01*
X151780761Y-91384380D01*
X151685523Y-91384380D01*
X151590285Y-91336761D01*
X151542666Y-91289142D01*
X151495047Y-91193904D01*
X151447428Y-91003428D01*
X151447428Y-90765333D01*
X151495047Y-90574857D01*
X151542666Y-90479619D01*
X151590285Y-90432000D01*
X151685523Y-90384380D01*
X81110793Y-75417920D02*
X80777460Y-74941730D01*
X80539364Y-75417920D02*
X80539364Y-74417920D01*
X80920317Y-74417920D01*
X81015555Y-74465540D01*
X81063174Y-74513159D01*
X81110793Y-74608397D01*
X81110793Y-74751254D01*
X81063174Y-74846492D01*
X81015555Y-74894111D01*
X80920317Y-74941730D01*
X80539364Y-74941730D01*
X81491745Y-74513159D02*
X81539364Y-74465540D01*
X81634602Y-74417920D01*
X81872698Y-74417920D01*
X81967936Y-74465540D01*
X82015555Y-74513159D01*
X82063174Y-74608397D01*
X82063174Y-74703635D01*
X82015555Y-74846492D01*
X81444126Y-75417920D01*
X82063174Y-75417920D01*
X81110793Y-78719920D02*
X80777460Y-78243730D01*
X80539364Y-78719920D02*
X80539364Y-77719920D01*
X80920317Y-77719920D01*
X81015555Y-77767540D01*
X81063174Y-77815159D01*
X81110793Y-77910397D01*
X81110793Y-78053254D01*
X81063174Y-78148492D01*
X81015555Y-78196111D01*
X80920317Y-78243730D01*
X80539364Y-78243730D01*
X81444126Y-77719920D02*
X82110793Y-77719920D01*
X81682221Y-78719920D01*
X95702380Y-63587238D02*
X95226190Y-63920571D01*
X95702380Y-64158666D02*
X94702380Y-64158666D01*
X94702380Y-63777714D01*
X94750000Y-63682476D01*
X94797619Y-63634857D01*
X94892857Y-63587238D01*
X95035714Y-63587238D01*
X95130952Y-63634857D01*
X95178571Y-63682476D01*
X95226190Y-63777714D01*
X95226190Y-64158666D01*
X94702380Y-63301523D02*
X95702380Y-62968190D01*
X94702380Y-62634857D01*
X95702380Y-61777714D02*
X95702380Y-62349142D01*
X95702380Y-62063428D02*
X94702380Y-62063428D01*
X94845238Y-62158666D01*
X94940476Y-62253904D01*
X94988095Y-62349142D01*
X159940666Y-72096380D02*
X159940666Y-72810666D01*
X159893047Y-72953523D01*
X159797809Y-73048761D01*
X159654952Y-73096380D01*
X159559714Y-73096380D01*
X160464476Y-73096380D02*
X160654952Y-73096380D01*
X160750190Y-73048761D01*
X160797809Y-73001142D01*
X160893047Y-72858285D01*
X160940666Y-72667809D01*
X160940666Y-72286857D01*
X160893047Y-72191619D01*
X160845428Y-72144000D01*
X160750190Y-72096380D01*
X160559714Y-72096380D01*
X160464476Y-72144000D01*
X160416857Y-72191619D01*
X160369238Y-72286857D01*
X160369238Y-72524952D01*
X160416857Y-72620190D01*
X160464476Y-72667809D01*
X160559714Y-72715428D01*
X160750190Y-72715428D01*
X160845428Y-72667809D01*
X160893047Y-72620190D01*
X160940666Y-72524952D01*
X98047821Y-164606859D02*
X97952583Y-164559240D01*
X97857345Y-164464001D01*
X97714488Y-164321144D01*
X97619250Y-164273525D01*
X97524012Y-164273525D01*
X97571631Y-164511620D02*
X97476393Y-164464001D01*
X97381155Y-164368763D01*
X97333536Y-164178287D01*
X97333536Y-163844954D01*
X97381155Y-163654478D01*
X97476393Y-163559240D01*
X97571631Y-163511620D01*
X97762107Y-163511620D01*
X97857345Y-163559240D01*
X97952583Y-163654478D01*
X98000202Y-163844954D01*
X98000202Y-164178287D01*
X97952583Y-164368763D01*
X97857345Y-164464001D01*
X97762107Y-164511620D01*
X97571631Y-164511620D01*
X98381155Y-163606859D02*
X98428774Y-163559240D01*
X98524012Y-163511620D01*
X98762107Y-163511620D01*
X98857345Y-163559240D01*
X98904964Y-163606859D01*
X98952583Y-163702097D01*
X98952583Y-163797335D01*
X98904964Y-163940192D01*
X98333536Y-164511620D01*
X98952583Y-164511620D01*
X98047821Y-154954859D02*
X97952583Y-154907240D01*
X97857345Y-154812001D01*
X97714488Y-154669144D01*
X97619250Y-154621525D01*
X97524012Y-154621525D01*
X97571631Y-154859620D02*
X97476393Y-154812001D01*
X97381155Y-154716763D01*
X97333536Y-154526287D01*
X97333536Y-154192954D01*
X97381155Y-154002478D01*
X97476393Y-153907240D01*
X97571631Y-153859620D01*
X97762107Y-153859620D01*
X97857345Y-153907240D01*
X97952583Y-154002478D01*
X98000202Y-154192954D01*
X98000202Y-154526287D01*
X97952583Y-154716763D01*
X97857345Y-154812001D01*
X97762107Y-154859620D01*
X97571631Y-154859620D01*
X98333536Y-153859620D02*
X98952583Y-153859620D01*
X98619250Y-154240573D01*
X98762107Y-154240573D01*
X98857345Y-154288192D01*
X98904964Y-154335811D01*
X98952583Y-154431049D01*
X98952583Y-154669144D01*
X98904964Y-154764382D01*
X98857345Y-154812001D01*
X98762107Y-154859620D01*
X98476393Y-154859620D01*
X98381155Y-154812001D01*
X98333536Y-154764382D01*
X98047821Y-159780859D02*
X97952583Y-159733240D01*
X97857345Y-159638001D01*
X97714488Y-159495144D01*
X97619250Y-159447525D01*
X97524012Y-159447525D01*
X97571631Y-159685620D02*
X97476393Y-159638001D01*
X97381155Y-159542763D01*
X97333536Y-159352287D01*
X97333536Y-159018954D01*
X97381155Y-158828478D01*
X97476393Y-158733240D01*
X97571631Y-158685620D01*
X97762107Y-158685620D01*
X97857345Y-158733240D01*
X97952583Y-158828478D01*
X98000202Y-159018954D01*
X98000202Y-159352287D01*
X97952583Y-159542763D01*
X97857345Y-159638001D01*
X97762107Y-159685620D01*
X97571631Y-159685620D01*
X98857345Y-159018954D02*
X98857345Y-159685620D01*
X98619250Y-158638001D02*
X98381155Y-159352287D01*
X99000202Y-159352287D01*
X98063821Y-150067859D02*
X97968583Y-150020240D01*
X97873345Y-149925001D01*
X97730488Y-149782144D01*
X97635250Y-149734525D01*
X97540012Y-149734525D01*
X97587631Y-149972620D02*
X97492393Y-149925001D01*
X97397155Y-149829763D01*
X97349536Y-149639287D01*
X97349536Y-149305954D01*
X97397155Y-149115478D01*
X97492393Y-149020240D01*
X97587631Y-148972620D01*
X97778107Y-148972620D01*
X97873345Y-149020240D01*
X97968583Y-149115478D01*
X98016202Y-149305954D01*
X98016202Y-149639287D01*
X97968583Y-149829763D01*
X97873345Y-149925001D01*
X97778107Y-149972620D01*
X97587631Y-149972620D01*
X98920964Y-148972620D02*
X98444774Y-148972620D01*
X98397155Y-149448811D01*
X98444774Y-149401192D01*
X98540012Y-149353573D01*
X98778107Y-149353573D01*
X98873345Y-149401192D01*
X98920964Y-149448811D01*
X98968583Y-149544049D01*
X98968583Y-149782144D01*
X98920964Y-149877382D01*
X98873345Y-149925001D01*
X98778107Y-149972620D01*
X98540012Y-149972620D01*
X98444774Y-149925001D01*
X98397155Y-149877382D01*
X103261440Y-161217906D02*
X102785250Y-161551240D01*
X103261440Y-161789335D02*
X102261440Y-161789335D01*
X102261440Y-161408382D01*
X102309060Y-161313144D01*
X102356679Y-161265525D01*
X102451917Y-161217906D01*
X102594774Y-161217906D01*
X102690012Y-161265525D01*
X102737631Y-161313144D01*
X102785250Y-161408382D01*
X102785250Y-161789335D01*
X102690012Y-160646478D02*
X102642393Y-160741716D01*
X102594774Y-160789335D01*
X102499536Y-160836954D01*
X102451917Y-160836954D01*
X102356679Y-160789335D01*
X102309060Y-160741716D01*
X102261440Y-160646478D01*
X102261440Y-160456001D01*
X102309060Y-160360763D01*
X102356679Y-160313144D01*
X102451917Y-160265525D01*
X102499536Y-160265525D01*
X102594774Y-160313144D01*
X102642393Y-160360763D01*
X102690012Y-160456001D01*
X102690012Y-160646478D01*
X102737631Y-160741716D01*
X102785250Y-160789335D01*
X102880488Y-160836954D01*
X103070964Y-160836954D01*
X103166202Y-160789335D01*
X103213821Y-160741716D01*
X103261440Y-160646478D01*
X103261440Y-160456001D01*
X103213821Y-160360763D01*
X103166202Y-160313144D01*
X103070964Y-160265525D01*
X102880488Y-160265525D01*
X102785250Y-160313144D01*
X102737631Y-160360763D01*
X102690012Y-160456001D01*
X100925333Y-158948380D02*
X100592000Y-158472190D01*
X100353904Y-158948380D02*
X100353904Y-157948380D01*
X100734857Y-157948380D01*
X100830095Y-157996000D01*
X100877714Y-158043619D01*
X100925333Y-158138857D01*
X100925333Y-158281714D01*
X100877714Y-158376952D01*
X100830095Y-158424571D01*
X100734857Y-158472190D01*
X100353904Y-158472190D01*
X101401523Y-158948380D02*
X101592000Y-158948380D01*
X101687238Y-158900761D01*
X101734857Y-158853142D01*
X101830095Y-158710285D01*
X101877714Y-158519809D01*
X101877714Y-158138857D01*
X101830095Y-158043619D01*
X101782476Y-157996000D01*
X101687238Y-157948380D01*
X101496761Y-157948380D01*
X101401523Y-157996000D01*
X101353904Y-158043619D01*
X101306285Y-158138857D01*
X101306285Y-158376952D01*
X101353904Y-158472190D01*
X101401523Y-158519809D01*
X101496761Y-158567428D01*
X101687238Y-158567428D01*
X101782476Y-158519809D01*
X101830095Y-158472190D01*
X101877714Y-158376952D01*
X102481142Y-155646380D02*
X102147809Y-155170190D01*
X101909714Y-155646380D02*
X101909714Y-154646380D01*
X102290666Y-154646380D01*
X102385904Y-154694000D01*
X102433523Y-154741619D01*
X102481142Y-154836857D01*
X102481142Y-154979714D01*
X102433523Y-155074952D01*
X102385904Y-155122571D01*
X102290666Y-155170190D01*
X101909714Y-155170190D01*
X103433523Y-155646380D02*
X102862095Y-155646380D01*
X103147809Y-155646380D02*
X103147809Y-154646380D01*
X103052571Y-154789238D01*
X102957333Y-154884476D01*
X102862095Y-154932095D01*
X104052571Y-154646380D02*
X104147809Y-154646380D01*
X104243047Y-154694000D01*
X104290666Y-154741619D01*
X104338285Y-154836857D01*
X104385904Y-155027333D01*
X104385904Y-155265428D01*
X104338285Y-155455904D01*
X104290666Y-155551142D01*
X104243047Y-155598761D01*
X104147809Y-155646380D01*
X104052571Y-155646380D01*
X103957333Y-155598761D01*
X103909714Y-155551142D01*
X103862095Y-155455904D01*
X103814476Y-155265428D01*
X103814476Y-155027333D01*
X103862095Y-154836857D01*
X103909714Y-154741619D01*
X103957333Y-154694000D01*
X104052571Y-154646380D01*
X100703142Y-149550380D02*
X100369809Y-149074190D01*
X100131714Y-149550380D02*
X100131714Y-148550380D01*
X100512666Y-148550380D01*
X100607904Y-148598000D01*
X100655523Y-148645619D01*
X100703142Y-148740857D01*
X100703142Y-148883714D01*
X100655523Y-148978952D01*
X100607904Y-149026571D01*
X100512666Y-149074190D01*
X100131714Y-149074190D01*
X101655523Y-149550380D02*
X101084095Y-149550380D01*
X101369809Y-149550380D02*
X101369809Y-148550380D01*
X101274571Y-148693238D01*
X101179333Y-148788476D01*
X101084095Y-148836095D01*
X101988857Y-148550380D02*
X102655523Y-148550380D01*
X102226952Y-149550380D01*
X103322380Y-158011097D02*
X102846190Y-158344430D01*
X103322380Y-158582525D02*
X102322380Y-158582525D01*
X102322380Y-158201573D01*
X102370000Y-158106335D01*
X102417619Y-158058716D01*
X102512857Y-158011097D01*
X102655714Y-158011097D01*
X102750952Y-158058716D01*
X102798571Y-158106335D01*
X102846190Y-158201573D01*
X102846190Y-158582525D01*
X103322380Y-157058716D02*
X103322380Y-157630144D01*
X103322380Y-157344430D02*
X102322380Y-157344430D01*
X102465238Y-157439668D01*
X102560476Y-157534906D01*
X102608095Y-157630144D01*
X102750952Y-156487287D02*
X102703333Y-156582525D01*
X102655714Y-156630144D01*
X102560476Y-156677763D01*
X102512857Y-156677763D01*
X102417619Y-156630144D01*
X102370000Y-156582525D01*
X102322380Y-156487287D01*
X102322380Y-156296811D01*
X102370000Y-156201573D01*
X102417619Y-156153954D01*
X102512857Y-156106335D01*
X102560476Y-156106335D01*
X102655714Y-156153954D01*
X102703333Y-156201573D01*
X102750952Y-156296811D01*
X102750952Y-156487287D01*
X102798571Y-156582525D01*
X102846190Y-156630144D01*
X102941428Y-156677763D01*
X103131904Y-156677763D01*
X103227142Y-156630144D01*
X103274761Y-156582525D01*
X103322380Y-156487287D01*
X103322380Y-156296811D01*
X103274761Y-156201573D01*
X103227142Y-156153954D01*
X103131904Y-156106335D01*
X102941428Y-156106335D01*
X102846190Y-156153954D01*
X102798571Y-156201573D01*
X102750952Y-156296811D01*
X100703142Y-154376380D02*
X100369809Y-153900190D01*
X100131714Y-154376380D02*
X100131714Y-153376380D01*
X100512666Y-153376380D01*
X100607904Y-153424000D01*
X100655523Y-153471619D01*
X100703142Y-153566857D01*
X100703142Y-153709714D01*
X100655523Y-153804952D01*
X100607904Y-153852571D01*
X100512666Y-153900190D01*
X100131714Y-153900190D01*
X101655523Y-154376380D02*
X101084095Y-154376380D01*
X101369809Y-154376380D02*
X101369809Y-153376380D01*
X101274571Y-153519238D01*
X101179333Y-153614476D01*
X101084095Y-153662095D01*
X102131714Y-154376380D02*
X102322190Y-154376380D01*
X102417428Y-154328761D01*
X102465047Y-154281142D01*
X102560285Y-154138285D01*
X102607904Y-153947809D01*
X102607904Y-153566857D01*
X102560285Y-153471619D01*
X102512666Y-153424000D01*
X102417428Y-153376380D01*
X102226952Y-153376380D01*
X102131714Y-153424000D01*
X102084095Y-153471619D01*
X102036476Y-153566857D01*
X102036476Y-153804952D01*
X102084095Y-153900190D01*
X102131714Y-153947809D01*
X102226952Y-153995428D01*
X102417428Y-153995428D01*
X102512666Y-153947809D01*
X102560285Y-153900190D01*
X102607904Y-153804952D01*
X102989142Y-151074380D02*
X102655809Y-150598190D01*
X102417714Y-151074380D02*
X102417714Y-150074380D01*
X102798666Y-150074380D01*
X102893904Y-150122000D01*
X102941523Y-150169619D01*
X102989142Y-150264857D01*
X102989142Y-150407714D01*
X102941523Y-150502952D01*
X102893904Y-150550571D01*
X102798666Y-150598190D01*
X102417714Y-150598190D01*
X103370095Y-150169619D02*
X103417714Y-150122000D01*
X103512952Y-150074380D01*
X103751047Y-150074380D01*
X103846285Y-150122000D01*
X103893904Y-150169619D01*
X103941523Y-150264857D01*
X103941523Y-150360095D01*
X103893904Y-150502952D01*
X103322476Y-151074380D01*
X103941523Y-151074380D01*
X104560571Y-150074380D02*
X104655809Y-150074380D01*
X104751047Y-150122000D01*
X104798666Y-150169619D01*
X104846285Y-150264857D01*
X104893904Y-150455333D01*
X104893904Y-150693428D01*
X104846285Y-150883904D01*
X104798666Y-150979142D01*
X104751047Y-151026761D01*
X104655809Y-151074380D01*
X104560571Y-151074380D01*
X104465333Y-151026761D01*
X104417714Y-150979142D01*
X104370095Y-150883904D01*
X104322476Y-150693428D01*
X104322476Y-150455333D01*
X104370095Y-150264857D01*
X104417714Y-150169619D01*
X104465333Y-150122000D01*
X104560571Y-150074380D01*
X102989142Y-146248380D02*
X102655809Y-145772190D01*
X102417714Y-146248380D02*
X102417714Y-145248380D01*
X102798666Y-145248380D01*
X102893904Y-145296000D01*
X102941523Y-145343619D01*
X102989142Y-145438857D01*
X102989142Y-145581714D01*
X102941523Y-145676952D01*
X102893904Y-145724571D01*
X102798666Y-145772190D01*
X102417714Y-145772190D01*
X103370095Y-145343619D02*
X103417714Y-145296000D01*
X103512952Y-145248380D01*
X103751047Y-145248380D01*
X103846285Y-145296000D01*
X103893904Y-145343619D01*
X103941523Y-145438857D01*
X103941523Y-145534095D01*
X103893904Y-145676952D01*
X103322476Y-146248380D01*
X103941523Y-146248380D01*
X104893904Y-146248380D02*
X104322476Y-146248380D01*
X104608190Y-146248380D02*
X104608190Y-145248380D01*
X104512952Y-145391238D01*
X104417714Y-145486476D01*
X104322476Y-145534095D01*
X150196142Y-84255480D02*
X149862809Y-83779290D01*
X149624714Y-84255480D02*
X149624714Y-83255480D01*
X150005666Y-83255480D01*
X150100904Y-83303100D01*
X150148523Y-83350719D01*
X150196142Y-83445957D01*
X150196142Y-83588814D01*
X150148523Y-83684052D01*
X150100904Y-83731671D01*
X150005666Y-83779290D01*
X149624714Y-83779290D01*
X150577095Y-83350719D02*
X150624714Y-83303100D01*
X150719952Y-83255480D01*
X150958047Y-83255480D01*
X151053285Y-83303100D01*
X151100904Y-83350719D01*
X151148523Y-83445957D01*
X151148523Y-83541195D01*
X151100904Y-83684052D01*
X150529476Y-84255480D01*
X151148523Y-84255480D01*
X151529476Y-83350719D02*
X151577095Y-83303100D01*
X151672333Y-83255480D01*
X151910428Y-83255480D01*
X152005666Y-83303100D01*
X152053285Y-83350719D01*
X152100904Y-83445957D01*
X152100904Y-83541195D01*
X152053285Y-83684052D01*
X151481857Y-84255480D01*
X152100904Y-84255480D01*
X150196142Y-81610480D02*
X149862809Y-81134290D01*
X149624714Y-81610480D02*
X149624714Y-80610480D01*
X150005666Y-80610480D01*
X150100904Y-80658100D01*
X150148523Y-80705719D01*
X150196142Y-80800957D01*
X150196142Y-80943814D01*
X150148523Y-81039052D01*
X150100904Y-81086671D01*
X150005666Y-81134290D01*
X149624714Y-81134290D01*
X150577095Y-80705719D02*
X150624714Y-80658100D01*
X150719952Y-80610480D01*
X150958047Y-80610480D01*
X151053285Y-80658100D01*
X151100904Y-80705719D01*
X151148523Y-80800957D01*
X151148523Y-80896195D01*
X151100904Y-81039052D01*
X150529476Y-81610480D01*
X151148523Y-81610480D01*
X151481857Y-80610480D02*
X152100904Y-80610480D01*
X151767571Y-80991433D01*
X151910428Y-80991433D01*
X152005666Y-81039052D01*
X152053285Y-81086671D01*
X152100904Y-81181909D01*
X152100904Y-81420004D01*
X152053285Y-81515242D01*
X152005666Y-81562861D01*
X151910428Y-81610480D01*
X151624714Y-81610480D01*
X151529476Y-81562861D01*
X151481857Y-81515242D01*
X150196142Y-78435480D02*
X149862809Y-77959290D01*
X149624714Y-78435480D02*
X149624714Y-77435480D01*
X150005666Y-77435480D01*
X150100904Y-77483100D01*
X150148523Y-77530719D01*
X150196142Y-77625957D01*
X150196142Y-77768814D01*
X150148523Y-77864052D01*
X150100904Y-77911671D01*
X150005666Y-77959290D01*
X149624714Y-77959290D01*
X150577095Y-77530719D02*
X150624714Y-77483100D01*
X150719952Y-77435480D01*
X150958047Y-77435480D01*
X151053285Y-77483100D01*
X151100904Y-77530719D01*
X151148523Y-77625957D01*
X151148523Y-77721195D01*
X151100904Y-77864052D01*
X150529476Y-78435480D01*
X151148523Y-78435480D01*
X152005666Y-77768814D02*
X152005666Y-78435480D01*
X151767571Y-77387861D02*
X151529476Y-78102147D01*
X152148523Y-78102147D01*
X150196142Y-75641480D02*
X149862809Y-75165290D01*
X149624714Y-75641480D02*
X149624714Y-74641480D01*
X150005666Y-74641480D01*
X150100904Y-74689100D01*
X150148523Y-74736719D01*
X150196142Y-74831957D01*
X150196142Y-74974814D01*
X150148523Y-75070052D01*
X150100904Y-75117671D01*
X150005666Y-75165290D01*
X149624714Y-75165290D01*
X150577095Y-74736719D02*
X150624714Y-74689100D01*
X150719952Y-74641480D01*
X150958047Y-74641480D01*
X151053285Y-74689100D01*
X151100904Y-74736719D01*
X151148523Y-74831957D01*
X151148523Y-74927195D01*
X151100904Y-75070052D01*
X150529476Y-75641480D01*
X151148523Y-75641480D01*
X152053285Y-74641480D02*
X151577095Y-74641480D01*
X151529476Y-75117671D01*
X151577095Y-75070052D01*
X151672333Y-75022433D01*
X151910428Y-75022433D01*
X152005666Y-75070052D01*
X152053285Y-75117671D01*
X152100904Y-75212909D01*
X152100904Y-75451004D01*
X152053285Y-75546242D01*
X152005666Y-75593861D01*
X151910428Y-75641480D01*
X151672333Y-75641480D01*
X151577095Y-75593861D01*
X151529476Y-75546242D01*
X150196142Y-72720480D02*
X149862809Y-72244290D01*
X149624714Y-72720480D02*
X149624714Y-71720480D01*
X150005666Y-71720480D01*
X150100904Y-71768100D01*
X150148523Y-71815719D01*
X150196142Y-71910957D01*
X150196142Y-72053814D01*
X150148523Y-72149052D01*
X150100904Y-72196671D01*
X150005666Y-72244290D01*
X149624714Y-72244290D01*
X150577095Y-71815719D02*
X150624714Y-71768100D01*
X150719952Y-71720480D01*
X150958047Y-71720480D01*
X151053285Y-71768100D01*
X151100904Y-71815719D01*
X151148523Y-71910957D01*
X151148523Y-72006195D01*
X151100904Y-72149052D01*
X150529476Y-72720480D01*
X151148523Y-72720480D01*
X152005666Y-71720480D02*
X151815190Y-71720480D01*
X151719952Y-71768100D01*
X151672333Y-71815719D01*
X151577095Y-71958576D01*
X151529476Y-72149052D01*
X151529476Y-72530004D01*
X151577095Y-72625242D01*
X151624714Y-72672861D01*
X151719952Y-72720480D01*
X151910428Y-72720480D01*
X152005666Y-72672861D01*
X152053285Y-72625242D01*
X152100904Y-72530004D01*
X152100904Y-72291909D01*
X152053285Y-72196671D01*
X152005666Y-72149052D01*
X151910428Y-72101433D01*
X151719952Y-72101433D01*
X151624714Y-72149052D01*
X151577095Y-72196671D01*
X151529476Y-72291909D01*
X150196142Y-70180480D02*
X149862809Y-69704290D01*
X149624714Y-70180480D02*
X149624714Y-69180480D01*
X150005666Y-69180480D01*
X150100904Y-69228100D01*
X150148523Y-69275719D01*
X150196142Y-69370957D01*
X150196142Y-69513814D01*
X150148523Y-69609052D01*
X150100904Y-69656671D01*
X150005666Y-69704290D01*
X149624714Y-69704290D01*
X150577095Y-69275719D02*
X150624714Y-69228100D01*
X150719952Y-69180480D01*
X150958047Y-69180480D01*
X151053285Y-69228100D01*
X151100904Y-69275719D01*
X151148523Y-69370957D01*
X151148523Y-69466195D01*
X151100904Y-69609052D01*
X150529476Y-70180480D01*
X151148523Y-70180480D01*
X151481857Y-69180480D02*
X152148523Y-69180480D01*
X151719952Y-70180480D01*
X150196142Y-67386480D02*
X149862809Y-66910290D01*
X149624714Y-67386480D02*
X149624714Y-66386480D01*
X150005666Y-66386480D01*
X150100904Y-66434100D01*
X150148523Y-66481719D01*
X150196142Y-66576957D01*
X150196142Y-66719814D01*
X150148523Y-66815052D01*
X150100904Y-66862671D01*
X150005666Y-66910290D01*
X149624714Y-66910290D01*
X150577095Y-66481719D02*
X150624714Y-66434100D01*
X150719952Y-66386480D01*
X150958047Y-66386480D01*
X151053285Y-66434100D01*
X151100904Y-66481719D01*
X151148523Y-66576957D01*
X151148523Y-66672195D01*
X151100904Y-66815052D01*
X150529476Y-67386480D01*
X151148523Y-67386480D01*
X151719952Y-66815052D02*
X151624714Y-66767433D01*
X151577095Y-66719814D01*
X151529476Y-66624576D01*
X151529476Y-66576957D01*
X151577095Y-66481719D01*
X151624714Y-66434100D01*
X151719952Y-66386480D01*
X151910428Y-66386480D01*
X152005666Y-66434100D01*
X152053285Y-66481719D01*
X152100904Y-66576957D01*
X152100904Y-66624576D01*
X152053285Y-66719814D01*
X152005666Y-66767433D01*
X151910428Y-66815052D01*
X151719952Y-66815052D01*
X151624714Y-66862671D01*
X151577095Y-66910290D01*
X151529476Y-67005528D01*
X151529476Y-67196004D01*
X151577095Y-67291242D01*
X151624714Y-67338861D01*
X151719952Y-67386480D01*
X151910428Y-67386480D01*
X152005666Y-67338861D01*
X152053285Y-67291242D01*
X152100904Y-67196004D01*
X152100904Y-67005528D01*
X152053285Y-66910290D01*
X152005666Y-66862671D01*
X151910428Y-66815052D01*
X150196142Y-64505480D02*
X149862809Y-64029290D01*
X149624714Y-64505480D02*
X149624714Y-63505480D01*
X150005666Y-63505480D01*
X150100904Y-63553100D01*
X150148523Y-63600719D01*
X150196142Y-63695957D01*
X150196142Y-63838814D01*
X150148523Y-63934052D01*
X150100904Y-63981671D01*
X150005666Y-64029290D01*
X149624714Y-64029290D01*
X150577095Y-63600719D02*
X150624714Y-63553100D01*
X150719952Y-63505480D01*
X150958047Y-63505480D01*
X151053285Y-63553100D01*
X151100904Y-63600719D01*
X151148523Y-63695957D01*
X151148523Y-63791195D01*
X151100904Y-63934052D01*
X150529476Y-64505480D01*
X151148523Y-64505480D01*
X151624714Y-64505480D02*
X151815190Y-64505480D01*
X151910428Y-64457861D01*
X151958047Y-64410242D01*
X152053285Y-64267385D01*
X152100904Y-64076909D01*
X152100904Y-63695957D01*
X152053285Y-63600719D01*
X152005666Y-63553100D01*
X151910428Y-63505480D01*
X151719952Y-63505480D01*
X151624714Y-63553100D01*
X151577095Y-63600719D01*
X151529476Y-63695957D01*
X151529476Y-63934052D01*
X151577095Y-64029290D01*
X151624714Y-64076909D01*
X151719952Y-64124528D01*
X151910428Y-64124528D01*
X152005666Y-64076909D01*
X152053285Y-64029290D01*
X152100904Y-63934052D01*
X137011953Y-79397962D02*
X136964334Y-79445581D01*
X136821477Y-79493200D01*
X136726239Y-79493200D01*
X136583381Y-79445581D01*
X136488143Y-79350343D01*
X136440524Y-79255105D01*
X136392905Y-79064629D01*
X136392905Y-78921772D01*
X136440524Y-78731296D01*
X136488143Y-78636058D01*
X136583381Y-78540820D01*
X136726239Y-78493200D01*
X136821477Y-78493200D01*
X136964334Y-78540820D01*
X137011953Y-78588439D01*
X137345286Y-78493200D02*
X137964334Y-78493200D01*
X137631000Y-78874153D01*
X137773858Y-78874153D01*
X137869096Y-78921772D01*
X137916715Y-78969391D01*
X137964334Y-79064629D01*
X137964334Y-79302724D01*
X137916715Y-79397962D01*
X137869096Y-79445581D01*
X137773858Y-79493200D01*
X137488143Y-79493200D01*
X137392905Y-79445581D01*
X137345286Y-79397962D01*
X130643333Y-83923142D02*
X130595714Y-83970761D01*
X130452857Y-84018380D01*
X130357619Y-84018380D01*
X130214761Y-83970761D01*
X130119523Y-83875523D01*
X130071904Y-83780285D01*
X130024285Y-83589809D01*
X130024285Y-83446952D01*
X130071904Y-83256476D01*
X130119523Y-83161238D01*
X130214761Y-83066000D01*
X130357619Y-83018380D01*
X130452857Y-83018380D01*
X130595714Y-83066000D01*
X130643333Y-83113619D01*
X131500476Y-83018380D02*
X131310000Y-83018380D01*
X131214761Y-83066000D01*
X131167142Y-83113619D01*
X131071904Y-83256476D01*
X131024285Y-83446952D01*
X131024285Y-83827904D01*
X131071904Y-83923142D01*
X131119523Y-83970761D01*
X131214761Y-84018380D01*
X131405238Y-84018380D01*
X131500476Y-83970761D01*
X131548095Y-83923142D01*
X131595714Y-83827904D01*
X131595714Y-83589809D01*
X131548095Y-83494571D01*
X131500476Y-83446952D01*
X131405238Y-83399333D01*
X131214761Y-83399333D01*
X131119523Y-83446952D01*
X131071904Y-83494571D01*
X131024285Y-83589809D01*
X131913333Y-74271142D02*
X131865714Y-74318761D01*
X131722857Y-74366380D01*
X131627619Y-74366380D01*
X131484761Y-74318761D01*
X131389523Y-74223523D01*
X131341904Y-74128285D01*
X131294285Y-73937809D01*
X131294285Y-73794952D01*
X131341904Y-73604476D01*
X131389523Y-73509238D01*
X131484761Y-73414000D01*
X131627619Y-73366380D01*
X131722857Y-73366380D01*
X131865714Y-73414000D01*
X131913333Y-73461619D01*
X132246666Y-73366380D02*
X132913333Y-73366380D01*
X132484761Y-74366380D01*
X131151333Y-89765142D02*
X131103714Y-89812761D01*
X130960857Y-89860380D01*
X130865619Y-89860380D01*
X130722761Y-89812761D01*
X130627523Y-89717523D01*
X130579904Y-89622285D01*
X130532285Y-89431809D01*
X130532285Y-89288952D01*
X130579904Y-89098476D01*
X130627523Y-89003238D01*
X130722761Y-88908000D01*
X130865619Y-88860380D01*
X130960857Y-88860380D01*
X131103714Y-88908000D01*
X131151333Y-88955619D01*
X131722761Y-89288952D02*
X131627523Y-89241333D01*
X131579904Y-89193714D01*
X131532285Y-89098476D01*
X131532285Y-89050857D01*
X131579904Y-88955619D01*
X131627523Y-88908000D01*
X131722761Y-88860380D01*
X131913238Y-88860380D01*
X132008476Y-88908000D01*
X132056095Y-88955619D01*
X132103714Y-89050857D01*
X132103714Y-89098476D01*
X132056095Y-89193714D01*
X132008476Y-89241333D01*
X131913238Y-89288952D01*
X131722761Y-89288952D01*
X131627523Y-89336571D01*
X131579904Y-89384190D01*
X131532285Y-89479428D01*
X131532285Y-89669904D01*
X131579904Y-89765142D01*
X131627523Y-89812761D01*
X131722761Y-89860380D01*
X131913238Y-89860380D01*
X132008476Y-89812761D01*
X132056095Y-89765142D01*
X132103714Y-89669904D01*
X132103714Y-89479428D01*
X132056095Y-89384190D01*
X132008476Y-89336571D01*
X131913238Y-89288952D01*
X134897904Y-74620380D02*
X134897904Y-73620380D01*
X135136000Y-73620380D01*
X135278857Y-73668000D01*
X135374095Y-73763238D01*
X135421714Y-73858476D01*
X135469333Y-74048952D01*
X135469333Y-74191809D01*
X135421714Y-74382285D01*
X135374095Y-74477523D01*
X135278857Y-74572761D01*
X135136000Y-74620380D01*
X134897904Y-74620380D01*
X135850285Y-73715619D02*
X135897904Y-73668000D01*
X135993142Y-73620380D01*
X136231238Y-73620380D01*
X136326476Y-73668000D01*
X136374095Y-73715619D01*
X136421714Y-73810857D01*
X136421714Y-73906095D01*
X136374095Y-74048952D01*
X135802666Y-74620380D01*
X136421714Y-74620380D01*
X138199904Y-74620380D02*
X138199904Y-73620380D01*
X138438000Y-73620380D01*
X138580857Y-73668000D01*
X138676095Y-73763238D01*
X138723714Y-73858476D01*
X138771333Y-74048952D01*
X138771333Y-74191809D01*
X138723714Y-74382285D01*
X138676095Y-74477523D01*
X138580857Y-74572761D01*
X138438000Y-74620380D01*
X138199904Y-74620380D01*
X139104666Y-73620380D02*
X139723714Y-73620380D01*
X139390380Y-74001333D01*
X139533238Y-74001333D01*
X139628476Y-74048952D01*
X139676095Y-74096571D01*
X139723714Y-74191809D01*
X139723714Y-74429904D01*
X139676095Y-74525142D01*
X139628476Y-74572761D01*
X139533238Y-74620380D01*
X139247523Y-74620380D01*
X139152285Y-74572761D01*
X139104666Y-74525142D01*
X130738666Y-90939391D02*
X130405333Y-90939391D01*
X130405333Y-91463200D02*
X130405333Y-90463200D01*
X130881523Y-90463200D01*
X131595809Y-90939391D02*
X131738666Y-90987010D01*
X131786285Y-91034629D01*
X131833904Y-91129867D01*
X131833904Y-91272724D01*
X131786285Y-91367962D01*
X131738666Y-91415581D01*
X131643428Y-91463200D01*
X131262476Y-91463200D01*
X131262476Y-90463200D01*
X131595809Y-90463200D01*
X131691047Y-90510820D01*
X131738666Y-90558439D01*
X131786285Y-90653677D01*
X131786285Y-90748915D01*
X131738666Y-90844153D01*
X131691047Y-90891772D01*
X131595809Y-90939391D01*
X131262476Y-90939391D01*
X132786285Y-91463200D02*
X132214857Y-91463200D01*
X132500571Y-91463200D02*
X132500571Y-90463200D01*
X132405333Y-90606058D01*
X132310095Y-90701296D01*
X132214857Y-90748915D01*
X130738666Y-87812571D02*
X130405333Y-87812571D01*
X130405333Y-88336380D02*
X130405333Y-87336380D01*
X130881523Y-87336380D01*
X131595809Y-87812571D02*
X131738666Y-87860190D01*
X131786285Y-87907809D01*
X131833904Y-88003047D01*
X131833904Y-88145904D01*
X131786285Y-88241142D01*
X131738666Y-88288761D01*
X131643428Y-88336380D01*
X131262476Y-88336380D01*
X131262476Y-87336380D01*
X131595809Y-87336380D01*
X131691047Y-87384000D01*
X131738666Y-87431619D01*
X131786285Y-87526857D01*
X131786285Y-87622095D01*
X131738666Y-87717333D01*
X131691047Y-87764952D01*
X131595809Y-87812571D01*
X131262476Y-87812571D01*
X132214857Y-87431619D02*
X132262476Y-87384000D01*
X132357714Y-87336380D01*
X132595809Y-87336380D01*
X132691047Y-87384000D01*
X132738666Y-87431619D01*
X132786285Y-87526857D01*
X132786285Y-87622095D01*
X132738666Y-87764952D01*
X132167238Y-88336380D01*
X132786285Y-88336380D01*
X140161000Y-90650343D02*
X140875286Y-90650343D01*
X141018143Y-90697962D01*
X141113381Y-90793200D01*
X141161000Y-90936058D01*
X141161000Y-91031296D01*
X141161000Y-89650343D02*
X141161000Y-90221772D01*
X141161000Y-89936058D02*
X140161000Y-89936058D01*
X140303858Y-90031296D01*
X140399096Y-90126534D01*
X140446715Y-90221772D01*
X140256239Y-89269391D02*
X140208620Y-89221772D01*
X140161000Y-89126534D01*
X140161000Y-88888439D01*
X140208620Y-88793200D01*
X140256239Y-88745581D01*
X140351477Y-88697962D01*
X140446715Y-88697962D01*
X140589572Y-88745581D01*
X141161000Y-89317010D01*
X141161000Y-88697962D01*
X84059840Y-64067063D02*
X84774126Y-64067063D01*
X84916983Y-64114682D01*
X85012221Y-64209920D01*
X85059840Y-64352778D01*
X85059840Y-64448016D01*
X85059840Y-63067063D02*
X85059840Y-63638492D01*
X85059840Y-63352778D02*
X84059840Y-63352778D01*
X84202698Y-63448016D01*
X84297936Y-63543254D01*
X84345555Y-63638492D01*
X84393174Y-62209920D02*
X85059840Y-62209920D01*
X84012221Y-62448016D02*
X84726507Y-62686111D01*
X84726507Y-62067063D01*
X127232380Y-92503523D02*
X127946666Y-92503523D01*
X128089523Y-92551142D01*
X128184761Y-92646380D01*
X128232380Y-92789238D01*
X128232380Y-92884476D01*
X128232380Y-91503523D02*
X128232380Y-92074952D01*
X128232380Y-91789238D02*
X127232380Y-91789238D01*
X127375238Y-91884476D01*
X127470476Y-91979714D01*
X127518095Y-92074952D01*
X127232380Y-90598761D02*
X127232380Y-91074952D01*
X127708571Y-91122571D01*
X127660952Y-91074952D01*
X127613333Y-90979714D01*
X127613333Y-90741619D01*
X127660952Y-90646380D01*
X127708571Y-90598761D01*
X127803809Y-90551142D01*
X128041904Y-90551142D01*
X128137142Y-90598761D01*
X128184761Y-90646380D01*
X128232380Y-90741619D01*
X128232380Y-90979714D01*
X128184761Y-91074952D01*
X128137142Y-91122571D01*
X140361000Y-86983677D02*
X139884810Y-87317010D01*
X140361000Y-87555105D02*
X139361000Y-87555105D01*
X139361000Y-87174153D01*
X139408620Y-87078915D01*
X139456239Y-87031296D01*
X139551477Y-86983677D01*
X139694334Y-86983677D01*
X139789572Y-87031296D01*
X139837191Y-87078915D01*
X139884810Y-87174153D01*
X139884810Y-87555105D01*
X139361000Y-86650343D02*
X139361000Y-86031296D01*
X139741953Y-86364629D01*
X139741953Y-86221772D01*
X139789572Y-86126534D01*
X139837191Y-86078915D01*
X139932429Y-86031296D01*
X140170524Y-86031296D01*
X140265762Y-86078915D01*
X140313381Y-86126534D01*
X140361000Y-86221772D01*
X140361000Y-86507486D01*
X140313381Y-86602724D01*
X140265762Y-86650343D01*
X139361000Y-85412248D02*
X139361000Y-85317010D01*
X139408620Y-85221772D01*
X139456239Y-85174153D01*
X139551477Y-85126534D01*
X139741953Y-85078915D01*
X139980048Y-85078915D01*
X140170524Y-85126534D01*
X140265762Y-85174153D01*
X140313381Y-85221772D01*
X140361000Y-85317010D01*
X140361000Y-85412248D01*
X140313381Y-85507486D01*
X140265762Y-85555105D01*
X140170524Y-85602724D01*
X139980048Y-85650343D01*
X139741953Y-85650343D01*
X139551477Y-85602724D01*
X139456239Y-85555105D01*
X139408620Y-85507486D01*
X139361000Y-85412248D01*
X134901000Y-86983677D02*
X134424810Y-87317010D01*
X134901000Y-87555105D02*
X133901000Y-87555105D01*
X133901000Y-87174153D01*
X133948620Y-87078915D01*
X133996239Y-87031296D01*
X134091477Y-86983677D01*
X134234334Y-86983677D01*
X134329572Y-87031296D01*
X134377191Y-87078915D01*
X134424810Y-87174153D01*
X134424810Y-87555105D01*
X133901000Y-86650343D02*
X133901000Y-86031296D01*
X134281953Y-86364629D01*
X134281953Y-86221772D01*
X134329572Y-86126534D01*
X134377191Y-86078915D01*
X134472429Y-86031296D01*
X134710524Y-86031296D01*
X134805762Y-86078915D01*
X134853381Y-86126534D01*
X134901000Y-86221772D01*
X134901000Y-86507486D01*
X134853381Y-86602724D01*
X134805762Y-86650343D01*
X134901000Y-85078915D02*
X134901000Y-85650343D01*
X134901000Y-85364629D02*
X133901000Y-85364629D01*
X134043858Y-85459867D01*
X134139096Y-85555105D01*
X134186715Y-85650343D01*
X141431000Y-82883677D02*
X140954810Y-83217010D01*
X141431000Y-83455105D02*
X140431000Y-83455105D01*
X140431000Y-83074153D01*
X140478620Y-82978915D01*
X140526239Y-82931296D01*
X140621477Y-82883677D01*
X140764334Y-82883677D01*
X140859572Y-82931296D01*
X140907191Y-82978915D01*
X140954810Y-83074153D01*
X140954810Y-83455105D01*
X140431000Y-82550343D02*
X140431000Y-81931296D01*
X140811953Y-82264629D01*
X140811953Y-82121772D01*
X140859572Y-82026534D01*
X140907191Y-81978915D01*
X141002429Y-81931296D01*
X141240524Y-81931296D01*
X141335762Y-81978915D01*
X141383381Y-82026534D01*
X141431000Y-82121772D01*
X141431000Y-82407486D01*
X141383381Y-82502724D01*
X141335762Y-82550343D01*
X140526239Y-81550343D02*
X140478620Y-81502724D01*
X140431000Y-81407486D01*
X140431000Y-81169391D01*
X140478620Y-81074153D01*
X140526239Y-81026534D01*
X140621477Y-80978915D01*
X140716715Y-80978915D01*
X140859572Y-81026534D01*
X141431000Y-81597962D01*
X141431000Y-80978915D01*
X132901000Y-83700857D02*
X132424810Y-84034190D01*
X132901000Y-84272285D02*
X131901000Y-84272285D01*
X131901000Y-83891333D01*
X131948620Y-83796095D01*
X131996239Y-83748476D01*
X132091477Y-83700857D01*
X132234334Y-83700857D01*
X132329572Y-83748476D01*
X132377191Y-83796095D01*
X132424810Y-83891333D01*
X132424810Y-84272285D01*
X131901000Y-83367523D02*
X131901000Y-82748476D01*
X132281953Y-83081809D01*
X132281953Y-82938952D01*
X132329572Y-82843714D01*
X132377191Y-82796095D01*
X132472429Y-82748476D01*
X132710524Y-82748476D01*
X132805762Y-82796095D01*
X132853381Y-82843714D01*
X132901000Y-82938952D01*
X132901000Y-83224666D01*
X132853381Y-83319904D01*
X132805762Y-83367523D01*
X131901000Y-82415142D02*
X131901000Y-81796095D01*
X132281953Y-82129428D01*
X132281953Y-81986571D01*
X132329572Y-81891333D01*
X132377191Y-81843714D01*
X132472429Y-81796095D01*
X132710524Y-81796095D01*
X132805762Y-81843714D01*
X132853381Y-81891333D01*
X132901000Y-81986571D01*
X132901000Y-82272285D01*
X132853381Y-82367523D01*
X132805762Y-82415142D01*
X139898380Y-65183677D02*
X139422190Y-65517010D01*
X139898380Y-65755105D02*
X138898380Y-65755105D01*
X138898380Y-65374153D01*
X138946000Y-65278915D01*
X138993619Y-65231296D01*
X139088857Y-65183677D01*
X139231714Y-65183677D01*
X139326952Y-65231296D01*
X139374571Y-65278915D01*
X139422190Y-65374153D01*
X139422190Y-65755105D01*
X138898380Y-64850343D02*
X138898380Y-64231296D01*
X139279333Y-64564629D01*
X139279333Y-64421772D01*
X139326952Y-64326534D01*
X139374571Y-64278915D01*
X139469809Y-64231296D01*
X139707904Y-64231296D01*
X139803142Y-64278915D01*
X139850761Y-64326534D01*
X139898380Y-64421772D01*
X139898380Y-64707486D01*
X139850761Y-64802724D01*
X139803142Y-64850343D01*
X139231714Y-63374153D02*
X139898380Y-63374153D01*
X138850761Y-63612248D02*
X139565047Y-63850343D01*
X139565047Y-63231296D01*
X135161000Y-65183677D02*
X134684810Y-65517010D01*
X135161000Y-65755105D02*
X134161000Y-65755105D01*
X134161000Y-65374153D01*
X134208620Y-65278915D01*
X134256239Y-65231296D01*
X134351477Y-65183677D01*
X134494334Y-65183677D01*
X134589572Y-65231296D01*
X134637191Y-65278915D01*
X134684810Y-65374153D01*
X134684810Y-65755105D01*
X134161000Y-64850343D02*
X134161000Y-64231296D01*
X134541953Y-64564629D01*
X134541953Y-64421772D01*
X134589572Y-64326534D01*
X134637191Y-64278915D01*
X134732429Y-64231296D01*
X134970524Y-64231296D01*
X135065762Y-64278915D01*
X135113381Y-64326534D01*
X135161000Y-64421772D01*
X135161000Y-64707486D01*
X135113381Y-64802724D01*
X135065762Y-64850343D01*
X134161000Y-63326534D02*
X134161000Y-63802724D01*
X134637191Y-63850343D01*
X134589572Y-63802724D01*
X134541953Y-63707486D01*
X134541953Y-63469391D01*
X134589572Y-63374153D01*
X134637191Y-63326534D01*
X134732429Y-63278915D01*
X134970524Y-63278915D01*
X135065762Y-63326534D01*
X135113381Y-63374153D01*
X135161000Y-63469391D01*
X135161000Y-63707486D01*
X135113381Y-63802724D01*
X135065762Y-63850343D01*
X131861000Y-65083677D02*
X131384810Y-65417010D01*
X131861000Y-65655105D02*
X130861000Y-65655105D01*
X130861000Y-65274153D01*
X130908620Y-65178915D01*
X130956239Y-65131296D01*
X131051477Y-65083677D01*
X131194334Y-65083677D01*
X131289572Y-65131296D01*
X131337191Y-65178915D01*
X131384810Y-65274153D01*
X131384810Y-65655105D01*
X130861000Y-64750343D02*
X130861000Y-64131296D01*
X131241953Y-64464629D01*
X131241953Y-64321772D01*
X131289572Y-64226534D01*
X131337191Y-64178915D01*
X131432429Y-64131296D01*
X131670524Y-64131296D01*
X131765762Y-64178915D01*
X131813381Y-64226534D01*
X131861000Y-64321772D01*
X131861000Y-64607486D01*
X131813381Y-64702724D01*
X131765762Y-64750343D01*
X130861000Y-63274153D02*
X130861000Y-63464629D01*
X130908620Y-63559867D01*
X130956239Y-63607486D01*
X131099096Y-63702724D01*
X131289572Y-63750343D01*
X131670524Y-63750343D01*
X131765762Y-63702724D01*
X131813381Y-63655105D01*
X131861000Y-63559867D01*
X131861000Y-63369391D01*
X131813381Y-63274153D01*
X131765762Y-63226534D01*
X131670524Y-63178915D01*
X131432429Y-63178915D01*
X131337191Y-63226534D01*
X131289572Y-63274153D01*
X131241953Y-63369391D01*
X131241953Y-63559867D01*
X131289572Y-63655105D01*
X131337191Y-63702724D01*
X131432429Y-63750343D01*
X138561000Y-65183677D02*
X138084810Y-65517010D01*
X138561000Y-65755105D02*
X137561000Y-65755105D01*
X137561000Y-65374153D01*
X137608620Y-65278915D01*
X137656239Y-65231296D01*
X137751477Y-65183677D01*
X137894334Y-65183677D01*
X137989572Y-65231296D01*
X138037191Y-65278915D01*
X138084810Y-65374153D01*
X138084810Y-65755105D01*
X137561000Y-64850343D02*
X137561000Y-64231296D01*
X137941953Y-64564629D01*
X137941953Y-64421772D01*
X137989572Y-64326534D01*
X138037191Y-64278915D01*
X138132429Y-64231296D01*
X138370524Y-64231296D01*
X138465762Y-64278915D01*
X138513381Y-64326534D01*
X138561000Y-64421772D01*
X138561000Y-64707486D01*
X138513381Y-64802724D01*
X138465762Y-64850343D01*
X137561000Y-63897962D02*
X137561000Y-63231296D01*
X138561000Y-63659867D01*
X132080095Y-76668380D02*
X132080095Y-77477904D01*
X132127714Y-77573142D01*
X132175333Y-77620761D01*
X132270571Y-77668380D01*
X132461047Y-77668380D01*
X132556285Y-77620761D01*
X132603904Y-77573142D01*
X132651523Y-77477904D01*
X132651523Y-76668380D01*
X133080095Y-76763619D02*
X133127714Y-76716000D01*
X133222952Y-76668380D01*
X133461047Y-76668380D01*
X133556285Y-76716000D01*
X133603904Y-76763619D01*
X133651523Y-76858857D01*
X133651523Y-76954095D01*
X133603904Y-77096952D01*
X133032476Y-77668380D01*
X133651523Y-77668380D01*
X134216715Y-70343200D02*
X134216715Y-71152724D01*
X134264334Y-71247962D01*
X134311953Y-71295581D01*
X134407191Y-71343200D01*
X134597667Y-71343200D01*
X134692905Y-71295581D01*
X134740524Y-71247962D01*
X134788143Y-71152724D01*
X134788143Y-70343200D01*
X135169096Y-70343200D02*
X135788143Y-70343200D01*
X135454810Y-70724153D01*
X135597667Y-70724153D01*
X135692905Y-70771772D01*
X135740524Y-70819391D01*
X135788143Y-70914629D01*
X135788143Y-71152724D01*
X135740524Y-71247962D01*
X135692905Y-71295581D01*
X135597667Y-71343200D01*
X135311953Y-71343200D01*
X135216715Y-71295581D01*
X135169096Y-71247962D01*
X101884841Y-65337063D02*
X102599127Y-65337063D01*
X102741984Y-65384682D01*
X102837222Y-65479920D01*
X102884841Y-65622778D01*
X102884841Y-65718016D01*
X102884841Y-64337063D02*
X102884841Y-64908492D01*
X102884841Y-64622778D02*
X101884841Y-64622778D01*
X102027699Y-64718016D01*
X102122937Y-64813254D01*
X102170556Y-64908492D01*
X101884841Y-64003730D02*
X101884841Y-63384682D01*
X102265794Y-63718016D01*
X102265794Y-63575159D01*
X102313413Y-63479920D01*
X102361032Y-63432301D01*
X102456270Y-63384682D01*
X102694365Y-63384682D01*
X102789603Y-63432301D01*
X102837222Y-63479920D01*
X102884841Y-63575159D01*
X102884841Y-63860873D01*
X102837222Y-63956111D01*
X102789603Y-64003730D01*
X137431000Y-83683677D02*
X136954810Y-84017010D01*
X137431000Y-84255105D02*
X136431000Y-84255105D01*
X136431000Y-83874153D01*
X136478620Y-83778915D01*
X136526239Y-83731296D01*
X136621477Y-83683677D01*
X136764334Y-83683677D01*
X136859572Y-83731296D01*
X136907191Y-83778915D01*
X136954810Y-83874153D01*
X136954810Y-84255105D01*
X136431000Y-83350343D02*
X136431000Y-82731296D01*
X136811953Y-83064629D01*
X136811953Y-82921772D01*
X136859572Y-82826534D01*
X136907191Y-82778915D01*
X137002429Y-82731296D01*
X137240524Y-82731296D01*
X137335762Y-82778915D01*
X137383381Y-82826534D01*
X137431000Y-82921772D01*
X137431000Y-83207486D01*
X137383381Y-83302724D01*
X137335762Y-83350343D01*
X136859572Y-82159867D02*
X136811953Y-82255105D01*
X136764334Y-82302724D01*
X136669096Y-82350343D01*
X136621477Y-82350343D01*
X136526239Y-82302724D01*
X136478620Y-82255105D01*
X136431000Y-82159867D01*
X136431000Y-81969391D01*
X136478620Y-81874153D01*
X136526239Y-81826534D01*
X136621477Y-81778915D01*
X136669096Y-81778915D01*
X136764334Y-81826534D01*
X136811953Y-81874153D01*
X136859572Y-81969391D01*
X136859572Y-82159867D01*
X136907191Y-82255105D01*
X136954810Y-82302724D01*
X137050048Y-82350343D01*
X137240524Y-82350343D01*
X137335762Y-82302724D01*
X137383381Y-82255105D01*
X137431000Y-82159867D01*
X137431000Y-81969391D01*
X137383381Y-81874153D01*
X137335762Y-81826534D01*
X137240524Y-81778915D01*
X137050048Y-81778915D01*
X136954810Y-81826534D01*
X136907191Y-81874153D01*
X136859572Y-81969391D01*
X133723142Y-81224380D02*
X133389809Y-80748190D01*
X133151714Y-81224380D02*
X133151714Y-80224380D01*
X133532666Y-80224380D01*
X133627904Y-80272000D01*
X133675523Y-80319619D01*
X133723142Y-80414857D01*
X133723142Y-80557714D01*
X133675523Y-80652952D01*
X133627904Y-80700571D01*
X133532666Y-80748190D01*
X133151714Y-80748190D01*
X134056476Y-80224380D02*
X134675523Y-80224380D01*
X134342190Y-80605333D01*
X134485047Y-80605333D01*
X134580285Y-80652952D01*
X134627904Y-80700571D01*
X134675523Y-80795809D01*
X134675523Y-81033904D01*
X134627904Y-81129142D01*
X134580285Y-81176761D01*
X134485047Y-81224380D01*
X134199333Y-81224380D01*
X134104095Y-81176761D01*
X134056476Y-81129142D01*
X135151714Y-81224380D02*
X135342190Y-81224380D01*
X135437428Y-81176761D01*
X135485047Y-81129142D01*
X135580285Y-80986285D01*
X135627904Y-80795809D01*
X135627904Y-80414857D01*
X135580285Y-80319619D01*
X135532666Y-80272000D01*
X135437428Y-80224380D01*
X135246952Y-80224380D01*
X135151714Y-80272000D01*
X135104095Y-80319619D01*
X135056476Y-80414857D01*
X135056476Y-80652952D01*
X135104095Y-80748190D01*
X135151714Y-80795809D01*
X135246952Y-80843428D01*
X135437428Y-80843428D01*
X135532666Y-80795809D01*
X135580285Y-80748190D01*
X135627904Y-80652952D01*
X121076666Y-140192380D02*
X121076666Y-140906666D01*
X121029047Y-141049523D01*
X120933809Y-141144761D01*
X120790952Y-141192380D01*
X120695714Y-141192380D01*
X121981428Y-140192380D02*
X121790952Y-140192380D01*
X121695714Y-140240000D01*
X121648095Y-140287619D01*
X121552857Y-140430476D01*
X121505238Y-140620952D01*
X121505238Y-141001904D01*
X121552857Y-141097142D01*
X121600476Y-141144761D01*
X121695714Y-141192380D01*
X121886190Y-141192380D01*
X121981428Y-141144761D01*
X122029047Y-141097142D01*
X122076666Y-141001904D01*
X122076666Y-140763809D01*
X122029047Y-140668571D01*
X121981428Y-140620952D01*
X121886190Y-140573333D01*
X121695714Y-140573333D01*
X121600476Y-140620952D01*
X121552857Y-140668571D01*
X121505238Y-140763809D01*
X161029476Y-67515480D02*
X161029476Y-68229766D01*
X160981857Y-68372623D01*
X160886619Y-68467861D01*
X160743761Y-68515480D01*
X160648523Y-68515480D01*
X162029476Y-68515480D02*
X161458047Y-68515480D01*
X161743761Y-68515480D02*
X161743761Y-67515480D01*
X161648523Y-67658338D01*
X161553285Y-67753576D01*
X161458047Y-67801195D01*
X162886619Y-67515480D02*
X162696142Y-67515480D01*
X162600904Y-67563100D01*
X162553285Y-67610719D01*
X162458047Y-67753576D01*
X162410428Y-67944052D01*
X162410428Y-68325004D01*
X162458047Y-68420242D01*
X162505666Y-68467861D01*
X162600904Y-68515480D01*
X162791380Y-68515480D01*
X162886619Y-68467861D01*
X162934238Y-68420242D01*
X162981857Y-68325004D01*
X162981857Y-68086909D01*
X162934238Y-67991671D01*
X162886619Y-67944052D01*
X162791380Y-67896433D01*
X162600904Y-67896433D01*
X162505666Y-67944052D01*
X162458047Y-67991671D01*
X162410428Y-68086909D01*
X212400476Y-67806920D02*
X212400476Y-68521206D01*
X212352857Y-68664063D01*
X212257619Y-68759301D01*
X212114761Y-68806920D01*
X212019523Y-68806920D01*
X213400476Y-68806920D02*
X212829047Y-68806920D01*
X213114761Y-68806920D02*
X213114761Y-67806920D01*
X213019523Y-67949778D01*
X212924285Y-68045016D01*
X212829047Y-68092635D01*
X213733809Y-67806920D02*
X214400476Y-67806920D01*
X213971904Y-68806920D01*
X212400476Y-85646920D02*
X212400476Y-86361206D01*
X212352857Y-86504063D01*
X212257619Y-86599301D01*
X212114761Y-86646920D01*
X212019523Y-86646920D01*
X213400476Y-86646920D02*
X212829047Y-86646920D01*
X213114761Y-86646920D02*
X213114761Y-85646920D01*
X213019523Y-85789778D01*
X212924285Y-85885016D01*
X212829047Y-85932635D01*
X213971904Y-86075492D02*
X213876666Y-86027873D01*
X213829047Y-85980254D01*
X213781428Y-85885016D01*
X213781428Y-85837397D01*
X213829047Y-85742159D01*
X213876666Y-85694540D01*
X213971904Y-85646920D01*
X214162380Y-85646920D01*
X214257619Y-85694540D01*
X214305238Y-85742159D01*
X214352857Y-85837397D01*
X214352857Y-85885016D01*
X214305238Y-85980254D01*
X214257619Y-86027873D01*
X214162380Y-86075492D01*
X213971904Y-86075492D01*
X213876666Y-86123111D01*
X213829047Y-86170730D01*
X213781428Y-86265968D01*
X213781428Y-86456444D01*
X213829047Y-86551682D01*
X213876666Y-86599301D01*
X213971904Y-86646920D01*
X214162380Y-86646920D01*
X214257619Y-86599301D01*
X214305238Y-86551682D01*
X214352857Y-86456444D01*
X214352857Y-86265968D01*
X214305238Y-86170730D01*
X214257619Y-86123111D01*
X214162380Y-86075492D01*
M02*
