G04 #@! TF.GenerationSoftware,KiCad,Pcbnew,(5.1.9)-1*
G04 #@! TF.CreationDate,2021-03-12T17:13:45-06:00*
G04 #@! TF.ProjectId,Torch Module,546f7263-6820-44d6-9f64-756c652e6b69,rev?*
G04 #@! TF.SameCoordinates,Original*
G04 #@! TF.FileFunction,Soldermask,Top*
G04 #@! TF.FilePolarity,Negative*
%FSLAX46Y46*%
G04 Gerber Fmt 4.6, Leading zero omitted, Abs format (unit mm)*
G04 Created by KiCad (PCBNEW (5.1.9)-1) date 2021-03-12 17:13:45*
%MOMM*%
%LPD*%
G01*
G04 APERTURE LIST*
%ADD10C,1.650000*%
%ADD11C,2.430000*%
%ADD12C,1.462000*%
%ADD13R,1.462000X1.462000*%
%ADD14C,3.200000*%
%ADD15C,1.524000*%
%ADD16O,2.000000X1.200000*%
%ADD17R,2.000000X1.200000*%
%ADD18R,1.200000X0.900000*%
%ADD19R,1.700000X1.700000*%
%ADD20O,1.700000X1.700000*%
%ADD21R,1.501140X1.501140*%
%ADD22C,1.501140*%
%ADD23R,0.900000X0.800000*%
%ADD24C,1.440000*%
%ADD25R,0.650000X1.220000*%
%ADD26R,1.100000X0.250000*%
%ADD27R,1.500000X1.500000*%
%ADD28C,1.500000*%
%ADD29C,3.250000*%
%ADD30C,2.300000*%
G04 APERTURE END LIST*
D10*
X102742000Y-83572000D03*
X102742000Y-70872000D03*
D11*
X106982000Y-85352000D03*
X106982000Y-69092000D03*
D12*
X108582000Y-70362000D03*
X108582000Y-72652000D03*
X108582000Y-81792000D03*
X108582000Y-84082000D03*
X103632000Y-73652000D03*
X106172000Y-74672000D03*
X103632000Y-75692000D03*
X106172000Y-76712000D03*
X103632000Y-77732000D03*
X106172000Y-78752000D03*
X103632000Y-79772000D03*
D13*
X106172000Y-80792000D03*
X204598000Y-81294000D03*
D12*
X202058000Y-80274000D03*
X204598000Y-79254000D03*
X202058000Y-78234000D03*
X204598000Y-77214000D03*
X202058000Y-76194000D03*
X204598000Y-75174000D03*
X202058000Y-74154000D03*
X207008000Y-84584000D03*
X207008000Y-82294000D03*
X207008000Y-73154000D03*
X207008000Y-70864000D03*
D11*
X205408000Y-69594000D03*
X205408000Y-85854000D03*
D10*
X201168000Y-71374000D03*
X201168000Y-84074000D03*
X155828000Y-90168000D03*
X155828000Y-77468000D03*
D11*
X160068000Y-91948000D03*
X160068000Y-75688000D03*
D12*
X161668000Y-76958000D03*
X161668000Y-79248000D03*
X161668000Y-88388000D03*
X161668000Y-90678000D03*
X156718000Y-80248000D03*
X159258000Y-81268000D03*
X156718000Y-82288000D03*
X159258000Y-83308000D03*
X156718000Y-84328000D03*
X159258000Y-85348000D03*
X156718000Y-86368000D03*
D13*
X159258000Y-87388000D03*
D14*
X207264000Y-64008000D03*
X106934000Y-64262000D03*
D15*
X104140000Y-163830000D03*
X101600000Y-163830000D03*
D16*
X106680000Y-146050000D03*
X93980000Y-146050000D03*
X106680000Y-148590000D03*
X93980000Y-148590000D03*
X106680000Y-151130000D03*
X93980000Y-151130000D03*
X106680000Y-153670000D03*
X93980000Y-153670000D03*
X106680000Y-156210000D03*
X93980000Y-156210000D03*
X106680000Y-158750000D03*
X93980000Y-158750000D03*
X106680000Y-161290000D03*
X93980000Y-161290000D03*
D17*
X106680000Y-163830000D03*
D16*
X93980000Y-163830000D03*
D15*
X83820000Y-163830000D03*
X81280000Y-163830000D03*
D16*
X86360000Y-146050000D03*
X73660000Y-146050000D03*
X86360000Y-148590000D03*
X73660000Y-148590000D03*
X86360000Y-151130000D03*
X73660000Y-151130000D03*
X86360000Y-153670000D03*
X73660000Y-153670000D03*
X86360000Y-156210000D03*
X73660000Y-156210000D03*
X86360000Y-158750000D03*
X73660000Y-158750000D03*
X86360000Y-161290000D03*
X73660000Y-161290000D03*
D17*
X86360000Y-163830000D03*
D16*
X73660000Y-163830000D03*
G36*
G01*
X85979460Y-73298040D02*
X85979460Y-73773040D01*
G75*
G02*
X85741960Y-74010540I-237500J0D01*
G01*
X85241960Y-74010540D01*
G75*
G02*
X85004460Y-73773040I0J237500D01*
G01*
X85004460Y-73298040D01*
G75*
G02*
X85241960Y-73060540I237500J0D01*
G01*
X85741960Y-73060540D01*
G75*
G02*
X85979460Y-73298040I0J-237500D01*
G01*
G37*
G36*
G01*
X84154460Y-73298040D02*
X84154460Y-73773040D01*
G75*
G02*
X83916960Y-74010540I-237500J0D01*
G01*
X83416960Y-74010540D01*
G75*
G02*
X83179460Y-73773040I0J237500D01*
G01*
X83179460Y-73298040D01*
G75*
G02*
X83416960Y-73060540I237500J0D01*
G01*
X83916960Y-73060540D01*
G75*
G02*
X84154460Y-73298040I0J-237500D01*
G01*
G37*
G36*
G01*
X80899460Y-70504040D02*
X80899460Y-70979040D01*
G75*
G02*
X80661960Y-71216540I-237500J0D01*
G01*
X80061960Y-71216540D01*
G75*
G02*
X79824460Y-70979040I0J237500D01*
G01*
X79824460Y-70504040D01*
G75*
G02*
X80061960Y-70266540I237500J0D01*
G01*
X80661960Y-70266540D01*
G75*
G02*
X80899460Y-70504040I0J-237500D01*
G01*
G37*
G36*
G01*
X79174460Y-70504040D02*
X79174460Y-70979040D01*
G75*
G02*
X78936960Y-71216540I-237500J0D01*
G01*
X78336960Y-71216540D01*
G75*
G02*
X78099460Y-70979040I0J237500D01*
G01*
X78099460Y-70504040D01*
G75*
G02*
X78336960Y-70266540I237500J0D01*
G01*
X78936960Y-70266540D01*
G75*
G02*
X79174460Y-70504040I0J-237500D01*
G01*
G37*
G36*
G01*
X84254460Y-70504040D02*
X84254460Y-70979040D01*
G75*
G02*
X84016960Y-71216540I-237500J0D01*
G01*
X83416960Y-71216540D01*
G75*
G02*
X83179460Y-70979040I0J237500D01*
G01*
X83179460Y-70504040D01*
G75*
G02*
X83416960Y-70266540I237500J0D01*
G01*
X84016960Y-70266540D01*
G75*
G02*
X84254460Y-70504040I0J-237500D01*
G01*
G37*
G36*
G01*
X85979460Y-70504040D02*
X85979460Y-70979040D01*
G75*
G02*
X85741960Y-71216540I-237500J0D01*
G01*
X85141960Y-71216540D01*
G75*
G02*
X84904460Y-70979040I0J237500D01*
G01*
X84904460Y-70504040D01*
G75*
G02*
X85141960Y-70266540I237500J0D01*
G01*
X85741960Y-70266540D01*
G75*
G02*
X85979460Y-70504040I0J-237500D01*
G01*
G37*
D18*
X83817460Y-82172540D03*
X83817460Y-85472540D03*
D19*
X74930000Y-91440000D03*
D20*
X74930000Y-88900000D03*
X74930000Y-86360000D03*
X74930000Y-83820000D03*
X74930000Y-81280000D03*
X74930000Y-78740000D03*
X74930000Y-76200000D03*
X74930000Y-73660000D03*
X74930000Y-71120000D03*
X74930000Y-68580000D03*
X74930000Y-66040000D03*
X74930000Y-63500000D03*
D21*
X89532460Y-78742540D03*
D22*
X97152460Y-78742540D03*
X97152460Y-83822540D03*
X89532460Y-91442540D03*
X97152460Y-91442540D03*
D23*
X84849460Y-88765340D03*
X84849460Y-90665340D03*
X86849460Y-89715340D03*
G36*
G01*
X97920000Y-70882500D02*
X97920000Y-71357500D01*
G75*
G02*
X97682500Y-71595000I-237500J0D01*
G01*
X97182500Y-71595000D01*
G75*
G02*
X96945000Y-71357500I0J237500D01*
G01*
X96945000Y-70882500D01*
G75*
G02*
X97182500Y-70645000I237500J0D01*
G01*
X97682500Y-70645000D01*
G75*
G02*
X97920000Y-70882500I0J-237500D01*
G01*
G37*
G36*
G01*
X96095000Y-70882500D02*
X96095000Y-71357500D01*
G75*
G02*
X95857500Y-71595000I-237500J0D01*
G01*
X95357500Y-71595000D01*
G75*
G02*
X95120000Y-71357500I0J237500D01*
G01*
X95120000Y-70882500D01*
G75*
G02*
X95357500Y-70645000I237500J0D01*
G01*
X95857500Y-70645000D01*
G75*
G02*
X96095000Y-70882500I0J-237500D01*
G01*
G37*
G36*
G01*
X83539960Y-65607540D02*
X84014960Y-65607540D01*
G75*
G02*
X84252460Y-65845040I0J-237500D01*
G01*
X84252460Y-66345040D01*
G75*
G02*
X84014960Y-66582540I-237500J0D01*
G01*
X83539960Y-66582540D01*
G75*
G02*
X83302460Y-66345040I0J237500D01*
G01*
X83302460Y-65845040D01*
G75*
G02*
X83539960Y-65607540I237500J0D01*
G01*
G37*
G36*
G01*
X83539960Y-67432540D02*
X84014960Y-67432540D01*
G75*
G02*
X84252460Y-67670040I0J-237500D01*
G01*
X84252460Y-68170040D01*
G75*
G02*
X84014960Y-68407540I-237500J0D01*
G01*
X83539960Y-68407540D01*
G75*
G02*
X83302460Y-68170040I0J237500D01*
G01*
X83302460Y-67670040D01*
G75*
G02*
X83539960Y-67432540I237500J0D01*
G01*
G37*
G36*
G01*
X79074460Y-91078040D02*
X79074460Y-91553040D01*
G75*
G02*
X78836960Y-91790540I-237500J0D01*
G01*
X78336960Y-91790540D01*
G75*
G02*
X78099460Y-91553040I0J237500D01*
G01*
X78099460Y-91078040D01*
G75*
G02*
X78336960Y-90840540I237500J0D01*
G01*
X78836960Y-90840540D01*
G75*
G02*
X79074460Y-91078040I0J-237500D01*
G01*
G37*
G36*
G01*
X80899460Y-91078040D02*
X80899460Y-91553040D01*
G75*
G02*
X80661960Y-91790540I-237500J0D01*
G01*
X80161960Y-91790540D01*
G75*
G02*
X79924460Y-91553040I0J237500D01*
G01*
X79924460Y-91078040D01*
G75*
G02*
X80161960Y-90840540I237500J0D01*
G01*
X80661960Y-90840540D01*
G75*
G02*
X80899460Y-91078040I0J-237500D01*
G01*
G37*
G36*
G01*
X77972460Y-66280040D02*
X77972460Y-65805040D01*
G75*
G02*
X78209960Y-65567540I237500J0D01*
G01*
X78709960Y-65567540D01*
G75*
G02*
X78947460Y-65805040I0J-237500D01*
G01*
X78947460Y-66280040D01*
G75*
G02*
X78709960Y-66517540I-237500J0D01*
G01*
X78209960Y-66517540D01*
G75*
G02*
X77972460Y-66280040I0J237500D01*
G01*
G37*
G36*
G01*
X79797460Y-66280040D02*
X79797460Y-65805040D01*
G75*
G02*
X80034960Y-65567540I237500J0D01*
G01*
X80534960Y-65567540D01*
G75*
G02*
X80772460Y-65805040I0J-237500D01*
G01*
X80772460Y-66280040D01*
G75*
G02*
X80534960Y-66517540I-237500J0D01*
G01*
X80034960Y-66517540D01*
G75*
G02*
X79797460Y-66280040I0J237500D01*
G01*
G37*
G36*
G01*
X83462540Y-153395540D02*
X83462540Y-153695540D01*
G75*
G02*
X83312540Y-153845540I-150000J0D01*
G01*
X81862540Y-153845540D01*
G75*
G02*
X81712540Y-153695540I0J150000D01*
G01*
X81712540Y-153395540D01*
G75*
G02*
X81862540Y-153245540I150000J0D01*
G01*
X83312540Y-153245540D01*
G75*
G02*
X83462540Y-153395540I0J-150000D01*
G01*
G37*
G36*
G01*
X83462540Y-152125540D02*
X83462540Y-152425540D01*
G75*
G02*
X83312540Y-152575540I-150000J0D01*
G01*
X81862540Y-152575540D01*
G75*
G02*
X81712540Y-152425540I0J150000D01*
G01*
X81712540Y-152125540D01*
G75*
G02*
X81862540Y-151975540I150000J0D01*
G01*
X83312540Y-151975540D01*
G75*
G02*
X83462540Y-152125540I0J-150000D01*
G01*
G37*
G36*
G01*
X83462540Y-150855540D02*
X83462540Y-151155540D01*
G75*
G02*
X83312540Y-151305540I-150000J0D01*
G01*
X81862540Y-151305540D01*
G75*
G02*
X81712540Y-151155540I0J150000D01*
G01*
X81712540Y-150855540D01*
G75*
G02*
X81862540Y-150705540I150000J0D01*
G01*
X83312540Y-150705540D01*
G75*
G02*
X83462540Y-150855540I0J-150000D01*
G01*
G37*
G36*
G01*
X83462540Y-149585540D02*
X83462540Y-149885540D01*
G75*
G02*
X83312540Y-150035540I-150000J0D01*
G01*
X81862540Y-150035540D01*
G75*
G02*
X81712540Y-149885540I0J150000D01*
G01*
X81712540Y-149585540D01*
G75*
G02*
X81862540Y-149435540I150000J0D01*
G01*
X83312540Y-149435540D01*
G75*
G02*
X83462540Y-149585540I0J-150000D01*
G01*
G37*
G36*
G01*
X83462540Y-148315540D02*
X83462540Y-148615540D01*
G75*
G02*
X83312540Y-148765540I-150000J0D01*
G01*
X81862540Y-148765540D01*
G75*
G02*
X81712540Y-148615540I0J150000D01*
G01*
X81712540Y-148315540D01*
G75*
G02*
X81862540Y-148165540I150000J0D01*
G01*
X83312540Y-148165540D01*
G75*
G02*
X83462540Y-148315540I0J-150000D01*
G01*
G37*
G36*
G01*
X83462540Y-147045540D02*
X83462540Y-147345540D01*
G75*
G02*
X83312540Y-147495540I-150000J0D01*
G01*
X81862540Y-147495540D01*
G75*
G02*
X81712540Y-147345540I0J150000D01*
G01*
X81712540Y-147045540D01*
G75*
G02*
X81862540Y-146895540I150000J0D01*
G01*
X83312540Y-146895540D01*
G75*
G02*
X83462540Y-147045540I0J-150000D01*
G01*
G37*
G36*
G01*
X83462540Y-145775540D02*
X83462540Y-146075540D01*
G75*
G02*
X83312540Y-146225540I-150000J0D01*
G01*
X81862540Y-146225540D01*
G75*
G02*
X81712540Y-146075540I0J150000D01*
G01*
X81712540Y-145775540D01*
G75*
G02*
X81862540Y-145625540I150000J0D01*
G01*
X83312540Y-145625540D01*
G75*
G02*
X83462540Y-145775540I0J-150000D01*
G01*
G37*
G36*
G01*
X83462540Y-144505540D02*
X83462540Y-144805540D01*
G75*
G02*
X83312540Y-144955540I-150000J0D01*
G01*
X81862540Y-144955540D01*
G75*
G02*
X81712540Y-144805540I0J150000D01*
G01*
X81712540Y-144505540D01*
G75*
G02*
X81862540Y-144355540I150000J0D01*
G01*
X83312540Y-144355540D01*
G75*
G02*
X83462540Y-144505540I0J-150000D01*
G01*
G37*
G36*
G01*
X78312540Y-144505540D02*
X78312540Y-144805540D01*
G75*
G02*
X78162540Y-144955540I-150000J0D01*
G01*
X76712540Y-144955540D01*
G75*
G02*
X76562540Y-144805540I0J150000D01*
G01*
X76562540Y-144505540D01*
G75*
G02*
X76712540Y-144355540I150000J0D01*
G01*
X78162540Y-144355540D01*
G75*
G02*
X78312540Y-144505540I0J-150000D01*
G01*
G37*
G36*
G01*
X78312540Y-145775540D02*
X78312540Y-146075540D01*
G75*
G02*
X78162540Y-146225540I-150000J0D01*
G01*
X76712540Y-146225540D01*
G75*
G02*
X76562540Y-146075540I0J150000D01*
G01*
X76562540Y-145775540D01*
G75*
G02*
X76712540Y-145625540I150000J0D01*
G01*
X78162540Y-145625540D01*
G75*
G02*
X78312540Y-145775540I0J-150000D01*
G01*
G37*
G36*
G01*
X78312540Y-147045540D02*
X78312540Y-147345540D01*
G75*
G02*
X78162540Y-147495540I-150000J0D01*
G01*
X76712540Y-147495540D01*
G75*
G02*
X76562540Y-147345540I0J150000D01*
G01*
X76562540Y-147045540D01*
G75*
G02*
X76712540Y-146895540I150000J0D01*
G01*
X78162540Y-146895540D01*
G75*
G02*
X78312540Y-147045540I0J-150000D01*
G01*
G37*
G36*
G01*
X78312540Y-148315540D02*
X78312540Y-148615540D01*
G75*
G02*
X78162540Y-148765540I-150000J0D01*
G01*
X76712540Y-148765540D01*
G75*
G02*
X76562540Y-148615540I0J150000D01*
G01*
X76562540Y-148315540D01*
G75*
G02*
X76712540Y-148165540I150000J0D01*
G01*
X78162540Y-148165540D01*
G75*
G02*
X78312540Y-148315540I0J-150000D01*
G01*
G37*
G36*
G01*
X78312540Y-149585540D02*
X78312540Y-149885540D01*
G75*
G02*
X78162540Y-150035540I-150000J0D01*
G01*
X76712540Y-150035540D01*
G75*
G02*
X76562540Y-149885540I0J150000D01*
G01*
X76562540Y-149585540D01*
G75*
G02*
X76712540Y-149435540I150000J0D01*
G01*
X78162540Y-149435540D01*
G75*
G02*
X78312540Y-149585540I0J-150000D01*
G01*
G37*
G36*
G01*
X78312540Y-150855540D02*
X78312540Y-151155540D01*
G75*
G02*
X78162540Y-151305540I-150000J0D01*
G01*
X76712540Y-151305540D01*
G75*
G02*
X76562540Y-151155540I0J150000D01*
G01*
X76562540Y-150855540D01*
G75*
G02*
X76712540Y-150705540I150000J0D01*
G01*
X78162540Y-150705540D01*
G75*
G02*
X78312540Y-150855540I0J-150000D01*
G01*
G37*
G36*
G01*
X78312540Y-152125540D02*
X78312540Y-152425540D01*
G75*
G02*
X78162540Y-152575540I-150000J0D01*
G01*
X76712540Y-152575540D01*
G75*
G02*
X76562540Y-152425540I0J150000D01*
G01*
X76562540Y-152125540D01*
G75*
G02*
X76712540Y-151975540I150000J0D01*
G01*
X78162540Y-151975540D01*
G75*
G02*
X78312540Y-152125540I0J-150000D01*
G01*
G37*
G36*
G01*
X78312540Y-153395540D02*
X78312540Y-153695540D01*
G75*
G02*
X78162540Y-153845540I-150000J0D01*
G01*
X76712540Y-153845540D01*
G75*
G02*
X76562540Y-153695540I0J150000D01*
G01*
X76562540Y-153395540D01*
G75*
G02*
X76712540Y-153245540I150000J0D01*
G01*
X78162540Y-153245540D01*
G75*
G02*
X78312540Y-153395540I0J-150000D01*
G01*
G37*
D19*
X116704980Y-160745300D03*
D20*
X116704980Y-163285300D03*
X119244980Y-160745300D03*
X119244980Y-163285300D03*
X121784980Y-160745300D03*
X121784980Y-163285300D03*
X124324980Y-160745300D03*
X124324980Y-163285300D03*
X126864980Y-160745300D03*
X126864980Y-163285300D03*
G36*
G01*
X190516500Y-69468540D02*
X190991500Y-69468540D01*
G75*
G02*
X191229000Y-69706040I0J-237500D01*
G01*
X191229000Y-70306040D01*
G75*
G02*
X190991500Y-70543540I-237500J0D01*
G01*
X190516500Y-70543540D01*
G75*
G02*
X190279000Y-70306040I0J237500D01*
G01*
X190279000Y-69706040D01*
G75*
G02*
X190516500Y-69468540I237500J0D01*
G01*
G37*
G36*
G01*
X190516500Y-71193540D02*
X190991500Y-71193540D01*
G75*
G02*
X191229000Y-71431040I0J-237500D01*
G01*
X191229000Y-72031040D01*
G75*
G02*
X190991500Y-72268540I-237500J0D01*
G01*
X190516500Y-72268540D01*
G75*
G02*
X190279000Y-72031040I0J237500D01*
G01*
X190279000Y-71431040D01*
G75*
G02*
X190516500Y-71193540I237500J0D01*
G01*
G37*
G36*
G01*
X191245500Y-85021540D02*
X190770500Y-85021540D01*
G75*
G02*
X190533000Y-84784040I0J237500D01*
G01*
X190533000Y-84184040D01*
G75*
G02*
X190770500Y-83946540I237500J0D01*
G01*
X191245500Y-83946540D01*
G75*
G02*
X191483000Y-84184040I0J-237500D01*
G01*
X191483000Y-84784040D01*
G75*
G02*
X191245500Y-85021540I-237500J0D01*
G01*
G37*
G36*
G01*
X191245500Y-86746540D02*
X190770500Y-86746540D01*
G75*
G02*
X190533000Y-86509040I0J237500D01*
G01*
X190533000Y-85909040D01*
G75*
G02*
X190770500Y-85671540I237500J0D01*
G01*
X191245500Y-85671540D01*
G75*
G02*
X191483000Y-85909040I0J-237500D01*
G01*
X191483000Y-86509040D01*
G75*
G02*
X191245500Y-86746540I-237500J0D01*
G01*
G37*
D19*
X175260000Y-91440000D03*
D20*
X175260000Y-88900000D03*
X175260000Y-86360000D03*
X175260000Y-83820000D03*
X175260000Y-81280000D03*
X175260000Y-78740000D03*
X175260000Y-76200000D03*
X175260000Y-73660000D03*
X175260000Y-71120000D03*
X175260000Y-68580000D03*
X175260000Y-66040000D03*
X175260000Y-63500000D03*
G36*
G01*
X195663000Y-75457040D02*
X195663000Y-75932040D01*
G75*
G02*
X195425500Y-76169540I-237500J0D01*
G01*
X194925500Y-76169540D01*
G75*
G02*
X194688000Y-75932040I0J237500D01*
G01*
X194688000Y-75457040D01*
G75*
G02*
X194925500Y-75219540I237500J0D01*
G01*
X195425500Y-75219540D01*
G75*
G02*
X195663000Y-75457040I0J-237500D01*
G01*
G37*
G36*
G01*
X197488000Y-75457040D02*
X197488000Y-75932040D01*
G75*
G02*
X197250500Y-76169540I-237500J0D01*
G01*
X196750500Y-76169540D01*
G75*
G02*
X196513000Y-75932040I0J237500D01*
G01*
X196513000Y-75457040D01*
G75*
G02*
X196750500Y-75219540I237500J0D01*
G01*
X197250500Y-75219540D01*
G75*
G02*
X197488000Y-75457040I0J-237500D01*
G01*
G37*
G36*
G01*
X197488000Y-80537040D02*
X197488000Y-81012040D01*
G75*
G02*
X197250500Y-81249540I-237500J0D01*
G01*
X196750500Y-81249540D01*
G75*
G02*
X196513000Y-81012040I0J237500D01*
G01*
X196513000Y-80537040D01*
G75*
G02*
X196750500Y-80299540I237500J0D01*
G01*
X197250500Y-80299540D01*
G75*
G02*
X197488000Y-80537040I0J-237500D01*
G01*
G37*
G36*
G01*
X195663000Y-80537040D02*
X195663000Y-81012040D01*
G75*
G02*
X195425500Y-81249540I-237500J0D01*
G01*
X194925500Y-81249540D01*
G75*
G02*
X194688000Y-81012040I0J237500D01*
G01*
X194688000Y-80537040D01*
G75*
G02*
X194925500Y-80299540I237500J0D01*
G01*
X195425500Y-80299540D01*
G75*
G02*
X195663000Y-80537040I0J-237500D01*
G01*
G37*
G36*
G01*
X195309500Y-72268540D02*
X194834500Y-72268540D01*
G75*
G02*
X194597000Y-72031040I0J237500D01*
G01*
X194597000Y-71531040D01*
G75*
G02*
X194834500Y-71293540I237500J0D01*
G01*
X195309500Y-71293540D01*
G75*
G02*
X195547000Y-71531040I0J-237500D01*
G01*
X195547000Y-72031040D01*
G75*
G02*
X195309500Y-72268540I-237500J0D01*
G01*
G37*
G36*
G01*
X195309500Y-70443540D02*
X194834500Y-70443540D01*
G75*
G02*
X194597000Y-70206040I0J237500D01*
G01*
X194597000Y-69706040D01*
G75*
G02*
X194834500Y-69468540I237500J0D01*
G01*
X195309500Y-69468540D01*
G75*
G02*
X195547000Y-69706040I0J-237500D01*
G01*
X195547000Y-70206040D01*
G75*
G02*
X195309500Y-70443540I-237500J0D01*
G01*
G37*
G36*
G01*
X194834500Y-85771540D02*
X195309500Y-85771540D01*
G75*
G02*
X195547000Y-86009040I0J-237500D01*
G01*
X195547000Y-86509040D01*
G75*
G02*
X195309500Y-86746540I-237500J0D01*
G01*
X194834500Y-86746540D01*
G75*
G02*
X194597000Y-86509040I0J237500D01*
G01*
X194597000Y-86009040D01*
G75*
G02*
X194834500Y-85771540I237500J0D01*
G01*
G37*
G36*
G01*
X194834500Y-83946540D02*
X195309500Y-83946540D01*
G75*
G02*
X195547000Y-84184040I0J-237500D01*
G01*
X195547000Y-84684040D01*
G75*
G02*
X195309500Y-84921540I-237500J0D01*
G01*
X194834500Y-84921540D01*
G75*
G02*
X194597000Y-84684040I0J237500D01*
G01*
X194597000Y-84184040D01*
G75*
G02*
X194834500Y-83946540I237500J0D01*
G01*
G37*
G36*
G01*
X191941000Y-75932040D02*
X191941000Y-75457040D01*
G75*
G02*
X192178500Y-75219540I237500J0D01*
G01*
X192678500Y-75219540D01*
G75*
G02*
X192916000Y-75457040I0J-237500D01*
G01*
X192916000Y-75932040D01*
G75*
G02*
X192678500Y-76169540I-237500J0D01*
G01*
X192178500Y-76169540D01*
G75*
G02*
X191941000Y-75932040I0J237500D01*
G01*
G37*
G36*
G01*
X190116000Y-75932040D02*
X190116000Y-75457040D01*
G75*
G02*
X190353500Y-75219540I237500J0D01*
G01*
X190853500Y-75219540D01*
G75*
G02*
X191091000Y-75457040I0J-237500D01*
G01*
X191091000Y-75932040D01*
G75*
G02*
X190853500Y-76169540I-237500J0D01*
G01*
X190353500Y-76169540D01*
G75*
G02*
X190116000Y-75932040I0J237500D01*
G01*
G37*
G36*
G01*
X190116000Y-81012040D02*
X190116000Y-80537040D01*
G75*
G02*
X190353500Y-80299540I237500J0D01*
G01*
X190853500Y-80299540D01*
G75*
G02*
X191091000Y-80537040I0J-237500D01*
G01*
X191091000Y-81012040D01*
G75*
G02*
X190853500Y-81249540I-237500J0D01*
G01*
X190353500Y-81249540D01*
G75*
G02*
X190116000Y-81012040I0J237500D01*
G01*
G37*
G36*
G01*
X191941000Y-81012040D02*
X191941000Y-80537040D01*
G75*
G02*
X192178500Y-80299540I237500J0D01*
G01*
X192678500Y-80299540D01*
G75*
G02*
X192916000Y-80537040I0J-237500D01*
G01*
X192916000Y-81012040D01*
G75*
G02*
X192678500Y-81249540I-237500J0D01*
G01*
X192178500Y-81249540D01*
G75*
G02*
X191941000Y-81012040I0J237500D01*
G01*
G37*
D19*
X147320000Y-91440000D03*
D20*
X147320000Y-88900000D03*
X147320000Y-86360000D03*
X147320000Y-83820000D03*
X147320000Y-81280000D03*
X147320000Y-78740000D03*
X147320000Y-76200000D03*
X147320000Y-73660000D03*
X147320000Y-71120000D03*
X147320000Y-68580000D03*
X147320000Y-66040000D03*
X147320000Y-63500000D03*
G36*
G01*
X82677460Y-73298040D02*
X82677460Y-73773040D01*
G75*
G02*
X82439960Y-74010540I-237500J0D01*
G01*
X81939960Y-74010540D01*
G75*
G02*
X81702460Y-73773040I0J237500D01*
G01*
X81702460Y-73298040D01*
G75*
G02*
X81939960Y-73060540I237500J0D01*
G01*
X82439960Y-73060540D01*
G75*
G02*
X82677460Y-73298040I0J-237500D01*
G01*
G37*
G36*
G01*
X80852460Y-73298040D02*
X80852460Y-73773040D01*
G75*
G02*
X80614960Y-74010540I-237500J0D01*
G01*
X80114960Y-74010540D01*
G75*
G02*
X79877460Y-73773040I0J237500D01*
G01*
X79877460Y-73298040D01*
G75*
G02*
X80114960Y-73060540I237500J0D01*
G01*
X80614960Y-73060540D01*
G75*
G02*
X80852460Y-73298040I0J-237500D01*
G01*
G37*
G36*
G01*
X80852460Y-76600040D02*
X80852460Y-77075040D01*
G75*
G02*
X80614960Y-77312540I-237500J0D01*
G01*
X80114960Y-77312540D01*
G75*
G02*
X79877460Y-77075040I0J237500D01*
G01*
X79877460Y-76600040D01*
G75*
G02*
X80114960Y-76362540I237500J0D01*
G01*
X80614960Y-76362540D01*
G75*
G02*
X80852460Y-76600040I0J-237500D01*
G01*
G37*
G36*
G01*
X82677460Y-76600040D02*
X82677460Y-77075040D01*
G75*
G02*
X82439960Y-77312540I-237500J0D01*
G01*
X81939960Y-77312540D01*
G75*
G02*
X81702460Y-77075040I0J237500D01*
G01*
X81702460Y-76600040D01*
G75*
G02*
X81939960Y-76362540I237500J0D01*
G01*
X82439960Y-76362540D01*
G75*
G02*
X82677460Y-76600040I0J-237500D01*
G01*
G37*
D24*
X92453460Y-65661540D03*
X89913460Y-68201540D03*
X87373460Y-65661540D03*
D19*
X157480000Y-73190100D03*
D20*
X154940000Y-73190100D03*
X157480000Y-70650100D03*
X154940000Y-70650100D03*
X157480000Y-68110100D03*
X154940000Y-68110100D03*
X157480000Y-65570100D03*
X154940000Y-65570100D03*
X157480000Y-63030100D03*
X154940000Y-63030100D03*
D23*
X97143060Y-161559240D03*
X99143060Y-160609240D03*
X99143060Y-162509240D03*
X97143060Y-151907240D03*
X99143060Y-150957240D03*
X99143060Y-152857240D03*
X99143060Y-157683240D03*
X99143060Y-155783240D03*
X97143060Y-156733240D03*
X99159060Y-147970240D03*
X99159060Y-146070240D03*
X97159060Y-147020240D03*
G36*
G01*
X104476560Y-162451240D02*
X104001560Y-162451240D01*
G75*
G02*
X103764060Y-162213740I0J237500D01*
G01*
X103764060Y-161713740D01*
G75*
G02*
X104001560Y-161476240I237500J0D01*
G01*
X104476560Y-161476240D01*
G75*
G02*
X104714060Y-161713740I0J-237500D01*
G01*
X104714060Y-162213740D01*
G75*
G02*
X104476560Y-162451240I-237500J0D01*
G01*
G37*
G36*
G01*
X104476560Y-160626240D02*
X104001560Y-160626240D01*
G75*
G02*
X103764060Y-160388740I0J237500D01*
G01*
X103764060Y-159888740D01*
G75*
G02*
X104001560Y-159651240I237500J0D01*
G01*
X104476560Y-159651240D01*
G75*
G02*
X104714060Y-159888740I0J-237500D01*
G01*
X104714060Y-160388740D01*
G75*
G02*
X104476560Y-160626240I-237500J0D01*
G01*
G37*
G36*
G01*
X101555560Y-160499240D02*
X101080560Y-160499240D01*
G75*
G02*
X100843060Y-160261740I0J237500D01*
G01*
X100843060Y-159761740D01*
G75*
G02*
X101080560Y-159524240I237500J0D01*
G01*
X101555560Y-159524240D01*
G75*
G02*
X101793060Y-159761740I0J-237500D01*
G01*
X101793060Y-160261740D01*
G75*
G02*
X101555560Y-160499240I-237500J0D01*
G01*
G37*
G36*
G01*
X101555560Y-162324240D02*
X101080560Y-162324240D01*
G75*
G02*
X100843060Y-162086740I0J237500D01*
G01*
X100843060Y-161586740D01*
G75*
G02*
X101080560Y-161349240I237500J0D01*
G01*
X101555560Y-161349240D01*
G75*
G02*
X101793060Y-161586740I0J-237500D01*
G01*
X101793060Y-162086740D01*
G75*
G02*
X101555560Y-162324240I-237500J0D01*
G01*
G37*
G36*
G01*
X104349560Y-154196240D02*
X103874560Y-154196240D01*
G75*
G02*
X103637060Y-153958740I0J237500D01*
G01*
X103637060Y-153458740D01*
G75*
G02*
X103874560Y-153221240I237500J0D01*
G01*
X104349560Y-153221240D01*
G75*
G02*
X104587060Y-153458740I0J-237500D01*
G01*
X104587060Y-153958740D01*
G75*
G02*
X104349560Y-154196240I-237500J0D01*
G01*
G37*
G36*
G01*
X104349560Y-152371240D02*
X103874560Y-152371240D01*
G75*
G02*
X103637060Y-152133740I0J237500D01*
G01*
X103637060Y-151633740D01*
G75*
G02*
X103874560Y-151396240I237500J0D01*
G01*
X104349560Y-151396240D01*
G75*
G02*
X104587060Y-151633740I0J-237500D01*
G01*
X104587060Y-152133740D01*
G75*
G02*
X104349560Y-152371240I-237500J0D01*
G01*
G37*
G36*
G01*
X101555560Y-150974240D02*
X101080560Y-150974240D01*
G75*
G02*
X100843060Y-150736740I0J237500D01*
G01*
X100843060Y-150236740D01*
G75*
G02*
X101080560Y-149999240I237500J0D01*
G01*
X101555560Y-149999240D01*
G75*
G02*
X101793060Y-150236740I0J-237500D01*
G01*
X101793060Y-150736740D01*
G75*
G02*
X101555560Y-150974240I-237500J0D01*
G01*
G37*
G36*
G01*
X101555560Y-152799240D02*
X101080560Y-152799240D01*
G75*
G02*
X100843060Y-152561740I0J237500D01*
G01*
X100843060Y-152061740D01*
G75*
G02*
X101080560Y-151824240I237500J0D01*
G01*
X101555560Y-151824240D01*
G75*
G02*
X101793060Y-152061740I0J-237500D01*
G01*
X101793060Y-152561740D01*
G75*
G02*
X101555560Y-152799240I-237500J0D01*
G01*
G37*
G36*
G01*
X104349560Y-158768240D02*
X103874560Y-158768240D01*
G75*
G02*
X103637060Y-158530740I0J237500D01*
G01*
X103637060Y-158030740D01*
G75*
G02*
X103874560Y-157793240I237500J0D01*
G01*
X104349560Y-157793240D01*
G75*
G02*
X104587060Y-158030740I0J-237500D01*
G01*
X104587060Y-158530740D01*
G75*
G02*
X104349560Y-158768240I-237500J0D01*
G01*
G37*
G36*
G01*
X104349560Y-156943240D02*
X103874560Y-156943240D01*
G75*
G02*
X103637060Y-156705740I0J237500D01*
G01*
X103637060Y-156205740D01*
G75*
G02*
X103874560Y-155968240I237500J0D01*
G01*
X104349560Y-155968240D01*
G75*
G02*
X104587060Y-156205740I0J-237500D01*
G01*
X104587060Y-156705740D01*
G75*
G02*
X104349560Y-156943240I-237500J0D01*
G01*
G37*
G36*
G01*
X101555560Y-155800240D02*
X101080560Y-155800240D01*
G75*
G02*
X100843060Y-155562740I0J237500D01*
G01*
X100843060Y-155062740D01*
G75*
G02*
X101080560Y-154825240I237500J0D01*
G01*
X101555560Y-154825240D01*
G75*
G02*
X101793060Y-155062740I0J-237500D01*
G01*
X101793060Y-155562740D01*
G75*
G02*
X101555560Y-155800240I-237500J0D01*
G01*
G37*
G36*
G01*
X101555560Y-157625240D02*
X101080560Y-157625240D01*
G75*
G02*
X100843060Y-157387740I0J237500D01*
G01*
X100843060Y-156887740D01*
G75*
G02*
X101080560Y-156650240I237500J0D01*
G01*
X101555560Y-156650240D01*
G75*
G02*
X101793060Y-156887740I0J-237500D01*
G01*
X101793060Y-157387740D01*
G75*
G02*
X101555560Y-157625240I-237500J0D01*
G01*
G37*
G36*
G01*
X104349560Y-149751240D02*
X103874560Y-149751240D01*
G75*
G02*
X103637060Y-149513740I0J237500D01*
G01*
X103637060Y-149013740D01*
G75*
G02*
X103874560Y-148776240I237500J0D01*
G01*
X104349560Y-148776240D01*
G75*
G02*
X104587060Y-149013740I0J-237500D01*
G01*
X104587060Y-149513740D01*
G75*
G02*
X104349560Y-149751240I-237500J0D01*
G01*
G37*
G36*
G01*
X104349560Y-147926240D02*
X103874560Y-147926240D01*
G75*
G02*
X103637060Y-147688740I0J237500D01*
G01*
X103637060Y-147188740D01*
G75*
G02*
X103874560Y-146951240I237500J0D01*
G01*
X104349560Y-146951240D01*
G75*
G02*
X104587060Y-147188740I0J-237500D01*
G01*
X104587060Y-147688740D01*
G75*
G02*
X104349560Y-147926240I-237500J0D01*
G01*
G37*
G36*
G01*
X101555560Y-146529240D02*
X101080560Y-146529240D01*
G75*
G02*
X100843060Y-146291740I0J237500D01*
G01*
X100843060Y-145791740D01*
G75*
G02*
X101080560Y-145554240I237500J0D01*
G01*
X101555560Y-145554240D01*
G75*
G02*
X101793060Y-145791740I0J-237500D01*
G01*
X101793060Y-146291740D01*
G75*
G02*
X101555560Y-146529240I-237500J0D01*
G01*
G37*
G36*
G01*
X101555560Y-148354240D02*
X101080560Y-148354240D01*
G75*
G02*
X100843060Y-148116740I0J237500D01*
G01*
X100843060Y-147616740D01*
G75*
G02*
X101080560Y-147379240I237500J0D01*
G01*
X101555560Y-147379240D01*
G75*
G02*
X101793060Y-147616740I0J-237500D01*
G01*
X101793060Y-148116740D01*
G75*
G02*
X101555560Y-148354240I-237500J0D01*
G01*
G37*
G36*
G01*
X149439000Y-85470600D02*
X149439000Y-84995600D01*
G75*
G02*
X149676500Y-84758100I237500J0D01*
G01*
X150176500Y-84758100D01*
G75*
G02*
X150414000Y-84995600I0J-237500D01*
G01*
X150414000Y-85470600D01*
G75*
G02*
X150176500Y-85708100I-237500J0D01*
G01*
X149676500Y-85708100D01*
G75*
G02*
X149439000Y-85470600I0J237500D01*
G01*
G37*
G36*
G01*
X151264000Y-85470600D02*
X151264000Y-84995600D01*
G75*
G02*
X151501500Y-84758100I237500J0D01*
G01*
X152001500Y-84758100D01*
G75*
G02*
X152239000Y-84995600I0J-237500D01*
G01*
X152239000Y-85470600D01*
G75*
G02*
X152001500Y-85708100I-237500J0D01*
G01*
X151501500Y-85708100D01*
G75*
G02*
X151264000Y-85470600I0J237500D01*
G01*
G37*
G36*
G01*
X151264000Y-82825600D02*
X151264000Y-82350600D01*
G75*
G02*
X151501500Y-82113100I237500J0D01*
G01*
X152001500Y-82113100D01*
G75*
G02*
X152239000Y-82350600I0J-237500D01*
G01*
X152239000Y-82825600D01*
G75*
G02*
X152001500Y-83063100I-237500J0D01*
G01*
X151501500Y-83063100D01*
G75*
G02*
X151264000Y-82825600I0J237500D01*
G01*
G37*
G36*
G01*
X149439000Y-82825600D02*
X149439000Y-82350600D01*
G75*
G02*
X149676500Y-82113100I237500J0D01*
G01*
X150176500Y-82113100D01*
G75*
G02*
X150414000Y-82350600I0J-237500D01*
G01*
X150414000Y-82825600D01*
G75*
G02*
X150176500Y-83063100I-237500J0D01*
G01*
X149676500Y-83063100D01*
G75*
G02*
X149439000Y-82825600I0J237500D01*
G01*
G37*
G36*
G01*
X149439000Y-79650600D02*
X149439000Y-79175600D01*
G75*
G02*
X149676500Y-78938100I237500J0D01*
G01*
X150176500Y-78938100D01*
G75*
G02*
X150414000Y-79175600I0J-237500D01*
G01*
X150414000Y-79650600D01*
G75*
G02*
X150176500Y-79888100I-237500J0D01*
G01*
X149676500Y-79888100D01*
G75*
G02*
X149439000Y-79650600I0J237500D01*
G01*
G37*
G36*
G01*
X151264000Y-79650600D02*
X151264000Y-79175600D01*
G75*
G02*
X151501500Y-78938100I237500J0D01*
G01*
X152001500Y-78938100D01*
G75*
G02*
X152239000Y-79175600I0J-237500D01*
G01*
X152239000Y-79650600D01*
G75*
G02*
X152001500Y-79888100I-237500J0D01*
G01*
X151501500Y-79888100D01*
G75*
G02*
X151264000Y-79650600I0J237500D01*
G01*
G37*
G36*
G01*
X151264000Y-76856600D02*
X151264000Y-76381600D01*
G75*
G02*
X151501500Y-76144100I237500J0D01*
G01*
X152001500Y-76144100D01*
G75*
G02*
X152239000Y-76381600I0J-237500D01*
G01*
X152239000Y-76856600D01*
G75*
G02*
X152001500Y-77094100I-237500J0D01*
G01*
X151501500Y-77094100D01*
G75*
G02*
X151264000Y-76856600I0J237500D01*
G01*
G37*
G36*
G01*
X149439000Y-76856600D02*
X149439000Y-76381600D01*
G75*
G02*
X149676500Y-76144100I237500J0D01*
G01*
X150176500Y-76144100D01*
G75*
G02*
X150414000Y-76381600I0J-237500D01*
G01*
X150414000Y-76856600D01*
G75*
G02*
X150176500Y-77094100I-237500J0D01*
G01*
X149676500Y-77094100D01*
G75*
G02*
X149439000Y-76856600I0J237500D01*
G01*
G37*
G36*
G01*
X149439000Y-73935600D02*
X149439000Y-73460600D01*
G75*
G02*
X149676500Y-73223100I237500J0D01*
G01*
X150176500Y-73223100D01*
G75*
G02*
X150414000Y-73460600I0J-237500D01*
G01*
X150414000Y-73935600D01*
G75*
G02*
X150176500Y-74173100I-237500J0D01*
G01*
X149676500Y-74173100D01*
G75*
G02*
X149439000Y-73935600I0J237500D01*
G01*
G37*
G36*
G01*
X151264000Y-73935600D02*
X151264000Y-73460600D01*
G75*
G02*
X151501500Y-73223100I237500J0D01*
G01*
X152001500Y-73223100D01*
G75*
G02*
X152239000Y-73460600I0J-237500D01*
G01*
X152239000Y-73935600D01*
G75*
G02*
X152001500Y-74173100I-237500J0D01*
G01*
X151501500Y-74173100D01*
G75*
G02*
X151264000Y-73935600I0J237500D01*
G01*
G37*
G36*
G01*
X151264000Y-71395600D02*
X151264000Y-70920600D01*
G75*
G02*
X151501500Y-70683100I237500J0D01*
G01*
X152001500Y-70683100D01*
G75*
G02*
X152239000Y-70920600I0J-237500D01*
G01*
X152239000Y-71395600D01*
G75*
G02*
X152001500Y-71633100I-237500J0D01*
G01*
X151501500Y-71633100D01*
G75*
G02*
X151264000Y-71395600I0J237500D01*
G01*
G37*
G36*
G01*
X149439000Y-71395600D02*
X149439000Y-70920600D01*
G75*
G02*
X149676500Y-70683100I237500J0D01*
G01*
X150176500Y-70683100D01*
G75*
G02*
X150414000Y-70920600I0J-237500D01*
G01*
X150414000Y-71395600D01*
G75*
G02*
X150176500Y-71633100I-237500J0D01*
G01*
X149676500Y-71633100D01*
G75*
G02*
X149439000Y-71395600I0J237500D01*
G01*
G37*
G36*
G01*
X149439000Y-68601600D02*
X149439000Y-68126600D01*
G75*
G02*
X149676500Y-67889100I237500J0D01*
G01*
X150176500Y-67889100D01*
G75*
G02*
X150414000Y-68126600I0J-237500D01*
G01*
X150414000Y-68601600D01*
G75*
G02*
X150176500Y-68839100I-237500J0D01*
G01*
X149676500Y-68839100D01*
G75*
G02*
X149439000Y-68601600I0J237500D01*
G01*
G37*
G36*
G01*
X151264000Y-68601600D02*
X151264000Y-68126600D01*
G75*
G02*
X151501500Y-67889100I237500J0D01*
G01*
X152001500Y-67889100D01*
G75*
G02*
X152239000Y-68126600I0J-237500D01*
G01*
X152239000Y-68601600D01*
G75*
G02*
X152001500Y-68839100I-237500J0D01*
G01*
X151501500Y-68839100D01*
G75*
G02*
X151264000Y-68601600I0J237500D01*
G01*
G37*
G36*
G01*
X151264000Y-65720600D02*
X151264000Y-65245600D01*
G75*
G02*
X151501500Y-65008100I237500J0D01*
G01*
X152001500Y-65008100D01*
G75*
G02*
X152239000Y-65245600I0J-237500D01*
G01*
X152239000Y-65720600D01*
G75*
G02*
X152001500Y-65958100I-237500J0D01*
G01*
X151501500Y-65958100D01*
G75*
G02*
X151264000Y-65720600I0J237500D01*
G01*
G37*
G36*
G01*
X149439000Y-65720600D02*
X149439000Y-65245600D01*
G75*
G02*
X149676500Y-65008100I237500J0D01*
G01*
X150176500Y-65008100D01*
G75*
G02*
X150414000Y-65245600I0J-237500D01*
G01*
X150414000Y-65720600D01*
G75*
G02*
X150176500Y-65958100I-237500J0D01*
G01*
X149676500Y-65958100D01*
G75*
G02*
X149439000Y-65720600I0J237500D01*
G01*
G37*
G36*
G01*
X138578620Y-80003320D02*
X138578620Y-80478320D01*
G75*
G02*
X138341120Y-80715820I-237500J0D01*
G01*
X137741120Y-80715820D01*
G75*
G02*
X137503620Y-80478320I0J237500D01*
G01*
X137503620Y-80003320D01*
G75*
G02*
X137741120Y-79765820I237500J0D01*
G01*
X138341120Y-79765820D01*
G75*
G02*
X138578620Y-80003320I0J-237500D01*
G01*
G37*
G36*
G01*
X136853620Y-80003320D02*
X136853620Y-80478320D01*
G75*
G02*
X136616120Y-80715820I-237500J0D01*
G01*
X136016120Y-80715820D01*
G75*
G02*
X135778620Y-80478320I0J237500D01*
G01*
X135778620Y-80003320D01*
G75*
G02*
X136016120Y-79765820I237500J0D01*
G01*
X136616120Y-79765820D01*
G75*
G02*
X136853620Y-80003320I0J-237500D01*
G01*
G37*
G36*
G01*
X129041120Y-83165820D02*
X129516120Y-83165820D01*
G75*
G02*
X129753620Y-83403320I0J-237500D01*
G01*
X129753620Y-84003320D01*
G75*
G02*
X129516120Y-84240820I-237500J0D01*
G01*
X129041120Y-84240820D01*
G75*
G02*
X128803620Y-84003320I0J237500D01*
G01*
X128803620Y-83403320D01*
G75*
G02*
X129041120Y-83165820I237500J0D01*
G01*
G37*
G36*
G01*
X129041120Y-81440820D02*
X129516120Y-81440820D01*
G75*
G02*
X129753620Y-81678320I0J-237500D01*
G01*
X129753620Y-82278320D01*
G75*
G02*
X129516120Y-82515820I-237500J0D01*
G01*
X129041120Y-82515820D01*
G75*
G02*
X128803620Y-82278320I0J237500D01*
G01*
X128803620Y-81678320D01*
G75*
G02*
X129041120Y-81440820I237500J0D01*
G01*
G37*
G36*
G01*
X130041120Y-74165820D02*
X130516120Y-74165820D01*
G75*
G02*
X130753620Y-74403320I0J-237500D01*
G01*
X130753620Y-75003320D01*
G75*
G02*
X130516120Y-75240820I-237500J0D01*
G01*
X130041120Y-75240820D01*
G75*
G02*
X129803620Y-75003320I0J237500D01*
G01*
X129803620Y-74403320D01*
G75*
G02*
X130041120Y-74165820I237500J0D01*
G01*
G37*
G36*
G01*
X130041120Y-72440820D02*
X130516120Y-72440820D01*
G75*
G02*
X130753620Y-72678320I0J-237500D01*
G01*
X130753620Y-73278320D01*
G75*
G02*
X130516120Y-73515820I-237500J0D01*
G01*
X130041120Y-73515820D01*
G75*
G02*
X129803620Y-73278320I0J237500D01*
G01*
X129803620Y-72678320D01*
G75*
G02*
X130041120Y-72440820I237500J0D01*
G01*
G37*
G36*
G01*
X129241120Y-87940820D02*
X129716120Y-87940820D01*
G75*
G02*
X129953620Y-88178320I0J-237500D01*
G01*
X129953620Y-88778320D01*
G75*
G02*
X129716120Y-89015820I-237500J0D01*
G01*
X129241120Y-89015820D01*
G75*
G02*
X129003620Y-88778320I0J237500D01*
G01*
X129003620Y-88178320D01*
G75*
G02*
X129241120Y-87940820I237500J0D01*
G01*
G37*
G36*
G01*
X129241120Y-89665820D02*
X129716120Y-89665820D01*
G75*
G02*
X129953620Y-89903320I0J-237500D01*
G01*
X129953620Y-90503320D01*
G75*
G02*
X129716120Y-90740820I-237500J0D01*
G01*
X129241120Y-90740820D01*
G75*
G02*
X129003620Y-90503320I0J237500D01*
G01*
X129003620Y-89903320D01*
G75*
G02*
X129241120Y-89665820I237500J0D01*
G01*
G37*
G36*
G01*
X135928621Y-78340820D02*
X135028619Y-78340820D01*
G75*
G02*
X134778620Y-78090821I0J249999D01*
G01*
X134778620Y-77440819D01*
G75*
G02*
X135028619Y-77190820I249999J0D01*
G01*
X135928621Y-77190820D01*
G75*
G02*
X136178620Y-77440819I0J-249999D01*
G01*
X136178620Y-78090821D01*
G75*
G02*
X135928621Y-78340820I-249999J0D01*
G01*
G37*
G36*
G01*
X135928621Y-76290820D02*
X135028619Y-76290820D01*
G75*
G02*
X134778620Y-76040821I0J249999D01*
G01*
X134778620Y-75390819D01*
G75*
G02*
X135028619Y-75140820I249999J0D01*
G01*
X135928621Y-75140820D01*
G75*
G02*
X136178620Y-75390819I0J-249999D01*
G01*
X136178620Y-76040821D01*
G75*
G02*
X135928621Y-76290820I-249999J0D01*
G01*
G37*
G36*
G01*
X138528619Y-77290820D02*
X139428621Y-77290820D01*
G75*
G02*
X139678620Y-77540819I0J-249999D01*
G01*
X139678620Y-78190821D01*
G75*
G02*
X139428621Y-78440820I-249999J0D01*
G01*
X138528619Y-78440820D01*
G75*
G02*
X138278620Y-78190821I0J249999D01*
G01*
X138278620Y-77540819D01*
G75*
G02*
X138528619Y-77290820I249999J0D01*
G01*
G37*
G36*
G01*
X138528619Y-75240820D02*
X139428621Y-75240820D01*
G75*
G02*
X139678620Y-75490819I0J-249999D01*
G01*
X139678620Y-76140821D01*
G75*
G02*
X139428621Y-76390820I-249999J0D01*
G01*
X138528619Y-76390820D01*
G75*
G02*
X138278620Y-76140821I0J249999D01*
G01*
X138278620Y-75490819D01*
G75*
G02*
X138528619Y-75240820I249999J0D01*
G01*
G37*
G36*
G01*
X130853620Y-92678320D02*
X130853620Y-92203320D01*
G75*
G02*
X131091120Y-91965820I237500J0D01*
G01*
X131591120Y-91965820D01*
G75*
G02*
X131828620Y-92203320I0J-237500D01*
G01*
X131828620Y-92678320D01*
G75*
G02*
X131591120Y-92915820I-237500J0D01*
G01*
X131091120Y-92915820D01*
G75*
G02*
X130853620Y-92678320I0J237500D01*
G01*
G37*
G36*
G01*
X129028620Y-92678320D02*
X129028620Y-92203320D01*
G75*
G02*
X129266120Y-91965820I237500J0D01*
G01*
X129766120Y-91965820D01*
G75*
G02*
X130003620Y-92203320I0J-237500D01*
G01*
X130003620Y-92678320D01*
G75*
G02*
X129766120Y-92915820I-237500J0D01*
G01*
X129266120Y-92915820D01*
G75*
G02*
X129028620Y-92678320I0J237500D01*
G01*
G37*
G36*
G01*
X131828620Y-86303320D02*
X131828620Y-86778320D01*
G75*
G02*
X131591120Y-87015820I-237500J0D01*
G01*
X131091120Y-87015820D01*
G75*
G02*
X130853620Y-86778320I0J237500D01*
G01*
X130853620Y-86303320D01*
G75*
G02*
X131091120Y-86065820I237500J0D01*
G01*
X131591120Y-86065820D01*
G75*
G02*
X131828620Y-86303320I0J-237500D01*
G01*
G37*
G36*
G01*
X130003620Y-86303320D02*
X130003620Y-86778320D01*
G75*
G02*
X129766120Y-87015820I-237500J0D01*
G01*
X129266120Y-87015820D01*
G75*
G02*
X129028620Y-86778320I0J237500D01*
G01*
X129028620Y-86303320D01*
G75*
G02*
X129266120Y-86065820I237500J0D01*
G01*
X129766120Y-86065820D01*
G75*
G02*
X130003620Y-86303320I0J-237500D01*
G01*
G37*
D20*
X135838620Y-89840820D03*
D19*
X138378620Y-89840820D03*
X82277460Y-63257540D03*
D20*
X79737460Y-63257540D03*
D19*
X125730000Y-91440000D03*
D20*
X125730000Y-88900000D03*
X125730000Y-86360000D03*
X125730000Y-83820000D03*
X125730000Y-81280000D03*
X125730000Y-78740000D03*
X125730000Y-76200000D03*
X125730000Y-73660000D03*
X125730000Y-71120000D03*
X125730000Y-68580000D03*
X125730000Y-66040000D03*
X125730000Y-63500000D03*
G36*
G01*
X138241120Y-84940820D02*
X138716120Y-84940820D01*
G75*
G02*
X138953620Y-85178320I0J-237500D01*
G01*
X138953620Y-85678320D01*
G75*
G02*
X138716120Y-85915820I-237500J0D01*
G01*
X138241120Y-85915820D01*
G75*
G02*
X138003620Y-85678320I0J237500D01*
G01*
X138003620Y-85178320D01*
G75*
G02*
X138241120Y-84940820I237500J0D01*
G01*
G37*
G36*
G01*
X138241120Y-86765820D02*
X138716120Y-86765820D01*
G75*
G02*
X138953620Y-87003320I0J-237500D01*
G01*
X138953620Y-87503320D01*
G75*
G02*
X138716120Y-87740820I-237500J0D01*
G01*
X138241120Y-87740820D01*
G75*
G02*
X138003620Y-87503320I0J237500D01*
G01*
X138003620Y-87003320D01*
G75*
G02*
X138241120Y-86765820I237500J0D01*
G01*
G37*
G36*
G01*
X136116120Y-85915820D02*
X135641120Y-85915820D01*
G75*
G02*
X135403620Y-85678320I0J237500D01*
G01*
X135403620Y-85178320D01*
G75*
G02*
X135641120Y-84940820I237500J0D01*
G01*
X136116120Y-84940820D01*
G75*
G02*
X136353620Y-85178320I0J-237500D01*
G01*
X136353620Y-85678320D01*
G75*
G02*
X136116120Y-85915820I-237500J0D01*
G01*
G37*
G36*
G01*
X136116120Y-87740820D02*
X135641120Y-87740820D01*
G75*
G02*
X135403620Y-87503320I0J237500D01*
G01*
X135403620Y-87003320D01*
G75*
G02*
X135641120Y-86765820I237500J0D01*
G01*
X136116120Y-86765820D01*
G75*
G02*
X136353620Y-87003320I0J-237500D01*
G01*
X136353620Y-87503320D01*
G75*
G02*
X136116120Y-87740820I-237500J0D01*
G01*
G37*
G36*
G01*
X139541120Y-80740820D02*
X140016120Y-80740820D01*
G75*
G02*
X140253620Y-80978320I0J-237500D01*
G01*
X140253620Y-81478320D01*
G75*
G02*
X140016120Y-81715820I-237500J0D01*
G01*
X139541120Y-81715820D01*
G75*
G02*
X139303620Y-81478320I0J237500D01*
G01*
X139303620Y-80978320D01*
G75*
G02*
X139541120Y-80740820I237500J0D01*
G01*
G37*
G36*
G01*
X139541120Y-82565820D02*
X140016120Y-82565820D01*
G75*
G02*
X140253620Y-82803320I0J-237500D01*
G01*
X140253620Y-83303320D01*
G75*
G02*
X140016120Y-83540820I-237500J0D01*
G01*
X139541120Y-83540820D01*
G75*
G02*
X139303620Y-83303320I0J237500D01*
G01*
X139303620Y-82803320D01*
G75*
G02*
X139541120Y-82565820I237500J0D01*
G01*
G37*
G36*
G01*
X134116120Y-82515820D02*
X133641120Y-82515820D01*
G75*
G02*
X133403620Y-82278320I0J237500D01*
G01*
X133403620Y-81778320D01*
G75*
G02*
X133641120Y-81540820I237500J0D01*
G01*
X134116120Y-81540820D01*
G75*
G02*
X134353620Y-81778320I0J-237500D01*
G01*
X134353620Y-82278320D01*
G75*
G02*
X134116120Y-82515820I-237500J0D01*
G01*
G37*
G36*
G01*
X134116120Y-84340820D02*
X133641120Y-84340820D01*
G75*
G02*
X133403620Y-84103320I0J237500D01*
G01*
X133403620Y-83603320D01*
G75*
G02*
X133641120Y-83365820I237500J0D01*
G01*
X134116120Y-83365820D01*
G75*
G02*
X134353620Y-83603320I0J-237500D01*
G01*
X134353620Y-84103320D01*
G75*
G02*
X134116120Y-84340820I-237500J0D01*
G01*
G37*
G36*
G01*
X140916120Y-64115820D02*
X140441120Y-64115820D01*
G75*
G02*
X140203620Y-63878320I0J237500D01*
G01*
X140203620Y-63378320D01*
G75*
G02*
X140441120Y-63140820I237500J0D01*
G01*
X140916120Y-63140820D01*
G75*
G02*
X141153620Y-63378320I0J-237500D01*
G01*
X141153620Y-63878320D01*
G75*
G02*
X140916120Y-64115820I-237500J0D01*
G01*
G37*
G36*
G01*
X140916120Y-65940820D02*
X140441120Y-65940820D01*
G75*
G02*
X140203620Y-65703320I0J237500D01*
G01*
X140203620Y-65203320D01*
G75*
G02*
X140441120Y-64965820I237500J0D01*
G01*
X140916120Y-64965820D01*
G75*
G02*
X141153620Y-65203320I0J-237500D01*
G01*
X141153620Y-65703320D01*
G75*
G02*
X140916120Y-65940820I-237500J0D01*
G01*
G37*
G36*
G01*
X133041120Y-63140820D02*
X133516120Y-63140820D01*
G75*
G02*
X133753620Y-63378320I0J-237500D01*
G01*
X133753620Y-63878320D01*
G75*
G02*
X133516120Y-64115820I-237500J0D01*
G01*
X133041120Y-64115820D01*
G75*
G02*
X132803620Y-63878320I0J237500D01*
G01*
X132803620Y-63378320D01*
G75*
G02*
X133041120Y-63140820I237500J0D01*
G01*
G37*
G36*
G01*
X133041120Y-64965820D02*
X133516120Y-64965820D01*
G75*
G02*
X133753620Y-65203320I0J-237500D01*
G01*
X133753620Y-65703320D01*
G75*
G02*
X133516120Y-65940820I-237500J0D01*
G01*
X133041120Y-65940820D01*
G75*
G02*
X132803620Y-65703320I0J237500D01*
G01*
X132803620Y-65203320D01*
G75*
G02*
X133041120Y-64965820I237500J0D01*
G01*
G37*
G36*
G01*
X129741120Y-63040820D02*
X130216120Y-63040820D01*
G75*
G02*
X130453620Y-63278320I0J-237500D01*
G01*
X130453620Y-63778320D01*
G75*
G02*
X130216120Y-64015820I-237500J0D01*
G01*
X129741120Y-64015820D01*
G75*
G02*
X129503620Y-63778320I0J237500D01*
G01*
X129503620Y-63278320D01*
G75*
G02*
X129741120Y-63040820I237500J0D01*
G01*
G37*
G36*
G01*
X129741120Y-64865820D02*
X130216120Y-64865820D01*
G75*
G02*
X130453620Y-65103320I0J-237500D01*
G01*
X130453620Y-65603320D01*
G75*
G02*
X130216120Y-65840820I-237500J0D01*
G01*
X129741120Y-65840820D01*
G75*
G02*
X129503620Y-65603320I0J237500D01*
G01*
X129503620Y-65103320D01*
G75*
G02*
X129741120Y-64865820I237500J0D01*
G01*
G37*
G36*
G01*
X136441120Y-64965820D02*
X136916120Y-64965820D01*
G75*
G02*
X137153620Y-65203320I0J-237500D01*
G01*
X137153620Y-65703320D01*
G75*
G02*
X136916120Y-65940820I-237500J0D01*
G01*
X136441120Y-65940820D01*
G75*
G02*
X136203620Y-65703320I0J237500D01*
G01*
X136203620Y-65203320D01*
G75*
G02*
X136441120Y-64965820I237500J0D01*
G01*
G37*
G36*
G01*
X136441120Y-63140820D02*
X136916120Y-63140820D01*
G75*
G02*
X137153620Y-63378320I0J-237500D01*
G01*
X137153620Y-63878320D01*
G75*
G02*
X136916120Y-64115820I-237500J0D01*
G01*
X136441120Y-64115820D01*
G75*
G02*
X136203620Y-63878320I0J237500D01*
G01*
X136203620Y-63378320D01*
G75*
G02*
X136441120Y-63140820I237500J0D01*
G01*
G37*
D25*
X129028620Y-79750820D03*
X129978620Y-79750820D03*
X130928620Y-79750820D03*
X130928620Y-77130820D03*
X129028620Y-77130820D03*
D26*
X137128620Y-69340820D03*
X137128620Y-68840820D03*
X137128620Y-68340820D03*
X137128620Y-67840820D03*
X137128620Y-67340820D03*
X132828620Y-67340820D03*
X132828620Y-67840820D03*
X132828620Y-68340820D03*
X132828620Y-68840820D03*
X132828620Y-69340820D03*
D19*
X100102461Y-63257540D03*
D20*
X100102461Y-65797540D03*
X97562461Y-63257540D03*
X97562461Y-65797540D03*
G36*
G01*
X138216120Y-84340820D02*
X137741120Y-84340820D01*
G75*
G02*
X137503620Y-84103320I0J237500D01*
G01*
X137503620Y-83603320D01*
G75*
G02*
X137741120Y-83365820I237500J0D01*
G01*
X138216120Y-83365820D01*
G75*
G02*
X138453620Y-83603320I0J-237500D01*
G01*
X138453620Y-84103320D01*
G75*
G02*
X138216120Y-84340820I-237500J0D01*
G01*
G37*
G36*
G01*
X138216120Y-82515820D02*
X137741120Y-82515820D01*
G75*
G02*
X137503620Y-82278320I0J237500D01*
G01*
X137503620Y-81778320D01*
G75*
G02*
X137741120Y-81540820I237500J0D01*
G01*
X138216120Y-81540820D01*
G75*
G02*
X138453620Y-81778320I0J-237500D01*
G01*
X138453620Y-82278320D01*
G75*
G02*
X138216120Y-82515820I-237500J0D01*
G01*
G37*
G36*
G01*
X135916120Y-82515820D02*
X135441120Y-82515820D01*
G75*
G02*
X135203620Y-82278320I0J237500D01*
G01*
X135203620Y-81778320D01*
G75*
G02*
X135441120Y-81540820I237500J0D01*
G01*
X135916120Y-81540820D01*
G75*
G02*
X136153620Y-81778320I0J-237500D01*
G01*
X136153620Y-82278320D01*
G75*
G02*
X135916120Y-82515820I-237500J0D01*
G01*
G37*
G36*
G01*
X135916120Y-84340820D02*
X135441120Y-84340820D01*
G75*
G02*
X135203620Y-84103320I0J237500D01*
G01*
X135203620Y-83603320D01*
G75*
G02*
X135441120Y-83365820I237500J0D01*
G01*
X135916120Y-83365820D01*
G75*
G02*
X136153620Y-83603320I0J-237500D01*
G01*
X136153620Y-84103320D01*
G75*
G02*
X135916120Y-84340820I-237500J0D01*
G01*
G37*
D27*
X117850000Y-150240000D03*
D28*
X119882000Y-150240000D03*
X121914000Y-150240000D03*
X123946000Y-150240000D03*
X118866000Y-152020000D03*
X120898000Y-152020000D03*
X122930000Y-152020000D03*
X124962000Y-152020000D03*
D29*
X115060000Y-147700000D03*
X127760000Y-147700000D03*
D30*
X129540000Y-151130000D03*
X113280000Y-151130000D03*
D28*
X114550000Y-156840000D03*
X116840000Y-156840000D03*
X125980000Y-156840000D03*
X128270000Y-156840000D03*
D19*
X161839000Y-65733100D03*
D20*
X161839000Y-63193100D03*
D19*
X213210000Y-66024540D03*
D20*
X213210000Y-63484540D03*
X213210000Y-91064540D03*
D19*
X213210000Y-88524540D03*
M02*
