G04 #@! TF.GenerationSoftware,KiCad,Pcbnew,(5.1.9)-1*
G04 #@! TF.CreationDate,2021-03-12T17:13:45-06:00*
G04 #@! TF.ProjectId,Torch Module,546f7263-6820-44d6-9f64-756c652e6b69,rev?*
G04 #@! TF.SameCoordinates,Original*
G04 #@! TF.FileFunction,Copper,L1,Top*
G04 #@! TF.FilePolarity,Positive*
%FSLAX46Y46*%
G04 Gerber Fmt 4.6, Leading zero omitted, Abs format (unit mm)*
G04 Created by KiCad (PCBNEW (5.1.9)-1) date 2021-03-12 17:13:45*
%MOMM*%
%LPD*%
G01*
G04 APERTURE LIST*
G04 #@! TA.AperFunction,ComponentPad*
%ADD10C,1.650000*%
G04 #@! TD*
G04 #@! TA.AperFunction,ComponentPad*
%ADD11C,2.430000*%
G04 #@! TD*
G04 #@! TA.AperFunction,ComponentPad*
%ADD12C,1.462000*%
G04 #@! TD*
G04 #@! TA.AperFunction,ComponentPad*
%ADD13R,1.462000X1.462000*%
G04 #@! TD*
G04 #@! TA.AperFunction,ComponentPad*
%ADD14C,1.524000*%
G04 #@! TD*
G04 #@! TA.AperFunction,ComponentPad*
%ADD15O,2.000000X1.200000*%
G04 #@! TD*
G04 #@! TA.AperFunction,ComponentPad*
%ADD16R,2.000000X1.200000*%
G04 #@! TD*
G04 #@! TA.AperFunction,SMDPad,CuDef*
%ADD17R,1.200000X0.900000*%
G04 #@! TD*
G04 #@! TA.AperFunction,ComponentPad*
%ADD18R,1.700000X1.700000*%
G04 #@! TD*
G04 #@! TA.AperFunction,ComponentPad*
%ADD19O,1.700000X1.700000*%
G04 #@! TD*
G04 #@! TA.AperFunction,ComponentPad*
%ADD20R,1.501140X1.501140*%
G04 #@! TD*
G04 #@! TA.AperFunction,ComponentPad*
%ADD21C,1.501140*%
G04 #@! TD*
G04 #@! TA.AperFunction,SMDPad,CuDef*
%ADD22R,0.900000X0.800000*%
G04 #@! TD*
G04 #@! TA.AperFunction,ComponentPad*
%ADD23C,1.440000*%
G04 #@! TD*
G04 #@! TA.AperFunction,SMDPad,CuDef*
%ADD24R,0.650000X1.220000*%
G04 #@! TD*
G04 #@! TA.AperFunction,SMDPad,CuDef*
%ADD25R,1.100000X0.250000*%
G04 #@! TD*
G04 #@! TA.AperFunction,ComponentPad*
%ADD26R,1.500000X1.500000*%
G04 #@! TD*
G04 #@! TA.AperFunction,ComponentPad*
%ADD27C,1.500000*%
G04 #@! TD*
G04 #@! TA.AperFunction,ComponentPad*
%ADD28C,2.300000*%
G04 #@! TD*
G04 #@! TA.AperFunction,ViaPad*
%ADD29C,0.800000*%
G04 #@! TD*
G04 #@! TA.AperFunction,ViaPad*
%ADD30C,0.762000*%
G04 #@! TD*
G04 #@! TA.AperFunction,ViaPad*
%ADD31C,1.016000*%
G04 #@! TD*
G04 #@! TA.AperFunction,Conductor*
%ADD32C,0.508000*%
G04 #@! TD*
G04 #@! TA.AperFunction,Conductor*
%ADD33C,0.762000*%
G04 #@! TD*
G04 #@! TA.AperFunction,Conductor*
%ADD34C,0.254000*%
G04 #@! TD*
G04 #@! TA.AperFunction,Conductor*
%ADD35C,0.250000*%
G04 #@! TD*
G04 APERTURE END LIST*
D10*
X102742000Y-83572000D03*
X102742000Y-70872000D03*
D11*
X106982000Y-85352000D03*
X106982000Y-69092000D03*
D12*
X108582000Y-70362000D03*
X108582000Y-72652000D03*
X108582000Y-81792000D03*
X108582000Y-84082000D03*
X103632000Y-73652000D03*
X106172000Y-74672000D03*
X103632000Y-75692000D03*
X106172000Y-76712000D03*
X103632000Y-77732000D03*
X106172000Y-78752000D03*
X103632000Y-79772000D03*
D13*
X106172000Y-80792000D03*
X204598000Y-81294000D03*
D12*
X202058000Y-80274000D03*
X204598000Y-79254000D03*
X202058000Y-78234000D03*
X204598000Y-77214000D03*
X202058000Y-76194000D03*
X204598000Y-75174000D03*
X202058000Y-74154000D03*
X207008000Y-84584000D03*
X207008000Y-82294000D03*
X207008000Y-73154000D03*
X207008000Y-70864000D03*
D11*
X205408000Y-69594000D03*
X205408000Y-85854000D03*
D10*
X201168000Y-71374000D03*
X201168000Y-84074000D03*
X155828000Y-90168000D03*
X155828000Y-77468000D03*
D11*
X160068000Y-91948000D03*
X160068000Y-75688000D03*
D12*
X161668000Y-76958000D03*
X161668000Y-79248000D03*
X161668000Y-88388000D03*
X161668000Y-90678000D03*
X156718000Y-80248000D03*
X159258000Y-81268000D03*
X156718000Y-82288000D03*
X159258000Y-83308000D03*
X156718000Y-84328000D03*
X159258000Y-85348000D03*
X156718000Y-86368000D03*
D13*
X159258000Y-87388000D03*
D14*
X104140000Y-163830000D03*
X101600000Y-163830000D03*
D15*
X106680000Y-146050000D03*
X93980000Y-146050000D03*
X106680000Y-148590000D03*
X93980000Y-148590000D03*
X106680000Y-151130000D03*
X93980000Y-151130000D03*
X106680000Y-153670000D03*
X93980000Y-153670000D03*
X106680000Y-156210000D03*
X93980000Y-156210000D03*
X106680000Y-158750000D03*
X93980000Y-158750000D03*
X106680000Y-161290000D03*
X93980000Y-161290000D03*
D16*
X106680000Y-163830000D03*
D15*
X93980000Y-163830000D03*
D14*
X83820000Y-163830000D03*
X81280000Y-163830000D03*
D15*
X86360000Y-146050000D03*
X73660000Y-146050000D03*
X86360000Y-148590000D03*
X73660000Y-148590000D03*
X86360000Y-151130000D03*
X73660000Y-151130000D03*
X86360000Y-153670000D03*
X73660000Y-153670000D03*
X86360000Y-156210000D03*
X73660000Y-156210000D03*
X86360000Y-158750000D03*
X73660000Y-158750000D03*
X86360000Y-161290000D03*
X73660000Y-161290000D03*
D16*
X86360000Y-163830000D03*
D15*
X73660000Y-163830000D03*
G04 #@! TA.AperFunction,SMDPad,CuDef*
G36*
G01*
X85979460Y-73298040D02*
X85979460Y-73773040D01*
G75*
G02*
X85741960Y-74010540I-237500J0D01*
G01*
X85241960Y-74010540D01*
G75*
G02*
X85004460Y-73773040I0J237500D01*
G01*
X85004460Y-73298040D01*
G75*
G02*
X85241960Y-73060540I237500J0D01*
G01*
X85741960Y-73060540D01*
G75*
G02*
X85979460Y-73298040I0J-237500D01*
G01*
G37*
G04 #@! TD.AperFunction*
G04 #@! TA.AperFunction,SMDPad,CuDef*
G36*
G01*
X84154460Y-73298040D02*
X84154460Y-73773040D01*
G75*
G02*
X83916960Y-74010540I-237500J0D01*
G01*
X83416960Y-74010540D01*
G75*
G02*
X83179460Y-73773040I0J237500D01*
G01*
X83179460Y-73298040D01*
G75*
G02*
X83416960Y-73060540I237500J0D01*
G01*
X83916960Y-73060540D01*
G75*
G02*
X84154460Y-73298040I0J-237500D01*
G01*
G37*
G04 #@! TD.AperFunction*
G04 #@! TA.AperFunction,SMDPad,CuDef*
G36*
G01*
X80899460Y-70504040D02*
X80899460Y-70979040D01*
G75*
G02*
X80661960Y-71216540I-237500J0D01*
G01*
X80061960Y-71216540D01*
G75*
G02*
X79824460Y-70979040I0J237500D01*
G01*
X79824460Y-70504040D01*
G75*
G02*
X80061960Y-70266540I237500J0D01*
G01*
X80661960Y-70266540D01*
G75*
G02*
X80899460Y-70504040I0J-237500D01*
G01*
G37*
G04 #@! TD.AperFunction*
G04 #@! TA.AperFunction,SMDPad,CuDef*
G36*
G01*
X79174460Y-70504040D02*
X79174460Y-70979040D01*
G75*
G02*
X78936960Y-71216540I-237500J0D01*
G01*
X78336960Y-71216540D01*
G75*
G02*
X78099460Y-70979040I0J237500D01*
G01*
X78099460Y-70504040D01*
G75*
G02*
X78336960Y-70266540I237500J0D01*
G01*
X78936960Y-70266540D01*
G75*
G02*
X79174460Y-70504040I0J-237500D01*
G01*
G37*
G04 #@! TD.AperFunction*
G04 #@! TA.AperFunction,SMDPad,CuDef*
G36*
G01*
X84254460Y-70504040D02*
X84254460Y-70979040D01*
G75*
G02*
X84016960Y-71216540I-237500J0D01*
G01*
X83416960Y-71216540D01*
G75*
G02*
X83179460Y-70979040I0J237500D01*
G01*
X83179460Y-70504040D01*
G75*
G02*
X83416960Y-70266540I237500J0D01*
G01*
X84016960Y-70266540D01*
G75*
G02*
X84254460Y-70504040I0J-237500D01*
G01*
G37*
G04 #@! TD.AperFunction*
G04 #@! TA.AperFunction,SMDPad,CuDef*
G36*
G01*
X85979460Y-70504040D02*
X85979460Y-70979040D01*
G75*
G02*
X85741960Y-71216540I-237500J0D01*
G01*
X85141960Y-71216540D01*
G75*
G02*
X84904460Y-70979040I0J237500D01*
G01*
X84904460Y-70504040D01*
G75*
G02*
X85141960Y-70266540I237500J0D01*
G01*
X85741960Y-70266540D01*
G75*
G02*
X85979460Y-70504040I0J-237500D01*
G01*
G37*
G04 #@! TD.AperFunction*
D17*
X83817460Y-82172540D03*
X83817460Y-85472540D03*
D18*
X74930000Y-91440000D03*
D19*
X74930000Y-88900000D03*
X74930000Y-86360000D03*
X74930000Y-83820000D03*
X74930000Y-81280000D03*
X74930000Y-78740000D03*
X74930000Y-76200000D03*
X74930000Y-73660000D03*
X74930000Y-71120000D03*
X74930000Y-68580000D03*
X74930000Y-66040000D03*
X74930000Y-63500000D03*
D20*
X89532460Y-78742540D03*
D21*
X97152460Y-78742540D03*
X97152460Y-83822540D03*
X89532460Y-91442540D03*
X97152460Y-91442540D03*
D22*
X84849460Y-88765340D03*
X84849460Y-90665340D03*
X86849460Y-89715340D03*
G04 #@! TA.AperFunction,SMDPad,CuDef*
G36*
G01*
X97920000Y-70882500D02*
X97920000Y-71357500D01*
G75*
G02*
X97682500Y-71595000I-237500J0D01*
G01*
X97182500Y-71595000D01*
G75*
G02*
X96945000Y-71357500I0J237500D01*
G01*
X96945000Y-70882500D01*
G75*
G02*
X97182500Y-70645000I237500J0D01*
G01*
X97682500Y-70645000D01*
G75*
G02*
X97920000Y-70882500I0J-237500D01*
G01*
G37*
G04 #@! TD.AperFunction*
G04 #@! TA.AperFunction,SMDPad,CuDef*
G36*
G01*
X96095000Y-70882500D02*
X96095000Y-71357500D01*
G75*
G02*
X95857500Y-71595000I-237500J0D01*
G01*
X95357500Y-71595000D01*
G75*
G02*
X95120000Y-71357500I0J237500D01*
G01*
X95120000Y-70882500D01*
G75*
G02*
X95357500Y-70645000I237500J0D01*
G01*
X95857500Y-70645000D01*
G75*
G02*
X96095000Y-70882500I0J-237500D01*
G01*
G37*
G04 #@! TD.AperFunction*
G04 #@! TA.AperFunction,SMDPad,CuDef*
G36*
G01*
X83539960Y-65607540D02*
X84014960Y-65607540D01*
G75*
G02*
X84252460Y-65845040I0J-237500D01*
G01*
X84252460Y-66345040D01*
G75*
G02*
X84014960Y-66582540I-237500J0D01*
G01*
X83539960Y-66582540D01*
G75*
G02*
X83302460Y-66345040I0J237500D01*
G01*
X83302460Y-65845040D01*
G75*
G02*
X83539960Y-65607540I237500J0D01*
G01*
G37*
G04 #@! TD.AperFunction*
G04 #@! TA.AperFunction,SMDPad,CuDef*
G36*
G01*
X83539960Y-67432540D02*
X84014960Y-67432540D01*
G75*
G02*
X84252460Y-67670040I0J-237500D01*
G01*
X84252460Y-68170040D01*
G75*
G02*
X84014960Y-68407540I-237500J0D01*
G01*
X83539960Y-68407540D01*
G75*
G02*
X83302460Y-68170040I0J237500D01*
G01*
X83302460Y-67670040D01*
G75*
G02*
X83539960Y-67432540I237500J0D01*
G01*
G37*
G04 #@! TD.AperFunction*
G04 #@! TA.AperFunction,SMDPad,CuDef*
G36*
G01*
X79074460Y-91078040D02*
X79074460Y-91553040D01*
G75*
G02*
X78836960Y-91790540I-237500J0D01*
G01*
X78336960Y-91790540D01*
G75*
G02*
X78099460Y-91553040I0J237500D01*
G01*
X78099460Y-91078040D01*
G75*
G02*
X78336960Y-90840540I237500J0D01*
G01*
X78836960Y-90840540D01*
G75*
G02*
X79074460Y-91078040I0J-237500D01*
G01*
G37*
G04 #@! TD.AperFunction*
G04 #@! TA.AperFunction,SMDPad,CuDef*
G36*
G01*
X80899460Y-91078040D02*
X80899460Y-91553040D01*
G75*
G02*
X80661960Y-91790540I-237500J0D01*
G01*
X80161960Y-91790540D01*
G75*
G02*
X79924460Y-91553040I0J237500D01*
G01*
X79924460Y-91078040D01*
G75*
G02*
X80161960Y-90840540I237500J0D01*
G01*
X80661960Y-90840540D01*
G75*
G02*
X80899460Y-91078040I0J-237500D01*
G01*
G37*
G04 #@! TD.AperFunction*
G04 #@! TA.AperFunction,SMDPad,CuDef*
G36*
G01*
X77972460Y-66280040D02*
X77972460Y-65805040D01*
G75*
G02*
X78209960Y-65567540I237500J0D01*
G01*
X78709960Y-65567540D01*
G75*
G02*
X78947460Y-65805040I0J-237500D01*
G01*
X78947460Y-66280040D01*
G75*
G02*
X78709960Y-66517540I-237500J0D01*
G01*
X78209960Y-66517540D01*
G75*
G02*
X77972460Y-66280040I0J237500D01*
G01*
G37*
G04 #@! TD.AperFunction*
G04 #@! TA.AperFunction,SMDPad,CuDef*
G36*
G01*
X79797460Y-66280040D02*
X79797460Y-65805040D01*
G75*
G02*
X80034960Y-65567540I237500J0D01*
G01*
X80534960Y-65567540D01*
G75*
G02*
X80772460Y-65805040I0J-237500D01*
G01*
X80772460Y-66280040D01*
G75*
G02*
X80534960Y-66517540I-237500J0D01*
G01*
X80034960Y-66517540D01*
G75*
G02*
X79797460Y-66280040I0J237500D01*
G01*
G37*
G04 #@! TD.AperFunction*
G04 #@! TA.AperFunction,SMDPad,CuDef*
G36*
G01*
X83462540Y-153395540D02*
X83462540Y-153695540D01*
G75*
G02*
X83312540Y-153845540I-150000J0D01*
G01*
X81862540Y-153845540D01*
G75*
G02*
X81712540Y-153695540I0J150000D01*
G01*
X81712540Y-153395540D01*
G75*
G02*
X81862540Y-153245540I150000J0D01*
G01*
X83312540Y-153245540D01*
G75*
G02*
X83462540Y-153395540I0J-150000D01*
G01*
G37*
G04 #@! TD.AperFunction*
G04 #@! TA.AperFunction,SMDPad,CuDef*
G36*
G01*
X83462540Y-152125540D02*
X83462540Y-152425540D01*
G75*
G02*
X83312540Y-152575540I-150000J0D01*
G01*
X81862540Y-152575540D01*
G75*
G02*
X81712540Y-152425540I0J150000D01*
G01*
X81712540Y-152125540D01*
G75*
G02*
X81862540Y-151975540I150000J0D01*
G01*
X83312540Y-151975540D01*
G75*
G02*
X83462540Y-152125540I0J-150000D01*
G01*
G37*
G04 #@! TD.AperFunction*
G04 #@! TA.AperFunction,SMDPad,CuDef*
G36*
G01*
X83462540Y-150855540D02*
X83462540Y-151155540D01*
G75*
G02*
X83312540Y-151305540I-150000J0D01*
G01*
X81862540Y-151305540D01*
G75*
G02*
X81712540Y-151155540I0J150000D01*
G01*
X81712540Y-150855540D01*
G75*
G02*
X81862540Y-150705540I150000J0D01*
G01*
X83312540Y-150705540D01*
G75*
G02*
X83462540Y-150855540I0J-150000D01*
G01*
G37*
G04 #@! TD.AperFunction*
G04 #@! TA.AperFunction,SMDPad,CuDef*
G36*
G01*
X83462540Y-149585540D02*
X83462540Y-149885540D01*
G75*
G02*
X83312540Y-150035540I-150000J0D01*
G01*
X81862540Y-150035540D01*
G75*
G02*
X81712540Y-149885540I0J150000D01*
G01*
X81712540Y-149585540D01*
G75*
G02*
X81862540Y-149435540I150000J0D01*
G01*
X83312540Y-149435540D01*
G75*
G02*
X83462540Y-149585540I0J-150000D01*
G01*
G37*
G04 #@! TD.AperFunction*
G04 #@! TA.AperFunction,SMDPad,CuDef*
G36*
G01*
X83462540Y-148315540D02*
X83462540Y-148615540D01*
G75*
G02*
X83312540Y-148765540I-150000J0D01*
G01*
X81862540Y-148765540D01*
G75*
G02*
X81712540Y-148615540I0J150000D01*
G01*
X81712540Y-148315540D01*
G75*
G02*
X81862540Y-148165540I150000J0D01*
G01*
X83312540Y-148165540D01*
G75*
G02*
X83462540Y-148315540I0J-150000D01*
G01*
G37*
G04 #@! TD.AperFunction*
G04 #@! TA.AperFunction,SMDPad,CuDef*
G36*
G01*
X83462540Y-147045540D02*
X83462540Y-147345540D01*
G75*
G02*
X83312540Y-147495540I-150000J0D01*
G01*
X81862540Y-147495540D01*
G75*
G02*
X81712540Y-147345540I0J150000D01*
G01*
X81712540Y-147045540D01*
G75*
G02*
X81862540Y-146895540I150000J0D01*
G01*
X83312540Y-146895540D01*
G75*
G02*
X83462540Y-147045540I0J-150000D01*
G01*
G37*
G04 #@! TD.AperFunction*
G04 #@! TA.AperFunction,SMDPad,CuDef*
G36*
G01*
X83462540Y-145775540D02*
X83462540Y-146075540D01*
G75*
G02*
X83312540Y-146225540I-150000J0D01*
G01*
X81862540Y-146225540D01*
G75*
G02*
X81712540Y-146075540I0J150000D01*
G01*
X81712540Y-145775540D01*
G75*
G02*
X81862540Y-145625540I150000J0D01*
G01*
X83312540Y-145625540D01*
G75*
G02*
X83462540Y-145775540I0J-150000D01*
G01*
G37*
G04 #@! TD.AperFunction*
G04 #@! TA.AperFunction,SMDPad,CuDef*
G36*
G01*
X83462540Y-144505540D02*
X83462540Y-144805540D01*
G75*
G02*
X83312540Y-144955540I-150000J0D01*
G01*
X81862540Y-144955540D01*
G75*
G02*
X81712540Y-144805540I0J150000D01*
G01*
X81712540Y-144505540D01*
G75*
G02*
X81862540Y-144355540I150000J0D01*
G01*
X83312540Y-144355540D01*
G75*
G02*
X83462540Y-144505540I0J-150000D01*
G01*
G37*
G04 #@! TD.AperFunction*
G04 #@! TA.AperFunction,SMDPad,CuDef*
G36*
G01*
X78312540Y-144505540D02*
X78312540Y-144805540D01*
G75*
G02*
X78162540Y-144955540I-150000J0D01*
G01*
X76712540Y-144955540D01*
G75*
G02*
X76562540Y-144805540I0J150000D01*
G01*
X76562540Y-144505540D01*
G75*
G02*
X76712540Y-144355540I150000J0D01*
G01*
X78162540Y-144355540D01*
G75*
G02*
X78312540Y-144505540I0J-150000D01*
G01*
G37*
G04 #@! TD.AperFunction*
G04 #@! TA.AperFunction,SMDPad,CuDef*
G36*
G01*
X78312540Y-145775540D02*
X78312540Y-146075540D01*
G75*
G02*
X78162540Y-146225540I-150000J0D01*
G01*
X76712540Y-146225540D01*
G75*
G02*
X76562540Y-146075540I0J150000D01*
G01*
X76562540Y-145775540D01*
G75*
G02*
X76712540Y-145625540I150000J0D01*
G01*
X78162540Y-145625540D01*
G75*
G02*
X78312540Y-145775540I0J-150000D01*
G01*
G37*
G04 #@! TD.AperFunction*
G04 #@! TA.AperFunction,SMDPad,CuDef*
G36*
G01*
X78312540Y-147045540D02*
X78312540Y-147345540D01*
G75*
G02*
X78162540Y-147495540I-150000J0D01*
G01*
X76712540Y-147495540D01*
G75*
G02*
X76562540Y-147345540I0J150000D01*
G01*
X76562540Y-147045540D01*
G75*
G02*
X76712540Y-146895540I150000J0D01*
G01*
X78162540Y-146895540D01*
G75*
G02*
X78312540Y-147045540I0J-150000D01*
G01*
G37*
G04 #@! TD.AperFunction*
G04 #@! TA.AperFunction,SMDPad,CuDef*
G36*
G01*
X78312540Y-148315540D02*
X78312540Y-148615540D01*
G75*
G02*
X78162540Y-148765540I-150000J0D01*
G01*
X76712540Y-148765540D01*
G75*
G02*
X76562540Y-148615540I0J150000D01*
G01*
X76562540Y-148315540D01*
G75*
G02*
X76712540Y-148165540I150000J0D01*
G01*
X78162540Y-148165540D01*
G75*
G02*
X78312540Y-148315540I0J-150000D01*
G01*
G37*
G04 #@! TD.AperFunction*
G04 #@! TA.AperFunction,SMDPad,CuDef*
G36*
G01*
X78312540Y-149585540D02*
X78312540Y-149885540D01*
G75*
G02*
X78162540Y-150035540I-150000J0D01*
G01*
X76712540Y-150035540D01*
G75*
G02*
X76562540Y-149885540I0J150000D01*
G01*
X76562540Y-149585540D01*
G75*
G02*
X76712540Y-149435540I150000J0D01*
G01*
X78162540Y-149435540D01*
G75*
G02*
X78312540Y-149585540I0J-150000D01*
G01*
G37*
G04 #@! TD.AperFunction*
G04 #@! TA.AperFunction,SMDPad,CuDef*
G36*
G01*
X78312540Y-150855540D02*
X78312540Y-151155540D01*
G75*
G02*
X78162540Y-151305540I-150000J0D01*
G01*
X76712540Y-151305540D01*
G75*
G02*
X76562540Y-151155540I0J150000D01*
G01*
X76562540Y-150855540D01*
G75*
G02*
X76712540Y-150705540I150000J0D01*
G01*
X78162540Y-150705540D01*
G75*
G02*
X78312540Y-150855540I0J-150000D01*
G01*
G37*
G04 #@! TD.AperFunction*
G04 #@! TA.AperFunction,SMDPad,CuDef*
G36*
G01*
X78312540Y-152125540D02*
X78312540Y-152425540D01*
G75*
G02*
X78162540Y-152575540I-150000J0D01*
G01*
X76712540Y-152575540D01*
G75*
G02*
X76562540Y-152425540I0J150000D01*
G01*
X76562540Y-152125540D01*
G75*
G02*
X76712540Y-151975540I150000J0D01*
G01*
X78162540Y-151975540D01*
G75*
G02*
X78312540Y-152125540I0J-150000D01*
G01*
G37*
G04 #@! TD.AperFunction*
G04 #@! TA.AperFunction,SMDPad,CuDef*
G36*
G01*
X78312540Y-153395540D02*
X78312540Y-153695540D01*
G75*
G02*
X78162540Y-153845540I-150000J0D01*
G01*
X76712540Y-153845540D01*
G75*
G02*
X76562540Y-153695540I0J150000D01*
G01*
X76562540Y-153395540D01*
G75*
G02*
X76712540Y-153245540I150000J0D01*
G01*
X78162540Y-153245540D01*
G75*
G02*
X78312540Y-153395540I0J-150000D01*
G01*
G37*
G04 #@! TD.AperFunction*
D18*
X116704980Y-160745300D03*
D19*
X116704980Y-163285300D03*
X119244980Y-160745300D03*
X119244980Y-163285300D03*
X121784980Y-160745300D03*
X121784980Y-163285300D03*
X124324980Y-160745300D03*
X124324980Y-163285300D03*
X126864980Y-160745300D03*
X126864980Y-163285300D03*
G04 #@! TA.AperFunction,SMDPad,CuDef*
G36*
G01*
X190516500Y-69468540D02*
X190991500Y-69468540D01*
G75*
G02*
X191229000Y-69706040I0J-237500D01*
G01*
X191229000Y-70306040D01*
G75*
G02*
X190991500Y-70543540I-237500J0D01*
G01*
X190516500Y-70543540D01*
G75*
G02*
X190279000Y-70306040I0J237500D01*
G01*
X190279000Y-69706040D01*
G75*
G02*
X190516500Y-69468540I237500J0D01*
G01*
G37*
G04 #@! TD.AperFunction*
G04 #@! TA.AperFunction,SMDPad,CuDef*
G36*
G01*
X190516500Y-71193540D02*
X190991500Y-71193540D01*
G75*
G02*
X191229000Y-71431040I0J-237500D01*
G01*
X191229000Y-72031040D01*
G75*
G02*
X190991500Y-72268540I-237500J0D01*
G01*
X190516500Y-72268540D01*
G75*
G02*
X190279000Y-72031040I0J237500D01*
G01*
X190279000Y-71431040D01*
G75*
G02*
X190516500Y-71193540I237500J0D01*
G01*
G37*
G04 #@! TD.AperFunction*
G04 #@! TA.AperFunction,SMDPad,CuDef*
G36*
G01*
X191245500Y-85021540D02*
X190770500Y-85021540D01*
G75*
G02*
X190533000Y-84784040I0J237500D01*
G01*
X190533000Y-84184040D01*
G75*
G02*
X190770500Y-83946540I237500J0D01*
G01*
X191245500Y-83946540D01*
G75*
G02*
X191483000Y-84184040I0J-237500D01*
G01*
X191483000Y-84784040D01*
G75*
G02*
X191245500Y-85021540I-237500J0D01*
G01*
G37*
G04 #@! TD.AperFunction*
G04 #@! TA.AperFunction,SMDPad,CuDef*
G36*
G01*
X191245500Y-86746540D02*
X190770500Y-86746540D01*
G75*
G02*
X190533000Y-86509040I0J237500D01*
G01*
X190533000Y-85909040D01*
G75*
G02*
X190770500Y-85671540I237500J0D01*
G01*
X191245500Y-85671540D01*
G75*
G02*
X191483000Y-85909040I0J-237500D01*
G01*
X191483000Y-86509040D01*
G75*
G02*
X191245500Y-86746540I-237500J0D01*
G01*
G37*
G04 #@! TD.AperFunction*
D18*
X175260000Y-91440000D03*
D19*
X175260000Y-88900000D03*
X175260000Y-86360000D03*
X175260000Y-83820000D03*
X175260000Y-81280000D03*
X175260000Y-78740000D03*
X175260000Y-76200000D03*
X175260000Y-73660000D03*
X175260000Y-71120000D03*
X175260000Y-68580000D03*
X175260000Y-66040000D03*
X175260000Y-63500000D03*
G04 #@! TA.AperFunction,SMDPad,CuDef*
G36*
G01*
X195663000Y-75457040D02*
X195663000Y-75932040D01*
G75*
G02*
X195425500Y-76169540I-237500J0D01*
G01*
X194925500Y-76169540D01*
G75*
G02*
X194688000Y-75932040I0J237500D01*
G01*
X194688000Y-75457040D01*
G75*
G02*
X194925500Y-75219540I237500J0D01*
G01*
X195425500Y-75219540D01*
G75*
G02*
X195663000Y-75457040I0J-237500D01*
G01*
G37*
G04 #@! TD.AperFunction*
G04 #@! TA.AperFunction,SMDPad,CuDef*
G36*
G01*
X197488000Y-75457040D02*
X197488000Y-75932040D01*
G75*
G02*
X197250500Y-76169540I-237500J0D01*
G01*
X196750500Y-76169540D01*
G75*
G02*
X196513000Y-75932040I0J237500D01*
G01*
X196513000Y-75457040D01*
G75*
G02*
X196750500Y-75219540I237500J0D01*
G01*
X197250500Y-75219540D01*
G75*
G02*
X197488000Y-75457040I0J-237500D01*
G01*
G37*
G04 #@! TD.AperFunction*
G04 #@! TA.AperFunction,SMDPad,CuDef*
G36*
G01*
X197488000Y-80537040D02*
X197488000Y-81012040D01*
G75*
G02*
X197250500Y-81249540I-237500J0D01*
G01*
X196750500Y-81249540D01*
G75*
G02*
X196513000Y-81012040I0J237500D01*
G01*
X196513000Y-80537040D01*
G75*
G02*
X196750500Y-80299540I237500J0D01*
G01*
X197250500Y-80299540D01*
G75*
G02*
X197488000Y-80537040I0J-237500D01*
G01*
G37*
G04 #@! TD.AperFunction*
G04 #@! TA.AperFunction,SMDPad,CuDef*
G36*
G01*
X195663000Y-80537040D02*
X195663000Y-81012040D01*
G75*
G02*
X195425500Y-81249540I-237500J0D01*
G01*
X194925500Y-81249540D01*
G75*
G02*
X194688000Y-81012040I0J237500D01*
G01*
X194688000Y-80537040D01*
G75*
G02*
X194925500Y-80299540I237500J0D01*
G01*
X195425500Y-80299540D01*
G75*
G02*
X195663000Y-80537040I0J-237500D01*
G01*
G37*
G04 #@! TD.AperFunction*
G04 #@! TA.AperFunction,SMDPad,CuDef*
G36*
G01*
X195309500Y-72268540D02*
X194834500Y-72268540D01*
G75*
G02*
X194597000Y-72031040I0J237500D01*
G01*
X194597000Y-71531040D01*
G75*
G02*
X194834500Y-71293540I237500J0D01*
G01*
X195309500Y-71293540D01*
G75*
G02*
X195547000Y-71531040I0J-237500D01*
G01*
X195547000Y-72031040D01*
G75*
G02*
X195309500Y-72268540I-237500J0D01*
G01*
G37*
G04 #@! TD.AperFunction*
G04 #@! TA.AperFunction,SMDPad,CuDef*
G36*
G01*
X195309500Y-70443540D02*
X194834500Y-70443540D01*
G75*
G02*
X194597000Y-70206040I0J237500D01*
G01*
X194597000Y-69706040D01*
G75*
G02*
X194834500Y-69468540I237500J0D01*
G01*
X195309500Y-69468540D01*
G75*
G02*
X195547000Y-69706040I0J-237500D01*
G01*
X195547000Y-70206040D01*
G75*
G02*
X195309500Y-70443540I-237500J0D01*
G01*
G37*
G04 #@! TD.AperFunction*
G04 #@! TA.AperFunction,SMDPad,CuDef*
G36*
G01*
X194834500Y-85771540D02*
X195309500Y-85771540D01*
G75*
G02*
X195547000Y-86009040I0J-237500D01*
G01*
X195547000Y-86509040D01*
G75*
G02*
X195309500Y-86746540I-237500J0D01*
G01*
X194834500Y-86746540D01*
G75*
G02*
X194597000Y-86509040I0J237500D01*
G01*
X194597000Y-86009040D01*
G75*
G02*
X194834500Y-85771540I237500J0D01*
G01*
G37*
G04 #@! TD.AperFunction*
G04 #@! TA.AperFunction,SMDPad,CuDef*
G36*
G01*
X194834500Y-83946540D02*
X195309500Y-83946540D01*
G75*
G02*
X195547000Y-84184040I0J-237500D01*
G01*
X195547000Y-84684040D01*
G75*
G02*
X195309500Y-84921540I-237500J0D01*
G01*
X194834500Y-84921540D01*
G75*
G02*
X194597000Y-84684040I0J237500D01*
G01*
X194597000Y-84184040D01*
G75*
G02*
X194834500Y-83946540I237500J0D01*
G01*
G37*
G04 #@! TD.AperFunction*
G04 #@! TA.AperFunction,SMDPad,CuDef*
G36*
G01*
X191941000Y-75932040D02*
X191941000Y-75457040D01*
G75*
G02*
X192178500Y-75219540I237500J0D01*
G01*
X192678500Y-75219540D01*
G75*
G02*
X192916000Y-75457040I0J-237500D01*
G01*
X192916000Y-75932040D01*
G75*
G02*
X192678500Y-76169540I-237500J0D01*
G01*
X192178500Y-76169540D01*
G75*
G02*
X191941000Y-75932040I0J237500D01*
G01*
G37*
G04 #@! TD.AperFunction*
G04 #@! TA.AperFunction,SMDPad,CuDef*
G36*
G01*
X190116000Y-75932040D02*
X190116000Y-75457040D01*
G75*
G02*
X190353500Y-75219540I237500J0D01*
G01*
X190853500Y-75219540D01*
G75*
G02*
X191091000Y-75457040I0J-237500D01*
G01*
X191091000Y-75932040D01*
G75*
G02*
X190853500Y-76169540I-237500J0D01*
G01*
X190353500Y-76169540D01*
G75*
G02*
X190116000Y-75932040I0J237500D01*
G01*
G37*
G04 #@! TD.AperFunction*
G04 #@! TA.AperFunction,SMDPad,CuDef*
G36*
G01*
X190116000Y-81012040D02*
X190116000Y-80537040D01*
G75*
G02*
X190353500Y-80299540I237500J0D01*
G01*
X190853500Y-80299540D01*
G75*
G02*
X191091000Y-80537040I0J-237500D01*
G01*
X191091000Y-81012040D01*
G75*
G02*
X190853500Y-81249540I-237500J0D01*
G01*
X190353500Y-81249540D01*
G75*
G02*
X190116000Y-81012040I0J237500D01*
G01*
G37*
G04 #@! TD.AperFunction*
G04 #@! TA.AperFunction,SMDPad,CuDef*
G36*
G01*
X191941000Y-81012040D02*
X191941000Y-80537040D01*
G75*
G02*
X192178500Y-80299540I237500J0D01*
G01*
X192678500Y-80299540D01*
G75*
G02*
X192916000Y-80537040I0J-237500D01*
G01*
X192916000Y-81012040D01*
G75*
G02*
X192678500Y-81249540I-237500J0D01*
G01*
X192178500Y-81249540D01*
G75*
G02*
X191941000Y-81012040I0J237500D01*
G01*
G37*
G04 #@! TD.AperFunction*
D18*
X147320000Y-91440000D03*
D19*
X147320000Y-88900000D03*
X147320000Y-86360000D03*
X147320000Y-83820000D03*
X147320000Y-81280000D03*
X147320000Y-78740000D03*
X147320000Y-76200000D03*
X147320000Y-73660000D03*
X147320000Y-71120000D03*
X147320000Y-68580000D03*
X147320000Y-66040000D03*
X147320000Y-63500000D03*
G04 #@! TA.AperFunction,SMDPad,CuDef*
G36*
G01*
X82677460Y-73298040D02*
X82677460Y-73773040D01*
G75*
G02*
X82439960Y-74010540I-237500J0D01*
G01*
X81939960Y-74010540D01*
G75*
G02*
X81702460Y-73773040I0J237500D01*
G01*
X81702460Y-73298040D01*
G75*
G02*
X81939960Y-73060540I237500J0D01*
G01*
X82439960Y-73060540D01*
G75*
G02*
X82677460Y-73298040I0J-237500D01*
G01*
G37*
G04 #@! TD.AperFunction*
G04 #@! TA.AperFunction,SMDPad,CuDef*
G36*
G01*
X80852460Y-73298040D02*
X80852460Y-73773040D01*
G75*
G02*
X80614960Y-74010540I-237500J0D01*
G01*
X80114960Y-74010540D01*
G75*
G02*
X79877460Y-73773040I0J237500D01*
G01*
X79877460Y-73298040D01*
G75*
G02*
X80114960Y-73060540I237500J0D01*
G01*
X80614960Y-73060540D01*
G75*
G02*
X80852460Y-73298040I0J-237500D01*
G01*
G37*
G04 #@! TD.AperFunction*
G04 #@! TA.AperFunction,SMDPad,CuDef*
G36*
G01*
X80852460Y-76600040D02*
X80852460Y-77075040D01*
G75*
G02*
X80614960Y-77312540I-237500J0D01*
G01*
X80114960Y-77312540D01*
G75*
G02*
X79877460Y-77075040I0J237500D01*
G01*
X79877460Y-76600040D01*
G75*
G02*
X80114960Y-76362540I237500J0D01*
G01*
X80614960Y-76362540D01*
G75*
G02*
X80852460Y-76600040I0J-237500D01*
G01*
G37*
G04 #@! TD.AperFunction*
G04 #@! TA.AperFunction,SMDPad,CuDef*
G36*
G01*
X82677460Y-76600040D02*
X82677460Y-77075040D01*
G75*
G02*
X82439960Y-77312540I-237500J0D01*
G01*
X81939960Y-77312540D01*
G75*
G02*
X81702460Y-77075040I0J237500D01*
G01*
X81702460Y-76600040D01*
G75*
G02*
X81939960Y-76362540I237500J0D01*
G01*
X82439960Y-76362540D01*
G75*
G02*
X82677460Y-76600040I0J-237500D01*
G01*
G37*
G04 #@! TD.AperFunction*
D23*
X92453460Y-65661540D03*
X89913460Y-68201540D03*
X87373460Y-65661540D03*
D18*
X157480000Y-73190100D03*
D19*
X154940000Y-73190100D03*
X157480000Y-70650100D03*
X154940000Y-70650100D03*
X157480000Y-68110100D03*
X154940000Y-68110100D03*
X157480000Y-65570100D03*
X154940000Y-65570100D03*
X157480000Y-63030100D03*
X154940000Y-63030100D03*
D22*
X97143060Y-161559240D03*
X99143060Y-160609240D03*
X99143060Y-162509240D03*
X97143060Y-151907240D03*
X99143060Y-150957240D03*
X99143060Y-152857240D03*
X99143060Y-157683240D03*
X99143060Y-155783240D03*
X97143060Y-156733240D03*
X99159060Y-147970240D03*
X99159060Y-146070240D03*
X97159060Y-147020240D03*
G04 #@! TA.AperFunction,SMDPad,CuDef*
G36*
G01*
X104476560Y-162451240D02*
X104001560Y-162451240D01*
G75*
G02*
X103764060Y-162213740I0J237500D01*
G01*
X103764060Y-161713740D01*
G75*
G02*
X104001560Y-161476240I237500J0D01*
G01*
X104476560Y-161476240D01*
G75*
G02*
X104714060Y-161713740I0J-237500D01*
G01*
X104714060Y-162213740D01*
G75*
G02*
X104476560Y-162451240I-237500J0D01*
G01*
G37*
G04 #@! TD.AperFunction*
G04 #@! TA.AperFunction,SMDPad,CuDef*
G36*
G01*
X104476560Y-160626240D02*
X104001560Y-160626240D01*
G75*
G02*
X103764060Y-160388740I0J237500D01*
G01*
X103764060Y-159888740D01*
G75*
G02*
X104001560Y-159651240I237500J0D01*
G01*
X104476560Y-159651240D01*
G75*
G02*
X104714060Y-159888740I0J-237500D01*
G01*
X104714060Y-160388740D01*
G75*
G02*
X104476560Y-160626240I-237500J0D01*
G01*
G37*
G04 #@! TD.AperFunction*
G04 #@! TA.AperFunction,SMDPad,CuDef*
G36*
G01*
X101555560Y-160499240D02*
X101080560Y-160499240D01*
G75*
G02*
X100843060Y-160261740I0J237500D01*
G01*
X100843060Y-159761740D01*
G75*
G02*
X101080560Y-159524240I237500J0D01*
G01*
X101555560Y-159524240D01*
G75*
G02*
X101793060Y-159761740I0J-237500D01*
G01*
X101793060Y-160261740D01*
G75*
G02*
X101555560Y-160499240I-237500J0D01*
G01*
G37*
G04 #@! TD.AperFunction*
G04 #@! TA.AperFunction,SMDPad,CuDef*
G36*
G01*
X101555560Y-162324240D02*
X101080560Y-162324240D01*
G75*
G02*
X100843060Y-162086740I0J237500D01*
G01*
X100843060Y-161586740D01*
G75*
G02*
X101080560Y-161349240I237500J0D01*
G01*
X101555560Y-161349240D01*
G75*
G02*
X101793060Y-161586740I0J-237500D01*
G01*
X101793060Y-162086740D01*
G75*
G02*
X101555560Y-162324240I-237500J0D01*
G01*
G37*
G04 #@! TD.AperFunction*
G04 #@! TA.AperFunction,SMDPad,CuDef*
G36*
G01*
X104349560Y-154196240D02*
X103874560Y-154196240D01*
G75*
G02*
X103637060Y-153958740I0J237500D01*
G01*
X103637060Y-153458740D01*
G75*
G02*
X103874560Y-153221240I237500J0D01*
G01*
X104349560Y-153221240D01*
G75*
G02*
X104587060Y-153458740I0J-237500D01*
G01*
X104587060Y-153958740D01*
G75*
G02*
X104349560Y-154196240I-237500J0D01*
G01*
G37*
G04 #@! TD.AperFunction*
G04 #@! TA.AperFunction,SMDPad,CuDef*
G36*
G01*
X104349560Y-152371240D02*
X103874560Y-152371240D01*
G75*
G02*
X103637060Y-152133740I0J237500D01*
G01*
X103637060Y-151633740D01*
G75*
G02*
X103874560Y-151396240I237500J0D01*
G01*
X104349560Y-151396240D01*
G75*
G02*
X104587060Y-151633740I0J-237500D01*
G01*
X104587060Y-152133740D01*
G75*
G02*
X104349560Y-152371240I-237500J0D01*
G01*
G37*
G04 #@! TD.AperFunction*
G04 #@! TA.AperFunction,SMDPad,CuDef*
G36*
G01*
X101555560Y-150974240D02*
X101080560Y-150974240D01*
G75*
G02*
X100843060Y-150736740I0J237500D01*
G01*
X100843060Y-150236740D01*
G75*
G02*
X101080560Y-149999240I237500J0D01*
G01*
X101555560Y-149999240D01*
G75*
G02*
X101793060Y-150236740I0J-237500D01*
G01*
X101793060Y-150736740D01*
G75*
G02*
X101555560Y-150974240I-237500J0D01*
G01*
G37*
G04 #@! TD.AperFunction*
G04 #@! TA.AperFunction,SMDPad,CuDef*
G36*
G01*
X101555560Y-152799240D02*
X101080560Y-152799240D01*
G75*
G02*
X100843060Y-152561740I0J237500D01*
G01*
X100843060Y-152061740D01*
G75*
G02*
X101080560Y-151824240I237500J0D01*
G01*
X101555560Y-151824240D01*
G75*
G02*
X101793060Y-152061740I0J-237500D01*
G01*
X101793060Y-152561740D01*
G75*
G02*
X101555560Y-152799240I-237500J0D01*
G01*
G37*
G04 #@! TD.AperFunction*
G04 #@! TA.AperFunction,SMDPad,CuDef*
G36*
G01*
X104349560Y-158768240D02*
X103874560Y-158768240D01*
G75*
G02*
X103637060Y-158530740I0J237500D01*
G01*
X103637060Y-158030740D01*
G75*
G02*
X103874560Y-157793240I237500J0D01*
G01*
X104349560Y-157793240D01*
G75*
G02*
X104587060Y-158030740I0J-237500D01*
G01*
X104587060Y-158530740D01*
G75*
G02*
X104349560Y-158768240I-237500J0D01*
G01*
G37*
G04 #@! TD.AperFunction*
G04 #@! TA.AperFunction,SMDPad,CuDef*
G36*
G01*
X104349560Y-156943240D02*
X103874560Y-156943240D01*
G75*
G02*
X103637060Y-156705740I0J237500D01*
G01*
X103637060Y-156205740D01*
G75*
G02*
X103874560Y-155968240I237500J0D01*
G01*
X104349560Y-155968240D01*
G75*
G02*
X104587060Y-156205740I0J-237500D01*
G01*
X104587060Y-156705740D01*
G75*
G02*
X104349560Y-156943240I-237500J0D01*
G01*
G37*
G04 #@! TD.AperFunction*
G04 #@! TA.AperFunction,SMDPad,CuDef*
G36*
G01*
X101555560Y-155800240D02*
X101080560Y-155800240D01*
G75*
G02*
X100843060Y-155562740I0J237500D01*
G01*
X100843060Y-155062740D01*
G75*
G02*
X101080560Y-154825240I237500J0D01*
G01*
X101555560Y-154825240D01*
G75*
G02*
X101793060Y-155062740I0J-237500D01*
G01*
X101793060Y-155562740D01*
G75*
G02*
X101555560Y-155800240I-237500J0D01*
G01*
G37*
G04 #@! TD.AperFunction*
G04 #@! TA.AperFunction,SMDPad,CuDef*
G36*
G01*
X101555560Y-157625240D02*
X101080560Y-157625240D01*
G75*
G02*
X100843060Y-157387740I0J237500D01*
G01*
X100843060Y-156887740D01*
G75*
G02*
X101080560Y-156650240I237500J0D01*
G01*
X101555560Y-156650240D01*
G75*
G02*
X101793060Y-156887740I0J-237500D01*
G01*
X101793060Y-157387740D01*
G75*
G02*
X101555560Y-157625240I-237500J0D01*
G01*
G37*
G04 #@! TD.AperFunction*
G04 #@! TA.AperFunction,SMDPad,CuDef*
G36*
G01*
X104349560Y-149751240D02*
X103874560Y-149751240D01*
G75*
G02*
X103637060Y-149513740I0J237500D01*
G01*
X103637060Y-149013740D01*
G75*
G02*
X103874560Y-148776240I237500J0D01*
G01*
X104349560Y-148776240D01*
G75*
G02*
X104587060Y-149013740I0J-237500D01*
G01*
X104587060Y-149513740D01*
G75*
G02*
X104349560Y-149751240I-237500J0D01*
G01*
G37*
G04 #@! TD.AperFunction*
G04 #@! TA.AperFunction,SMDPad,CuDef*
G36*
G01*
X104349560Y-147926240D02*
X103874560Y-147926240D01*
G75*
G02*
X103637060Y-147688740I0J237500D01*
G01*
X103637060Y-147188740D01*
G75*
G02*
X103874560Y-146951240I237500J0D01*
G01*
X104349560Y-146951240D01*
G75*
G02*
X104587060Y-147188740I0J-237500D01*
G01*
X104587060Y-147688740D01*
G75*
G02*
X104349560Y-147926240I-237500J0D01*
G01*
G37*
G04 #@! TD.AperFunction*
G04 #@! TA.AperFunction,SMDPad,CuDef*
G36*
G01*
X101555560Y-146529240D02*
X101080560Y-146529240D01*
G75*
G02*
X100843060Y-146291740I0J237500D01*
G01*
X100843060Y-145791740D01*
G75*
G02*
X101080560Y-145554240I237500J0D01*
G01*
X101555560Y-145554240D01*
G75*
G02*
X101793060Y-145791740I0J-237500D01*
G01*
X101793060Y-146291740D01*
G75*
G02*
X101555560Y-146529240I-237500J0D01*
G01*
G37*
G04 #@! TD.AperFunction*
G04 #@! TA.AperFunction,SMDPad,CuDef*
G36*
G01*
X101555560Y-148354240D02*
X101080560Y-148354240D01*
G75*
G02*
X100843060Y-148116740I0J237500D01*
G01*
X100843060Y-147616740D01*
G75*
G02*
X101080560Y-147379240I237500J0D01*
G01*
X101555560Y-147379240D01*
G75*
G02*
X101793060Y-147616740I0J-237500D01*
G01*
X101793060Y-148116740D01*
G75*
G02*
X101555560Y-148354240I-237500J0D01*
G01*
G37*
G04 #@! TD.AperFunction*
G04 #@! TA.AperFunction,SMDPad,CuDef*
G36*
G01*
X149439000Y-85470600D02*
X149439000Y-84995600D01*
G75*
G02*
X149676500Y-84758100I237500J0D01*
G01*
X150176500Y-84758100D01*
G75*
G02*
X150414000Y-84995600I0J-237500D01*
G01*
X150414000Y-85470600D01*
G75*
G02*
X150176500Y-85708100I-237500J0D01*
G01*
X149676500Y-85708100D01*
G75*
G02*
X149439000Y-85470600I0J237500D01*
G01*
G37*
G04 #@! TD.AperFunction*
G04 #@! TA.AperFunction,SMDPad,CuDef*
G36*
G01*
X151264000Y-85470600D02*
X151264000Y-84995600D01*
G75*
G02*
X151501500Y-84758100I237500J0D01*
G01*
X152001500Y-84758100D01*
G75*
G02*
X152239000Y-84995600I0J-237500D01*
G01*
X152239000Y-85470600D01*
G75*
G02*
X152001500Y-85708100I-237500J0D01*
G01*
X151501500Y-85708100D01*
G75*
G02*
X151264000Y-85470600I0J237500D01*
G01*
G37*
G04 #@! TD.AperFunction*
G04 #@! TA.AperFunction,SMDPad,CuDef*
G36*
G01*
X151264000Y-82825600D02*
X151264000Y-82350600D01*
G75*
G02*
X151501500Y-82113100I237500J0D01*
G01*
X152001500Y-82113100D01*
G75*
G02*
X152239000Y-82350600I0J-237500D01*
G01*
X152239000Y-82825600D01*
G75*
G02*
X152001500Y-83063100I-237500J0D01*
G01*
X151501500Y-83063100D01*
G75*
G02*
X151264000Y-82825600I0J237500D01*
G01*
G37*
G04 #@! TD.AperFunction*
G04 #@! TA.AperFunction,SMDPad,CuDef*
G36*
G01*
X149439000Y-82825600D02*
X149439000Y-82350600D01*
G75*
G02*
X149676500Y-82113100I237500J0D01*
G01*
X150176500Y-82113100D01*
G75*
G02*
X150414000Y-82350600I0J-237500D01*
G01*
X150414000Y-82825600D01*
G75*
G02*
X150176500Y-83063100I-237500J0D01*
G01*
X149676500Y-83063100D01*
G75*
G02*
X149439000Y-82825600I0J237500D01*
G01*
G37*
G04 #@! TD.AperFunction*
G04 #@! TA.AperFunction,SMDPad,CuDef*
G36*
G01*
X149439000Y-79650600D02*
X149439000Y-79175600D01*
G75*
G02*
X149676500Y-78938100I237500J0D01*
G01*
X150176500Y-78938100D01*
G75*
G02*
X150414000Y-79175600I0J-237500D01*
G01*
X150414000Y-79650600D01*
G75*
G02*
X150176500Y-79888100I-237500J0D01*
G01*
X149676500Y-79888100D01*
G75*
G02*
X149439000Y-79650600I0J237500D01*
G01*
G37*
G04 #@! TD.AperFunction*
G04 #@! TA.AperFunction,SMDPad,CuDef*
G36*
G01*
X151264000Y-79650600D02*
X151264000Y-79175600D01*
G75*
G02*
X151501500Y-78938100I237500J0D01*
G01*
X152001500Y-78938100D01*
G75*
G02*
X152239000Y-79175600I0J-237500D01*
G01*
X152239000Y-79650600D01*
G75*
G02*
X152001500Y-79888100I-237500J0D01*
G01*
X151501500Y-79888100D01*
G75*
G02*
X151264000Y-79650600I0J237500D01*
G01*
G37*
G04 #@! TD.AperFunction*
G04 #@! TA.AperFunction,SMDPad,CuDef*
G36*
G01*
X151264000Y-76856600D02*
X151264000Y-76381600D01*
G75*
G02*
X151501500Y-76144100I237500J0D01*
G01*
X152001500Y-76144100D01*
G75*
G02*
X152239000Y-76381600I0J-237500D01*
G01*
X152239000Y-76856600D01*
G75*
G02*
X152001500Y-77094100I-237500J0D01*
G01*
X151501500Y-77094100D01*
G75*
G02*
X151264000Y-76856600I0J237500D01*
G01*
G37*
G04 #@! TD.AperFunction*
G04 #@! TA.AperFunction,SMDPad,CuDef*
G36*
G01*
X149439000Y-76856600D02*
X149439000Y-76381600D01*
G75*
G02*
X149676500Y-76144100I237500J0D01*
G01*
X150176500Y-76144100D01*
G75*
G02*
X150414000Y-76381600I0J-237500D01*
G01*
X150414000Y-76856600D01*
G75*
G02*
X150176500Y-77094100I-237500J0D01*
G01*
X149676500Y-77094100D01*
G75*
G02*
X149439000Y-76856600I0J237500D01*
G01*
G37*
G04 #@! TD.AperFunction*
G04 #@! TA.AperFunction,SMDPad,CuDef*
G36*
G01*
X149439000Y-73935600D02*
X149439000Y-73460600D01*
G75*
G02*
X149676500Y-73223100I237500J0D01*
G01*
X150176500Y-73223100D01*
G75*
G02*
X150414000Y-73460600I0J-237500D01*
G01*
X150414000Y-73935600D01*
G75*
G02*
X150176500Y-74173100I-237500J0D01*
G01*
X149676500Y-74173100D01*
G75*
G02*
X149439000Y-73935600I0J237500D01*
G01*
G37*
G04 #@! TD.AperFunction*
G04 #@! TA.AperFunction,SMDPad,CuDef*
G36*
G01*
X151264000Y-73935600D02*
X151264000Y-73460600D01*
G75*
G02*
X151501500Y-73223100I237500J0D01*
G01*
X152001500Y-73223100D01*
G75*
G02*
X152239000Y-73460600I0J-237500D01*
G01*
X152239000Y-73935600D01*
G75*
G02*
X152001500Y-74173100I-237500J0D01*
G01*
X151501500Y-74173100D01*
G75*
G02*
X151264000Y-73935600I0J237500D01*
G01*
G37*
G04 #@! TD.AperFunction*
G04 #@! TA.AperFunction,SMDPad,CuDef*
G36*
G01*
X151264000Y-71395600D02*
X151264000Y-70920600D01*
G75*
G02*
X151501500Y-70683100I237500J0D01*
G01*
X152001500Y-70683100D01*
G75*
G02*
X152239000Y-70920600I0J-237500D01*
G01*
X152239000Y-71395600D01*
G75*
G02*
X152001500Y-71633100I-237500J0D01*
G01*
X151501500Y-71633100D01*
G75*
G02*
X151264000Y-71395600I0J237500D01*
G01*
G37*
G04 #@! TD.AperFunction*
G04 #@! TA.AperFunction,SMDPad,CuDef*
G36*
G01*
X149439000Y-71395600D02*
X149439000Y-70920600D01*
G75*
G02*
X149676500Y-70683100I237500J0D01*
G01*
X150176500Y-70683100D01*
G75*
G02*
X150414000Y-70920600I0J-237500D01*
G01*
X150414000Y-71395600D01*
G75*
G02*
X150176500Y-71633100I-237500J0D01*
G01*
X149676500Y-71633100D01*
G75*
G02*
X149439000Y-71395600I0J237500D01*
G01*
G37*
G04 #@! TD.AperFunction*
G04 #@! TA.AperFunction,SMDPad,CuDef*
G36*
G01*
X149439000Y-68601600D02*
X149439000Y-68126600D01*
G75*
G02*
X149676500Y-67889100I237500J0D01*
G01*
X150176500Y-67889100D01*
G75*
G02*
X150414000Y-68126600I0J-237500D01*
G01*
X150414000Y-68601600D01*
G75*
G02*
X150176500Y-68839100I-237500J0D01*
G01*
X149676500Y-68839100D01*
G75*
G02*
X149439000Y-68601600I0J237500D01*
G01*
G37*
G04 #@! TD.AperFunction*
G04 #@! TA.AperFunction,SMDPad,CuDef*
G36*
G01*
X151264000Y-68601600D02*
X151264000Y-68126600D01*
G75*
G02*
X151501500Y-67889100I237500J0D01*
G01*
X152001500Y-67889100D01*
G75*
G02*
X152239000Y-68126600I0J-237500D01*
G01*
X152239000Y-68601600D01*
G75*
G02*
X152001500Y-68839100I-237500J0D01*
G01*
X151501500Y-68839100D01*
G75*
G02*
X151264000Y-68601600I0J237500D01*
G01*
G37*
G04 #@! TD.AperFunction*
G04 #@! TA.AperFunction,SMDPad,CuDef*
G36*
G01*
X151264000Y-65720600D02*
X151264000Y-65245600D01*
G75*
G02*
X151501500Y-65008100I237500J0D01*
G01*
X152001500Y-65008100D01*
G75*
G02*
X152239000Y-65245600I0J-237500D01*
G01*
X152239000Y-65720600D01*
G75*
G02*
X152001500Y-65958100I-237500J0D01*
G01*
X151501500Y-65958100D01*
G75*
G02*
X151264000Y-65720600I0J237500D01*
G01*
G37*
G04 #@! TD.AperFunction*
G04 #@! TA.AperFunction,SMDPad,CuDef*
G36*
G01*
X149439000Y-65720600D02*
X149439000Y-65245600D01*
G75*
G02*
X149676500Y-65008100I237500J0D01*
G01*
X150176500Y-65008100D01*
G75*
G02*
X150414000Y-65245600I0J-237500D01*
G01*
X150414000Y-65720600D01*
G75*
G02*
X150176500Y-65958100I-237500J0D01*
G01*
X149676500Y-65958100D01*
G75*
G02*
X149439000Y-65720600I0J237500D01*
G01*
G37*
G04 #@! TD.AperFunction*
G04 #@! TA.AperFunction,SMDPad,CuDef*
G36*
G01*
X138578620Y-80003320D02*
X138578620Y-80478320D01*
G75*
G02*
X138341120Y-80715820I-237500J0D01*
G01*
X137741120Y-80715820D01*
G75*
G02*
X137503620Y-80478320I0J237500D01*
G01*
X137503620Y-80003320D01*
G75*
G02*
X137741120Y-79765820I237500J0D01*
G01*
X138341120Y-79765820D01*
G75*
G02*
X138578620Y-80003320I0J-237500D01*
G01*
G37*
G04 #@! TD.AperFunction*
G04 #@! TA.AperFunction,SMDPad,CuDef*
G36*
G01*
X136853620Y-80003320D02*
X136853620Y-80478320D01*
G75*
G02*
X136616120Y-80715820I-237500J0D01*
G01*
X136016120Y-80715820D01*
G75*
G02*
X135778620Y-80478320I0J237500D01*
G01*
X135778620Y-80003320D01*
G75*
G02*
X136016120Y-79765820I237500J0D01*
G01*
X136616120Y-79765820D01*
G75*
G02*
X136853620Y-80003320I0J-237500D01*
G01*
G37*
G04 #@! TD.AperFunction*
G04 #@! TA.AperFunction,SMDPad,CuDef*
G36*
G01*
X129041120Y-83165820D02*
X129516120Y-83165820D01*
G75*
G02*
X129753620Y-83403320I0J-237500D01*
G01*
X129753620Y-84003320D01*
G75*
G02*
X129516120Y-84240820I-237500J0D01*
G01*
X129041120Y-84240820D01*
G75*
G02*
X128803620Y-84003320I0J237500D01*
G01*
X128803620Y-83403320D01*
G75*
G02*
X129041120Y-83165820I237500J0D01*
G01*
G37*
G04 #@! TD.AperFunction*
G04 #@! TA.AperFunction,SMDPad,CuDef*
G36*
G01*
X129041120Y-81440820D02*
X129516120Y-81440820D01*
G75*
G02*
X129753620Y-81678320I0J-237500D01*
G01*
X129753620Y-82278320D01*
G75*
G02*
X129516120Y-82515820I-237500J0D01*
G01*
X129041120Y-82515820D01*
G75*
G02*
X128803620Y-82278320I0J237500D01*
G01*
X128803620Y-81678320D01*
G75*
G02*
X129041120Y-81440820I237500J0D01*
G01*
G37*
G04 #@! TD.AperFunction*
G04 #@! TA.AperFunction,SMDPad,CuDef*
G36*
G01*
X130041120Y-74165820D02*
X130516120Y-74165820D01*
G75*
G02*
X130753620Y-74403320I0J-237500D01*
G01*
X130753620Y-75003320D01*
G75*
G02*
X130516120Y-75240820I-237500J0D01*
G01*
X130041120Y-75240820D01*
G75*
G02*
X129803620Y-75003320I0J237500D01*
G01*
X129803620Y-74403320D01*
G75*
G02*
X130041120Y-74165820I237500J0D01*
G01*
G37*
G04 #@! TD.AperFunction*
G04 #@! TA.AperFunction,SMDPad,CuDef*
G36*
G01*
X130041120Y-72440820D02*
X130516120Y-72440820D01*
G75*
G02*
X130753620Y-72678320I0J-237500D01*
G01*
X130753620Y-73278320D01*
G75*
G02*
X130516120Y-73515820I-237500J0D01*
G01*
X130041120Y-73515820D01*
G75*
G02*
X129803620Y-73278320I0J237500D01*
G01*
X129803620Y-72678320D01*
G75*
G02*
X130041120Y-72440820I237500J0D01*
G01*
G37*
G04 #@! TD.AperFunction*
G04 #@! TA.AperFunction,SMDPad,CuDef*
G36*
G01*
X129241120Y-87940820D02*
X129716120Y-87940820D01*
G75*
G02*
X129953620Y-88178320I0J-237500D01*
G01*
X129953620Y-88778320D01*
G75*
G02*
X129716120Y-89015820I-237500J0D01*
G01*
X129241120Y-89015820D01*
G75*
G02*
X129003620Y-88778320I0J237500D01*
G01*
X129003620Y-88178320D01*
G75*
G02*
X129241120Y-87940820I237500J0D01*
G01*
G37*
G04 #@! TD.AperFunction*
G04 #@! TA.AperFunction,SMDPad,CuDef*
G36*
G01*
X129241120Y-89665820D02*
X129716120Y-89665820D01*
G75*
G02*
X129953620Y-89903320I0J-237500D01*
G01*
X129953620Y-90503320D01*
G75*
G02*
X129716120Y-90740820I-237500J0D01*
G01*
X129241120Y-90740820D01*
G75*
G02*
X129003620Y-90503320I0J237500D01*
G01*
X129003620Y-89903320D01*
G75*
G02*
X129241120Y-89665820I237500J0D01*
G01*
G37*
G04 #@! TD.AperFunction*
G04 #@! TA.AperFunction,SMDPad,CuDef*
G36*
G01*
X135928621Y-78340820D02*
X135028619Y-78340820D01*
G75*
G02*
X134778620Y-78090821I0J249999D01*
G01*
X134778620Y-77440819D01*
G75*
G02*
X135028619Y-77190820I249999J0D01*
G01*
X135928621Y-77190820D01*
G75*
G02*
X136178620Y-77440819I0J-249999D01*
G01*
X136178620Y-78090821D01*
G75*
G02*
X135928621Y-78340820I-249999J0D01*
G01*
G37*
G04 #@! TD.AperFunction*
G04 #@! TA.AperFunction,SMDPad,CuDef*
G36*
G01*
X135928621Y-76290820D02*
X135028619Y-76290820D01*
G75*
G02*
X134778620Y-76040821I0J249999D01*
G01*
X134778620Y-75390819D01*
G75*
G02*
X135028619Y-75140820I249999J0D01*
G01*
X135928621Y-75140820D01*
G75*
G02*
X136178620Y-75390819I0J-249999D01*
G01*
X136178620Y-76040821D01*
G75*
G02*
X135928621Y-76290820I-249999J0D01*
G01*
G37*
G04 #@! TD.AperFunction*
G04 #@! TA.AperFunction,SMDPad,CuDef*
G36*
G01*
X138528619Y-77290820D02*
X139428621Y-77290820D01*
G75*
G02*
X139678620Y-77540819I0J-249999D01*
G01*
X139678620Y-78190821D01*
G75*
G02*
X139428621Y-78440820I-249999J0D01*
G01*
X138528619Y-78440820D01*
G75*
G02*
X138278620Y-78190821I0J249999D01*
G01*
X138278620Y-77540819D01*
G75*
G02*
X138528619Y-77290820I249999J0D01*
G01*
G37*
G04 #@! TD.AperFunction*
G04 #@! TA.AperFunction,SMDPad,CuDef*
G36*
G01*
X138528619Y-75240820D02*
X139428621Y-75240820D01*
G75*
G02*
X139678620Y-75490819I0J-249999D01*
G01*
X139678620Y-76140821D01*
G75*
G02*
X139428621Y-76390820I-249999J0D01*
G01*
X138528619Y-76390820D01*
G75*
G02*
X138278620Y-76140821I0J249999D01*
G01*
X138278620Y-75490819D01*
G75*
G02*
X138528619Y-75240820I249999J0D01*
G01*
G37*
G04 #@! TD.AperFunction*
G04 #@! TA.AperFunction,SMDPad,CuDef*
G36*
G01*
X130853620Y-92678320D02*
X130853620Y-92203320D01*
G75*
G02*
X131091120Y-91965820I237500J0D01*
G01*
X131591120Y-91965820D01*
G75*
G02*
X131828620Y-92203320I0J-237500D01*
G01*
X131828620Y-92678320D01*
G75*
G02*
X131591120Y-92915820I-237500J0D01*
G01*
X131091120Y-92915820D01*
G75*
G02*
X130853620Y-92678320I0J237500D01*
G01*
G37*
G04 #@! TD.AperFunction*
G04 #@! TA.AperFunction,SMDPad,CuDef*
G36*
G01*
X129028620Y-92678320D02*
X129028620Y-92203320D01*
G75*
G02*
X129266120Y-91965820I237500J0D01*
G01*
X129766120Y-91965820D01*
G75*
G02*
X130003620Y-92203320I0J-237500D01*
G01*
X130003620Y-92678320D01*
G75*
G02*
X129766120Y-92915820I-237500J0D01*
G01*
X129266120Y-92915820D01*
G75*
G02*
X129028620Y-92678320I0J237500D01*
G01*
G37*
G04 #@! TD.AperFunction*
G04 #@! TA.AperFunction,SMDPad,CuDef*
G36*
G01*
X131828620Y-86303320D02*
X131828620Y-86778320D01*
G75*
G02*
X131591120Y-87015820I-237500J0D01*
G01*
X131091120Y-87015820D01*
G75*
G02*
X130853620Y-86778320I0J237500D01*
G01*
X130853620Y-86303320D01*
G75*
G02*
X131091120Y-86065820I237500J0D01*
G01*
X131591120Y-86065820D01*
G75*
G02*
X131828620Y-86303320I0J-237500D01*
G01*
G37*
G04 #@! TD.AperFunction*
G04 #@! TA.AperFunction,SMDPad,CuDef*
G36*
G01*
X130003620Y-86303320D02*
X130003620Y-86778320D01*
G75*
G02*
X129766120Y-87015820I-237500J0D01*
G01*
X129266120Y-87015820D01*
G75*
G02*
X129028620Y-86778320I0J237500D01*
G01*
X129028620Y-86303320D01*
G75*
G02*
X129266120Y-86065820I237500J0D01*
G01*
X129766120Y-86065820D01*
G75*
G02*
X130003620Y-86303320I0J-237500D01*
G01*
G37*
G04 #@! TD.AperFunction*
D19*
X135838620Y-89840820D03*
D18*
X138378620Y-89840820D03*
X82277460Y-63257540D03*
D19*
X79737460Y-63257540D03*
D18*
X125730000Y-91440000D03*
D19*
X125730000Y-88900000D03*
X125730000Y-86360000D03*
X125730000Y-83820000D03*
X125730000Y-81280000D03*
X125730000Y-78740000D03*
X125730000Y-76200000D03*
X125730000Y-73660000D03*
X125730000Y-71120000D03*
X125730000Y-68580000D03*
X125730000Y-66040000D03*
X125730000Y-63500000D03*
G04 #@! TA.AperFunction,SMDPad,CuDef*
G36*
G01*
X138241120Y-84940820D02*
X138716120Y-84940820D01*
G75*
G02*
X138953620Y-85178320I0J-237500D01*
G01*
X138953620Y-85678320D01*
G75*
G02*
X138716120Y-85915820I-237500J0D01*
G01*
X138241120Y-85915820D01*
G75*
G02*
X138003620Y-85678320I0J237500D01*
G01*
X138003620Y-85178320D01*
G75*
G02*
X138241120Y-84940820I237500J0D01*
G01*
G37*
G04 #@! TD.AperFunction*
G04 #@! TA.AperFunction,SMDPad,CuDef*
G36*
G01*
X138241120Y-86765820D02*
X138716120Y-86765820D01*
G75*
G02*
X138953620Y-87003320I0J-237500D01*
G01*
X138953620Y-87503320D01*
G75*
G02*
X138716120Y-87740820I-237500J0D01*
G01*
X138241120Y-87740820D01*
G75*
G02*
X138003620Y-87503320I0J237500D01*
G01*
X138003620Y-87003320D01*
G75*
G02*
X138241120Y-86765820I237500J0D01*
G01*
G37*
G04 #@! TD.AperFunction*
G04 #@! TA.AperFunction,SMDPad,CuDef*
G36*
G01*
X136116120Y-85915820D02*
X135641120Y-85915820D01*
G75*
G02*
X135403620Y-85678320I0J237500D01*
G01*
X135403620Y-85178320D01*
G75*
G02*
X135641120Y-84940820I237500J0D01*
G01*
X136116120Y-84940820D01*
G75*
G02*
X136353620Y-85178320I0J-237500D01*
G01*
X136353620Y-85678320D01*
G75*
G02*
X136116120Y-85915820I-237500J0D01*
G01*
G37*
G04 #@! TD.AperFunction*
G04 #@! TA.AperFunction,SMDPad,CuDef*
G36*
G01*
X136116120Y-87740820D02*
X135641120Y-87740820D01*
G75*
G02*
X135403620Y-87503320I0J237500D01*
G01*
X135403620Y-87003320D01*
G75*
G02*
X135641120Y-86765820I237500J0D01*
G01*
X136116120Y-86765820D01*
G75*
G02*
X136353620Y-87003320I0J-237500D01*
G01*
X136353620Y-87503320D01*
G75*
G02*
X136116120Y-87740820I-237500J0D01*
G01*
G37*
G04 #@! TD.AperFunction*
G04 #@! TA.AperFunction,SMDPad,CuDef*
G36*
G01*
X139541120Y-80740820D02*
X140016120Y-80740820D01*
G75*
G02*
X140253620Y-80978320I0J-237500D01*
G01*
X140253620Y-81478320D01*
G75*
G02*
X140016120Y-81715820I-237500J0D01*
G01*
X139541120Y-81715820D01*
G75*
G02*
X139303620Y-81478320I0J237500D01*
G01*
X139303620Y-80978320D01*
G75*
G02*
X139541120Y-80740820I237500J0D01*
G01*
G37*
G04 #@! TD.AperFunction*
G04 #@! TA.AperFunction,SMDPad,CuDef*
G36*
G01*
X139541120Y-82565820D02*
X140016120Y-82565820D01*
G75*
G02*
X140253620Y-82803320I0J-237500D01*
G01*
X140253620Y-83303320D01*
G75*
G02*
X140016120Y-83540820I-237500J0D01*
G01*
X139541120Y-83540820D01*
G75*
G02*
X139303620Y-83303320I0J237500D01*
G01*
X139303620Y-82803320D01*
G75*
G02*
X139541120Y-82565820I237500J0D01*
G01*
G37*
G04 #@! TD.AperFunction*
G04 #@! TA.AperFunction,SMDPad,CuDef*
G36*
G01*
X134116120Y-82515820D02*
X133641120Y-82515820D01*
G75*
G02*
X133403620Y-82278320I0J237500D01*
G01*
X133403620Y-81778320D01*
G75*
G02*
X133641120Y-81540820I237500J0D01*
G01*
X134116120Y-81540820D01*
G75*
G02*
X134353620Y-81778320I0J-237500D01*
G01*
X134353620Y-82278320D01*
G75*
G02*
X134116120Y-82515820I-237500J0D01*
G01*
G37*
G04 #@! TD.AperFunction*
G04 #@! TA.AperFunction,SMDPad,CuDef*
G36*
G01*
X134116120Y-84340820D02*
X133641120Y-84340820D01*
G75*
G02*
X133403620Y-84103320I0J237500D01*
G01*
X133403620Y-83603320D01*
G75*
G02*
X133641120Y-83365820I237500J0D01*
G01*
X134116120Y-83365820D01*
G75*
G02*
X134353620Y-83603320I0J-237500D01*
G01*
X134353620Y-84103320D01*
G75*
G02*
X134116120Y-84340820I-237500J0D01*
G01*
G37*
G04 #@! TD.AperFunction*
G04 #@! TA.AperFunction,SMDPad,CuDef*
G36*
G01*
X140916120Y-64115820D02*
X140441120Y-64115820D01*
G75*
G02*
X140203620Y-63878320I0J237500D01*
G01*
X140203620Y-63378320D01*
G75*
G02*
X140441120Y-63140820I237500J0D01*
G01*
X140916120Y-63140820D01*
G75*
G02*
X141153620Y-63378320I0J-237500D01*
G01*
X141153620Y-63878320D01*
G75*
G02*
X140916120Y-64115820I-237500J0D01*
G01*
G37*
G04 #@! TD.AperFunction*
G04 #@! TA.AperFunction,SMDPad,CuDef*
G36*
G01*
X140916120Y-65940820D02*
X140441120Y-65940820D01*
G75*
G02*
X140203620Y-65703320I0J237500D01*
G01*
X140203620Y-65203320D01*
G75*
G02*
X140441120Y-64965820I237500J0D01*
G01*
X140916120Y-64965820D01*
G75*
G02*
X141153620Y-65203320I0J-237500D01*
G01*
X141153620Y-65703320D01*
G75*
G02*
X140916120Y-65940820I-237500J0D01*
G01*
G37*
G04 #@! TD.AperFunction*
G04 #@! TA.AperFunction,SMDPad,CuDef*
G36*
G01*
X133041120Y-63140820D02*
X133516120Y-63140820D01*
G75*
G02*
X133753620Y-63378320I0J-237500D01*
G01*
X133753620Y-63878320D01*
G75*
G02*
X133516120Y-64115820I-237500J0D01*
G01*
X133041120Y-64115820D01*
G75*
G02*
X132803620Y-63878320I0J237500D01*
G01*
X132803620Y-63378320D01*
G75*
G02*
X133041120Y-63140820I237500J0D01*
G01*
G37*
G04 #@! TD.AperFunction*
G04 #@! TA.AperFunction,SMDPad,CuDef*
G36*
G01*
X133041120Y-64965820D02*
X133516120Y-64965820D01*
G75*
G02*
X133753620Y-65203320I0J-237500D01*
G01*
X133753620Y-65703320D01*
G75*
G02*
X133516120Y-65940820I-237500J0D01*
G01*
X133041120Y-65940820D01*
G75*
G02*
X132803620Y-65703320I0J237500D01*
G01*
X132803620Y-65203320D01*
G75*
G02*
X133041120Y-64965820I237500J0D01*
G01*
G37*
G04 #@! TD.AperFunction*
G04 #@! TA.AperFunction,SMDPad,CuDef*
G36*
G01*
X129741120Y-63040820D02*
X130216120Y-63040820D01*
G75*
G02*
X130453620Y-63278320I0J-237500D01*
G01*
X130453620Y-63778320D01*
G75*
G02*
X130216120Y-64015820I-237500J0D01*
G01*
X129741120Y-64015820D01*
G75*
G02*
X129503620Y-63778320I0J237500D01*
G01*
X129503620Y-63278320D01*
G75*
G02*
X129741120Y-63040820I237500J0D01*
G01*
G37*
G04 #@! TD.AperFunction*
G04 #@! TA.AperFunction,SMDPad,CuDef*
G36*
G01*
X129741120Y-64865820D02*
X130216120Y-64865820D01*
G75*
G02*
X130453620Y-65103320I0J-237500D01*
G01*
X130453620Y-65603320D01*
G75*
G02*
X130216120Y-65840820I-237500J0D01*
G01*
X129741120Y-65840820D01*
G75*
G02*
X129503620Y-65603320I0J237500D01*
G01*
X129503620Y-65103320D01*
G75*
G02*
X129741120Y-64865820I237500J0D01*
G01*
G37*
G04 #@! TD.AperFunction*
G04 #@! TA.AperFunction,SMDPad,CuDef*
G36*
G01*
X136441120Y-64965820D02*
X136916120Y-64965820D01*
G75*
G02*
X137153620Y-65203320I0J-237500D01*
G01*
X137153620Y-65703320D01*
G75*
G02*
X136916120Y-65940820I-237500J0D01*
G01*
X136441120Y-65940820D01*
G75*
G02*
X136203620Y-65703320I0J237500D01*
G01*
X136203620Y-65203320D01*
G75*
G02*
X136441120Y-64965820I237500J0D01*
G01*
G37*
G04 #@! TD.AperFunction*
G04 #@! TA.AperFunction,SMDPad,CuDef*
G36*
G01*
X136441120Y-63140820D02*
X136916120Y-63140820D01*
G75*
G02*
X137153620Y-63378320I0J-237500D01*
G01*
X137153620Y-63878320D01*
G75*
G02*
X136916120Y-64115820I-237500J0D01*
G01*
X136441120Y-64115820D01*
G75*
G02*
X136203620Y-63878320I0J237500D01*
G01*
X136203620Y-63378320D01*
G75*
G02*
X136441120Y-63140820I237500J0D01*
G01*
G37*
G04 #@! TD.AperFunction*
D24*
X129028620Y-79750820D03*
X129978620Y-79750820D03*
X130928620Y-79750820D03*
X130928620Y-77130820D03*
X129028620Y-77130820D03*
D25*
X137128620Y-69340820D03*
X137128620Y-68840820D03*
X137128620Y-68340820D03*
X137128620Y-67840820D03*
X137128620Y-67340820D03*
X132828620Y-67340820D03*
X132828620Y-67840820D03*
X132828620Y-68340820D03*
X132828620Y-68840820D03*
X132828620Y-69340820D03*
D18*
X100102461Y-63257540D03*
D19*
X100102461Y-65797540D03*
X97562461Y-63257540D03*
X97562461Y-65797540D03*
G04 #@! TA.AperFunction,SMDPad,CuDef*
G36*
G01*
X138216120Y-84340820D02*
X137741120Y-84340820D01*
G75*
G02*
X137503620Y-84103320I0J237500D01*
G01*
X137503620Y-83603320D01*
G75*
G02*
X137741120Y-83365820I237500J0D01*
G01*
X138216120Y-83365820D01*
G75*
G02*
X138453620Y-83603320I0J-237500D01*
G01*
X138453620Y-84103320D01*
G75*
G02*
X138216120Y-84340820I-237500J0D01*
G01*
G37*
G04 #@! TD.AperFunction*
G04 #@! TA.AperFunction,SMDPad,CuDef*
G36*
G01*
X138216120Y-82515820D02*
X137741120Y-82515820D01*
G75*
G02*
X137503620Y-82278320I0J237500D01*
G01*
X137503620Y-81778320D01*
G75*
G02*
X137741120Y-81540820I237500J0D01*
G01*
X138216120Y-81540820D01*
G75*
G02*
X138453620Y-81778320I0J-237500D01*
G01*
X138453620Y-82278320D01*
G75*
G02*
X138216120Y-82515820I-237500J0D01*
G01*
G37*
G04 #@! TD.AperFunction*
G04 #@! TA.AperFunction,SMDPad,CuDef*
G36*
G01*
X135916120Y-82515820D02*
X135441120Y-82515820D01*
G75*
G02*
X135203620Y-82278320I0J237500D01*
G01*
X135203620Y-81778320D01*
G75*
G02*
X135441120Y-81540820I237500J0D01*
G01*
X135916120Y-81540820D01*
G75*
G02*
X136153620Y-81778320I0J-237500D01*
G01*
X136153620Y-82278320D01*
G75*
G02*
X135916120Y-82515820I-237500J0D01*
G01*
G37*
G04 #@! TD.AperFunction*
G04 #@! TA.AperFunction,SMDPad,CuDef*
G36*
G01*
X135916120Y-84340820D02*
X135441120Y-84340820D01*
G75*
G02*
X135203620Y-84103320I0J237500D01*
G01*
X135203620Y-83603320D01*
G75*
G02*
X135441120Y-83365820I237500J0D01*
G01*
X135916120Y-83365820D01*
G75*
G02*
X136153620Y-83603320I0J-237500D01*
G01*
X136153620Y-84103320D01*
G75*
G02*
X135916120Y-84340820I-237500J0D01*
G01*
G37*
G04 #@! TD.AperFunction*
D26*
X117850000Y-150240000D03*
D27*
X119882000Y-150240000D03*
X121914000Y-150240000D03*
X123946000Y-150240000D03*
X118866000Y-152020000D03*
X120898000Y-152020000D03*
X122930000Y-152020000D03*
X124962000Y-152020000D03*
D28*
X129540000Y-151130000D03*
X113280000Y-151130000D03*
D27*
X114550000Y-156840000D03*
X116840000Y-156840000D03*
X125980000Y-156840000D03*
X128270000Y-156840000D03*
D18*
X161839000Y-65733100D03*
D19*
X161839000Y-63193100D03*
D18*
X213210000Y-66024540D03*
D19*
X213210000Y-63484540D03*
X213210000Y-91064540D03*
D18*
X213210000Y-88524540D03*
D29*
X77467460Y-77853540D03*
X79885540Y-153545540D03*
D30*
X80901540Y-151767540D03*
D31*
X81658460Y-66042540D03*
X81658460Y-86616540D03*
D30*
X75313540Y-162562540D03*
X75694540Y-145036540D03*
D29*
X193140500Y-70006040D03*
X192610000Y-87074540D03*
D31*
X83055460Y-91823540D03*
X97000060Y-155463240D03*
X97000060Y-160416240D03*
X97000060Y-153050240D03*
X97073060Y-148224240D03*
D30*
X102588060Y-159019240D03*
X104112060Y-155082240D03*
X105255060Y-149875240D03*
D29*
X153162000Y-83312000D03*
X155194007Y-74930007D03*
D30*
X140178620Y-67240820D03*
X139678620Y-70340820D03*
X138678620Y-66540820D03*
X138378620Y-70540820D03*
D31*
X132678620Y-92440820D03*
X129278620Y-85040820D03*
X129978620Y-78340820D03*
X133878620Y-75140820D03*
X140678620Y-62240820D03*
D29*
X139778620Y-79740820D03*
X134578620Y-79740820D03*
X130678620Y-82340820D03*
X134898620Y-71120820D03*
X138678620Y-68740820D03*
X130978620Y-68240820D03*
D32*
X83777460Y-63757540D02*
X83777460Y-66095040D01*
X83277460Y-63257540D02*
X83777460Y-63757540D01*
X82277460Y-63257540D02*
X83277460Y-63257540D01*
X78636960Y-70487802D02*
X78636960Y-70741540D01*
X83029722Y-66095040D02*
X78636960Y-70487802D01*
X83777460Y-66095040D02*
X83029722Y-66095040D01*
D33*
X82293460Y-73535540D02*
X82293460Y-71503540D01*
X83055460Y-70741540D02*
X83716960Y-70741540D01*
X82293460Y-71503540D02*
X83055460Y-70741540D01*
D32*
X82189960Y-76837540D02*
X83055460Y-76837540D01*
X83055460Y-76837540D02*
X83817460Y-76075540D01*
X83817460Y-76075540D02*
X83817460Y-75567540D01*
X83055460Y-74805540D02*
X83055460Y-73535540D01*
X83817460Y-75567540D02*
X83055460Y-74805540D01*
D33*
X83055460Y-73535540D02*
X83666960Y-73535540D01*
X82293460Y-73535540D02*
X83055460Y-73535540D01*
X83817460Y-82172540D02*
X83817460Y-82425540D01*
X77340460Y-88902540D02*
X74927460Y-88902540D01*
X83817460Y-82425540D02*
X77340460Y-88902540D01*
X83817460Y-82172540D02*
X83817460Y-81409540D01*
X86484460Y-78742540D02*
X89532460Y-78742540D01*
X83817460Y-81409540D02*
X86484460Y-78742540D01*
D34*
X91742910Y-80952990D02*
X89532460Y-78742540D01*
X105083238Y-79886604D02*
X104016852Y-80952990D01*
X104016852Y-80952990D02*
X91742910Y-80952990D01*
X105083238Y-75760762D02*
X105083238Y-79886604D01*
X106172000Y-74672000D02*
X105083238Y-75760762D01*
D33*
X83817460Y-85472540D02*
X83817460Y-85727540D01*
X86849460Y-88759540D02*
X86849460Y-89715340D01*
X83817460Y-85727540D02*
X86849460Y-88759540D01*
X86849460Y-89715340D02*
X86849460Y-90283540D01*
X88008460Y-91442540D02*
X89532460Y-91442540D01*
X86849460Y-90283540D02*
X88008460Y-91442540D01*
D32*
X85608420Y-73652000D02*
X85491960Y-73535540D01*
X103632000Y-73652000D02*
X85608420Y-73652000D01*
X98046540Y-78742540D02*
X97152460Y-78742540D01*
X99076000Y-79772000D02*
X98046540Y-78742540D01*
X103632000Y-79772000D02*
X99076000Y-79772000D01*
X98803460Y-91442540D02*
X97152460Y-91442540D01*
X99822000Y-82804000D02*
X99822000Y-90424000D01*
X101092000Y-81534000D02*
X99822000Y-82804000D01*
X99822000Y-90424000D02*
X98803460Y-91442540D01*
X104902000Y-81534000D02*
X101092000Y-81534000D01*
X105644000Y-80792000D02*
X104902000Y-81534000D01*
X106172000Y-80792000D02*
X105644000Y-80792000D01*
D35*
X74927460Y-83822540D02*
X76578460Y-83822540D01*
X77467460Y-82933540D02*
X77467460Y-77853540D01*
X76578460Y-83822540D02*
X77467460Y-82933540D01*
D33*
X74927460Y-66042540D02*
X78459960Y-66042540D01*
D32*
X82587540Y-153545540D02*
X82587540Y-156558540D01*
D35*
X86362540Y-163832540D02*
X86235540Y-163832540D01*
D32*
X86235540Y-163832540D02*
X83695540Y-161292540D01*
X83695540Y-157666540D02*
X82587540Y-156558540D01*
X83695540Y-161292540D02*
X83695540Y-157666540D01*
D35*
X82587540Y-149735540D02*
X81663540Y-149735540D01*
D32*
X82587540Y-149735540D02*
X80139540Y-149735540D01*
X80139540Y-149735540D02*
X79885540Y-149989540D01*
X79885540Y-149989540D02*
X79885540Y-153545540D01*
X82587540Y-152275540D02*
X83695540Y-152275540D01*
X83695540Y-152275540D02*
X84330540Y-151640540D01*
X84330540Y-151640540D02*
X84330540Y-149608540D01*
X85353539Y-148585541D02*
X86362540Y-148585541D01*
X84330540Y-149608540D02*
X85353539Y-148585541D01*
X81663540Y-151005540D02*
X80901540Y-151767540D01*
X82587540Y-151005540D02*
X81663540Y-151005540D01*
D33*
X80411960Y-91315540D02*
X81277460Y-91315540D01*
X83827660Y-88765340D02*
X84849460Y-88765340D01*
X81277460Y-91315540D02*
X83827660Y-88765340D01*
X80284960Y-66042540D02*
X81658460Y-66042540D01*
X81658460Y-66042540D02*
X81658460Y-66042540D01*
X83807260Y-88765340D02*
X83827660Y-88765340D01*
X81658460Y-86616540D02*
X83807260Y-88765340D01*
D32*
X73662540Y-151132540D02*
X74297540Y-151132540D01*
X75694540Y-149735540D02*
X77437540Y-149735540D01*
X74297540Y-151132540D02*
X75694540Y-149735540D01*
X76090263Y-151005540D02*
X77437540Y-151005540D01*
X73662540Y-153433263D02*
X76090263Y-151005540D01*
X73662540Y-153665541D02*
X73662540Y-153433263D01*
X73662540Y-156205541D02*
X73923539Y-156205541D01*
X73923539Y-156205541D02*
X75440540Y-154688540D01*
X75440540Y-154688540D02*
X75440540Y-152656540D01*
X75821540Y-152275540D02*
X77437540Y-152275540D01*
X75440540Y-152656540D02*
X75821540Y-152275540D01*
X73662540Y-158745541D02*
X73669539Y-158745541D01*
X73669539Y-158745541D02*
X75440540Y-156974540D01*
X77437540Y-153692816D02*
X77437540Y-153545540D01*
X75440540Y-155689816D02*
X77437540Y-153692816D01*
X75440540Y-156974540D02*
X75440540Y-155689816D01*
X82587540Y-144655540D02*
X81409540Y-144655540D01*
D35*
X80520540Y-145925540D02*
X80330040Y-145735040D01*
X82587540Y-145925540D02*
X80520540Y-145925540D01*
D32*
X80330040Y-145735040D02*
X79250540Y-146814540D01*
X81409540Y-144655540D02*
X80330040Y-145735040D01*
D35*
X79377540Y-147195540D02*
X79250540Y-147322540D01*
X82587540Y-147195540D02*
X79377540Y-147195540D01*
D32*
X79250540Y-146814540D02*
X79250540Y-147322540D01*
X79250540Y-147322540D02*
X79250540Y-148465540D01*
D35*
X80393540Y-148465540D02*
X79250540Y-148465540D01*
X82587540Y-148465540D02*
X80393540Y-148465540D01*
D32*
X79250540Y-148465540D02*
X79250540Y-149227540D01*
X79250540Y-149227540D02*
X78996540Y-149481540D01*
X78996540Y-149481540D02*
X78996540Y-160530540D01*
X78234540Y-161292540D02*
X78996540Y-160530540D01*
X73662540Y-161292540D02*
X78234540Y-161292540D01*
X73662540Y-163825541D02*
X74050539Y-163825541D01*
X74050539Y-163825541D02*
X75313540Y-162562540D01*
X75313540Y-162562540D02*
X75313540Y-162562540D01*
X77437540Y-144655540D02*
X76075540Y-144655540D01*
X76075540Y-144655540D02*
X75694540Y-145036540D01*
X75694540Y-145036540D02*
X75694540Y-145036540D01*
X116704980Y-160845300D02*
X116450980Y-160845300D01*
X113298980Y-151143300D02*
X113278980Y-151123300D01*
X113048980Y-152503300D02*
X113298980Y-152253300D01*
X113298980Y-152253300D02*
X113298980Y-151143300D01*
X113048980Y-159533300D02*
X113048980Y-152503300D01*
X114260980Y-160745300D02*
X113048980Y-159533300D01*
X116704980Y-160745300D02*
X114260980Y-160745300D01*
X129548980Y-151113300D02*
X129538980Y-151123300D01*
X129048980Y-145483300D02*
X130048980Y-146483300D01*
X130048980Y-149233300D02*
X129548980Y-149733300D01*
X113798980Y-145483300D02*
X129048980Y-145483300D01*
X112798980Y-146483300D02*
X113798980Y-145483300D01*
X129548980Y-149733300D02*
X129548980Y-151113300D01*
X112798980Y-149483300D02*
X112798980Y-146483300D01*
X113278980Y-149963300D02*
X112798980Y-149483300D01*
X130048980Y-146483300D02*
X130048980Y-149233300D01*
X113278980Y-151123300D02*
X113278980Y-149963300D01*
X118863980Y-153930300D02*
X118863980Y-152027300D01*
X119244980Y-154311300D02*
X118863980Y-153930300D01*
X114548980Y-156833300D02*
X114548980Y-157633300D01*
X115552980Y-158637300D02*
X119244980Y-158637300D01*
X114548980Y-157633300D02*
X115552980Y-158637300D01*
X119244980Y-158637300D02*
X119244980Y-154311300D01*
X119244980Y-160745300D02*
X119244980Y-158637300D01*
X120895980Y-153803300D02*
X120895980Y-152027300D01*
X121784980Y-154692300D02*
X120895980Y-153803300D01*
X121784980Y-160745300D02*
X121784980Y-154692300D01*
D35*
X122800980Y-152319302D02*
X122949981Y-152170301D01*
X122800980Y-152406300D02*
X122800980Y-152319302D01*
D32*
X122927980Y-154057300D02*
X122927980Y-152027300D01*
X124324980Y-155454300D02*
X122927980Y-154057300D01*
X124324980Y-160745300D02*
X124324980Y-155454300D01*
D35*
X190603500Y-71881540D02*
X190754000Y-71731040D01*
X190603500Y-75694540D02*
X190603500Y-71881540D01*
X177035460Y-75694540D02*
X190603500Y-75694540D01*
X176527460Y-76202540D02*
X177035460Y-75694540D01*
X175260000Y-76202540D02*
X176527460Y-76202540D01*
X191008000Y-81179040D02*
X190603500Y-80774540D01*
X191008000Y-84484040D02*
X191008000Y-81179040D01*
X178564540Y-80774540D02*
X190603500Y-80774540D01*
X176532540Y-78742540D02*
X178564540Y-80774540D01*
X175260000Y-78742540D02*
X176532540Y-78742540D01*
D34*
X201558540Y-75694540D02*
X202058000Y-76194000D01*
X197000500Y-75694540D02*
X201558540Y-75694540D01*
X204598000Y-83946000D02*
X204598000Y-81294000D01*
X199644000Y-88900000D02*
X204598000Y-83946000D01*
X175260000Y-88900000D02*
X199644000Y-88900000D01*
X203298082Y-79994082D02*
X204598000Y-81294000D01*
X203298082Y-78513918D02*
X203298082Y-79994082D01*
X204598000Y-77214000D02*
X203298082Y-78513918D01*
X201557460Y-80774540D02*
X202058000Y-80274000D01*
X197000500Y-80774540D02*
X201557460Y-80774540D01*
D35*
X192428500Y-75694540D02*
X195175500Y-75694540D01*
X195175500Y-71884540D02*
X195072000Y-71781040D01*
X195175500Y-75694540D02*
X195175500Y-71884540D01*
X195072000Y-80878040D02*
X195175500Y-80774540D01*
X195072000Y-84434040D02*
X195072000Y-80878040D01*
X192428500Y-80774540D02*
X195175500Y-80774540D01*
X195022000Y-70006040D02*
X195072000Y-69956040D01*
X190754000Y-70006040D02*
X193140500Y-70006040D01*
X193140500Y-70006040D02*
X195022000Y-70006040D01*
D32*
X195022000Y-86209040D02*
X195072000Y-86259040D01*
X192975500Y-86709040D02*
X192610000Y-87074540D01*
X192975500Y-86209040D02*
X192975500Y-86709040D01*
X191008000Y-86209040D02*
X192975500Y-86209040D01*
X192975500Y-86209040D02*
X195022000Y-86209040D01*
D33*
X84849460Y-90665340D02*
X84213660Y-90665340D01*
X84213660Y-90665340D02*
X83055460Y-91823540D01*
X75054460Y-91315540D02*
X74927460Y-91442540D01*
X78586960Y-91315540D02*
X75054460Y-91315540D01*
X83055460Y-91823540D02*
X83055460Y-91823540D01*
D32*
X80364960Y-70744540D02*
X80361960Y-70741540D01*
X80364960Y-73535540D02*
X80364960Y-70744540D01*
X81845960Y-69257540D02*
X80361960Y-70741540D01*
X84527460Y-69257540D02*
X81845960Y-69257540D01*
X87373460Y-66411540D02*
X84527460Y-69257540D01*
X87373460Y-65661540D02*
X87373460Y-66411540D01*
X85441960Y-70172040D02*
X84527460Y-69257540D01*
X85441960Y-70741540D02*
X85441960Y-70172040D01*
X107312000Y-85352000D02*
X108582000Y-84082000D01*
X106982000Y-85352000D02*
X107312000Y-85352000D01*
X108582000Y-81792000D02*
X108582000Y-84082000D01*
X107312000Y-69092000D02*
X108582000Y-70362000D01*
X106982000Y-69092000D02*
X107312000Y-69092000D01*
X108582000Y-70362000D02*
X108582000Y-72652000D01*
X108582000Y-72652000D02*
X108582000Y-81792000D01*
D34*
X158323369Y-78313369D02*
X158323369Y-74033469D01*
X160528000Y-80518000D02*
X158323369Y-78313369D01*
X158323369Y-74033469D02*
X157480000Y-73190100D01*
X160528000Y-86614000D02*
X160528000Y-80518000D01*
X159754000Y-87388000D02*
X160528000Y-86614000D01*
X159258000Y-87388000D02*
X159754000Y-87388000D01*
D32*
X149926500Y-73698100D02*
X149455500Y-73698100D01*
X149879499Y-73651099D02*
X149926500Y-73698100D01*
X147320000Y-73651099D02*
X149879499Y-73651099D01*
X151924998Y-61506100D02*
X156718000Y-61506100D01*
X157480000Y-62268100D02*
X157480000Y-63030100D01*
X156718000Y-61506100D02*
X157480000Y-62268100D01*
X159766000Y-76619100D02*
X160083500Y-76619100D01*
X163449000Y-68110100D02*
X163477990Y-68081110D01*
X157480000Y-68110100D02*
X163449000Y-68110100D01*
X163449000Y-70650100D02*
X163477990Y-70621110D01*
X157480000Y-70650100D02*
X163449000Y-70650100D01*
X163477990Y-68081110D02*
X163477990Y-70621110D01*
X149939999Y-63491099D02*
X151924998Y-61506100D01*
X147320000Y-63491099D02*
X149939999Y-63491099D01*
X161676000Y-63030100D02*
X161839000Y-63193100D01*
X157480000Y-63030100D02*
X161676000Y-63030100D01*
X146015999Y-90127098D02*
X147320000Y-91431099D01*
X146015999Y-64795100D02*
X146015999Y-90127098D01*
X147320000Y-63491099D02*
X146015999Y-64795100D01*
X162799000Y-63193100D02*
X161839000Y-63193100D01*
X163477990Y-63872090D02*
X162799000Y-63193100D01*
X163477990Y-68081110D02*
X163477990Y-63872090D01*
D34*
X160398000Y-91948000D02*
X161668000Y-90678000D01*
X160068000Y-91948000D02*
X160398000Y-91948000D01*
X161668000Y-88388000D02*
X161668000Y-90678000D01*
X161668000Y-88388000D02*
X161668000Y-79248000D01*
X161668000Y-79248000D02*
X161668000Y-76958000D01*
X161338000Y-76958000D02*
X160068000Y-75688000D01*
X161668000Y-76958000D02*
X161338000Y-76958000D01*
X156718000Y-80248000D02*
X156718000Y-80264000D01*
X156718000Y-80248000D02*
X157988000Y-81518000D01*
X160068000Y-90248602D02*
X160068000Y-91948000D01*
X157988000Y-88168602D02*
X160068000Y-90248602D01*
X157988000Y-81518000D02*
X157988000Y-88168602D01*
D32*
X163477990Y-72278010D02*
X160068000Y-75688000D01*
X163477990Y-70621110D02*
X163477990Y-72278010D01*
X149879499Y-71111099D02*
X149926500Y-71158100D01*
X147320000Y-71111099D02*
X149879499Y-71111099D01*
X147526999Y-68364100D02*
X147320000Y-68571099D01*
X149926500Y-68364100D02*
X147526999Y-68364100D01*
X147867999Y-65483100D02*
X147320000Y-66031099D01*
X149926500Y-65483100D02*
X147867999Y-65483100D01*
X148717000Y-85208099D02*
X147320000Y-83811099D01*
X149901499Y-85208099D02*
X148717000Y-85208099D01*
X149926500Y-85233100D02*
X149901499Y-85208099D01*
X148637001Y-82588100D02*
X147320000Y-81271099D01*
X149926500Y-82588100D02*
X148637001Y-82588100D01*
X147494001Y-78905100D02*
X147320000Y-78731099D01*
X148002001Y-79413100D02*
X147320000Y-78731099D01*
X149926500Y-79413100D02*
X148002001Y-79413100D01*
X147494001Y-76365100D02*
X147320000Y-76191099D01*
X147748001Y-76619100D02*
X147320000Y-76191099D01*
X149926500Y-76619100D02*
X147748001Y-76619100D01*
X79607460Y-76837540D02*
X80364960Y-76837540D01*
X76432460Y-73662540D02*
X79607460Y-76837540D01*
X74927460Y-73662540D02*
X76432460Y-73662540D01*
X84114960Y-67920040D02*
X83777460Y-67920040D01*
X85777460Y-66257540D02*
X84114960Y-67920040D01*
X86777460Y-64007540D02*
X85777460Y-65007540D01*
X85777460Y-65007540D02*
X85777460Y-66257540D01*
X91527460Y-64007540D02*
X86777460Y-64007540D01*
X92453460Y-64933540D02*
X91527460Y-64007540D01*
X92453460Y-65661540D02*
X92453460Y-64933540D01*
D34*
X92453460Y-67965960D02*
X95607500Y-71120000D01*
X92453460Y-65661540D02*
X92453460Y-67965960D01*
X104805560Y-161963740D02*
X106680061Y-163838241D01*
X104239060Y-161963740D02*
X104805560Y-161963740D01*
D33*
X97143060Y-155606240D02*
X97000060Y-155463240D01*
X97143060Y-156733240D02*
X97143060Y-155606240D01*
X97143060Y-160559240D02*
X97000060Y-160416240D01*
X97143060Y-161559240D02*
X97143060Y-160559240D01*
X97143060Y-152907240D02*
X97000060Y-153050240D01*
X97143060Y-151907240D02*
X97143060Y-152907240D01*
X97159060Y-148138240D02*
X97073060Y-148224240D01*
X97159060Y-147020240D02*
X97159060Y-148138240D01*
D34*
X97159060Y-147020240D02*
X99982060Y-147020240D01*
X99982060Y-147020240D02*
X100302060Y-146700240D01*
X100659560Y-146700240D02*
X101318060Y-146041740D01*
X100302060Y-146700240D02*
X100659560Y-146700240D01*
X99897560Y-151907240D02*
X101318060Y-150486740D01*
X97143060Y-151907240D02*
X99897560Y-151907240D01*
X99897560Y-156733240D02*
X101318060Y-155312740D01*
X97143060Y-156733240D02*
X99897560Y-156733240D01*
X99770560Y-161559240D02*
X101318060Y-160011740D01*
X97143060Y-161559240D02*
X99770560Y-161559240D01*
D33*
X93980061Y-158758241D02*
X98517061Y-158758241D01*
X99143060Y-159384240D02*
X99143060Y-160609240D01*
X98517061Y-158758241D02*
X99143060Y-159384240D01*
X93980061Y-156218241D02*
X94213059Y-156218241D01*
X94213059Y-156218241D02*
X96111060Y-154320240D01*
X96111060Y-154320240D02*
X98524060Y-154320240D01*
X99143060Y-154939240D02*
X99143060Y-155783240D01*
X98524060Y-154320240D02*
X99143060Y-154939240D01*
D34*
X104112060Y-149263740D02*
X104112060Y-150129240D01*
X104112060Y-150129240D02*
X105001060Y-151018240D01*
X105001060Y-151018240D02*
X105001060Y-155590240D01*
X105629061Y-156218241D02*
X106680061Y-156218241D01*
X105001060Y-155590240D02*
X105629061Y-156218241D01*
D33*
X98088862Y-150957240D02*
X99143060Y-150957240D01*
X98057861Y-150926239D02*
X98088862Y-150957240D01*
X96228259Y-150926239D02*
X98057861Y-150926239D01*
X95984060Y-151170438D02*
X96228259Y-150926239D01*
X95984060Y-151907240D02*
X95984060Y-151170438D01*
X94213059Y-153678241D02*
X95984060Y-151907240D01*
X93980061Y-153678241D02*
X94213059Y-153678241D01*
X93980061Y-151138241D02*
X94213059Y-151138241D01*
X94213059Y-151138241D02*
X95984060Y-149367240D01*
X95984060Y-149367240D02*
X95984060Y-146065240D01*
X95984060Y-146065240D02*
X96365060Y-145684240D01*
X98773060Y-145684240D02*
X99159060Y-146070240D01*
X96365060Y-145684240D02*
X98773060Y-145684240D01*
D34*
X103373560Y-159019240D02*
X104112060Y-158280740D01*
X102588060Y-159019240D02*
X103373560Y-159019240D01*
X104112060Y-153708740D02*
X104342560Y-153708740D01*
X104112060Y-153708740D02*
X104112060Y-155082240D01*
X105255060Y-147483242D02*
X106680061Y-146058241D01*
X105255060Y-149875240D02*
X105255060Y-147483242D01*
X100645560Y-162509240D02*
X101318060Y-161836740D01*
X99143060Y-162509240D02*
X100645560Y-162509240D01*
X102541060Y-161836740D02*
X104239060Y-160138740D01*
X101318060Y-161836740D02*
X102541060Y-161836740D01*
X100772560Y-152857240D02*
X101318060Y-152311740D01*
X99143060Y-152857240D02*
X100772560Y-152857240D01*
X103684060Y-152311740D02*
X104112060Y-151883740D01*
X101318060Y-152311740D02*
X103684060Y-152311740D01*
X100772560Y-157683240D02*
X101318060Y-157137740D01*
X99143060Y-157683240D02*
X100772560Y-157683240D01*
X103430060Y-157137740D02*
X104112060Y-156455740D01*
X101318060Y-157137740D02*
X103430060Y-157137740D01*
X103684060Y-147866740D02*
X104112060Y-147438740D01*
X101318060Y-147866740D02*
X103684060Y-147866740D01*
X101214560Y-147970240D02*
X101318060Y-147866740D01*
X99159060Y-147970240D02*
X101214560Y-147970240D01*
X151751500Y-85233100D02*
X152289100Y-85233100D01*
X153424000Y-86368000D02*
X156718000Y-86368000D01*
X152289100Y-85233100D02*
X153424000Y-86368000D01*
X151751500Y-82588100D02*
X152438100Y-82588100D01*
X152438100Y-82588100D02*
X153162000Y-83312000D01*
X154686000Y-83058000D02*
X155956000Y-84328000D01*
X154686000Y-81534000D02*
X154686000Y-83058000D01*
X155956000Y-84328000D02*
X156718000Y-84328000D01*
X152565100Y-79413100D02*
X154686000Y-81534000D01*
X151751500Y-79413100D02*
X152565100Y-79413100D01*
X154431993Y-74930007D02*
X155194007Y-74930007D01*
X152742900Y-76619100D02*
X154431993Y-74930007D01*
X151751500Y-76619100D02*
X152742900Y-76619100D01*
D32*
X155019999Y-73143099D02*
X155067000Y-73190100D01*
X153874000Y-73698100D02*
X153035000Y-73698100D01*
X154382000Y-73190100D02*
X153874000Y-73698100D01*
X154940000Y-73190100D02*
X154382000Y-73190100D01*
X153035000Y-73698100D02*
X151751500Y-73698100D01*
X155019999Y-70603099D02*
X155067000Y-70650100D01*
X153414000Y-71158100D02*
X151751500Y-71158100D01*
X153922000Y-70650100D02*
X153414000Y-71158100D01*
X154940000Y-70650100D02*
X153922000Y-70650100D01*
D34*
X157836394Y-79846394D02*
X159258000Y-81268000D01*
X157836394Y-76048394D02*
X157836394Y-79846394D01*
X156210000Y-74422000D02*
X157836394Y-76048394D01*
X156210000Y-71374000D02*
X156210000Y-74422000D01*
X155486100Y-70650100D02*
X156210000Y-71374000D01*
X154940000Y-70650100D02*
X155486100Y-70650100D01*
D32*
X155019999Y-68063099D02*
X155067000Y-68110100D01*
X153712000Y-68110100D02*
X154940000Y-68110100D01*
X153458000Y-68364100D02*
X153712000Y-68110100D01*
X151751500Y-68364100D02*
X153458000Y-68364100D01*
X155019999Y-65523099D02*
X155067000Y-65570100D01*
X151838500Y-65570100D02*
X154940000Y-65570100D01*
X151751500Y-65483100D02*
X151838500Y-65570100D01*
D34*
X137726619Y-67792821D02*
X138426619Y-67792821D01*
X137678620Y-67840820D02*
X137726619Y-67792821D01*
X137128620Y-67840820D02*
X137678620Y-67840820D01*
X138426619Y-67792821D02*
X138978620Y-67240820D01*
X138978620Y-67240820D02*
X140178620Y-67240820D01*
X137578620Y-77340820D02*
X137578620Y-77140820D01*
X137578620Y-78540820D02*
X137578620Y-77340820D01*
X137578620Y-73572662D02*
X139678620Y-71472662D01*
X137578620Y-77340820D02*
X137578620Y-73572662D01*
X139678620Y-71472662D02*
X139678620Y-70340820D01*
X138178620Y-80378320D02*
X138041120Y-80240820D01*
X138041120Y-79003320D02*
X138028620Y-78990820D01*
X138041120Y-80240820D02*
X138041120Y-79003320D01*
X138178620Y-83853320D02*
X138178620Y-83540820D01*
X138966120Y-82526660D02*
X138980630Y-82512150D01*
X138966120Y-83053320D02*
X138966120Y-82526660D01*
X138666120Y-83053320D02*
X138966120Y-83053320D01*
X138966120Y-83053320D02*
X139778620Y-83053320D01*
X137978620Y-83853320D02*
X137978620Y-83240820D01*
X138166120Y-83053320D02*
X138666120Y-83053320D01*
X137978620Y-83240820D02*
X138166120Y-83053320D01*
X138780630Y-81942830D02*
X138780630Y-81442830D01*
X138966120Y-82128320D02*
X138780630Y-81942830D01*
X138966120Y-82526660D02*
X138966120Y-82128320D01*
X138780630Y-81442830D02*
X138278620Y-80940820D01*
X138278620Y-80478320D02*
X138041120Y-80240820D01*
X138278620Y-80940820D02*
X138278620Y-80478320D01*
X138041120Y-79003320D02*
X137578620Y-78540820D01*
X137128620Y-67340820D02*
X137578620Y-67340820D01*
X137536553Y-67340820D02*
X137538562Y-67338811D01*
X137128620Y-67340820D02*
X137536553Y-67340820D01*
X137880629Y-67338811D02*
X138678620Y-66540820D01*
X137538562Y-67338811D02*
X137880629Y-67338811D01*
X136994487Y-73463764D02*
X138378620Y-72079631D01*
X138378620Y-72079631D02*
X138378620Y-70540820D01*
D32*
X133878620Y-83853320D02*
X133878620Y-83540820D01*
D34*
X136316120Y-80240820D02*
X136316120Y-79703320D01*
X136994487Y-79024953D02*
X136994487Y-77756687D01*
X136316120Y-79703320D02*
X136994487Y-79024953D01*
X136994487Y-77756687D02*
X136994487Y-73463764D01*
X136994487Y-77924953D02*
X136994487Y-77756687D01*
D32*
X135878620Y-84053320D02*
X135678620Y-83853320D01*
D34*
X133878620Y-83853320D02*
X133878620Y-84740820D01*
X133878620Y-84740820D02*
X134078620Y-84940820D01*
X134591120Y-84940820D02*
X135678620Y-83853320D01*
X134078620Y-84940820D02*
X134591120Y-84940820D01*
X135678620Y-83853320D02*
X135678620Y-83740820D01*
X135678620Y-83740820D02*
X134778620Y-82840820D01*
X134778620Y-82840820D02*
X134778620Y-81440820D01*
X134778620Y-81440820D02*
X135178620Y-81040820D01*
X135516120Y-81040820D02*
X136316120Y-80240820D01*
X135178620Y-81040820D02*
X135516120Y-81040820D01*
X135578620Y-70840820D02*
X135578620Y-68540820D01*
X135778620Y-68340820D02*
X137128620Y-68340820D01*
X135578620Y-68540820D02*
X135778620Y-68340820D01*
D32*
X131341120Y-92440820D02*
X132678620Y-92440820D01*
X129278620Y-83703320D02*
X129278620Y-85040820D01*
X129978620Y-79750820D02*
X129978620Y-78340820D01*
X135541120Y-75653320D02*
X135478620Y-75715820D01*
X134516120Y-74503320D02*
X133878620Y-75140820D01*
X135541120Y-74503320D02*
X134516120Y-74503320D01*
X135541120Y-73440820D02*
X135541120Y-74503320D01*
X135541120Y-74503320D02*
X135541120Y-75653320D01*
X140678620Y-63628320D02*
X140678620Y-62240820D01*
X130278620Y-75540820D02*
X130278620Y-74703320D01*
X130278620Y-75540820D02*
X130178620Y-75540820D01*
X129978620Y-75740820D02*
X129978620Y-78340820D01*
X130178620Y-75540820D02*
X129978620Y-75740820D01*
D34*
X135625621Y-71469781D02*
X135625621Y-70840820D01*
X135541120Y-71554282D02*
X135625621Y-71469781D01*
X135541120Y-73440820D02*
X135541120Y-71554282D01*
X139778620Y-81228320D02*
X139778620Y-79740820D01*
X130316120Y-81978320D02*
X130678620Y-82340820D01*
X129278620Y-81978320D02*
X130316120Y-81978320D01*
D32*
X133878620Y-82028320D02*
X133878620Y-80440820D01*
X133878620Y-80440820D02*
X134578620Y-79740820D01*
D34*
X128122682Y-78036758D02*
X129028620Y-77130820D01*
X128122682Y-80484882D02*
X128122682Y-78036758D01*
X129278620Y-81640820D02*
X128122682Y-80484882D01*
X129278620Y-81978320D02*
X129278620Y-81640820D01*
X129978620Y-63528320D02*
X129978620Y-62640820D01*
X129978620Y-62640820D02*
X130578620Y-62040820D01*
X136678620Y-62440820D02*
X136678620Y-63628320D01*
X136278620Y-62040820D02*
X136678620Y-62440820D01*
X133278620Y-62140820D02*
X133178620Y-62040820D01*
X133278620Y-63628320D02*
X133278620Y-62140820D01*
X130578620Y-62040820D02*
X133178620Y-62040820D01*
X132828620Y-68340820D02*
X133878620Y-68340820D01*
X133878620Y-68340820D02*
X133878620Y-70940820D01*
D32*
X131341120Y-86540820D02*
X132378620Y-86540820D01*
X130928620Y-79750820D02*
X130928620Y-80790820D01*
D34*
X133878620Y-68340820D02*
X133878620Y-67440820D01*
X134878620Y-66440820D02*
X134878620Y-62040820D01*
X133878620Y-67440820D02*
X134878620Y-66440820D01*
X134878620Y-62040820D02*
X136278620Y-62040820D01*
X133178620Y-62040820D02*
X134878620Y-62040820D01*
D32*
X129028620Y-79750820D02*
X129028620Y-80569148D01*
X129274293Y-80814821D02*
X130904619Y-80814821D01*
X130904619Y-80814821D02*
X130928620Y-80790820D01*
X129028620Y-80569148D02*
X129274293Y-80814821D01*
X130678620Y-71740820D02*
X130278620Y-72140820D01*
X131678620Y-71740820D02*
X130678620Y-71740820D01*
X132578620Y-85140820D02*
X131978620Y-84540820D01*
X130278620Y-72140820D02*
X130278620Y-72978320D01*
X131978620Y-72040820D02*
X131678620Y-71740820D01*
X132578620Y-86340820D02*
X132578620Y-85140820D01*
X132378620Y-86540820D02*
X132578620Y-86340820D01*
X131852621Y-80814821D02*
X131978620Y-80940820D01*
X130904619Y-80814821D02*
X131852621Y-80814821D01*
X131978620Y-80940820D02*
X131978620Y-72040820D01*
X131978620Y-84540820D02*
X131978620Y-80940820D01*
D34*
X133078620Y-70940820D02*
X131978620Y-72040820D01*
X133878620Y-70940820D02*
X133078620Y-70940820D01*
X139178620Y-73740820D02*
X139178620Y-73840820D01*
X140378620Y-73740820D02*
X139178620Y-73740820D01*
X141178620Y-85340820D02*
X141178620Y-74540820D01*
X140276610Y-86242830D02*
X141178620Y-85340820D01*
X141178620Y-74540820D02*
X140378620Y-73740820D01*
X134976610Y-86242830D02*
X140276610Y-86242830D01*
X139178620Y-73840820D02*
X138978620Y-74040820D01*
X134678620Y-86540820D02*
X134976610Y-86242830D01*
X138978620Y-74040820D02*
X138978620Y-75815820D01*
X132378620Y-86540820D02*
X134678620Y-86540820D01*
D33*
X129336120Y-86360820D02*
X129516120Y-86540820D01*
X129478620Y-87640820D02*
X128198620Y-86360820D01*
X129478620Y-88478320D02*
X129478620Y-87640820D01*
X128198620Y-86360820D02*
X129336120Y-86360820D01*
X125728620Y-86360820D02*
X128198620Y-86360820D01*
X125728620Y-91440820D02*
X126578620Y-91440820D01*
X127578620Y-92440820D02*
X129516120Y-92440820D01*
X126578620Y-91440820D02*
X127578620Y-92440820D01*
X129516120Y-90240820D02*
X129478620Y-90203320D01*
X129516120Y-92440820D02*
X129516120Y-90240820D01*
D34*
X125728620Y-63500820D02*
X124488620Y-64740820D01*
X124488620Y-64740820D02*
X124478620Y-64740820D01*
X124478620Y-64740820D02*
X124178620Y-65040820D01*
X124178620Y-89890820D02*
X125728620Y-91440820D01*
X124178620Y-65040820D02*
X124178620Y-89890820D01*
X100102461Y-65797540D02*
X101334460Y-65797540D01*
X101334460Y-65797540D02*
X104902000Y-69365080D01*
X104902000Y-69365080D02*
X104902000Y-71374000D01*
X107230001Y-77693999D02*
X106172000Y-78752000D01*
X107230001Y-73702001D02*
X107230001Y-77693999D01*
X104902000Y-71374000D02*
X107230001Y-73702001D01*
D32*
X135838620Y-87293320D02*
X135878620Y-87253320D01*
X135838620Y-89840820D02*
X135838620Y-87293320D01*
X138378620Y-87353320D02*
X138478620Y-87253320D01*
X138378620Y-89840820D02*
X138378620Y-87353320D01*
D34*
X136678620Y-65453320D02*
X136678620Y-66140820D01*
X136678620Y-66140820D02*
X134878620Y-67940820D01*
X134878620Y-71100820D02*
X134898620Y-71120820D01*
X134878620Y-67940820D02*
X134878620Y-71100820D01*
X138578620Y-68840820D02*
X138678620Y-68740820D01*
X137128620Y-68840820D02*
X138578620Y-68840820D01*
X132828620Y-68840820D02*
X131578620Y-68840820D01*
X131578620Y-68840820D02*
X130978620Y-68240820D01*
X130978620Y-68240820D02*
X130978620Y-67440820D01*
X130978620Y-67440820D02*
X131778620Y-66640820D01*
X131778620Y-66640820D02*
X133078620Y-66640820D01*
X133278620Y-66440820D02*
X133278620Y-65453320D01*
X133078620Y-66640820D02*
X133278620Y-66440820D01*
X132828620Y-69340820D02*
X130178620Y-69340820D01*
X130178620Y-69340820D02*
X129978620Y-69140820D01*
X128178620Y-66040820D02*
X129978620Y-67840820D01*
X125728620Y-66040820D02*
X128178620Y-66040820D01*
X129978620Y-67840820D02*
X129978620Y-65353320D01*
X129978620Y-69140820D02*
X129978620Y-67840820D01*
X140978620Y-66240820D02*
X140678620Y-65940820D01*
X137128620Y-69340820D02*
X137255621Y-69467821D01*
X137255621Y-69467821D02*
X139703775Y-69467821D01*
X139703775Y-69467821D02*
X140978620Y-68192976D01*
X140978620Y-68192976D02*
X140978620Y-66240820D01*
X140678620Y-65940820D02*
X140678620Y-65453320D01*
X97432500Y-65927501D02*
X97562461Y-65797540D01*
X97432500Y-71120000D02*
X97432500Y-65927501D01*
X133700292Y-85440820D02*
X135866120Y-85440820D01*
X132878620Y-84619148D02*
X133700292Y-85440820D01*
X135866120Y-85440820D02*
X135878620Y-85428320D01*
X133878620Y-78940820D02*
X132878620Y-79940820D01*
X132878620Y-79940820D02*
X132878620Y-84619148D01*
X135278620Y-78940820D02*
X133878620Y-78940820D01*
X135478620Y-78740820D02*
X135278620Y-78940820D01*
X135478620Y-77765820D02*
X135478620Y-78740820D01*
X135878620Y-85428320D02*
X135878620Y-85140820D01*
X135878620Y-85140820D02*
X136578620Y-84440820D01*
X136578620Y-83467480D02*
X135951960Y-82840820D01*
X136578620Y-84440820D02*
X136578620Y-83467480D01*
X135951960Y-82840820D02*
X135951960Y-82814160D01*
X135678620Y-82540820D02*
X135678620Y-82028320D01*
X135951960Y-82814160D02*
X135678620Y-82540820D01*
X138478620Y-85428320D02*
X138478620Y-85140820D01*
X138478620Y-85140820D02*
X139278620Y-84340820D01*
X139278620Y-84340820D02*
X140178620Y-84340820D01*
X140580630Y-83938810D02*
X140580630Y-78942830D01*
X140178620Y-84340820D02*
X140580630Y-83938810D01*
X140580630Y-78942830D02*
X140378620Y-78740820D01*
X140378620Y-78740820D02*
X139078620Y-78740820D01*
X138978620Y-78640820D02*
X138978620Y-77865820D01*
X139078620Y-78740820D02*
X138978620Y-78640820D01*
X137978620Y-82540820D02*
X137978620Y-82028320D01*
X137678620Y-82840820D02*
X137978620Y-82540820D01*
X137178620Y-82840820D02*
X137678620Y-82840820D01*
X137032630Y-82986810D02*
X137178620Y-82840820D01*
X137032630Y-84394830D02*
X137032630Y-82986810D01*
X137378620Y-84740820D02*
X137032630Y-84394830D01*
X137978620Y-84740820D02*
X137378620Y-84740820D01*
X138478620Y-85240820D02*
X137978620Y-84740820D01*
X138478620Y-85428320D02*
X138478620Y-85240820D01*
D35*
X154940000Y-63030100D02*
X156243000Y-64333100D01*
X156243000Y-64333100D02*
X159039000Y-64333100D01*
X160439000Y-65733100D02*
X161839000Y-65733100D01*
X159039000Y-64333100D02*
X160439000Y-65733100D01*
D34*
X204598000Y-79254000D02*
X207270000Y-79254000D01*
X213210000Y-85194000D02*
X213210000Y-88524540D01*
X207270000Y-79254000D02*
X213210000Y-85194000D01*
X212105460Y-66024540D02*
X213210000Y-66024540D01*
X211582000Y-66548000D02*
X212105460Y-66024540D01*
X211582000Y-72644000D02*
X211582000Y-66548000D01*
X209052000Y-75174000D02*
X211582000Y-72644000D01*
X204598000Y-75174000D02*
X209052000Y-75174000D01*
X211074000Y-64687270D02*
X212276730Y-63484540D01*
X211074000Y-72509934D02*
X211074000Y-64687270D01*
X212276730Y-63484540D02*
X213210000Y-63484540D01*
X208907934Y-74676000D02*
X211074000Y-72509934D01*
X206248000Y-74676000D02*
X208907934Y-74676000D01*
X205486000Y-73914000D02*
X206248000Y-74676000D01*
X202298000Y-73914000D02*
X205486000Y-73914000D01*
X202058000Y-74154000D02*
X202298000Y-73914000D01*
M02*
