G04 #@! TF.GenerationSoftware,KiCad,Pcbnew,(5.1.9)-1*
G04 #@! TF.CreationDate,2021-03-12T17:13:45-06:00*
G04 #@! TF.ProjectId,Torch Module,546f7263-6820-44d6-9f64-756c652e6b69,rev?*
G04 #@! TF.SameCoordinates,Original*
G04 #@! TF.FileFunction,OtherDrawing,Comment*
%FSLAX46Y46*%
G04 Gerber Fmt 4.6, Leading zero omitted, Abs format (unit mm)*
G04 Created by KiCad (PCBNEW (5.1.9)-1) date 2021-03-12 17:13:45*
%MOMM*%
%LPD*%
G01*
G04 APERTURE LIST*
%ADD10C,0.150000*%
%ADD11C,0.300000*%
%ADD12C,0.100000*%
%ADD13C,0.200000*%
G04 APERTURE END LIST*
D10*
X63500000Y-101600000D02*
X231140000Y-101600000D01*
X63500000Y-43180000D02*
X63500000Y-101600000D01*
X231140000Y-43180000D02*
X63500000Y-43180000D01*
X231140000Y-101600000D02*
X231140000Y-43180000D01*
X63500000Y-180340000D02*
X63500000Y-121920000D01*
X139700000Y-180340000D02*
X63500000Y-180340000D01*
X139700000Y-121920000D02*
X139700000Y-180340000D01*
X63500000Y-121920000D02*
X139700000Y-121920000D01*
D11*
X85576000Y-130643142D02*
X87147428Y-128643142D01*
X85576000Y-128643142D02*
X87147428Y-130643142D01*
X89576000Y-128643142D02*
X89576000Y-130643142D01*
X88861714Y-127500285D02*
X88147428Y-129643142D01*
X90004571Y-129643142D01*
X93433142Y-130643142D02*
X93433142Y-127643142D01*
X94576000Y-127643142D01*
X94861714Y-127786000D01*
X95004571Y-127928857D01*
X95147428Y-128214571D01*
X95147428Y-128643142D01*
X95004571Y-128928857D01*
X94861714Y-129071714D01*
X94576000Y-129214571D01*
X93433142Y-129214571D01*
X97576000Y-130500285D02*
X97290285Y-130643142D01*
X96718857Y-130643142D01*
X96433142Y-130500285D01*
X96290285Y-130214571D01*
X96290285Y-129071714D01*
X96433142Y-128786000D01*
X96718857Y-128643142D01*
X97290285Y-128643142D01*
X97576000Y-128786000D01*
X97718857Y-129071714D01*
X97718857Y-129357428D01*
X96290285Y-129643142D01*
X99004571Y-130643142D02*
X99004571Y-128643142D01*
X99004571Y-129214571D02*
X99147428Y-128928857D01*
X99290285Y-128786000D01*
X99576000Y-128643142D01*
X99861714Y-128643142D01*
X103147428Y-130643142D02*
X103147428Y-127643142D01*
X104290285Y-127643142D01*
X104576000Y-127786000D01*
X104718857Y-127928857D01*
X104861714Y-128214571D01*
X104861714Y-128643142D01*
X104718857Y-128928857D01*
X104576000Y-129071714D01*
X104290285Y-129214571D01*
X103147428Y-129214571D01*
X107433142Y-130643142D02*
X107433142Y-129071714D01*
X107290285Y-128786000D01*
X107004571Y-128643142D01*
X106433142Y-128643142D01*
X106147428Y-128786000D01*
X107433142Y-130500285D02*
X107147428Y-130643142D01*
X106433142Y-130643142D01*
X106147428Y-130500285D01*
X106004571Y-130214571D01*
X106004571Y-129928857D01*
X106147428Y-129643142D01*
X106433142Y-129500285D01*
X107147428Y-129500285D01*
X107433142Y-129357428D01*
X108861714Y-128643142D02*
X108861714Y-130643142D01*
X108861714Y-128928857D02*
X109004571Y-128786000D01*
X109290285Y-128643142D01*
X109718857Y-128643142D01*
X110004571Y-128786000D01*
X110147428Y-129071714D01*
X110147428Y-130643142D01*
X112718857Y-130500285D02*
X112433142Y-130643142D01*
X111861714Y-130643142D01*
X111575999Y-130500285D01*
X111433142Y-130214571D01*
X111433142Y-129071714D01*
X111575999Y-128786000D01*
X111861714Y-128643142D01*
X112433142Y-128643142D01*
X112718857Y-128786000D01*
X112861714Y-129071714D01*
X112861714Y-129357428D01*
X111433142Y-129643142D01*
X114575999Y-130643142D02*
X114290285Y-130500285D01*
X114147428Y-130214571D01*
X114147428Y-127643142D01*
X80496000Y-54443142D02*
X82067428Y-52443142D01*
X80496000Y-52443142D02*
X82067428Y-54443142D01*
X84781714Y-54443142D02*
X83067428Y-54443142D01*
X83924571Y-54443142D02*
X83924571Y-51443142D01*
X83638857Y-51871714D01*
X83353142Y-52157428D01*
X83067428Y-52300285D01*
X88353142Y-54443142D02*
X88353142Y-51443142D01*
X89496000Y-51443142D01*
X89781714Y-51586000D01*
X89924571Y-51728857D01*
X90067428Y-52014571D01*
X90067428Y-52443142D01*
X89924571Y-52728857D01*
X89781714Y-52871714D01*
X89496000Y-53014571D01*
X88353142Y-53014571D01*
X92496000Y-54300285D02*
X92210285Y-54443142D01*
X91638857Y-54443142D01*
X91353142Y-54300285D01*
X91210285Y-54014571D01*
X91210285Y-52871714D01*
X91353142Y-52586000D01*
X91638857Y-52443142D01*
X92210285Y-52443142D01*
X92496000Y-52586000D01*
X92638857Y-52871714D01*
X92638857Y-53157428D01*
X91210285Y-53443142D01*
X93924571Y-54443142D02*
X93924571Y-52443142D01*
X93924571Y-53014571D02*
X94067428Y-52728857D01*
X94210285Y-52586000D01*
X94496000Y-52443142D01*
X94781714Y-52443142D01*
X98067428Y-54443142D02*
X98067428Y-51443142D01*
X99210285Y-51443142D01*
X99496000Y-51586000D01*
X99638857Y-51728857D01*
X99781714Y-52014571D01*
X99781714Y-52443142D01*
X99638857Y-52728857D01*
X99496000Y-52871714D01*
X99210285Y-53014571D01*
X98067428Y-53014571D01*
X102353142Y-54443142D02*
X102353142Y-52871714D01*
X102210285Y-52586000D01*
X101924571Y-52443142D01*
X101353142Y-52443142D01*
X101067428Y-52586000D01*
X102353142Y-54300285D02*
X102067428Y-54443142D01*
X101353142Y-54443142D01*
X101067428Y-54300285D01*
X100924571Y-54014571D01*
X100924571Y-53728857D01*
X101067428Y-53443142D01*
X101353142Y-53300285D01*
X102067428Y-53300285D01*
X102353142Y-53157428D01*
X103781714Y-52443142D02*
X103781714Y-54443142D01*
X103781714Y-52728857D02*
X103924571Y-52586000D01*
X104210285Y-52443142D01*
X104638857Y-52443142D01*
X104924571Y-52586000D01*
X105067428Y-52871714D01*
X105067428Y-54443142D01*
X107638857Y-54300285D02*
X107353142Y-54443142D01*
X106781714Y-54443142D01*
X106495999Y-54300285D01*
X106353142Y-54014571D01*
X106353142Y-52871714D01*
X106495999Y-52586000D01*
X106781714Y-52443142D01*
X107353142Y-52443142D01*
X107638857Y-52586000D01*
X107781714Y-52871714D01*
X107781714Y-53157428D01*
X106353142Y-53443142D01*
X109495999Y-54443142D02*
X109210285Y-54300285D01*
X109067428Y-54014571D01*
X109067428Y-51443142D01*
D12*
X99202000Y-66877000D02*
X114792000Y-66877000D01*
X99202000Y-87567000D02*
X99202000Y-66877000D01*
X114792000Y-87567000D02*
X99202000Y-87567000D01*
X114792000Y-66877000D02*
X114792000Y-87567000D01*
D13*
X100202000Y-68967000D02*
X113792000Y-68967000D01*
X100202000Y-85477000D02*
X100202000Y-68967000D01*
X113792000Y-85477000D02*
X100202000Y-85477000D01*
X113792000Y-68967000D02*
X113792000Y-85477000D01*
X212218000Y-69469000D02*
X212218000Y-85979000D01*
X212218000Y-85979000D02*
X198628000Y-85979000D01*
X198628000Y-85979000D02*
X198628000Y-69469000D01*
X198628000Y-69469000D02*
X212218000Y-69469000D01*
D12*
X213218000Y-67379000D02*
X213218000Y-88069000D01*
X213218000Y-88069000D02*
X197628000Y-88069000D01*
X197628000Y-88069000D02*
X197628000Y-67379000D01*
X197628000Y-67379000D02*
X213218000Y-67379000D01*
X152288000Y-73473000D02*
X167878000Y-73473000D01*
X152288000Y-94163000D02*
X152288000Y-73473000D01*
X167878000Y-94163000D02*
X152288000Y-94163000D01*
X167878000Y-73473000D02*
X167878000Y-94163000D01*
D13*
X153288000Y-75563000D02*
X166878000Y-75563000D01*
X153288000Y-92073000D02*
X153288000Y-75563000D01*
X166878000Y-92073000D02*
X153288000Y-92073000D01*
X166878000Y-75563000D02*
X166878000Y-92073000D01*
M02*
