%TF.GenerationSoftware,KiCad,Pcbnew,(5.1.8)-1*%
%TF.CreationDate,2021-02-10T13:28:33-06:00*%
%TF.ProjectId,PanelDrivers,50616e65-6c44-4726-9976-6572732e6b69,rev?*%
%TF.SameCoordinates,Original*%
%TF.FileFunction,Soldermask,Bot*%
%TF.FilePolarity,Negative*%
%FSLAX46Y46*%
G04 Gerber Fmt 4.6, Leading zero omitted, Abs format (unit mm)*
G04 Created by KiCad (PCBNEW (5.1.8)-1) date 2021-02-10 13:28:33*
%MOMM*%
%LPD*%
G01*
G04 APERTURE LIST*
%ADD10R,1.700000X1.700000*%
%ADD11O,1.700000X1.700000*%
%ADD12C,1.500000*%
%ADD13C,2.300000*%
%ADD14C,3.250000*%
%ADD15R,1.500000X1.500000*%
%ADD16C,0.500000*%
%ADD17O,2.000000X1.200000*%
%ADD18R,2.000000X1.200000*%
%ADD19C,1.524000*%
G04 APERTURE END LIST*
D10*
%TO.C,J5*%
X183456000Y-138612000D03*
D11*
X183456000Y-141152000D03*
X185996000Y-138612000D03*
X185996000Y-141152000D03*
X188536000Y-138612000D03*
X188536000Y-141152000D03*
X191076000Y-138612000D03*
X191076000Y-141152000D03*
X193616000Y-138612000D03*
X193616000Y-141152000D03*
%TD*%
D10*
%TO.C,J5*%
X131856000Y-138612000D03*
D11*
X131856000Y-141152000D03*
X134396000Y-138612000D03*
X134396000Y-141152000D03*
X136936000Y-138612000D03*
X136936000Y-141152000D03*
X139476000Y-138612000D03*
X139476000Y-141152000D03*
X142016000Y-138612000D03*
X142016000Y-141152000D03*
%TD*%
D10*
%TO.C,J5*%
X80256000Y-138612000D03*
D11*
X80256000Y-141152000D03*
X82796000Y-138612000D03*
X82796000Y-141152000D03*
X85336000Y-138612000D03*
X85336000Y-141152000D03*
X87876000Y-138612000D03*
X87876000Y-141152000D03*
X90416000Y-138612000D03*
X90416000Y-141152000D03*
%TD*%
D10*
%TO.C,J5*%
X183456000Y-107612000D03*
D11*
X183456000Y-110152000D03*
X185996000Y-107612000D03*
X185996000Y-110152000D03*
X188536000Y-107612000D03*
X188536000Y-110152000D03*
X191076000Y-107612000D03*
X191076000Y-110152000D03*
X193616000Y-107612000D03*
X193616000Y-110152000D03*
%TD*%
D10*
%TO.C,J5*%
X131856000Y-107612000D03*
D11*
X131856000Y-110152000D03*
X134396000Y-107612000D03*
X134396000Y-110152000D03*
X136936000Y-107612000D03*
X136936000Y-110152000D03*
X139476000Y-107612000D03*
X139476000Y-110152000D03*
X142016000Y-107612000D03*
X142016000Y-110152000D03*
%TD*%
D10*
%TO.C,J5*%
X80256000Y-107612000D03*
D11*
X80256000Y-110152000D03*
X82796000Y-107612000D03*
X82796000Y-110152000D03*
X85336000Y-107612000D03*
X85336000Y-110152000D03*
X87876000Y-107612000D03*
X87876000Y-110152000D03*
X90416000Y-107612000D03*
X90416000Y-110152000D03*
%TD*%
D10*
%TO.C,J5*%
X183456000Y-76612000D03*
D11*
X183456000Y-79152000D03*
X185996000Y-76612000D03*
X185996000Y-79152000D03*
X188536000Y-76612000D03*
X188536000Y-79152000D03*
X191076000Y-76612000D03*
X191076000Y-79152000D03*
X193616000Y-76612000D03*
X193616000Y-79152000D03*
%TD*%
D10*
%TO.C,J5*%
X131856000Y-76612000D03*
D11*
X131856000Y-79152000D03*
X134396000Y-76612000D03*
X134396000Y-79152000D03*
X136936000Y-76612000D03*
X136936000Y-79152000D03*
X139476000Y-76612000D03*
X139476000Y-79152000D03*
X142016000Y-76612000D03*
X142016000Y-79152000D03*
%TD*%
D12*
%TO.C,J6*%
X195020000Y-134700000D03*
X192730000Y-134700000D03*
X183590000Y-134700000D03*
X181300000Y-134700000D03*
D13*
X180030000Y-128990000D03*
X196290000Y-128990000D03*
D14*
X194510000Y-125560000D03*
X181810000Y-125560000D03*
D12*
X191712000Y-129880000D03*
X189680000Y-129880000D03*
X187648000Y-129880000D03*
X185616000Y-129880000D03*
X190696000Y-128100000D03*
X188664000Y-128100000D03*
X186632000Y-128100000D03*
D15*
X184600000Y-128100000D03*
%TD*%
D12*
%TO.C,J6*%
X143420000Y-134700000D03*
X141130000Y-134700000D03*
X131990000Y-134700000D03*
X129700000Y-134700000D03*
D13*
X128430000Y-128990000D03*
X144690000Y-128990000D03*
D14*
X142910000Y-125560000D03*
X130210000Y-125560000D03*
D12*
X140112000Y-129880000D03*
X138080000Y-129880000D03*
X136048000Y-129880000D03*
X134016000Y-129880000D03*
X139096000Y-128100000D03*
X137064000Y-128100000D03*
X135032000Y-128100000D03*
D15*
X133000000Y-128100000D03*
%TD*%
D12*
%TO.C,J6*%
X91820000Y-134700000D03*
X89530000Y-134700000D03*
X80390000Y-134700000D03*
X78100000Y-134700000D03*
D13*
X76830000Y-128990000D03*
X93090000Y-128990000D03*
D14*
X91310000Y-125560000D03*
X78610000Y-125560000D03*
D12*
X88512000Y-129880000D03*
X86480000Y-129880000D03*
X84448000Y-129880000D03*
X82416000Y-129880000D03*
X87496000Y-128100000D03*
X85464000Y-128100000D03*
X83432000Y-128100000D03*
D15*
X81400000Y-128100000D03*
%TD*%
D12*
%TO.C,J6*%
X195020000Y-103700000D03*
X192730000Y-103700000D03*
X183590000Y-103700000D03*
X181300000Y-103700000D03*
D13*
X180030000Y-97990000D03*
X196290000Y-97990000D03*
D14*
X194510000Y-94560000D03*
X181810000Y-94560000D03*
D12*
X191712000Y-98880000D03*
X189680000Y-98880000D03*
X187648000Y-98880000D03*
X185616000Y-98880000D03*
X190696000Y-97100000D03*
X188664000Y-97100000D03*
X186632000Y-97100000D03*
D15*
X184600000Y-97100000D03*
%TD*%
D12*
%TO.C,J6*%
X143420000Y-103700000D03*
X141130000Y-103700000D03*
X131990000Y-103700000D03*
X129700000Y-103700000D03*
D13*
X128430000Y-97990000D03*
X144690000Y-97990000D03*
D14*
X142910000Y-94560000D03*
X130210000Y-94560000D03*
D12*
X140112000Y-98880000D03*
X138080000Y-98880000D03*
X136048000Y-98880000D03*
X134016000Y-98880000D03*
X139096000Y-97100000D03*
X137064000Y-97100000D03*
X135032000Y-97100000D03*
D15*
X133000000Y-97100000D03*
%TD*%
D12*
%TO.C,J6*%
X91820000Y-103700000D03*
X89530000Y-103700000D03*
X80390000Y-103700000D03*
X78100000Y-103700000D03*
D13*
X76830000Y-97990000D03*
X93090000Y-97990000D03*
D14*
X91310000Y-94560000D03*
X78610000Y-94560000D03*
D12*
X88512000Y-98880000D03*
X86480000Y-98880000D03*
X84448000Y-98880000D03*
X82416000Y-98880000D03*
X87496000Y-97100000D03*
X85464000Y-97100000D03*
X83432000Y-97100000D03*
D15*
X81400000Y-97100000D03*
%TD*%
D12*
%TO.C,J6*%
X195020000Y-72700000D03*
X192730000Y-72700000D03*
X183590000Y-72700000D03*
X181300000Y-72700000D03*
D13*
X180030000Y-66990000D03*
X196290000Y-66990000D03*
D14*
X194510000Y-63560000D03*
X181810000Y-63560000D03*
D12*
X191712000Y-67880000D03*
X189680000Y-67880000D03*
X187648000Y-67880000D03*
X185616000Y-67880000D03*
X190696000Y-66100000D03*
X188664000Y-66100000D03*
X186632000Y-66100000D03*
D15*
X184600000Y-66100000D03*
%TD*%
D12*
%TO.C,J6*%
X143420000Y-72700000D03*
X141130000Y-72700000D03*
X131990000Y-72700000D03*
X129700000Y-72700000D03*
D13*
X128430000Y-66990000D03*
X144690000Y-66990000D03*
D14*
X142910000Y-63560000D03*
X130210000Y-63560000D03*
D12*
X140112000Y-67880000D03*
X138080000Y-67880000D03*
X136048000Y-67880000D03*
X134016000Y-67880000D03*
X139096000Y-66100000D03*
X137064000Y-66100000D03*
X135032000Y-66100000D03*
D15*
X133000000Y-66100000D03*
%TD*%
%TO.C,R40*%
G36*
G01*
X194125000Y-132637500D02*
X194125000Y-132162500D01*
G75*
G02*
X194362500Y-131925000I237500J0D01*
G01*
X194862500Y-131925000D01*
G75*
G02*
X195100000Y-132162500I0J-237500D01*
G01*
X195100000Y-132637500D01*
G75*
G02*
X194862500Y-132875000I-237500J0D01*
G01*
X194362500Y-132875000D01*
G75*
G02*
X194125000Y-132637500I0J237500D01*
G01*
G37*
G36*
G01*
X192300000Y-132637500D02*
X192300000Y-132162500D01*
G75*
G02*
X192537500Y-131925000I237500J0D01*
G01*
X193037500Y-131925000D01*
G75*
G02*
X193275000Y-132162500I0J-237500D01*
G01*
X193275000Y-132637500D01*
G75*
G02*
X193037500Y-132875000I-237500J0D01*
G01*
X192537500Y-132875000D01*
G75*
G02*
X192300000Y-132637500I0J237500D01*
G01*
G37*
%TD*%
%TO.C,R40*%
G36*
G01*
X142525000Y-132637500D02*
X142525000Y-132162500D01*
G75*
G02*
X142762500Y-131925000I237500J0D01*
G01*
X143262500Y-131925000D01*
G75*
G02*
X143500000Y-132162500I0J-237500D01*
G01*
X143500000Y-132637500D01*
G75*
G02*
X143262500Y-132875000I-237500J0D01*
G01*
X142762500Y-132875000D01*
G75*
G02*
X142525000Y-132637500I0J237500D01*
G01*
G37*
G36*
G01*
X140700000Y-132637500D02*
X140700000Y-132162500D01*
G75*
G02*
X140937500Y-131925000I237500J0D01*
G01*
X141437500Y-131925000D01*
G75*
G02*
X141675000Y-132162500I0J-237500D01*
G01*
X141675000Y-132637500D01*
G75*
G02*
X141437500Y-132875000I-237500J0D01*
G01*
X140937500Y-132875000D01*
G75*
G02*
X140700000Y-132637500I0J237500D01*
G01*
G37*
%TD*%
%TO.C,R40*%
G36*
G01*
X90925000Y-132637500D02*
X90925000Y-132162500D01*
G75*
G02*
X91162500Y-131925000I237500J0D01*
G01*
X91662500Y-131925000D01*
G75*
G02*
X91900000Y-132162500I0J-237500D01*
G01*
X91900000Y-132637500D01*
G75*
G02*
X91662500Y-132875000I-237500J0D01*
G01*
X91162500Y-132875000D01*
G75*
G02*
X90925000Y-132637500I0J237500D01*
G01*
G37*
G36*
G01*
X89100000Y-132637500D02*
X89100000Y-132162500D01*
G75*
G02*
X89337500Y-131925000I237500J0D01*
G01*
X89837500Y-131925000D01*
G75*
G02*
X90075000Y-132162500I0J-237500D01*
G01*
X90075000Y-132637500D01*
G75*
G02*
X89837500Y-132875000I-237500J0D01*
G01*
X89337500Y-132875000D01*
G75*
G02*
X89100000Y-132637500I0J237500D01*
G01*
G37*
%TD*%
%TO.C,R40*%
G36*
G01*
X194125000Y-101637500D02*
X194125000Y-101162500D01*
G75*
G02*
X194362500Y-100925000I237500J0D01*
G01*
X194862500Y-100925000D01*
G75*
G02*
X195100000Y-101162500I0J-237500D01*
G01*
X195100000Y-101637500D01*
G75*
G02*
X194862500Y-101875000I-237500J0D01*
G01*
X194362500Y-101875000D01*
G75*
G02*
X194125000Y-101637500I0J237500D01*
G01*
G37*
G36*
G01*
X192300000Y-101637500D02*
X192300000Y-101162500D01*
G75*
G02*
X192537500Y-100925000I237500J0D01*
G01*
X193037500Y-100925000D01*
G75*
G02*
X193275000Y-101162500I0J-237500D01*
G01*
X193275000Y-101637500D01*
G75*
G02*
X193037500Y-101875000I-237500J0D01*
G01*
X192537500Y-101875000D01*
G75*
G02*
X192300000Y-101637500I0J237500D01*
G01*
G37*
%TD*%
%TO.C,R40*%
G36*
G01*
X142525000Y-101637500D02*
X142525000Y-101162500D01*
G75*
G02*
X142762500Y-100925000I237500J0D01*
G01*
X143262500Y-100925000D01*
G75*
G02*
X143500000Y-101162500I0J-237500D01*
G01*
X143500000Y-101637500D01*
G75*
G02*
X143262500Y-101875000I-237500J0D01*
G01*
X142762500Y-101875000D01*
G75*
G02*
X142525000Y-101637500I0J237500D01*
G01*
G37*
G36*
G01*
X140700000Y-101637500D02*
X140700000Y-101162500D01*
G75*
G02*
X140937500Y-100925000I237500J0D01*
G01*
X141437500Y-100925000D01*
G75*
G02*
X141675000Y-101162500I0J-237500D01*
G01*
X141675000Y-101637500D01*
G75*
G02*
X141437500Y-101875000I-237500J0D01*
G01*
X140937500Y-101875000D01*
G75*
G02*
X140700000Y-101637500I0J237500D01*
G01*
G37*
%TD*%
%TO.C,R40*%
G36*
G01*
X90925000Y-101637500D02*
X90925000Y-101162500D01*
G75*
G02*
X91162500Y-100925000I237500J0D01*
G01*
X91662500Y-100925000D01*
G75*
G02*
X91900000Y-101162500I0J-237500D01*
G01*
X91900000Y-101637500D01*
G75*
G02*
X91662500Y-101875000I-237500J0D01*
G01*
X91162500Y-101875000D01*
G75*
G02*
X90925000Y-101637500I0J237500D01*
G01*
G37*
G36*
G01*
X89100000Y-101637500D02*
X89100000Y-101162500D01*
G75*
G02*
X89337500Y-100925000I237500J0D01*
G01*
X89837500Y-100925000D01*
G75*
G02*
X90075000Y-101162500I0J-237500D01*
G01*
X90075000Y-101637500D01*
G75*
G02*
X89837500Y-101875000I-237500J0D01*
G01*
X89337500Y-101875000D01*
G75*
G02*
X89100000Y-101637500I0J237500D01*
G01*
G37*
%TD*%
%TO.C,R40*%
G36*
G01*
X194125000Y-70637500D02*
X194125000Y-70162500D01*
G75*
G02*
X194362500Y-69925000I237500J0D01*
G01*
X194862500Y-69925000D01*
G75*
G02*
X195100000Y-70162500I0J-237500D01*
G01*
X195100000Y-70637500D01*
G75*
G02*
X194862500Y-70875000I-237500J0D01*
G01*
X194362500Y-70875000D01*
G75*
G02*
X194125000Y-70637500I0J237500D01*
G01*
G37*
G36*
G01*
X192300000Y-70637500D02*
X192300000Y-70162500D01*
G75*
G02*
X192537500Y-69925000I237500J0D01*
G01*
X193037500Y-69925000D01*
G75*
G02*
X193275000Y-70162500I0J-237500D01*
G01*
X193275000Y-70637500D01*
G75*
G02*
X193037500Y-70875000I-237500J0D01*
G01*
X192537500Y-70875000D01*
G75*
G02*
X192300000Y-70637500I0J237500D01*
G01*
G37*
%TD*%
%TO.C,R40*%
G36*
G01*
X142525000Y-70637500D02*
X142525000Y-70162500D01*
G75*
G02*
X142762500Y-69925000I237500J0D01*
G01*
X143262500Y-69925000D01*
G75*
G02*
X143500000Y-70162500I0J-237500D01*
G01*
X143500000Y-70637500D01*
G75*
G02*
X143262500Y-70875000I-237500J0D01*
G01*
X142762500Y-70875000D01*
G75*
G02*
X142525000Y-70637500I0J237500D01*
G01*
G37*
G36*
G01*
X140700000Y-70637500D02*
X140700000Y-70162500D01*
G75*
G02*
X140937500Y-69925000I237500J0D01*
G01*
X141437500Y-69925000D01*
G75*
G02*
X141675000Y-70162500I0J-237500D01*
G01*
X141675000Y-70637500D01*
G75*
G02*
X141437500Y-70875000I-237500J0D01*
G01*
X140937500Y-70875000D01*
G75*
G02*
X140700000Y-70637500I0J237500D01*
G01*
G37*
%TD*%
%TO.C,R41*%
G36*
G01*
X181300000Y-132937500D02*
X181300000Y-132462500D01*
G75*
G02*
X181537500Y-132225000I237500J0D01*
G01*
X182037500Y-132225000D01*
G75*
G02*
X182275000Y-132462500I0J-237500D01*
G01*
X182275000Y-132937500D01*
G75*
G02*
X182037500Y-133175000I-237500J0D01*
G01*
X181537500Y-133175000D01*
G75*
G02*
X181300000Y-132937500I0J237500D01*
G01*
G37*
G36*
G01*
X183125000Y-132937500D02*
X183125000Y-132462500D01*
G75*
G02*
X183362500Y-132225000I237500J0D01*
G01*
X183862500Y-132225000D01*
G75*
G02*
X184100000Y-132462500I0J-237500D01*
G01*
X184100000Y-132937500D01*
G75*
G02*
X183862500Y-133175000I-237500J0D01*
G01*
X183362500Y-133175000D01*
G75*
G02*
X183125000Y-132937500I0J237500D01*
G01*
G37*
%TD*%
%TO.C,R41*%
G36*
G01*
X129700000Y-132937500D02*
X129700000Y-132462500D01*
G75*
G02*
X129937500Y-132225000I237500J0D01*
G01*
X130437500Y-132225000D01*
G75*
G02*
X130675000Y-132462500I0J-237500D01*
G01*
X130675000Y-132937500D01*
G75*
G02*
X130437500Y-133175000I-237500J0D01*
G01*
X129937500Y-133175000D01*
G75*
G02*
X129700000Y-132937500I0J237500D01*
G01*
G37*
G36*
G01*
X131525000Y-132937500D02*
X131525000Y-132462500D01*
G75*
G02*
X131762500Y-132225000I237500J0D01*
G01*
X132262500Y-132225000D01*
G75*
G02*
X132500000Y-132462500I0J-237500D01*
G01*
X132500000Y-132937500D01*
G75*
G02*
X132262500Y-133175000I-237500J0D01*
G01*
X131762500Y-133175000D01*
G75*
G02*
X131525000Y-132937500I0J237500D01*
G01*
G37*
%TD*%
%TO.C,R41*%
G36*
G01*
X78100000Y-132937500D02*
X78100000Y-132462500D01*
G75*
G02*
X78337500Y-132225000I237500J0D01*
G01*
X78837500Y-132225000D01*
G75*
G02*
X79075000Y-132462500I0J-237500D01*
G01*
X79075000Y-132937500D01*
G75*
G02*
X78837500Y-133175000I-237500J0D01*
G01*
X78337500Y-133175000D01*
G75*
G02*
X78100000Y-132937500I0J237500D01*
G01*
G37*
G36*
G01*
X79925000Y-132937500D02*
X79925000Y-132462500D01*
G75*
G02*
X80162500Y-132225000I237500J0D01*
G01*
X80662500Y-132225000D01*
G75*
G02*
X80900000Y-132462500I0J-237500D01*
G01*
X80900000Y-132937500D01*
G75*
G02*
X80662500Y-133175000I-237500J0D01*
G01*
X80162500Y-133175000D01*
G75*
G02*
X79925000Y-132937500I0J237500D01*
G01*
G37*
%TD*%
%TO.C,R41*%
G36*
G01*
X181300000Y-101937500D02*
X181300000Y-101462500D01*
G75*
G02*
X181537500Y-101225000I237500J0D01*
G01*
X182037500Y-101225000D01*
G75*
G02*
X182275000Y-101462500I0J-237500D01*
G01*
X182275000Y-101937500D01*
G75*
G02*
X182037500Y-102175000I-237500J0D01*
G01*
X181537500Y-102175000D01*
G75*
G02*
X181300000Y-101937500I0J237500D01*
G01*
G37*
G36*
G01*
X183125000Y-101937500D02*
X183125000Y-101462500D01*
G75*
G02*
X183362500Y-101225000I237500J0D01*
G01*
X183862500Y-101225000D01*
G75*
G02*
X184100000Y-101462500I0J-237500D01*
G01*
X184100000Y-101937500D01*
G75*
G02*
X183862500Y-102175000I-237500J0D01*
G01*
X183362500Y-102175000D01*
G75*
G02*
X183125000Y-101937500I0J237500D01*
G01*
G37*
%TD*%
%TO.C,R41*%
G36*
G01*
X129700000Y-101937500D02*
X129700000Y-101462500D01*
G75*
G02*
X129937500Y-101225000I237500J0D01*
G01*
X130437500Y-101225000D01*
G75*
G02*
X130675000Y-101462500I0J-237500D01*
G01*
X130675000Y-101937500D01*
G75*
G02*
X130437500Y-102175000I-237500J0D01*
G01*
X129937500Y-102175000D01*
G75*
G02*
X129700000Y-101937500I0J237500D01*
G01*
G37*
G36*
G01*
X131525000Y-101937500D02*
X131525000Y-101462500D01*
G75*
G02*
X131762500Y-101225000I237500J0D01*
G01*
X132262500Y-101225000D01*
G75*
G02*
X132500000Y-101462500I0J-237500D01*
G01*
X132500000Y-101937500D01*
G75*
G02*
X132262500Y-102175000I-237500J0D01*
G01*
X131762500Y-102175000D01*
G75*
G02*
X131525000Y-101937500I0J237500D01*
G01*
G37*
%TD*%
%TO.C,R41*%
G36*
G01*
X78100000Y-101937500D02*
X78100000Y-101462500D01*
G75*
G02*
X78337500Y-101225000I237500J0D01*
G01*
X78837500Y-101225000D01*
G75*
G02*
X79075000Y-101462500I0J-237500D01*
G01*
X79075000Y-101937500D01*
G75*
G02*
X78837500Y-102175000I-237500J0D01*
G01*
X78337500Y-102175000D01*
G75*
G02*
X78100000Y-101937500I0J237500D01*
G01*
G37*
G36*
G01*
X79925000Y-101937500D02*
X79925000Y-101462500D01*
G75*
G02*
X80162500Y-101225000I237500J0D01*
G01*
X80662500Y-101225000D01*
G75*
G02*
X80900000Y-101462500I0J-237500D01*
G01*
X80900000Y-101937500D01*
G75*
G02*
X80662500Y-102175000I-237500J0D01*
G01*
X80162500Y-102175000D01*
G75*
G02*
X79925000Y-101937500I0J237500D01*
G01*
G37*
%TD*%
%TO.C,R41*%
G36*
G01*
X181300000Y-70937500D02*
X181300000Y-70462500D01*
G75*
G02*
X181537500Y-70225000I237500J0D01*
G01*
X182037500Y-70225000D01*
G75*
G02*
X182275000Y-70462500I0J-237500D01*
G01*
X182275000Y-70937500D01*
G75*
G02*
X182037500Y-71175000I-237500J0D01*
G01*
X181537500Y-71175000D01*
G75*
G02*
X181300000Y-70937500I0J237500D01*
G01*
G37*
G36*
G01*
X183125000Y-70937500D02*
X183125000Y-70462500D01*
G75*
G02*
X183362500Y-70225000I237500J0D01*
G01*
X183862500Y-70225000D01*
G75*
G02*
X184100000Y-70462500I0J-237500D01*
G01*
X184100000Y-70937500D01*
G75*
G02*
X183862500Y-71175000I-237500J0D01*
G01*
X183362500Y-71175000D01*
G75*
G02*
X183125000Y-70937500I0J237500D01*
G01*
G37*
%TD*%
%TO.C,R41*%
G36*
G01*
X129700000Y-70937500D02*
X129700000Y-70462500D01*
G75*
G02*
X129937500Y-70225000I237500J0D01*
G01*
X130437500Y-70225000D01*
G75*
G02*
X130675000Y-70462500I0J-237500D01*
G01*
X130675000Y-70937500D01*
G75*
G02*
X130437500Y-71175000I-237500J0D01*
G01*
X129937500Y-71175000D01*
G75*
G02*
X129700000Y-70937500I0J237500D01*
G01*
G37*
G36*
G01*
X131525000Y-70937500D02*
X131525000Y-70462500D01*
G75*
G02*
X131762500Y-70225000I237500J0D01*
G01*
X132262500Y-70225000D01*
G75*
G02*
X132500000Y-70462500I0J-237500D01*
G01*
X132500000Y-70937500D01*
G75*
G02*
X132262500Y-71175000I-237500J0D01*
G01*
X131762500Y-71175000D01*
G75*
G02*
X131525000Y-70937500I0J237500D01*
G01*
G37*
%TD*%
D16*
%TO.C,REF\u002A\u002A*%
X198100000Y-131297400D03*
X198100000Y-127297400D03*
X198100000Y-130297400D03*
X198100000Y-128297400D03*
X198100000Y-129297400D03*
%TD*%
%TO.C,REF\u002A\u002A*%
X146500000Y-131297400D03*
X146500000Y-127297400D03*
X146500000Y-130297400D03*
X146500000Y-128297400D03*
X146500000Y-129297400D03*
%TD*%
%TO.C,REF\u002A\u002A*%
X94900000Y-131297400D03*
X94900000Y-127297400D03*
X94900000Y-130297400D03*
X94900000Y-128297400D03*
X94900000Y-129297400D03*
%TD*%
%TO.C,REF\u002A\u002A*%
X198100000Y-100297400D03*
X198100000Y-96297400D03*
X198100000Y-99297400D03*
X198100000Y-97297400D03*
X198100000Y-98297400D03*
%TD*%
%TO.C,REF\u002A\u002A*%
X146500000Y-100297400D03*
X146500000Y-96297400D03*
X146500000Y-99297400D03*
X146500000Y-97297400D03*
X146500000Y-98297400D03*
%TD*%
%TO.C,REF\u002A\u002A*%
X94900000Y-100297400D03*
X94900000Y-96297400D03*
X94900000Y-99297400D03*
X94900000Y-97297400D03*
X94900000Y-98297400D03*
%TD*%
%TO.C,REF\u002A\u002A*%
X198100000Y-69297400D03*
X198100000Y-65297400D03*
X198100000Y-68297400D03*
X198100000Y-66297400D03*
X198100000Y-67297400D03*
%TD*%
%TO.C,REF\u002A\u002A*%
X146500000Y-69297400D03*
X146500000Y-65297400D03*
X146500000Y-68297400D03*
X146500000Y-66297400D03*
X146500000Y-67297400D03*
%TD*%
%TO.C,REF\u002A\u002A*%
X178300000Y-127246600D03*
X178300000Y-131246600D03*
X178300000Y-128246600D03*
X178300000Y-130246600D03*
X178300000Y-129246600D03*
%TD*%
%TO.C,REF\u002A\u002A*%
X126700000Y-127246600D03*
X126700000Y-131246600D03*
X126700000Y-128246600D03*
X126700000Y-130246600D03*
X126700000Y-129246600D03*
%TD*%
%TO.C,REF\u002A\u002A*%
X75100000Y-127246600D03*
X75100000Y-131246600D03*
X75100000Y-128246600D03*
X75100000Y-130246600D03*
X75100000Y-129246600D03*
%TD*%
%TO.C,REF\u002A\u002A*%
X178300000Y-96246600D03*
X178300000Y-100246600D03*
X178300000Y-97246600D03*
X178300000Y-99246600D03*
X178300000Y-98246600D03*
%TD*%
%TO.C,REF\u002A\u002A*%
X126700000Y-96246600D03*
X126700000Y-100246600D03*
X126700000Y-97246600D03*
X126700000Y-99246600D03*
X126700000Y-98246600D03*
%TD*%
%TO.C,REF\u002A\u002A*%
X75100000Y-96246600D03*
X75100000Y-100246600D03*
X75100000Y-97246600D03*
X75100000Y-99246600D03*
X75100000Y-98246600D03*
%TD*%
%TO.C,REF\u002A\u002A*%
X178300000Y-65246600D03*
X178300000Y-69246600D03*
X178300000Y-66246600D03*
X178300000Y-68246600D03*
X178300000Y-67246600D03*
%TD*%
%TO.C,REF\u002A\u002A*%
X126700000Y-65246600D03*
X126700000Y-69246600D03*
X126700000Y-66246600D03*
X126700000Y-68246600D03*
X126700000Y-67246600D03*
%TD*%
%TO.C,REF\u002A\u002A*%
X178350000Y-116300000D03*
X178350000Y-117300000D03*
X178350000Y-115300000D03*
X178350000Y-118300000D03*
X178350000Y-114300000D03*
%TD*%
%TO.C,REF\u002A\u002A*%
X126750000Y-116300000D03*
X126750000Y-117300000D03*
X126750000Y-115300000D03*
X126750000Y-118300000D03*
X126750000Y-114300000D03*
%TD*%
%TO.C,REF\u002A\u002A*%
X75150000Y-116300000D03*
X75150000Y-117300000D03*
X75150000Y-115300000D03*
X75150000Y-118300000D03*
X75150000Y-114300000D03*
%TD*%
%TO.C,REF\u002A\u002A*%
X178350000Y-85300000D03*
X178350000Y-86300000D03*
X178350000Y-84300000D03*
X178350000Y-87300000D03*
X178350000Y-83300000D03*
%TD*%
%TO.C,REF\u002A\u002A*%
X126750000Y-85300000D03*
X126750000Y-86300000D03*
X126750000Y-84300000D03*
X126750000Y-87300000D03*
X126750000Y-83300000D03*
%TD*%
%TO.C,REF\u002A\u002A*%
X75150000Y-85300000D03*
X75150000Y-86300000D03*
X75150000Y-84300000D03*
X75150000Y-87300000D03*
X75150000Y-83300000D03*
%TD*%
%TO.C,REF\u002A\u002A*%
X178350000Y-54300000D03*
X178350000Y-55300000D03*
X178350000Y-53300000D03*
X178350000Y-56300000D03*
X178350000Y-52300000D03*
%TD*%
%TO.C,REF\u002A\u002A*%
X126750000Y-54300000D03*
X126750000Y-55300000D03*
X126750000Y-53300000D03*
X126750000Y-56300000D03*
X126750000Y-52300000D03*
%TD*%
%TO.C,REF\u002A\u002A*%
X186778200Y-143241000D03*
X190778200Y-143241000D03*
X187778200Y-143241000D03*
X189778200Y-143241000D03*
X188778200Y-143241000D03*
%TD*%
%TO.C,REF\u002A\u002A*%
X135178200Y-143241000D03*
X139178200Y-143241000D03*
X136178200Y-143241000D03*
X138178200Y-143241000D03*
X137178200Y-143241000D03*
%TD*%
%TO.C,REF\u002A\u002A*%
X83578200Y-143241000D03*
X87578200Y-143241000D03*
X84578200Y-143241000D03*
X86578200Y-143241000D03*
X85578200Y-143241000D03*
%TD*%
%TO.C,REF\u002A\u002A*%
X186778200Y-112241000D03*
X190778200Y-112241000D03*
X187778200Y-112241000D03*
X189778200Y-112241000D03*
X188778200Y-112241000D03*
%TD*%
%TO.C,REF\u002A\u002A*%
X135178200Y-112241000D03*
X139178200Y-112241000D03*
X136178200Y-112241000D03*
X138178200Y-112241000D03*
X137178200Y-112241000D03*
%TD*%
%TO.C,REF\u002A\u002A*%
X83578200Y-112241000D03*
X87578200Y-112241000D03*
X84578200Y-112241000D03*
X86578200Y-112241000D03*
X85578200Y-112241000D03*
%TD*%
%TO.C,REF\u002A\u002A*%
X186778200Y-81241000D03*
X190778200Y-81241000D03*
X187778200Y-81241000D03*
X189778200Y-81241000D03*
X188778200Y-81241000D03*
%TD*%
%TO.C,REF\u002A\u002A*%
X135178200Y-81241000D03*
X139178200Y-81241000D03*
X136178200Y-81241000D03*
X138178200Y-81241000D03*
X137178200Y-81241000D03*
%TD*%
%TO.C,REF\u002A\u002A*%
X198100000Y-118300000D03*
X198100000Y-114300000D03*
X198100000Y-117300000D03*
X198100000Y-115300000D03*
X198100000Y-116300000D03*
%TD*%
%TO.C,REF\u002A\u002A*%
X146500000Y-118300000D03*
X146500000Y-114300000D03*
X146500000Y-117300000D03*
X146500000Y-115300000D03*
X146500000Y-116300000D03*
%TD*%
%TO.C,REF\u002A\u002A*%
X94900000Y-118300000D03*
X94900000Y-114300000D03*
X94900000Y-117300000D03*
X94900000Y-115300000D03*
X94900000Y-116300000D03*
%TD*%
%TO.C,REF\u002A\u002A*%
X198100000Y-87300000D03*
X198100000Y-83300000D03*
X198100000Y-86300000D03*
X198100000Y-84300000D03*
X198100000Y-85300000D03*
%TD*%
%TO.C,REF\u002A\u002A*%
X146500000Y-87300000D03*
X146500000Y-83300000D03*
X146500000Y-86300000D03*
X146500000Y-84300000D03*
X146500000Y-85300000D03*
%TD*%
%TO.C,REF\u002A\u002A*%
X94900000Y-87300000D03*
X94900000Y-83300000D03*
X94900000Y-86300000D03*
X94900000Y-84300000D03*
X94900000Y-85300000D03*
%TD*%
%TO.C,REF\u002A\u002A*%
X198100000Y-56300000D03*
X198100000Y-52300000D03*
X198100000Y-55300000D03*
X198100000Y-53300000D03*
X198100000Y-54300000D03*
%TD*%
%TO.C,REF\u002A\u002A*%
X146500000Y-56300000D03*
X146500000Y-52300000D03*
X146500000Y-55300000D03*
X146500000Y-53300000D03*
X146500000Y-54300000D03*
%TD*%
%TO.C,REF\u002A\u002A*%
X190321000Y-119527000D03*
X186321000Y-119527000D03*
X189321000Y-119527000D03*
X187321000Y-119527000D03*
X188321000Y-119527000D03*
%TD*%
%TO.C,REF\u002A\u002A*%
X138721000Y-119527000D03*
X134721000Y-119527000D03*
X137721000Y-119527000D03*
X135721000Y-119527000D03*
X136721000Y-119527000D03*
%TD*%
%TO.C,REF\u002A\u002A*%
X87121000Y-119527000D03*
X83121000Y-119527000D03*
X86121000Y-119527000D03*
X84121000Y-119527000D03*
X85121000Y-119527000D03*
%TD*%
%TO.C,REF\u002A\u002A*%
X190321000Y-88527000D03*
X186321000Y-88527000D03*
X189321000Y-88527000D03*
X187321000Y-88527000D03*
X188321000Y-88527000D03*
%TD*%
%TO.C,REF\u002A\u002A*%
X138721000Y-88527000D03*
X134721000Y-88527000D03*
X137721000Y-88527000D03*
X135721000Y-88527000D03*
X136721000Y-88527000D03*
%TD*%
%TO.C,REF\u002A\u002A*%
X87121000Y-88527000D03*
X83121000Y-88527000D03*
X86121000Y-88527000D03*
X84121000Y-88527000D03*
X85121000Y-88527000D03*
%TD*%
%TO.C,REF\u002A\u002A*%
X190321000Y-57527000D03*
X186321000Y-57527000D03*
X189321000Y-57527000D03*
X187321000Y-57527000D03*
X188321000Y-57527000D03*
%TD*%
%TO.C,REF\u002A\u002A*%
X138721000Y-57527000D03*
X134721000Y-57527000D03*
X137721000Y-57527000D03*
X135721000Y-57527000D03*
X136721000Y-57527000D03*
%TD*%
D11*
%TO.C,J5*%
X90416000Y-79152000D03*
X90416000Y-76612000D03*
X87876000Y-79152000D03*
X87876000Y-76612000D03*
X85336000Y-79152000D03*
X85336000Y-76612000D03*
X82796000Y-79152000D03*
X82796000Y-76612000D03*
X80256000Y-79152000D03*
D10*
X80256000Y-76612000D03*
%TD*%
D16*
%TO.C,REF\u002A\u002A*%
X178450000Y-147200000D03*
X178450000Y-148200000D03*
X178450000Y-146200000D03*
X178450000Y-149200000D03*
X178450000Y-145200000D03*
%TD*%
%TO.C,REF\u002A\u002A*%
X126800000Y-147200000D03*
X126800000Y-148200000D03*
X126800000Y-146200000D03*
X126800000Y-149200000D03*
X126800000Y-145200000D03*
%TD*%
%TO.C,REF\u002A\u002A*%
X198150000Y-147100000D03*
X198150000Y-146100000D03*
X198150000Y-148100000D03*
X198150000Y-145100000D03*
X198150000Y-149100000D03*
%TD*%
%TO.C,REF\u002A\u002A*%
X146500000Y-147100000D03*
X146500000Y-146100000D03*
X146500000Y-148100000D03*
X146500000Y-145100000D03*
X146500000Y-149100000D03*
%TD*%
%TO.C,REF\u002A\u002A*%
X154651300Y-130998700D03*
X154651300Y-131998700D03*
X154651300Y-129998700D03*
X154651300Y-132998700D03*
X154651300Y-128998700D03*
%TD*%
%TO.C,REF\u002A\u002A*%
X103001300Y-130998700D03*
X103001300Y-131998700D03*
X103001300Y-129998700D03*
X103001300Y-132998700D03*
X103001300Y-128998700D03*
%TD*%
D17*
%TO.C,~*%
X156555801Y-140479201D03*
D18*
X169255801Y-140479201D03*
D17*
X156555801Y-137939201D03*
X169255801Y-137939201D03*
X156555801Y-135399201D03*
X169255801Y-135399201D03*
X156555801Y-132859201D03*
X169255801Y-132859201D03*
X156555801Y-130319201D03*
X169255801Y-130319201D03*
X156555801Y-127779201D03*
X169255801Y-127779201D03*
X156555801Y-125239201D03*
X169255801Y-125239201D03*
X156555801Y-122699201D03*
X169255801Y-122699201D03*
D19*
X166715801Y-140479201D03*
X164175801Y-140479201D03*
%TD*%
D17*
%TO.C,~*%
X104905801Y-140479201D03*
D18*
X117605801Y-140479201D03*
D17*
X104905801Y-137939201D03*
X117605801Y-137939201D03*
X104905801Y-135399201D03*
X117605801Y-135399201D03*
X104905801Y-132859201D03*
X117605801Y-132859201D03*
X104905801Y-130319201D03*
X117605801Y-130319201D03*
X104905801Y-127779201D03*
X117605801Y-127779201D03*
X104905801Y-125239201D03*
X117605801Y-125239201D03*
X104905801Y-122699201D03*
X117605801Y-122699201D03*
D19*
X115065801Y-140479201D03*
X112525801Y-140479201D03*
%TD*%
D16*
%TO.C,REF\u002A\u002A*%
X162694500Y-120210700D03*
X161694500Y-120210700D03*
X163694500Y-120210700D03*
X160694500Y-120210700D03*
X164694500Y-120210700D03*
%TD*%
%TO.C,REF\u002A\u002A*%
X111044500Y-120210700D03*
X110044500Y-120210700D03*
X112044500Y-120210700D03*
X109044500Y-120210700D03*
X113044500Y-120210700D03*
%TD*%
%TO.C,REF\u002A\u002A*%
X171300000Y-131136800D03*
X171300000Y-130136800D03*
X171300000Y-132136800D03*
X171300000Y-129136800D03*
X171300000Y-133136800D03*
%TD*%
%TO.C,REF\u002A\u002A*%
X119650000Y-131136800D03*
X119650000Y-130136800D03*
X119650000Y-132136800D03*
X119650000Y-129136800D03*
X119650000Y-133136800D03*
%TD*%
%TO.C,REF\u002A\u002A*%
X154600000Y-145150000D03*
X154600000Y-149150000D03*
X154600000Y-146150000D03*
X154600000Y-148150000D03*
X154600000Y-147150000D03*
%TD*%
%TO.C,REF\u002A\u002A*%
X102950000Y-145150000D03*
X102950000Y-149150000D03*
X102950000Y-146150000D03*
X102950000Y-148150000D03*
X102950000Y-147150000D03*
%TD*%
%TO.C,REF\u002A\u002A*%
X162910400Y-143040800D03*
X163910400Y-143040800D03*
X161910400Y-143040800D03*
X164910400Y-143040800D03*
X160910400Y-143040800D03*
%TD*%
%TO.C,REF\u002A\u002A*%
X111260400Y-143040800D03*
X112260400Y-143040800D03*
X110260400Y-143040800D03*
X113260400Y-143040800D03*
X109260400Y-143040800D03*
%TD*%
%TO.C,REF\u002A\u002A*%
X171300000Y-149150000D03*
X171300000Y-145150000D03*
X171300000Y-148150000D03*
X171300000Y-146150000D03*
X171300000Y-147150000D03*
%TD*%
%TO.C,REF\u002A\u002A*%
X119650000Y-149150000D03*
X119650000Y-145150000D03*
X119650000Y-148150000D03*
X119650000Y-146150000D03*
X119650000Y-147150000D03*
%TD*%
%TO.C,REF\u002A\u002A*%
X154600000Y-52250000D03*
X154600000Y-56250000D03*
X154600000Y-53250000D03*
X154600000Y-55250000D03*
X154600000Y-54250000D03*
%TD*%
%TO.C,REF\u002A\u002A*%
X102950000Y-52250000D03*
X102950000Y-56250000D03*
X102950000Y-53250000D03*
X102950000Y-55250000D03*
X102950000Y-54250000D03*
%TD*%
%TO.C,REF\u002A\u002A*%
X171300000Y-85150000D03*
X171300000Y-84150000D03*
X171300000Y-86150000D03*
X171300000Y-83150000D03*
X171300000Y-87150000D03*
%TD*%
%TO.C,REF\u002A\u002A*%
X119650000Y-85150000D03*
X119650000Y-84150000D03*
X119650000Y-86150000D03*
X119650000Y-83150000D03*
X119650000Y-87150000D03*
%TD*%
%TO.C,REF\u002A\u002A*%
X171300000Y-56350000D03*
X171300000Y-52350000D03*
X171300000Y-55350000D03*
X171300000Y-53350000D03*
X171300000Y-54350000D03*
%TD*%
%TO.C,REF\u002A\u002A*%
X119650000Y-56350000D03*
X119650000Y-52350000D03*
X119650000Y-55350000D03*
X119650000Y-53350000D03*
X119650000Y-54350000D03*
%TD*%
%TO.C,REF\u002A\u002A*%
X171300000Y-116150000D03*
X171300000Y-115150000D03*
X171300000Y-117150000D03*
X171300000Y-114150000D03*
X171300000Y-118150000D03*
%TD*%
%TO.C,REF\u002A\u002A*%
X119650000Y-116150000D03*
X119650000Y-115150000D03*
X119650000Y-117150000D03*
X119650000Y-114150000D03*
X119650000Y-118150000D03*
%TD*%
%TO.C,REF\u002A\u002A*%
X154709700Y-69214700D03*
X154709700Y-70214700D03*
X154709700Y-68214700D03*
X154709700Y-71214700D03*
X154709700Y-67214700D03*
%TD*%
%TO.C,REF\u002A\u002A*%
X103059700Y-69214700D03*
X103059700Y-70214700D03*
X103059700Y-68214700D03*
X103059700Y-71214700D03*
X103059700Y-67214700D03*
%TD*%
%TO.C,REF\u002A\u002A*%
X171400000Y-69250000D03*
X171400000Y-68250000D03*
X171400000Y-70250000D03*
X171400000Y-67250000D03*
X171400000Y-71250000D03*
%TD*%
%TO.C,REF\u002A\u002A*%
X119750000Y-69250000D03*
X119750000Y-68250000D03*
X119750000Y-70250000D03*
X119750000Y-67250000D03*
X119750000Y-71250000D03*
%TD*%
%TO.C,REF\u002A\u002A*%
X162752900Y-58326700D03*
X161752900Y-58326700D03*
X163752900Y-58326700D03*
X160752900Y-58326700D03*
X164752900Y-58326700D03*
%TD*%
%TO.C,REF\u002A\u002A*%
X111102900Y-58326700D03*
X110102900Y-58326700D03*
X112102900Y-58326700D03*
X109102900Y-58326700D03*
X113102900Y-58326700D03*
%TD*%
D19*
%TO.C,J3*%
X166787800Y-78616400D03*
X164247800Y-78616400D03*
X164247800Y-78616400D03*
D17*
X169327800Y-60836400D03*
X156627800Y-60836400D03*
X169327800Y-63376400D03*
X156627800Y-63376400D03*
X169327800Y-65916400D03*
X156627800Y-65916400D03*
X169327800Y-68456400D03*
X156627800Y-68456400D03*
X169327800Y-70996400D03*
X156627800Y-70996400D03*
X169327800Y-73536400D03*
X156627800Y-73536400D03*
X169327800Y-76076400D03*
X156627800Y-76076400D03*
D18*
X169327800Y-78616400D03*
D17*
X156627800Y-78616400D03*
%TD*%
D19*
%TO.C,J3*%
X115137800Y-78616400D03*
X112597800Y-78616400D03*
X112597800Y-78616400D03*
D17*
X117677800Y-60836400D03*
X104977800Y-60836400D03*
X117677800Y-63376400D03*
X104977800Y-63376400D03*
X117677800Y-65916400D03*
X104977800Y-65916400D03*
X117677800Y-68456400D03*
X104977800Y-68456400D03*
X117677800Y-70996400D03*
X104977800Y-70996400D03*
X117677800Y-73536400D03*
X104977800Y-73536400D03*
X117677800Y-76076400D03*
X104977800Y-76076400D03*
D18*
X117677800Y-78616400D03*
D17*
X104977800Y-78616400D03*
%TD*%
D16*
%TO.C,REF\u002A\u002A*%
X162968800Y-81156800D03*
X163968800Y-81156800D03*
X161968800Y-81156800D03*
X164968800Y-81156800D03*
X160968800Y-81156800D03*
%TD*%
%TO.C,REF\u002A\u002A*%
X111318800Y-81156800D03*
X112318800Y-81156800D03*
X110318800Y-81156800D03*
X113318800Y-81156800D03*
X109318800Y-81156800D03*
%TD*%
D19*
%TO.C,~*%
X164175801Y-109479201D03*
X166715801Y-109479201D03*
D17*
X169255801Y-91699201D03*
X156555801Y-91699201D03*
X169255801Y-94239201D03*
X156555801Y-94239201D03*
X169255801Y-96779201D03*
X156555801Y-96779201D03*
X169255801Y-99319201D03*
X156555801Y-99319201D03*
X169255801Y-101859201D03*
X156555801Y-101859201D03*
X169255801Y-104399201D03*
X156555801Y-104399201D03*
X169255801Y-106939201D03*
X156555801Y-106939201D03*
D18*
X169255801Y-109479201D03*
D17*
X156555801Y-109479201D03*
%TD*%
D19*
%TO.C,~*%
X112525801Y-109479201D03*
X115065801Y-109479201D03*
D17*
X117605801Y-91699201D03*
X104905801Y-91699201D03*
X117605801Y-94239201D03*
X104905801Y-94239201D03*
X117605801Y-96779201D03*
X104905801Y-96779201D03*
X117605801Y-99319201D03*
X104905801Y-99319201D03*
X117605801Y-101859201D03*
X104905801Y-101859201D03*
X117605801Y-104399201D03*
X104905801Y-104399201D03*
X117605801Y-106939201D03*
X104905801Y-106939201D03*
D18*
X117605801Y-109479201D03*
D17*
X104905801Y-109479201D03*
%TD*%
D16*
%TO.C,REF\u002A\u002A*%
X164694500Y-89210700D03*
X160694500Y-89210700D03*
X163694500Y-89210700D03*
X161694500Y-89210700D03*
X162694500Y-89210700D03*
%TD*%
%TO.C,REF\u002A\u002A*%
X113044500Y-89210700D03*
X109044500Y-89210700D03*
X112044500Y-89210700D03*
X110044500Y-89210700D03*
X111044500Y-89210700D03*
%TD*%
%TO.C,REF\u002A\u002A*%
X171300000Y-102136800D03*
X171300000Y-98136800D03*
X171300000Y-101136800D03*
X171300000Y-99136800D03*
X171300000Y-100136800D03*
%TD*%
%TO.C,REF\u002A\u002A*%
X119650000Y-102136800D03*
X119650000Y-98136800D03*
X119650000Y-101136800D03*
X119650000Y-99136800D03*
X119650000Y-100136800D03*
%TD*%
%TO.C,REF\u002A\u002A*%
X154600000Y-83150000D03*
X154600000Y-87150000D03*
X154600000Y-84150000D03*
X154600000Y-86150000D03*
X154600000Y-85150000D03*
%TD*%
%TO.C,REF\u002A\u002A*%
X102950000Y-83150000D03*
X102950000Y-87150000D03*
X102950000Y-84150000D03*
X102950000Y-86150000D03*
X102950000Y-85150000D03*
%TD*%
%TO.C,REF\u002A\u002A*%
X154600000Y-116150000D03*
X154600000Y-117150000D03*
X154600000Y-115150000D03*
X154600000Y-118150000D03*
X154600000Y-114150000D03*
%TD*%
%TO.C,REF\u002A\u002A*%
X102950000Y-116150000D03*
X102950000Y-117150000D03*
X102950000Y-115150000D03*
X102950000Y-118150000D03*
X102950000Y-114150000D03*
%TD*%
%TO.C,REF\u002A\u002A*%
X160910400Y-112040800D03*
X164910400Y-112040800D03*
X161910400Y-112040800D03*
X163910400Y-112040800D03*
X162910400Y-112040800D03*
%TD*%
%TO.C,REF\u002A\u002A*%
X109260400Y-112040800D03*
X113260400Y-112040800D03*
X110260400Y-112040800D03*
X112260400Y-112040800D03*
X111260400Y-112040800D03*
%TD*%
%TO.C,REF\u002A\u002A*%
X154651300Y-97998700D03*
X154651300Y-101998700D03*
X154651300Y-98998700D03*
X154651300Y-100998700D03*
X154651300Y-99998700D03*
%TD*%
%TO.C,REF\u002A\u002A*%
X103001300Y-97998700D03*
X103001300Y-101998700D03*
X103001300Y-98998700D03*
X103001300Y-100998700D03*
X103001300Y-99998700D03*
%TD*%
%TO.C,REF\u002A\u002A*%
X75150000Y-145200000D03*
X75150000Y-149200000D03*
X75150000Y-146200000D03*
X75150000Y-148200000D03*
X75150000Y-147200000D03*
%TD*%
%TO.C,REF\u002A\u002A*%
X94850000Y-149100000D03*
X94850000Y-145100000D03*
X94850000Y-148100000D03*
X94850000Y-146100000D03*
X94850000Y-147100000D03*
%TD*%
%TO.C,REF\u002A\u002A*%
X68000000Y-147150000D03*
X68000000Y-146150000D03*
X68000000Y-148150000D03*
X68000000Y-145150000D03*
X68000000Y-149150000D03*
%TD*%
D19*
%TO.C,~*%
X60875801Y-140479201D03*
X63415801Y-140479201D03*
D17*
X65955801Y-122699201D03*
X53255801Y-122699201D03*
X65955801Y-125239201D03*
X53255801Y-125239201D03*
X65955801Y-127779201D03*
X53255801Y-127779201D03*
X65955801Y-130319201D03*
X53255801Y-130319201D03*
X65955801Y-132859201D03*
X53255801Y-132859201D03*
X65955801Y-135399201D03*
X53255801Y-135399201D03*
X65955801Y-137939201D03*
X53255801Y-137939201D03*
D18*
X65955801Y-140479201D03*
D17*
X53255801Y-140479201D03*
%TD*%
D16*
%TO.C,REF\u002A\u002A*%
X61394500Y-120210700D03*
X57394500Y-120210700D03*
X60394500Y-120210700D03*
X58394500Y-120210700D03*
X59394500Y-120210700D03*
%TD*%
%TO.C,REF\u002A\u002A*%
X68000000Y-133136800D03*
X68000000Y-129136800D03*
X68000000Y-132136800D03*
X68000000Y-130136800D03*
X68000000Y-131136800D03*
%TD*%
%TO.C,REF\u002A\u002A*%
X51300000Y-147150000D03*
X51300000Y-148150000D03*
X51300000Y-146150000D03*
X51300000Y-149150000D03*
X51300000Y-145150000D03*
%TD*%
%TO.C,REF\u002A\u002A*%
X57610400Y-143040800D03*
X61610400Y-143040800D03*
X58610400Y-143040800D03*
X60610400Y-143040800D03*
X59610400Y-143040800D03*
%TD*%
%TO.C,REF\u002A\u002A*%
X51351300Y-128998700D03*
X51351300Y-132998700D03*
X51351300Y-129998700D03*
X51351300Y-131998700D03*
X51351300Y-130998700D03*
%TD*%
%TO.C,REF\u002A\u002A*%
X94900000Y-54300000D03*
X94900000Y-53300000D03*
X94900000Y-55300000D03*
X94900000Y-52300000D03*
X94900000Y-56300000D03*
%TD*%
%TO.C,REF\u002A\u002A*%
X75150000Y-52300000D03*
X75150000Y-56300000D03*
X75150000Y-53300000D03*
X75150000Y-55300000D03*
X75150000Y-54300000D03*
%TD*%
%TO.C,REF\u002A\u002A*%
X51300000Y-54250000D03*
X51300000Y-55250000D03*
X51300000Y-53250000D03*
X51300000Y-56250000D03*
X51300000Y-52250000D03*
%TD*%
%TO.C,REF\u002A\u002A*%
X68000000Y-118150000D03*
X68000000Y-114150000D03*
X68000000Y-117150000D03*
X68000000Y-115150000D03*
X68000000Y-116150000D03*
%TD*%
%TO.C,REF\u002A\u002A*%
X68000000Y-54350000D03*
X68000000Y-53350000D03*
X68000000Y-55350000D03*
X68000000Y-52350000D03*
X68000000Y-56350000D03*
%TD*%
%TO.C,REF\u002A\u002A*%
X68000000Y-87150000D03*
X68000000Y-83150000D03*
X68000000Y-86150000D03*
X68000000Y-84150000D03*
X68000000Y-85150000D03*
%TD*%
%TO.C,REF\u002A\u002A*%
X61452900Y-58326700D03*
X57452900Y-58326700D03*
X60452900Y-58326700D03*
X58452900Y-58326700D03*
X59452900Y-58326700D03*
%TD*%
%TO.C,REF\u002A\u002A*%
X51409700Y-67214700D03*
X51409700Y-71214700D03*
X51409700Y-68214700D03*
X51409700Y-70214700D03*
X51409700Y-69214700D03*
%TD*%
%TO.C,REF\u002A\u002A*%
X68100000Y-71250000D03*
X68100000Y-67250000D03*
X68100000Y-70250000D03*
X68100000Y-68250000D03*
X68100000Y-69250000D03*
%TD*%
%TO.C,REF\u002A\u002A*%
X57668800Y-81156800D03*
X61668800Y-81156800D03*
X58668800Y-81156800D03*
X60668800Y-81156800D03*
X59668800Y-81156800D03*
%TD*%
D17*
%TO.C,J3*%
X53327800Y-78616400D03*
D18*
X66027800Y-78616400D03*
D17*
X53327800Y-76076400D03*
X66027800Y-76076400D03*
X53327800Y-73536400D03*
X66027800Y-73536400D03*
X53327800Y-70996400D03*
X66027800Y-70996400D03*
X53327800Y-68456400D03*
X66027800Y-68456400D03*
X53327800Y-65916400D03*
X66027800Y-65916400D03*
X53327800Y-63376400D03*
X66027800Y-63376400D03*
X53327800Y-60836400D03*
X66027800Y-60836400D03*
D19*
X60947800Y-78616400D03*
X60947800Y-78616400D03*
X63487800Y-78616400D03*
%TD*%
D16*
%TO.C,REF\u002A\u002A*%
X85121000Y-57527000D03*
X84121000Y-57527000D03*
X86121000Y-57527000D03*
X83121000Y-57527000D03*
X87121000Y-57527000D03*
%TD*%
%TO.C,REF\u002A\u002A*%
X75100000Y-67246600D03*
X75100000Y-68246600D03*
X75100000Y-66246600D03*
X75100000Y-69246600D03*
X75100000Y-65246600D03*
%TD*%
%TO.C,REF\u002A\u002A*%
X94900000Y-67297400D03*
X94900000Y-66297400D03*
X94900000Y-68297400D03*
X94900000Y-65297400D03*
X94900000Y-69297400D03*
%TD*%
%TO.C,REF\u002A\u002A*%
X85578200Y-81241000D03*
X86578200Y-81241000D03*
X84578200Y-81241000D03*
X87578200Y-81241000D03*
X83578200Y-81241000D03*
%TD*%
%TO.C,REF\u002A\u002A*%
X51351300Y-99998700D03*
X51351300Y-100998700D03*
X51351300Y-98998700D03*
X51351300Y-101998700D03*
X51351300Y-97998700D03*
%TD*%
%TO.C,REF\u002A\u002A*%
X51300000Y-85150000D03*
X51300000Y-86150000D03*
X51300000Y-84150000D03*
X51300000Y-87150000D03*
X51300000Y-83150000D03*
%TD*%
%TO.C,REF\u002A\u002A*%
X59394500Y-89210700D03*
X58394500Y-89210700D03*
X60394500Y-89210700D03*
X57394500Y-89210700D03*
X61394500Y-89210700D03*
%TD*%
%TO.C,REF\u002A\u002A*%
X68000000Y-100136800D03*
X68000000Y-99136800D03*
X68000000Y-101136800D03*
X68000000Y-98136800D03*
X68000000Y-102136800D03*
%TD*%
%TO.C,REF\u002A\u002A*%
X59610400Y-112040800D03*
X60610400Y-112040800D03*
X58610400Y-112040800D03*
X61610400Y-112040800D03*
X57610400Y-112040800D03*
%TD*%
%TO.C,REF\u002A\u002A*%
X51300000Y-114150000D03*
X51300000Y-118150000D03*
X51300000Y-115150000D03*
X51300000Y-117150000D03*
X51300000Y-116150000D03*
%TD*%
D17*
%TO.C,~*%
X53255801Y-109479201D03*
D18*
X65955801Y-109479201D03*
D17*
X53255801Y-106939201D03*
X65955801Y-106939201D03*
X53255801Y-104399201D03*
X65955801Y-104399201D03*
X53255801Y-101859201D03*
X65955801Y-101859201D03*
X53255801Y-99319201D03*
X65955801Y-99319201D03*
X53255801Y-96779201D03*
X65955801Y-96779201D03*
X53255801Y-94239201D03*
X65955801Y-94239201D03*
X53255801Y-91699201D03*
X65955801Y-91699201D03*
D19*
X63415801Y-109479201D03*
X60875801Y-109479201D03*
%TD*%
D15*
%TO.C,J6*%
X81400000Y-66100000D03*
D12*
X83432000Y-66100000D03*
X85464000Y-66100000D03*
X87496000Y-66100000D03*
X82416000Y-67880000D03*
X84448000Y-67880000D03*
X86480000Y-67880000D03*
X88512000Y-67880000D03*
D14*
X78610000Y-63560000D03*
X91310000Y-63560000D03*
D13*
X93090000Y-66990000D03*
X76830000Y-66990000D03*
D12*
X78100000Y-72700000D03*
X80390000Y-72700000D03*
X89530000Y-72700000D03*
X91820000Y-72700000D03*
%TD*%
%TO.C,R40*%
G36*
G01*
X89100000Y-70637500D02*
X89100000Y-70162500D01*
G75*
G02*
X89337500Y-69925000I237500J0D01*
G01*
X89837500Y-69925000D01*
G75*
G02*
X90075000Y-70162500I0J-237500D01*
G01*
X90075000Y-70637500D01*
G75*
G02*
X89837500Y-70875000I-237500J0D01*
G01*
X89337500Y-70875000D01*
G75*
G02*
X89100000Y-70637500I0J237500D01*
G01*
G37*
G36*
G01*
X90925000Y-70637500D02*
X90925000Y-70162500D01*
G75*
G02*
X91162500Y-69925000I237500J0D01*
G01*
X91662500Y-69925000D01*
G75*
G02*
X91900000Y-70162500I0J-237500D01*
G01*
X91900000Y-70637500D01*
G75*
G02*
X91662500Y-70875000I-237500J0D01*
G01*
X91162500Y-70875000D01*
G75*
G02*
X90925000Y-70637500I0J237500D01*
G01*
G37*
%TD*%
%TO.C,R41*%
G36*
G01*
X79925000Y-70937500D02*
X79925000Y-70462500D01*
G75*
G02*
X80162500Y-70225000I237500J0D01*
G01*
X80662500Y-70225000D01*
G75*
G02*
X80900000Y-70462500I0J-237500D01*
G01*
X80900000Y-70937500D01*
G75*
G02*
X80662500Y-71175000I-237500J0D01*
G01*
X80162500Y-71175000D01*
G75*
G02*
X79925000Y-70937500I0J237500D01*
G01*
G37*
G36*
G01*
X78100000Y-70937500D02*
X78100000Y-70462500D01*
G75*
G02*
X78337500Y-70225000I237500J0D01*
G01*
X78837500Y-70225000D01*
G75*
G02*
X79075000Y-70462500I0J-237500D01*
G01*
X79075000Y-70937500D01*
G75*
G02*
X78837500Y-71175000I-237500J0D01*
G01*
X78337500Y-71175000D01*
G75*
G02*
X78100000Y-70937500I0J237500D01*
G01*
G37*
%TD*%
M02*
