%TF.GenerationSoftware,KiCad,Pcbnew,(5.1.8)-1*%
%TF.CreationDate,2021-02-10T13:28:32-06:00*%
%TF.ProjectId,PanelDrivers,50616e65-6c44-4726-9976-6572732e6b69,rev?*%
%TF.SameCoordinates,Original*%
%TF.FileFunction,Paste,Top*%
%TF.FilePolarity,Positive*%
%FSLAX46Y46*%
G04 Gerber Fmt 4.6, Leading zero omitted, Abs format (unit mm)*
G04 Created by KiCad (PCBNEW (5.1.8)-1) date 2021-02-10 13:28:32*
%MOMM*%
%LPD*%
G01*
G04 APERTURE LIST*
%ADD10R,0.900000X0.800000*%
G04 APERTURE END LIST*
%TO.C,R9*%
G36*
G01*
X164131300Y-137240200D02*
X163656300Y-137240200D01*
G75*
G02*
X163418800Y-137002700I0J237500D01*
G01*
X163418800Y-136502700D01*
G75*
G02*
X163656300Y-136265200I237500J0D01*
G01*
X164131300Y-136265200D01*
G75*
G02*
X164368800Y-136502700I0J-237500D01*
G01*
X164368800Y-137002700D01*
G75*
G02*
X164131300Y-137240200I-237500J0D01*
G01*
G37*
G36*
G01*
X164131300Y-139065200D02*
X163656300Y-139065200D01*
G75*
G02*
X163418800Y-138827700I0J237500D01*
G01*
X163418800Y-138327700D01*
G75*
G02*
X163656300Y-138090200I237500J0D01*
G01*
X164131300Y-138090200D01*
G75*
G02*
X164368800Y-138327700I0J-237500D01*
G01*
X164368800Y-138827700D01*
G75*
G02*
X164131300Y-139065200I-237500J0D01*
G01*
G37*
%TD*%
%TO.C,R9*%
G36*
G01*
X112481300Y-137240200D02*
X112006300Y-137240200D01*
G75*
G02*
X111768800Y-137002700I0J237500D01*
G01*
X111768800Y-136502700D01*
G75*
G02*
X112006300Y-136265200I237500J0D01*
G01*
X112481300Y-136265200D01*
G75*
G02*
X112718800Y-136502700I0J-237500D01*
G01*
X112718800Y-137002700D01*
G75*
G02*
X112481300Y-137240200I-237500J0D01*
G01*
G37*
G36*
G01*
X112481300Y-139065200D02*
X112006300Y-139065200D01*
G75*
G02*
X111768800Y-138827700I0J237500D01*
G01*
X111768800Y-138327700D01*
G75*
G02*
X112006300Y-138090200I237500J0D01*
G01*
X112481300Y-138090200D01*
G75*
G02*
X112718800Y-138327700I0J-237500D01*
G01*
X112718800Y-138827700D01*
G75*
G02*
X112481300Y-139065200I-237500J0D01*
G01*
G37*
%TD*%
%TO.C,R10*%
G36*
G01*
X166925300Y-130937200D02*
X166450300Y-130937200D01*
G75*
G02*
X166212800Y-130699700I0J237500D01*
G01*
X166212800Y-130199700D01*
G75*
G02*
X166450300Y-129962200I237500J0D01*
G01*
X166925300Y-129962200D01*
G75*
G02*
X167162800Y-130199700I0J-237500D01*
G01*
X167162800Y-130699700D01*
G75*
G02*
X166925300Y-130937200I-237500J0D01*
G01*
G37*
G36*
G01*
X166925300Y-129112200D02*
X166450300Y-129112200D01*
G75*
G02*
X166212800Y-128874700I0J237500D01*
G01*
X166212800Y-128374700D01*
G75*
G02*
X166450300Y-128137200I237500J0D01*
G01*
X166925300Y-128137200D01*
G75*
G02*
X167162800Y-128374700I0J-237500D01*
G01*
X167162800Y-128874700D01*
G75*
G02*
X166925300Y-129112200I-237500J0D01*
G01*
G37*
%TD*%
%TO.C,R10*%
G36*
G01*
X115275300Y-130937200D02*
X114800300Y-130937200D01*
G75*
G02*
X114562800Y-130699700I0J237500D01*
G01*
X114562800Y-130199700D01*
G75*
G02*
X114800300Y-129962200I237500J0D01*
G01*
X115275300Y-129962200D01*
G75*
G02*
X115512800Y-130199700I0J-237500D01*
G01*
X115512800Y-130699700D01*
G75*
G02*
X115275300Y-130937200I-237500J0D01*
G01*
G37*
G36*
G01*
X115275300Y-129112200D02*
X114800300Y-129112200D01*
G75*
G02*
X114562800Y-128874700I0J237500D01*
G01*
X114562800Y-128374700D01*
G75*
G02*
X114800300Y-128137200I237500J0D01*
G01*
X115275300Y-128137200D01*
G75*
G02*
X115512800Y-128374700I0J-237500D01*
G01*
X115512800Y-128874700D01*
G75*
G02*
X115275300Y-129112200I-237500J0D01*
G01*
G37*
%TD*%
%TO.C,R21*%
G36*
G01*
X164131300Y-123270200D02*
X163656300Y-123270200D01*
G75*
G02*
X163418800Y-123032700I0J237500D01*
G01*
X163418800Y-122532700D01*
G75*
G02*
X163656300Y-122295200I237500J0D01*
G01*
X164131300Y-122295200D01*
G75*
G02*
X164368800Y-122532700I0J-237500D01*
G01*
X164368800Y-123032700D01*
G75*
G02*
X164131300Y-123270200I-237500J0D01*
G01*
G37*
G36*
G01*
X164131300Y-125095200D02*
X163656300Y-125095200D01*
G75*
G02*
X163418800Y-124857700I0J237500D01*
G01*
X163418800Y-124357700D01*
G75*
G02*
X163656300Y-124120200I237500J0D01*
G01*
X164131300Y-124120200D01*
G75*
G02*
X164368800Y-124357700I0J-237500D01*
G01*
X164368800Y-124857700D01*
G75*
G02*
X164131300Y-125095200I-237500J0D01*
G01*
G37*
%TD*%
%TO.C,R21*%
G36*
G01*
X112481300Y-123270200D02*
X112006300Y-123270200D01*
G75*
G02*
X111768800Y-123032700I0J237500D01*
G01*
X111768800Y-122532700D01*
G75*
G02*
X112006300Y-122295200I237500J0D01*
G01*
X112481300Y-122295200D01*
G75*
G02*
X112718800Y-122532700I0J-237500D01*
G01*
X112718800Y-123032700D01*
G75*
G02*
X112481300Y-123270200I-237500J0D01*
G01*
G37*
G36*
G01*
X112481300Y-125095200D02*
X112006300Y-125095200D01*
G75*
G02*
X111768800Y-124857700I0J237500D01*
G01*
X111768800Y-124357700D01*
G75*
G02*
X112006300Y-124120200I237500J0D01*
G01*
X112481300Y-124120200D01*
G75*
G02*
X112718800Y-124357700I0J-237500D01*
G01*
X112718800Y-124857700D01*
G75*
G02*
X112481300Y-125095200I-237500J0D01*
G01*
G37*
%TD*%
D10*
%TO.C,Q2*%
X159718800Y-138300200D03*
X161718800Y-137350200D03*
X161718800Y-139250200D03*
%TD*%
%TO.C,Q2*%
X108068800Y-138300200D03*
X110068800Y-137350200D03*
X110068800Y-139250200D03*
%TD*%
%TO.C,Q4*%
X161718800Y-134424200D03*
X161718800Y-132524200D03*
X159718800Y-133474200D03*
%TD*%
%TO.C,Q4*%
X110068800Y-134424200D03*
X110068800Y-132524200D03*
X108068800Y-133474200D03*
%TD*%
%TO.C,R8*%
G36*
G01*
X167052300Y-139192200D02*
X166577300Y-139192200D01*
G75*
G02*
X166339800Y-138954700I0J237500D01*
G01*
X166339800Y-138454700D01*
G75*
G02*
X166577300Y-138217200I237500J0D01*
G01*
X167052300Y-138217200D01*
G75*
G02*
X167289800Y-138454700I0J-237500D01*
G01*
X167289800Y-138954700D01*
G75*
G02*
X167052300Y-139192200I-237500J0D01*
G01*
G37*
G36*
G01*
X167052300Y-137367200D02*
X166577300Y-137367200D01*
G75*
G02*
X166339800Y-137129700I0J237500D01*
G01*
X166339800Y-136629700D01*
G75*
G02*
X166577300Y-136392200I237500J0D01*
G01*
X167052300Y-136392200D01*
G75*
G02*
X167289800Y-136629700I0J-237500D01*
G01*
X167289800Y-137129700D01*
G75*
G02*
X167052300Y-137367200I-237500J0D01*
G01*
G37*
%TD*%
%TO.C,R8*%
G36*
G01*
X115402300Y-139192200D02*
X114927300Y-139192200D01*
G75*
G02*
X114689800Y-138954700I0J237500D01*
G01*
X114689800Y-138454700D01*
G75*
G02*
X114927300Y-138217200I237500J0D01*
G01*
X115402300Y-138217200D01*
G75*
G02*
X115639800Y-138454700I0J-237500D01*
G01*
X115639800Y-138954700D01*
G75*
G02*
X115402300Y-139192200I-237500J0D01*
G01*
G37*
G36*
G01*
X115402300Y-137367200D02*
X114927300Y-137367200D01*
G75*
G02*
X114689800Y-137129700I0J237500D01*
G01*
X114689800Y-136629700D01*
G75*
G02*
X114927300Y-136392200I237500J0D01*
G01*
X115402300Y-136392200D01*
G75*
G02*
X115639800Y-136629700I0J-237500D01*
G01*
X115639800Y-137129700D01*
G75*
G02*
X115402300Y-137367200I-237500J0D01*
G01*
G37*
%TD*%
%TO.C,Q3*%
X159718800Y-128648200D03*
X161718800Y-127698200D03*
X161718800Y-129598200D03*
%TD*%
%TO.C,Q3*%
X108068800Y-128648200D03*
X110068800Y-127698200D03*
X110068800Y-129598200D03*
%TD*%
%TO.C,R20*%
G36*
G01*
X166925300Y-126492200D02*
X166450300Y-126492200D01*
G75*
G02*
X166212800Y-126254700I0J237500D01*
G01*
X166212800Y-125754700D01*
G75*
G02*
X166450300Y-125517200I237500J0D01*
G01*
X166925300Y-125517200D01*
G75*
G02*
X167162800Y-125754700I0J-237500D01*
G01*
X167162800Y-126254700D01*
G75*
G02*
X166925300Y-126492200I-237500J0D01*
G01*
G37*
G36*
G01*
X166925300Y-124667200D02*
X166450300Y-124667200D01*
G75*
G02*
X166212800Y-124429700I0J237500D01*
G01*
X166212800Y-123929700D01*
G75*
G02*
X166450300Y-123692200I237500J0D01*
G01*
X166925300Y-123692200D01*
G75*
G02*
X167162800Y-123929700I0J-237500D01*
G01*
X167162800Y-124429700D01*
G75*
G02*
X166925300Y-124667200I-237500J0D01*
G01*
G37*
%TD*%
%TO.C,R20*%
G36*
G01*
X115275300Y-126492200D02*
X114800300Y-126492200D01*
G75*
G02*
X114562800Y-126254700I0J237500D01*
G01*
X114562800Y-125754700D01*
G75*
G02*
X114800300Y-125517200I237500J0D01*
G01*
X115275300Y-125517200D01*
G75*
G02*
X115512800Y-125754700I0J-237500D01*
G01*
X115512800Y-126254700D01*
G75*
G02*
X115275300Y-126492200I-237500J0D01*
G01*
G37*
G36*
G01*
X115275300Y-124667200D02*
X114800300Y-124667200D01*
G75*
G02*
X114562800Y-124429700I0J237500D01*
G01*
X114562800Y-123929700D01*
G75*
G02*
X114800300Y-123692200I237500J0D01*
G01*
X115275300Y-123692200D01*
G75*
G02*
X115512800Y-123929700I0J-237500D01*
G01*
X115512800Y-124429700D01*
G75*
G02*
X115275300Y-124667200I-237500J0D01*
G01*
G37*
%TD*%
%TO.C,Q5*%
X161734800Y-124711200D03*
X161734800Y-122811200D03*
X159734800Y-123761200D03*
%TD*%
%TO.C,Q5*%
X110084800Y-124711200D03*
X110084800Y-122811200D03*
X108084800Y-123761200D03*
%TD*%
%TO.C,R19*%
G36*
G01*
X164131300Y-132541200D02*
X163656300Y-132541200D01*
G75*
G02*
X163418800Y-132303700I0J237500D01*
G01*
X163418800Y-131803700D01*
G75*
G02*
X163656300Y-131566200I237500J0D01*
G01*
X164131300Y-131566200D01*
G75*
G02*
X164368800Y-131803700I0J-237500D01*
G01*
X164368800Y-132303700D01*
G75*
G02*
X164131300Y-132541200I-237500J0D01*
G01*
G37*
G36*
G01*
X164131300Y-134366200D02*
X163656300Y-134366200D01*
G75*
G02*
X163418800Y-134128700I0J237500D01*
G01*
X163418800Y-133628700D01*
G75*
G02*
X163656300Y-133391200I237500J0D01*
G01*
X164131300Y-133391200D01*
G75*
G02*
X164368800Y-133628700I0J-237500D01*
G01*
X164368800Y-134128700D01*
G75*
G02*
X164131300Y-134366200I-237500J0D01*
G01*
G37*
%TD*%
%TO.C,R19*%
G36*
G01*
X112481300Y-132541200D02*
X112006300Y-132541200D01*
G75*
G02*
X111768800Y-132303700I0J237500D01*
G01*
X111768800Y-131803700D01*
G75*
G02*
X112006300Y-131566200I237500J0D01*
G01*
X112481300Y-131566200D01*
G75*
G02*
X112718800Y-131803700I0J-237500D01*
G01*
X112718800Y-132303700D01*
G75*
G02*
X112481300Y-132541200I-237500J0D01*
G01*
G37*
G36*
G01*
X112481300Y-134366200D02*
X112006300Y-134366200D01*
G75*
G02*
X111768800Y-134128700I0J237500D01*
G01*
X111768800Y-133628700D01*
G75*
G02*
X112006300Y-133391200I237500J0D01*
G01*
X112481300Y-133391200D01*
G75*
G02*
X112718800Y-133628700I0J-237500D01*
G01*
X112718800Y-134128700D01*
G75*
G02*
X112481300Y-134366200I-237500J0D01*
G01*
G37*
%TD*%
%TO.C,R18*%
G36*
G01*
X166925300Y-135509200D02*
X166450300Y-135509200D01*
G75*
G02*
X166212800Y-135271700I0J237500D01*
G01*
X166212800Y-134771700D01*
G75*
G02*
X166450300Y-134534200I237500J0D01*
G01*
X166925300Y-134534200D01*
G75*
G02*
X167162800Y-134771700I0J-237500D01*
G01*
X167162800Y-135271700D01*
G75*
G02*
X166925300Y-135509200I-237500J0D01*
G01*
G37*
G36*
G01*
X166925300Y-133684200D02*
X166450300Y-133684200D01*
G75*
G02*
X166212800Y-133446700I0J237500D01*
G01*
X166212800Y-132946700D01*
G75*
G02*
X166450300Y-132709200I237500J0D01*
G01*
X166925300Y-132709200D01*
G75*
G02*
X167162800Y-132946700I0J-237500D01*
G01*
X167162800Y-133446700D01*
G75*
G02*
X166925300Y-133684200I-237500J0D01*
G01*
G37*
%TD*%
%TO.C,R18*%
G36*
G01*
X115275300Y-135509200D02*
X114800300Y-135509200D01*
G75*
G02*
X114562800Y-135271700I0J237500D01*
G01*
X114562800Y-134771700D01*
G75*
G02*
X114800300Y-134534200I237500J0D01*
G01*
X115275300Y-134534200D01*
G75*
G02*
X115512800Y-134771700I0J-237500D01*
G01*
X115512800Y-135271700D01*
G75*
G02*
X115275300Y-135509200I-237500J0D01*
G01*
G37*
G36*
G01*
X115275300Y-133684200D02*
X114800300Y-133684200D01*
G75*
G02*
X114562800Y-133446700I0J237500D01*
G01*
X114562800Y-132946700D01*
G75*
G02*
X114800300Y-132709200I237500J0D01*
G01*
X115275300Y-132709200D01*
G75*
G02*
X115512800Y-132946700I0J-237500D01*
G01*
X115512800Y-133446700D01*
G75*
G02*
X115275300Y-133684200I-237500J0D01*
G01*
G37*
%TD*%
%TO.C,R17*%
G36*
G01*
X164131300Y-127715200D02*
X163656300Y-127715200D01*
G75*
G02*
X163418800Y-127477700I0J237500D01*
G01*
X163418800Y-126977700D01*
G75*
G02*
X163656300Y-126740200I237500J0D01*
G01*
X164131300Y-126740200D01*
G75*
G02*
X164368800Y-126977700I0J-237500D01*
G01*
X164368800Y-127477700D01*
G75*
G02*
X164131300Y-127715200I-237500J0D01*
G01*
G37*
G36*
G01*
X164131300Y-129540200D02*
X163656300Y-129540200D01*
G75*
G02*
X163418800Y-129302700I0J237500D01*
G01*
X163418800Y-128802700D01*
G75*
G02*
X163656300Y-128565200I237500J0D01*
G01*
X164131300Y-128565200D01*
G75*
G02*
X164368800Y-128802700I0J-237500D01*
G01*
X164368800Y-129302700D01*
G75*
G02*
X164131300Y-129540200I-237500J0D01*
G01*
G37*
%TD*%
%TO.C,R17*%
G36*
G01*
X112481300Y-127715200D02*
X112006300Y-127715200D01*
G75*
G02*
X111768800Y-127477700I0J237500D01*
G01*
X111768800Y-126977700D01*
G75*
G02*
X112006300Y-126740200I237500J0D01*
G01*
X112481300Y-126740200D01*
G75*
G02*
X112718800Y-126977700I0J-237500D01*
G01*
X112718800Y-127477700D01*
G75*
G02*
X112481300Y-127715200I-237500J0D01*
G01*
G37*
G36*
G01*
X112481300Y-129540200D02*
X112006300Y-129540200D01*
G75*
G02*
X111768800Y-129302700I0J237500D01*
G01*
X111768800Y-128802700D01*
G75*
G02*
X112006300Y-128565200I237500J0D01*
G01*
X112481300Y-128565200D01*
G75*
G02*
X112718800Y-128802700I0J-237500D01*
G01*
X112718800Y-129302700D01*
G75*
G02*
X112481300Y-129540200I-237500J0D01*
G01*
G37*
%TD*%
%TO.C,U1*%
G36*
G01*
X161277800Y-68230200D02*
X161277800Y-68530200D01*
G75*
G02*
X161127800Y-68680200I-150000J0D01*
G01*
X159677800Y-68680200D01*
G75*
G02*
X159527800Y-68530200I0J150000D01*
G01*
X159527800Y-68230200D01*
G75*
G02*
X159677800Y-68080200I150000J0D01*
G01*
X161127800Y-68080200D01*
G75*
G02*
X161277800Y-68230200I0J-150000D01*
G01*
G37*
G36*
G01*
X161277800Y-66960200D02*
X161277800Y-67260200D01*
G75*
G02*
X161127800Y-67410200I-150000J0D01*
G01*
X159677800Y-67410200D01*
G75*
G02*
X159527800Y-67260200I0J150000D01*
G01*
X159527800Y-66960200D01*
G75*
G02*
X159677800Y-66810200I150000J0D01*
G01*
X161127800Y-66810200D01*
G75*
G02*
X161277800Y-66960200I0J-150000D01*
G01*
G37*
G36*
G01*
X161277800Y-65690200D02*
X161277800Y-65990200D01*
G75*
G02*
X161127800Y-66140200I-150000J0D01*
G01*
X159677800Y-66140200D01*
G75*
G02*
X159527800Y-65990200I0J150000D01*
G01*
X159527800Y-65690200D01*
G75*
G02*
X159677800Y-65540200I150000J0D01*
G01*
X161127800Y-65540200D01*
G75*
G02*
X161277800Y-65690200I0J-150000D01*
G01*
G37*
G36*
G01*
X161277800Y-64420200D02*
X161277800Y-64720200D01*
G75*
G02*
X161127800Y-64870200I-150000J0D01*
G01*
X159677800Y-64870200D01*
G75*
G02*
X159527800Y-64720200I0J150000D01*
G01*
X159527800Y-64420200D01*
G75*
G02*
X159677800Y-64270200I150000J0D01*
G01*
X161127800Y-64270200D01*
G75*
G02*
X161277800Y-64420200I0J-150000D01*
G01*
G37*
G36*
G01*
X161277800Y-63150200D02*
X161277800Y-63450200D01*
G75*
G02*
X161127800Y-63600200I-150000J0D01*
G01*
X159677800Y-63600200D01*
G75*
G02*
X159527800Y-63450200I0J150000D01*
G01*
X159527800Y-63150200D01*
G75*
G02*
X159677800Y-63000200I150000J0D01*
G01*
X161127800Y-63000200D01*
G75*
G02*
X161277800Y-63150200I0J-150000D01*
G01*
G37*
G36*
G01*
X161277800Y-61880200D02*
X161277800Y-62180200D01*
G75*
G02*
X161127800Y-62330200I-150000J0D01*
G01*
X159677800Y-62330200D01*
G75*
G02*
X159527800Y-62180200I0J150000D01*
G01*
X159527800Y-61880200D01*
G75*
G02*
X159677800Y-61730200I150000J0D01*
G01*
X161127800Y-61730200D01*
G75*
G02*
X161277800Y-61880200I0J-150000D01*
G01*
G37*
G36*
G01*
X161277800Y-60610200D02*
X161277800Y-60910200D01*
G75*
G02*
X161127800Y-61060200I-150000J0D01*
G01*
X159677800Y-61060200D01*
G75*
G02*
X159527800Y-60910200I0J150000D01*
G01*
X159527800Y-60610200D01*
G75*
G02*
X159677800Y-60460200I150000J0D01*
G01*
X161127800Y-60460200D01*
G75*
G02*
X161277800Y-60610200I0J-150000D01*
G01*
G37*
G36*
G01*
X161277800Y-59340200D02*
X161277800Y-59640200D01*
G75*
G02*
X161127800Y-59790200I-150000J0D01*
G01*
X159677800Y-59790200D01*
G75*
G02*
X159527800Y-59640200I0J150000D01*
G01*
X159527800Y-59340200D01*
G75*
G02*
X159677800Y-59190200I150000J0D01*
G01*
X161127800Y-59190200D01*
G75*
G02*
X161277800Y-59340200I0J-150000D01*
G01*
G37*
G36*
G01*
X166427800Y-59340200D02*
X166427800Y-59640200D01*
G75*
G02*
X166277800Y-59790200I-150000J0D01*
G01*
X164827800Y-59790200D01*
G75*
G02*
X164677800Y-59640200I0J150000D01*
G01*
X164677800Y-59340200D01*
G75*
G02*
X164827800Y-59190200I150000J0D01*
G01*
X166277800Y-59190200D01*
G75*
G02*
X166427800Y-59340200I0J-150000D01*
G01*
G37*
G36*
G01*
X166427800Y-60610200D02*
X166427800Y-60910200D01*
G75*
G02*
X166277800Y-61060200I-150000J0D01*
G01*
X164827800Y-61060200D01*
G75*
G02*
X164677800Y-60910200I0J150000D01*
G01*
X164677800Y-60610200D01*
G75*
G02*
X164827800Y-60460200I150000J0D01*
G01*
X166277800Y-60460200D01*
G75*
G02*
X166427800Y-60610200I0J-150000D01*
G01*
G37*
G36*
G01*
X166427800Y-61880200D02*
X166427800Y-62180200D01*
G75*
G02*
X166277800Y-62330200I-150000J0D01*
G01*
X164827800Y-62330200D01*
G75*
G02*
X164677800Y-62180200I0J150000D01*
G01*
X164677800Y-61880200D01*
G75*
G02*
X164827800Y-61730200I150000J0D01*
G01*
X166277800Y-61730200D01*
G75*
G02*
X166427800Y-61880200I0J-150000D01*
G01*
G37*
G36*
G01*
X166427800Y-63150200D02*
X166427800Y-63450200D01*
G75*
G02*
X166277800Y-63600200I-150000J0D01*
G01*
X164827800Y-63600200D01*
G75*
G02*
X164677800Y-63450200I0J150000D01*
G01*
X164677800Y-63150200D01*
G75*
G02*
X164827800Y-63000200I150000J0D01*
G01*
X166277800Y-63000200D01*
G75*
G02*
X166427800Y-63150200I0J-150000D01*
G01*
G37*
G36*
G01*
X166427800Y-64420200D02*
X166427800Y-64720200D01*
G75*
G02*
X166277800Y-64870200I-150000J0D01*
G01*
X164827800Y-64870200D01*
G75*
G02*
X164677800Y-64720200I0J150000D01*
G01*
X164677800Y-64420200D01*
G75*
G02*
X164827800Y-64270200I150000J0D01*
G01*
X166277800Y-64270200D01*
G75*
G02*
X166427800Y-64420200I0J-150000D01*
G01*
G37*
G36*
G01*
X166427800Y-65690200D02*
X166427800Y-65990200D01*
G75*
G02*
X166277800Y-66140200I-150000J0D01*
G01*
X164827800Y-66140200D01*
G75*
G02*
X164677800Y-65990200I0J150000D01*
G01*
X164677800Y-65690200D01*
G75*
G02*
X164827800Y-65540200I150000J0D01*
G01*
X166277800Y-65540200D01*
G75*
G02*
X166427800Y-65690200I0J-150000D01*
G01*
G37*
G36*
G01*
X166427800Y-66960200D02*
X166427800Y-67260200D01*
G75*
G02*
X166277800Y-67410200I-150000J0D01*
G01*
X164827800Y-67410200D01*
G75*
G02*
X164677800Y-67260200I0J150000D01*
G01*
X164677800Y-66960200D01*
G75*
G02*
X164827800Y-66810200I150000J0D01*
G01*
X166277800Y-66810200D01*
G75*
G02*
X166427800Y-66960200I0J-150000D01*
G01*
G37*
G36*
G01*
X166427800Y-68230200D02*
X166427800Y-68530200D01*
G75*
G02*
X166277800Y-68680200I-150000J0D01*
G01*
X164827800Y-68680200D01*
G75*
G02*
X164677800Y-68530200I0J150000D01*
G01*
X164677800Y-68230200D01*
G75*
G02*
X164827800Y-68080200I150000J0D01*
G01*
X166277800Y-68080200D01*
G75*
G02*
X166427800Y-68230200I0J-150000D01*
G01*
G37*
%TD*%
%TO.C,U1*%
G36*
G01*
X109627800Y-68230200D02*
X109627800Y-68530200D01*
G75*
G02*
X109477800Y-68680200I-150000J0D01*
G01*
X108027800Y-68680200D01*
G75*
G02*
X107877800Y-68530200I0J150000D01*
G01*
X107877800Y-68230200D01*
G75*
G02*
X108027800Y-68080200I150000J0D01*
G01*
X109477800Y-68080200D01*
G75*
G02*
X109627800Y-68230200I0J-150000D01*
G01*
G37*
G36*
G01*
X109627800Y-66960200D02*
X109627800Y-67260200D01*
G75*
G02*
X109477800Y-67410200I-150000J0D01*
G01*
X108027800Y-67410200D01*
G75*
G02*
X107877800Y-67260200I0J150000D01*
G01*
X107877800Y-66960200D01*
G75*
G02*
X108027800Y-66810200I150000J0D01*
G01*
X109477800Y-66810200D01*
G75*
G02*
X109627800Y-66960200I0J-150000D01*
G01*
G37*
G36*
G01*
X109627800Y-65690200D02*
X109627800Y-65990200D01*
G75*
G02*
X109477800Y-66140200I-150000J0D01*
G01*
X108027800Y-66140200D01*
G75*
G02*
X107877800Y-65990200I0J150000D01*
G01*
X107877800Y-65690200D01*
G75*
G02*
X108027800Y-65540200I150000J0D01*
G01*
X109477800Y-65540200D01*
G75*
G02*
X109627800Y-65690200I0J-150000D01*
G01*
G37*
G36*
G01*
X109627800Y-64420200D02*
X109627800Y-64720200D01*
G75*
G02*
X109477800Y-64870200I-150000J0D01*
G01*
X108027800Y-64870200D01*
G75*
G02*
X107877800Y-64720200I0J150000D01*
G01*
X107877800Y-64420200D01*
G75*
G02*
X108027800Y-64270200I150000J0D01*
G01*
X109477800Y-64270200D01*
G75*
G02*
X109627800Y-64420200I0J-150000D01*
G01*
G37*
G36*
G01*
X109627800Y-63150200D02*
X109627800Y-63450200D01*
G75*
G02*
X109477800Y-63600200I-150000J0D01*
G01*
X108027800Y-63600200D01*
G75*
G02*
X107877800Y-63450200I0J150000D01*
G01*
X107877800Y-63150200D01*
G75*
G02*
X108027800Y-63000200I150000J0D01*
G01*
X109477800Y-63000200D01*
G75*
G02*
X109627800Y-63150200I0J-150000D01*
G01*
G37*
G36*
G01*
X109627800Y-61880200D02*
X109627800Y-62180200D01*
G75*
G02*
X109477800Y-62330200I-150000J0D01*
G01*
X108027800Y-62330200D01*
G75*
G02*
X107877800Y-62180200I0J150000D01*
G01*
X107877800Y-61880200D01*
G75*
G02*
X108027800Y-61730200I150000J0D01*
G01*
X109477800Y-61730200D01*
G75*
G02*
X109627800Y-61880200I0J-150000D01*
G01*
G37*
G36*
G01*
X109627800Y-60610200D02*
X109627800Y-60910200D01*
G75*
G02*
X109477800Y-61060200I-150000J0D01*
G01*
X108027800Y-61060200D01*
G75*
G02*
X107877800Y-60910200I0J150000D01*
G01*
X107877800Y-60610200D01*
G75*
G02*
X108027800Y-60460200I150000J0D01*
G01*
X109477800Y-60460200D01*
G75*
G02*
X109627800Y-60610200I0J-150000D01*
G01*
G37*
G36*
G01*
X109627800Y-59340200D02*
X109627800Y-59640200D01*
G75*
G02*
X109477800Y-59790200I-150000J0D01*
G01*
X108027800Y-59790200D01*
G75*
G02*
X107877800Y-59640200I0J150000D01*
G01*
X107877800Y-59340200D01*
G75*
G02*
X108027800Y-59190200I150000J0D01*
G01*
X109477800Y-59190200D01*
G75*
G02*
X109627800Y-59340200I0J-150000D01*
G01*
G37*
G36*
G01*
X114777800Y-59340200D02*
X114777800Y-59640200D01*
G75*
G02*
X114627800Y-59790200I-150000J0D01*
G01*
X113177800Y-59790200D01*
G75*
G02*
X113027800Y-59640200I0J150000D01*
G01*
X113027800Y-59340200D01*
G75*
G02*
X113177800Y-59190200I150000J0D01*
G01*
X114627800Y-59190200D01*
G75*
G02*
X114777800Y-59340200I0J-150000D01*
G01*
G37*
G36*
G01*
X114777800Y-60610200D02*
X114777800Y-60910200D01*
G75*
G02*
X114627800Y-61060200I-150000J0D01*
G01*
X113177800Y-61060200D01*
G75*
G02*
X113027800Y-60910200I0J150000D01*
G01*
X113027800Y-60610200D01*
G75*
G02*
X113177800Y-60460200I150000J0D01*
G01*
X114627800Y-60460200D01*
G75*
G02*
X114777800Y-60610200I0J-150000D01*
G01*
G37*
G36*
G01*
X114777800Y-61880200D02*
X114777800Y-62180200D01*
G75*
G02*
X114627800Y-62330200I-150000J0D01*
G01*
X113177800Y-62330200D01*
G75*
G02*
X113027800Y-62180200I0J150000D01*
G01*
X113027800Y-61880200D01*
G75*
G02*
X113177800Y-61730200I150000J0D01*
G01*
X114627800Y-61730200D01*
G75*
G02*
X114777800Y-61880200I0J-150000D01*
G01*
G37*
G36*
G01*
X114777800Y-63150200D02*
X114777800Y-63450200D01*
G75*
G02*
X114627800Y-63600200I-150000J0D01*
G01*
X113177800Y-63600200D01*
G75*
G02*
X113027800Y-63450200I0J150000D01*
G01*
X113027800Y-63150200D01*
G75*
G02*
X113177800Y-63000200I150000J0D01*
G01*
X114627800Y-63000200D01*
G75*
G02*
X114777800Y-63150200I0J-150000D01*
G01*
G37*
G36*
G01*
X114777800Y-64420200D02*
X114777800Y-64720200D01*
G75*
G02*
X114627800Y-64870200I-150000J0D01*
G01*
X113177800Y-64870200D01*
G75*
G02*
X113027800Y-64720200I0J150000D01*
G01*
X113027800Y-64420200D01*
G75*
G02*
X113177800Y-64270200I150000J0D01*
G01*
X114627800Y-64270200D01*
G75*
G02*
X114777800Y-64420200I0J-150000D01*
G01*
G37*
G36*
G01*
X114777800Y-65690200D02*
X114777800Y-65990200D01*
G75*
G02*
X114627800Y-66140200I-150000J0D01*
G01*
X113177800Y-66140200D01*
G75*
G02*
X113027800Y-65990200I0J150000D01*
G01*
X113027800Y-65690200D01*
G75*
G02*
X113177800Y-65540200I150000J0D01*
G01*
X114627800Y-65540200D01*
G75*
G02*
X114777800Y-65690200I0J-150000D01*
G01*
G37*
G36*
G01*
X114777800Y-66960200D02*
X114777800Y-67260200D01*
G75*
G02*
X114627800Y-67410200I-150000J0D01*
G01*
X113177800Y-67410200D01*
G75*
G02*
X113027800Y-67260200I0J150000D01*
G01*
X113027800Y-66960200D01*
G75*
G02*
X113177800Y-66810200I150000J0D01*
G01*
X114627800Y-66810200D01*
G75*
G02*
X114777800Y-66960200I0J-150000D01*
G01*
G37*
G36*
G01*
X114777800Y-68230200D02*
X114777800Y-68530200D01*
G75*
G02*
X114627800Y-68680200I-150000J0D01*
G01*
X113177800Y-68680200D01*
G75*
G02*
X113027800Y-68530200I0J150000D01*
G01*
X113027800Y-68230200D01*
G75*
G02*
X113177800Y-68080200I150000J0D01*
G01*
X114627800Y-68080200D01*
G75*
G02*
X114777800Y-68230200I0J-150000D01*
G01*
G37*
%TD*%
%TO.C,R9*%
G36*
G01*
X164131300Y-108065200D02*
X163656300Y-108065200D01*
G75*
G02*
X163418800Y-107827700I0J237500D01*
G01*
X163418800Y-107327700D01*
G75*
G02*
X163656300Y-107090200I237500J0D01*
G01*
X164131300Y-107090200D01*
G75*
G02*
X164368800Y-107327700I0J-237500D01*
G01*
X164368800Y-107827700D01*
G75*
G02*
X164131300Y-108065200I-237500J0D01*
G01*
G37*
G36*
G01*
X164131300Y-106240200D02*
X163656300Y-106240200D01*
G75*
G02*
X163418800Y-106002700I0J237500D01*
G01*
X163418800Y-105502700D01*
G75*
G02*
X163656300Y-105265200I237500J0D01*
G01*
X164131300Y-105265200D01*
G75*
G02*
X164368800Y-105502700I0J-237500D01*
G01*
X164368800Y-106002700D01*
G75*
G02*
X164131300Y-106240200I-237500J0D01*
G01*
G37*
%TD*%
%TO.C,R9*%
G36*
G01*
X112481300Y-108065200D02*
X112006300Y-108065200D01*
G75*
G02*
X111768800Y-107827700I0J237500D01*
G01*
X111768800Y-107327700D01*
G75*
G02*
X112006300Y-107090200I237500J0D01*
G01*
X112481300Y-107090200D01*
G75*
G02*
X112718800Y-107327700I0J-237500D01*
G01*
X112718800Y-107827700D01*
G75*
G02*
X112481300Y-108065200I-237500J0D01*
G01*
G37*
G36*
G01*
X112481300Y-106240200D02*
X112006300Y-106240200D01*
G75*
G02*
X111768800Y-106002700I0J237500D01*
G01*
X111768800Y-105502700D01*
G75*
G02*
X112006300Y-105265200I237500J0D01*
G01*
X112481300Y-105265200D01*
G75*
G02*
X112718800Y-105502700I0J-237500D01*
G01*
X112718800Y-106002700D01*
G75*
G02*
X112481300Y-106240200I-237500J0D01*
G01*
G37*
%TD*%
%TO.C,R10*%
G36*
G01*
X166925300Y-98112200D02*
X166450300Y-98112200D01*
G75*
G02*
X166212800Y-97874700I0J237500D01*
G01*
X166212800Y-97374700D01*
G75*
G02*
X166450300Y-97137200I237500J0D01*
G01*
X166925300Y-97137200D01*
G75*
G02*
X167162800Y-97374700I0J-237500D01*
G01*
X167162800Y-97874700D01*
G75*
G02*
X166925300Y-98112200I-237500J0D01*
G01*
G37*
G36*
G01*
X166925300Y-99937200D02*
X166450300Y-99937200D01*
G75*
G02*
X166212800Y-99699700I0J237500D01*
G01*
X166212800Y-99199700D01*
G75*
G02*
X166450300Y-98962200I237500J0D01*
G01*
X166925300Y-98962200D01*
G75*
G02*
X167162800Y-99199700I0J-237500D01*
G01*
X167162800Y-99699700D01*
G75*
G02*
X166925300Y-99937200I-237500J0D01*
G01*
G37*
%TD*%
%TO.C,R10*%
G36*
G01*
X115275300Y-98112200D02*
X114800300Y-98112200D01*
G75*
G02*
X114562800Y-97874700I0J237500D01*
G01*
X114562800Y-97374700D01*
G75*
G02*
X114800300Y-97137200I237500J0D01*
G01*
X115275300Y-97137200D01*
G75*
G02*
X115512800Y-97374700I0J-237500D01*
G01*
X115512800Y-97874700D01*
G75*
G02*
X115275300Y-98112200I-237500J0D01*
G01*
G37*
G36*
G01*
X115275300Y-99937200D02*
X114800300Y-99937200D01*
G75*
G02*
X114562800Y-99699700I0J237500D01*
G01*
X114562800Y-99199700D01*
G75*
G02*
X114800300Y-98962200I237500J0D01*
G01*
X115275300Y-98962200D01*
G75*
G02*
X115512800Y-99199700I0J-237500D01*
G01*
X115512800Y-99699700D01*
G75*
G02*
X115275300Y-99937200I-237500J0D01*
G01*
G37*
%TD*%
%TO.C,R21*%
G36*
G01*
X164131300Y-94095200D02*
X163656300Y-94095200D01*
G75*
G02*
X163418800Y-93857700I0J237500D01*
G01*
X163418800Y-93357700D01*
G75*
G02*
X163656300Y-93120200I237500J0D01*
G01*
X164131300Y-93120200D01*
G75*
G02*
X164368800Y-93357700I0J-237500D01*
G01*
X164368800Y-93857700D01*
G75*
G02*
X164131300Y-94095200I-237500J0D01*
G01*
G37*
G36*
G01*
X164131300Y-92270200D02*
X163656300Y-92270200D01*
G75*
G02*
X163418800Y-92032700I0J237500D01*
G01*
X163418800Y-91532700D01*
G75*
G02*
X163656300Y-91295200I237500J0D01*
G01*
X164131300Y-91295200D01*
G75*
G02*
X164368800Y-91532700I0J-237500D01*
G01*
X164368800Y-92032700D01*
G75*
G02*
X164131300Y-92270200I-237500J0D01*
G01*
G37*
%TD*%
%TO.C,R21*%
G36*
G01*
X112481300Y-94095200D02*
X112006300Y-94095200D01*
G75*
G02*
X111768800Y-93857700I0J237500D01*
G01*
X111768800Y-93357700D01*
G75*
G02*
X112006300Y-93120200I237500J0D01*
G01*
X112481300Y-93120200D01*
G75*
G02*
X112718800Y-93357700I0J-237500D01*
G01*
X112718800Y-93857700D01*
G75*
G02*
X112481300Y-94095200I-237500J0D01*
G01*
G37*
G36*
G01*
X112481300Y-92270200D02*
X112006300Y-92270200D01*
G75*
G02*
X111768800Y-92032700I0J237500D01*
G01*
X111768800Y-91532700D01*
G75*
G02*
X112006300Y-91295200I237500J0D01*
G01*
X112481300Y-91295200D01*
G75*
G02*
X112718800Y-91532700I0J-237500D01*
G01*
X112718800Y-92032700D01*
G75*
G02*
X112481300Y-92270200I-237500J0D01*
G01*
G37*
%TD*%
%TO.C,Q2*%
X161718800Y-108250200D03*
X161718800Y-106350200D03*
X159718800Y-107300200D03*
%TD*%
%TO.C,Q2*%
X110068800Y-108250200D03*
X110068800Y-106350200D03*
X108068800Y-107300200D03*
%TD*%
%TO.C,Q4*%
X159718800Y-102474200D03*
X161718800Y-101524200D03*
X161718800Y-103424200D03*
%TD*%
%TO.C,Q4*%
X108068800Y-102474200D03*
X110068800Y-101524200D03*
X110068800Y-103424200D03*
%TD*%
%TO.C,R8*%
G36*
G01*
X167052300Y-106367200D02*
X166577300Y-106367200D01*
G75*
G02*
X166339800Y-106129700I0J237500D01*
G01*
X166339800Y-105629700D01*
G75*
G02*
X166577300Y-105392200I237500J0D01*
G01*
X167052300Y-105392200D01*
G75*
G02*
X167289800Y-105629700I0J-237500D01*
G01*
X167289800Y-106129700D01*
G75*
G02*
X167052300Y-106367200I-237500J0D01*
G01*
G37*
G36*
G01*
X167052300Y-108192200D02*
X166577300Y-108192200D01*
G75*
G02*
X166339800Y-107954700I0J237500D01*
G01*
X166339800Y-107454700D01*
G75*
G02*
X166577300Y-107217200I237500J0D01*
G01*
X167052300Y-107217200D01*
G75*
G02*
X167289800Y-107454700I0J-237500D01*
G01*
X167289800Y-107954700D01*
G75*
G02*
X167052300Y-108192200I-237500J0D01*
G01*
G37*
%TD*%
%TO.C,R8*%
G36*
G01*
X115402300Y-106367200D02*
X114927300Y-106367200D01*
G75*
G02*
X114689800Y-106129700I0J237500D01*
G01*
X114689800Y-105629700D01*
G75*
G02*
X114927300Y-105392200I237500J0D01*
G01*
X115402300Y-105392200D01*
G75*
G02*
X115639800Y-105629700I0J-237500D01*
G01*
X115639800Y-106129700D01*
G75*
G02*
X115402300Y-106367200I-237500J0D01*
G01*
G37*
G36*
G01*
X115402300Y-108192200D02*
X114927300Y-108192200D01*
G75*
G02*
X114689800Y-107954700I0J237500D01*
G01*
X114689800Y-107454700D01*
G75*
G02*
X114927300Y-107217200I237500J0D01*
G01*
X115402300Y-107217200D01*
G75*
G02*
X115639800Y-107454700I0J-237500D01*
G01*
X115639800Y-107954700D01*
G75*
G02*
X115402300Y-108192200I-237500J0D01*
G01*
G37*
%TD*%
%TO.C,Q3*%
X161718800Y-98598200D03*
X161718800Y-96698200D03*
X159718800Y-97648200D03*
%TD*%
%TO.C,Q3*%
X110068800Y-98598200D03*
X110068800Y-96698200D03*
X108068800Y-97648200D03*
%TD*%
%TO.C,R20*%
G36*
G01*
X166925300Y-93667200D02*
X166450300Y-93667200D01*
G75*
G02*
X166212800Y-93429700I0J237500D01*
G01*
X166212800Y-92929700D01*
G75*
G02*
X166450300Y-92692200I237500J0D01*
G01*
X166925300Y-92692200D01*
G75*
G02*
X167162800Y-92929700I0J-237500D01*
G01*
X167162800Y-93429700D01*
G75*
G02*
X166925300Y-93667200I-237500J0D01*
G01*
G37*
G36*
G01*
X166925300Y-95492200D02*
X166450300Y-95492200D01*
G75*
G02*
X166212800Y-95254700I0J237500D01*
G01*
X166212800Y-94754700D01*
G75*
G02*
X166450300Y-94517200I237500J0D01*
G01*
X166925300Y-94517200D01*
G75*
G02*
X167162800Y-94754700I0J-237500D01*
G01*
X167162800Y-95254700D01*
G75*
G02*
X166925300Y-95492200I-237500J0D01*
G01*
G37*
%TD*%
%TO.C,R20*%
G36*
G01*
X115275300Y-93667200D02*
X114800300Y-93667200D01*
G75*
G02*
X114562800Y-93429700I0J237500D01*
G01*
X114562800Y-92929700D01*
G75*
G02*
X114800300Y-92692200I237500J0D01*
G01*
X115275300Y-92692200D01*
G75*
G02*
X115512800Y-92929700I0J-237500D01*
G01*
X115512800Y-93429700D01*
G75*
G02*
X115275300Y-93667200I-237500J0D01*
G01*
G37*
G36*
G01*
X115275300Y-95492200D02*
X114800300Y-95492200D01*
G75*
G02*
X114562800Y-95254700I0J237500D01*
G01*
X114562800Y-94754700D01*
G75*
G02*
X114800300Y-94517200I237500J0D01*
G01*
X115275300Y-94517200D01*
G75*
G02*
X115512800Y-94754700I0J-237500D01*
G01*
X115512800Y-95254700D01*
G75*
G02*
X115275300Y-95492200I-237500J0D01*
G01*
G37*
%TD*%
%TO.C,Q5*%
X159734800Y-92761200D03*
X161734800Y-91811200D03*
X161734800Y-93711200D03*
%TD*%
%TO.C,Q5*%
X108084800Y-92761200D03*
X110084800Y-91811200D03*
X110084800Y-93711200D03*
%TD*%
%TO.C,R19*%
G36*
G01*
X164131300Y-103366200D02*
X163656300Y-103366200D01*
G75*
G02*
X163418800Y-103128700I0J237500D01*
G01*
X163418800Y-102628700D01*
G75*
G02*
X163656300Y-102391200I237500J0D01*
G01*
X164131300Y-102391200D01*
G75*
G02*
X164368800Y-102628700I0J-237500D01*
G01*
X164368800Y-103128700D01*
G75*
G02*
X164131300Y-103366200I-237500J0D01*
G01*
G37*
G36*
G01*
X164131300Y-101541200D02*
X163656300Y-101541200D01*
G75*
G02*
X163418800Y-101303700I0J237500D01*
G01*
X163418800Y-100803700D01*
G75*
G02*
X163656300Y-100566200I237500J0D01*
G01*
X164131300Y-100566200D01*
G75*
G02*
X164368800Y-100803700I0J-237500D01*
G01*
X164368800Y-101303700D01*
G75*
G02*
X164131300Y-101541200I-237500J0D01*
G01*
G37*
%TD*%
%TO.C,R19*%
G36*
G01*
X112481300Y-103366200D02*
X112006300Y-103366200D01*
G75*
G02*
X111768800Y-103128700I0J237500D01*
G01*
X111768800Y-102628700D01*
G75*
G02*
X112006300Y-102391200I237500J0D01*
G01*
X112481300Y-102391200D01*
G75*
G02*
X112718800Y-102628700I0J-237500D01*
G01*
X112718800Y-103128700D01*
G75*
G02*
X112481300Y-103366200I-237500J0D01*
G01*
G37*
G36*
G01*
X112481300Y-101541200D02*
X112006300Y-101541200D01*
G75*
G02*
X111768800Y-101303700I0J237500D01*
G01*
X111768800Y-100803700D01*
G75*
G02*
X112006300Y-100566200I237500J0D01*
G01*
X112481300Y-100566200D01*
G75*
G02*
X112718800Y-100803700I0J-237500D01*
G01*
X112718800Y-101303700D01*
G75*
G02*
X112481300Y-101541200I-237500J0D01*
G01*
G37*
%TD*%
%TO.C,R18*%
G36*
G01*
X166925300Y-102684200D02*
X166450300Y-102684200D01*
G75*
G02*
X166212800Y-102446700I0J237500D01*
G01*
X166212800Y-101946700D01*
G75*
G02*
X166450300Y-101709200I237500J0D01*
G01*
X166925300Y-101709200D01*
G75*
G02*
X167162800Y-101946700I0J-237500D01*
G01*
X167162800Y-102446700D01*
G75*
G02*
X166925300Y-102684200I-237500J0D01*
G01*
G37*
G36*
G01*
X166925300Y-104509200D02*
X166450300Y-104509200D01*
G75*
G02*
X166212800Y-104271700I0J237500D01*
G01*
X166212800Y-103771700D01*
G75*
G02*
X166450300Y-103534200I237500J0D01*
G01*
X166925300Y-103534200D01*
G75*
G02*
X167162800Y-103771700I0J-237500D01*
G01*
X167162800Y-104271700D01*
G75*
G02*
X166925300Y-104509200I-237500J0D01*
G01*
G37*
%TD*%
%TO.C,R18*%
G36*
G01*
X115275300Y-102684200D02*
X114800300Y-102684200D01*
G75*
G02*
X114562800Y-102446700I0J237500D01*
G01*
X114562800Y-101946700D01*
G75*
G02*
X114800300Y-101709200I237500J0D01*
G01*
X115275300Y-101709200D01*
G75*
G02*
X115512800Y-101946700I0J-237500D01*
G01*
X115512800Y-102446700D01*
G75*
G02*
X115275300Y-102684200I-237500J0D01*
G01*
G37*
G36*
G01*
X115275300Y-104509200D02*
X114800300Y-104509200D01*
G75*
G02*
X114562800Y-104271700I0J237500D01*
G01*
X114562800Y-103771700D01*
G75*
G02*
X114800300Y-103534200I237500J0D01*
G01*
X115275300Y-103534200D01*
G75*
G02*
X115512800Y-103771700I0J-237500D01*
G01*
X115512800Y-104271700D01*
G75*
G02*
X115275300Y-104509200I-237500J0D01*
G01*
G37*
%TD*%
%TO.C,R17*%
G36*
G01*
X164131300Y-98540200D02*
X163656300Y-98540200D01*
G75*
G02*
X163418800Y-98302700I0J237500D01*
G01*
X163418800Y-97802700D01*
G75*
G02*
X163656300Y-97565200I237500J0D01*
G01*
X164131300Y-97565200D01*
G75*
G02*
X164368800Y-97802700I0J-237500D01*
G01*
X164368800Y-98302700D01*
G75*
G02*
X164131300Y-98540200I-237500J0D01*
G01*
G37*
G36*
G01*
X164131300Y-96715200D02*
X163656300Y-96715200D01*
G75*
G02*
X163418800Y-96477700I0J237500D01*
G01*
X163418800Y-95977700D01*
G75*
G02*
X163656300Y-95740200I237500J0D01*
G01*
X164131300Y-95740200D01*
G75*
G02*
X164368800Y-95977700I0J-237500D01*
G01*
X164368800Y-96477700D01*
G75*
G02*
X164131300Y-96715200I-237500J0D01*
G01*
G37*
%TD*%
%TO.C,R17*%
G36*
G01*
X112481300Y-98540200D02*
X112006300Y-98540200D01*
G75*
G02*
X111768800Y-98302700I0J237500D01*
G01*
X111768800Y-97802700D01*
G75*
G02*
X112006300Y-97565200I237500J0D01*
G01*
X112481300Y-97565200D01*
G75*
G02*
X112718800Y-97802700I0J-237500D01*
G01*
X112718800Y-98302700D01*
G75*
G02*
X112481300Y-98540200I-237500J0D01*
G01*
G37*
G36*
G01*
X112481300Y-96715200D02*
X112006300Y-96715200D01*
G75*
G02*
X111768800Y-96477700I0J237500D01*
G01*
X111768800Y-95977700D01*
G75*
G02*
X112006300Y-95740200I237500J0D01*
G01*
X112481300Y-95740200D01*
G75*
G02*
X112718800Y-95977700I0J-237500D01*
G01*
X112718800Y-96477700D01*
G75*
G02*
X112481300Y-96715200I-237500J0D01*
G01*
G37*
%TD*%
%TO.C,R9*%
G36*
G01*
X60831300Y-139065200D02*
X60356300Y-139065200D01*
G75*
G02*
X60118800Y-138827700I0J237500D01*
G01*
X60118800Y-138327700D01*
G75*
G02*
X60356300Y-138090200I237500J0D01*
G01*
X60831300Y-138090200D01*
G75*
G02*
X61068800Y-138327700I0J-237500D01*
G01*
X61068800Y-138827700D01*
G75*
G02*
X60831300Y-139065200I-237500J0D01*
G01*
G37*
G36*
G01*
X60831300Y-137240200D02*
X60356300Y-137240200D01*
G75*
G02*
X60118800Y-137002700I0J237500D01*
G01*
X60118800Y-136502700D01*
G75*
G02*
X60356300Y-136265200I237500J0D01*
G01*
X60831300Y-136265200D01*
G75*
G02*
X61068800Y-136502700I0J-237500D01*
G01*
X61068800Y-137002700D01*
G75*
G02*
X60831300Y-137240200I-237500J0D01*
G01*
G37*
%TD*%
%TO.C,R10*%
G36*
G01*
X63625300Y-129112200D02*
X63150300Y-129112200D01*
G75*
G02*
X62912800Y-128874700I0J237500D01*
G01*
X62912800Y-128374700D01*
G75*
G02*
X63150300Y-128137200I237500J0D01*
G01*
X63625300Y-128137200D01*
G75*
G02*
X63862800Y-128374700I0J-237500D01*
G01*
X63862800Y-128874700D01*
G75*
G02*
X63625300Y-129112200I-237500J0D01*
G01*
G37*
G36*
G01*
X63625300Y-130937200D02*
X63150300Y-130937200D01*
G75*
G02*
X62912800Y-130699700I0J237500D01*
G01*
X62912800Y-130199700D01*
G75*
G02*
X63150300Y-129962200I237500J0D01*
G01*
X63625300Y-129962200D01*
G75*
G02*
X63862800Y-130199700I0J-237500D01*
G01*
X63862800Y-130699700D01*
G75*
G02*
X63625300Y-130937200I-237500J0D01*
G01*
G37*
%TD*%
%TO.C,R21*%
G36*
G01*
X60831300Y-125095200D02*
X60356300Y-125095200D01*
G75*
G02*
X60118800Y-124857700I0J237500D01*
G01*
X60118800Y-124357700D01*
G75*
G02*
X60356300Y-124120200I237500J0D01*
G01*
X60831300Y-124120200D01*
G75*
G02*
X61068800Y-124357700I0J-237500D01*
G01*
X61068800Y-124857700D01*
G75*
G02*
X60831300Y-125095200I-237500J0D01*
G01*
G37*
G36*
G01*
X60831300Y-123270200D02*
X60356300Y-123270200D01*
G75*
G02*
X60118800Y-123032700I0J237500D01*
G01*
X60118800Y-122532700D01*
G75*
G02*
X60356300Y-122295200I237500J0D01*
G01*
X60831300Y-122295200D01*
G75*
G02*
X61068800Y-122532700I0J-237500D01*
G01*
X61068800Y-123032700D01*
G75*
G02*
X60831300Y-123270200I-237500J0D01*
G01*
G37*
%TD*%
%TO.C,Q2*%
X58418800Y-139250200D03*
X58418800Y-137350200D03*
X56418800Y-138300200D03*
%TD*%
%TO.C,Q4*%
X56418800Y-133474200D03*
X58418800Y-132524200D03*
X58418800Y-134424200D03*
%TD*%
%TO.C,R8*%
G36*
G01*
X63752300Y-137367200D02*
X63277300Y-137367200D01*
G75*
G02*
X63039800Y-137129700I0J237500D01*
G01*
X63039800Y-136629700D01*
G75*
G02*
X63277300Y-136392200I237500J0D01*
G01*
X63752300Y-136392200D01*
G75*
G02*
X63989800Y-136629700I0J-237500D01*
G01*
X63989800Y-137129700D01*
G75*
G02*
X63752300Y-137367200I-237500J0D01*
G01*
G37*
G36*
G01*
X63752300Y-139192200D02*
X63277300Y-139192200D01*
G75*
G02*
X63039800Y-138954700I0J237500D01*
G01*
X63039800Y-138454700D01*
G75*
G02*
X63277300Y-138217200I237500J0D01*
G01*
X63752300Y-138217200D01*
G75*
G02*
X63989800Y-138454700I0J-237500D01*
G01*
X63989800Y-138954700D01*
G75*
G02*
X63752300Y-139192200I-237500J0D01*
G01*
G37*
%TD*%
%TO.C,Q3*%
X58418800Y-129598200D03*
X58418800Y-127698200D03*
X56418800Y-128648200D03*
%TD*%
%TO.C,R20*%
G36*
G01*
X63625300Y-124667200D02*
X63150300Y-124667200D01*
G75*
G02*
X62912800Y-124429700I0J237500D01*
G01*
X62912800Y-123929700D01*
G75*
G02*
X63150300Y-123692200I237500J0D01*
G01*
X63625300Y-123692200D01*
G75*
G02*
X63862800Y-123929700I0J-237500D01*
G01*
X63862800Y-124429700D01*
G75*
G02*
X63625300Y-124667200I-237500J0D01*
G01*
G37*
G36*
G01*
X63625300Y-126492200D02*
X63150300Y-126492200D01*
G75*
G02*
X62912800Y-126254700I0J237500D01*
G01*
X62912800Y-125754700D01*
G75*
G02*
X63150300Y-125517200I237500J0D01*
G01*
X63625300Y-125517200D01*
G75*
G02*
X63862800Y-125754700I0J-237500D01*
G01*
X63862800Y-126254700D01*
G75*
G02*
X63625300Y-126492200I-237500J0D01*
G01*
G37*
%TD*%
%TO.C,Q5*%
X56434800Y-123761200D03*
X58434800Y-122811200D03*
X58434800Y-124711200D03*
%TD*%
%TO.C,R19*%
G36*
G01*
X60831300Y-134366200D02*
X60356300Y-134366200D01*
G75*
G02*
X60118800Y-134128700I0J237500D01*
G01*
X60118800Y-133628700D01*
G75*
G02*
X60356300Y-133391200I237500J0D01*
G01*
X60831300Y-133391200D01*
G75*
G02*
X61068800Y-133628700I0J-237500D01*
G01*
X61068800Y-134128700D01*
G75*
G02*
X60831300Y-134366200I-237500J0D01*
G01*
G37*
G36*
G01*
X60831300Y-132541200D02*
X60356300Y-132541200D01*
G75*
G02*
X60118800Y-132303700I0J237500D01*
G01*
X60118800Y-131803700D01*
G75*
G02*
X60356300Y-131566200I237500J0D01*
G01*
X60831300Y-131566200D01*
G75*
G02*
X61068800Y-131803700I0J-237500D01*
G01*
X61068800Y-132303700D01*
G75*
G02*
X60831300Y-132541200I-237500J0D01*
G01*
G37*
%TD*%
%TO.C,R18*%
G36*
G01*
X63625300Y-133684200D02*
X63150300Y-133684200D01*
G75*
G02*
X62912800Y-133446700I0J237500D01*
G01*
X62912800Y-132946700D01*
G75*
G02*
X63150300Y-132709200I237500J0D01*
G01*
X63625300Y-132709200D01*
G75*
G02*
X63862800Y-132946700I0J-237500D01*
G01*
X63862800Y-133446700D01*
G75*
G02*
X63625300Y-133684200I-237500J0D01*
G01*
G37*
G36*
G01*
X63625300Y-135509200D02*
X63150300Y-135509200D01*
G75*
G02*
X62912800Y-135271700I0J237500D01*
G01*
X62912800Y-134771700D01*
G75*
G02*
X63150300Y-134534200I237500J0D01*
G01*
X63625300Y-134534200D01*
G75*
G02*
X63862800Y-134771700I0J-237500D01*
G01*
X63862800Y-135271700D01*
G75*
G02*
X63625300Y-135509200I-237500J0D01*
G01*
G37*
%TD*%
%TO.C,R17*%
G36*
G01*
X60831300Y-129540200D02*
X60356300Y-129540200D01*
G75*
G02*
X60118800Y-129302700I0J237500D01*
G01*
X60118800Y-128802700D01*
G75*
G02*
X60356300Y-128565200I237500J0D01*
G01*
X60831300Y-128565200D01*
G75*
G02*
X61068800Y-128802700I0J-237500D01*
G01*
X61068800Y-129302700D01*
G75*
G02*
X60831300Y-129540200I-237500J0D01*
G01*
G37*
G36*
G01*
X60831300Y-127715200D02*
X60356300Y-127715200D01*
G75*
G02*
X60118800Y-127477700I0J237500D01*
G01*
X60118800Y-126977700D01*
G75*
G02*
X60356300Y-126740200I237500J0D01*
G01*
X60831300Y-126740200D01*
G75*
G02*
X61068800Y-126977700I0J-237500D01*
G01*
X61068800Y-127477700D01*
G75*
G02*
X60831300Y-127715200I-237500J0D01*
G01*
G37*
%TD*%
%TO.C,U1*%
G36*
G01*
X63127800Y-68230200D02*
X63127800Y-68530200D01*
G75*
G02*
X62977800Y-68680200I-150000J0D01*
G01*
X61527800Y-68680200D01*
G75*
G02*
X61377800Y-68530200I0J150000D01*
G01*
X61377800Y-68230200D01*
G75*
G02*
X61527800Y-68080200I150000J0D01*
G01*
X62977800Y-68080200D01*
G75*
G02*
X63127800Y-68230200I0J-150000D01*
G01*
G37*
G36*
G01*
X63127800Y-66960200D02*
X63127800Y-67260200D01*
G75*
G02*
X62977800Y-67410200I-150000J0D01*
G01*
X61527800Y-67410200D01*
G75*
G02*
X61377800Y-67260200I0J150000D01*
G01*
X61377800Y-66960200D01*
G75*
G02*
X61527800Y-66810200I150000J0D01*
G01*
X62977800Y-66810200D01*
G75*
G02*
X63127800Y-66960200I0J-150000D01*
G01*
G37*
G36*
G01*
X63127800Y-65690200D02*
X63127800Y-65990200D01*
G75*
G02*
X62977800Y-66140200I-150000J0D01*
G01*
X61527800Y-66140200D01*
G75*
G02*
X61377800Y-65990200I0J150000D01*
G01*
X61377800Y-65690200D01*
G75*
G02*
X61527800Y-65540200I150000J0D01*
G01*
X62977800Y-65540200D01*
G75*
G02*
X63127800Y-65690200I0J-150000D01*
G01*
G37*
G36*
G01*
X63127800Y-64420200D02*
X63127800Y-64720200D01*
G75*
G02*
X62977800Y-64870200I-150000J0D01*
G01*
X61527800Y-64870200D01*
G75*
G02*
X61377800Y-64720200I0J150000D01*
G01*
X61377800Y-64420200D01*
G75*
G02*
X61527800Y-64270200I150000J0D01*
G01*
X62977800Y-64270200D01*
G75*
G02*
X63127800Y-64420200I0J-150000D01*
G01*
G37*
G36*
G01*
X63127800Y-63150200D02*
X63127800Y-63450200D01*
G75*
G02*
X62977800Y-63600200I-150000J0D01*
G01*
X61527800Y-63600200D01*
G75*
G02*
X61377800Y-63450200I0J150000D01*
G01*
X61377800Y-63150200D01*
G75*
G02*
X61527800Y-63000200I150000J0D01*
G01*
X62977800Y-63000200D01*
G75*
G02*
X63127800Y-63150200I0J-150000D01*
G01*
G37*
G36*
G01*
X63127800Y-61880200D02*
X63127800Y-62180200D01*
G75*
G02*
X62977800Y-62330200I-150000J0D01*
G01*
X61527800Y-62330200D01*
G75*
G02*
X61377800Y-62180200I0J150000D01*
G01*
X61377800Y-61880200D01*
G75*
G02*
X61527800Y-61730200I150000J0D01*
G01*
X62977800Y-61730200D01*
G75*
G02*
X63127800Y-61880200I0J-150000D01*
G01*
G37*
G36*
G01*
X63127800Y-60610200D02*
X63127800Y-60910200D01*
G75*
G02*
X62977800Y-61060200I-150000J0D01*
G01*
X61527800Y-61060200D01*
G75*
G02*
X61377800Y-60910200I0J150000D01*
G01*
X61377800Y-60610200D01*
G75*
G02*
X61527800Y-60460200I150000J0D01*
G01*
X62977800Y-60460200D01*
G75*
G02*
X63127800Y-60610200I0J-150000D01*
G01*
G37*
G36*
G01*
X63127800Y-59340200D02*
X63127800Y-59640200D01*
G75*
G02*
X62977800Y-59790200I-150000J0D01*
G01*
X61527800Y-59790200D01*
G75*
G02*
X61377800Y-59640200I0J150000D01*
G01*
X61377800Y-59340200D01*
G75*
G02*
X61527800Y-59190200I150000J0D01*
G01*
X62977800Y-59190200D01*
G75*
G02*
X63127800Y-59340200I0J-150000D01*
G01*
G37*
G36*
G01*
X57977800Y-59340200D02*
X57977800Y-59640200D01*
G75*
G02*
X57827800Y-59790200I-150000J0D01*
G01*
X56377800Y-59790200D01*
G75*
G02*
X56227800Y-59640200I0J150000D01*
G01*
X56227800Y-59340200D01*
G75*
G02*
X56377800Y-59190200I150000J0D01*
G01*
X57827800Y-59190200D01*
G75*
G02*
X57977800Y-59340200I0J-150000D01*
G01*
G37*
G36*
G01*
X57977800Y-60610200D02*
X57977800Y-60910200D01*
G75*
G02*
X57827800Y-61060200I-150000J0D01*
G01*
X56377800Y-61060200D01*
G75*
G02*
X56227800Y-60910200I0J150000D01*
G01*
X56227800Y-60610200D01*
G75*
G02*
X56377800Y-60460200I150000J0D01*
G01*
X57827800Y-60460200D01*
G75*
G02*
X57977800Y-60610200I0J-150000D01*
G01*
G37*
G36*
G01*
X57977800Y-61880200D02*
X57977800Y-62180200D01*
G75*
G02*
X57827800Y-62330200I-150000J0D01*
G01*
X56377800Y-62330200D01*
G75*
G02*
X56227800Y-62180200I0J150000D01*
G01*
X56227800Y-61880200D01*
G75*
G02*
X56377800Y-61730200I150000J0D01*
G01*
X57827800Y-61730200D01*
G75*
G02*
X57977800Y-61880200I0J-150000D01*
G01*
G37*
G36*
G01*
X57977800Y-63150200D02*
X57977800Y-63450200D01*
G75*
G02*
X57827800Y-63600200I-150000J0D01*
G01*
X56377800Y-63600200D01*
G75*
G02*
X56227800Y-63450200I0J150000D01*
G01*
X56227800Y-63150200D01*
G75*
G02*
X56377800Y-63000200I150000J0D01*
G01*
X57827800Y-63000200D01*
G75*
G02*
X57977800Y-63150200I0J-150000D01*
G01*
G37*
G36*
G01*
X57977800Y-64420200D02*
X57977800Y-64720200D01*
G75*
G02*
X57827800Y-64870200I-150000J0D01*
G01*
X56377800Y-64870200D01*
G75*
G02*
X56227800Y-64720200I0J150000D01*
G01*
X56227800Y-64420200D01*
G75*
G02*
X56377800Y-64270200I150000J0D01*
G01*
X57827800Y-64270200D01*
G75*
G02*
X57977800Y-64420200I0J-150000D01*
G01*
G37*
G36*
G01*
X57977800Y-65690200D02*
X57977800Y-65990200D01*
G75*
G02*
X57827800Y-66140200I-150000J0D01*
G01*
X56377800Y-66140200D01*
G75*
G02*
X56227800Y-65990200I0J150000D01*
G01*
X56227800Y-65690200D01*
G75*
G02*
X56377800Y-65540200I150000J0D01*
G01*
X57827800Y-65540200D01*
G75*
G02*
X57977800Y-65690200I0J-150000D01*
G01*
G37*
G36*
G01*
X57977800Y-66960200D02*
X57977800Y-67260200D01*
G75*
G02*
X57827800Y-67410200I-150000J0D01*
G01*
X56377800Y-67410200D01*
G75*
G02*
X56227800Y-67260200I0J150000D01*
G01*
X56227800Y-66960200D01*
G75*
G02*
X56377800Y-66810200I150000J0D01*
G01*
X57827800Y-66810200D01*
G75*
G02*
X57977800Y-66960200I0J-150000D01*
G01*
G37*
G36*
G01*
X57977800Y-68230200D02*
X57977800Y-68530200D01*
G75*
G02*
X57827800Y-68680200I-150000J0D01*
G01*
X56377800Y-68680200D01*
G75*
G02*
X56227800Y-68530200I0J150000D01*
G01*
X56227800Y-68230200D01*
G75*
G02*
X56377800Y-68080200I150000J0D01*
G01*
X57827800Y-68080200D01*
G75*
G02*
X57977800Y-68230200I0J-150000D01*
G01*
G37*
%TD*%
%TO.C,Q2*%
X56418800Y-107300200D03*
X58418800Y-106350200D03*
X58418800Y-108250200D03*
%TD*%
%TO.C,Q3*%
X56418800Y-97648200D03*
X58418800Y-96698200D03*
X58418800Y-98598200D03*
%TD*%
%TO.C,Q4*%
X58418800Y-103424200D03*
X58418800Y-101524200D03*
X56418800Y-102474200D03*
%TD*%
%TO.C,Q5*%
X58434800Y-93711200D03*
X58434800Y-91811200D03*
X56434800Y-92761200D03*
%TD*%
%TO.C,R8*%
G36*
G01*
X63752300Y-108192200D02*
X63277300Y-108192200D01*
G75*
G02*
X63039800Y-107954700I0J237500D01*
G01*
X63039800Y-107454700D01*
G75*
G02*
X63277300Y-107217200I237500J0D01*
G01*
X63752300Y-107217200D01*
G75*
G02*
X63989800Y-107454700I0J-237500D01*
G01*
X63989800Y-107954700D01*
G75*
G02*
X63752300Y-108192200I-237500J0D01*
G01*
G37*
G36*
G01*
X63752300Y-106367200D02*
X63277300Y-106367200D01*
G75*
G02*
X63039800Y-106129700I0J237500D01*
G01*
X63039800Y-105629700D01*
G75*
G02*
X63277300Y-105392200I237500J0D01*
G01*
X63752300Y-105392200D01*
G75*
G02*
X63989800Y-105629700I0J-237500D01*
G01*
X63989800Y-106129700D01*
G75*
G02*
X63752300Y-106367200I-237500J0D01*
G01*
G37*
%TD*%
%TO.C,R9*%
G36*
G01*
X60831300Y-106240200D02*
X60356300Y-106240200D01*
G75*
G02*
X60118800Y-106002700I0J237500D01*
G01*
X60118800Y-105502700D01*
G75*
G02*
X60356300Y-105265200I237500J0D01*
G01*
X60831300Y-105265200D01*
G75*
G02*
X61068800Y-105502700I0J-237500D01*
G01*
X61068800Y-106002700D01*
G75*
G02*
X60831300Y-106240200I-237500J0D01*
G01*
G37*
G36*
G01*
X60831300Y-108065200D02*
X60356300Y-108065200D01*
G75*
G02*
X60118800Y-107827700I0J237500D01*
G01*
X60118800Y-107327700D01*
G75*
G02*
X60356300Y-107090200I237500J0D01*
G01*
X60831300Y-107090200D01*
G75*
G02*
X61068800Y-107327700I0J-237500D01*
G01*
X61068800Y-107827700D01*
G75*
G02*
X60831300Y-108065200I-237500J0D01*
G01*
G37*
%TD*%
%TO.C,R10*%
G36*
G01*
X63625300Y-99937200D02*
X63150300Y-99937200D01*
G75*
G02*
X62912800Y-99699700I0J237500D01*
G01*
X62912800Y-99199700D01*
G75*
G02*
X63150300Y-98962200I237500J0D01*
G01*
X63625300Y-98962200D01*
G75*
G02*
X63862800Y-99199700I0J-237500D01*
G01*
X63862800Y-99699700D01*
G75*
G02*
X63625300Y-99937200I-237500J0D01*
G01*
G37*
G36*
G01*
X63625300Y-98112200D02*
X63150300Y-98112200D01*
G75*
G02*
X62912800Y-97874700I0J237500D01*
G01*
X62912800Y-97374700D01*
G75*
G02*
X63150300Y-97137200I237500J0D01*
G01*
X63625300Y-97137200D01*
G75*
G02*
X63862800Y-97374700I0J-237500D01*
G01*
X63862800Y-97874700D01*
G75*
G02*
X63625300Y-98112200I-237500J0D01*
G01*
G37*
%TD*%
%TO.C,R17*%
G36*
G01*
X60831300Y-96715200D02*
X60356300Y-96715200D01*
G75*
G02*
X60118800Y-96477700I0J237500D01*
G01*
X60118800Y-95977700D01*
G75*
G02*
X60356300Y-95740200I237500J0D01*
G01*
X60831300Y-95740200D01*
G75*
G02*
X61068800Y-95977700I0J-237500D01*
G01*
X61068800Y-96477700D01*
G75*
G02*
X60831300Y-96715200I-237500J0D01*
G01*
G37*
G36*
G01*
X60831300Y-98540200D02*
X60356300Y-98540200D01*
G75*
G02*
X60118800Y-98302700I0J237500D01*
G01*
X60118800Y-97802700D01*
G75*
G02*
X60356300Y-97565200I237500J0D01*
G01*
X60831300Y-97565200D01*
G75*
G02*
X61068800Y-97802700I0J-237500D01*
G01*
X61068800Y-98302700D01*
G75*
G02*
X60831300Y-98540200I-237500J0D01*
G01*
G37*
%TD*%
%TO.C,R18*%
G36*
G01*
X63625300Y-104509200D02*
X63150300Y-104509200D01*
G75*
G02*
X62912800Y-104271700I0J237500D01*
G01*
X62912800Y-103771700D01*
G75*
G02*
X63150300Y-103534200I237500J0D01*
G01*
X63625300Y-103534200D01*
G75*
G02*
X63862800Y-103771700I0J-237500D01*
G01*
X63862800Y-104271700D01*
G75*
G02*
X63625300Y-104509200I-237500J0D01*
G01*
G37*
G36*
G01*
X63625300Y-102684200D02*
X63150300Y-102684200D01*
G75*
G02*
X62912800Y-102446700I0J237500D01*
G01*
X62912800Y-101946700D01*
G75*
G02*
X63150300Y-101709200I237500J0D01*
G01*
X63625300Y-101709200D01*
G75*
G02*
X63862800Y-101946700I0J-237500D01*
G01*
X63862800Y-102446700D01*
G75*
G02*
X63625300Y-102684200I-237500J0D01*
G01*
G37*
%TD*%
%TO.C,R19*%
G36*
G01*
X60831300Y-101541200D02*
X60356300Y-101541200D01*
G75*
G02*
X60118800Y-101303700I0J237500D01*
G01*
X60118800Y-100803700D01*
G75*
G02*
X60356300Y-100566200I237500J0D01*
G01*
X60831300Y-100566200D01*
G75*
G02*
X61068800Y-100803700I0J-237500D01*
G01*
X61068800Y-101303700D01*
G75*
G02*
X60831300Y-101541200I-237500J0D01*
G01*
G37*
G36*
G01*
X60831300Y-103366200D02*
X60356300Y-103366200D01*
G75*
G02*
X60118800Y-103128700I0J237500D01*
G01*
X60118800Y-102628700D01*
G75*
G02*
X60356300Y-102391200I237500J0D01*
G01*
X60831300Y-102391200D01*
G75*
G02*
X61068800Y-102628700I0J-237500D01*
G01*
X61068800Y-103128700D01*
G75*
G02*
X60831300Y-103366200I-237500J0D01*
G01*
G37*
%TD*%
%TO.C,R20*%
G36*
G01*
X63625300Y-95492200D02*
X63150300Y-95492200D01*
G75*
G02*
X62912800Y-95254700I0J237500D01*
G01*
X62912800Y-94754700D01*
G75*
G02*
X63150300Y-94517200I237500J0D01*
G01*
X63625300Y-94517200D01*
G75*
G02*
X63862800Y-94754700I0J-237500D01*
G01*
X63862800Y-95254700D01*
G75*
G02*
X63625300Y-95492200I-237500J0D01*
G01*
G37*
G36*
G01*
X63625300Y-93667200D02*
X63150300Y-93667200D01*
G75*
G02*
X62912800Y-93429700I0J237500D01*
G01*
X62912800Y-92929700D01*
G75*
G02*
X63150300Y-92692200I237500J0D01*
G01*
X63625300Y-92692200D01*
G75*
G02*
X63862800Y-92929700I0J-237500D01*
G01*
X63862800Y-93429700D01*
G75*
G02*
X63625300Y-93667200I-237500J0D01*
G01*
G37*
%TD*%
%TO.C,R21*%
G36*
G01*
X60831300Y-92270200D02*
X60356300Y-92270200D01*
G75*
G02*
X60118800Y-92032700I0J237500D01*
G01*
X60118800Y-91532700D01*
G75*
G02*
X60356300Y-91295200I237500J0D01*
G01*
X60831300Y-91295200D01*
G75*
G02*
X61068800Y-91532700I0J-237500D01*
G01*
X61068800Y-92032700D01*
G75*
G02*
X60831300Y-92270200I-237500J0D01*
G01*
G37*
G36*
G01*
X60831300Y-94095200D02*
X60356300Y-94095200D01*
G75*
G02*
X60118800Y-93857700I0J237500D01*
G01*
X60118800Y-93357700D01*
G75*
G02*
X60356300Y-93120200I237500J0D01*
G01*
X60831300Y-93120200D01*
G75*
G02*
X61068800Y-93357700I0J-237500D01*
G01*
X61068800Y-93857700D01*
G75*
G02*
X60831300Y-94095200I-237500J0D01*
G01*
G37*
%TD*%
M02*
