M48
; DRILL file {KiCad (5.1.8)-1} date 02/10/21 13:30:45
; FORMAT={-:-/ absolute / inch / decimal}
; #@! TF.CreationDate,2021-02-10T13:30:45-06:00
; #@! TF.GenerationSoftware,Kicad,Pcbnew,(5.1.8)-1
; #@! TF.FileFunction,Plated,1,2,PTH
FMAT,2
INCH
T1C0.0150
T2C0.0157
T3C0.0200
T4C0.0300
T5C0.0315
T6C0.0350
T7C0.0394
T8C0.0618
%
G90
G05
T1
X2.1645Y-3.0471
X2.1795Y-2.3571
X2.3845Y-2.6221
X2.4356Y-4.1244
X2.4356Y-5.3449
X2.4956Y-3.9694
X2.4956Y-5.1899
X2.5406Y-3.7644
X2.5406Y-4.9849
X4.198Y-3.0471
X4.213Y-2.3571
X4.418Y-2.6221
X4.469Y-4.1244
X4.469Y-5.3449
X4.529Y-3.9694
X4.529Y-5.1899
X4.574Y-3.7644
X4.574Y-4.9849
X6.2314Y-3.0471
X6.2464Y-2.3571
X6.4514Y-2.6221
X6.5025Y-4.1244
X6.5025Y-5.3449
X6.5625Y-3.9694
X6.5625Y-5.1899
X6.6075Y-3.7644
X6.6075Y-4.9849
T2
X2.3445Y-2.6921
X4.378Y-2.6921
X6.4114Y-2.6921
T3
X2.2156Y-3.8894
X2.2156Y-3.9844
X2.2156Y-4.1794
X2.2156Y-5.1099
X2.2156Y-5.2049
X2.2156Y-5.3999
X2.2185Y-3.6994
X2.2185Y-4.9199
X4.249Y-3.8894
X4.249Y-3.9844
X4.249Y-4.1794
X4.249Y-5.1099
X4.249Y-5.2049
X4.249Y-5.3999
X4.2519Y-3.6994
X4.2519Y-4.9199
X6.2825Y-3.8894
X6.2825Y-3.9844
X6.2825Y-4.1794
X6.2825Y-5.1099
X6.2825Y-5.2049
X6.2825Y-5.3999
X6.2854Y-3.6994
X6.2854Y-4.9199
T4
X2.3995Y-3.0951
X2.3995Y-3.0951
X2.4995Y-3.0951
X2.3967Y-5.5307
X2.4967Y-5.5307
X4.4301Y-5.5307
X4.5301Y-5.5307
X6.4636Y-4.3102
X6.5636Y-4.3102
X4.4301Y-4.3102
X4.5301Y-4.3102
X4.433Y-3.0951
X4.433Y-3.0951
X4.533Y-3.0951
X2.3967Y-4.3102
X2.4967Y-4.3102
X6.4664Y-3.0951
X6.4664Y-3.0951
X6.5664Y-3.0951
X6.4636Y-5.5307
X6.5636Y-5.5307
T5
X2.0995Y-2.3951
X2.0995Y-2.4951
X2.0995Y-2.5951
X2.0995Y-2.6951
X2.0995Y-2.7951
X2.0995Y-2.8951
X2.0995Y-2.9951
X2.0995Y-3.0951
X2.5995Y-2.3951
X2.5995Y-2.4951
X2.5995Y-2.5951
X2.5995Y-2.6951
X2.5995Y-2.7951
X2.5995Y-2.8951
X2.5995Y-2.9951
X2.5995Y-3.0951
X2.0967Y-4.8307
X2.0967Y-4.9307
X2.0967Y-5.0307
X2.0967Y-5.1307
X2.0967Y-5.2307
X2.0967Y-5.3307
X2.0967Y-5.4307
X2.0967Y-5.5307
X2.5967Y-4.8307
X2.5967Y-4.9307
X2.5967Y-5.0307
X2.5967Y-5.1307
X2.5967Y-5.2307
X2.5967Y-5.3307
X2.5967Y-5.4307
X2.5967Y-5.5307
X4.1301Y-4.8307
X4.1301Y-4.9307
X4.1301Y-5.0307
X4.1301Y-5.1307
X4.1301Y-5.2307
X4.1301Y-5.3307
X4.1301Y-5.4307
X4.1301Y-5.5307
X4.6301Y-4.8307
X4.6301Y-4.9307
X4.6301Y-5.0307
X4.6301Y-5.1307
X4.6301Y-5.2307
X4.6301Y-5.3307
X4.6301Y-5.4307
X4.6301Y-5.5307
X6.1636Y-3.6102
X6.1636Y-3.7102
X6.1636Y-3.8102
X6.1636Y-3.9102
X6.1636Y-4.0102
X6.1636Y-4.1102
X6.1636Y-4.2102
X6.1636Y-4.3102
X6.6636Y-3.6102
X6.6636Y-3.7102
X6.6636Y-3.8102
X6.6636Y-3.9102
X6.6636Y-4.0102
X6.6636Y-4.1102
X6.6636Y-4.2102
X6.6636Y-4.3102
X4.1301Y-3.6102
X4.1301Y-3.7102
X4.1301Y-3.8102
X4.1301Y-3.9102
X4.1301Y-4.0102
X4.1301Y-4.1102
X4.1301Y-4.2102
X4.1301Y-4.3102
X4.6301Y-3.6102
X4.6301Y-3.7102
X4.6301Y-3.8102
X4.6301Y-3.9102
X4.6301Y-4.0102
X4.6301Y-4.1102
X4.6301Y-4.2102
X4.6301Y-4.3102
X4.133Y-2.3951
X4.133Y-2.4951
X4.133Y-2.5951
X4.133Y-2.6951
X4.133Y-2.7951
X4.133Y-2.8951
X4.133Y-2.9951
X4.133Y-3.0951
X4.633Y-2.3951
X4.633Y-2.4951
X4.633Y-2.5951
X4.633Y-2.6951
X4.633Y-2.7951
X4.633Y-2.8951
X4.633Y-2.9951
X4.633Y-3.0951
X2.0967Y-3.6102
X2.0967Y-3.7102
X2.0967Y-3.8102
X2.0967Y-3.9102
X2.0967Y-4.0102
X2.0967Y-4.1102
X2.0967Y-4.2102
X2.0967Y-4.3102
X2.5967Y-3.6102
X2.5967Y-3.7102
X2.5967Y-3.8102
X2.5967Y-3.9102
X2.5967Y-4.0102
X2.5967Y-4.1102
X2.5967Y-4.2102
X2.5967Y-4.3102
X6.1664Y-2.3951
X6.1664Y-2.4951
X6.1664Y-2.5951
X6.1664Y-2.6951
X6.1664Y-2.7951
X6.1664Y-2.8951
X6.1664Y-2.9951
X6.1664Y-3.0951
X6.6664Y-2.3951
X6.6664Y-2.4951
X6.6664Y-2.5951
X6.6664Y-2.6951
X6.6664Y-2.7951
X6.6664Y-2.8951
X6.6664Y-2.9951
X6.6664Y-3.0951
X6.1636Y-4.8307
X6.1636Y-4.9307
X6.1636Y-5.0307
X6.1636Y-5.1307
X6.1636Y-5.2307
X6.1636Y-5.3307
X6.1636Y-5.4307
X6.1636Y-5.5307
X6.6636Y-4.8307
X6.6636Y-4.9307
X6.6636Y-5.0307
X6.6636Y-5.1307
X6.6636Y-5.2307
X6.6636Y-5.3307
X6.6636Y-5.4307
X6.6636Y-5.5307
T6
X7.1378Y-5.3031
X7.228Y-5.3031
X7.2677Y-5.0433
X7.3077Y-5.1134
X7.3477Y-5.0433
X7.3877Y-5.1134
X7.4277Y-5.0433
X7.4677Y-5.1134
X7.5077Y-5.0433
X7.5477Y-5.1134
X7.5878Y-5.3031
X7.678Y-5.3031
X5.1063Y-2.8622
X5.1965Y-2.8622
X5.2362Y-2.6024
X5.2762Y-2.6724
X5.3162Y-2.6024
X5.3562Y-2.6724
X5.3962Y-2.6024
X5.4362Y-2.6724
X5.4762Y-2.6024
X5.5162Y-2.6724
X5.5563Y-2.8622
X5.6465Y-2.8622
X3.0748Y-2.8622
X3.165Y-2.8622
X3.2047Y-2.6024
X3.2447Y-2.6724
X3.2847Y-2.6024
X3.3247Y-2.6724
X3.3647Y-2.6024
X3.4047Y-2.6724
X3.4447Y-2.6024
X3.4847Y-2.6724
X3.5248Y-2.8622
X3.615Y-2.8622
X5.1063Y-4.0827
X5.1965Y-4.0827
X5.2362Y-3.8228
X5.2762Y-3.8929
X5.3162Y-3.8228
X5.3562Y-3.8929
X5.3962Y-3.8228
X5.4362Y-3.8929
X5.4762Y-3.8228
X5.5162Y-3.8929
X5.5563Y-4.0827
X5.6465Y-4.0827
X7.1378Y-2.8622
X7.228Y-2.8622
X7.2677Y-2.6024
X7.3077Y-2.6724
X7.3477Y-2.6024
X7.3877Y-2.6724
X7.4277Y-2.6024
X7.4677Y-2.6724
X7.5077Y-2.6024
X7.5477Y-2.6724
X7.5878Y-2.8622
X7.678Y-2.8622
X7.1378Y-4.0827
X7.228Y-4.0827
X7.2677Y-3.8228
X7.3077Y-3.8929
X7.3477Y-3.8228
X7.3877Y-3.8929
X7.4277Y-3.8228
X7.4677Y-3.8929
X7.5077Y-3.8228
X7.5477Y-3.8929
X7.5878Y-4.0827
X7.678Y-4.0827
X3.0748Y-5.3031
X3.165Y-5.3031
X3.2047Y-5.0433
X3.2447Y-5.1134
X3.2847Y-5.0433
X3.3247Y-5.1134
X3.3647Y-5.0433
X3.4047Y-5.1134
X3.4447Y-5.0433
X3.4847Y-5.1134
X3.5248Y-5.3031
X3.615Y-5.3031
X5.1063Y-5.3031
X5.1965Y-5.3031
X5.2362Y-5.0433
X5.2762Y-5.1134
X5.3162Y-5.0433
X5.3562Y-5.1134
X5.3962Y-5.0433
X5.4362Y-5.1134
X5.4762Y-5.0433
X5.5162Y-5.1134
X5.5563Y-5.3031
X5.6465Y-5.3031
X3.0748Y-4.0827
X3.165Y-4.0827
X3.2047Y-3.8228
X3.2447Y-3.8929
X3.2847Y-3.8228
X3.3247Y-3.8929
X3.3647Y-3.8228
X3.4047Y-3.8929
X3.4447Y-3.8228
X3.4847Y-3.8929
X3.5248Y-4.0827
X3.615Y-4.0827
T7
X7.2227Y-4.2367
X7.2227Y-4.3367
X7.3227Y-4.2367
X7.3227Y-4.3367
X7.4227Y-4.2367
X7.4227Y-4.3367
X7.5227Y-4.2367
X7.5227Y-4.3367
X7.6227Y-4.2367
X7.6227Y-4.3367
X3.1597Y-5.4572
X3.1597Y-5.5572
X3.2597Y-5.4572
X3.2597Y-5.5572
X3.3597Y-5.4572
X3.3597Y-5.5572
X3.4597Y-5.4572
X3.4597Y-5.5572
X3.5597Y-5.4572
X3.5597Y-5.5572
X7.2227Y-3.0162
X7.2227Y-3.1162
X7.3227Y-3.0162
X7.3227Y-3.1162
X7.4227Y-3.0162
X7.4227Y-3.1162
X7.5227Y-3.0162
X7.5227Y-3.1162
X7.6227Y-3.0162
X7.6227Y-3.1162
X3.1597Y-3.0162
X3.1597Y-3.1162
X3.2597Y-3.0162
X3.2597Y-3.1162
X3.3597Y-3.0162
X3.3597Y-3.1162
X3.4597Y-3.0162
X3.4597Y-3.1162
X3.5597Y-3.0162
X3.5597Y-3.1162
X7.2227Y-5.4572
X7.2227Y-5.5572
X7.3227Y-5.4572
X7.3227Y-5.5572
X7.4227Y-5.4572
X7.4227Y-5.5572
X7.5227Y-5.4572
X7.5227Y-5.5572
X7.6227Y-5.4572
X7.6227Y-5.5572
X3.1597Y-4.2367
X3.1597Y-4.3367
X3.2597Y-4.2367
X3.2597Y-4.3367
X3.3597Y-4.2367
X3.3597Y-4.3367
X3.4597Y-4.2367
X3.4597Y-4.3367
X3.5597Y-4.2367
X3.5597Y-4.3367
X5.1912Y-3.0162
X5.1912Y-3.1162
X5.2912Y-3.0162
X5.2912Y-3.1162
X5.3912Y-3.0162
X5.3912Y-3.1162
X5.4912Y-3.0162
X5.4912Y-3.1162
X5.5912Y-3.0162
X5.5912Y-3.1162
X5.1912Y-5.4572
X5.1912Y-5.5572
X5.2912Y-5.4572
X5.2912Y-5.5572
X5.3912Y-5.4572
X5.3912Y-5.5572
X5.4912Y-5.4572
X5.4912Y-5.5572
X5.5912Y-5.4572
X5.5912Y-5.5572
X5.1912Y-4.2367
X5.1912Y-4.3367
X5.2912Y-4.2367
X5.2912Y-4.3367
X5.3912Y-4.2367
X5.3912Y-4.3367
X5.4912Y-4.2367
X5.4912Y-4.3367
X5.5912Y-4.2367
X5.5912Y-4.3367
T8
X3.0248Y-2.6374
X3.665Y-2.6374
X5.0563Y-3.8579
X5.6965Y-3.8579
X7.0878Y-2.6374
X7.728Y-2.6374
X7.0878Y-3.8579
X7.728Y-3.8579
X3.0248Y-5.0783
X3.665Y-5.0783
X5.0563Y-5.0783
X5.6965Y-5.0783
X3.0248Y-3.8579
X3.665Y-3.8579
X7.0878Y-5.0783
X7.728Y-5.0783
X5.0563Y-2.6374
X5.6965Y-2.6374
T0
M30
