%TF.GenerationSoftware,KiCad,Pcbnew,(5.1.8)-1*%
%TF.CreationDate,2021-02-10T13:28:32-06:00*%
%TF.ProjectId,PanelDrivers,50616e65-6c44-4726-9976-6572732e6b69,rev?*%
%TF.SameCoordinates,Original*%
%TF.FileFunction,Copper,L1,Top*%
%TF.FilePolarity,Positive*%
%FSLAX46Y46*%
G04 Gerber Fmt 4.6, Leading zero omitted, Abs format (unit mm)*
G04 Created by KiCad (PCBNEW (5.1.8)-1) date 2021-02-10 13:28:32*
%MOMM*%
%LPD*%
G01*
G04 APERTURE LIST*
%TA.AperFunction,ComponentPad*%
%ADD10R,1.700000X1.700000*%
%TD*%
%TA.AperFunction,ComponentPad*%
%ADD11O,1.700000X1.700000*%
%TD*%
%TA.AperFunction,ComponentPad*%
%ADD12C,1.500000*%
%TD*%
%TA.AperFunction,ComponentPad*%
%ADD13C,2.300000*%
%TD*%
%TA.AperFunction,ComponentPad*%
%ADD14R,1.500000X1.500000*%
%TD*%
%TA.AperFunction,SMDPad,CuDef*%
%ADD15C,1.000000*%
%TD*%
%TA.AperFunction,SMDPad,CuDef*%
%ADD16R,0.900000X0.800000*%
%TD*%
%TA.AperFunction,ComponentPad*%
%ADD17O,2.000000X1.200000*%
%TD*%
%TA.AperFunction,ComponentPad*%
%ADD18R,2.000000X1.200000*%
%TD*%
%TA.AperFunction,ComponentPad*%
%ADD19C,1.524000*%
%TD*%
%TA.AperFunction,ViaPad*%
%ADD20C,0.800000*%
%TD*%
%TA.AperFunction,ViaPad*%
%ADD21C,0.762000*%
%TD*%
%TA.AperFunction,ViaPad*%
%ADD22C,1.016000*%
%TD*%
%TA.AperFunction,Conductor*%
%ADD23C,0.508000*%
%TD*%
%TA.AperFunction,Conductor*%
%ADD24C,0.250000*%
%TD*%
%TA.AperFunction,Conductor*%
%ADD25C,0.254000*%
%TD*%
%TA.AperFunction,Conductor*%
%ADD26C,0.762000*%
%TD*%
G04 APERTURE END LIST*
D10*
%TO.P,J5,1*%
%TO.N,Net-(J5-Pad1)*%
X183456000Y-138612000D03*
D11*
%TO.P,J5,2*%
%TO.N,Net-(J5-Pad2)*%
X183456000Y-141152000D03*
%TO.P,J5,3*%
%TO.N,Net-(J5-Pad3)*%
X185996000Y-138612000D03*
%TO.P,J5,4*%
%TO.N,Net-(J5-Pad2)*%
X185996000Y-141152000D03*
%TO.P,J5,5*%
%TO.N,Net-(J5-Pad5)*%
X188536000Y-138612000D03*
%TO.P,J5,6*%
%TO.N,Net-(J5-Pad2)*%
X188536000Y-141152000D03*
%TO.P,J5,7*%
%TO.N,Net-(J5-Pad7)*%
X191076000Y-138612000D03*
%TO.P,J5,8*%
%TO.N,Net-(J5-Pad2)*%
X191076000Y-141152000D03*
%TO.P,J5,9*%
%TO.N,Net-(J5-Pad9)*%
X193616000Y-138612000D03*
%TO.P,J5,10*%
%TO.N,Net-(J5-Pad1)*%
X193616000Y-141152000D03*
%TD*%
D10*
%TO.P,J5,1*%
%TO.N,Net-(J5-Pad1)*%
X131856000Y-138612000D03*
D11*
%TO.P,J5,2*%
%TO.N,Net-(J5-Pad2)*%
X131856000Y-141152000D03*
%TO.P,J5,3*%
%TO.N,Net-(J5-Pad3)*%
X134396000Y-138612000D03*
%TO.P,J5,4*%
%TO.N,Net-(J5-Pad2)*%
X134396000Y-141152000D03*
%TO.P,J5,5*%
%TO.N,Net-(J5-Pad5)*%
X136936000Y-138612000D03*
%TO.P,J5,6*%
%TO.N,Net-(J5-Pad2)*%
X136936000Y-141152000D03*
%TO.P,J5,7*%
%TO.N,Net-(J5-Pad7)*%
X139476000Y-138612000D03*
%TO.P,J5,8*%
%TO.N,Net-(J5-Pad2)*%
X139476000Y-141152000D03*
%TO.P,J5,9*%
%TO.N,Net-(J5-Pad9)*%
X142016000Y-138612000D03*
%TO.P,J5,10*%
%TO.N,Net-(J5-Pad1)*%
X142016000Y-141152000D03*
%TD*%
D10*
%TO.P,J5,1*%
%TO.N,Net-(J5-Pad1)*%
X80256000Y-138612000D03*
D11*
%TO.P,J5,2*%
%TO.N,Net-(J5-Pad2)*%
X80256000Y-141152000D03*
%TO.P,J5,3*%
%TO.N,Net-(J5-Pad3)*%
X82796000Y-138612000D03*
%TO.P,J5,4*%
%TO.N,Net-(J5-Pad2)*%
X82796000Y-141152000D03*
%TO.P,J5,5*%
%TO.N,Net-(J5-Pad5)*%
X85336000Y-138612000D03*
%TO.P,J5,6*%
%TO.N,Net-(J5-Pad2)*%
X85336000Y-141152000D03*
%TO.P,J5,7*%
%TO.N,Net-(J5-Pad7)*%
X87876000Y-138612000D03*
%TO.P,J5,8*%
%TO.N,Net-(J5-Pad2)*%
X87876000Y-141152000D03*
%TO.P,J5,9*%
%TO.N,Net-(J5-Pad9)*%
X90416000Y-138612000D03*
%TO.P,J5,10*%
%TO.N,Net-(J5-Pad1)*%
X90416000Y-141152000D03*
%TD*%
D10*
%TO.P,J5,1*%
%TO.N,Net-(J5-Pad1)*%
X183456000Y-107612000D03*
D11*
%TO.P,J5,2*%
%TO.N,Net-(J5-Pad2)*%
X183456000Y-110152000D03*
%TO.P,J5,3*%
%TO.N,Net-(J5-Pad3)*%
X185996000Y-107612000D03*
%TO.P,J5,4*%
%TO.N,Net-(J5-Pad2)*%
X185996000Y-110152000D03*
%TO.P,J5,5*%
%TO.N,Net-(J5-Pad5)*%
X188536000Y-107612000D03*
%TO.P,J5,6*%
%TO.N,Net-(J5-Pad2)*%
X188536000Y-110152000D03*
%TO.P,J5,7*%
%TO.N,Net-(J5-Pad7)*%
X191076000Y-107612000D03*
%TO.P,J5,8*%
%TO.N,Net-(J5-Pad2)*%
X191076000Y-110152000D03*
%TO.P,J5,9*%
%TO.N,Net-(J5-Pad9)*%
X193616000Y-107612000D03*
%TO.P,J5,10*%
%TO.N,Net-(J5-Pad1)*%
X193616000Y-110152000D03*
%TD*%
D10*
%TO.P,J5,1*%
%TO.N,Net-(J5-Pad1)*%
X131856000Y-107612000D03*
D11*
%TO.P,J5,2*%
%TO.N,Net-(J5-Pad2)*%
X131856000Y-110152000D03*
%TO.P,J5,3*%
%TO.N,Net-(J5-Pad3)*%
X134396000Y-107612000D03*
%TO.P,J5,4*%
%TO.N,Net-(J5-Pad2)*%
X134396000Y-110152000D03*
%TO.P,J5,5*%
%TO.N,Net-(J5-Pad5)*%
X136936000Y-107612000D03*
%TO.P,J5,6*%
%TO.N,Net-(J5-Pad2)*%
X136936000Y-110152000D03*
%TO.P,J5,7*%
%TO.N,Net-(J5-Pad7)*%
X139476000Y-107612000D03*
%TO.P,J5,8*%
%TO.N,Net-(J5-Pad2)*%
X139476000Y-110152000D03*
%TO.P,J5,9*%
%TO.N,Net-(J5-Pad9)*%
X142016000Y-107612000D03*
%TO.P,J5,10*%
%TO.N,Net-(J5-Pad1)*%
X142016000Y-110152000D03*
%TD*%
D10*
%TO.P,J5,1*%
%TO.N,Net-(J5-Pad1)*%
X80256000Y-107612000D03*
D11*
%TO.P,J5,2*%
%TO.N,Net-(J5-Pad2)*%
X80256000Y-110152000D03*
%TO.P,J5,3*%
%TO.N,Net-(J5-Pad3)*%
X82796000Y-107612000D03*
%TO.P,J5,4*%
%TO.N,Net-(J5-Pad2)*%
X82796000Y-110152000D03*
%TO.P,J5,5*%
%TO.N,Net-(J5-Pad5)*%
X85336000Y-107612000D03*
%TO.P,J5,6*%
%TO.N,Net-(J5-Pad2)*%
X85336000Y-110152000D03*
%TO.P,J5,7*%
%TO.N,Net-(J5-Pad7)*%
X87876000Y-107612000D03*
%TO.P,J5,8*%
%TO.N,Net-(J5-Pad2)*%
X87876000Y-110152000D03*
%TO.P,J5,9*%
%TO.N,Net-(J5-Pad9)*%
X90416000Y-107612000D03*
%TO.P,J5,10*%
%TO.N,Net-(J5-Pad1)*%
X90416000Y-110152000D03*
%TD*%
D10*
%TO.P,J5,1*%
%TO.N,Net-(J5-Pad1)*%
X183456000Y-76612000D03*
D11*
%TO.P,J5,2*%
%TO.N,Net-(J5-Pad2)*%
X183456000Y-79152000D03*
%TO.P,J5,3*%
%TO.N,Net-(J5-Pad3)*%
X185996000Y-76612000D03*
%TO.P,J5,4*%
%TO.N,Net-(J5-Pad2)*%
X185996000Y-79152000D03*
%TO.P,J5,5*%
%TO.N,Net-(J5-Pad5)*%
X188536000Y-76612000D03*
%TO.P,J5,6*%
%TO.N,Net-(J5-Pad2)*%
X188536000Y-79152000D03*
%TO.P,J5,7*%
%TO.N,Net-(J5-Pad7)*%
X191076000Y-76612000D03*
%TO.P,J5,8*%
%TO.N,Net-(J5-Pad2)*%
X191076000Y-79152000D03*
%TO.P,J5,9*%
%TO.N,Net-(J5-Pad9)*%
X193616000Y-76612000D03*
%TO.P,J5,10*%
%TO.N,Net-(J5-Pad1)*%
X193616000Y-79152000D03*
%TD*%
D10*
%TO.P,J5,1*%
%TO.N,Net-(J5-Pad1)*%
X131856000Y-76612000D03*
D11*
%TO.P,J5,2*%
%TO.N,Net-(J5-Pad2)*%
X131856000Y-79152000D03*
%TO.P,J5,3*%
%TO.N,Net-(J5-Pad3)*%
X134396000Y-76612000D03*
%TO.P,J5,4*%
%TO.N,Net-(J5-Pad2)*%
X134396000Y-79152000D03*
%TO.P,J5,5*%
%TO.N,Net-(J5-Pad5)*%
X136936000Y-76612000D03*
%TO.P,J5,6*%
%TO.N,Net-(J5-Pad2)*%
X136936000Y-79152000D03*
%TO.P,J5,7*%
%TO.N,Net-(J5-Pad7)*%
X139476000Y-76612000D03*
%TO.P,J5,8*%
%TO.N,Net-(J5-Pad2)*%
X139476000Y-79152000D03*
%TO.P,J5,9*%
%TO.N,Net-(J5-Pad9)*%
X142016000Y-76612000D03*
%TO.P,J5,10*%
%TO.N,Net-(J5-Pad1)*%
X142016000Y-79152000D03*
%TD*%
D12*
%TO.P,J6,12*%
%TO.N,Net-(J6-Pad12)*%
X195020000Y-134700000D03*
%TO.P,J6,11*%
%TO.N,Net-(J5-Pad2)*%
X192730000Y-134700000D03*
%TO.P,J6,10*%
%TO.N,Net-(J6-Pad10)*%
X183590000Y-134700000D03*
%TO.P,J6,9*%
%TO.N,Net-(J5-Pad3)*%
X181300000Y-134700000D03*
D13*
%TO.P,J6,SH*%
%TO.N,Net-(J5-Pad1)*%
X180030000Y-128990000D03*
X196290000Y-128990000D03*
D12*
%TO.P,J6,8*%
%TO.N,Net-(J5-Pad9)*%
X191712000Y-129880000D03*
%TO.P,J6,6*%
%TO.N,Net-(J5-Pad7)*%
X189680000Y-129880000D03*
%TO.P,J6,4*%
%TO.N,Net-(J5-Pad5)*%
X187648000Y-129880000D03*
%TO.P,J6,2*%
%TO.N,Net-(J5-Pad3)*%
X185616000Y-129880000D03*
%TO.P,J6,7*%
%TO.N,Net-(J5-Pad2)*%
X190696000Y-128100000D03*
%TO.P,J6,5*%
X188664000Y-128100000D03*
%TO.P,J6,3*%
X186632000Y-128100000D03*
D14*
%TO.P,J6,1*%
X184600000Y-128100000D03*
%TD*%
D12*
%TO.P,J6,12*%
%TO.N,Net-(J6-Pad12)*%
X143420000Y-134700000D03*
%TO.P,J6,11*%
%TO.N,Net-(J5-Pad2)*%
X141130000Y-134700000D03*
%TO.P,J6,10*%
%TO.N,Net-(J6-Pad10)*%
X131990000Y-134700000D03*
%TO.P,J6,9*%
%TO.N,Net-(J5-Pad3)*%
X129700000Y-134700000D03*
D13*
%TO.P,J6,SH*%
%TO.N,Net-(J5-Pad1)*%
X128430000Y-128990000D03*
X144690000Y-128990000D03*
D12*
%TO.P,J6,8*%
%TO.N,Net-(J5-Pad9)*%
X140112000Y-129880000D03*
%TO.P,J6,6*%
%TO.N,Net-(J5-Pad7)*%
X138080000Y-129880000D03*
%TO.P,J6,4*%
%TO.N,Net-(J5-Pad5)*%
X136048000Y-129880000D03*
%TO.P,J6,2*%
%TO.N,Net-(J5-Pad3)*%
X134016000Y-129880000D03*
%TO.P,J6,7*%
%TO.N,Net-(J5-Pad2)*%
X139096000Y-128100000D03*
%TO.P,J6,5*%
X137064000Y-128100000D03*
%TO.P,J6,3*%
X135032000Y-128100000D03*
D14*
%TO.P,J6,1*%
X133000000Y-128100000D03*
%TD*%
D12*
%TO.P,J6,12*%
%TO.N,Net-(J6-Pad12)*%
X91820000Y-134700000D03*
%TO.P,J6,11*%
%TO.N,Net-(J5-Pad2)*%
X89530000Y-134700000D03*
%TO.P,J6,10*%
%TO.N,Net-(J6-Pad10)*%
X80390000Y-134700000D03*
%TO.P,J6,9*%
%TO.N,Net-(J5-Pad3)*%
X78100000Y-134700000D03*
D13*
%TO.P,J6,SH*%
%TO.N,Net-(J5-Pad1)*%
X76830000Y-128990000D03*
X93090000Y-128990000D03*
D12*
%TO.P,J6,8*%
%TO.N,Net-(J5-Pad9)*%
X88512000Y-129880000D03*
%TO.P,J6,6*%
%TO.N,Net-(J5-Pad7)*%
X86480000Y-129880000D03*
%TO.P,J6,4*%
%TO.N,Net-(J5-Pad5)*%
X84448000Y-129880000D03*
%TO.P,J6,2*%
%TO.N,Net-(J5-Pad3)*%
X82416000Y-129880000D03*
%TO.P,J6,7*%
%TO.N,Net-(J5-Pad2)*%
X87496000Y-128100000D03*
%TO.P,J6,5*%
X85464000Y-128100000D03*
%TO.P,J6,3*%
X83432000Y-128100000D03*
D14*
%TO.P,J6,1*%
X81400000Y-128100000D03*
%TD*%
D12*
%TO.P,J6,12*%
%TO.N,Net-(J6-Pad12)*%
X195020000Y-103700000D03*
%TO.P,J6,11*%
%TO.N,Net-(J5-Pad2)*%
X192730000Y-103700000D03*
%TO.P,J6,10*%
%TO.N,Net-(J6-Pad10)*%
X183590000Y-103700000D03*
%TO.P,J6,9*%
%TO.N,Net-(J5-Pad3)*%
X181300000Y-103700000D03*
D13*
%TO.P,J6,SH*%
%TO.N,Net-(J5-Pad1)*%
X180030000Y-97990000D03*
X196290000Y-97990000D03*
D12*
%TO.P,J6,8*%
%TO.N,Net-(J5-Pad9)*%
X191712000Y-98880000D03*
%TO.P,J6,6*%
%TO.N,Net-(J5-Pad7)*%
X189680000Y-98880000D03*
%TO.P,J6,4*%
%TO.N,Net-(J5-Pad5)*%
X187648000Y-98880000D03*
%TO.P,J6,2*%
%TO.N,Net-(J5-Pad3)*%
X185616000Y-98880000D03*
%TO.P,J6,7*%
%TO.N,Net-(J5-Pad2)*%
X190696000Y-97100000D03*
%TO.P,J6,5*%
X188664000Y-97100000D03*
%TO.P,J6,3*%
X186632000Y-97100000D03*
D14*
%TO.P,J6,1*%
X184600000Y-97100000D03*
%TD*%
D12*
%TO.P,J6,12*%
%TO.N,Net-(J6-Pad12)*%
X143420000Y-103700000D03*
%TO.P,J6,11*%
%TO.N,Net-(J5-Pad2)*%
X141130000Y-103700000D03*
%TO.P,J6,10*%
%TO.N,Net-(J6-Pad10)*%
X131990000Y-103700000D03*
%TO.P,J6,9*%
%TO.N,Net-(J5-Pad3)*%
X129700000Y-103700000D03*
D13*
%TO.P,J6,SH*%
%TO.N,Net-(J5-Pad1)*%
X128430000Y-97990000D03*
X144690000Y-97990000D03*
D12*
%TO.P,J6,8*%
%TO.N,Net-(J5-Pad9)*%
X140112000Y-98880000D03*
%TO.P,J6,6*%
%TO.N,Net-(J5-Pad7)*%
X138080000Y-98880000D03*
%TO.P,J6,4*%
%TO.N,Net-(J5-Pad5)*%
X136048000Y-98880000D03*
%TO.P,J6,2*%
%TO.N,Net-(J5-Pad3)*%
X134016000Y-98880000D03*
%TO.P,J6,7*%
%TO.N,Net-(J5-Pad2)*%
X139096000Y-97100000D03*
%TO.P,J6,5*%
X137064000Y-97100000D03*
%TO.P,J6,3*%
X135032000Y-97100000D03*
D14*
%TO.P,J6,1*%
X133000000Y-97100000D03*
%TD*%
D12*
%TO.P,J6,12*%
%TO.N,Net-(J6-Pad12)*%
X91820000Y-103700000D03*
%TO.P,J6,11*%
%TO.N,Net-(J5-Pad2)*%
X89530000Y-103700000D03*
%TO.P,J6,10*%
%TO.N,Net-(J6-Pad10)*%
X80390000Y-103700000D03*
%TO.P,J6,9*%
%TO.N,Net-(J5-Pad3)*%
X78100000Y-103700000D03*
D13*
%TO.P,J6,SH*%
%TO.N,Net-(J5-Pad1)*%
X76830000Y-97990000D03*
X93090000Y-97990000D03*
D12*
%TO.P,J6,8*%
%TO.N,Net-(J5-Pad9)*%
X88512000Y-98880000D03*
%TO.P,J6,6*%
%TO.N,Net-(J5-Pad7)*%
X86480000Y-98880000D03*
%TO.P,J6,4*%
%TO.N,Net-(J5-Pad5)*%
X84448000Y-98880000D03*
%TO.P,J6,2*%
%TO.N,Net-(J5-Pad3)*%
X82416000Y-98880000D03*
%TO.P,J6,7*%
%TO.N,Net-(J5-Pad2)*%
X87496000Y-97100000D03*
%TO.P,J6,5*%
X85464000Y-97100000D03*
%TO.P,J6,3*%
X83432000Y-97100000D03*
D14*
%TO.P,J6,1*%
X81400000Y-97100000D03*
%TD*%
D12*
%TO.P,J6,12*%
%TO.N,Net-(J6-Pad12)*%
X195020000Y-72700000D03*
%TO.P,J6,11*%
%TO.N,Net-(J5-Pad2)*%
X192730000Y-72700000D03*
%TO.P,J6,10*%
%TO.N,Net-(J6-Pad10)*%
X183590000Y-72700000D03*
%TO.P,J6,9*%
%TO.N,Net-(J5-Pad3)*%
X181300000Y-72700000D03*
D13*
%TO.P,J6,SH*%
%TO.N,Net-(J5-Pad1)*%
X180030000Y-66990000D03*
X196290000Y-66990000D03*
D12*
%TO.P,J6,8*%
%TO.N,Net-(J5-Pad9)*%
X191712000Y-67880000D03*
%TO.P,J6,6*%
%TO.N,Net-(J5-Pad7)*%
X189680000Y-67880000D03*
%TO.P,J6,4*%
%TO.N,Net-(J5-Pad5)*%
X187648000Y-67880000D03*
%TO.P,J6,2*%
%TO.N,Net-(J5-Pad3)*%
X185616000Y-67880000D03*
%TO.P,J6,7*%
%TO.N,Net-(J5-Pad2)*%
X190696000Y-66100000D03*
%TO.P,J6,5*%
X188664000Y-66100000D03*
%TO.P,J6,3*%
X186632000Y-66100000D03*
D14*
%TO.P,J6,1*%
X184600000Y-66100000D03*
%TD*%
D12*
%TO.P,J6,12*%
%TO.N,Net-(J6-Pad12)*%
X143420000Y-72700000D03*
%TO.P,J6,11*%
%TO.N,Net-(J5-Pad2)*%
X141130000Y-72700000D03*
%TO.P,J6,10*%
%TO.N,Net-(J6-Pad10)*%
X131990000Y-72700000D03*
%TO.P,J6,9*%
%TO.N,Net-(J5-Pad3)*%
X129700000Y-72700000D03*
D13*
%TO.P,J6,SH*%
%TO.N,Net-(J5-Pad1)*%
X128430000Y-66990000D03*
X144690000Y-66990000D03*
D12*
%TO.P,J6,8*%
%TO.N,Net-(J5-Pad9)*%
X140112000Y-67880000D03*
%TO.P,J6,6*%
%TO.N,Net-(J5-Pad7)*%
X138080000Y-67880000D03*
%TO.P,J6,4*%
%TO.N,Net-(J5-Pad5)*%
X136048000Y-67880000D03*
%TO.P,J6,2*%
%TO.N,Net-(J5-Pad3)*%
X134016000Y-67880000D03*
%TO.P,J6,7*%
%TO.N,Net-(J5-Pad2)*%
X139096000Y-66100000D03*
%TO.P,J6,5*%
X137064000Y-66100000D03*
%TO.P,J6,3*%
X135032000Y-66100000D03*
D14*
%TO.P,J6,1*%
X133000000Y-66100000D03*
%TD*%
D11*
%TO.P,J5,10*%
%TO.N,Net-(J5-Pad1)*%
X90416000Y-79152000D03*
%TO.P,J5,9*%
%TO.N,Net-(J5-Pad9)*%
X90416000Y-76612000D03*
%TO.P,J5,8*%
%TO.N,Net-(J5-Pad2)*%
X87876000Y-79152000D03*
%TO.P,J5,7*%
%TO.N,Net-(J5-Pad7)*%
X87876000Y-76612000D03*
%TO.P,J5,6*%
%TO.N,Net-(J5-Pad2)*%
X85336000Y-79152000D03*
%TO.P,J5,5*%
%TO.N,Net-(J5-Pad5)*%
X85336000Y-76612000D03*
%TO.P,J5,4*%
%TO.N,Net-(J5-Pad2)*%
X82796000Y-79152000D03*
%TO.P,J5,3*%
%TO.N,Net-(J5-Pad3)*%
X82796000Y-76612000D03*
%TO.P,J5,2*%
%TO.N,Net-(J5-Pad2)*%
X80256000Y-79152000D03*
D10*
%TO.P,J5,1*%
%TO.N,Net-(J5-Pad1)*%
X80256000Y-76612000D03*
%TD*%
D15*
%TO.P,FD2,~*%
%TO.N,N/C*%
X60000000Y-155000000D03*
%TD*%
%TO.P,FD2,~*%
%TO.N,N/C*%
X190000000Y-155000000D03*
%TD*%
%TO.P,FD2,~*%
%TO.N,N/C*%
X190000000Y-47500000D03*
%TD*%
%TO.P,FD2,~*%
%TO.N,N/C*%
X60000000Y-47500000D03*
%TD*%
%TO.P,R9,2*%
%TO.N,Net-(J11-Pad15)*%
%TA.AperFunction,SMDPad,CuDef*%
G36*
G01*
X164131300Y-137240200D02*
X163656300Y-137240200D01*
G75*
G02*
X163418800Y-137002700I0J237500D01*
G01*
X163418800Y-136502700D01*
G75*
G02*
X163656300Y-136265200I237500J0D01*
G01*
X164131300Y-136265200D01*
G75*
G02*
X164368800Y-136502700I0J-237500D01*
G01*
X164368800Y-137002700D01*
G75*
G02*
X164131300Y-137240200I-237500J0D01*
G01*
G37*
%TD.AperFunction*%
%TO.P,R9,1*%
%TO.N,Net-(Q2-Pad1)*%
%TA.AperFunction,SMDPad,CuDef*%
G36*
G01*
X164131300Y-139065200D02*
X163656300Y-139065200D01*
G75*
G02*
X163418800Y-138827700I0J237500D01*
G01*
X163418800Y-138327700D01*
G75*
G02*
X163656300Y-138090200I237500J0D01*
G01*
X164131300Y-138090200D01*
G75*
G02*
X164368800Y-138327700I0J-237500D01*
G01*
X164368800Y-138827700D01*
G75*
G02*
X164131300Y-139065200I-237500J0D01*
G01*
G37*
%TD.AperFunction*%
%TD*%
%TO.P,R9,2*%
%TO.N,Net-(J11-Pad15)*%
%TA.AperFunction,SMDPad,CuDef*%
G36*
G01*
X112481300Y-137240200D02*
X112006300Y-137240200D01*
G75*
G02*
X111768800Y-137002700I0J237500D01*
G01*
X111768800Y-136502700D01*
G75*
G02*
X112006300Y-136265200I237500J0D01*
G01*
X112481300Y-136265200D01*
G75*
G02*
X112718800Y-136502700I0J-237500D01*
G01*
X112718800Y-137002700D01*
G75*
G02*
X112481300Y-137240200I-237500J0D01*
G01*
G37*
%TD.AperFunction*%
%TO.P,R9,1*%
%TO.N,Net-(Q2-Pad1)*%
%TA.AperFunction,SMDPad,CuDef*%
G36*
G01*
X112481300Y-139065200D02*
X112006300Y-139065200D01*
G75*
G02*
X111768800Y-138827700I0J237500D01*
G01*
X111768800Y-138327700D01*
G75*
G02*
X112006300Y-138090200I237500J0D01*
G01*
X112481300Y-138090200D01*
G75*
G02*
X112718800Y-138327700I0J-237500D01*
G01*
X112718800Y-138827700D01*
G75*
G02*
X112481300Y-139065200I-237500J0D01*
G01*
G37*
%TD.AperFunction*%
%TD*%
%TO.P,R10,1*%
%TO.N,Net-(J11-Pad8)*%
%TA.AperFunction,SMDPad,CuDef*%
G36*
G01*
X166925300Y-130937200D02*
X166450300Y-130937200D01*
G75*
G02*
X166212800Y-130699700I0J237500D01*
G01*
X166212800Y-130199700D01*
G75*
G02*
X166450300Y-129962200I237500J0D01*
G01*
X166925300Y-129962200D01*
G75*
G02*
X167162800Y-130199700I0J-237500D01*
G01*
X167162800Y-130699700D01*
G75*
G02*
X166925300Y-130937200I-237500J0D01*
G01*
G37*
%TD.AperFunction*%
%TO.P,R10,2*%
%TO.N,Net-(Q3-Pad1)*%
%TA.AperFunction,SMDPad,CuDef*%
G36*
G01*
X166925300Y-129112200D02*
X166450300Y-129112200D01*
G75*
G02*
X166212800Y-128874700I0J237500D01*
G01*
X166212800Y-128374700D01*
G75*
G02*
X166450300Y-128137200I237500J0D01*
G01*
X166925300Y-128137200D01*
G75*
G02*
X167162800Y-128374700I0J-237500D01*
G01*
X167162800Y-128874700D01*
G75*
G02*
X166925300Y-129112200I-237500J0D01*
G01*
G37*
%TD.AperFunction*%
%TD*%
%TO.P,R10,1*%
%TO.N,Net-(J11-Pad8)*%
%TA.AperFunction,SMDPad,CuDef*%
G36*
G01*
X115275300Y-130937200D02*
X114800300Y-130937200D01*
G75*
G02*
X114562800Y-130699700I0J237500D01*
G01*
X114562800Y-130199700D01*
G75*
G02*
X114800300Y-129962200I237500J0D01*
G01*
X115275300Y-129962200D01*
G75*
G02*
X115512800Y-130199700I0J-237500D01*
G01*
X115512800Y-130699700D01*
G75*
G02*
X115275300Y-130937200I-237500J0D01*
G01*
G37*
%TD.AperFunction*%
%TO.P,R10,2*%
%TO.N,Net-(Q3-Pad1)*%
%TA.AperFunction,SMDPad,CuDef*%
G36*
G01*
X115275300Y-129112200D02*
X114800300Y-129112200D01*
G75*
G02*
X114562800Y-128874700I0J237500D01*
G01*
X114562800Y-128374700D01*
G75*
G02*
X114800300Y-128137200I237500J0D01*
G01*
X115275300Y-128137200D01*
G75*
G02*
X115512800Y-128374700I0J-237500D01*
G01*
X115512800Y-128874700D01*
G75*
G02*
X115275300Y-129112200I-237500J0D01*
G01*
G37*
%TD.AperFunction*%
%TD*%
%TO.P,R21,2*%
%TO.N,Net-(J11-Pad15)*%
%TA.AperFunction,SMDPad,CuDef*%
G36*
G01*
X164131300Y-123270200D02*
X163656300Y-123270200D01*
G75*
G02*
X163418800Y-123032700I0J237500D01*
G01*
X163418800Y-122532700D01*
G75*
G02*
X163656300Y-122295200I237500J0D01*
G01*
X164131300Y-122295200D01*
G75*
G02*
X164368800Y-122532700I0J-237500D01*
G01*
X164368800Y-123032700D01*
G75*
G02*
X164131300Y-123270200I-237500J0D01*
G01*
G37*
%TD.AperFunction*%
%TO.P,R21,1*%
%TO.N,Net-(Q5-Pad1)*%
%TA.AperFunction,SMDPad,CuDef*%
G36*
G01*
X164131300Y-125095200D02*
X163656300Y-125095200D01*
G75*
G02*
X163418800Y-124857700I0J237500D01*
G01*
X163418800Y-124357700D01*
G75*
G02*
X163656300Y-124120200I237500J0D01*
G01*
X164131300Y-124120200D01*
G75*
G02*
X164368800Y-124357700I0J-237500D01*
G01*
X164368800Y-124857700D01*
G75*
G02*
X164131300Y-125095200I-237500J0D01*
G01*
G37*
%TD.AperFunction*%
%TD*%
%TO.P,R21,2*%
%TO.N,Net-(J11-Pad15)*%
%TA.AperFunction,SMDPad,CuDef*%
G36*
G01*
X112481300Y-123270200D02*
X112006300Y-123270200D01*
G75*
G02*
X111768800Y-123032700I0J237500D01*
G01*
X111768800Y-122532700D01*
G75*
G02*
X112006300Y-122295200I237500J0D01*
G01*
X112481300Y-122295200D01*
G75*
G02*
X112718800Y-122532700I0J-237500D01*
G01*
X112718800Y-123032700D01*
G75*
G02*
X112481300Y-123270200I-237500J0D01*
G01*
G37*
%TD.AperFunction*%
%TO.P,R21,1*%
%TO.N,Net-(Q5-Pad1)*%
%TA.AperFunction,SMDPad,CuDef*%
G36*
G01*
X112481300Y-125095200D02*
X112006300Y-125095200D01*
G75*
G02*
X111768800Y-124857700I0J237500D01*
G01*
X111768800Y-124357700D01*
G75*
G02*
X112006300Y-124120200I237500J0D01*
G01*
X112481300Y-124120200D01*
G75*
G02*
X112718800Y-124357700I0J-237500D01*
G01*
X112718800Y-124857700D01*
G75*
G02*
X112481300Y-125095200I-237500J0D01*
G01*
G37*
%TD.AperFunction*%
%TD*%
D16*
%TO.P,Q2,3*%
%TO.N,Net-(J11-Pad15)*%
X159718800Y-138300200D03*
%TO.P,Q2,2*%
%TO.N,Net-(J11-Pad14)*%
X161718800Y-137350200D03*
%TO.P,Q2,1*%
%TO.N,Net-(Q2-Pad1)*%
X161718800Y-139250200D03*
%TD*%
%TO.P,Q2,3*%
%TO.N,Net-(J11-Pad15)*%
X108068800Y-138300200D03*
%TO.P,Q2,2*%
%TO.N,Net-(J11-Pad14)*%
X110068800Y-137350200D03*
%TO.P,Q2,1*%
%TO.N,Net-(Q2-Pad1)*%
X110068800Y-139250200D03*
%TD*%
%TO.P,Q4,1*%
%TO.N,Net-(Q4-Pad1)*%
X161718800Y-134424200D03*
%TO.P,Q4,2*%
%TO.N,Net-(J11-Pad13)*%
X161718800Y-132524200D03*
%TO.P,Q4,3*%
%TO.N,Net-(J11-Pad15)*%
X159718800Y-133474200D03*
%TD*%
%TO.P,Q4,1*%
%TO.N,Net-(Q4-Pad1)*%
X110068800Y-134424200D03*
%TO.P,Q4,2*%
%TO.N,Net-(J11-Pad13)*%
X110068800Y-132524200D03*
%TO.P,Q4,3*%
%TO.N,Net-(J11-Pad15)*%
X108068800Y-133474200D03*
%TD*%
%TO.P,R8,1*%
%TO.N,Net-(J11-Pad1)*%
%TA.AperFunction,SMDPad,CuDef*%
G36*
G01*
X167052300Y-139192200D02*
X166577300Y-139192200D01*
G75*
G02*
X166339800Y-138954700I0J237500D01*
G01*
X166339800Y-138454700D01*
G75*
G02*
X166577300Y-138217200I237500J0D01*
G01*
X167052300Y-138217200D01*
G75*
G02*
X167289800Y-138454700I0J-237500D01*
G01*
X167289800Y-138954700D01*
G75*
G02*
X167052300Y-139192200I-237500J0D01*
G01*
G37*
%TD.AperFunction*%
%TO.P,R8,2*%
%TO.N,Net-(Q2-Pad1)*%
%TA.AperFunction,SMDPad,CuDef*%
G36*
G01*
X167052300Y-137367200D02*
X166577300Y-137367200D01*
G75*
G02*
X166339800Y-137129700I0J237500D01*
G01*
X166339800Y-136629700D01*
G75*
G02*
X166577300Y-136392200I237500J0D01*
G01*
X167052300Y-136392200D01*
G75*
G02*
X167289800Y-136629700I0J-237500D01*
G01*
X167289800Y-137129700D01*
G75*
G02*
X167052300Y-137367200I-237500J0D01*
G01*
G37*
%TD.AperFunction*%
%TD*%
%TO.P,R8,1*%
%TO.N,Net-(J11-Pad1)*%
%TA.AperFunction,SMDPad,CuDef*%
G36*
G01*
X115402300Y-139192200D02*
X114927300Y-139192200D01*
G75*
G02*
X114689800Y-138954700I0J237500D01*
G01*
X114689800Y-138454700D01*
G75*
G02*
X114927300Y-138217200I237500J0D01*
G01*
X115402300Y-138217200D01*
G75*
G02*
X115639800Y-138454700I0J-237500D01*
G01*
X115639800Y-138954700D01*
G75*
G02*
X115402300Y-139192200I-237500J0D01*
G01*
G37*
%TD.AperFunction*%
%TO.P,R8,2*%
%TO.N,Net-(Q2-Pad1)*%
%TA.AperFunction,SMDPad,CuDef*%
G36*
G01*
X115402300Y-137367200D02*
X114927300Y-137367200D01*
G75*
G02*
X114689800Y-137129700I0J237500D01*
G01*
X114689800Y-136629700D01*
G75*
G02*
X114927300Y-136392200I237500J0D01*
G01*
X115402300Y-136392200D01*
G75*
G02*
X115639800Y-136629700I0J-237500D01*
G01*
X115639800Y-137129700D01*
G75*
G02*
X115402300Y-137367200I-237500J0D01*
G01*
G37*
%TD.AperFunction*%
%TD*%
%TO.P,Q3,3*%
%TO.N,Net-(J11-Pad15)*%
X159718800Y-128648200D03*
%TO.P,Q3,2*%
%TO.N,Net-(J11-Pad12)*%
X161718800Y-127698200D03*
%TO.P,Q3,1*%
%TO.N,Net-(Q3-Pad1)*%
X161718800Y-129598200D03*
%TD*%
%TO.P,Q3,3*%
%TO.N,Net-(J11-Pad15)*%
X108068800Y-128648200D03*
%TO.P,Q3,2*%
%TO.N,Net-(J11-Pad12)*%
X110068800Y-127698200D03*
%TO.P,Q3,1*%
%TO.N,Net-(Q3-Pad1)*%
X110068800Y-129598200D03*
%TD*%
%TO.P,R20,1*%
%TO.N,Net-(J11-Pad4)*%
%TA.AperFunction,SMDPad,CuDef*%
G36*
G01*
X166925300Y-126492200D02*
X166450300Y-126492200D01*
G75*
G02*
X166212800Y-126254700I0J237500D01*
G01*
X166212800Y-125754700D01*
G75*
G02*
X166450300Y-125517200I237500J0D01*
G01*
X166925300Y-125517200D01*
G75*
G02*
X167162800Y-125754700I0J-237500D01*
G01*
X167162800Y-126254700D01*
G75*
G02*
X166925300Y-126492200I-237500J0D01*
G01*
G37*
%TD.AperFunction*%
%TO.P,R20,2*%
%TO.N,Net-(Q5-Pad1)*%
%TA.AperFunction,SMDPad,CuDef*%
G36*
G01*
X166925300Y-124667200D02*
X166450300Y-124667200D01*
G75*
G02*
X166212800Y-124429700I0J237500D01*
G01*
X166212800Y-123929700D01*
G75*
G02*
X166450300Y-123692200I237500J0D01*
G01*
X166925300Y-123692200D01*
G75*
G02*
X167162800Y-123929700I0J-237500D01*
G01*
X167162800Y-124429700D01*
G75*
G02*
X166925300Y-124667200I-237500J0D01*
G01*
G37*
%TD.AperFunction*%
%TD*%
%TO.P,R20,1*%
%TO.N,Net-(J11-Pad4)*%
%TA.AperFunction,SMDPad,CuDef*%
G36*
G01*
X115275300Y-126492200D02*
X114800300Y-126492200D01*
G75*
G02*
X114562800Y-126254700I0J237500D01*
G01*
X114562800Y-125754700D01*
G75*
G02*
X114800300Y-125517200I237500J0D01*
G01*
X115275300Y-125517200D01*
G75*
G02*
X115512800Y-125754700I0J-237500D01*
G01*
X115512800Y-126254700D01*
G75*
G02*
X115275300Y-126492200I-237500J0D01*
G01*
G37*
%TD.AperFunction*%
%TO.P,R20,2*%
%TO.N,Net-(Q5-Pad1)*%
%TA.AperFunction,SMDPad,CuDef*%
G36*
G01*
X115275300Y-124667200D02*
X114800300Y-124667200D01*
G75*
G02*
X114562800Y-124429700I0J237500D01*
G01*
X114562800Y-123929700D01*
G75*
G02*
X114800300Y-123692200I237500J0D01*
G01*
X115275300Y-123692200D01*
G75*
G02*
X115512800Y-123929700I0J-237500D01*
G01*
X115512800Y-124429700D01*
G75*
G02*
X115275300Y-124667200I-237500J0D01*
G01*
G37*
%TD.AperFunction*%
%TD*%
D17*
%TO.P,~,16*%
%TO.N,Net-(J11-Pad16)*%
X156555801Y-140479201D03*
D18*
%TO.P,~,1*%
%TO.N,Net-(J11-Pad1)*%
X169255801Y-140479201D03*
D17*
%TO.P,~,15*%
%TO.N,Net-(J11-Pad15)*%
X156555801Y-137939201D03*
%TO.P,~,2*%
%TO.N,Net-(J11-Pad2)*%
X169255801Y-137939201D03*
%TO.P,~,14*%
%TO.N,Net-(J11-Pad14)*%
X156555801Y-135399201D03*
%TO.P,~,3*%
%TO.N,Net-(J11-Pad3)*%
X169255801Y-135399201D03*
%TO.P,~,13*%
%TO.N,Net-(J11-Pad13)*%
X156555801Y-132859201D03*
%TO.P,~,4*%
%TO.N,Net-(J11-Pad4)*%
X169255801Y-132859201D03*
%TO.P,~,12*%
%TO.N,Net-(J11-Pad12)*%
X156555801Y-130319201D03*
%TO.P,~,5*%
%TO.N,Net-(J11-Pad5)*%
X169255801Y-130319201D03*
%TO.P,~,11*%
%TO.N,Net-(J11-Pad11)*%
X156555801Y-127779201D03*
%TO.P,~,6*%
%TO.N,Net-(J11-Pad6)*%
X169255801Y-127779201D03*
%TO.P,~,10*%
%TO.N,Net-(J11-Pad10)*%
X156555801Y-125239201D03*
%TO.P,~,7*%
%TO.N,Net-(J11-Pad7)*%
X169255801Y-125239201D03*
%TO.P,~,9*%
%TO.N,Net-(J11-Pad15)*%
X156555801Y-122699201D03*
%TO.P,~,8*%
%TO.N,Net-(J11-Pad8)*%
X169255801Y-122699201D03*
D19*
%TO.P,~,18*%
%TO.N,Net-(J11-Pad18)*%
X166715801Y-140479201D03*
%TO.P,~,17*%
%TO.N,Net-(J11-Pad17)*%
X164175801Y-140479201D03*
%TD*%
D17*
%TO.P,~,16*%
%TO.N,Net-(J11-Pad16)*%
X104905801Y-140479201D03*
D18*
%TO.P,~,1*%
%TO.N,Net-(J11-Pad1)*%
X117605801Y-140479201D03*
D17*
%TO.P,~,15*%
%TO.N,Net-(J11-Pad15)*%
X104905801Y-137939201D03*
%TO.P,~,2*%
%TO.N,Net-(J11-Pad2)*%
X117605801Y-137939201D03*
%TO.P,~,14*%
%TO.N,Net-(J11-Pad14)*%
X104905801Y-135399201D03*
%TO.P,~,3*%
%TO.N,Net-(J11-Pad3)*%
X117605801Y-135399201D03*
%TO.P,~,13*%
%TO.N,Net-(J11-Pad13)*%
X104905801Y-132859201D03*
%TO.P,~,4*%
%TO.N,Net-(J11-Pad4)*%
X117605801Y-132859201D03*
%TO.P,~,12*%
%TO.N,Net-(J11-Pad12)*%
X104905801Y-130319201D03*
%TO.P,~,5*%
%TO.N,Net-(J11-Pad5)*%
X117605801Y-130319201D03*
%TO.P,~,11*%
%TO.N,Net-(J11-Pad11)*%
X104905801Y-127779201D03*
%TO.P,~,6*%
%TO.N,Net-(J11-Pad6)*%
X117605801Y-127779201D03*
%TO.P,~,10*%
%TO.N,Net-(J11-Pad10)*%
X104905801Y-125239201D03*
%TO.P,~,7*%
%TO.N,Net-(J11-Pad7)*%
X117605801Y-125239201D03*
%TO.P,~,9*%
%TO.N,Net-(J11-Pad15)*%
X104905801Y-122699201D03*
%TO.P,~,8*%
%TO.N,Net-(J11-Pad8)*%
X117605801Y-122699201D03*
D19*
%TO.P,~,18*%
%TO.N,Net-(J11-Pad18)*%
X115065801Y-140479201D03*
%TO.P,~,17*%
%TO.N,Net-(J11-Pad17)*%
X112525801Y-140479201D03*
%TD*%
D16*
%TO.P,Q5,1*%
%TO.N,Net-(Q5-Pad1)*%
X161734800Y-124711200D03*
%TO.P,Q5,2*%
%TO.N,Net-(J11-Pad11)*%
X161734800Y-122811200D03*
%TO.P,Q5,3*%
%TO.N,Net-(J11-Pad15)*%
X159734800Y-123761200D03*
%TD*%
%TO.P,Q5,1*%
%TO.N,Net-(Q5-Pad1)*%
X110084800Y-124711200D03*
%TO.P,Q5,2*%
%TO.N,Net-(J11-Pad11)*%
X110084800Y-122811200D03*
%TO.P,Q5,3*%
%TO.N,Net-(J11-Pad15)*%
X108084800Y-123761200D03*
%TD*%
%TO.P,R19,2*%
%TO.N,Net-(J11-Pad15)*%
%TA.AperFunction,SMDPad,CuDef*%
G36*
G01*
X164131300Y-132541200D02*
X163656300Y-132541200D01*
G75*
G02*
X163418800Y-132303700I0J237500D01*
G01*
X163418800Y-131803700D01*
G75*
G02*
X163656300Y-131566200I237500J0D01*
G01*
X164131300Y-131566200D01*
G75*
G02*
X164368800Y-131803700I0J-237500D01*
G01*
X164368800Y-132303700D01*
G75*
G02*
X164131300Y-132541200I-237500J0D01*
G01*
G37*
%TD.AperFunction*%
%TO.P,R19,1*%
%TO.N,Net-(Q4-Pad1)*%
%TA.AperFunction,SMDPad,CuDef*%
G36*
G01*
X164131300Y-134366200D02*
X163656300Y-134366200D01*
G75*
G02*
X163418800Y-134128700I0J237500D01*
G01*
X163418800Y-133628700D01*
G75*
G02*
X163656300Y-133391200I237500J0D01*
G01*
X164131300Y-133391200D01*
G75*
G02*
X164368800Y-133628700I0J-237500D01*
G01*
X164368800Y-134128700D01*
G75*
G02*
X164131300Y-134366200I-237500J0D01*
G01*
G37*
%TD.AperFunction*%
%TD*%
%TO.P,R19,2*%
%TO.N,Net-(J11-Pad15)*%
%TA.AperFunction,SMDPad,CuDef*%
G36*
G01*
X112481300Y-132541200D02*
X112006300Y-132541200D01*
G75*
G02*
X111768800Y-132303700I0J237500D01*
G01*
X111768800Y-131803700D01*
G75*
G02*
X112006300Y-131566200I237500J0D01*
G01*
X112481300Y-131566200D01*
G75*
G02*
X112718800Y-131803700I0J-237500D01*
G01*
X112718800Y-132303700D01*
G75*
G02*
X112481300Y-132541200I-237500J0D01*
G01*
G37*
%TD.AperFunction*%
%TO.P,R19,1*%
%TO.N,Net-(Q4-Pad1)*%
%TA.AperFunction,SMDPad,CuDef*%
G36*
G01*
X112481300Y-134366200D02*
X112006300Y-134366200D01*
G75*
G02*
X111768800Y-134128700I0J237500D01*
G01*
X111768800Y-133628700D01*
G75*
G02*
X112006300Y-133391200I237500J0D01*
G01*
X112481300Y-133391200D01*
G75*
G02*
X112718800Y-133628700I0J-237500D01*
G01*
X112718800Y-134128700D01*
G75*
G02*
X112481300Y-134366200I-237500J0D01*
G01*
G37*
%TD.AperFunction*%
%TD*%
%TO.P,R18,1*%
%TO.N,Net-(J11-Pad7)*%
%TA.AperFunction,SMDPad,CuDef*%
G36*
G01*
X166925300Y-135509200D02*
X166450300Y-135509200D01*
G75*
G02*
X166212800Y-135271700I0J237500D01*
G01*
X166212800Y-134771700D01*
G75*
G02*
X166450300Y-134534200I237500J0D01*
G01*
X166925300Y-134534200D01*
G75*
G02*
X167162800Y-134771700I0J-237500D01*
G01*
X167162800Y-135271700D01*
G75*
G02*
X166925300Y-135509200I-237500J0D01*
G01*
G37*
%TD.AperFunction*%
%TO.P,R18,2*%
%TO.N,Net-(Q4-Pad1)*%
%TA.AperFunction,SMDPad,CuDef*%
G36*
G01*
X166925300Y-133684200D02*
X166450300Y-133684200D01*
G75*
G02*
X166212800Y-133446700I0J237500D01*
G01*
X166212800Y-132946700D01*
G75*
G02*
X166450300Y-132709200I237500J0D01*
G01*
X166925300Y-132709200D01*
G75*
G02*
X167162800Y-132946700I0J-237500D01*
G01*
X167162800Y-133446700D01*
G75*
G02*
X166925300Y-133684200I-237500J0D01*
G01*
G37*
%TD.AperFunction*%
%TD*%
%TO.P,R18,1*%
%TO.N,Net-(J11-Pad7)*%
%TA.AperFunction,SMDPad,CuDef*%
G36*
G01*
X115275300Y-135509200D02*
X114800300Y-135509200D01*
G75*
G02*
X114562800Y-135271700I0J237500D01*
G01*
X114562800Y-134771700D01*
G75*
G02*
X114800300Y-134534200I237500J0D01*
G01*
X115275300Y-134534200D01*
G75*
G02*
X115512800Y-134771700I0J-237500D01*
G01*
X115512800Y-135271700D01*
G75*
G02*
X115275300Y-135509200I-237500J0D01*
G01*
G37*
%TD.AperFunction*%
%TO.P,R18,2*%
%TO.N,Net-(Q4-Pad1)*%
%TA.AperFunction,SMDPad,CuDef*%
G36*
G01*
X115275300Y-133684200D02*
X114800300Y-133684200D01*
G75*
G02*
X114562800Y-133446700I0J237500D01*
G01*
X114562800Y-132946700D01*
G75*
G02*
X114800300Y-132709200I237500J0D01*
G01*
X115275300Y-132709200D01*
G75*
G02*
X115512800Y-132946700I0J-237500D01*
G01*
X115512800Y-133446700D01*
G75*
G02*
X115275300Y-133684200I-237500J0D01*
G01*
G37*
%TD.AperFunction*%
%TD*%
%TO.P,R17,2*%
%TO.N,Net-(J11-Pad15)*%
%TA.AperFunction,SMDPad,CuDef*%
G36*
G01*
X164131300Y-127715200D02*
X163656300Y-127715200D01*
G75*
G02*
X163418800Y-127477700I0J237500D01*
G01*
X163418800Y-126977700D01*
G75*
G02*
X163656300Y-126740200I237500J0D01*
G01*
X164131300Y-126740200D01*
G75*
G02*
X164368800Y-126977700I0J-237500D01*
G01*
X164368800Y-127477700D01*
G75*
G02*
X164131300Y-127715200I-237500J0D01*
G01*
G37*
%TD.AperFunction*%
%TO.P,R17,1*%
%TO.N,Net-(Q3-Pad1)*%
%TA.AperFunction,SMDPad,CuDef*%
G36*
G01*
X164131300Y-129540200D02*
X163656300Y-129540200D01*
G75*
G02*
X163418800Y-129302700I0J237500D01*
G01*
X163418800Y-128802700D01*
G75*
G02*
X163656300Y-128565200I237500J0D01*
G01*
X164131300Y-128565200D01*
G75*
G02*
X164368800Y-128802700I0J-237500D01*
G01*
X164368800Y-129302700D01*
G75*
G02*
X164131300Y-129540200I-237500J0D01*
G01*
G37*
%TD.AperFunction*%
%TD*%
%TO.P,R17,2*%
%TO.N,Net-(J11-Pad15)*%
%TA.AperFunction,SMDPad,CuDef*%
G36*
G01*
X112481300Y-127715200D02*
X112006300Y-127715200D01*
G75*
G02*
X111768800Y-127477700I0J237500D01*
G01*
X111768800Y-126977700D01*
G75*
G02*
X112006300Y-126740200I237500J0D01*
G01*
X112481300Y-126740200D01*
G75*
G02*
X112718800Y-126977700I0J-237500D01*
G01*
X112718800Y-127477700D01*
G75*
G02*
X112481300Y-127715200I-237500J0D01*
G01*
G37*
%TD.AperFunction*%
%TO.P,R17,1*%
%TO.N,Net-(Q3-Pad1)*%
%TA.AperFunction,SMDPad,CuDef*%
G36*
G01*
X112481300Y-129540200D02*
X112006300Y-129540200D01*
G75*
G02*
X111768800Y-129302700I0J237500D01*
G01*
X111768800Y-128802700D01*
G75*
G02*
X112006300Y-128565200I237500J0D01*
G01*
X112481300Y-128565200D01*
G75*
G02*
X112718800Y-128802700I0J-237500D01*
G01*
X112718800Y-129302700D01*
G75*
G02*
X112481300Y-129540200I-237500J0D01*
G01*
G37*
%TD.AperFunction*%
%TD*%
D19*
%TO.P,J3,18*%
%TO.N,Net-(J3-Pad18)*%
X166787800Y-78616400D03*
X164247800Y-78616400D03*
%TO.P,J3,17*%
%TO.N,Net-(J3-Pad17)*%
X164247800Y-78616400D03*
D17*
%TO.P,J3,8*%
%TO.N,Net-(J3-Pad8)*%
X169327800Y-60836400D03*
%TO.P,J3,9*%
%TO.N,Net-(J3-Pad15)*%
X156627800Y-60836400D03*
%TO.P,J3,7*%
%TO.N,Net-(J3-Pad7)*%
X169327800Y-63376400D03*
%TO.P,J3,10*%
%TO.N,Net-(J3-Pad10)*%
X156627800Y-63376400D03*
%TO.P,J3,6*%
%TO.N,Net-(J3-Pad6)*%
X169327800Y-65916400D03*
%TO.P,J3,11*%
%TO.N,Net-(J3-Pad11)*%
X156627800Y-65916400D03*
%TO.P,J3,5*%
%TO.N,Net-(J3-Pad5)*%
X169327800Y-68456400D03*
%TO.P,J3,12*%
%TO.N,Net-(J3-Pad12)*%
X156627800Y-68456400D03*
%TO.P,J3,4*%
%TO.N,Net-(J3-Pad4)*%
X169327800Y-70996400D03*
%TO.P,J3,13*%
%TO.N,Net-(J3-Pad13)*%
X156627800Y-70996400D03*
%TO.P,J3,3*%
%TO.N,Net-(J3-Pad3)*%
X169327800Y-73536400D03*
%TO.P,J3,14*%
%TO.N,Net-(J3-Pad14)*%
X156627800Y-73536400D03*
%TO.P,J3,2*%
%TO.N,Net-(J3-Pad2)*%
X169327800Y-76076400D03*
%TO.P,J3,15*%
%TO.N,Net-(J3-Pad15)*%
X156627800Y-76076400D03*
D18*
%TO.P,J3,1*%
%TO.N,Net-(J3-Pad1)*%
X169327800Y-78616400D03*
D17*
%TO.P,J3,16*%
%TO.N,Net-(J3-Pad16)*%
X156627800Y-78616400D03*
%TD*%
D19*
%TO.P,J3,18*%
%TO.N,Net-(J3-Pad18)*%
X115137800Y-78616400D03*
X112597800Y-78616400D03*
%TO.P,J3,17*%
%TO.N,Net-(J3-Pad17)*%
X112597800Y-78616400D03*
D17*
%TO.P,J3,8*%
%TO.N,Net-(J3-Pad8)*%
X117677800Y-60836400D03*
%TO.P,J3,9*%
%TO.N,Net-(J3-Pad15)*%
X104977800Y-60836400D03*
%TO.P,J3,7*%
%TO.N,Net-(J3-Pad7)*%
X117677800Y-63376400D03*
%TO.P,J3,10*%
%TO.N,Net-(J3-Pad10)*%
X104977800Y-63376400D03*
%TO.P,J3,6*%
%TO.N,Net-(J3-Pad6)*%
X117677800Y-65916400D03*
%TO.P,J3,11*%
%TO.N,Net-(J3-Pad11)*%
X104977800Y-65916400D03*
%TO.P,J3,5*%
%TO.N,Net-(J3-Pad5)*%
X117677800Y-68456400D03*
%TO.P,J3,12*%
%TO.N,Net-(J3-Pad12)*%
X104977800Y-68456400D03*
%TO.P,J3,4*%
%TO.N,Net-(J3-Pad4)*%
X117677800Y-70996400D03*
%TO.P,J3,13*%
%TO.N,Net-(J3-Pad13)*%
X104977800Y-70996400D03*
%TO.P,J3,3*%
%TO.N,Net-(J3-Pad3)*%
X117677800Y-73536400D03*
%TO.P,J3,14*%
%TO.N,Net-(J3-Pad14)*%
X104977800Y-73536400D03*
%TO.P,J3,2*%
%TO.N,Net-(J3-Pad2)*%
X117677800Y-76076400D03*
%TO.P,J3,15*%
%TO.N,Net-(J3-Pad15)*%
X104977800Y-76076400D03*
D18*
%TO.P,J3,1*%
%TO.N,Net-(J3-Pad1)*%
X117677800Y-78616400D03*
D17*
%TO.P,J3,16*%
%TO.N,Net-(J3-Pad16)*%
X104977800Y-78616400D03*
%TD*%
%TO.P,U1,16*%
%TO.N,Net-(J3-Pad14)*%
%TA.AperFunction,SMDPad,CuDef*%
G36*
G01*
X161277800Y-68230200D02*
X161277800Y-68530200D01*
G75*
G02*
X161127800Y-68680200I-150000J0D01*
G01*
X159677800Y-68680200D01*
G75*
G02*
X159527800Y-68530200I0J150000D01*
G01*
X159527800Y-68230200D01*
G75*
G02*
X159677800Y-68080200I150000J0D01*
G01*
X161127800Y-68080200D01*
G75*
G02*
X161277800Y-68230200I0J-150000D01*
G01*
G37*
%TD.AperFunction*%
%TO.P,U1,15*%
%TO.N,Net-(J3-Pad13)*%
%TA.AperFunction,SMDPad,CuDef*%
G36*
G01*
X161277800Y-66960200D02*
X161277800Y-67260200D01*
G75*
G02*
X161127800Y-67410200I-150000J0D01*
G01*
X159677800Y-67410200D01*
G75*
G02*
X159527800Y-67260200I0J150000D01*
G01*
X159527800Y-66960200D01*
G75*
G02*
X159677800Y-66810200I150000J0D01*
G01*
X161127800Y-66810200D01*
G75*
G02*
X161277800Y-66960200I0J-150000D01*
G01*
G37*
%TD.AperFunction*%
%TO.P,U1,14*%
%TO.N,Net-(J3-Pad12)*%
%TA.AperFunction,SMDPad,CuDef*%
G36*
G01*
X161277800Y-65690200D02*
X161277800Y-65990200D01*
G75*
G02*
X161127800Y-66140200I-150000J0D01*
G01*
X159677800Y-66140200D01*
G75*
G02*
X159527800Y-65990200I0J150000D01*
G01*
X159527800Y-65690200D01*
G75*
G02*
X159677800Y-65540200I150000J0D01*
G01*
X161127800Y-65540200D01*
G75*
G02*
X161277800Y-65690200I0J-150000D01*
G01*
G37*
%TD.AperFunction*%
%TO.P,U1,13*%
%TO.N,Net-(J3-Pad11)*%
%TA.AperFunction,SMDPad,CuDef*%
G36*
G01*
X161277800Y-64420200D02*
X161277800Y-64720200D01*
G75*
G02*
X161127800Y-64870200I-150000J0D01*
G01*
X159677800Y-64870200D01*
G75*
G02*
X159527800Y-64720200I0J150000D01*
G01*
X159527800Y-64420200D01*
G75*
G02*
X159677800Y-64270200I150000J0D01*
G01*
X161127800Y-64270200D01*
G75*
G02*
X161277800Y-64420200I0J-150000D01*
G01*
G37*
%TD.AperFunction*%
%TO.P,U1,12*%
%TO.N,Net-(U1-Pad12)*%
%TA.AperFunction,SMDPad,CuDef*%
G36*
G01*
X161277800Y-63150200D02*
X161277800Y-63450200D01*
G75*
G02*
X161127800Y-63600200I-150000J0D01*
G01*
X159677800Y-63600200D01*
G75*
G02*
X159527800Y-63450200I0J150000D01*
G01*
X159527800Y-63150200D01*
G75*
G02*
X159677800Y-63000200I150000J0D01*
G01*
X161127800Y-63000200D01*
G75*
G02*
X161277800Y-63150200I0J-150000D01*
G01*
G37*
%TD.AperFunction*%
%TO.P,U1,11*%
%TO.N,Net-(U1-Pad11)*%
%TA.AperFunction,SMDPad,CuDef*%
G36*
G01*
X161277800Y-61880200D02*
X161277800Y-62180200D01*
G75*
G02*
X161127800Y-62330200I-150000J0D01*
G01*
X159677800Y-62330200D01*
G75*
G02*
X159527800Y-62180200I0J150000D01*
G01*
X159527800Y-61880200D01*
G75*
G02*
X159677800Y-61730200I150000J0D01*
G01*
X161127800Y-61730200D01*
G75*
G02*
X161277800Y-61880200I0J-150000D01*
G01*
G37*
%TD.AperFunction*%
%TO.P,U1,10*%
%TO.N,Net-(U1-Pad10)*%
%TA.AperFunction,SMDPad,CuDef*%
G36*
G01*
X161277800Y-60610200D02*
X161277800Y-60910200D01*
G75*
G02*
X161127800Y-61060200I-150000J0D01*
G01*
X159677800Y-61060200D01*
G75*
G02*
X159527800Y-60910200I0J150000D01*
G01*
X159527800Y-60610200D01*
G75*
G02*
X159677800Y-60460200I150000J0D01*
G01*
X161127800Y-60460200D01*
G75*
G02*
X161277800Y-60610200I0J-150000D01*
G01*
G37*
%TD.AperFunction*%
%TO.P,U1,9*%
%TO.N,Net-(J3-Pad16)*%
%TA.AperFunction,SMDPad,CuDef*%
G36*
G01*
X161277800Y-59340200D02*
X161277800Y-59640200D01*
G75*
G02*
X161127800Y-59790200I-150000J0D01*
G01*
X159677800Y-59790200D01*
G75*
G02*
X159527800Y-59640200I0J150000D01*
G01*
X159527800Y-59340200D01*
G75*
G02*
X159677800Y-59190200I150000J0D01*
G01*
X161127800Y-59190200D01*
G75*
G02*
X161277800Y-59340200I0J-150000D01*
G01*
G37*
%TD.AperFunction*%
%TO.P,U1,8*%
%TO.N,Net-(J3-Pad15)*%
%TA.AperFunction,SMDPad,CuDef*%
G36*
G01*
X166427800Y-59340200D02*
X166427800Y-59640200D01*
G75*
G02*
X166277800Y-59790200I-150000J0D01*
G01*
X164827800Y-59790200D01*
G75*
G02*
X164677800Y-59640200I0J150000D01*
G01*
X164677800Y-59340200D01*
G75*
G02*
X164827800Y-59190200I150000J0D01*
G01*
X166277800Y-59190200D01*
G75*
G02*
X166427800Y-59340200I0J-150000D01*
G01*
G37*
%TD.AperFunction*%
%TO.P,U1,7*%
%TA.AperFunction,SMDPad,CuDef*%
G36*
G01*
X166427800Y-60610200D02*
X166427800Y-60910200D01*
G75*
G02*
X166277800Y-61060200I-150000J0D01*
G01*
X164827800Y-61060200D01*
G75*
G02*
X164677800Y-60910200I0J150000D01*
G01*
X164677800Y-60610200D01*
G75*
G02*
X164827800Y-60460200I150000J0D01*
G01*
X166277800Y-60460200D01*
G75*
G02*
X166427800Y-60610200I0J-150000D01*
G01*
G37*
%TD.AperFunction*%
%TO.P,U1,6*%
%TA.AperFunction,SMDPad,CuDef*%
G36*
G01*
X166427800Y-61880200D02*
X166427800Y-62180200D01*
G75*
G02*
X166277800Y-62330200I-150000J0D01*
G01*
X164827800Y-62330200D01*
G75*
G02*
X164677800Y-62180200I0J150000D01*
G01*
X164677800Y-61880200D01*
G75*
G02*
X164827800Y-61730200I150000J0D01*
G01*
X166277800Y-61730200D01*
G75*
G02*
X166427800Y-61880200I0J-150000D01*
G01*
G37*
%TD.AperFunction*%
%TO.P,U1,5*%
%TA.AperFunction,SMDPad,CuDef*%
G36*
G01*
X166427800Y-63150200D02*
X166427800Y-63450200D01*
G75*
G02*
X166277800Y-63600200I-150000J0D01*
G01*
X164827800Y-63600200D01*
G75*
G02*
X164677800Y-63450200I0J150000D01*
G01*
X164677800Y-63150200D01*
G75*
G02*
X164827800Y-63000200I150000J0D01*
G01*
X166277800Y-63000200D01*
G75*
G02*
X166427800Y-63150200I0J-150000D01*
G01*
G37*
%TD.AperFunction*%
%TO.P,U1,4*%
%TO.N,Net-(J3-Pad4)*%
%TA.AperFunction,SMDPad,CuDef*%
G36*
G01*
X166427800Y-64420200D02*
X166427800Y-64720200D01*
G75*
G02*
X166277800Y-64870200I-150000J0D01*
G01*
X164827800Y-64870200D01*
G75*
G02*
X164677800Y-64720200I0J150000D01*
G01*
X164677800Y-64420200D01*
G75*
G02*
X164827800Y-64270200I150000J0D01*
G01*
X166277800Y-64270200D01*
G75*
G02*
X166427800Y-64420200I0J-150000D01*
G01*
G37*
%TD.AperFunction*%
%TO.P,U1,3*%
%TO.N,Net-(J3-Pad8)*%
%TA.AperFunction,SMDPad,CuDef*%
G36*
G01*
X166427800Y-65690200D02*
X166427800Y-65990200D01*
G75*
G02*
X166277800Y-66140200I-150000J0D01*
G01*
X164827800Y-66140200D01*
G75*
G02*
X164677800Y-65990200I0J150000D01*
G01*
X164677800Y-65690200D01*
G75*
G02*
X164827800Y-65540200I150000J0D01*
G01*
X166277800Y-65540200D01*
G75*
G02*
X166427800Y-65690200I0J-150000D01*
G01*
G37*
%TD.AperFunction*%
%TO.P,U1,2*%
%TO.N,Net-(J3-Pad7)*%
%TA.AperFunction,SMDPad,CuDef*%
G36*
G01*
X166427800Y-66960200D02*
X166427800Y-67260200D01*
G75*
G02*
X166277800Y-67410200I-150000J0D01*
G01*
X164827800Y-67410200D01*
G75*
G02*
X164677800Y-67260200I0J150000D01*
G01*
X164677800Y-66960200D01*
G75*
G02*
X164827800Y-66810200I150000J0D01*
G01*
X166277800Y-66810200D01*
G75*
G02*
X166427800Y-66960200I0J-150000D01*
G01*
G37*
%TD.AperFunction*%
%TO.P,U1,1*%
%TO.N,Net-(J3-Pad1)*%
%TA.AperFunction,SMDPad,CuDef*%
G36*
G01*
X166427800Y-68230200D02*
X166427800Y-68530200D01*
G75*
G02*
X166277800Y-68680200I-150000J0D01*
G01*
X164827800Y-68680200D01*
G75*
G02*
X164677800Y-68530200I0J150000D01*
G01*
X164677800Y-68230200D01*
G75*
G02*
X164827800Y-68080200I150000J0D01*
G01*
X166277800Y-68080200D01*
G75*
G02*
X166427800Y-68230200I0J-150000D01*
G01*
G37*
%TD.AperFunction*%
%TD*%
%TO.P,U1,16*%
%TO.N,Net-(J3-Pad14)*%
%TA.AperFunction,SMDPad,CuDef*%
G36*
G01*
X109627800Y-68230200D02*
X109627800Y-68530200D01*
G75*
G02*
X109477800Y-68680200I-150000J0D01*
G01*
X108027800Y-68680200D01*
G75*
G02*
X107877800Y-68530200I0J150000D01*
G01*
X107877800Y-68230200D01*
G75*
G02*
X108027800Y-68080200I150000J0D01*
G01*
X109477800Y-68080200D01*
G75*
G02*
X109627800Y-68230200I0J-150000D01*
G01*
G37*
%TD.AperFunction*%
%TO.P,U1,15*%
%TO.N,Net-(J3-Pad13)*%
%TA.AperFunction,SMDPad,CuDef*%
G36*
G01*
X109627800Y-66960200D02*
X109627800Y-67260200D01*
G75*
G02*
X109477800Y-67410200I-150000J0D01*
G01*
X108027800Y-67410200D01*
G75*
G02*
X107877800Y-67260200I0J150000D01*
G01*
X107877800Y-66960200D01*
G75*
G02*
X108027800Y-66810200I150000J0D01*
G01*
X109477800Y-66810200D01*
G75*
G02*
X109627800Y-66960200I0J-150000D01*
G01*
G37*
%TD.AperFunction*%
%TO.P,U1,14*%
%TO.N,Net-(J3-Pad12)*%
%TA.AperFunction,SMDPad,CuDef*%
G36*
G01*
X109627800Y-65690200D02*
X109627800Y-65990200D01*
G75*
G02*
X109477800Y-66140200I-150000J0D01*
G01*
X108027800Y-66140200D01*
G75*
G02*
X107877800Y-65990200I0J150000D01*
G01*
X107877800Y-65690200D01*
G75*
G02*
X108027800Y-65540200I150000J0D01*
G01*
X109477800Y-65540200D01*
G75*
G02*
X109627800Y-65690200I0J-150000D01*
G01*
G37*
%TD.AperFunction*%
%TO.P,U1,13*%
%TO.N,Net-(J3-Pad11)*%
%TA.AperFunction,SMDPad,CuDef*%
G36*
G01*
X109627800Y-64420200D02*
X109627800Y-64720200D01*
G75*
G02*
X109477800Y-64870200I-150000J0D01*
G01*
X108027800Y-64870200D01*
G75*
G02*
X107877800Y-64720200I0J150000D01*
G01*
X107877800Y-64420200D01*
G75*
G02*
X108027800Y-64270200I150000J0D01*
G01*
X109477800Y-64270200D01*
G75*
G02*
X109627800Y-64420200I0J-150000D01*
G01*
G37*
%TD.AperFunction*%
%TO.P,U1,12*%
%TO.N,Net-(U1-Pad12)*%
%TA.AperFunction,SMDPad,CuDef*%
G36*
G01*
X109627800Y-63150200D02*
X109627800Y-63450200D01*
G75*
G02*
X109477800Y-63600200I-150000J0D01*
G01*
X108027800Y-63600200D01*
G75*
G02*
X107877800Y-63450200I0J150000D01*
G01*
X107877800Y-63150200D01*
G75*
G02*
X108027800Y-63000200I150000J0D01*
G01*
X109477800Y-63000200D01*
G75*
G02*
X109627800Y-63150200I0J-150000D01*
G01*
G37*
%TD.AperFunction*%
%TO.P,U1,11*%
%TO.N,Net-(U1-Pad11)*%
%TA.AperFunction,SMDPad,CuDef*%
G36*
G01*
X109627800Y-61880200D02*
X109627800Y-62180200D01*
G75*
G02*
X109477800Y-62330200I-150000J0D01*
G01*
X108027800Y-62330200D01*
G75*
G02*
X107877800Y-62180200I0J150000D01*
G01*
X107877800Y-61880200D01*
G75*
G02*
X108027800Y-61730200I150000J0D01*
G01*
X109477800Y-61730200D01*
G75*
G02*
X109627800Y-61880200I0J-150000D01*
G01*
G37*
%TD.AperFunction*%
%TO.P,U1,10*%
%TO.N,Net-(U1-Pad10)*%
%TA.AperFunction,SMDPad,CuDef*%
G36*
G01*
X109627800Y-60610200D02*
X109627800Y-60910200D01*
G75*
G02*
X109477800Y-61060200I-150000J0D01*
G01*
X108027800Y-61060200D01*
G75*
G02*
X107877800Y-60910200I0J150000D01*
G01*
X107877800Y-60610200D01*
G75*
G02*
X108027800Y-60460200I150000J0D01*
G01*
X109477800Y-60460200D01*
G75*
G02*
X109627800Y-60610200I0J-150000D01*
G01*
G37*
%TD.AperFunction*%
%TO.P,U1,9*%
%TO.N,Net-(J3-Pad16)*%
%TA.AperFunction,SMDPad,CuDef*%
G36*
G01*
X109627800Y-59340200D02*
X109627800Y-59640200D01*
G75*
G02*
X109477800Y-59790200I-150000J0D01*
G01*
X108027800Y-59790200D01*
G75*
G02*
X107877800Y-59640200I0J150000D01*
G01*
X107877800Y-59340200D01*
G75*
G02*
X108027800Y-59190200I150000J0D01*
G01*
X109477800Y-59190200D01*
G75*
G02*
X109627800Y-59340200I0J-150000D01*
G01*
G37*
%TD.AperFunction*%
%TO.P,U1,8*%
%TO.N,Net-(J3-Pad15)*%
%TA.AperFunction,SMDPad,CuDef*%
G36*
G01*
X114777800Y-59340200D02*
X114777800Y-59640200D01*
G75*
G02*
X114627800Y-59790200I-150000J0D01*
G01*
X113177800Y-59790200D01*
G75*
G02*
X113027800Y-59640200I0J150000D01*
G01*
X113027800Y-59340200D01*
G75*
G02*
X113177800Y-59190200I150000J0D01*
G01*
X114627800Y-59190200D01*
G75*
G02*
X114777800Y-59340200I0J-150000D01*
G01*
G37*
%TD.AperFunction*%
%TO.P,U1,7*%
%TA.AperFunction,SMDPad,CuDef*%
G36*
G01*
X114777800Y-60610200D02*
X114777800Y-60910200D01*
G75*
G02*
X114627800Y-61060200I-150000J0D01*
G01*
X113177800Y-61060200D01*
G75*
G02*
X113027800Y-60910200I0J150000D01*
G01*
X113027800Y-60610200D01*
G75*
G02*
X113177800Y-60460200I150000J0D01*
G01*
X114627800Y-60460200D01*
G75*
G02*
X114777800Y-60610200I0J-150000D01*
G01*
G37*
%TD.AperFunction*%
%TO.P,U1,6*%
%TA.AperFunction,SMDPad,CuDef*%
G36*
G01*
X114777800Y-61880200D02*
X114777800Y-62180200D01*
G75*
G02*
X114627800Y-62330200I-150000J0D01*
G01*
X113177800Y-62330200D01*
G75*
G02*
X113027800Y-62180200I0J150000D01*
G01*
X113027800Y-61880200D01*
G75*
G02*
X113177800Y-61730200I150000J0D01*
G01*
X114627800Y-61730200D01*
G75*
G02*
X114777800Y-61880200I0J-150000D01*
G01*
G37*
%TD.AperFunction*%
%TO.P,U1,5*%
%TA.AperFunction,SMDPad,CuDef*%
G36*
G01*
X114777800Y-63150200D02*
X114777800Y-63450200D01*
G75*
G02*
X114627800Y-63600200I-150000J0D01*
G01*
X113177800Y-63600200D01*
G75*
G02*
X113027800Y-63450200I0J150000D01*
G01*
X113027800Y-63150200D01*
G75*
G02*
X113177800Y-63000200I150000J0D01*
G01*
X114627800Y-63000200D01*
G75*
G02*
X114777800Y-63150200I0J-150000D01*
G01*
G37*
%TD.AperFunction*%
%TO.P,U1,4*%
%TO.N,Net-(J3-Pad4)*%
%TA.AperFunction,SMDPad,CuDef*%
G36*
G01*
X114777800Y-64420200D02*
X114777800Y-64720200D01*
G75*
G02*
X114627800Y-64870200I-150000J0D01*
G01*
X113177800Y-64870200D01*
G75*
G02*
X113027800Y-64720200I0J150000D01*
G01*
X113027800Y-64420200D01*
G75*
G02*
X113177800Y-64270200I150000J0D01*
G01*
X114627800Y-64270200D01*
G75*
G02*
X114777800Y-64420200I0J-150000D01*
G01*
G37*
%TD.AperFunction*%
%TO.P,U1,3*%
%TO.N,Net-(J3-Pad8)*%
%TA.AperFunction,SMDPad,CuDef*%
G36*
G01*
X114777800Y-65690200D02*
X114777800Y-65990200D01*
G75*
G02*
X114627800Y-66140200I-150000J0D01*
G01*
X113177800Y-66140200D01*
G75*
G02*
X113027800Y-65990200I0J150000D01*
G01*
X113027800Y-65690200D01*
G75*
G02*
X113177800Y-65540200I150000J0D01*
G01*
X114627800Y-65540200D01*
G75*
G02*
X114777800Y-65690200I0J-150000D01*
G01*
G37*
%TD.AperFunction*%
%TO.P,U1,2*%
%TO.N,Net-(J3-Pad7)*%
%TA.AperFunction,SMDPad,CuDef*%
G36*
G01*
X114777800Y-66960200D02*
X114777800Y-67260200D01*
G75*
G02*
X114627800Y-67410200I-150000J0D01*
G01*
X113177800Y-67410200D01*
G75*
G02*
X113027800Y-67260200I0J150000D01*
G01*
X113027800Y-66960200D01*
G75*
G02*
X113177800Y-66810200I150000J0D01*
G01*
X114627800Y-66810200D01*
G75*
G02*
X114777800Y-66960200I0J-150000D01*
G01*
G37*
%TD.AperFunction*%
%TO.P,U1,1*%
%TO.N,Net-(J3-Pad1)*%
%TA.AperFunction,SMDPad,CuDef*%
G36*
G01*
X114777800Y-68230200D02*
X114777800Y-68530200D01*
G75*
G02*
X114627800Y-68680200I-150000J0D01*
G01*
X113177800Y-68680200D01*
G75*
G02*
X113027800Y-68530200I0J150000D01*
G01*
X113027800Y-68230200D01*
G75*
G02*
X113177800Y-68080200I150000J0D01*
G01*
X114627800Y-68080200D01*
G75*
G02*
X114777800Y-68230200I0J-150000D01*
G01*
G37*
%TD.AperFunction*%
%TD*%
%TO.P,R9,1*%
%TO.N,Net-(Q2-Pad1)*%
%TA.AperFunction,SMDPad,CuDef*%
G36*
G01*
X164131300Y-108065200D02*
X163656300Y-108065200D01*
G75*
G02*
X163418800Y-107827700I0J237500D01*
G01*
X163418800Y-107327700D01*
G75*
G02*
X163656300Y-107090200I237500J0D01*
G01*
X164131300Y-107090200D01*
G75*
G02*
X164368800Y-107327700I0J-237500D01*
G01*
X164368800Y-107827700D01*
G75*
G02*
X164131300Y-108065200I-237500J0D01*
G01*
G37*
%TD.AperFunction*%
%TO.P,R9,2*%
%TO.N,Net-(J11-Pad15)*%
%TA.AperFunction,SMDPad,CuDef*%
G36*
G01*
X164131300Y-106240200D02*
X163656300Y-106240200D01*
G75*
G02*
X163418800Y-106002700I0J237500D01*
G01*
X163418800Y-105502700D01*
G75*
G02*
X163656300Y-105265200I237500J0D01*
G01*
X164131300Y-105265200D01*
G75*
G02*
X164368800Y-105502700I0J-237500D01*
G01*
X164368800Y-106002700D01*
G75*
G02*
X164131300Y-106240200I-237500J0D01*
G01*
G37*
%TD.AperFunction*%
%TD*%
%TO.P,R9,1*%
%TO.N,Net-(Q2-Pad1)*%
%TA.AperFunction,SMDPad,CuDef*%
G36*
G01*
X112481300Y-108065200D02*
X112006300Y-108065200D01*
G75*
G02*
X111768800Y-107827700I0J237500D01*
G01*
X111768800Y-107327700D01*
G75*
G02*
X112006300Y-107090200I237500J0D01*
G01*
X112481300Y-107090200D01*
G75*
G02*
X112718800Y-107327700I0J-237500D01*
G01*
X112718800Y-107827700D01*
G75*
G02*
X112481300Y-108065200I-237500J0D01*
G01*
G37*
%TD.AperFunction*%
%TO.P,R9,2*%
%TO.N,Net-(J11-Pad15)*%
%TA.AperFunction,SMDPad,CuDef*%
G36*
G01*
X112481300Y-106240200D02*
X112006300Y-106240200D01*
G75*
G02*
X111768800Y-106002700I0J237500D01*
G01*
X111768800Y-105502700D01*
G75*
G02*
X112006300Y-105265200I237500J0D01*
G01*
X112481300Y-105265200D01*
G75*
G02*
X112718800Y-105502700I0J-237500D01*
G01*
X112718800Y-106002700D01*
G75*
G02*
X112481300Y-106240200I-237500J0D01*
G01*
G37*
%TD.AperFunction*%
%TD*%
%TO.P,R10,2*%
%TO.N,Net-(Q3-Pad1)*%
%TA.AperFunction,SMDPad,CuDef*%
G36*
G01*
X166925300Y-98112200D02*
X166450300Y-98112200D01*
G75*
G02*
X166212800Y-97874700I0J237500D01*
G01*
X166212800Y-97374700D01*
G75*
G02*
X166450300Y-97137200I237500J0D01*
G01*
X166925300Y-97137200D01*
G75*
G02*
X167162800Y-97374700I0J-237500D01*
G01*
X167162800Y-97874700D01*
G75*
G02*
X166925300Y-98112200I-237500J0D01*
G01*
G37*
%TD.AperFunction*%
%TO.P,R10,1*%
%TO.N,Net-(J11-Pad8)*%
%TA.AperFunction,SMDPad,CuDef*%
G36*
G01*
X166925300Y-99937200D02*
X166450300Y-99937200D01*
G75*
G02*
X166212800Y-99699700I0J237500D01*
G01*
X166212800Y-99199700D01*
G75*
G02*
X166450300Y-98962200I237500J0D01*
G01*
X166925300Y-98962200D01*
G75*
G02*
X167162800Y-99199700I0J-237500D01*
G01*
X167162800Y-99699700D01*
G75*
G02*
X166925300Y-99937200I-237500J0D01*
G01*
G37*
%TD.AperFunction*%
%TD*%
%TO.P,R10,2*%
%TO.N,Net-(Q3-Pad1)*%
%TA.AperFunction,SMDPad,CuDef*%
G36*
G01*
X115275300Y-98112200D02*
X114800300Y-98112200D01*
G75*
G02*
X114562800Y-97874700I0J237500D01*
G01*
X114562800Y-97374700D01*
G75*
G02*
X114800300Y-97137200I237500J0D01*
G01*
X115275300Y-97137200D01*
G75*
G02*
X115512800Y-97374700I0J-237500D01*
G01*
X115512800Y-97874700D01*
G75*
G02*
X115275300Y-98112200I-237500J0D01*
G01*
G37*
%TD.AperFunction*%
%TO.P,R10,1*%
%TO.N,Net-(J11-Pad8)*%
%TA.AperFunction,SMDPad,CuDef*%
G36*
G01*
X115275300Y-99937200D02*
X114800300Y-99937200D01*
G75*
G02*
X114562800Y-99699700I0J237500D01*
G01*
X114562800Y-99199700D01*
G75*
G02*
X114800300Y-98962200I237500J0D01*
G01*
X115275300Y-98962200D01*
G75*
G02*
X115512800Y-99199700I0J-237500D01*
G01*
X115512800Y-99699700D01*
G75*
G02*
X115275300Y-99937200I-237500J0D01*
G01*
G37*
%TD.AperFunction*%
%TD*%
%TO.P,R21,1*%
%TO.N,Net-(Q5-Pad1)*%
%TA.AperFunction,SMDPad,CuDef*%
G36*
G01*
X164131300Y-94095200D02*
X163656300Y-94095200D01*
G75*
G02*
X163418800Y-93857700I0J237500D01*
G01*
X163418800Y-93357700D01*
G75*
G02*
X163656300Y-93120200I237500J0D01*
G01*
X164131300Y-93120200D01*
G75*
G02*
X164368800Y-93357700I0J-237500D01*
G01*
X164368800Y-93857700D01*
G75*
G02*
X164131300Y-94095200I-237500J0D01*
G01*
G37*
%TD.AperFunction*%
%TO.P,R21,2*%
%TO.N,Net-(J11-Pad15)*%
%TA.AperFunction,SMDPad,CuDef*%
G36*
G01*
X164131300Y-92270200D02*
X163656300Y-92270200D01*
G75*
G02*
X163418800Y-92032700I0J237500D01*
G01*
X163418800Y-91532700D01*
G75*
G02*
X163656300Y-91295200I237500J0D01*
G01*
X164131300Y-91295200D01*
G75*
G02*
X164368800Y-91532700I0J-237500D01*
G01*
X164368800Y-92032700D01*
G75*
G02*
X164131300Y-92270200I-237500J0D01*
G01*
G37*
%TD.AperFunction*%
%TD*%
%TO.P,R21,1*%
%TO.N,Net-(Q5-Pad1)*%
%TA.AperFunction,SMDPad,CuDef*%
G36*
G01*
X112481300Y-94095200D02*
X112006300Y-94095200D01*
G75*
G02*
X111768800Y-93857700I0J237500D01*
G01*
X111768800Y-93357700D01*
G75*
G02*
X112006300Y-93120200I237500J0D01*
G01*
X112481300Y-93120200D01*
G75*
G02*
X112718800Y-93357700I0J-237500D01*
G01*
X112718800Y-93857700D01*
G75*
G02*
X112481300Y-94095200I-237500J0D01*
G01*
G37*
%TD.AperFunction*%
%TO.P,R21,2*%
%TO.N,Net-(J11-Pad15)*%
%TA.AperFunction,SMDPad,CuDef*%
G36*
G01*
X112481300Y-92270200D02*
X112006300Y-92270200D01*
G75*
G02*
X111768800Y-92032700I0J237500D01*
G01*
X111768800Y-91532700D01*
G75*
G02*
X112006300Y-91295200I237500J0D01*
G01*
X112481300Y-91295200D01*
G75*
G02*
X112718800Y-91532700I0J-237500D01*
G01*
X112718800Y-92032700D01*
G75*
G02*
X112481300Y-92270200I-237500J0D01*
G01*
G37*
%TD.AperFunction*%
%TD*%
D16*
%TO.P,Q2,1*%
%TO.N,Net-(Q2-Pad1)*%
X161718800Y-108250200D03*
%TO.P,Q2,2*%
%TO.N,Net-(J11-Pad14)*%
X161718800Y-106350200D03*
%TO.P,Q2,3*%
%TO.N,Net-(J11-Pad15)*%
X159718800Y-107300200D03*
%TD*%
%TO.P,Q2,1*%
%TO.N,Net-(Q2-Pad1)*%
X110068800Y-108250200D03*
%TO.P,Q2,2*%
%TO.N,Net-(J11-Pad14)*%
X110068800Y-106350200D03*
%TO.P,Q2,3*%
%TO.N,Net-(J11-Pad15)*%
X108068800Y-107300200D03*
%TD*%
%TO.P,Q4,3*%
%TO.N,Net-(J11-Pad15)*%
X159718800Y-102474200D03*
%TO.P,Q4,2*%
%TO.N,Net-(J11-Pad13)*%
X161718800Y-101524200D03*
%TO.P,Q4,1*%
%TO.N,Net-(Q4-Pad1)*%
X161718800Y-103424200D03*
%TD*%
%TO.P,Q4,3*%
%TO.N,Net-(J11-Pad15)*%
X108068800Y-102474200D03*
%TO.P,Q4,2*%
%TO.N,Net-(J11-Pad13)*%
X110068800Y-101524200D03*
%TO.P,Q4,1*%
%TO.N,Net-(Q4-Pad1)*%
X110068800Y-103424200D03*
%TD*%
%TO.P,R8,2*%
%TO.N,Net-(Q2-Pad1)*%
%TA.AperFunction,SMDPad,CuDef*%
G36*
G01*
X167052300Y-106367200D02*
X166577300Y-106367200D01*
G75*
G02*
X166339800Y-106129700I0J237500D01*
G01*
X166339800Y-105629700D01*
G75*
G02*
X166577300Y-105392200I237500J0D01*
G01*
X167052300Y-105392200D01*
G75*
G02*
X167289800Y-105629700I0J-237500D01*
G01*
X167289800Y-106129700D01*
G75*
G02*
X167052300Y-106367200I-237500J0D01*
G01*
G37*
%TD.AperFunction*%
%TO.P,R8,1*%
%TO.N,Net-(J11-Pad1)*%
%TA.AperFunction,SMDPad,CuDef*%
G36*
G01*
X167052300Y-108192200D02*
X166577300Y-108192200D01*
G75*
G02*
X166339800Y-107954700I0J237500D01*
G01*
X166339800Y-107454700D01*
G75*
G02*
X166577300Y-107217200I237500J0D01*
G01*
X167052300Y-107217200D01*
G75*
G02*
X167289800Y-107454700I0J-237500D01*
G01*
X167289800Y-107954700D01*
G75*
G02*
X167052300Y-108192200I-237500J0D01*
G01*
G37*
%TD.AperFunction*%
%TD*%
%TO.P,R8,2*%
%TO.N,Net-(Q2-Pad1)*%
%TA.AperFunction,SMDPad,CuDef*%
G36*
G01*
X115402300Y-106367200D02*
X114927300Y-106367200D01*
G75*
G02*
X114689800Y-106129700I0J237500D01*
G01*
X114689800Y-105629700D01*
G75*
G02*
X114927300Y-105392200I237500J0D01*
G01*
X115402300Y-105392200D01*
G75*
G02*
X115639800Y-105629700I0J-237500D01*
G01*
X115639800Y-106129700D01*
G75*
G02*
X115402300Y-106367200I-237500J0D01*
G01*
G37*
%TD.AperFunction*%
%TO.P,R8,1*%
%TO.N,Net-(J11-Pad1)*%
%TA.AperFunction,SMDPad,CuDef*%
G36*
G01*
X115402300Y-108192200D02*
X114927300Y-108192200D01*
G75*
G02*
X114689800Y-107954700I0J237500D01*
G01*
X114689800Y-107454700D01*
G75*
G02*
X114927300Y-107217200I237500J0D01*
G01*
X115402300Y-107217200D01*
G75*
G02*
X115639800Y-107454700I0J-237500D01*
G01*
X115639800Y-107954700D01*
G75*
G02*
X115402300Y-108192200I-237500J0D01*
G01*
G37*
%TD.AperFunction*%
%TD*%
%TO.P,Q3,1*%
%TO.N,Net-(Q3-Pad1)*%
X161718800Y-98598200D03*
%TO.P,Q3,2*%
%TO.N,Net-(J11-Pad12)*%
X161718800Y-96698200D03*
%TO.P,Q3,3*%
%TO.N,Net-(J11-Pad15)*%
X159718800Y-97648200D03*
%TD*%
%TO.P,Q3,1*%
%TO.N,Net-(Q3-Pad1)*%
X110068800Y-98598200D03*
%TO.P,Q3,2*%
%TO.N,Net-(J11-Pad12)*%
X110068800Y-96698200D03*
%TO.P,Q3,3*%
%TO.N,Net-(J11-Pad15)*%
X108068800Y-97648200D03*
%TD*%
%TO.P,R20,2*%
%TO.N,Net-(Q5-Pad1)*%
%TA.AperFunction,SMDPad,CuDef*%
G36*
G01*
X166925300Y-93667200D02*
X166450300Y-93667200D01*
G75*
G02*
X166212800Y-93429700I0J237500D01*
G01*
X166212800Y-92929700D01*
G75*
G02*
X166450300Y-92692200I237500J0D01*
G01*
X166925300Y-92692200D01*
G75*
G02*
X167162800Y-92929700I0J-237500D01*
G01*
X167162800Y-93429700D01*
G75*
G02*
X166925300Y-93667200I-237500J0D01*
G01*
G37*
%TD.AperFunction*%
%TO.P,R20,1*%
%TO.N,Net-(J11-Pad4)*%
%TA.AperFunction,SMDPad,CuDef*%
G36*
G01*
X166925300Y-95492200D02*
X166450300Y-95492200D01*
G75*
G02*
X166212800Y-95254700I0J237500D01*
G01*
X166212800Y-94754700D01*
G75*
G02*
X166450300Y-94517200I237500J0D01*
G01*
X166925300Y-94517200D01*
G75*
G02*
X167162800Y-94754700I0J-237500D01*
G01*
X167162800Y-95254700D01*
G75*
G02*
X166925300Y-95492200I-237500J0D01*
G01*
G37*
%TD.AperFunction*%
%TD*%
%TO.P,R20,2*%
%TO.N,Net-(Q5-Pad1)*%
%TA.AperFunction,SMDPad,CuDef*%
G36*
G01*
X115275300Y-93667200D02*
X114800300Y-93667200D01*
G75*
G02*
X114562800Y-93429700I0J237500D01*
G01*
X114562800Y-92929700D01*
G75*
G02*
X114800300Y-92692200I237500J0D01*
G01*
X115275300Y-92692200D01*
G75*
G02*
X115512800Y-92929700I0J-237500D01*
G01*
X115512800Y-93429700D01*
G75*
G02*
X115275300Y-93667200I-237500J0D01*
G01*
G37*
%TD.AperFunction*%
%TO.P,R20,1*%
%TO.N,Net-(J11-Pad4)*%
%TA.AperFunction,SMDPad,CuDef*%
G36*
G01*
X115275300Y-95492200D02*
X114800300Y-95492200D01*
G75*
G02*
X114562800Y-95254700I0J237500D01*
G01*
X114562800Y-94754700D01*
G75*
G02*
X114800300Y-94517200I237500J0D01*
G01*
X115275300Y-94517200D01*
G75*
G02*
X115512800Y-94754700I0J-237500D01*
G01*
X115512800Y-95254700D01*
G75*
G02*
X115275300Y-95492200I-237500J0D01*
G01*
G37*
%TD.AperFunction*%
%TD*%
D19*
%TO.P,~,17*%
%TO.N,Net-(J11-Pad17)*%
X164175801Y-109479201D03*
%TO.P,~,18*%
%TO.N,Net-(J11-Pad18)*%
X166715801Y-109479201D03*
D17*
%TO.P,~,8*%
%TO.N,Net-(J11-Pad8)*%
X169255801Y-91699201D03*
%TO.P,~,9*%
%TO.N,Net-(J11-Pad15)*%
X156555801Y-91699201D03*
%TO.P,~,7*%
%TO.N,Net-(J11-Pad7)*%
X169255801Y-94239201D03*
%TO.P,~,10*%
%TO.N,Net-(J11-Pad10)*%
X156555801Y-94239201D03*
%TO.P,~,6*%
%TO.N,Net-(J11-Pad6)*%
X169255801Y-96779201D03*
%TO.P,~,11*%
%TO.N,Net-(J11-Pad11)*%
X156555801Y-96779201D03*
%TO.P,~,5*%
%TO.N,Net-(J11-Pad5)*%
X169255801Y-99319201D03*
%TO.P,~,12*%
%TO.N,Net-(J11-Pad12)*%
X156555801Y-99319201D03*
%TO.P,~,4*%
%TO.N,Net-(J11-Pad4)*%
X169255801Y-101859201D03*
%TO.P,~,13*%
%TO.N,Net-(J11-Pad13)*%
X156555801Y-101859201D03*
%TO.P,~,3*%
%TO.N,Net-(J11-Pad3)*%
X169255801Y-104399201D03*
%TO.P,~,14*%
%TO.N,Net-(J11-Pad14)*%
X156555801Y-104399201D03*
%TO.P,~,2*%
%TO.N,Net-(J11-Pad2)*%
X169255801Y-106939201D03*
%TO.P,~,15*%
%TO.N,Net-(J11-Pad15)*%
X156555801Y-106939201D03*
D18*
%TO.P,~,1*%
%TO.N,Net-(J11-Pad1)*%
X169255801Y-109479201D03*
D17*
%TO.P,~,16*%
%TO.N,Net-(J11-Pad16)*%
X156555801Y-109479201D03*
%TD*%
D19*
%TO.P,~,17*%
%TO.N,Net-(J11-Pad17)*%
X112525801Y-109479201D03*
%TO.P,~,18*%
%TO.N,Net-(J11-Pad18)*%
X115065801Y-109479201D03*
D17*
%TO.P,~,8*%
%TO.N,Net-(J11-Pad8)*%
X117605801Y-91699201D03*
%TO.P,~,9*%
%TO.N,Net-(J11-Pad15)*%
X104905801Y-91699201D03*
%TO.P,~,7*%
%TO.N,Net-(J11-Pad7)*%
X117605801Y-94239201D03*
%TO.P,~,10*%
%TO.N,Net-(J11-Pad10)*%
X104905801Y-94239201D03*
%TO.P,~,6*%
%TO.N,Net-(J11-Pad6)*%
X117605801Y-96779201D03*
%TO.P,~,11*%
%TO.N,Net-(J11-Pad11)*%
X104905801Y-96779201D03*
%TO.P,~,5*%
%TO.N,Net-(J11-Pad5)*%
X117605801Y-99319201D03*
%TO.P,~,12*%
%TO.N,Net-(J11-Pad12)*%
X104905801Y-99319201D03*
%TO.P,~,4*%
%TO.N,Net-(J11-Pad4)*%
X117605801Y-101859201D03*
%TO.P,~,13*%
%TO.N,Net-(J11-Pad13)*%
X104905801Y-101859201D03*
%TO.P,~,3*%
%TO.N,Net-(J11-Pad3)*%
X117605801Y-104399201D03*
%TO.P,~,14*%
%TO.N,Net-(J11-Pad14)*%
X104905801Y-104399201D03*
%TO.P,~,2*%
%TO.N,Net-(J11-Pad2)*%
X117605801Y-106939201D03*
%TO.P,~,15*%
%TO.N,Net-(J11-Pad15)*%
X104905801Y-106939201D03*
D18*
%TO.P,~,1*%
%TO.N,Net-(J11-Pad1)*%
X117605801Y-109479201D03*
D17*
%TO.P,~,16*%
%TO.N,Net-(J11-Pad16)*%
X104905801Y-109479201D03*
%TD*%
D16*
%TO.P,Q5,3*%
%TO.N,Net-(J11-Pad15)*%
X159734800Y-92761200D03*
%TO.P,Q5,2*%
%TO.N,Net-(J11-Pad11)*%
X161734800Y-91811200D03*
%TO.P,Q5,1*%
%TO.N,Net-(Q5-Pad1)*%
X161734800Y-93711200D03*
%TD*%
%TO.P,Q5,3*%
%TO.N,Net-(J11-Pad15)*%
X108084800Y-92761200D03*
%TO.P,Q5,2*%
%TO.N,Net-(J11-Pad11)*%
X110084800Y-91811200D03*
%TO.P,Q5,1*%
%TO.N,Net-(Q5-Pad1)*%
X110084800Y-93711200D03*
%TD*%
%TO.P,R19,1*%
%TO.N,Net-(Q4-Pad1)*%
%TA.AperFunction,SMDPad,CuDef*%
G36*
G01*
X164131300Y-103366200D02*
X163656300Y-103366200D01*
G75*
G02*
X163418800Y-103128700I0J237500D01*
G01*
X163418800Y-102628700D01*
G75*
G02*
X163656300Y-102391200I237500J0D01*
G01*
X164131300Y-102391200D01*
G75*
G02*
X164368800Y-102628700I0J-237500D01*
G01*
X164368800Y-103128700D01*
G75*
G02*
X164131300Y-103366200I-237500J0D01*
G01*
G37*
%TD.AperFunction*%
%TO.P,R19,2*%
%TO.N,Net-(J11-Pad15)*%
%TA.AperFunction,SMDPad,CuDef*%
G36*
G01*
X164131300Y-101541200D02*
X163656300Y-101541200D01*
G75*
G02*
X163418800Y-101303700I0J237500D01*
G01*
X163418800Y-100803700D01*
G75*
G02*
X163656300Y-100566200I237500J0D01*
G01*
X164131300Y-100566200D01*
G75*
G02*
X164368800Y-100803700I0J-237500D01*
G01*
X164368800Y-101303700D01*
G75*
G02*
X164131300Y-101541200I-237500J0D01*
G01*
G37*
%TD.AperFunction*%
%TD*%
%TO.P,R19,1*%
%TO.N,Net-(Q4-Pad1)*%
%TA.AperFunction,SMDPad,CuDef*%
G36*
G01*
X112481300Y-103366200D02*
X112006300Y-103366200D01*
G75*
G02*
X111768800Y-103128700I0J237500D01*
G01*
X111768800Y-102628700D01*
G75*
G02*
X112006300Y-102391200I237500J0D01*
G01*
X112481300Y-102391200D01*
G75*
G02*
X112718800Y-102628700I0J-237500D01*
G01*
X112718800Y-103128700D01*
G75*
G02*
X112481300Y-103366200I-237500J0D01*
G01*
G37*
%TD.AperFunction*%
%TO.P,R19,2*%
%TO.N,Net-(J11-Pad15)*%
%TA.AperFunction,SMDPad,CuDef*%
G36*
G01*
X112481300Y-101541200D02*
X112006300Y-101541200D01*
G75*
G02*
X111768800Y-101303700I0J237500D01*
G01*
X111768800Y-100803700D01*
G75*
G02*
X112006300Y-100566200I237500J0D01*
G01*
X112481300Y-100566200D01*
G75*
G02*
X112718800Y-100803700I0J-237500D01*
G01*
X112718800Y-101303700D01*
G75*
G02*
X112481300Y-101541200I-237500J0D01*
G01*
G37*
%TD.AperFunction*%
%TD*%
%TO.P,R18,2*%
%TO.N,Net-(Q4-Pad1)*%
%TA.AperFunction,SMDPad,CuDef*%
G36*
G01*
X166925300Y-102684200D02*
X166450300Y-102684200D01*
G75*
G02*
X166212800Y-102446700I0J237500D01*
G01*
X166212800Y-101946700D01*
G75*
G02*
X166450300Y-101709200I237500J0D01*
G01*
X166925300Y-101709200D01*
G75*
G02*
X167162800Y-101946700I0J-237500D01*
G01*
X167162800Y-102446700D01*
G75*
G02*
X166925300Y-102684200I-237500J0D01*
G01*
G37*
%TD.AperFunction*%
%TO.P,R18,1*%
%TO.N,Net-(J11-Pad7)*%
%TA.AperFunction,SMDPad,CuDef*%
G36*
G01*
X166925300Y-104509200D02*
X166450300Y-104509200D01*
G75*
G02*
X166212800Y-104271700I0J237500D01*
G01*
X166212800Y-103771700D01*
G75*
G02*
X166450300Y-103534200I237500J0D01*
G01*
X166925300Y-103534200D01*
G75*
G02*
X167162800Y-103771700I0J-237500D01*
G01*
X167162800Y-104271700D01*
G75*
G02*
X166925300Y-104509200I-237500J0D01*
G01*
G37*
%TD.AperFunction*%
%TD*%
%TO.P,R18,2*%
%TO.N,Net-(Q4-Pad1)*%
%TA.AperFunction,SMDPad,CuDef*%
G36*
G01*
X115275300Y-102684200D02*
X114800300Y-102684200D01*
G75*
G02*
X114562800Y-102446700I0J237500D01*
G01*
X114562800Y-101946700D01*
G75*
G02*
X114800300Y-101709200I237500J0D01*
G01*
X115275300Y-101709200D01*
G75*
G02*
X115512800Y-101946700I0J-237500D01*
G01*
X115512800Y-102446700D01*
G75*
G02*
X115275300Y-102684200I-237500J0D01*
G01*
G37*
%TD.AperFunction*%
%TO.P,R18,1*%
%TO.N,Net-(J11-Pad7)*%
%TA.AperFunction,SMDPad,CuDef*%
G36*
G01*
X115275300Y-104509200D02*
X114800300Y-104509200D01*
G75*
G02*
X114562800Y-104271700I0J237500D01*
G01*
X114562800Y-103771700D01*
G75*
G02*
X114800300Y-103534200I237500J0D01*
G01*
X115275300Y-103534200D01*
G75*
G02*
X115512800Y-103771700I0J-237500D01*
G01*
X115512800Y-104271700D01*
G75*
G02*
X115275300Y-104509200I-237500J0D01*
G01*
G37*
%TD.AperFunction*%
%TD*%
%TO.P,R17,1*%
%TO.N,Net-(Q3-Pad1)*%
%TA.AperFunction,SMDPad,CuDef*%
G36*
G01*
X164131300Y-98540200D02*
X163656300Y-98540200D01*
G75*
G02*
X163418800Y-98302700I0J237500D01*
G01*
X163418800Y-97802700D01*
G75*
G02*
X163656300Y-97565200I237500J0D01*
G01*
X164131300Y-97565200D01*
G75*
G02*
X164368800Y-97802700I0J-237500D01*
G01*
X164368800Y-98302700D01*
G75*
G02*
X164131300Y-98540200I-237500J0D01*
G01*
G37*
%TD.AperFunction*%
%TO.P,R17,2*%
%TO.N,Net-(J11-Pad15)*%
%TA.AperFunction,SMDPad,CuDef*%
G36*
G01*
X164131300Y-96715200D02*
X163656300Y-96715200D01*
G75*
G02*
X163418800Y-96477700I0J237500D01*
G01*
X163418800Y-95977700D01*
G75*
G02*
X163656300Y-95740200I237500J0D01*
G01*
X164131300Y-95740200D01*
G75*
G02*
X164368800Y-95977700I0J-237500D01*
G01*
X164368800Y-96477700D01*
G75*
G02*
X164131300Y-96715200I-237500J0D01*
G01*
G37*
%TD.AperFunction*%
%TD*%
%TO.P,R17,1*%
%TO.N,Net-(Q3-Pad1)*%
%TA.AperFunction,SMDPad,CuDef*%
G36*
G01*
X112481300Y-98540200D02*
X112006300Y-98540200D01*
G75*
G02*
X111768800Y-98302700I0J237500D01*
G01*
X111768800Y-97802700D01*
G75*
G02*
X112006300Y-97565200I237500J0D01*
G01*
X112481300Y-97565200D01*
G75*
G02*
X112718800Y-97802700I0J-237500D01*
G01*
X112718800Y-98302700D01*
G75*
G02*
X112481300Y-98540200I-237500J0D01*
G01*
G37*
%TD.AperFunction*%
%TO.P,R17,2*%
%TO.N,Net-(J11-Pad15)*%
%TA.AperFunction,SMDPad,CuDef*%
G36*
G01*
X112481300Y-96715200D02*
X112006300Y-96715200D01*
G75*
G02*
X111768800Y-96477700I0J237500D01*
G01*
X111768800Y-95977700D01*
G75*
G02*
X112006300Y-95740200I237500J0D01*
G01*
X112481300Y-95740200D01*
G75*
G02*
X112718800Y-95977700I0J-237500D01*
G01*
X112718800Y-96477700D01*
G75*
G02*
X112481300Y-96715200I-237500J0D01*
G01*
G37*
%TD.AperFunction*%
%TD*%
%TO.P,R9,1*%
%TO.N,Net-(Q2-Pad1)*%
%TA.AperFunction,SMDPad,CuDef*%
G36*
G01*
X60831300Y-139065200D02*
X60356300Y-139065200D01*
G75*
G02*
X60118800Y-138827700I0J237500D01*
G01*
X60118800Y-138327700D01*
G75*
G02*
X60356300Y-138090200I237500J0D01*
G01*
X60831300Y-138090200D01*
G75*
G02*
X61068800Y-138327700I0J-237500D01*
G01*
X61068800Y-138827700D01*
G75*
G02*
X60831300Y-139065200I-237500J0D01*
G01*
G37*
%TD.AperFunction*%
%TO.P,R9,2*%
%TO.N,Net-(J11-Pad15)*%
%TA.AperFunction,SMDPad,CuDef*%
G36*
G01*
X60831300Y-137240200D02*
X60356300Y-137240200D01*
G75*
G02*
X60118800Y-137002700I0J237500D01*
G01*
X60118800Y-136502700D01*
G75*
G02*
X60356300Y-136265200I237500J0D01*
G01*
X60831300Y-136265200D01*
G75*
G02*
X61068800Y-136502700I0J-237500D01*
G01*
X61068800Y-137002700D01*
G75*
G02*
X60831300Y-137240200I-237500J0D01*
G01*
G37*
%TD.AperFunction*%
%TD*%
%TO.P,R10,2*%
%TO.N,Net-(Q3-Pad1)*%
%TA.AperFunction,SMDPad,CuDef*%
G36*
G01*
X63625300Y-129112200D02*
X63150300Y-129112200D01*
G75*
G02*
X62912800Y-128874700I0J237500D01*
G01*
X62912800Y-128374700D01*
G75*
G02*
X63150300Y-128137200I237500J0D01*
G01*
X63625300Y-128137200D01*
G75*
G02*
X63862800Y-128374700I0J-237500D01*
G01*
X63862800Y-128874700D01*
G75*
G02*
X63625300Y-129112200I-237500J0D01*
G01*
G37*
%TD.AperFunction*%
%TO.P,R10,1*%
%TO.N,Net-(J11-Pad8)*%
%TA.AperFunction,SMDPad,CuDef*%
G36*
G01*
X63625300Y-130937200D02*
X63150300Y-130937200D01*
G75*
G02*
X62912800Y-130699700I0J237500D01*
G01*
X62912800Y-130199700D01*
G75*
G02*
X63150300Y-129962200I237500J0D01*
G01*
X63625300Y-129962200D01*
G75*
G02*
X63862800Y-130199700I0J-237500D01*
G01*
X63862800Y-130699700D01*
G75*
G02*
X63625300Y-130937200I-237500J0D01*
G01*
G37*
%TD.AperFunction*%
%TD*%
%TO.P,R21,1*%
%TO.N,Net-(Q5-Pad1)*%
%TA.AperFunction,SMDPad,CuDef*%
G36*
G01*
X60831300Y-125095200D02*
X60356300Y-125095200D01*
G75*
G02*
X60118800Y-124857700I0J237500D01*
G01*
X60118800Y-124357700D01*
G75*
G02*
X60356300Y-124120200I237500J0D01*
G01*
X60831300Y-124120200D01*
G75*
G02*
X61068800Y-124357700I0J-237500D01*
G01*
X61068800Y-124857700D01*
G75*
G02*
X60831300Y-125095200I-237500J0D01*
G01*
G37*
%TD.AperFunction*%
%TO.P,R21,2*%
%TO.N,Net-(J11-Pad15)*%
%TA.AperFunction,SMDPad,CuDef*%
G36*
G01*
X60831300Y-123270200D02*
X60356300Y-123270200D01*
G75*
G02*
X60118800Y-123032700I0J237500D01*
G01*
X60118800Y-122532700D01*
G75*
G02*
X60356300Y-122295200I237500J0D01*
G01*
X60831300Y-122295200D01*
G75*
G02*
X61068800Y-122532700I0J-237500D01*
G01*
X61068800Y-123032700D01*
G75*
G02*
X60831300Y-123270200I-237500J0D01*
G01*
G37*
%TD.AperFunction*%
%TD*%
%TO.P,Q2,1*%
%TO.N,Net-(Q2-Pad1)*%
X58418800Y-139250200D03*
%TO.P,Q2,2*%
%TO.N,Net-(J11-Pad14)*%
X58418800Y-137350200D03*
%TO.P,Q2,3*%
%TO.N,Net-(J11-Pad15)*%
X56418800Y-138300200D03*
%TD*%
%TO.P,Q4,3*%
%TO.N,Net-(J11-Pad15)*%
X56418800Y-133474200D03*
%TO.P,Q4,2*%
%TO.N,Net-(J11-Pad13)*%
X58418800Y-132524200D03*
%TO.P,Q4,1*%
%TO.N,Net-(Q4-Pad1)*%
X58418800Y-134424200D03*
%TD*%
%TO.P,R8,2*%
%TO.N,Net-(Q2-Pad1)*%
%TA.AperFunction,SMDPad,CuDef*%
G36*
G01*
X63752300Y-137367200D02*
X63277300Y-137367200D01*
G75*
G02*
X63039800Y-137129700I0J237500D01*
G01*
X63039800Y-136629700D01*
G75*
G02*
X63277300Y-136392200I237500J0D01*
G01*
X63752300Y-136392200D01*
G75*
G02*
X63989800Y-136629700I0J-237500D01*
G01*
X63989800Y-137129700D01*
G75*
G02*
X63752300Y-137367200I-237500J0D01*
G01*
G37*
%TD.AperFunction*%
%TO.P,R8,1*%
%TO.N,Net-(J11-Pad1)*%
%TA.AperFunction,SMDPad,CuDef*%
G36*
G01*
X63752300Y-139192200D02*
X63277300Y-139192200D01*
G75*
G02*
X63039800Y-138954700I0J237500D01*
G01*
X63039800Y-138454700D01*
G75*
G02*
X63277300Y-138217200I237500J0D01*
G01*
X63752300Y-138217200D01*
G75*
G02*
X63989800Y-138454700I0J-237500D01*
G01*
X63989800Y-138954700D01*
G75*
G02*
X63752300Y-139192200I-237500J0D01*
G01*
G37*
%TD.AperFunction*%
%TD*%
%TO.P,Q3,1*%
%TO.N,Net-(Q3-Pad1)*%
X58418800Y-129598200D03*
%TO.P,Q3,2*%
%TO.N,Net-(J11-Pad12)*%
X58418800Y-127698200D03*
%TO.P,Q3,3*%
%TO.N,Net-(J11-Pad15)*%
X56418800Y-128648200D03*
%TD*%
%TO.P,R20,2*%
%TO.N,Net-(Q5-Pad1)*%
%TA.AperFunction,SMDPad,CuDef*%
G36*
G01*
X63625300Y-124667200D02*
X63150300Y-124667200D01*
G75*
G02*
X62912800Y-124429700I0J237500D01*
G01*
X62912800Y-123929700D01*
G75*
G02*
X63150300Y-123692200I237500J0D01*
G01*
X63625300Y-123692200D01*
G75*
G02*
X63862800Y-123929700I0J-237500D01*
G01*
X63862800Y-124429700D01*
G75*
G02*
X63625300Y-124667200I-237500J0D01*
G01*
G37*
%TD.AperFunction*%
%TO.P,R20,1*%
%TO.N,Net-(J11-Pad4)*%
%TA.AperFunction,SMDPad,CuDef*%
G36*
G01*
X63625300Y-126492200D02*
X63150300Y-126492200D01*
G75*
G02*
X62912800Y-126254700I0J237500D01*
G01*
X62912800Y-125754700D01*
G75*
G02*
X63150300Y-125517200I237500J0D01*
G01*
X63625300Y-125517200D01*
G75*
G02*
X63862800Y-125754700I0J-237500D01*
G01*
X63862800Y-126254700D01*
G75*
G02*
X63625300Y-126492200I-237500J0D01*
G01*
G37*
%TD.AperFunction*%
%TD*%
D19*
%TO.P,~,17*%
%TO.N,Net-(J11-Pad17)*%
X60875801Y-140479201D03*
%TO.P,~,18*%
%TO.N,Net-(J11-Pad18)*%
X63415801Y-140479201D03*
D17*
%TO.P,~,8*%
%TO.N,Net-(J11-Pad8)*%
X65955801Y-122699201D03*
%TO.P,~,9*%
%TO.N,Net-(J11-Pad15)*%
X53255801Y-122699201D03*
%TO.P,~,7*%
%TO.N,Net-(J11-Pad7)*%
X65955801Y-125239201D03*
%TO.P,~,10*%
%TO.N,Net-(J11-Pad10)*%
X53255801Y-125239201D03*
%TO.P,~,6*%
%TO.N,Net-(J11-Pad6)*%
X65955801Y-127779201D03*
%TO.P,~,11*%
%TO.N,Net-(J11-Pad11)*%
X53255801Y-127779201D03*
%TO.P,~,5*%
%TO.N,Net-(J11-Pad5)*%
X65955801Y-130319201D03*
%TO.P,~,12*%
%TO.N,Net-(J11-Pad12)*%
X53255801Y-130319201D03*
%TO.P,~,4*%
%TO.N,Net-(J11-Pad4)*%
X65955801Y-132859201D03*
%TO.P,~,13*%
%TO.N,Net-(J11-Pad13)*%
X53255801Y-132859201D03*
%TO.P,~,3*%
%TO.N,Net-(J11-Pad3)*%
X65955801Y-135399201D03*
%TO.P,~,14*%
%TO.N,Net-(J11-Pad14)*%
X53255801Y-135399201D03*
%TO.P,~,2*%
%TO.N,Net-(J11-Pad2)*%
X65955801Y-137939201D03*
%TO.P,~,15*%
%TO.N,Net-(J11-Pad15)*%
X53255801Y-137939201D03*
D18*
%TO.P,~,1*%
%TO.N,Net-(J11-Pad1)*%
X65955801Y-140479201D03*
D17*
%TO.P,~,16*%
%TO.N,Net-(J11-Pad16)*%
X53255801Y-140479201D03*
%TD*%
D16*
%TO.P,Q5,3*%
%TO.N,Net-(J11-Pad15)*%
X56434800Y-123761200D03*
%TO.P,Q5,2*%
%TO.N,Net-(J11-Pad11)*%
X58434800Y-122811200D03*
%TO.P,Q5,1*%
%TO.N,Net-(Q5-Pad1)*%
X58434800Y-124711200D03*
%TD*%
%TO.P,R19,1*%
%TO.N,Net-(Q4-Pad1)*%
%TA.AperFunction,SMDPad,CuDef*%
G36*
G01*
X60831300Y-134366200D02*
X60356300Y-134366200D01*
G75*
G02*
X60118800Y-134128700I0J237500D01*
G01*
X60118800Y-133628700D01*
G75*
G02*
X60356300Y-133391200I237500J0D01*
G01*
X60831300Y-133391200D01*
G75*
G02*
X61068800Y-133628700I0J-237500D01*
G01*
X61068800Y-134128700D01*
G75*
G02*
X60831300Y-134366200I-237500J0D01*
G01*
G37*
%TD.AperFunction*%
%TO.P,R19,2*%
%TO.N,Net-(J11-Pad15)*%
%TA.AperFunction,SMDPad,CuDef*%
G36*
G01*
X60831300Y-132541200D02*
X60356300Y-132541200D01*
G75*
G02*
X60118800Y-132303700I0J237500D01*
G01*
X60118800Y-131803700D01*
G75*
G02*
X60356300Y-131566200I237500J0D01*
G01*
X60831300Y-131566200D01*
G75*
G02*
X61068800Y-131803700I0J-237500D01*
G01*
X61068800Y-132303700D01*
G75*
G02*
X60831300Y-132541200I-237500J0D01*
G01*
G37*
%TD.AperFunction*%
%TD*%
%TO.P,R18,2*%
%TO.N,Net-(Q4-Pad1)*%
%TA.AperFunction,SMDPad,CuDef*%
G36*
G01*
X63625300Y-133684200D02*
X63150300Y-133684200D01*
G75*
G02*
X62912800Y-133446700I0J237500D01*
G01*
X62912800Y-132946700D01*
G75*
G02*
X63150300Y-132709200I237500J0D01*
G01*
X63625300Y-132709200D01*
G75*
G02*
X63862800Y-132946700I0J-237500D01*
G01*
X63862800Y-133446700D01*
G75*
G02*
X63625300Y-133684200I-237500J0D01*
G01*
G37*
%TD.AperFunction*%
%TO.P,R18,1*%
%TO.N,Net-(J11-Pad7)*%
%TA.AperFunction,SMDPad,CuDef*%
G36*
G01*
X63625300Y-135509200D02*
X63150300Y-135509200D01*
G75*
G02*
X62912800Y-135271700I0J237500D01*
G01*
X62912800Y-134771700D01*
G75*
G02*
X63150300Y-134534200I237500J0D01*
G01*
X63625300Y-134534200D01*
G75*
G02*
X63862800Y-134771700I0J-237500D01*
G01*
X63862800Y-135271700D01*
G75*
G02*
X63625300Y-135509200I-237500J0D01*
G01*
G37*
%TD.AperFunction*%
%TD*%
%TO.P,R17,1*%
%TO.N,Net-(Q3-Pad1)*%
%TA.AperFunction,SMDPad,CuDef*%
G36*
G01*
X60831300Y-129540200D02*
X60356300Y-129540200D01*
G75*
G02*
X60118800Y-129302700I0J237500D01*
G01*
X60118800Y-128802700D01*
G75*
G02*
X60356300Y-128565200I237500J0D01*
G01*
X60831300Y-128565200D01*
G75*
G02*
X61068800Y-128802700I0J-237500D01*
G01*
X61068800Y-129302700D01*
G75*
G02*
X60831300Y-129540200I-237500J0D01*
G01*
G37*
%TD.AperFunction*%
%TO.P,R17,2*%
%TO.N,Net-(J11-Pad15)*%
%TA.AperFunction,SMDPad,CuDef*%
G36*
G01*
X60831300Y-127715200D02*
X60356300Y-127715200D01*
G75*
G02*
X60118800Y-127477700I0J237500D01*
G01*
X60118800Y-126977700D01*
G75*
G02*
X60356300Y-126740200I237500J0D01*
G01*
X60831300Y-126740200D01*
G75*
G02*
X61068800Y-126977700I0J-237500D01*
G01*
X61068800Y-127477700D01*
G75*
G02*
X60831300Y-127715200I-237500J0D01*
G01*
G37*
%TD.AperFunction*%
%TD*%
D17*
%TO.P,J3,16*%
%TO.N,Net-(J3-Pad16)*%
X53327800Y-78616400D03*
D18*
%TO.P,J3,1*%
%TO.N,Net-(J3-Pad1)*%
X66027800Y-78616400D03*
D17*
%TO.P,J3,15*%
%TO.N,Net-(J3-Pad15)*%
X53327800Y-76076400D03*
%TO.P,J3,2*%
%TO.N,Net-(J3-Pad2)*%
X66027800Y-76076400D03*
%TO.P,J3,14*%
%TO.N,Net-(J3-Pad14)*%
X53327800Y-73536400D03*
%TO.P,J3,3*%
%TO.N,Net-(J3-Pad3)*%
X66027800Y-73536400D03*
%TO.P,J3,13*%
%TO.N,Net-(J3-Pad13)*%
X53327800Y-70996400D03*
%TO.P,J3,4*%
%TO.N,Net-(J3-Pad4)*%
X66027800Y-70996400D03*
%TO.P,J3,12*%
%TO.N,Net-(J3-Pad12)*%
X53327800Y-68456400D03*
%TO.P,J3,5*%
%TO.N,Net-(J3-Pad5)*%
X66027800Y-68456400D03*
%TO.P,J3,11*%
%TO.N,Net-(J3-Pad11)*%
X53327800Y-65916400D03*
%TO.P,J3,6*%
%TO.N,Net-(J3-Pad6)*%
X66027800Y-65916400D03*
%TO.P,J3,10*%
%TO.N,Net-(J3-Pad10)*%
X53327800Y-63376400D03*
%TO.P,J3,7*%
%TO.N,Net-(J3-Pad7)*%
X66027800Y-63376400D03*
%TO.P,J3,9*%
%TO.N,Net-(J3-Pad15)*%
X53327800Y-60836400D03*
%TO.P,J3,8*%
%TO.N,Net-(J3-Pad8)*%
X66027800Y-60836400D03*
D19*
%TO.P,J3,17*%
%TO.N,Net-(J3-Pad17)*%
X60947800Y-78616400D03*
%TO.P,J3,18*%
%TO.N,Net-(J3-Pad18)*%
X60947800Y-78616400D03*
X63487800Y-78616400D03*
%TD*%
%TO.P,U1,1*%
%TO.N,Net-(J3-Pad1)*%
%TA.AperFunction,SMDPad,CuDef*%
G36*
G01*
X63127800Y-68230200D02*
X63127800Y-68530200D01*
G75*
G02*
X62977800Y-68680200I-150000J0D01*
G01*
X61527800Y-68680200D01*
G75*
G02*
X61377800Y-68530200I0J150000D01*
G01*
X61377800Y-68230200D01*
G75*
G02*
X61527800Y-68080200I150000J0D01*
G01*
X62977800Y-68080200D01*
G75*
G02*
X63127800Y-68230200I0J-150000D01*
G01*
G37*
%TD.AperFunction*%
%TO.P,U1,2*%
%TO.N,Net-(J3-Pad7)*%
%TA.AperFunction,SMDPad,CuDef*%
G36*
G01*
X63127800Y-66960200D02*
X63127800Y-67260200D01*
G75*
G02*
X62977800Y-67410200I-150000J0D01*
G01*
X61527800Y-67410200D01*
G75*
G02*
X61377800Y-67260200I0J150000D01*
G01*
X61377800Y-66960200D01*
G75*
G02*
X61527800Y-66810200I150000J0D01*
G01*
X62977800Y-66810200D01*
G75*
G02*
X63127800Y-66960200I0J-150000D01*
G01*
G37*
%TD.AperFunction*%
%TO.P,U1,3*%
%TO.N,Net-(J3-Pad8)*%
%TA.AperFunction,SMDPad,CuDef*%
G36*
G01*
X63127800Y-65690200D02*
X63127800Y-65990200D01*
G75*
G02*
X62977800Y-66140200I-150000J0D01*
G01*
X61527800Y-66140200D01*
G75*
G02*
X61377800Y-65990200I0J150000D01*
G01*
X61377800Y-65690200D01*
G75*
G02*
X61527800Y-65540200I150000J0D01*
G01*
X62977800Y-65540200D01*
G75*
G02*
X63127800Y-65690200I0J-150000D01*
G01*
G37*
%TD.AperFunction*%
%TO.P,U1,4*%
%TO.N,Net-(J3-Pad4)*%
%TA.AperFunction,SMDPad,CuDef*%
G36*
G01*
X63127800Y-64420200D02*
X63127800Y-64720200D01*
G75*
G02*
X62977800Y-64870200I-150000J0D01*
G01*
X61527800Y-64870200D01*
G75*
G02*
X61377800Y-64720200I0J150000D01*
G01*
X61377800Y-64420200D01*
G75*
G02*
X61527800Y-64270200I150000J0D01*
G01*
X62977800Y-64270200D01*
G75*
G02*
X63127800Y-64420200I0J-150000D01*
G01*
G37*
%TD.AperFunction*%
%TO.P,U1,5*%
%TO.N,Net-(J3-Pad15)*%
%TA.AperFunction,SMDPad,CuDef*%
G36*
G01*
X63127800Y-63150200D02*
X63127800Y-63450200D01*
G75*
G02*
X62977800Y-63600200I-150000J0D01*
G01*
X61527800Y-63600200D01*
G75*
G02*
X61377800Y-63450200I0J150000D01*
G01*
X61377800Y-63150200D01*
G75*
G02*
X61527800Y-63000200I150000J0D01*
G01*
X62977800Y-63000200D01*
G75*
G02*
X63127800Y-63150200I0J-150000D01*
G01*
G37*
%TD.AperFunction*%
%TO.P,U1,6*%
%TA.AperFunction,SMDPad,CuDef*%
G36*
G01*
X63127800Y-61880200D02*
X63127800Y-62180200D01*
G75*
G02*
X62977800Y-62330200I-150000J0D01*
G01*
X61527800Y-62330200D01*
G75*
G02*
X61377800Y-62180200I0J150000D01*
G01*
X61377800Y-61880200D01*
G75*
G02*
X61527800Y-61730200I150000J0D01*
G01*
X62977800Y-61730200D01*
G75*
G02*
X63127800Y-61880200I0J-150000D01*
G01*
G37*
%TD.AperFunction*%
%TO.P,U1,7*%
%TA.AperFunction,SMDPad,CuDef*%
G36*
G01*
X63127800Y-60610200D02*
X63127800Y-60910200D01*
G75*
G02*
X62977800Y-61060200I-150000J0D01*
G01*
X61527800Y-61060200D01*
G75*
G02*
X61377800Y-60910200I0J150000D01*
G01*
X61377800Y-60610200D01*
G75*
G02*
X61527800Y-60460200I150000J0D01*
G01*
X62977800Y-60460200D01*
G75*
G02*
X63127800Y-60610200I0J-150000D01*
G01*
G37*
%TD.AperFunction*%
%TO.P,U1,8*%
%TA.AperFunction,SMDPad,CuDef*%
G36*
G01*
X63127800Y-59340200D02*
X63127800Y-59640200D01*
G75*
G02*
X62977800Y-59790200I-150000J0D01*
G01*
X61527800Y-59790200D01*
G75*
G02*
X61377800Y-59640200I0J150000D01*
G01*
X61377800Y-59340200D01*
G75*
G02*
X61527800Y-59190200I150000J0D01*
G01*
X62977800Y-59190200D01*
G75*
G02*
X63127800Y-59340200I0J-150000D01*
G01*
G37*
%TD.AperFunction*%
%TO.P,U1,9*%
%TO.N,Net-(J3-Pad16)*%
%TA.AperFunction,SMDPad,CuDef*%
G36*
G01*
X57977800Y-59340200D02*
X57977800Y-59640200D01*
G75*
G02*
X57827800Y-59790200I-150000J0D01*
G01*
X56377800Y-59790200D01*
G75*
G02*
X56227800Y-59640200I0J150000D01*
G01*
X56227800Y-59340200D01*
G75*
G02*
X56377800Y-59190200I150000J0D01*
G01*
X57827800Y-59190200D01*
G75*
G02*
X57977800Y-59340200I0J-150000D01*
G01*
G37*
%TD.AperFunction*%
%TO.P,U1,10*%
%TO.N,Net-(U1-Pad10)*%
%TA.AperFunction,SMDPad,CuDef*%
G36*
G01*
X57977800Y-60610200D02*
X57977800Y-60910200D01*
G75*
G02*
X57827800Y-61060200I-150000J0D01*
G01*
X56377800Y-61060200D01*
G75*
G02*
X56227800Y-60910200I0J150000D01*
G01*
X56227800Y-60610200D01*
G75*
G02*
X56377800Y-60460200I150000J0D01*
G01*
X57827800Y-60460200D01*
G75*
G02*
X57977800Y-60610200I0J-150000D01*
G01*
G37*
%TD.AperFunction*%
%TO.P,U1,11*%
%TO.N,Net-(U1-Pad11)*%
%TA.AperFunction,SMDPad,CuDef*%
G36*
G01*
X57977800Y-61880200D02*
X57977800Y-62180200D01*
G75*
G02*
X57827800Y-62330200I-150000J0D01*
G01*
X56377800Y-62330200D01*
G75*
G02*
X56227800Y-62180200I0J150000D01*
G01*
X56227800Y-61880200D01*
G75*
G02*
X56377800Y-61730200I150000J0D01*
G01*
X57827800Y-61730200D01*
G75*
G02*
X57977800Y-61880200I0J-150000D01*
G01*
G37*
%TD.AperFunction*%
%TO.P,U1,12*%
%TO.N,Net-(U1-Pad12)*%
%TA.AperFunction,SMDPad,CuDef*%
G36*
G01*
X57977800Y-63150200D02*
X57977800Y-63450200D01*
G75*
G02*
X57827800Y-63600200I-150000J0D01*
G01*
X56377800Y-63600200D01*
G75*
G02*
X56227800Y-63450200I0J150000D01*
G01*
X56227800Y-63150200D01*
G75*
G02*
X56377800Y-63000200I150000J0D01*
G01*
X57827800Y-63000200D01*
G75*
G02*
X57977800Y-63150200I0J-150000D01*
G01*
G37*
%TD.AperFunction*%
%TO.P,U1,13*%
%TO.N,Net-(J3-Pad11)*%
%TA.AperFunction,SMDPad,CuDef*%
G36*
G01*
X57977800Y-64420200D02*
X57977800Y-64720200D01*
G75*
G02*
X57827800Y-64870200I-150000J0D01*
G01*
X56377800Y-64870200D01*
G75*
G02*
X56227800Y-64720200I0J150000D01*
G01*
X56227800Y-64420200D01*
G75*
G02*
X56377800Y-64270200I150000J0D01*
G01*
X57827800Y-64270200D01*
G75*
G02*
X57977800Y-64420200I0J-150000D01*
G01*
G37*
%TD.AperFunction*%
%TO.P,U1,14*%
%TO.N,Net-(J3-Pad12)*%
%TA.AperFunction,SMDPad,CuDef*%
G36*
G01*
X57977800Y-65690200D02*
X57977800Y-65990200D01*
G75*
G02*
X57827800Y-66140200I-150000J0D01*
G01*
X56377800Y-66140200D01*
G75*
G02*
X56227800Y-65990200I0J150000D01*
G01*
X56227800Y-65690200D01*
G75*
G02*
X56377800Y-65540200I150000J0D01*
G01*
X57827800Y-65540200D01*
G75*
G02*
X57977800Y-65690200I0J-150000D01*
G01*
G37*
%TD.AperFunction*%
%TO.P,U1,15*%
%TO.N,Net-(J3-Pad13)*%
%TA.AperFunction,SMDPad,CuDef*%
G36*
G01*
X57977800Y-66960200D02*
X57977800Y-67260200D01*
G75*
G02*
X57827800Y-67410200I-150000J0D01*
G01*
X56377800Y-67410200D01*
G75*
G02*
X56227800Y-67260200I0J150000D01*
G01*
X56227800Y-66960200D01*
G75*
G02*
X56377800Y-66810200I150000J0D01*
G01*
X57827800Y-66810200D01*
G75*
G02*
X57977800Y-66960200I0J-150000D01*
G01*
G37*
%TD.AperFunction*%
%TO.P,U1,16*%
%TO.N,Net-(J3-Pad14)*%
%TA.AperFunction,SMDPad,CuDef*%
G36*
G01*
X57977800Y-68230200D02*
X57977800Y-68530200D01*
G75*
G02*
X57827800Y-68680200I-150000J0D01*
G01*
X56377800Y-68680200D01*
G75*
G02*
X56227800Y-68530200I0J150000D01*
G01*
X56227800Y-68230200D01*
G75*
G02*
X56377800Y-68080200I150000J0D01*
G01*
X57827800Y-68080200D01*
G75*
G02*
X57977800Y-68230200I0J-150000D01*
G01*
G37*
%TD.AperFunction*%
%TD*%
D17*
%TO.P,~,16*%
%TO.N,Net-(J11-Pad16)*%
X53255801Y-109479201D03*
D18*
%TO.P,~,1*%
%TO.N,Net-(J11-Pad1)*%
X65955801Y-109479201D03*
D17*
%TO.P,~,15*%
%TO.N,Net-(J11-Pad15)*%
X53255801Y-106939201D03*
%TO.P,~,2*%
%TO.N,Net-(J11-Pad2)*%
X65955801Y-106939201D03*
%TO.P,~,14*%
%TO.N,Net-(J11-Pad14)*%
X53255801Y-104399201D03*
%TO.P,~,3*%
%TO.N,Net-(J11-Pad3)*%
X65955801Y-104399201D03*
%TO.P,~,13*%
%TO.N,Net-(J11-Pad13)*%
X53255801Y-101859201D03*
%TO.P,~,4*%
%TO.N,Net-(J11-Pad4)*%
X65955801Y-101859201D03*
%TO.P,~,12*%
%TO.N,Net-(J11-Pad12)*%
X53255801Y-99319201D03*
%TO.P,~,5*%
%TO.N,Net-(J11-Pad5)*%
X65955801Y-99319201D03*
%TO.P,~,11*%
%TO.N,Net-(J11-Pad11)*%
X53255801Y-96779201D03*
%TO.P,~,6*%
%TO.N,Net-(J11-Pad6)*%
X65955801Y-96779201D03*
%TO.P,~,10*%
%TO.N,Net-(J11-Pad10)*%
X53255801Y-94239201D03*
%TO.P,~,7*%
%TO.N,Net-(J11-Pad7)*%
X65955801Y-94239201D03*
%TO.P,~,9*%
%TO.N,Net-(J11-Pad15)*%
X53255801Y-91699201D03*
%TO.P,~,8*%
%TO.N,Net-(J11-Pad8)*%
X65955801Y-91699201D03*
D19*
%TO.P,~,18*%
%TO.N,Net-(J11-Pad18)*%
X63415801Y-109479201D03*
%TO.P,~,17*%
%TO.N,Net-(J11-Pad17)*%
X60875801Y-109479201D03*
%TD*%
D16*
%TO.P,Q2,3*%
%TO.N,Net-(J11-Pad15)*%
X56418800Y-107300200D03*
%TO.P,Q2,2*%
%TO.N,Net-(J11-Pad14)*%
X58418800Y-106350200D03*
%TO.P,Q2,1*%
%TO.N,Net-(Q2-Pad1)*%
X58418800Y-108250200D03*
%TD*%
%TO.P,Q3,3*%
%TO.N,Net-(J11-Pad15)*%
X56418800Y-97648200D03*
%TO.P,Q3,2*%
%TO.N,Net-(J11-Pad12)*%
X58418800Y-96698200D03*
%TO.P,Q3,1*%
%TO.N,Net-(Q3-Pad1)*%
X58418800Y-98598200D03*
%TD*%
%TO.P,Q4,1*%
%TO.N,Net-(Q4-Pad1)*%
X58418800Y-103424200D03*
%TO.P,Q4,2*%
%TO.N,Net-(J11-Pad13)*%
X58418800Y-101524200D03*
%TO.P,Q4,3*%
%TO.N,Net-(J11-Pad15)*%
X56418800Y-102474200D03*
%TD*%
%TO.P,Q5,1*%
%TO.N,Net-(Q5-Pad1)*%
X58434800Y-93711200D03*
%TO.P,Q5,2*%
%TO.N,Net-(J11-Pad11)*%
X58434800Y-91811200D03*
%TO.P,Q5,3*%
%TO.N,Net-(J11-Pad15)*%
X56434800Y-92761200D03*
%TD*%
%TO.P,R8,1*%
%TO.N,Net-(J11-Pad1)*%
%TA.AperFunction,SMDPad,CuDef*%
G36*
G01*
X63752300Y-108192200D02*
X63277300Y-108192200D01*
G75*
G02*
X63039800Y-107954700I0J237500D01*
G01*
X63039800Y-107454700D01*
G75*
G02*
X63277300Y-107217200I237500J0D01*
G01*
X63752300Y-107217200D01*
G75*
G02*
X63989800Y-107454700I0J-237500D01*
G01*
X63989800Y-107954700D01*
G75*
G02*
X63752300Y-108192200I-237500J0D01*
G01*
G37*
%TD.AperFunction*%
%TO.P,R8,2*%
%TO.N,Net-(Q2-Pad1)*%
%TA.AperFunction,SMDPad,CuDef*%
G36*
G01*
X63752300Y-106367200D02*
X63277300Y-106367200D01*
G75*
G02*
X63039800Y-106129700I0J237500D01*
G01*
X63039800Y-105629700D01*
G75*
G02*
X63277300Y-105392200I237500J0D01*
G01*
X63752300Y-105392200D01*
G75*
G02*
X63989800Y-105629700I0J-237500D01*
G01*
X63989800Y-106129700D01*
G75*
G02*
X63752300Y-106367200I-237500J0D01*
G01*
G37*
%TD.AperFunction*%
%TD*%
%TO.P,R9,2*%
%TO.N,Net-(J11-Pad15)*%
%TA.AperFunction,SMDPad,CuDef*%
G36*
G01*
X60831300Y-106240200D02*
X60356300Y-106240200D01*
G75*
G02*
X60118800Y-106002700I0J237500D01*
G01*
X60118800Y-105502700D01*
G75*
G02*
X60356300Y-105265200I237500J0D01*
G01*
X60831300Y-105265200D01*
G75*
G02*
X61068800Y-105502700I0J-237500D01*
G01*
X61068800Y-106002700D01*
G75*
G02*
X60831300Y-106240200I-237500J0D01*
G01*
G37*
%TD.AperFunction*%
%TO.P,R9,1*%
%TO.N,Net-(Q2-Pad1)*%
%TA.AperFunction,SMDPad,CuDef*%
G36*
G01*
X60831300Y-108065200D02*
X60356300Y-108065200D01*
G75*
G02*
X60118800Y-107827700I0J237500D01*
G01*
X60118800Y-107327700D01*
G75*
G02*
X60356300Y-107090200I237500J0D01*
G01*
X60831300Y-107090200D01*
G75*
G02*
X61068800Y-107327700I0J-237500D01*
G01*
X61068800Y-107827700D01*
G75*
G02*
X60831300Y-108065200I-237500J0D01*
G01*
G37*
%TD.AperFunction*%
%TD*%
%TO.P,R10,1*%
%TO.N,Net-(J11-Pad8)*%
%TA.AperFunction,SMDPad,CuDef*%
G36*
G01*
X63625300Y-99937200D02*
X63150300Y-99937200D01*
G75*
G02*
X62912800Y-99699700I0J237500D01*
G01*
X62912800Y-99199700D01*
G75*
G02*
X63150300Y-98962200I237500J0D01*
G01*
X63625300Y-98962200D01*
G75*
G02*
X63862800Y-99199700I0J-237500D01*
G01*
X63862800Y-99699700D01*
G75*
G02*
X63625300Y-99937200I-237500J0D01*
G01*
G37*
%TD.AperFunction*%
%TO.P,R10,2*%
%TO.N,Net-(Q3-Pad1)*%
%TA.AperFunction,SMDPad,CuDef*%
G36*
G01*
X63625300Y-98112200D02*
X63150300Y-98112200D01*
G75*
G02*
X62912800Y-97874700I0J237500D01*
G01*
X62912800Y-97374700D01*
G75*
G02*
X63150300Y-97137200I237500J0D01*
G01*
X63625300Y-97137200D01*
G75*
G02*
X63862800Y-97374700I0J-237500D01*
G01*
X63862800Y-97874700D01*
G75*
G02*
X63625300Y-98112200I-237500J0D01*
G01*
G37*
%TD.AperFunction*%
%TD*%
%TO.P,R17,2*%
%TO.N,Net-(J11-Pad15)*%
%TA.AperFunction,SMDPad,CuDef*%
G36*
G01*
X60831300Y-96715200D02*
X60356300Y-96715200D01*
G75*
G02*
X60118800Y-96477700I0J237500D01*
G01*
X60118800Y-95977700D01*
G75*
G02*
X60356300Y-95740200I237500J0D01*
G01*
X60831300Y-95740200D01*
G75*
G02*
X61068800Y-95977700I0J-237500D01*
G01*
X61068800Y-96477700D01*
G75*
G02*
X60831300Y-96715200I-237500J0D01*
G01*
G37*
%TD.AperFunction*%
%TO.P,R17,1*%
%TO.N,Net-(Q3-Pad1)*%
%TA.AperFunction,SMDPad,CuDef*%
G36*
G01*
X60831300Y-98540200D02*
X60356300Y-98540200D01*
G75*
G02*
X60118800Y-98302700I0J237500D01*
G01*
X60118800Y-97802700D01*
G75*
G02*
X60356300Y-97565200I237500J0D01*
G01*
X60831300Y-97565200D01*
G75*
G02*
X61068800Y-97802700I0J-237500D01*
G01*
X61068800Y-98302700D01*
G75*
G02*
X60831300Y-98540200I-237500J0D01*
G01*
G37*
%TD.AperFunction*%
%TD*%
%TO.P,R18,1*%
%TO.N,Net-(J11-Pad7)*%
%TA.AperFunction,SMDPad,CuDef*%
G36*
G01*
X63625300Y-104509200D02*
X63150300Y-104509200D01*
G75*
G02*
X62912800Y-104271700I0J237500D01*
G01*
X62912800Y-103771700D01*
G75*
G02*
X63150300Y-103534200I237500J0D01*
G01*
X63625300Y-103534200D01*
G75*
G02*
X63862800Y-103771700I0J-237500D01*
G01*
X63862800Y-104271700D01*
G75*
G02*
X63625300Y-104509200I-237500J0D01*
G01*
G37*
%TD.AperFunction*%
%TO.P,R18,2*%
%TO.N,Net-(Q4-Pad1)*%
%TA.AperFunction,SMDPad,CuDef*%
G36*
G01*
X63625300Y-102684200D02*
X63150300Y-102684200D01*
G75*
G02*
X62912800Y-102446700I0J237500D01*
G01*
X62912800Y-101946700D01*
G75*
G02*
X63150300Y-101709200I237500J0D01*
G01*
X63625300Y-101709200D01*
G75*
G02*
X63862800Y-101946700I0J-237500D01*
G01*
X63862800Y-102446700D01*
G75*
G02*
X63625300Y-102684200I-237500J0D01*
G01*
G37*
%TD.AperFunction*%
%TD*%
%TO.P,R19,2*%
%TO.N,Net-(J11-Pad15)*%
%TA.AperFunction,SMDPad,CuDef*%
G36*
G01*
X60831300Y-101541200D02*
X60356300Y-101541200D01*
G75*
G02*
X60118800Y-101303700I0J237500D01*
G01*
X60118800Y-100803700D01*
G75*
G02*
X60356300Y-100566200I237500J0D01*
G01*
X60831300Y-100566200D01*
G75*
G02*
X61068800Y-100803700I0J-237500D01*
G01*
X61068800Y-101303700D01*
G75*
G02*
X60831300Y-101541200I-237500J0D01*
G01*
G37*
%TD.AperFunction*%
%TO.P,R19,1*%
%TO.N,Net-(Q4-Pad1)*%
%TA.AperFunction,SMDPad,CuDef*%
G36*
G01*
X60831300Y-103366200D02*
X60356300Y-103366200D01*
G75*
G02*
X60118800Y-103128700I0J237500D01*
G01*
X60118800Y-102628700D01*
G75*
G02*
X60356300Y-102391200I237500J0D01*
G01*
X60831300Y-102391200D01*
G75*
G02*
X61068800Y-102628700I0J-237500D01*
G01*
X61068800Y-103128700D01*
G75*
G02*
X60831300Y-103366200I-237500J0D01*
G01*
G37*
%TD.AperFunction*%
%TD*%
%TO.P,R20,1*%
%TO.N,Net-(J11-Pad4)*%
%TA.AperFunction,SMDPad,CuDef*%
G36*
G01*
X63625300Y-95492200D02*
X63150300Y-95492200D01*
G75*
G02*
X62912800Y-95254700I0J237500D01*
G01*
X62912800Y-94754700D01*
G75*
G02*
X63150300Y-94517200I237500J0D01*
G01*
X63625300Y-94517200D01*
G75*
G02*
X63862800Y-94754700I0J-237500D01*
G01*
X63862800Y-95254700D01*
G75*
G02*
X63625300Y-95492200I-237500J0D01*
G01*
G37*
%TD.AperFunction*%
%TO.P,R20,2*%
%TO.N,Net-(Q5-Pad1)*%
%TA.AperFunction,SMDPad,CuDef*%
G36*
G01*
X63625300Y-93667200D02*
X63150300Y-93667200D01*
G75*
G02*
X62912800Y-93429700I0J237500D01*
G01*
X62912800Y-92929700D01*
G75*
G02*
X63150300Y-92692200I237500J0D01*
G01*
X63625300Y-92692200D01*
G75*
G02*
X63862800Y-92929700I0J-237500D01*
G01*
X63862800Y-93429700D01*
G75*
G02*
X63625300Y-93667200I-237500J0D01*
G01*
G37*
%TD.AperFunction*%
%TD*%
%TO.P,R21,2*%
%TO.N,Net-(J11-Pad15)*%
%TA.AperFunction,SMDPad,CuDef*%
G36*
G01*
X60831300Y-92270200D02*
X60356300Y-92270200D01*
G75*
G02*
X60118800Y-92032700I0J237500D01*
G01*
X60118800Y-91532700D01*
G75*
G02*
X60356300Y-91295200I237500J0D01*
G01*
X60831300Y-91295200D01*
G75*
G02*
X61068800Y-91532700I0J-237500D01*
G01*
X61068800Y-92032700D01*
G75*
G02*
X60831300Y-92270200I-237500J0D01*
G01*
G37*
%TD.AperFunction*%
%TO.P,R21,1*%
%TO.N,Net-(Q5-Pad1)*%
%TA.AperFunction,SMDPad,CuDef*%
G36*
G01*
X60831300Y-94095200D02*
X60356300Y-94095200D01*
G75*
G02*
X60118800Y-93857700I0J237500D01*
G01*
X60118800Y-93357700D01*
G75*
G02*
X60356300Y-93120200I237500J0D01*
G01*
X60831300Y-93120200D01*
G75*
G02*
X61068800Y-93357700I0J-237500D01*
G01*
X61068800Y-93857700D01*
G75*
G02*
X60831300Y-94095200I-237500J0D01*
G01*
G37*
%TD.AperFunction*%
%TD*%
D14*
%TO.P,J6,1*%
%TO.N,Net-(J5-Pad2)*%
X81400000Y-66100000D03*
D12*
%TO.P,J6,3*%
X83432000Y-66100000D03*
%TO.P,J6,5*%
X85464000Y-66100000D03*
%TO.P,J6,7*%
X87496000Y-66100000D03*
%TO.P,J6,2*%
%TO.N,Net-(J5-Pad3)*%
X82416000Y-67880000D03*
%TO.P,J6,4*%
%TO.N,Net-(J5-Pad5)*%
X84448000Y-67880000D03*
%TO.P,J6,6*%
%TO.N,Net-(J5-Pad7)*%
X86480000Y-67880000D03*
%TO.P,J6,8*%
%TO.N,Net-(J5-Pad9)*%
X88512000Y-67880000D03*
D13*
%TO.P,J6,SH*%
%TO.N,Net-(J5-Pad1)*%
X93090000Y-66990000D03*
X76830000Y-66990000D03*
D12*
%TO.P,J6,9*%
%TO.N,Net-(J5-Pad3)*%
X78100000Y-72700000D03*
%TO.P,J6,10*%
%TO.N,Net-(J6-Pad10)*%
X80390000Y-72700000D03*
%TO.P,J6,11*%
%TO.N,Net-(J5-Pad2)*%
X89530000Y-72700000D03*
%TO.P,J6,12*%
%TO.N,Net-(J6-Pad12)*%
X91820000Y-72700000D03*
%TD*%
D20*
%TO.N,Net-(J3-Pad4)*%
X59550800Y-68380200D03*
X111200800Y-68380200D03*
X162850800Y-68380200D03*
D21*
%TO.N,Net-(J3-Pad8)*%
X60566800Y-66602200D03*
X112216800Y-66602200D03*
X163866800Y-66602200D03*
%TO.N,Net-(J3-Pad16)*%
X54978800Y-77397200D03*
X55359800Y-59871200D03*
X107009800Y-59871200D03*
X158659800Y-59871200D03*
X106628800Y-77397200D03*
X158278800Y-77397200D03*
D22*
%TO.N,Net-(J11-Pad15)*%
X56275800Y-101204200D03*
X56275800Y-106157200D03*
X56275800Y-98791200D03*
X56348800Y-93965200D03*
X56275800Y-132204200D03*
X56275800Y-137157200D03*
X56275800Y-129791200D03*
X56348800Y-124965200D03*
X107925800Y-101204200D03*
X159575800Y-101204200D03*
X107925800Y-106157200D03*
X159575800Y-106157200D03*
X107925800Y-98791200D03*
X159575800Y-98791200D03*
X107998800Y-93965200D03*
X159648800Y-93965200D03*
X107998800Y-124965200D03*
X159648800Y-124965200D03*
X107925800Y-137157200D03*
X159575800Y-137157200D03*
X107925800Y-132204200D03*
X159575800Y-132204200D03*
X107925800Y-129791200D03*
X159575800Y-129791200D03*
D21*
%TO.N,Net-(J11-Pad7)*%
X61863800Y-104760200D03*
X61863800Y-135760200D03*
X113513800Y-104760200D03*
X165163800Y-104760200D03*
X113513800Y-135760200D03*
X165163800Y-135760200D03*
%TO.N,Net-(J11-Pad8)*%
X63387800Y-100823200D03*
X64530800Y-95616200D03*
X63387800Y-131823200D03*
X64530800Y-126616200D03*
X115037800Y-100823200D03*
X166687800Y-100823200D03*
X116180800Y-95616200D03*
X167830800Y-95616200D03*
X115037800Y-131823200D03*
X166687800Y-131823200D03*
X116180800Y-126616200D03*
X167830800Y-126616200D03*
%TD*%
D23*
%TO.N,Net-(J3-Pad1)*%
X62252800Y-68380200D02*
X62252800Y-71393200D01*
D24*
X66027800Y-78667200D02*
X65900800Y-78667200D01*
D23*
X65900800Y-78667200D02*
X63360800Y-76127200D01*
X63360800Y-72501200D02*
X62252800Y-71393200D01*
X63360800Y-76127200D02*
X63360800Y-72501200D01*
X113902800Y-68380200D02*
X113902800Y-71393200D01*
X165552800Y-68380200D02*
X165552800Y-71393200D01*
D24*
X117677800Y-78667200D02*
X117550800Y-78667200D01*
X169327800Y-78667200D02*
X169200800Y-78667200D01*
D23*
X115010800Y-76127200D02*
X115010800Y-72501200D01*
X166660800Y-76127200D02*
X166660800Y-72501200D01*
X117550800Y-78667200D02*
X115010800Y-76127200D01*
X169200800Y-78667200D02*
X166660800Y-76127200D01*
X115010800Y-72501200D02*
X113902800Y-71393200D01*
X166660800Y-72501200D02*
X165552800Y-71393200D01*
D24*
%TO.N,Net-(J3-Pad4)*%
X62252800Y-64570200D02*
X61328800Y-64570200D01*
D23*
X62252800Y-64570200D02*
X59804800Y-64570200D01*
X59804800Y-64570200D02*
X59550800Y-64824200D01*
X59550800Y-64824200D02*
X59550800Y-68380200D01*
D24*
X113902800Y-64570200D02*
X112978800Y-64570200D01*
X165552800Y-64570200D02*
X164628800Y-64570200D01*
D23*
X111200800Y-64824200D02*
X111200800Y-68380200D01*
X162850800Y-64824200D02*
X162850800Y-68380200D01*
X111454800Y-64570200D02*
X111200800Y-64824200D01*
X163104800Y-64570200D02*
X162850800Y-64824200D01*
X113902800Y-64570200D02*
X111454800Y-64570200D01*
X165552800Y-64570200D02*
X163104800Y-64570200D01*
%TO.N,Net-(J3-Pad7)*%
X62252800Y-67110200D02*
X63360800Y-67110200D01*
X63360800Y-67110200D02*
X63995800Y-66475200D01*
X63995800Y-66475200D02*
X63995800Y-64443200D01*
X65018799Y-63420201D02*
X66027800Y-63420201D01*
X63995800Y-64443200D02*
X65018799Y-63420201D01*
X115645800Y-64443200D02*
X116668799Y-63420201D01*
X167295800Y-64443200D02*
X168318799Y-63420201D01*
X115645800Y-66475200D02*
X115645800Y-64443200D01*
X167295800Y-66475200D02*
X167295800Y-64443200D01*
X115010800Y-67110200D02*
X115645800Y-66475200D01*
X166660800Y-67110200D02*
X167295800Y-66475200D01*
X116668799Y-63420201D02*
X117677800Y-63420201D01*
X168318799Y-63420201D02*
X169327800Y-63420201D01*
X113902800Y-67110200D02*
X115010800Y-67110200D01*
X165552800Y-67110200D02*
X166660800Y-67110200D01*
%TO.N,Net-(J3-Pad8)*%
X61328800Y-65840200D02*
X60566800Y-66602200D01*
X62252800Y-65840200D02*
X61328800Y-65840200D01*
X113902800Y-65840200D02*
X112978800Y-65840200D01*
X165552800Y-65840200D02*
X164628800Y-65840200D01*
X112978800Y-65840200D02*
X112216800Y-66602200D01*
X164628800Y-65840200D02*
X163866800Y-66602200D01*
%TO.N,Net-(J3-Pad11)*%
X53327800Y-65967200D02*
X53962800Y-65967200D01*
X55359800Y-64570200D02*
X57102800Y-64570200D01*
X53962800Y-65967200D02*
X55359800Y-64570200D01*
X107009800Y-64570200D02*
X108752800Y-64570200D01*
X158659800Y-64570200D02*
X160402800Y-64570200D01*
X105612800Y-65967200D02*
X107009800Y-64570200D01*
X157262800Y-65967200D02*
X158659800Y-64570200D01*
X104977800Y-65967200D02*
X105612800Y-65967200D01*
X156627800Y-65967200D02*
X157262800Y-65967200D01*
%TO.N,Net-(J3-Pad12)*%
X55755523Y-65840200D02*
X57102800Y-65840200D01*
X53327800Y-68267923D02*
X55755523Y-65840200D01*
X53327800Y-68500201D02*
X53327800Y-68267923D01*
X107405523Y-65840200D02*
X108752800Y-65840200D01*
X159055523Y-65840200D02*
X160402800Y-65840200D01*
X104977800Y-68500201D02*
X104977800Y-68267923D01*
X156627800Y-68500201D02*
X156627800Y-68267923D01*
X104977800Y-68267923D02*
X107405523Y-65840200D01*
X156627800Y-68267923D02*
X159055523Y-65840200D01*
%TO.N,Net-(J3-Pad13)*%
X53327800Y-71040201D02*
X53588799Y-71040201D01*
X53588799Y-71040201D02*
X55105800Y-69523200D01*
X55105800Y-69523200D02*
X55105800Y-67491200D01*
X55486800Y-67110200D02*
X57102800Y-67110200D01*
X55105800Y-67491200D02*
X55486800Y-67110200D01*
X106755800Y-67491200D02*
X107136800Y-67110200D01*
X158405800Y-67491200D02*
X158786800Y-67110200D01*
X106755800Y-69523200D02*
X106755800Y-67491200D01*
X158405800Y-69523200D02*
X158405800Y-67491200D01*
X104977800Y-71040201D02*
X105238799Y-71040201D01*
X156627800Y-71040201D02*
X156888799Y-71040201D01*
X105238799Y-71040201D02*
X106755800Y-69523200D01*
X156888799Y-71040201D02*
X158405800Y-69523200D01*
X107136800Y-67110200D02*
X108752800Y-67110200D01*
X158786800Y-67110200D02*
X160402800Y-67110200D01*
%TO.N,Net-(J3-Pad14)*%
X53327800Y-73580201D02*
X53334799Y-73580201D01*
X53334799Y-73580201D02*
X55105800Y-71809200D01*
X57102800Y-68527476D02*
X57102800Y-68380200D01*
X55105800Y-70524476D02*
X57102800Y-68527476D01*
X55105800Y-71809200D02*
X55105800Y-70524476D01*
X104984799Y-73580201D02*
X106755800Y-71809200D01*
X156634799Y-73580201D02*
X158405800Y-71809200D01*
X106755800Y-71809200D02*
X106755800Y-70524476D01*
X158405800Y-71809200D02*
X158405800Y-70524476D01*
X106755800Y-70524476D02*
X108752800Y-68527476D01*
X158405800Y-70524476D02*
X160402800Y-68527476D01*
X104977800Y-73580201D02*
X104984799Y-73580201D01*
X156627800Y-73580201D02*
X156634799Y-73580201D01*
X108752800Y-68527476D02*
X108752800Y-68380200D01*
X160402800Y-68527476D02*
X160402800Y-68380200D01*
%TO.N,Net-(J3-Pad15)*%
X62252800Y-59490200D02*
X61074800Y-59490200D01*
D24*
X60185800Y-60760200D02*
X59995300Y-60569700D01*
X62252800Y-60760200D02*
X60185800Y-60760200D01*
D23*
X59995300Y-60569700D02*
X58915800Y-61649200D01*
X61074800Y-59490200D02*
X59995300Y-60569700D01*
D24*
X59042800Y-62030200D02*
X58915800Y-62157200D01*
X62252800Y-62030200D02*
X59042800Y-62030200D01*
D23*
X58915800Y-61649200D02*
X58915800Y-62157200D01*
X58915800Y-62157200D02*
X58915800Y-63300200D01*
D24*
X60058800Y-63300200D02*
X58915800Y-63300200D01*
X62252800Y-63300200D02*
X60058800Y-63300200D01*
D23*
X58915800Y-63300200D02*
X58915800Y-64062200D01*
X58915800Y-64062200D02*
X58661800Y-64316200D01*
X58661800Y-64316200D02*
X58661800Y-75365200D01*
X57899800Y-76127200D02*
X58661800Y-75365200D01*
X53327800Y-76127200D02*
X57899800Y-76127200D01*
X111645300Y-60569700D02*
X110565800Y-61649200D01*
X163295300Y-60569700D02*
X162215800Y-61649200D01*
X112724800Y-59490200D02*
X111645300Y-60569700D01*
X164374800Y-59490200D02*
X163295300Y-60569700D01*
D24*
X111835800Y-60760200D02*
X111645300Y-60569700D01*
X163485800Y-60760200D02*
X163295300Y-60569700D01*
X110692800Y-62030200D02*
X110565800Y-62157200D01*
X162342800Y-62030200D02*
X162215800Y-62157200D01*
D23*
X113902800Y-59490200D02*
X112724800Y-59490200D01*
X165552800Y-59490200D02*
X164374800Y-59490200D01*
D24*
X113902800Y-62030200D02*
X110692800Y-62030200D01*
X165552800Y-62030200D02*
X162342800Y-62030200D01*
D23*
X110565800Y-62157200D02*
X110565800Y-63300200D01*
X162215800Y-62157200D02*
X162215800Y-63300200D01*
D24*
X111708800Y-63300200D02*
X110565800Y-63300200D01*
X163358800Y-63300200D02*
X162215800Y-63300200D01*
X113902800Y-63300200D02*
X111708800Y-63300200D01*
X165552800Y-63300200D02*
X163358800Y-63300200D01*
D23*
X110565800Y-61649200D02*
X110565800Y-62157200D01*
X162215800Y-61649200D02*
X162215800Y-62157200D01*
D24*
X113902800Y-60760200D02*
X111835800Y-60760200D01*
X165552800Y-60760200D02*
X163485800Y-60760200D01*
D23*
X110565800Y-63300200D02*
X110565800Y-64062200D01*
X162215800Y-63300200D02*
X162215800Y-64062200D01*
X104977800Y-76127200D02*
X109549800Y-76127200D01*
X156627800Y-76127200D02*
X161199800Y-76127200D01*
X109549800Y-76127200D02*
X110311800Y-75365200D01*
X161199800Y-76127200D02*
X161961800Y-75365200D01*
X110565800Y-64062200D02*
X110311800Y-64316200D01*
X162215800Y-64062200D02*
X161961800Y-64316200D01*
X110311800Y-64316200D02*
X110311800Y-75365200D01*
X161961800Y-64316200D02*
X161961800Y-75365200D01*
%TO.N,Net-(J3-Pad16)*%
X53327800Y-78660201D02*
X53715799Y-78660201D01*
X53715799Y-78660201D02*
X54978800Y-77397200D01*
X54978800Y-77397200D02*
X54978800Y-77397200D01*
X57102800Y-59490200D02*
X55740800Y-59490200D01*
X55740800Y-59490200D02*
X55359800Y-59871200D01*
X55359800Y-59871200D02*
X55359800Y-59871200D01*
X107390800Y-59490200D02*
X107009800Y-59871200D01*
X159040800Y-59490200D02*
X158659800Y-59871200D01*
X107009800Y-59871200D02*
X107009800Y-59871200D01*
X158659800Y-59871200D02*
X158659800Y-59871200D01*
X104977800Y-78660201D02*
X105365799Y-78660201D01*
X156627800Y-78660201D02*
X157015799Y-78660201D01*
X108752800Y-59490200D02*
X107390800Y-59490200D01*
X160402800Y-59490200D02*
X159040800Y-59490200D01*
X106628800Y-77397200D02*
X106628800Y-77397200D01*
X158278800Y-77397200D02*
X158278800Y-77397200D01*
X105365799Y-78660201D02*
X106628800Y-77397200D01*
X157015799Y-78660201D02*
X158278800Y-77397200D01*
%TO.N,Net-(J5-Pad1)*%
X80256000Y-76712000D02*
X80002000Y-76712000D01*
X75700000Y-68120000D02*
X76830000Y-66990000D01*
X75700000Y-74500000D02*
X75700000Y-68120000D01*
X77812000Y-76612000D02*
X75700000Y-74500000D01*
X80256000Y-76612000D02*
X77812000Y-76612000D01*
X93090000Y-66990000D02*
X93090000Y-66010000D01*
X90416000Y-79152000D02*
X92348000Y-79152000D01*
X92348000Y-79152000D02*
X94200000Y-77300000D01*
X94200000Y-68100000D02*
X93090000Y-66990000D01*
X94200000Y-77300000D02*
X94200000Y-68100000D01*
X76830000Y-66990000D02*
X76830000Y-66030000D01*
X76830000Y-66030000D02*
X76000000Y-65200000D01*
X76000000Y-65200000D02*
X76000000Y-62100000D01*
X76000000Y-62100000D02*
X77100000Y-61000000D01*
X77100000Y-61000000D02*
X93000000Y-61000000D01*
X93000000Y-61000000D02*
X94100000Y-62100000D01*
X94100000Y-65980000D02*
X93090000Y-66990000D01*
X94100000Y-62100000D02*
X94100000Y-65980000D01*
X131856000Y-76712000D02*
X131602000Y-76712000D01*
X183456000Y-76712000D02*
X183202000Y-76712000D01*
X80256000Y-107712000D02*
X80002000Y-107712000D01*
X131856000Y-107712000D02*
X131602000Y-107712000D01*
X183456000Y-107712000D02*
X183202000Y-107712000D01*
X80256000Y-138712000D02*
X80002000Y-138712000D01*
X131856000Y-138712000D02*
X131602000Y-138712000D01*
X183456000Y-138712000D02*
X183202000Y-138712000D01*
X127300000Y-68120000D02*
X128430000Y-66990000D01*
X178900000Y-68120000D02*
X180030000Y-66990000D01*
X75700000Y-99120000D02*
X76830000Y-97990000D01*
X127300000Y-99120000D02*
X128430000Y-97990000D01*
X178900000Y-99120000D02*
X180030000Y-97990000D01*
X75700000Y-130120000D02*
X76830000Y-128990000D01*
X127300000Y-130120000D02*
X128430000Y-128990000D01*
X178900000Y-130120000D02*
X180030000Y-128990000D01*
X127300000Y-74500000D02*
X127300000Y-68120000D01*
X178900000Y-74500000D02*
X178900000Y-68120000D01*
X75700000Y-105500000D02*
X75700000Y-99120000D01*
X127300000Y-105500000D02*
X127300000Y-99120000D01*
X178900000Y-105500000D02*
X178900000Y-99120000D01*
X75700000Y-136500000D02*
X75700000Y-130120000D01*
X127300000Y-136500000D02*
X127300000Y-130120000D01*
X178900000Y-136500000D02*
X178900000Y-130120000D01*
X129412000Y-76612000D02*
X127300000Y-74500000D01*
X181012000Y-76612000D02*
X178900000Y-74500000D01*
X77812000Y-107612000D02*
X75700000Y-105500000D01*
X129412000Y-107612000D02*
X127300000Y-105500000D01*
X181012000Y-107612000D02*
X178900000Y-105500000D01*
X77812000Y-138612000D02*
X75700000Y-136500000D01*
X129412000Y-138612000D02*
X127300000Y-136500000D01*
X181012000Y-138612000D02*
X178900000Y-136500000D01*
X131856000Y-76612000D02*
X129412000Y-76612000D01*
X183456000Y-76612000D02*
X181012000Y-76612000D01*
X80256000Y-107612000D02*
X77812000Y-107612000D01*
X131856000Y-107612000D02*
X129412000Y-107612000D01*
X183456000Y-107612000D02*
X181012000Y-107612000D01*
X80256000Y-138612000D02*
X77812000Y-138612000D01*
X131856000Y-138612000D02*
X129412000Y-138612000D01*
X183456000Y-138612000D02*
X181012000Y-138612000D01*
X145800000Y-77300000D02*
X145800000Y-68100000D01*
X197400000Y-77300000D02*
X197400000Y-68100000D01*
X94200000Y-108300000D02*
X94200000Y-99100000D01*
X145800000Y-108300000D02*
X145800000Y-99100000D01*
X197400000Y-108300000D02*
X197400000Y-99100000D01*
X94200000Y-139300000D02*
X94200000Y-130100000D01*
X145800000Y-139300000D02*
X145800000Y-130100000D01*
X197400000Y-139300000D02*
X197400000Y-130100000D01*
X127600000Y-62100000D02*
X128700000Y-61000000D01*
X179200000Y-62100000D02*
X180300000Y-61000000D01*
X76000000Y-93100000D02*
X77100000Y-92000000D01*
X127600000Y-93100000D02*
X128700000Y-92000000D01*
X179200000Y-93100000D02*
X180300000Y-92000000D01*
X76000000Y-124100000D02*
X77100000Y-123000000D01*
X127600000Y-124100000D02*
X128700000Y-123000000D01*
X179200000Y-124100000D02*
X180300000Y-123000000D01*
X143948000Y-79152000D02*
X145800000Y-77300000D01*
X195548000Y-79152000D02*
X197400000Y-77300000D01*
X92348000Y-110152000D02*
X94200000Y-108300000D01*
X143948000Y-110152000D02*
X145800000Y-108300000D01*
X195548000Y-110152000D02*
X197400000Y-108300000D01*
X92348000Y-141152000D02*
X94200000Y-139300000D01*
X143948000Y-141152000D02*
X145800000Y-139300000D01*
X195548000Y-141152000D02*
X197400000Y-139300000D01*
X128700000Y-61000000D02*
X144600000Y-61000000D01*
X180300000Y-61000000D02*
X196200000Y-61000000D01*
X77100000Y-92000000D02*
X93000000Y-92000000D01*
X128700000Y-92000000D02*
X144600000Y-92000000D01*
X180300000Y-92000000D02*
X196200000Y-92000000D01*
X77100000Y-123000000D02*
X93000000Y-123000000D01*
X128700000Y-123000000D02*
X144600000Y-123000000D01*
X180300000Y-123000000D02*
X196200000Y-123000000D01*
X128430000Y-66030000D02*
X127600000Y-65200000D01*
X180030000Y-66030000D02*
X179200000Y-65200000D01*
X76830000Y-97030000D02*
X76000000Y-96200000D01*
X128430000Y-97030000D02*
X127600000Y-96200000D01*
X180030000Y-97030000D02*
X179200000Y-96200000D01*
X76830000Y-128030000D02*
X76000000Y-127200000D01*
X128430000Y-128030000D02*
X127600000Y-127200000D01*
X180030000Y-128030000D02*
X179200000Y-127200000D01*
X144690000Y-66990000D02*
X144690000Y-66010000D01*
X196290000Y-66990000D02*
X196290000Y-66010000D01*
X93090000Y-97990000D02*
X93090000Y-97010000D01*
X144690000Y-97990000D02*
X144690000Y-97010000D01*
X196290000Y-97990000D02*
X196290000Y-97010000D01*
X93090000Y-128990000D02*
X93090000Y-128010000D01*
X144690000Y-128990000D02*
X144690000Y-128010000D01*
X196290000Y-128990000D02*
X196290000Y-128010000D01*
X142016000Y-79152000D02*
X143948000Y-79152000D01*
X193616000Y-79152000D02*
X195548000Y-79152000D01*
X90416000Y-110152000D02*
X92348000Y-110152000D01*
X142016000Y-110152000D02*
X143948000Y-110152000D01*
X193616000Y-110152000D02*
X195548000Y-110152000D01*
X90416000Y-141152000D02*
X92348000Y-141152000D01*
X142016000Y-141152000D02*
X143948000Y-141152000D01*
X193616000Y-141152000D02*
X195548000Y-141152000D01*
X145700000Y-62100000D02*
X145700000Y-65980000D01*
X197300000Y-62100000D02*
X197300000Y-65980000D01*
X94100000Y-93100000D02*
X94100000Y-96980000D01*
X145700000Y-93100000D02*
X145700000Y-96980000D01*
X197300000Y-93100000D02*
X197300000Y-96980000D01*
X94100000Y-124100000D02*
X94100000Y-127980000D01*
X145700000Y-124100000D02*
X145700000Y-127980000D01*
X197300000Y-124100000D02*
X197300000Y-127980000D01*
X145800000Y-68100000D02*
X144690000Y-66990000D01*
X197400000Y-68100000D02*
X196290000Y-66990000D01*
X94200000Y-99100000D02*
X93090000Y-97990000D01*
X145800000Y-99100000D02*
X144690000Y-97990000D01*
X197400000Y-99100000D02*
X196290000Y-97990000D01*
X94200000Y-130100000D02*
X93090000Y-128990000D01*
X145800000Y-130100000D02*
X144690000Y-128990000D01*
X197400000Y-130100000D02*
X196290000Y-128990000D01*
X127600000Y-65200000D02*
X127600000Y-62100000D01*
X179200000Y-65200000D02*
X179200000Y-62100000D01*
X76000000Y-96200000D02*
X76000000Y-93100000D01*
X127600000Y-96200000D02*
X127600000Y-93100000D01*
X179200000Y-96200000D02*
X179200000Y-93100000D01*
X76000000Y-127200000D02*
X76000000Y-124100000D01*
X127600000Y-127200000D02*
X127600000Y-124100000D01*
X179200000Y-127200000D02*
X179200000Y-124100000D01*
X128430000Y-66990000D02*
X128430000Y-66030000D01*
X180030000Y-66990000D02*
X180030000Y-66030000D01*
X76830000Y-97990000D02*
X76830000Y-97030000D01*
X128430000Y-97990000D02*
X128430000Y-97030000D01*
X180030000Y-97990000D02*
X180030000Y-97030000D01*
X76830000Y-128990000D02*
X76830000Y-128030000D01*
X128430000Y-128990000D02*
X128430000Y-128030000D01*
X180030000Y-128990000D02*
X180030000Y-128030000D01*
X144600000Y-61000000D02*
X145700000Y-62100000D01*
X196200000Y-61000000D02*
X197300000Y-62100000D01*
X93000000Y-92000000D02*
X94100000Y-93100000D01*
X144600000Y-92000000D02*
X145700000Y-93100000D01*
X196200000Y-92000000D02*
X197300000Y-93100000D01*
X93000000Y-123000000D02*
X94100000Y-124100000D01*
X144600000Y-123000000D02*
X145700000Y-124100000D01*
X196200000Y-123000000D02*
X197300000Y-124100000D01*
X145700000Y-65980000D02*
X144690000Y-66990000D01*
X197300000Y-65980000D02*
X196290000Y-66990000D01*
X94100000Y-96980000D02*
X93090000Y-97990000D01*
X145700000Y-96980000D02*
X144690000Y-97990000D01*
X197300000Y-96980000D02*
X196290000Y-97990000D01*
X94100000Y-127980000D02*
X93090000Y-128990000D01*
X145700000Y-127980000D02*
X144690000Y-128990000D01*
X197300000Y-127980000D02*
X196290000Y-128990000D01*
%TO.N,Net-(J5-Pad3)*%
X82415000Y-69797000D02*
X82415000Y-67894000D01*
X82796000Y-70178000D02*
X82415000Y-69797000D01*
X78100000Y-72700000D02*
X78100000Y-73500000D01*
X79104000Y-74504000D02*
X82796000Y-74504000D01*
X78100000Y-73500000D02*
X79104000Y-74504000D01*
X82796000Y-74504000D02*
X82796000Y-70178000D01*
X82796000Y-76612000D02*
X82796000Y-74504000D01*
X129700000Y-72700000D02*
X129700000Y-73500000D01*
X181300000Y-72700000D02*
X181300000Y-73500000D01*
X78100000Y-103700000D02*
X78100000Y-104500000D01*
X129700000Y-103700000D02*
X129700000Y-104500000D01*
X181300000Y-103700000D02*
X181300000Y-104500000D01*
X78100000Y-134700000D02*
X78100000Y-135500000D01*
X129700000Y-134700000D02*
X129700000Y-135500000D01*
X181300000Y-134700000D02*
X181300000Y-135500000D01*
X130704000Y-74504000D02*
X134396000Y-74504000D01*
X182304000Y-74504000D02*
X185996000Y-74504000D01*
X79104000Y-105504000D02*
X82796000Y-105504000D01*
X130704000Y-105504000D02*
X134396000Y-105504000D01*
X182304000Y-105504000D02*
X185996000Y-105504000D01*
X79104000Y-136504000D02*
X82796000Y-136504000D01*
X130704000Y-136504000D02*
X134396000Y-136504000D01*
X182304000Y-136504000D02*
X185996000Y-136504000D01*
X129700000Y-73500000D02*
X130704000Y-74504000D01*
X181300000Y-73500000D02*
X182304000Y-74504000D01*
X78100000Y-104500000D02*
X79104000Y-105504000D01*
X129700000Y-104500000D02*
X130704000Y-105504000D01*
X181300000Y-104500000D02*
X182304000Y-105504000D01*
X78100000Y-135500000D02*
X79104000Y-136504000D01*
X129700000Y-135500000D02*
X130704000Y-136504000D01*
X181300000Y-135500000D02*
X182304000Y-136504000D01*
X134015000Y-69797000D02*
X134015000Y-67894000D01*
X185615000Y-69797000D02*
X185615000Y-67894000D01*
X82415000Y-100797000D02*
X82415000Y-98894000D01*
X134015000Y-100797000D02*
X134015000Y-98894000D01*
X185615000Y-100797000D02*
X185615000Y-98894000D01*
X82415000Y-131797000D02*
X82415000Y-129894000D01*
X134015000Y-131797000D02*
X134015000Y-129894000D01*
X185615000Y-131797000D02*
X185615000Y-129894000D01*
X134396000Y-70178000D02*
X134015000Y-69797000D01*
X185996000Y-70178000D02*
X185615000Y-69797000D01*
X82796000Y-101178000D02*
X82415000Y-100797000D01*
X134396000Y-101178000D02*
X134015000Y-100797000D01*
X185996000Y-101178000D02*
X185615000Y-100797000D01*
X82796000Y-132178000D02*
X82415000Y-131797000D01*
X134396000Y-132178000D02*
X134015000Y-131797000D01*
X185996000Y-132178000D02*
X185615000Y-131797000D01*
X134396000Y-74504000D02*
X134396000Y-70178000D01*
X185996000Y-74504000D02*
X185996000Y-70178000D01*
X82796000Y-105504000D02*
X82796000Y-101178000D01*
X134396000Y-105504000D02*
X134396000Y-101178000D01*
X185996000Y-105504000D02*
X185996000Y-101178000D01*
X82796000Y-136504000D02*
X82796000Y-132178000D01*
X134396000Y-136504000D02*
X134396000Y-132178000D01*
X185996000Y-136504000D02*
X185996000Y-132178000D01*
X134396000Y-76612000D02*
X134396000Y-74504000D01*
X185996000Y-76612000D02*
X185996000Y-74504000D01*
X82796000Y-107612000D02*
X82796000Y-105504000D01*
X134396000Y-107612000D02*
X134396000Y-105504000D01*
X185996000Y-107612000D02*
X185996000Y-105504000D01*
X82796000Y-138612000D02*
X82796000Y-136504000D01*
X134396000Y-138612000D02*
X134396000Y-136504000D01*
X185996000Y-138612000D02*
X185996000Y-136504000D01*
%TO.N,Net-(J5-Pad5)*%
X85336000Y-75512000D02*
X85336000Y-70559000D01*
X84447000Y-69670000D02*
X84447000Y-67894000D01*
X85336000Y-70559000D02*
X84447000Y-69670000D01*
X136936000Y-70559000D02*
X136047000Y-69670000D01*
X188536000Y-70559000D02*
X187647000Y-69670000D01*
X85336000Y-101559000D02*
X84447000Y-100670000D01*
X136936000Y-101559000D02*
X136047000Y-100670000D01*
X188536000Y-101559000D02*
X187647000Y-100670000D01*
X85336000Y-132559000D02*
X84447000Y-131670000D01*
X136936000Y-132559000D02*
X136047000Y-131670000D01*
X188536000Y-132559000D02*
X187647000Y-131670000D01*
X136936000Y-75512000D02*
X136936000Y-70559000D01*
X188536000Y-75512000D02*
X188536000Y-70559000D01*
X85336000Y-106512000D02*
X85336000Y-101559000D01*
X136936000Y-106512000D02*
X136936000Y-101559000D01*
X188536000Y-106512000D02*
X188536000Y-101559000D01*
X85336000Y-137512000D02*
X85336000Y-132559000D01*
X136936000Y-137512000D02*
X136936000Y-132559000D01*
X188536000Y-137512000D02*
X188536000Y-132559000D01*
X136047000Y-69670000D02*
X136047000Y-67894000D01*
X187647000Y-69670000D02*
X187647000Y-67894000D01*
X84447000Y-100670000D02*
X84447000Y-98894000D01*
X136047000Y-100670000D02*
X136047000Y-98894000D01*
X187647000Y-100670000D02*
X187647000Y-98894000D01*
X84447000Y-131670000D02*
X84447000Y-129894000D01*
X136047000Y-131670000D02*
X136047000Y-129894000D01*
X187647000Y-131670000D02*
X187647000Y-129894000D01*
D24*
%TO.N,Net-(J5-Pad7)*%
X86352000Y-68186002D02*
X86501001Y-68037001D01*
X86352000Y-68273000D02*
X86352000Y-68186002D01*
D23*
X86479000Y-69924000D02*
X86479000Y-67894000D01*
X87876000Y-71321000D02*
X86479000Y-69924000D01*
X87876000Y-76612000D02*
X87876000Y-71321000D01*
D24*
X137952000Y-68273000D02*
X137952000Y-68186002D01*
X189552000Y-68273000D02*
X189552000Y-68186002D01*
X86352000Y-99273000D02*
X86352000Y-99186002D01*
X137952000Y-99273000D02*
X137952000Y-99186002D01*
X189552000Y-99273000D02*
X189552000Y-99186002D01*
X86352000Y-130273000D02*
X86352000Y-130186002D01*
X137952000Y-130273000D02*
X137952000Y-130186002D01*
X189552000Y-130273000D02*
X189552000Y-130186002D01*
X137952000Y-68186002D02*
X138101001Y-68037001D01*
X189552000Y-68186002D02*
X189701001Y-68037001D01*
X86352000Y-99186002D02*
X86501001Y-99037001D01*
X137952000Y-99186002D02*
X138101001Y-99037001D01*
X189552000Y-99186002D02*
X189701001Y-99037001D01*
X86352000Y-130186002D02*
X86501001Y-130037001D01*
X137952000Y-130186002D02*
X138101001Y-130037001D01*
X189552000Y-130186002D02*
X189701001Y-130037001D01*
D23*
X138079000Y-69924000D02*
X138079000Y-67894000D01*
X189679000Y-69924000D02*
X189679000Y-67894000D01*
X86479000Y-100924000D02*
X86479000Y-98894000D01*
X138079000Y-100924000D02*
X138079000Y-98894000D01*
X189679000Y-100924000D02*
X189679000Y-98894000D01*
X86479000Y-131924000D02*
X86479000Y-129894000D01*
X138079000Y-131924000D02*
X138079000Y-129894000D01*
X189679000Y-131924000D02*
X189679000Y-129894000D01*
X139476000Y-71321000D02*
X138079000Y-69924000D01*
X191076000Y-71321000D02*
X189679000Y-69924000D01*
X87876000Y-102321000D02*
X86479000Y-100924000D01*
X139476000Y-102321000D02*
X138079000Y-100924000D01*
X191076000Y-102321000D02*
X189679000Y-100924000D01*
X87876000Y-133321000D02*
X86479000Y-131924000D01*
X139476000Y-133321000D02*
X138079000Y-131924000D01*
X191076000Y-133321000D02*
X189679000Y-131924000D01*
X139476000Y-76612000D02*
X139476000Y-71321000D01*
X191076000Y-76612000D02*
X191076000Y-71321000D01*
X87876000Y-107612000D02*
X87876000Y-102321000D01*
X139476000Y-107612000D02*
X139476000Y-102321000D01*
X191076000Y-107612000D02*
X191076000Y-102321000D01*
X87876000Y-138612000D02*
X87876000Y-133321000D01*
X139476000Y-138612000D02*
X139476000Y-133321000D01*
X191076000Y-138612000D02*
X191076000Y-133321000D01*
%TO.N,Net-(J5-Pad9)*%
X88511000Y-69670000D02*
X88511000Y-67894000D01*
X90416000Y-71575000D02*
X88511000Y-69670000D01*
X90416000Y-76612000D02*
X90416000Y-71575000D01*
X142016000Y-71575000D02*
X140111000Y-69670000D01*
X193616000Y-71575000D02*
X191711000Y-69670000D01*
X90416000Y-102575000D02*
X88511000Y-100670000D01*
X142016000Y-102575000D02*
X140111000Y-100670000D01*
X193616000Y-102575000D02*
X191711000Y-100670000D01*
X90416000Y-133575000D02*
X88511000Y-131670000D01*
X142016000Y-133575000D02*
X140111000Y-131670000D01*
X193616000Y-133575000D02*
X191711000Y-131670000D01*
X142016000Y-76612000D02*
X142016000Y-71575000D01*
X193616000Y-76612000D02*
X193616000Y-71575000D01*
X90416000Y-107612000D02*
X90416000Y-102575000D01*
X142016000Y-107612000D02*
X142016000Y-102575000D01*
X193616000Y-107612000D02*
X193616000Y-102575000D01*
X90416000Y-138612000D02*
X90416000Y-133575000D01*
X142016000Y-138612000D02*
X142016000Y-133575000D01*
X193616000Y-138612000D02*
X193616000Y-133575000D01*
X140111000Y-69670000D02*
X140111000Y-67894000D01*
X191711000Y-69670000D02*
X191711000Y-67894000D01*
X88511000Y-100670000D02*
X88511000Y-98894000D01*
X140111000Y-100670000D02*
X140111000Y-98894000D01*
X191711000Y-100670000D02*
X191711000Y-98894000D01*
X88511000Y-131670000D02*
X88511000Y-129894000D01*
X140111000Y-131670000D02*
X140111000Y-129894000D01*
X191711000Y-131670000D02*
X191711000Y-129894000D01*
D25*
%TO.N,Net-(J11-Pad1)*%
X64081300Y-107704700D02*
X65955801Y-109579201D01*
X63514800Y-107704700D02*
X64081300Y-107704700D01*
X64081300Y-138704700D02*
X65955801Y-140579201D01*
X63514800Y-138704700D02*
X64081300Y-138704700D01*
X115731300Y-107704700D02*
X117605801Y-109579201D01*
X167381300Y-107704700D02*
X169255801Y-109579201D01*
X115164800Y-107704700D02*
X115731300Y-107704700D01*
X166814800Y-107704700D02*
X167381300Y-107704700D01*
X115731300Y-138704700D02*
X117605801Y-140579201D01*
X167381300Y-138704700D02*
X169255801Y-140579201D01*
X115164800Y-138704700D02*
X115731300Y-138704700D01*
X166814800Y-138704700D02*
X167381300Y-138704700D01*
D26*
%TO.N,Net-(J11-Pad15)*%
X56418800Y-101347200D02*
X56275800Y-101204200D01*
X56418800Y-102474200D02*
X56418800Y-101347200D01*
X56418800Y-106300200D02*
X56275800Y-106157200D01*
X56418800Y-107300200D02*
X56418800Y-106300200D01*
X56418800Y-98648200D02*
X56275800Y-98791200D01*
X56418800Y-97648200D02*
X56418800Y-98648200D01*
X56434800Y-93879200D02*
X56348800Y-93965200D01*
X56434800Y-92761200D02*
X56434800Y-93879200D01*
D25*
X56434800Y-92761200D02*
X59257800Y-92761200D01*
X59257800Y-92761200D02*
X59577800Y-92441200D01*
X59935300Y-92441200D02*
X60593800Y-91782700D01*
X59577800Y-92441200D02*
X59935300Y-92441200D01*
X59173300Y-97648200D02*
X60593800Y-96227700D01*
X56418800Y-97648200D02*
X59173300Y-97648200D01*
X59173300Y-102474200D02*
X60593800Y-101053700D01*
X56418800Y-102474200D02*
X59173300Y-102474200D01*
X59046300Y-107300200D02*
X60593800Y-105752700D01*
X56418800Y-107300200D02*
X59046300Y-107300200D01*
D26*
X56418800Y-133474200D02*
X56418800Y-132347200D01*
X56418800Y-132347200D02*
X56275800Y-132204200D01*
X56418800Y-137300200D02*
X56275800Y-137157200D01*
X56434800Y-123761200D02*
X56434800Y-124879200D01*
D25*
X59577800Y-123441200D02*
X59935300Y-123441200D01*
X59046300Y-138300200D02*
X60593800Y-136752700D01*
X59173300Y-128648200D02*
X60593800Y-127227700D01*
D26*
X56418800Y-138300200D02*
X56418800Y-137300200D01*
D25*
X59935300Y-123441200D02*
X60593800Y-122782700D01*
X56418800Y-138300200D02*
X59046300Y-138300200D01*
D26*
X56418800Y-129648200D02*
X56275800Y-129791200D01*
X56418800Y-128648200D02*
X56418800Y-129648200D01*
D25*
X59257800Y-123761200D02*
X59577800Y-123441200D01*
X56418800Y-128648200D02*
X59173300Y-128648200D01*
D26*
X56434800Y-124879200D02*
X56348800Y-124965200D01*
D25*
X56434800Y-123761200D02*
X59257800Y-123761200D01*
X59173300Y-133474200D02*
X60593800Y-132053700D01*
X56418800Y-133474200D02*
X59173300Y-133474200D01*
D26*
X108068800Y-102474200D02*
X108068800Y-101347200D01*
X159718800Y-102474200D02*
X159718800Y-101347200D01*
X108068800Y-101347200D02*
X107925800Y-101204200D01*
X159718800Y-101347200D02*
X159575800Y-101204200D01*
X108068800Y-106300200D02*
X107925800Y-106157200D01*
X159718800Y-106300200D02*
X159575800Y-106157200D01*
X108084800Y-92761200D02*
X108084800Y-93879200D01*
X159734800Y-92761200D02*
X159734800Y-93879200D01*
D25*
X111227800Y-92441200D02*
X111585300Y-92441200D01*
X162877800Y-92441200D02*
X163235300Y-92441200D01*
X110696300Y-107300200D02*
X112243800Y-105752700D01*
X162346300Y-107300200D02*
X163893800Y-105752700D01*
X110823300Y-97648200D02*
X112243800Y-96227700D01*
X162473300Y-97648200D02*
X163893800Y-96227700D01*
D26*
X108068800Y-107300200D02*
X108068800Y-106300200D01*
X159718800Y-107300200D02*
X159718800Y-106300200D01*
D25*
X111585300Y-92441200D02*
X112243800Y-91782700D01*
X163235300Y-92441200D02*
X163893800Y-91782700D01*
X108068800Y-107300200D02*
X110696300Y-107300200D01*
X159718800Y-107300200D02*
X162346300Y-107300200D01*
D26*
X108068800Y-98648200D02*
X107925800Y-98791200D01*
X159718800Y-98648200D02*
X159575800Y-98791200D01*
X108068800Y-97648200D02*
X108068800Y-98648200D01*
X159718800Y-97648200D02*
X159718800Y-98648200D01*
D25*
X110907800Y-92761200D02*
X111227800Y-92441200D01*
X162557800Y-92761200D02*
X162877800Y-92441200D01*
X108068800Y-97648200D02*
X110823300Y-97648200D01*
X159718800Y-97648200D02*
X162473300Y-97648200D01*
D26*
X108084800Y-93879200D02*
X107998800Y-93965200D01*
X159734800Y-93879200D02*
X159648800Y-93965200D01*
D25*
X108084800Y-92761200D02*
X110907800Y-92761200D01*
X159734800Y-92761200D02*
X162557800Y-92761200D01*
X110823300Y-102474200D02*
X112243800Y-101053700D01*
X162473300Y-102474200D02*
X163893800Y-101053700D01*
X108068800Y-102474200D02*
X110823300Y-102474200D01*
X159718800Y-102474200D02*
X162473300Y-102474200D01*
X108084800Y-123761200D02*
X110907800Y-123761200D01*
X159734800Y-123761200D02*
X162557800Y-123761200D01*
X110823300Y-133474200D02*
X112243800Y-132053700D01*
X162473300Y-133474200D02*
X163893800Y-132053700D01*
X108068800Y-133474200D02*
X110823300Y-133474200D01*
X159718800Y-133474200D02*
X162473300Y-133474200D01*
D26*
X108068800Y-133474200D02*
X108068800Y-132347200D01*
X159718800Y-133474200D02*
X159718800Y-132347200D01*
D25*
X111227800Y-123441200D02*
X111585300Y-123441200D01*
X162877800Y-123441200D02*
X163235300Y-123441200D01*
X110823300Y-128648200D02*
X112243800Y-127227700D01*
X162473300Y-128648200D02*
X163893800Y-127227700D01*
D26*
X108068800Y-137300200D02*
X107925800Y-137157200D01*
X159718800Y-137300200D02*
X159575800Y-137157200D01*
X108068800Y-138300200D02*
X108068800Y-137300200D01*
X159718800Y-138300200D02*
X159718800Y-137300200D01*
X108068800Y-132347200D02*
X107925800Y-132204200D01*
X159718800Y-132347200D02*
X159575800Y-132204200D01*
X108084800Y-123761200D02*
X108084800Y-124879200D01*
X159734800Y-123761200D02*
X159734800Y-124879200D01*
D25*
X111585300Y-123441200D02*
X112243800Y-122782700D01*
X163235300Y-123441200D02*
X163893800Y-122782700D01*
X110696300Y-138300200D02*
X112243800Y-136752700D01*
X162346300Y-138300200D02*
X163893800Y-136752700D01*
X108068800Y-138300200D02*
X110696300Y-138300200D01*
X159718800Y-138300200D02*
X162346300Y-138300200D01*
D26*
X108068800Y-129648200D02*
X107925800Y-129791200D01*
X159718800Y-129648200D02*
X159575800Y-129791200D01*
X108068800Y-128648200D02*
X108068800Y-129648200D01*
X159718800Y-128648200D02*
X159718800Y-129648200D01*
D25*
X110907800Y-123761200D02*
X111227800Y-123441200D01*
X162557800Y-123761200D02*
X162877800Y-123441200D01*
X108068800Y-128648200D02*
X110823300Y-128648200D01*
X159718800Y-128648200D02*
X162473300Y-128648200D01*
D26*
X108084800Y-124879200D02*
X107998800Y-124965200D01*
X159734800Y-124879200D02*
X159648800Y-124965200D01*
%TO.N,Net-(J11-Pad14)*%
X53255801Y-104499201D02*
X57792801Y-104499201D01*
X58418800Y-105125200D02*
X58418800Y-106350200D01*
X57792801Y-104499201D02*
X58418800Y-105125200D01*
X57792801Y-135499201D02*
X58418800Y-136125200D01*
X58418800Y-136125200D02*
X58418800Y-137350200D01*
X53255801Y-135499201D02*
X57792801Y-135499201D01*
X109442801Y-104499201D02*
X110068800Y-105125200D01*
X161092801Y-104499201D02*
X161718800Y-105125200D01*
X110068800Y-105125200D02*
X110068800Y-106350200D01*
X161718800Y-105125200D02*
X161718800Y-106350200D01*
X104905801Y-104499201D02*
X109442801Y-104499201D01*
X156555801Y-104499201D02*
X161092801Y-104499201D01*
X110068800Y-136125200D02*
X110068800Y-137350200D01*
X161718800Y-136125200D02*
X161718800Y-137350200D01*
X109442801Y-135499201D02*
X110068800Y-136125200D01*
X161092801Y-135499201D02*
X161718800Y-136125200D01*
X104905801Y-135499201D02*
X109442801Y-135499201D01*
X156555801Y-135499201D02*
X161092801Y-135499201D01*
%TO.N,Net-(J11-Pad13)*%
X53255801Y-101959201D02*
X53488799Y-101959201D01*
X53488799Y-101959201D02*
X55386800Y-100061200D01*
X55386800Y-100061200D02*
X57799800Y-100061200D01*
X58418800Y-100680200D02*
X58418800Y-101524200D01*
X57799800Y-100061200D02*
X58418800Y-100680200D01*
X57799800Y-131061200D02*
X58418800Y-131680200D01*
X55386800Y-131061200D02*
X57799800Y-131061200D01*
X53255801Y-132959201D02*
X53488799Y-132959201D01*
X53488799Y-132959201D02*
X55386800Y-131061200D01*
X58418800Y-131680200D02*
X58418800Y-132524200D01*
X109449800Y-100061200D02*
X110068800Y-100680200D01*
X161099800Y-100061200D02*
X161718800Y-100680200D01*
X107036800Y-100061200D02*
X109449800Y-100061200D01*
X158686800Y-100061200D02*
X161099800Y-100061200D01*
X104905801Y-101959201D02*
X105138799Y-101959201D01*
X156555801Y-101959201D02*
X156788799Y-101959201D01*
X105138799Y-101959201D02*
X107036800Y-100061200D01*
X156788799Y-101959201D02*
X158686800Y-100061200D01*
X110068800Y-100680200D02*
X110068800Y-101524200D01*
X161718800Y-100680200D02*
X161718800Y-101524200D01*
X109449800Y-131061200D02*
X110068800Y-131680200D01*
X161099800Y-131061200D02*
X161718800Y-131680200D01*
X107036800Y-131061200D02*
X109449800Y-131061200D01*
X158686800Y-131061200D02*
X161099800Y-131061200D01*
X104905801Y-132959201D02*
X105138799Y-132959201D01*
X156555801Y-132959201D02*
X156788799Y-132959201D01*
X110068800Y-131680200D02*
X110068800Y-132524200D01*
X161718800Y-131680200D02*
X161718800Y-132524200D01*
X105138799Y-132959201D02*
X107036800Y-131061200D01*
X156788799Y-132959201D02*
X158686800Y-131061200D01*
D25*
%TO.N,Net-(J11-Pad4)*%
X63387800Y-95004700D02*
X63387800Y-95870200D01*
X63387800Y-95870200D02*
X64276800Y-96759200D01*
X64276800Y-96759200D02*
X64276800Y-101331200D01*
X64904801Y-101959201D02*
X65955801Y-101959201D01*
X64276800Y-101331200D02*
X64904801Y-101959201D01*
X63387800Y-126004700D02*
X63387800Y-126870200D01*
X63387800Y-126870200D02*
X64276800Y-127759200D01*
X64276800Y-127759200D02*
X64276800Y-132331200D01*
X64904801Y-132959201D02*
X65955801Y-132959201D01*
X64276800Y-132331200D02*
X64904801Y-132959201D01*
X115037800Y-95004700D02*
X115037800Y-95870200D01*
X166687800Y-95004700D02*
X166687800Y-95870200D01*
X115037800Y-95870200D02*
X115926800Y-96759200D01*
X166687800Y-95870200D02*
X167576800Y-96759200D01*
X115926800Y-96759200D02*
X115926800Y-101331200D01*
X167576800Y-96759200D02*
X167576800Y-101331200D01*
X116554801Y-101959201D02*
X117605801Y-101959201D01*
X168204801Y-101959201D02*
X169255801Y-101959201D01*
X115926800Y-101331200D02*
X116554801Y-101959201D01*
X167576800Y-101331200D02*
X168204801Y-101959201D01*
X115926800Y-127759200D02*
X115926800Y-132331200D01*
X167576800Y-127759200D02*
X167576800Y-132331200D01*
X115037800Y-126870200D02*
X115926800Y-127759200D01*
X166687800Y-126870200D02*
X167576800Y-127759200D01*
X116554801Y-132959201D02*
X117605801Y-132959201D01*
X168204801Y-132959201D02*
X169255801Y-132959201D01*
X115037800Y-126004700D02*
X115037800Y-126870200D01*
X166687800Y-126004700D02*
X166687800Y-126870200D01*
X115926800Y-132331200D02*
X116554801Y-132959201D01*
X167576800Y-132331200D02*
X168204801Y-132959201D01*
D26*
%TO.N,Net-(J11-Pad12)*%
X57364602Y-96698200D02*
X58418800Y-96698200D01*
X57333601Y-96667199D02*
X57364602Y-96698200D01*
X55503999Y-96667199D02*
X57333601Y-96667199D01*
X55259800Y-96911398D02*
X55503999Y-96667199D01*
X55259800Y-97648200D02*
X55259800Y-96911398D01*
X53488799Y-99419201D02*
X55259800Y-97648200D01*
X53255801Y-99419201D02*
X53488799Y-99419201D01*
X57364602Y-127698200D02*
X58418800Y-127698200D01*
X57333601Y-127667199D02*
X57364602Y-127698200D01*
X55503999Y-127667199D02*
X57333601Y-127667199D01*
X55259800Y-127911398D02*
X55503999Y-127667199D01*
X53488799Y-130419201D02*
X55259800Y-128648200D01*
X53255801Y-130419201D02*
X53488799Y-130419201D01*
X55259800Y-128648200D02*
X55259800Y-127911398D01*
X109014602Y-96698200D02*
X110068800Y-96698200D01*
X160664602Y-96698200D02*
X161718800Y-96698200D01*
X108983601Y-96667199D02*
X109014602Y-96698200D01*
X160633601Y-96667199D02*
X160664602Y-96698200D01*
X107153999Y-96667199D02*
X108983601Y-96667199D01*
X158803999Y-96667199D02*
X160633601Y-96667199D01*
X106909800Y-96911398D02*
X107153999Y-96667199D01*
X158559800Y-96911398D02*
X158803999Y-96667199D01*
X105138799Y-99419201D02*
X106909800Y-97648200D01*
X156788799Y-99419201D02*
X158559800Y-97648200D01*
X104905801Y-99419201D02*
X105138799Y-99419201D01*
X156555801Y-99419201D02*
X156788799Y-99419201D01*
X106909800Y-97648200D02*
X106909800Y-96911398D01*
X158559800Y-97648200D02*
X158559800Y-96911398D01*
X107153999Y-127667199D02*
X108983601Y-127667199D01*
X158803999Y-127667199D02*
X160633601Y-127667199D01*
X108983601Y-127667199D02*
X109014602Y-127698200D01*
X160633601Y-127667199D02*
X160664602Y-127698200D01*
X106909800Y-128648200D02*
X106909800Y-127911398D01*
X158559800Y-128648200D02*
X158559800Y-127911398D01*
X105138799Y-130419201D02*
X106909800Y-128648200D01*
X156788799Y-130419201D02*
X158559800Y-128648200D01*
X106909800Y-127911398D02*
X107153999Y-127667199D01*
X158559800Y-127911398D02*
X158803999Y-127667199D01*
X104905801Y-130419201D02*
X105138799Y-130419201D01*
X156555801Y-130419201D02*
X156788799Y-130419201D01*
X109014602Y-127698200D02*
X110068800Y-127698200D01*
X160664602Y-127698200D02*
X161718800Y-127698200D01*
%TO.N,Net-(J11-Pad11)*%
X53255801Y-96879201D02*
X53488799Y-96879201D01*
X53488799Y-96879201D02*
X55259800Y-95108200D01*
X55259800Y-95108200D02*
X55259800Y-91806200D01*
X55259800Y-91806200D02*
X55640800Y-91425200D01*
X58048800Y-91425200D02*
X58434800Y-91811200D01*
X55640800Y-91425200D02*
X58048800Y-91425200D01*
X53488799Y-127879201D02*
X55259800Y-126108200D01*
X55640800Y-122425200D02*
X58048800Y-122425200D01*
X55259800Y-122806200D02*
X55640800Y-122425200D01*
X58048800Y-122425200D02*
X58434800Y-122811200D01*
X55259800Y-126108200D02*
X55259800Y-122806200D01*
X53255801Y-127879201D02*
X53488799Y-127879201D01*
X105138799Y-96879201D02*
X106909800Y-95108200D01*
X156788799Y-96879201D02*
X158559800Y-95108200D01*
X107290800Y-91425200D02*
X109698800Y-91425200D01*
X158940800Y-91425200D02*
X161348800Y-91425200D01*
X106909800Y-91806200D02*
X107290800Y-91425200D01*
X158559800Y-91806200D02*
X158940800Y-91425200D01*
X109698800Y-91425200D02*
X110084800Y-91811200D01*
X161348800Y-91425200D02*
X161734800Y-91811200D01*
X106909800Y-95108200D02*
X106909800Y-91806200D01*
X158559800Y-95108200D02*
X158559800Y-91806200D01*
X104905801Y-96879201D02*
X105138799Y-96879201D01*
X156555801Y-96879201D02*
X156788799Y-96879201D01*
X109698800Y-122425200D02*
X110084800Y-122811200D01*
X161348800Y-122425200D02*
X161734800Y-122811200D01*
X105138799Y-127879201D02*
X106909800Y-126108200D01*
X156788799Y-127879201D02*
X158559800Y-126108200D01*
X107290800Y-122425200D02*
X109698800Y-122425200D01*
X158940800Y-122425200D02*
X161348800Y-122425200D01*
X106909800Y-122806200D02*
X107290800Y-122425200D01*
X158559800Y-122806200D02*
X158940800Y-122425200D01*
X106909800Y-126108200D02*
X106909800Y-122806200D01*
X158559800Y-126108200D02*
X158559800Y-122806200D01*
X104905801Y-127879201D02*
X105138799Y-127879201D01*
X156555801Y-127879201D02*
X156788799Y-127879201D01*
D25*
%TO.N,Net-(J11-Pad7)*%
X62649300Y-104760200D02*
X63387800Y-104021700D01*
X61863800Y-104760200D02*
X62649300Y-104760200D01*
X62649300Y-135760200D02*
X63387800Y-135021700D01*
X61863800Y-135760200D02*
X62649300Y-135760200D01*
X114299300Y-104760200D02*
X115037800Y-104021700D01*
X165949300Y-104760200D02*
X166687800Y-104021700D01*
X113513800Y-104760200D02*
X114299300Y-104760200D01*
X165163800Y-104760200D02*
X165949300Y-104760200D01*
X114299300Y-135760200D02*
X115037800Y-135021700D01*
X165949300Y-135760200D02*
X166687800Y-135021700D01*
X113513800Y-135760200D02*
X114299300Y-135760200D01*
X165163800Y-135760200D02*
X165949300Y-135760200D01*
%TO.N,Net-(J11-Pad8)*%
X63387800Y-99449700D02*
X63618300Y-99449700D01*
X63387800Y-99449700D02*
X63387800Y-100823200D01*
X64530800Y-93224202D02*
X65955801Y-91799201D01*
X64530800Y-95616200D02*
X64530800Y-93224202D01*
X63387800Y-130449700D02*
X63618300Y-130449700D01*
X63387800Y-130449700D02*
X63387800Y-131823200D01*
X64530800Y-124224202D02*
X65955801Y-122799201D01*
X64530800Y-126616200D02*
X64530800Y-124224202D01*
X115037800Y-99449700D02*
X115268300Y-99449700D01*
X166687800Y-99449700D02*
X166918300Y-99449700D01*
X115037800Y-99449700D02*
X115037800Y-100823200D01*
X166687800Y-99449700D02*
X166687800Y-100823200D01*
X116180800Y-93224202D02*
X117605801Y-91799201D01*
X167830800Y-93224202D02*
X169255801Y-91799201D01*
X116180800Y-95616200D02*
X116180800Y-93224202D01*
X167830800Y-95616200D02*
X167830800Y-93224202D01*
X115037800Y-130449700D02*
X115037800Y-131823200D01*
X166687800Y-130449700D02*
X166687800Y-131823200D01*
X116180800Y-124224202D02*
X117605801Y-122799201D01*
X167830800Y-124224202D02*
X169255801Y-122799201D01*
X115037800Y-130449700D02*
X115268300Y-130449700D01*
X166687800Y-130449700D02*
X166918300Y-130449700D01*
X116180800Y-126616200D02*
X116180800Y-124224202D01*
X167830800Y-126616200D02*
X167830800Y-124224202D01*
%TO.N,Net-(Q2-Pad1)*%
X59921300Y-108250200D02*
X60593800Y-107577700D01*
X58418800Y-108250200D02*
X59921300Y-108250200D01*
X61816800Y-107577700D02*
X63514800Y-105879700D01*
X60593800Y-107577700D02*
X61816800Y-107577700D01*
X59921300Y-139250200D02*
X60593800Y-138577700D01*
X58418800Y-139250200D02*
X59921300Y-139250200D01*
X61816800Y-138577700D02*
X63514800Y-136879700D01*
X60593800Y-138577700D02*
X61816800Y-138577700D01*
X111571300Y-108250200D02*
X112243800Y-107577700D01*
X163221300Y-108250200D02*
X163893800Y-107577700D01*
X110068800Y-108250200D02*
X111571300Y-108250200D01*
X161718800Y-108250200D02*
X163221300Y-108250200D01*
X113466800Y-107577700D02*
X115164800Y-105879700D01*
X165116800Y-107577700D02*
X166814800Y-105879700D01*
X112243800Y-107577700D02*
X113466800Y-107577700D01*
X163893800Y-107577700D02*
X165116800Y-107577700D01*
X110068800Y-139250200D02*
X111571300Y-139250200D01*
X161718800Y-139250200D02*
X163221300Y-139250200D01*
X111571300Y-139250200D02*
X112243800Y-138577700D01*
X163221300Y-139250200D02*
X163893800Y-138577700D01*
X112243800Y-138577700D02*
X113466800Y-138577700D01*
X163893800Y-138577700D02*
X165116800Y-138577700D01*
X113466800Y-138577700D02*
X115164800Y-136879700D01*
X165116800Y-138577700D02*
X166814800Y-136879700D01*
%TO.N,Net-(Q3-Pad1)*%
X60048300Y-98598200D02*
X60593800Y-98052700D01*
X58418800Y-98598200D02*
X60048300Y-98598200D01*
X62959800Y-98052700D02*
X63387800Y-97624700D01*
X60593800Y-98052700D02*
X62959800Y-98052700D01*
X60593800Y-129052700D02*
X62959800Y-129052700D01*
X62959800Y-129052700D02*
X63387800Y-128624700D01*
X58418800Y-129598200D02*
X60048300Y-129598200D01*
X60048300Y-129598200D02*
X60593800Y-129052700D01*
X112243800Y-98052700D02*
X114609800Y-98052700D01*
X163893800Y-98052700D02*
X166259800Y-98052700D01*
X114609800Y-98052700D02*
X115037800Y-97624700D01*
X166259800Y-98052700D02*
X166687800Y-97624700D01*
X110068800Y-98598200D02*
X111698300Y-98598200D01*
X161718800Y-98598200D02*
X163348300Y-98598200D01*
X111698300Y-98598200D02*
X112243800Y-98052700D01*
X163348300Y-98598200D02*
X163893800Y-98052700D01*
X114609800Y-129052700D02*
X115037800Y-128624700D01*
X166259800Y-129052700D02*
X166687800Y-128624700D01*
X111698300Y-129598200D02*
X112243800Y-129052700D01*
X163348300Y-129598200D02*
X163893800Y-129052700D01*
X110068800Y-129598200D02*
X111698300Y-129598200D01*
X161718800Y-129598200D02*
X163348300Y-129598200D01*
X112243800Y-129052700D02*
X114609800Y-129052700D01*
X163893800Y-129052700D02*
X166259800Y-129052700D01*
%TO.N,Net-(Q4-Pad1)*%
X60048300Y-103424200D02*
X60593800Y-102878700D01*
X58418800Y-103424200D02*
X60048300Y-103424200D01*
X62705800Y-102878700D02*
X63387800Y-102196700D01*
X60593800Y-102878700D02*
X62705800Y-102878700D01*
X62705800Y-133878700D02*
X63387800Y-133196700D01*
X60593800Y-133878700D02*
X62705800Y-133878700D01*
X60048300Y-134424200D02*
X60593800Y-133878700D01*
X58418800Y-134424200D02*
X60048300Y-134424200D01*
X114355800Y-102878700D02*
X115037800Y-102196700D01*
X166005800Y-102878700D02*
X166687800Y-102196700D01*
X112243800Y-102878700D02*
X114355800Y-102878700D01*
X163893800Y-102878700D02*
X166005800Y-102878700D01*
X111698300Y-103424200D02*
X112243800Y-102878700D01*
X163348300Y-103424200D02*
X163893800Y-102878700D01*
X110068800Y-103424200D02*
X111698300Y-103424200D01*
X161718800Y-103424200D02*
X163348300Y-103424200D01*
X114355800Y-133878700D02*
X115037800Y-133196700D01*
X166005800Y-133878700D02*
X166687800Y-133196700D01*
X112243800Y-133878700D02*
X114355800Y-133878700D01*
X163893800Y-133878700D02*
X166005800Y-133878700D01*
X111698300Y-134424200D02*
X112243800Y-133878700D01*
X163348300Y-134424200D02*
X163893800Y-133878700D01*
X110068800Y-134424200D02*
X111698300Y-134424200D01*
X161718800Y-134424200D02*
X163348300Y-134424200D01*
%TO.N,Net-(Q5-Pad1)*%
X60490300Y-93711200D02*
X60593800Y-93607700D01*
X58434800Y-93711200D02*
X60490300Y-93711200D01*
X62959800Y-93607700D02*
X63387800Y-93179700D01*
X60593800Y-93607700D02*
X62959800Y-93607700D01*
X60490300Y-124711200D02*
X60593800Y-124607700D01*
X62959800Y-124607700D02*
X63387800Y-124179700D01*
X60593800Y-124607700D02*
X62959800Y-124607700D01*
X58434800Y-124711200D02*
X60490300Y-124711200D01*
X112140300Y-93711200D02*
X112243800Y-93607700D01*
X163790300Y-93711200D02*
X163893800Y-93607700D01*
X114609800Y-93607700D02*
X115037800Y-93179700D01*
X166259800Y-93607700D02*
X166687800Y-93179700D01*
X112243800Y-93607700D02*
X114609800Y-93607700D01*
X163893800Y-93607700D02*
X166259800Y-93607700D01*
X110084800Y-93711200D02*
X112140300Y-93711200D01*
X161734800Y-93711200D02*
X163790300Y-93711200D01*
X110084800Y-124711200D02*
X112140300Y-124711200D01*
X161734800Y-124711200D02*
X163790300Y-124711200D01*
X114609800Y-124607700D02*
X115037800Y-124179700D01*
X166259800Y-124607700D02*
X166687800Y-124179700D01*
X112243800Y-124607700D02*
X114609800Y-124607700D01*
X163893800Y-124607700D02*
X166259800Y-124607700D01*
X112140300Y-124711200D02*
X112243800Y-124607700D01*
X163790300Y-124711200D02*
X163893800Y-124607700D01*
%TD*%
M02*
