M48
; DRILL file {KiCad (5.1.8)-1} date 02/10/21 13:30:45
; FORMAT={-:-/ absolute / inch / decimal}
; #@! TF.CreationDate,2021-02-10T13:30:45-06:00
; #@! TF.GenerationSoftware,Kicad,Pcbnew,(5.1.8)-1
; #@! TF.FileFunction,NonPlated,1,2,NPTH
FMAT,2
INCH
T1C0.0197
T2C0.1280
%
G90
G05
T1
X4.0552Y-5.0787
X4.0552Y-5.1181
X4.0552Y-5.1574
X4.0552Y-5.1968
X4.0552Y-5.2362
X4.9882Y-2.5688
X4.9882Y-2.6081
X4.9882Y-2.6475
X4.9882Y-2.6869
X4.9882Y-2.7262
X7.7992Y-3.7912
X7.7992Y-3.8306
X7.7992Y-3.87
X7.7992Y-3.9093
X7.7992Y-3.9487
X3.2725Y-2.2648
X3.3119Y-2.2648
X3.3512Y-2.2648
X3.3906Y-2.2648
X3.43Y-2.2648
X2.6772Y-3.8637
X2.6772Y-3.903
X2.6772Y-3.9424
X2.6772Y-3.9818
X2.6772Y-4.0211
X2.6772Y-5.0841
X2.6772Y-5.1235
X2.6772Y-5.1629
X2.6772Y-5.2022
X2.6772Y-5.2416
X5.7677Y-2.0591
X5.7677Y-2.0984
X5.7677Y-2.1378
X5.7677Y-2.1772
X5.7677Y-2.2165
X6.7441Y-5.7146
X6.7441Y-5.7539
X6.7441Y-5.7933
X6.7441Y-5.8327
X6.7441Y-5.872
X4.0531Y-3.2736
X4.0531Y-3.313
X4.0531Y-3.3524
X4.0531Y-3.3917
X4.0531Y-3.4311
X3.2725Y-3.4853
X3.3119Y-3.4853
X3.3512Y-3.4853
X3.3906Y-3.4853
X3.43Y-3.4853
X4.7106Y-2.061
X4.7106Y-2.1004
X4.7106Y-2.1398
X4.7106Y-2.1791
X4.7106Y-2.2185
X4.0575Y-2.6462
X4.0575Y-2.6856
X4.0575Y-2.725
X4.0575Y-2.7644
X4.0575Y-2.8037
X4.7106Y-3.8637
X4.7106Y-3.903
X4.7106Y-3.9424
X4.7106Y-3.9818
X4.7106Y-4.0211
X7.3535Y-3.1985
X7.3928Y-3.1985
X7.4322Y-3.1985
X7.4716Y-3.1985
X7.511Y-3.1985
X4.2931Y-3.5122
X4.3325Y-3.5122
X4.3718Y-3.5122
X4.4112Y-3.5122
X4.4506Y-3.5122
X3.7362Y-4.5
X3.7362Y-4.5394
X3.7362Y-4.5787
X3.7362Y-4.6181
X3.7362Y-4.6575
X7.3535Y-5.6394
X7.3928Y-5.6394
X7.4322Y-5.6394
X7.4716Y-5.6394
X7.511Y-5.6394
X4.7106Y-5.0841
X4.7106Y-5.1235
X4.7106Y-5.1629
X4.7106Y-5.2022
X4.7106Y-5.2416
X3.7362Y-5.0117
X3.7362Y-5.0511
X3.7362Y-5.0904
X3.7362Y-5.1298
X3.7362Y-5.1692
X5.7677Y-5.0117
X5.7677Y-5.0511
X5.7677Y-5.0904
X5.7677Y-5.1298
X5.7677Y-5.1692
X2.2596Y-3.5122
X2.299Y-3.5122
X2.3384Y-3.5122
X2.3777Y-3.5122
X2.4171Y-3.5122
X2.6772Y-4.4941
X2.6772Y-4.5335
X2.6772Y-4.5728
X2.6772Y-4.6122
X2.6772Y-4.6516
X7.7992Y-3.2795
X7.7992Y-3.3189
X7.7992Y-3.3583
X7.7992Y-3.3976
X7.7992Y-3.437
X7.3355Y-2.2648
X7.3748Y-2.2648
X7.4142Y-2.2648
X7.4536Y-2.2648
X7.493Y-2.2648
X6.748Y-2.6476
X6.748Y-2.687
X6.748Y-2.7264
X6.748Y-2.7657
X6.748Y-2.8051
X6.3351Y-4.4111
X6.3744Y-4.4111
X6.4138Y-4.4111
X6.4532Y-4.4111
X6.4925Y-4.4111
X3.2725Y-4.7058
X3.3119Y-4.7058
X3.3512Y-4.7058
X3.3906Y-4.7058
X3.43Y-4.7058
X6.0866Y-5.7146
X6.0866Y-5.7539
X6.0866Y-5.7933
X6.0866Y-5.8327
X6.0866Y-5.872
X2.6772Y-2.061
X2.6772Y-2.1004
X2.6772Y-2.1398
X2.6772Y-2.1791
X2.6772Y-2.2185
X2.9587Y-4.5
X2.9587Y-4.5394
X2.9587Y-4.5787
X2.9587Y-4.6181
X2.9587Y-4.6575
X5.7677Y-4.5
X5.7677Y-4.5394
X5.7677Y-4.5787
X5.7677Y-4.6181
X5.7677Y-4.6575
X4.9902Y-4.5
X4.9902Y-4.5394
X4.9902Y-4.5787
X4.9902Y-4.6181
X4.9902Y-4.6575
X6.3266Y-4.7327
X6.3659Y-4.7327
X6.4053Y-4.7327
X6.4447Y-4.7327
X6.484Y-4.7327
X5.7677Y-2.5708
X5.7677Y-2.6101
X5.7677Y-2.6495
X5.7677Y-2.6889
X5.7677Y-2.7282
X2.9567Y-5.0097
X2.9567Y-5.0491
X2.9567Y-5.0884
X2.9567Y-5.1278
X2.9567Y-5.1672
X2.024Y-2.6462
X2.024Y-2.6856
X2.024Y-2.725
X2.024Y-2.7644
X2.024Y-2.8037
X7.8012Y-5.7126
X7.8012Y-5.752
X7.8012Y-5.7913
X7.8012Y-5.8307
X7.8012Y-5.8701
X7.0256Y-5.7165
X7.0256Y-5.7559
X7.0256Y-5.7953
X7.0256Y-5.8346
X7.0256Y-5.874
X2.0197Y-2.0571
X2.0197Y-2.0965
X2.0197Y-2.1358
X2.0197Y-2.1752
X2.0197Y-2.2146
X5.304Y-3.4853
X5.3433Y-3.4853
X5.3827Y-3.4853
X5.4221Y-3.4853
X5.4615Y-3.4853
X4.7106Y-3.2736
X4.7106Y-3.313
X4.7106Y-3.3524
X4.7106Y-3.3917
X4.7106Y-3.4311
X3.7362Y-2.5708
X3.7362Y-2.6101
X3.7362Y-2.6495
X3.7362Y-2.6889
X3.7362Y-2.7282
X4.2954Y-2.2963
X4.3348Y-2.2963
X4.3741Y-2.2963
X4.4135Y-2.2963
X4.4529Y-2.2963
X6.7441Y-3.8637
X6.7441Y-3.903
X6.7441Y-3.9424
X6.7441Y-3.9818
X6.7441Y-4.0211
X5.304Y-4.7058
X5.3433Y-4.7058
X5.3827Y-4.7058
X5.4221Y-4.7058
X5.4615Y-4.7058
X6.7441Y-3.2736
X6.7441Y-3.313
X6.7441Y-3.3524
X6.7441Y-3.3917
X6.7441Y-3.4311
X6.0866Y-4.4941
X6.0866Y-4.5335
X6.0866Y-4.5728
X6.0866Y-4.6122
X6.0866Y-4.6516
X7.0217Y-3.2795
X7.0217Y-3.3189
X7.0217Y-3.3583
X7.0217Y-3.3976
X7.0217Y-3.437
X6.3266Y-3.5122
X6.3659Y-3.5122
X6.4053Y-3.5122
X6.4447Y-3.5122
X6.484Y-3.5122
X3.2905Y-4.4189
X3.3299Y-4.4189
X3.3692Y-4.4189
X3.4086Y-4.4189
X3.448Y-4.4189
X6.7441Y-5.0841
X6.7441Y-5.1235
X6.7441Y-5.1629
X6.7441Y-5.2022
X6.7441Y-5.2416
X4.2931Y-4.7327
X4.3325Y-4.7327
X4.3718Y-4.7327
X4.4112Y-4.7327
X4.4506Y-4.7327
X7.0197Y-5.0097
X7.0197Y-5.0491
X7.0197Y-5.0884
X7.0197Y-5.1278
X7.0197Y-5.1672
X7.0197Y-2.5688
X7.0197Y-2.6081
X7.0197Y-2.6475
X7.0197Y-2.6869
X7.0197Y-2.7262
X4.9882Y-5.0097
X4.9882Y-5.0491
X4.9882Y-5.0884
X4.9882Y-5.1278
X4.9882Y-5.1672
X2.9567Y-2.5688
X2.9567Y-2.6081
X2.9567Y-2.6475
X2.9567Y-2.6869
X2.9567Y-2.7262
X2.0197Y-3.2736
X2.0197Y-3.313
X2.0197Y-3.3524
X2.0197Y-3.3917
X2.0197Y-3.4311
X2.9587Y-2.0591
X2.9587Y-2.0984
X2.9587Y-2.1378
X2.9587Y-2.1772
X2.9587Y-2.2165
X7.7992Y-2.0591
X7.7992Y-2.0984
X7.7992Y-2.1378
X7.7992Y-2.1772
X7.7992Y-2.2165
X4.9921Y-5.7165
X4.9921Y-5.7559
X4.9921Y-5.7953
X4.9921Y-5.8346
X4.9921Y-5.874
X2.0197Y-4.4941
X2.0197Y-4.5335
X2.0197Y-4.5728
X2.0197Y-4.6122
X2.0197Y-4.6516
X6.0866Y-3.2736
X6.0866Y-3.313
X6.0866Y-3.3524
X6.0866Y-3.3917
X6.0866Y-3.4311
X4.3016Y-5.6315
X4.341Y-5.6315
X4.3803Y-5.6315
X4.4197Y-5.6315
X4.4591Y-5.6315
X2.2681Y-4.4111
X2.3075Y-4.4111
X2.3469Y-4.4111
X2.3862Y-4.4111
X2.4256Y-4.4111
X2.0217Y-5.0787
X2.0217Y-5.1181
X2.0217Y-5.1574
X2.0217Y-5.1968
X2.0217Y-5.2362
X7.3355Y-4.7058
X7.3748Y-4.7058
X7.4142Y-4.7058
X7.4536Y-4.7058
X7.493Y-4.7058
X6.7441Y-4.4941
X6.7441Y-4.5335
X6.7441Y-4.5728
X6.7441Y-4.6122
X6.7441Y-4.6516
X2.6772Y-5.7146
X2.6772Y-5.7539
X2.6772Y-5.7933
X2.6772Y-5.8327
X2.6772Y-5.872
X4.9902Y-2.0591
X4.9902Y-2.0984
X4.9902Y-2.1378
X4.9902Y-2.1772
X4.9902Y-2.2165
X7.3535Y-4.4189
X7.3928Y-4.4189
X7.4322Y-4.4189
X7.4716Y-4.4189
X7.511Y-4.4189
X5.7677Y-3.7912
X5.7677Y-3.8306
X5.7677Y-3.87
X5.7677Y-3.9093
X5.7677Y-3.9487
X2.9567Y-3.7892
X2.9567Y-3.8286
X2.9567Y-3.868
X2.9567Y-3.9073
X2.9567Y-3.9467
X3.7362Y-3.7912
X3.7362Y-3.8306
X3.7362Y-3.87
X3.7362Y-3.9093
X3.7362Y-3.9487
X6.0886Y-3.8582
X6.0886Y-3.8976
X6.0886Y-3.937
X6.0886Y-3.9763
X6.0886Y-4.0157
X3.7362Y-3.2795
X3.7362Y-3.3189
X3.7362Y-3.3583
X3.7362Y-3.3976
X3.7362Y-3.437
X4.7106Y-4.4941
X4.7106Y-4.5335
X4.7106Y-4.5728
X4.7106Y-4.6122
X4.7106Y-4.6516
X6.0909Y-2.6462
X6.0909Y-2.6856
X6.0909Y-2.725
X6.0909Y-2.7644
X6.0909Y-2.8037
X2.6811Y-2.6476
X2.6811Y-2.687
X2.6811Y-2.7264
X2.6811Y-2.7657
X2.6811Y-2.8051
X2.2681Y-5.6315
X2.3075Y-5.6315
X2.3469Y-5.6315
X2.3862Y-5.6315
X2.4256Y-5.6315
X5.7677Y-3.2795
X5.7677Y-3.3189
X5.7677Y-3.3583
X5.7677Y-3.3976
X5.7677Y-3.437
X6.7441Y-2.061
X6.7441Y-2.1004
X6.7441Y-2.1398
X6.7441Y-2.1791
X6.7441Y-2.2185
X2.2596Y-4.7327
X2.299Y-4.7327
X2.3384Y-4.7327
X2.3777Y-4.7327
X2.4171Y-4.7327
X3.7343Y-5.7126
X3.7343Y-5.752
X3.7343Y-5.7913
X3.7343Y-5.8307
X3.7343Y-5.8701
X4.3039Y-3.1951
X4.3433Y-3.1951
X4.3826Y-3.1951
X4.422Y-3.1951
X4.4614Y-3.1951
X2.9587Y-3.2795
X2.9587Y-3.3189
X2.9587Y-3.3583
X2.9587Y-3.3976
X2.9587Y-3.437
X5.322Y-3.1985
X5.3613Y-3.1985
X5.4007Y-3.1985
X5.4401Y-3.1985
X5.4795Y-3.1985
X6.0886Y-5.0787
X6.0886Y-5.1181
X6.0886Y-5.1574
X6.0886Y-5.1968
X6.0886Y-5.2362
X7.7992Y-5.0117
X7.7992Y-5.0511
X7.7992Y-5.0904
X7.7992Y-5.1298
X7.7992Y-5.1692
X7.0197Y-3.7892
X7.0197Y-3.8286
X7.0197Y-3.868
X7.0197Y-3.9073
X7.0197Y-3.9467
X2.2704Y-3.1951
X2.3098Y-3.1951
X2.3492Y-3.1951
X2.3885Y-3.1951
X2.4279Y-3.1951
X3.2905Y-3.1985
X3.3299Y-3.1985
X3.3692Y-3.1985
X3.4086Y-3.1985
X3.448Y-3.1985
X3.7362Y-2.0591
X3.7362Y-2.0984
X3.7362Y-2.1378
X3.7362Y-2.1772
X3.7362Y-2.2165
X5.304Y-2.2648
X5.3433Y-2.2648
X5.3827Y-2.2648
X5.4221Y-2.2648
X5.4615Y-2.2648
X4.0531Y-5.7146
X4.0531Y-5.7539
X4.0531Y-5.7933
X4.0531Y-5.8327
X4.0531Y-5.872
X2.0217Y-3.8582
X2.0217Y-3.8976
X2.0217Y-3.937
X2.0217Y-3.9763
X2.0217Y-4.0157
X4.0552Y-3.8582
X4.0552Y-3.8976
X4.0552Y-3.937
X4.0552Y-3.9763
X4.0552Y-4.0157
X4.0531Y-2.0571
X4.0531Y-2.0965
X4.0531Y-2.1358
X4.0531Y-2.1752
X4.0531Y-2.2146
X2.2619Y-2.2963
X2.3013Y-2.2963
X2.3407Y-2.2963
X2.38Y-2.2963
X2.4194Y-2.2963
X2.0197Y-5.7146
X2.0197Y-5.7539
X2.0197Y-5.7933
X2.0197Y-5.8327
X2.0197Y-5.872
X4.7106Y-5.7146
X4.7106Y-5.7539
X4.7106Y-5.7933
X4.7106Y-5.8327
X4.7106Y-5.872
X7.0217Y-2.0591
X7.0217Y-2.0984
X7.0217Y-2.1378
X7.0217Y-2.1772
X7.0217Y-2.2165
X7.7992Y-4.5
X7.7992Y-4.5394
X7.7992Y-4.5787
X7.7992Y-4.6181
X7.7992Y-4.6575
X5.322Y-4.4189
X5.3613Y-4.4189
X5.4007Y-4.4189
X5.4401Y-4.4189
X5.4795Y-4.4189
X7.0217Y-4.5
X7.0217Y-4.5394
X7.0217Y-4.5787
X7.0217Y-4.6181
X7.0217Y-4.6575
X4.9882Y-3.7892
X4.9882Y-3.8286
X4.9882Y-3.868
X4.9882Y-3.9073
X4.9882Y-3.9467
X7.7992Y-2.5708
X7.7992Y-2.6101
X7.7992Y-2.6495
X7.7992Y-2.6889
X7.7992Y-2.7282
X5.7677Y-5.7126
X5.7677Y-5.752
X5.7677Y-5.7913
X5.7677Y-5.8307
X5.7677Y-5.8701
X7.3355Y-3.4853
X7.3748Y-3.4853
X7.4142Y-3.4853
X7.4536Y-3.4853
X7.493Y-3.4853
X4.7146Y-2.6476
X4.7146Y-2.687
X4.7146Y-2.7264
X4.7146Y-2.7657
X4.7146Y-2.8051
X2.6772Y-3.2736
X2.6772Y-3.313
X2.6772Y-3.3524
X2.6772Y-3.3917
X2.6772Y-3.4311
X2.9587Y-5.7165
X2.9587Y-5.7559
X2.9587Y-5.7953
X2.9587Y-5.8346
X2.9587Y-5.874
X6.3351Y-5.6315
X6.3744Y-5.6315
X6.4138Y-5.6315
X6.4532Y-5.6315
X6.4925Y-5.6315
X6.0866Y-2.0571
X6.0866Y-2.0965
X6.0866Y-2.1358
X6.0866Y-2.1752
X6.0866Y-2.2146
X4.3016Y-4.4111
X4.341Y-4.4111
X4.3803Y-4.4111
X4.4197Y-4.4111
X4.4591Y-4.4111
X4.0531Y-4.4941
X4.0531Y-4.5335
X4.0531Y-4.5728
X4.0531Y-4.6122
X4.0531Y-4.6516
X4.9902Y-3.2795
X4.9902Y-3.3189
X4.9902Y-3.3583
X4.9902Y-3.3976
X4.9902Y-3.437
X6.3289Y-2.2963
X6.3682Y-2.2963
X6.4076Y-2.2963
X6.447Y-2.2963
X6.4863Y-2.2963
X3.2905Y-5.6394
X3.3299Y-5.6394
X3.3692Y-5.6394
X3.4086Y-5.6394
X3.448Y-5.6394
X6.3374Y-3.1951
X6.3767Y-3.1951
X6.4161Y-3.1951
X6.4555Y-3.1951
X6.4948Y-3.1951
X5.322Y-5.6394
X5.3613Y-5.6394
X5.4007Y-5.6394
X5.4401Y-5.6394
X5.4795Y-5.6394
T2
X7.1579Y-3.7228
X7.6579Y-3.7228
X3.0949Y-4.9433
X3.5949Y-4.9433
X5.1264Y-4.9433
X5.6264Y-4.9433
X3.0949Y-3.7228
X3.5949Y-3.7228
X7.1579Y-4.9433
X7.6579Y-4.9433
X5.1264Y-2.5024
X5.6264Y-2.5024
X3.0949Y-2.5024
X3.5949Y-2.5024
X5.1264Y-3.7228
X5.6264Y-3.7228
X7.1579Y-2.5024
X7.6579Y-2.5024
T0
M30
