%TF.GenerationSoftware,KiCad,Pcbnew,(5.1.8)-1*%
%TF.CreationDate,2021-02-10T13:28:33-06:00*%
%TF.ProjectId,PanelDrivers,50616e65-6c44-4726-9976-6572732e6b69,rev?*%
%TF.SameCoordinates,Original*%
%TF.FileFunction,Profile,NP*%
%FSLAX46Y46*%
G04 Gerber Fmt 4.6, Leading zero omitted, Abs format (unit mm)*
G04 Created by KiCad (PCBNEW (5.1.8)-1) date 2021-02-10 13:28:33*
%MOMM*%
%LPD*%
G01*
G04 APERTURE LIST*
%TA.AperFunction,Profile*%
%ADD10C,0.050000*%
%TD*%
G04 APERTURE END LIST*
D10*
X178376000Y-143157000D02*
X178376000Y-122202000D01*
X126776000Y-143157000D02*
X126776000Y-122202000D01*
X75176000Y-143157000D02*
X75176000Y-122202000D01*
X178376000Y-112157000D02*
X178376000Y-91202000D01*
X126776000Y-112157000D02*
X126776000Y-91202000D01*
X75176000Y-112157000D02*
X75176000Y-91202000D01*
X178376000Y-81157000D02*
X178376000Y-60202000D01*
X126776000Y-81157000D02*
X126776000Y-60202000D01*
X198061000Y-122202000D02*
X198061000Y-143157000D01*
X146461000Y-122202000D02*
X146461000Y-143157000D01*
X94861000Y-122202000D02*
X94861000Y-143157000D01*
X198061000Y-91202000D02*
X198061000Y-112157000D01*
X146461000Y-91202000D02*
X146461000Y-112157000D01*
X94861000Y-91202000D02*
X94861000Y-112157000D01*
X198061000Y-60202000D02*
X198061000Y-81157000D01*
X146461000Y-60202000D02*
X146461000Y-81157000D01*
X178376000Y-122202000D02*
X198061000Y-122202000D01*
X126776000Y-122202000D02*
X146461000Y-122202000D01*
X75176000Y-122202000D02*
X94861000Y-122202000D01*
X178376000Y-91202000D02*
X198061000Y-91202000D01*
X126776000Y-91202000D02*
X146461000Y-91202000D01*
X75176000Y-91202000D02*
X94861000Y-91202000D01*
X178376000Y-60202000D02*
X198061000Y-60202000D01*
X126776000Y-60202000D02*
X146461000Y-60202000D01*
X198061000Y-143157000D02*
X178376000Y-143157000D01*
X146461000Y-143157000D02*
X126776000Y-143157000D01*
X94861000Y-143157000D02*
X75176000Y-143157000D01*
X198061000Y-112157000D02*
X178376000Y-112157000D01*
X146461000Y-112157000D02*
X126776000Y-112157000D01*
X94861000Y-112157000D02*
X75176000Y-112157000D01*
X198061000Y-81157000D02*
X178376000Y-81157000D01*
X146461000Y-81157000D02*
X126776000Y-81157000D01*
X45000000Y-157500000D02*
X45000000Y-45000000D01*
X205000000Y-157500000D02*
X45000000Y-157500000D01*
X205000000Y-45000000D02*
X205000000Y-157500000D01*
X45000000Y-45000000D02*
X205000000Y-45000000D01*
X75176000Y-81157000D02*
X75176000Y-60202000D01*
X94861000Y-81157000D02*
X75176000Y-81157000D01*
X94861000Y-60202000D02*
X94861000Y-81157000D01*
X75176000Y-60202000D02*
X94861000Y-60202000D01*
M02*
