%TF.GenerationSoftware,KiCad,Pcbnew,(5.1.8)-1*%
%TF.CreationDate,2021-02-10T13:28:33-06:00*%
%TF.ProjectId,PanelDrivers,50616e65-6c44-4726-9976-6572732e6b69,rev?*%
%TF.SameCoordinates,Original*%
%TF.FileFunction,Soldermask,Top*%
%TF.FilePolarity,Negative*%
%FSLAX46Y46*%
G04 Gerber Fmt 4.6, Leading zero omitted, Abs format (unit mm)*
G04 Created by KiCad (PCBNEW (5.1.8)-1) date 2021-02-10 13:28:33*
%MOMM*%
%LPD*%
G01*
G04 APERTURE LIST*
%ADD10C,1.000000*%
%ADD11R,1.700000X1.700000*%
%ADD12O,1.700000X1.700000*%
%ADD13C,1.500000*%
%ADD14C,2.300000*%
%ADD15C,3.250000*%
%ADD16R,1.500000X1.500000*%
%ADD17C,0.500000*%
%ADD18R,0.900000X0.800000*%
%ADD19O,2.000000X1.200000*%
%ADD20R,2.000000X1.200000*%
%ADD21C,1.524000*%
G04 APERTURE END LIST*
D10*
%TO.C,FD2*%
X60500000Y-155000000D02*
G75*
G03*
X60500000Y-155000000I-500000J0D01*
G01*
X190500000Y-155000000D02*
G75*
G03*
X190500000Y-155000000I-500000J0D01*
G01*
X190500000Y-47500000D02*
G75*
G03*
X190500000Y-47500000I-500000J0D01*
G01*
X60500000Y-47500000D02*
G75*
G03*
X60500000Y-47500000I-500000J0D01*
G01*
%TD*%
D11*
%TO.C,J5*%
X183456000Y-138612000D03*
D12*
X183456000Y-141152000D03*
X185996000Y-138612000D03*
X185996000Y-141152000D03*
X188536000Y-138612000D03*
X188536000Y-141152000D03*
X191076000Y-138612000D03*
X191076000Y-141152000D03*
X193616000Y-138612000D03*
X193616000Y-141152000D03*
%TD*%
D11*
%TO.C,J5*%
X131856000Y-138612000D03*
D12*
X131856000Y-141152000D03*
X134396000Y-138612000D03*
X134396000Y-141152000D03*
X136936000Y-138612000D03*
X136936000Y-141152000D03*
X139476000Y-138612000D03*
X139476000Y-141152000D03*
X142016000Y-138612000D03*
X142016000Y-141152000D03*
%TD*%
D11*
%TO.C,J5*%
X80256000Y-138612000D03*
D12*
X80256000Y-141152000D03*
X82796000Y-138612000D03*
X82796000Y-141152000D03*
X85336000Y-138612000D03*
X85336000Y-141152000D03*
X87876000Y-138612000D03*
X87876000Y-141152000D03*
X90416000Y-138612000D03*
X90416000Y-141152000D03*
%TD*%
D11*
%TO.C,J5*%
X183456000Y-107612000D03*
D12*
X183456000Y-110152000D03*
X185996000Y-107612000D03*
X185996000Y-110152000D03*
X188536000Y-107612000D03*
X188536000Y-110152000D03*
X191076000Y-107612000D03*
X191076000Y-110152000D03*
X193616000Y-107612000D03*
X193616000Y-110152000D03*
%TD*%
D11*
%TO.C,J5*%
X131856000Y-107612000D03*
D12*
X131856000Y-110152000D03*
X134396000Y-107612000D03*
X134396000Y-110152000D03*
X136936000Y-107612000D03*
X136936000Y-110152000D03*
X139476000Y-107612000D03*
X139476000Y-110152000D03*
X142016000Y-107612000D03*
X142016000Y-110152000D03*
%TD*%
D11*
%TO.C,J5*%
X80256000Y-107612000D03*
D12*
X80256000Y-110152000D03*
X82796000Y-107612000D03*
X82796000Y-110152000D03*
X85336000Y-107612000D03*
X85336000Y-110152000D03*
X87876000Y-107612000D03*
X87876000Y-110152000D03*
X90416000Y-107612000D03*
X90416000Y-110152000D03*
%TD*%
D11*
%TO.C,J5*%
X183456000Y-76612000D03*
D12*
X183456000Y-79152000D03*
X185996000Y-76612000D03*
X185996000Y-79152000D03*
X188536000Y-76612000D03*
X188536000Y-79152000D03*
X191076000Y-76612000D03*
X191076000Y-79152000D03*
X193616000Y-76612000D03*
X193616000Y-79152000D03*
%TD*%
D11*
%TO.C,J5*%
X131856000Y-76612000D03*
D12*
X131856000Y-79152000D03*
X134396000Y-76612000D03*
X134396000Y-79152000D03*
X136936000Y-76612000D03*
X136936000Y-79152000D03*
X139476000Y-76612000D03*
X139476000Y-79152000D03*
X142016000Y-76612000D03*
X142016000Y-79152000D03*
%TD*%
D13*
%TO.C,J6*%
X195020000Y-134700000D03*
X192730000Y-134700000D03*
X183590000Y-134700000D03*
X181300000Y-134700000D03*
D14*
X180030000Y-128990000D03*
X196290000Y-128990000D03*
D15*
X194510000Y-125560000D03*
X181810000Y-125560000D03*
D13*
X191712000Y-129880000D03*
X189680000Y-129880000D03*
X187648000Y-129880000D03*
X185616000Y-129880000D03*
X190696000Y-128100000D03*
X188664000Y-128100000D03*
X186632000Y-128100000D03*
D16*
X184600000Y-128100000D03*
%TD*%
D13*
%TO.C,J6*%
X143420000Y-134700000D03*
X141130000Y-134700000D03*
X131990000Y-134700000D03*
X129700000Y-134700000D03*
D14*
X128430000Y-128990000D03*
X144690000Y-128990000D03*
D15*
X142910000Y-125560000D03*
X130210000Y-125560000D03*
D13*
X140112000Y-129880000D03*
X138080000Y-129880000D03*
X136048000Y-129880000D03*
X134016000Y-129880000D03*
X139096000Y-128100000D03*
X137064000Y-128100000D03*
X135032000Y-128100000D03*
D16*
X133000000Y-128100000D03*
%TD*%
D13*
%TO.C,J6*%
X91820000Y-134700000D03*
X89530000Y-134700000D03*
X80390000Y-134700000D03*
X78100000Y-134700000D03*
D14*
X76830000Y-128990000D03*
X93090000Y-128990000D03*
D15*
X91310000Y-125560000D03*
X78610000Y-125560000D03*
D13*
X88512000Y-129880000D03*
X86480000Y-129880000D03*
X84448000Y-129880000D03*
X82416000Y-129880000D03*
X87496000Y-128100000D03*
X85464000Y-128100000D03*
X83432000Y-128100000D03*
D16*
X81400000Y-128100000D03*
%TD*%
D13*
%TO.C,J6*%
X195020000Y-103700000D03*
X192730000Y-103700000D03*
X183590000Y-103700000D03*
X181300000Y-103700000D03*
D14*
X180030000Y-97990000D03*
X196290000Y-97990000D03*
D15*
X194510000Y-94560000D03*
X181810000Y-94560000D03*
D13*
X191712000Y-98880000D03*
X189680000Y-98880000D03*
X187648000Y-98880000D03*
X185616000Y-98880000D03*
X190696000Y-97100000D03*
X188664000Y-97100000D03*
X186632000Y-97100000D03*
D16*
X184600000Y-97100000D03*
%TD*%
D13*
%TO.C,J6*%
X143420000Y-103700000D03*
X141130000Y-103700000D03*
X131990000Y-103700000D03*
X129700000Y-103700000D03*
D14*
X128430000Y-97990000D03*
X144690000Y-97990000D03*
D15*
X142910000Y-94560000D03*
X130210000Y-94560000D03*
D13*
X140112000Y-98880000D03*
X138080000Y-98880000D03*
X136048000Y-98880000D03*
X134016000Y-98880000D03*
X139096000Y-97100000D03*
X137064000Y-97100000D03*
X135032000Y-97100000D03*
D16*
X133000000Y-97100000D03*
%TD*%
D13*
%TO.C,J6*%
X91820000Y-103700000D03*
X89530000Y-103700000D03*
X80390000Y-103700000D03*
X78100000Y-103700000D03*
D14*
X76830000Y-97990000D03*
X93090000Y-97990000D03*
D15*
X91310000Y-94560000D03*
X78610000Y-94560000D03*
D13*
X88512000Y-98880000D03*
X86480000Y-98880000D03*
X84448000Y-98880000D03*
X82416000Y-98880000D03*
X87496000Y-97100000D03*
X85464000Y-97100000D03*
X83432000Y-97100000D03*
D16*
X81400000Y-97100000D03*
%TD*%
D13*
%TO.C,J6*%
X195020000Y-72700000D03*
X192730000Y-72700000D03*
X183590000Y-72700000D03*
X181300000Y-72700000D03*
D14*
X180030000Y-66990000D03*
X196290000Y-66990000D03*
D15*
X194510000Y-63560000D03*
X181810000Y-63560000D03*
D13*
X191712000Y-67880000D03*
X189680000Y-67880000D03*
X187648000Y-67880000D03*
X185616000Y-67880000D03*
X190696000Y-66100000D03*
X188664000Y-66100000D03*
X186632000Y-66100000D03*
D16*
X184600000Y-66100000D03*
%TD*%
D13*
%TO.C,J6*%
X143420000Y-72700000D03*
X141130000Y-72700000D03*
X131990000Y-72700000D03*
X129700000Y-72700000D03*
D14*
X128430000Y-66990000D03*
X144690000Y-66990000D03*
D15*
X142910000Y-63560000D03*
X130210000Y-63560000D03*
D13*
X140112000Y-67880000D03*
X138080000Y-67880000D03*
X136048000Y-67880000D03*
X134016000Y-67880000D03*
X139096000Y-66100000D03*
X137064000Y-66100000D03*
X135032000Y-66100000D03*
D16*
X133000000Y-66100000D03*
%TD*%
D17*
%TO.C,REF\u002A\u002A*%
X198100000Y-131297400D03*
X198100000Y-127297400D03*
X198100000Y-130297400D03*
X198100000Y-128297400D03*
X198100000Y-129297400D03*
%TD*%
%TO.C,REF\u002A\u002A*%
X146500000Y-131297400D03*
X146500000Y-127297400D03*
X146500000Y-130297400D03*
X146500000Y-128297400D03*
X146500000Y-129297400D03*
%TD*%
%TO.C,REF\u002A\u002A*%
X94900000Y-131297400D03*
X94900000Y-127297400D03*
X94900000Y-130297400D03*
X94900000Y-128297400D03*
X94900000Y-129297400D03*
%TD*%
%TO.C,REF\u002A\u002A*%
X198100000Y-100297400D03*
X198100000Y-96297400D03*
X198100000Y-99297400D03*
X198100000Y-97297400D03*
X198100000Y-98297400D03*
%TD*%
%TO.C,REF\u002A\u002A*%
X146500000Y-100297400D03*
X146500000Y-96297400D03*
X146500000Y-99297400D03*
X146500000Y-97297400D03*
X146500000Y-98297400D03*
%TD*%
%TO.C,REF\u002A\u002A*%
X94900000Y-100297400D03*
X94900000Y-96297400D03*
X94900000Y-99297400D03*
X94900000Y-97297400D03*
X94900000Y-98297400D03*
%TD*%
%TO.C,REF\u002A\u002A*%
X198100000Y-69297400D03*
X198100000Y-65297400D03*
X198100000Y-68297400D03*
X198100000Y-66297400D03*
X198100000Y-67297400D03*
%TD*%
%TO.C,REF\u002A\u002A*%
X146500000Y-69297400D03*
X146500000Y-65297400D03*
X146500000Y-68297400D03*
X146500000Y-66297400D03*
X146500000Y-67297400D03*
%TD*%
%TO.C,REF\u002A\u002A*%
X178300000Y-127246600D03*
X178300000Y-131246600D03*
X178300000Y-128246600D03*
X178300000Y-130246600D03*
X178300000Y-129246600D03*
%TD*%
%TO.C,REF\u002A\u002A*%
X126700000Y-127246600D03*
X126700000Y-131246600D03*
X126700000Y-128246600D03*
X126700000Y-130246600D03*
X126700000Y-129246600D03*
%TD*%
%TO.C,REF\u002A\u002A*%
X75100000Y-127246600D03*
X75100000Y-131246600D03*
X75100000Y-128246600D03*
X75100000Y-130246600D03*
X75100000Y-129246600D03*
%TD*%
%TO.C,REF\u002A\u002A*%
X178300000Y-96246600D03*
X178300000Y-100246600D03*
X178300000Y-97246600D03*
X178300000Y-99246600D03*
X178300000Y-98246600D03*
%TD*%
%TO.C,REF\u002A\u002A*%
X126700000Y-96246600D03*
X126700000Y-100246600D03*
X126700000Y-97246600D03*
X126700000Y-99246600D03*
X126700000Y-98246600D03*
%TD*%
%TO.C,REF\u002A\u002A*%
X75100000Y-96246600D03*
X75100000Y-100246600D03*
X75100000Y-97246600D03*
X75100000Y-99246600D03*
X75100000Y-98246600D03*
%TD*%
%TO.C,REF\u002A\u002A*%
X178300000Y-65246600D03*
X178300000Y-69246600D03*
X178300000Y-66246600D03*
X178300000Y-68246600D03*
X178300000Y-67246600D03*
%TD*%
%TO.C,REF\u002A\u002A*%
X126700000Y-65246600D03*
X126700000Y-69246600D03*
X126700000Y-66246600D03*
X126700000Y-68246600D03*
X126700000Y-67246600D03*
%TD*%
%TO.C,REF\u002A\u002A*%
X178350000Y-116300000D03*
X178350000Y-117300000D03*
X178350000Y-115300000D03*
X178350000Y-118300000D03*
X178350000Y-114300000D03*
%TD*%
%TO.C,REF\u002A\u002A*%
X126750000Y-116300000D03*
X126750000Y-117300000D03*
X126750000Y-115300000D03*
X126750000Y-118300000D03*
X126750000Y-114300000D03*
%TD*%
%TO.C,REF\u002A\u002A*%
X75150000Y-116300000D03*
X75150000Y-117300000D03*
X75150000Y-115300000D03*
X75150000Y-118300000D03*
X75150000Y-114300000D03*
%TD*%
%TO.C,REF\u002A\u002A*%
X178350000Y-85300000D03*
X178350000Y-86300000D03*
X178350000Y-84300000D03*
X178350000Y-87300000D03*
X178350000Y-83300000D03*
%TD*%
%TO.C,REF\u002A\u002A*%
X126750000Y-85300000D03*
X126750000Y-86300000D03*
X126750000Y-84300000D03*
X126750000Y-87300000D03*
X126750000Y-83300000D03*
%TD*%
%TO.C,REF\u002A\u002A*%
X75150000Y-85300000D03*
X75150000Y-86300000D03*
X75150000Y-84300000D03*
X75150000Y-87300000D03*
X75150000Y-83300000D03*
%TD*%
%TO.C,REF\u002A\u002A*%
X178350000Y-54300000D03*
X178350000Y-55300000D03*
X178350000Y-53300000D03*
X178350000Y-56300000D03*
X178350000Y-52300000D03*
%TD*%
%TO.C,REF\u002A\u002A*%
X126750000Y-54300000D03*
X126750000Y-55300000D03*
X126750000Y-53300000D03*
X126750000Y-56300000D03*
X126750000Y-52300000D03*
%TD*%
%TO.C,REF\u002A\u002A*%
X186778200Y-143241000D03*
X190778200Y-143241000D03*
X187778200Y-143241000D03*
X189778200Y-143241000D03*
X188778200Y-143241000D03*
%TD*%
%TO.C,REF\u002A\u002A*%
X135178200Y-143241000D03*
X139178200Y-143241000D03*
X136178200Y-143241000D03*
X138178200Y-143241000D03*
X137178200Y-143241000D03*
%TD*%
%TO.C,REF\u002A\u002A*%
X83578200Y-143241000D03*
X87578200Y-143241000D03*
X84578200Y-143241000D03*
X86578200Y-143241000D03*
X85578200Y-143241000D03*
%TD*%
%TO.C,REF\u002A\u002A*%
X186778200Y-112241000D03*
X190778200Y-112241000D03*
X187778200Y-112241000D03*
X189778200Y-112241000D03*
X188778200Y-112241000D03*
%TD*%
%TO.C,REF\u002A\u002A*%
X135178200Y-112241000D03*
X139178200Y-112241000D03*
X136178200Y-112241000D03*
X138178200Y-112241000D03*
X137178200Y-112241000D03*
%TD*%
%TO.C,REF\u002A\u002A*%
X83578200Y-112241000D03*
X87578200Y-112241000D03*
X84578200Y-112241000D03*
X86578200Y-112241000D03*
X85578200Y-112241000D03*
%TD*%
%TO.C,REF\u002A\u002A*%
X186778200Y-81241000D03*
X190778200Y-81241000D03*
X187778200Y-81241000D03*
X189778200Y-81241000D03*
X188778200Y-81241000D03*
%TD*%
%TO.C,REF\u002A\u002A*%
X135178200Y-81241000D03*
X139178200Y-81241000D03*
X136178200Y-81241000D03*
X138178200Y-81241000D03*
X137178200Y-81241000D03*
%TD*%
%TO.C,REF\u002A\u002A*%
X198100000Y-118300000D03*
X198100000Y-114300000D03*
X198100000Y-117300000D03*
X198100000Y-115300000D03*
X198100000Y-116300000D03*
%TD*%
%TO.C,REF\u002A\u002A*%
X146500000Y-118300000D03*
X146500000Y-114300000D03*
X146500000Y-117300000D03*
X146500000Y-115300000D03*
X146500000Y-116300000D03*
%TD*%
%TO.C,REF\u002A\u002A*%
X94900000Y-118300000D03*
X94900000Y-114300000D03*
X94900000Y-117300000D03*
X94900000Y-115300000D03*
X94900000Y-116300000D03*
%TD*%
%TO.C,REF\u002A\u002A*%
X198100000Y-87300000D03*
X198100000Y-83300000D03*
X198100000Y-86300000D03*
X198100000Y-84300000D03*
X198100000Y-85300000D03*
%TD*%
%TO.C,REF\u002A\u002A*%
X146500000Y-87300000D03*
X146500000Y-83300000D03*
X146500000Y-86300000D03*
X146500000Y-84300000D03*
X146500000Y-85300000D03*
%TD*%
%TO.C,REF\u002A\u002A*%
X94900000Y-87300000D03*
X94900000Y-83300000D03*
X94900000Y-86300000D03*
X94900000Y-84300000D03*
X94900000Y-85300000D03*
%TD*%
%TO.C,REF\u002A\u002A*%
X198100000Y-56300000D03*
X198100000Y-52300000D03*
X198100000Y-55300000D03*
X198100000Y-53300000D03*
X198100000Y-54300000D03*
%TD*%
%TO.C,REF\u002A\u002A*%
X146500000Y-56300000D03*
X146500000Y-52300000D03*
X146500000Y-55300000D03*
X146500000Y-53300000D03*
X146500000Y-54300000D03*
%TD*%
%TO.C,REF\u002A\u002A*%
X190321000Y-119527000D03*
X186321000Y-119527000D03*
X189321000Y-119527000D03*
X187321000Y-119527000D03*
X188321000Y-119527000D03*
%TD*%
%TO.C,REF\u002A\u002A*%
X138721000Y-119527000D03*
X134721000Y-119527000D03*
X137721000Y-119527000D03*
X135721000Y-119527000D03*
X136721000Y-119527000D03*
%TD*%
%TO.C,REF\u002A\u002A*%
X87121000Y-119527000D03*
X83121000Y-119527000D03*
X86121000Y-119527000D03*
X84121000Y-119527000D03*
X85121000Y-119527000D03*
%TD*%
%TO.C,REF\u002A\u002A*%
X190321000Y-88527000D03*
X186321000Y-88527000D03*
X189321000Y-88527000D03*
X187321000Y-88527000D03*
X188321000Y-88527000D03*
%TD*%
%TO.C,REF\u002A\u002A*%
X138721000Y-88527000D03*
X134721000Y-88527000D03*
X137721000Y-88527000D03*
X135721000Y-88527000D03*
X136721000Y-88527000D03*
%TD*%
%TO.C,REF\u002A\u002A*%
X87121000Y-88527000D03*
X83121000Y-88527000D03*
X86121000Y-88527000D03*
X84121000Y-88527000D03*
X85121000Y-88527000D03*
%TD*%
%TO.C,REF\u002A\u002A*%
X190321000Y-57527000D03*
X186321000Y-57527000D03*
X189321000Y-57527000D03*
X187321000Y-57527000D03*
X188321000Y-57527000D03*
%TD*%
%TO.C,REF\u002A\u002A*%
X138721000Y-57527000D03*
X134721000Y-57527000D03*
X137721000Y-57527000D03*
X135721000Y-57527000D03*
X136721000Y-57527000D03*
%TD*%
D12*
%TO.C,J5*%
X90416000Y-79152000D03*
X90416000Y-76612000D03*
X87876000Y-79152000D03*
X87876000Y-76612000D03*
X85336000Y-79152000D03*
X85336000Y-76612000D03*
X82796000Y-79152000D03*
X82796000Y-76612000D03*
X80256000Y-79152000D03*
D11*
X80256000Y-76612000D03*
%TD*%
D17*
%TO.C,REF\u002A\u002A*%
X178450000Y-147200000D03*
X178450000Y-148200000D03*
X178450000Y-146200000D03*
X178450000Y-149200000D03*
X178450000Y-145200000D03*
%TD*%
%TO.C,REF\u002A\u002A*%
X126800000Y-147200000D03*
X126800000Y-148200000D03*
X126800000Y-146200000D03*
X126800000Y-149200000D03*
X126800000Y-145200000D03*
%TD*%
%TO.C,REF\u002A\u002A*%
X198150000Y-147100000D03*
X198150000Y-146100000D03*
X198150000Y-148100000D03*
X198150000Y-145100000D03*
X198150000Y-149100000D03*
%TD*%
%TO.C,REF\u002A\u002A*%
X146500000Y-147100000D03*
X146500000Y-146100000D03*
X146500000Y-148100000D03*
X146500000Y-145100000D03*
X146500000Y-149100000D03*
%TD*%
%TO.C,R9*%
G36*
G01*
X164131300Y-137240200D02*
X163656300Y-137240200D01*
G75*
G02*
X163418800Y-137002700I0J237500D01*
G01*
X163418800Y-136502700D01*
G75*
G02*
X163656300Y-136265200I237500J0D01*
G01*
X164131300Y-136265200D01*
G75*
G02*
X164368800Y-136502700I0J-237500D01*
G01*
X164368800Y-137002700D01*
G75*
G02*
X164131300Y-137240200I-237500J0D01*
G01*
G37*
G36*
G01*
X164131300Y-139065200D02*
X163656300Y-139065200D01*
G75*
G02*
X163418800Y-138827700I0J237500D01*
G01*
X163418800Y-138327700D01*
G75*
G02*
X163656300Y-138090200I237500J0D01*
G01*
X164131300Y-138090200D01*
G75*
G02*
X164368800Y-138327700I0J-237500D01*
G01*
X164368800Y-138827700D01*
G75*
G02*
X164131300Y-139065200I-237500J0D01*
G01*
G37*
%TD*%
%TO.C,R9*%
G36*
G01*
X112481300Y-137240200D02*
X112006300Y-137240200D01*
G75*
G02*
X111768800Y-137002700I0J237500D01*
G01*
X111768800Y-136502700D01*
G75*
G02*
X112006300Y-136265200I237500J0D01*
G01*
X112481300Y-136265200D01*
G75*
G02*
X112718800Y-136502700I0J-237500D01*
G01*
X112718800Y-137002700D01*
G75*
G02*
X112481300Y-137240200I-237500J0D01*
G01*
G37*
G36*
G01*
X112481300Y-139065200D02*
X112006300Y-139065200D01*
G75*
G02*
X111768800Y-138827700I0J237500D01*
G01*
X111768800Y-138327700D01*
G75*
G02*
X112006300Y-138090200I237500J0D01*
G01*
X112481300Y-138090200D01*
G75*
G02*
X112718800Y-138327700I0J-237500D01*
G01*
X112718800Y-138827700D01*
G75*
G02*
X112481300Y-139065200I-237500J0D01*
G01*
G37*
%TD*%
%TO.C,R10*%
G36*
G01*
X166925300Y-130937200D02*
X166450300Y-130937200D01*
G75*
G02*
X166212800Y-130699700I0J237500D01*
G01*
X166212800Y-130199700D01*
G75*
G02*
X166450300Y-129962200I237500J0D01*
G01*
X166925300Y-129962200D01*
G75*
G02*
X167162800Y-130199700I0J-237500D01*
G01*
X167162800Y-130699700D01*
G75*
G02*
X166925300Y-130937200I-237500J0D01*
G01*
G37*
G36*
G01*
X166925300Y-129112200D02*
X166450300Y-129112200D01*
G75*
G02*
X166212800Y-128874700I0J237500D01*
G01*
X166212800Y-128374700D01*
G75*
G02*
X166450300Y-128137200I237500J0D01*
G01*
X166925300Y-128137200D01*
G75*
G02*
X167162800Y-128374700I0J-237500D01*
G01*
X167162800Y-128874700D01*
G75*
G02*
X166925300Y-129112200I-237500J0D01*
G01*
G37*
%TD*%
%TO.C,R10*%
G36*
G01*
X115275300Y-130937200D02*
X114800300Y-130937200D01*
G75*
G02*
X114562800Y-130699700I0J237500D01*
G01*
X114562800Y-130199700D01*
G75*
G02*
X114800300Y-129962200I237500J0D01*
G01*
X115275300Y-129962200D01*
G75*
G02*
X115512800Y-130199700I0J-237500D01*
G01*
X115512800Y-130699700D01*
G75*
G02*
X115275300Y-130937200I-237500J0D01*
G01*
G37*
G36*
G01*
X115275300Y-129112200D02*
X114800300Y-129112200D01*
G75*
G02*
X114562800Y-128874700I0J237500D01*
G01*
X114562800Y-128374700D01*
G75*
G02*
X114800300Y-128137200I237500J0D01*
G01*
X115275300Y-128137200D01*
G75*
G02*
X115512800Y-128374700I0J-237500D01*
G01*
X115512800Y-128874700D01*
G75*
G02*
X115275300Y-129112200I-237500J0D01*
G01*
G37*
%TD*%
%TO.C,R21*%
G36*
G01*
X164131300Y-123270200D02*
X163656300Y-123270200D01*
G75*
G02*
X163418800Y-123032700I0J237500D01*
G01*
X163418800Y-122532700D01*
G75*
G02*
X163656300Y-122295200I237500J0D01*
G01*
X164131300Y-122295200D01*
G75*
G02*
X164368800Y-122532700I0J-237500D01*
G01*
X164368800Y-123032700D01*
G75*
G02*
X164131300Y-123270200I-237500J0D01*
G01*
G37*
G36*
G01*
X164131300Y-125095200D02*
X163656300Y-125095200D01*
G75*
G02*
X163418800Y-124857700I0J237500D01*
G01*
X163418800Y-124357700D01*
G75*
G02*
X163656300Y-124120200I237500J0D01*
G01*
X164131300Y-124120200D01*
G75*
G02*
X164368800Y-124357700I0J-237500D01*
G01*
X164368800Y-124857700D01*
G75*
G02*
X164131300Y-125095200I-237500J0D01*
G01*
G37*
%TD*%
%TO.C,R21*%
G36*
G01*
X112481300Y-123270200D02*
X112006300Y-123270200D01*
G75*
G02*
X111768800Y-123032700I0J237500D01*
G01*
X111768800Y-122532700D01*
G75*
G02*
X112006300Y-122295200I237500J0D01*
G01*
X112481300Y-122295200D01*
G75*
G02*
X112718800Y-122532700I0J-237500D01*
G01*
X112718800Y-123032700D01*
G75*
G02*
X112481300Y-123270200I-237500J0D01*
G01*
G37*
G36*
G01*
X112481300Y-125095200D02*
X112006300Y-125095200D01*
G75*
G02*
X111768800Y-124857700I0J237500D01*
G01*
X111768800Y-124357700D01*
G75*
G02*
X112006300Y-124120200I237500J0D01*
G01*
X112481300Y-124120200D01*
G75*
G02*
X112718800Y-124357700I0J-237500D01*
G01*
X112718800Y-124857700D01*
G75*
G02*
X112481300Y-125095200I-237500J0D01*
G01*
G37*
%TD*%
D18*
%TO.C,Q2*%
X159718800Y-138300200D03*
X161718800Y-137350200D03*
X161718800Y-139250200D03*
%TD*%
%TO.C,Q2*%
X108068800Y-138300200D03*
X110068800Y-137350200D03*
X110068800Y-139250200D03*
%TD*%
%TO.C,Q4*%
X161718800Y-134424200D03*
X161718800Y-132524200D03*
X159718800Y-133474200D03*
%TD*%
%TO.C,Q4*%
X110068800Y-134424200D03*
X110068800Y-132524200D03*
X108068800Y-133474200D03*
%TD*%
%TO.C,R8*%
G36*
G01*
X167052300Y-139192200D02*
X166577300Y-139192200D01*
G75*
G02*
X166339800Y-138954700I0J237500D01*
G01*
X166339800Y-138454700D01*
G75*
G02*
X166577300Y-138217200I237500J0D01*
G01*
X167052300Y-138217200D01*
G75*
G02*
X167289800Y-138454700I0J-237500D01*
G01*
X167289800Y-138954700D01*
G75*
G02*
X167052300Y-139192200I-237500J0D01*
G01*
G37*
G36*
G01*
X167052300Y-137367200D02*
X166577300Y-137367200D01*
G75*
G02*
X166339800Y-137129700I0J237500D01*
G01*
X166339800Y-136629700D01*
G75*
G02*
X166577300Y-136392200I237500J0D01*
G01*
X167052300Y-136392200D01*
G75*
G02*
X167289800Y-136629700I0J-237500D01*
G01*
X167289800Y-137129700D01*
G75*
G02*
X167052300Y-137367200I-237500J0D01*
G01*
G37*
%TD*%
%TO.C,R8*%
G36*
G01*
X115402300Y-139192200D02*
X114927300Y-139192200D01*
G75*
G02*
X114689800Y-138954700I0J237500D01*
G01*
X114689800Y-138454700D01*
G75*
G02*
X114927300Y-138217200I237500J0D01*
G01*
X115402300Y-138217200D01*
G75*
G02*
X115639800Y-138454700I0J-237500D01*
G01*
X115639800Y-138954700D01*
G75*
G02*
X115402300Y-139192200I-237500J0D01*
G01*
G37*
G36*
G01*
X115402300Y-137367200D02*
X114927300Y-137367200D01*
G75*
G02*
X114689800Y-137129700I0J237500D01*
G01*
X114689800Y-136629700D01*
G75*
G02*
X114927300Y-136392200I237500J0D01*
G01*
X115402300Y-136392200D01*
G75*
G02*
X115639800Y-136629700I0J-237500D01*
G01*
X115639800Y-137129700D01*
G75*
G02*
X115402300Y-137367200I-237500J0D01*
G01*
G37*
%TD*%
%TO.C,Q3*%
X159718800Y-128648200D03*
X161718800Y-127698200D03*
X161718800Y-129598200D03*
%TD*%
%TO.C,Q3*%
X108068800Y-128648200D03*
X110068800Y-127698200D03*
X110068800Y-129598200D03*
%TD*%
%TO.C,R20*%
G36*
G01*
X166925300Y-126492200D02*
X166450300Y-126492200D01*
G75*
G02*
X166212800Y-126254700I0J237500D01*
G01*
X166212800Y-125754700D01*
G75*
G02*
X166450300Y-125517200I237500J0D01*
G01*
X166925300Y-125517200D01*
G75*
G02*
X167162800Y-125754700I0J-237500D01*
G01*
X167162800Y-126254700D01*
G75*
G02*
X166925300Y-126492200I-237500J0D01*
G01*
G37*
G36*
G01*
X166925300Y-124667200D02*
X166450300Y-124667200D01*
G75*
G02*
X166212800Y-124429700I0J237500D01*
G01*
X166212800Y-123929700D01*
G75*
G02*
X166450300Y-123692200I237500J0D01*
G01*
X166925300Y-123692200D01*
G75*
G02*
X167162800Y-123929700I0J-237500D01*
G01*
X167162800Y-124429700D01*
G75*
G02*
X166925300Y-124667200I-237500J0D01*
G01*
G37*
%TD*%
%TO.C,R20*%
G36*
G01*
X115275300Y-126492200D02*
X114800300Y-126492200D01*
G75*
G02*
X114562800Y-126254700I0J237500D01*
G01*
X114562800Y-125754700D01*
G75*
G02*
X114800300Y-125517200I237500J0D01*
G01*
X115275300Y-125517200D01*
G75*
G02*
X115512800Y-125754700I0J-237500D01*
G01*
X115512800Y-126254700D01*
G75*
G02*
X115275300Y-126492200I-237500J0D01*
G01*
G37*
G36*
G01*
X115275300Y-124667200D02*
X114800300Y-124667200D01*
G75*
G02*
X114562800Y-124429700I0J237500D01*
G01*
X114562800Y-123929700D01*
G75*
G02*
X114800300Y-123692200I237500J0D01*
G01*
X115275300Y-123692200D01*
G75*
G02*
X115512800Y-123929700I0J-237500D01*
G01*
X115512800Y-124429700D01*
G75*
G02*
X115275300Y-124667200I-237500J0D01*
G01*
G37*
%TD*%
D17*
%TO.C,REF\u002A\u002A*%
X154651300Y-130998700D03*
X154651300Y-131998700D03*
X154651300Y-129998700D03*
X154651300Y-132998700D03*
X154651300Y-128998700D03*
%TD*%
%TO.C,REF\u002A\u002A*%
X103001300Y-130998700D03*
X103001300Y-131998700D03*
X103001300Y-129998700D03*
X103001300Y-132998700D03*
X103001300Y-128998700D03*
%TD*%
D19*
%TO.C,~*%
X156555801Y-140479201D03*
D20*
X169255801Y-140479201D03*
D19*
X156555801Y-137939201D03*
X169255801Y-137939201D03*
X156555801Y-135399201D03*
X169255801Y-135399201D03*
X156555801Y-132859201D03*
X169255801Y-132859201D03*
X156555801Y-130319201D03*
X169255801Y-130319201D03*
X156555801Y-127779201D03*
X169255801Y-127779201D03*
X156555801Y-125239201D03*
X169255801Y-125239201D03*
X156555801Y-122699201D03*
X169255801Y-122699201D03*
D21*
X166715801Y-140479201D03*
X164175801Y-140479201D03*
%TD*%
D19*
%TO.C,~*%
X104905801Y-140479201D03*
D20*
X117605801Y-140479201D03*
D19*
X104905801Y-137939201D03*
X117605801Y-137939201D03*
X104905801Y-135399201D03*
X117605801Y-135399201D03*
X104905801Y-132859201D03*
X117605801Y-132859201D03*
X104905801Y-130319201D03*
X117605801Y-130319201D03*
X104905801Y-127779201D03*
X117605801Y-127779201D03*
X104905801Y-125239201D03*
X117605801Y-125239201D03*
X104905801Y-122699201D03*
X117605801Y-122699201D03*
D21*
X115065801Y-140479201D03*
X112525801Y-140479201D03*
%TD*%
D17*
%TO.C,REF\u002A\u002A*%
X162694500Y-120210700D03*
X161694500Y-120210700D03*
X163694500Y-120210700D03*
X160694500Y-120210700D03*
X164694500Y-120210700D03*
%TD*%
%TO.C,REF\u002A\u002A*%
X111044500Y-120210700D03*
X110044500Y-120210700D03*
X112044500Y-120210700D03*
X109044500Y-120210700D03*
X113044500Y-120210700D03*
%TD*%
D18*
%TO.C,Q5*%
X161734800Y-124711200D03*
X161734800Y-122811200D03*
X159734800Y-123761200D03*
%TD*%
%TO.C,Q5*%
X110084800Y-124711200D03*
X110084800Y-122811200D03*
X108084800Y-123761200D03*
%TD*%
%TO.C,R19*%
G36*
G01*
X164131300Y-132541200D02*
X163656300Y-132541200D01*
G75*
G02*
X163418800Y-132303700I0J237500D01*
G01*
X163418800Y-131803700D01*
G75*
G02*
X163656300Y-131566200I237500J0D01*
G01*
X164131300Y-131566200D01*
G75*
G02*
X164368800Y-131803700I0J-237500D01*
G01*
X164368800Y-132303700D01*
G75*
G02*
X164131300Y-132541200I-237500J0D01*
G01*
G37*
G36*
G01*
X164131300Y-134366200D02*
X163656300Y-134366200D01*
G75*
G02*
X163418800Y-134128700I0J237500D01*
G01*
X163418800Y-133628700D01*
G75*
G02*
X163656300Y-133391200I237500J0D01*
G01*
X164131300Y-133391200D01*
G75*
G02*
X164368800Y-133628700I0J-237500D01*
G01*
X164368800Y-134128700D01*
G75*
G02*
X164131300Y-134366200I-237500J0D01*
G01*
G37*
%TD*%
%TO.C,R19*%
G36*
G01*
X112481300Y-132541200D02*
X112006300Y-132541200D01*
G75*
G02*
X111768800Y-132303700I0J237500D01*
G01*
X111768800Y-131803700D01*
G75*
G02*
X112006300Y-131566200I237500J0D01*
G01*
X112481300Y-131566200D01*
G75*
G02*
X112718800Y-131803700I0J-237500D01*
G01*
X112718800Y-132303700D01*
G75*
G02*
X112481300Y-132541200I-237500J0D01*
G01*
G37*
G36*
G01*
X112481300Y-134366200D02*
X112006300Y-134366200D01*
G75*
G02*
X111768800Y-134128700I0J237500D01*
G01*
X111768800Y-133628700D01*
G75*
G02*
X112006300Y-133391200I237500J0D01*
G01*
X112481300Y-133391200D01*
G75*
G02*
X112718800Y-133628700I0J-237500D01*
G01*
X112718800Y-134128700D01*
G75*
G02*
X112481300Y-134366200I-237500J0D01*
G01*
G37*
%TD*%
%TO.C,R18*%
G36*
G01*
X166925300Y-135509200D02*
X166450300Y-135509200D01*
G75*
G02*
X166212800Y-135271700I0J237500D01*
G01*
X166212800Y-134771700D01*
G75*
G02*
X166450300Y-134534200I237500J0D01*
G01*
X166925300Y-134534200D01*
G75*
G02*
X167162800Y-134771700I0J-237500D01*
G01*
X167162800Y-135271700D01*
G75*
G02*
X166925300Y-135509200I-237500J0D01*
G01*
G37*
G36*
G01*
X166925300Y-133684200D02*
X166450300Y-133684200D01*
G75*
G02*
X166212800Y-133446700I0J237500D01*
G01*
X166212800Y-132946700D01*
G75*
G02*
X166450300Y-132709200I237500J0D01*
G01*
X166925300Y-132709200D01*
G75*
G02*
X167162800Y-132946700I0J-237500D01*
G01*
X167162800Y-133446700D01*
G75*
G02*
X166925300Y-133684200I-237500J0D01*
G01*
G37*
%TD*%
%TO.C,R18*%
G36*
G01*
X115275300Y-135509200D02*
X114800300Y-135509200D01*
G75*
G02*
X114562800Y-135271700I0J237500D01*
G01*
X114562800Y-134771700D01*
G75*
G02*
X114800300Y-134534200I237500J0D01*
G01*
X115275300Y-134534200D01*
G75*
G02*
X115512800Y-134771700I0J-237500D01*
G01*
X115512800Y-135271700D01*
G75*
G02*
X115275300Y-135509200I-237500J0D01*
G01*
G37*
G36*
G01*
X115275300Y-133684200D02*
X114800300Y-133684200D01*
G75*
G02*
X114562800Y-133446700I0J237500D01*
G01*
X114562800Y-132946700D01*
G75*
G02*
X114800300Y-132709200I237500J0D01*
G01*
X115275300Y-132709200D01*
G75*
G02*
X115512800Y-132946700I0J-237500D01*
G01*
X115512800Y-133446700D01*
G75*
G02*
X115275300Y-133684200I-237500J0D01*
G01*
G37*
%TD*%
%TO.C,R17*%
G36*
G01*
X164131300Y-127715200D02*
X163656300Y-127715200D01*
G75*
G02*
X163418800Y-127477700I0J237500D01*
G01*
X163418800Y-126977700D01*
G75*
G02*
X163656300Y-126740200I237500J0D01*
G01*
X164131300Y-126740200D01*
G75*
G02*
X164368800Y-126977700I0J-237500D01*
G01*
X164368800Y-127477700D01*
G75*
G02*
X164131300Y-127715200I-237500J0D01*
G01*
G37*
G36*
G01*
X164131300Y-129540200D02*
X163656300Y-129540200D01*
G75*
G02*
X163418800Y-129302700I0J237500D01*
G01*
X163418800Y-128802700D01*
G75*
G02*
X163656300Y-128565200I237500J0D01*
G01*
X164131300Y-128565200D01*
G75*
G02*
X164368800Y-128802700I0J-237500D01*
G01*
X164368800Y-129302700D01*
G75*
G02*
X164131300Y-129540200I-237500J0D01*
G01*
G37*
%TD*%
%TO.C,R17*%
G36*
G01*
X112481300Y-127715200D02*
X112006300Y-127715200D01*
G75*
G02*
X111768800Y-127477700I0J237500D01*
G01*
X111768800Y-126977700D01*
G75*
G02*
X112006300Y-126740200I237500J0D01*
G01*
X112481300Y-126740200D01*
G75*
G02*
X112718800Y-126977700I0J-237500D01*
G01*
X112718800Y-127477700D01*
G75*
G02*
X112481300Y-127715200I-237500J0D01*
G01*
G37*
G36*
G01*
X112481300Y-129540200D02*
X112006300Y-129540200D01*
G75*
G02*
X111768800Y-129302700I0J237500D01*
G01*
X111768800Y-128802700D01*
G75*
G02*
X112006300Y-128565200I237500J0D01*
G01*
X112481300Y-128565200D01*
G75*
G02*
X112718800Y-128802700I0J-237500D01*
G01*
X112718800Y-129302700D01*
G75*
G02*
X112481300Y-129540200I-237500J0D01*
G01*
G37*
%TD*%
D17*
%TO.C,REF\u002A\u002A*%
X171300000Y-131136800D03*
X171300000Y-130136800D03*
X171300000Y-132136800D03*
X171300000Y-129136800D03*
X171300000Y-133136800D03*
%TD*%
%TO.C,REF\u002A\u002A*%
X119650000Y-131136800D03*
X119650000Y-130136800D03*
X119650000Y-132136800D03*
X119650000Y-129136800D03*
X119650000Y-133136800D03*
%TD*%
%TO.C,REF\u002A\u002A*%
X154600000Y-145150000D03*
X154600000Y-149150000D03*
X154600000Y-146150000D03*
X154600000Y-148150000D03*
X154600000Y-147150000D03*
%TD*%
%TO.C,REF\u002A\u002A*%
X102950000Y-145150000D03*
X102950000Y-149150000D03*
X102950000Y-146150000D03*
X102950000Y-148150000D03*
X102950000Y-147150000D03*
%TD*%
%TO.C,REF\u002A\u002A*%
X162910400Y-143040800D03*
X163910400Y-143040800D03*
X161910400Y-143040800D03*
X164910400Y-143040800D03*
X160910400Y-143040800D03*
%TD*%
%TO.C,REF\u002A\u002A*%
X111260400Y-143040800D03*
X112260400Y-143040800D03*
X110260400Y-143040800D03*
X113260400Y-143040800D03*
X109260400Y-143040800D03*
%TD*%
%TO.C,REF\u002A\u002A*%
X171300000Y-149150000D03*
X171300000Y-145150000D03*
X171300000Y-148150000D03*
X171300000Y-146150000D03*
X171300000Y-147150000D03*
%TD*%
%TO.C,REF\u002A\u002A*%
X119650000Y-149150000D03*
X119650000Y-145150000D03*
X119650000Y-148150000D03*
X119650000Y-146150000D03*
X119650000Y-147150000D03*
%TD*%
%TO.C,REF\u002A\u002A*%
X154600000Y-52250000D03*
X154600000Y-56250000D03*
X154600000Y-53250000D03*
X154600000Y-55250000D03*
X154600000Y-54250000D03*
%TD*%
%TO.C,REF\u002A\u002A*%
X102950000Y-52250000D03*
X102950000Y-56250000D03*
X102950000Y-53250000D03*
X102950000Y-55250000D03*
X102950000Y-54250000D03*
%TD*%
%TO.C,REF\u002A\u002A*%
X171300000Y-85150000D03*
X171300000Y-84150000D03*
X171300000Y-86150000D03*
X171300000Y-83150000D03*
X171300000Y-87150000D03*
%TD*%
%TO.C,REF\u002A\u002A*%
X119650000Y-85150000D03*
X119650000Y-84150000D03*
X119650000Y-86150000D03*
X119650000Y-83150000D03*
X119650000Y-87150000D03*
%TD*%
%TO.C,REF\u002A\u002A*%
X171300000Y-56350000D03*
X171300000Y-52350000D03*
X171300000Y-55350000D03*
X171300000Y-53350000D03*
X171300000Y-54350000D03*
%TD*%
%TO.C,REF\u002A\u002A*%
X119650000Y-56350000D03*
X119650000Y-52350000D03*
X119650000Y-55350000D03*
X119650000Y-53350000D03*
X119650000Y-54350000D03*
%TD*%
%TO.C,REF\u002A\u002A*%
X171300000Y-116150000D03*
X171300000Y-115150000D03*
X171300000Y-117150000D03*
X171300000Y-114150000D03*
X171300000Y-118150000D03*
%TD*%
%TO.C,REF\u002A\u002A*%
X119650000Y-116150000D03*
X119650000Y-115150000D03*
X119650000Y-117150000D03*
X119650000Y-114150000D03*
X119650000Y-118150000D03*
%TD*%
%TO.C,REF\u002A\u002A*%
X154709700Y-69214700D03*
X154709700Y-70214700D03*
X154709700Y-68214700D03*
X154709700Y-71214700D03*
X154709700Y-67214700D03*
%TD*%
%TO.C,REF\u002A\u002A*%
X103059700Y-69214700D03*
X103059700Y-70214700D03*
X103059700Y-68214700D03*
X103059700Y-71214700D03*
X103059700Y-67214700D03*
%TD*%
%TO.C,REF\u002A\u002A*%
X171400000Y-69250000D03*
X171400000Y-68250000D03*
X171400000Y-70250000D03*
X171400000Y-67250000D03*
X171400000Y-71250000D03*
%TD*%
%TO.C,REF\u002A\u002A*%
X119750000Y-69250000D03*
X119750000Y-68250000D03*
X119750000Y-70250000D03*
X119750000Y-67250000D03*
X119750000Y-71250000D03*
%TD*%
%TO.C,REF\u002A\u002A*%
X162752900Y-58326700D03*
X161752900Y-58326700D03*
X163752900Y-58326700D03*
X160752900Y-58326700D03*
X164752900Y-58326700D03*
%TD*%
%TO.C,REF\u002A\u002A*%
X111102900Y-58326700D03*
X110102900Y-58326700D03*
X112102900Y-58326700D03*
X109102900Y-58326700D03*
X113102900Y-58326700D03*
%TD*%
D21*
%TO.C,J3*%
X166787800Y-78616400D03*
X164247800Y-78616400D03*
X164247800Y-78616400D03*
D19*
X169327800Y-60836400D03*
X156627800Y-60836400D03*
X169327800Y-63376400D03*
X156627800Y-63376400D03*
X169327800Y-65916400D03*
X156627800Y-65916400D03*
X169327800Y-68456400D03*
X156627800Y-68456400D03*
X169327800Y-70996400D03*
X156627800Y-70996400D03*
X169327800Y-73536400D03*
X156627800Y-73536400D03*
X169327800Y-76076400D03*
X156627800Y-76076400D03*
D20*
X169327800Y-78616400D03*
D19*
X156627800Y-78616400D03*
%TD*%
D21*
%TO.C,J3*%
X115137800Y-78616400D03*
X112597800Y-78616400D03*
X112597800Y-78616400D03*
D19*
X117677800Y-60836400D03*
X104977800Y-60836400D03*
X117677800Y-63376400D03*
X104977800Y-63376400D03*
X117677800Y-65916400D03*
X104977800Y-65916400D03*
X117677800Y-68456400D03*
X104977800Y-68456400D03*
X117677800Y-70996400D03*
X104977800Y-70996400D03*
X117677800Y-73536400D03*
X104977800Y-73536400D03*
X117677800Y-76076400D03*
X104977800Y-76076400D03*
D20*
X117677800Y-78616400D03*
D19*
X104977800Y-78616400D03*
%TD*%
D17*
%TO.C,REF\u002A\u002A*%
X162968800Y-81156800D03*
X163968800Y-81156800D03*
X161968800Y-81156800D03*
X164968800Y-81156800D03*
X160968800Y-81156800D03*
%TD*%
%TO.C,REF\u002A\u002A*%
X111318800Y-81156800D03*
X112318800Y-81156800D03*
X110318800Y-81156800D03*
X113318800Y-81156800D03*
X109318800Y-81156800D03*
%TD*%
%TO.C,U1*%
G36*
G01*
X161277800Y-68230200D02*
X161277800Y-68530200D01*
G75*
G02*
X161127800Y-68680200I-150000J0D01*
G01*
X159677800Y-68680200D01*
G75*
G02*
X159527800Y-68530200I0J150000D01*
G01*
X159527800Y-68230200D01*
G75*
G02*
X159677800Y-68080200I150000J0D01*
G01*
X161127800Y-68080200D01*
G75*
G02*
X161277800Y-68230200I0J-150000D01*
G01*
G37*
G36*
G01*
X161277800Y-66960200D02*
X161277800Y-67260200D01*
G75*
G02*
X161127800Y-67410200I-150000J0D01*
G01*
X159677800Y-67410200D01*
G75*
G02*
X159527800Y-67260200I0J150000D01*
G01*
X159527800Y-66960200D01*
G75*
G02*
X159677800Y-66810200I150000J0D01*
G01*
X161127800Y-66810200D01*
G75*
G02*
X161277800Y-66960200I0J-150000D01*
G01*
G37*
G36*
G01*
X161277800Y-65690200D02*
X161277800Y-65990200D01*
G75*
G02*
X161127800Y-66140200I-150000J0D01*
G01*
X159677800Y-66140200D01*
G75*
G02*
X159527800Y-65990200I0J150000D01*
G01*
X159527800Y-65690200D01*
G75*
G02*
X159677800Y-65540200I150000J0D01*
G01*
X161127800Y-65540200D01*
G75*
G02*
X161277800Y-65690200I0J-150000D01*
G01*
G37*
G36*
G01*
X161277800Y-64420200D02*
X161277800Y-64720200D01*
G75*
G02*
X161127800Y-64870200I-150000J0D01*
G01*
X159677800Y-64870200D01*
G75*
G02*
X159527800Y-64720200I0J150000D01*
G01*
X159527800Y-64420200D01*
G75*
G02*
X159677800Y-64270200I150000J0D01*
G01*
X161127800Y-64270200D01*
G75*
G02*
X161277800Y-64420200I0J-150000D01*
G01*
G37*
G36*
G01*
X161277800Y-63150200D02*
X161277800Y-63450200D01*
G75*
G02*
X161127800Y-63600200I-150000J0D01*
G01*
X159677800Y-63600200D01*
G75*
G02*
X159527800Y-63450200I0J150000D01*
G01*
X159527800Y-63150200D01*
G75*
G02*
X159677800Y-63000200I150000J0D01*
G01*
X161127800Y-63000200D01*
G75*
G02*
X161277800Y-63150200I0J-150000D01*
G01*
G37*
G36*
G01*
X161277800Y-61880200D02*
X161277800Y-62180200D01*
G75*
G02*
X161127800Y-62330200I-150000J0D01*
G01*
X159677800Y-62330200D01*
G75*
G02*
X159527800Y-62180200I0J150000D01*
G01*
X159527800Y-61880200D01*
G75*
G02*
X159677800Y-61730200I150000J0D01*
G01*
X161127800Y-61730200D01*
G75*
G02*
X161277800Y-61880200I0J-150000D01*
G01*
G37*
G36*
G01*
X161277800Y-60610200D02*
X161277800Y-60910200D01*
G75*
G02*
X161127800Y-61060200I-150000J0D01*
G01*
X159677800Y-61060200D01*
G75*
G02*
X159527800Y-60910200I0J150000D01*
G01*
X159527800Y-60610200D01*
G75*
G02*
X159677800Y-60460200I150000J0D01*
G01*
X161127800Y-60460200D01*
G75*
G02*
X161277800Y-60610200I0J-150000D01*
G01*
G37*
G36*
G01*
X161277800Y-59340200D02*
X161277800Y-59640200D01*
G75*
G02*
X161127800Y-59790200I-150000J0D01*
G01*
X159677800Y-59790200D01*
G75*
G02*
X159527800Y-59640200I0J150000D01*
G01*
X159527800Y-59340200D01*
G75*
G02*
X159677800Y-59190200I150000J0D01*
G01*
X161127800Y-59190200D01*
G75*
G02*
X161277800Y-59340200I0J-150000D01*
G01*
G37*
G36*
G01*
X166427800Y-59340200D02*
X166427800Y-59640200D01*
G75*
G02*
X166277800Y-59790200I-150000J0D01*
G01*
X164827800Y-59790200D01*
G75*
G02*
X164677800Y-59640200I0J150000D01*
G01*
X164677800Y-59340200D01*
G75*
G02*
X164827800Y-59190200I150000J0D01*
G01*
X166277800Y-59190200D01*
G75*
G02*
X166427800Y-59340200I0J-150000D01*
G01*
G37*
G36*
G01*
X166427800Y-60610200D02*
X166427800Y-60910200D01*
G75*
G02*
X166277800Y-61060200I-150000J0D01*
G01*
X164827800Y-61060200D01*
G75*
G02*
X164677800Y-60910200I0J150000D01*
G01*
X164677800Y-60610200D01*
G75*
G02*
X164827800Y-60460200I150000J0D01*
G01*
X166277800Y-60460200D01*
G75*
G02*
X166427800Y-60610200I0J-150000D01*
G01*
G37*
G36*
G01*
X166427800Y-61880200D02*
X166427800Y-62180200D01*
G75*
G02*
X166277800Y-62330200I-150000J0D01*
G01*
X164827800Y-62330200D01*
G75*
G02*
X164677800Y-62180200I0J150000D01*
G01*
X164677800Y-61880200D01*
G75*
G02*
X164827800Y-61730200I150000J0D01*
G01*
X166277800Y-61730200D01*
G75*
G02*
X166427800Y-61880200I0J-150000D01*
G01*
G37*
G36*
G01*
X166427800Y-63150200D02*
X166427800Y-63450200D01*
G75*
G02*
X166277800Y-63600200I-150000J0D01*
G01*
X164827800Y-63600200D01*
G75*
G02*
X164677800Y-63450200I0J150000D01*
G01*
X164677800Y-63150200D01*
G75*
G02*
X164827800Y-63000200I150000J0D01*
G01*
X166277800Y-63000200D01*
G75*
G02*
X166427800Y-63150200I0J-150000D01*
G01*
G37*
G36*
G01*
X166427800Y-64420200D02*
X166427800Y-64720200D01*
G75*
G02*
X166277800Y-64870200I-150000J0D01*
G01*
X164827800Y-64870200D01*
G75*
G02*
X164677800Y-64720200I0J150000D01*
G01*
X164677800Y-64420200D01*
G75*
G02*
X164827800Y-64270200I150000J0D01*
G01*
X166277800Y-64270200D01*
G75*
G02*
X166427800Y-64420200I0J-150000D01*
G01*
G37*
G36*
G01*
X166427800Y-65690200D02*
X166427800Y-65990200D01*
G75*
G02*
X166277800Y-66140200I-150000J0D01*
G01*
X164827800Y-66140200D01*
G75*
G02*
X164677800Y-65990200I0J150000D01*
G01*
X164677800Y-65690200D01*
G75*
G02*
X164827800Y-65540200I150000J0D01*
G01*
X166277800Y-65540200D01*
G75*
G02*
X166427800Y-65690200I0J-150000D01*
G01*
G37*
G36*
G01*
X166427800Y-66960200D02*
X166427800Y-67260200D01*
G75*
G02*
X166277800Y-67410200I-150000J0D01*
G01*
X164827800Y-67410200D01*
G75*
G02*
X164677800Y-67260200I0J150000D01*
G01*
X164677800Y-66960200D01*
G75*
G02*
X164827800Y-66810200I150000J0D01*
G01*
X166277800Y-66810200D01*
G75*
G02*
X166427800Y-66960200I0J-150000D01*
G01*
G37*
G36*
G01*
X166427800Y-68230200D02*
X166427800Y-68530200D01*
G75*
G02*
X166277800Y-68680200I-150000J0D01*
G01*
X164827800Y-68680200D01*
G75*
G02*
X164677800Y-68530200I0J150000D01*
G01*
X164677800Y-68230200D01*
G75*
G02*
X164827800Y-68080200I150000J0D01*
G01*
X166277800Y-68080200D01*
G75*
G02*
X166427800Y-68230200I0J-150000D01*
G01*
G37*
%TD*%
%TO.C,U1*%
G36*
G01*
X109627800Y-68230200D02*
X109627800Y-68530200D01*
G75*
G02*
X109477800Y-68680200I-150000J0D01*
G01*
X108027800Y-68680200D01*
G75*
G02*
X107877800Y-68530200I0J150000D01*
G01*
X107877800Y-68230200D01*
G75*
G02*
X108027800Y-68080200I150000J0D01*
G01*
X109477800Y-68080200D01*
G75*
G02*
X109627800Y-68230200I0J-150000D01*
G01*
G37*
G36*
G01*
X109627800Y-66960200D02*
X109627800Y-67260200D01*
G75*
G02*
X109477800Y-67410200I-150000J0D01*
G01*
X108027800Y-67410200D01*
G75*
G02*
X107877800Y-67260200I0J150000D01*
G01*
X107877800Y-66960200D01*
G75*
G02*
X108027800Y-66810200I150000J0D01*
G01*
X109477800Y-66810200D01*
G75*
G02*
X109627800Y-66960200I0J-150000D01*
G01*
G37*
G36*
G01*
X109627800Y-65690200D02*
X109627800Y-65990200D01*
G75*
G02*
X109477800Y-66140200I-150000J0D01*
G01*
X108027800Y-66140200D01*
G75*
G02*
X107877800Y-65990200I0J150000D01*
G01*
X107877800Y-65690200D01*
G75*
G02*
X108027800Y-65540200I150000J0D01*
G01*
X109477800Y-65540200D01*
G75*
G02*
X109627800Y-65690200I0J-150000D01*
G01*
G37*
G36*
G01*
X109627800Y-64420200D02*
X109627800Y-64720200D01*
G75*
G02*
X109477800Y-64870200I-150000J0D01*
G01*
X108027800Y-64870200D01*
G75*
G02*
X107877800Y-64720200I0J150000D01*
G01*
X107877800Y-64420200D01*
G75*
G02*
X108027800Y-64270200I150000J0D01*
G01*
X109477800Y-64270200D01*
G75*
G02*
X109627800Y-64420200I0J-150000D01*
G01*
G37*
G36*
G01*
X109627800Y-63150200D02*
X109627800Y-63450200D01*
G75*
G02*
X109477800Y-63600200I-150000J0D01*
G01*
X108027800Y-63600200D01*
G75*
G02*
X107877800Y-63450200I0J150000D01*
G01*
X107877800Y-63150200D01*
G75*
G02*
X108027800Y-63000200I150000J0D01*
G01*
X109477800Y-63000200D01*
G75*
G02*
X109627800Y-63150200I0J-150000D01*
G01*
G37*
G36*
G01*
X109627800Y-61880200D02*
X109627800Y-62180200D01*
G75*
G02*
X109477800Y-62330200I-150000J0D01*
G01*
X108027800Y-62330200D01*
G75*
G02*
X107877800Y-62180200I0J150000D01*
G01*
X107877800Y-61880200D01*
G75*
G02*
X108027800Y-61730200I150000J0D01*
G01*
X109477800Y-61730200D01*
G75*
G02*
X109627800Y-61880200I0J-150000D01*
G01*
G37*
G36*
G01*
X109627800Y-60610200D02*
X109627800Y-60910200D01*
G75*
G02*
X109477800Y-61060200I-150000J0D01*
G01*
X108027800Y-61060200D01*
G75*
G02*
X107877800Y-60910200I0J150000D01*
G01*
X107877800Y-60610200D01*
G75*
G02*
X108027800Y-60460200I150000J0D01*
G01*
X109477800Y-60460200D01*
G75*
G02*
X109627800Y-60610200I0J-150000D01*
G01*
G37*
G36*
G01*
X109627800Y-59340200D02*
X109627800Y-59640200D01*
G75*
G02*
X109477800Y-59790200I-150000J0D01*
G01*
X108027800Y-59790200D01*
G75*
G02*
X107877800Y-59640200I0J150000D01*
G01*
X107877800Y-59340200D01*
G75*
G02*
X108027800Y-59190200I150000J0D01*
G01*
X109477800Y-59190200D01*
G75*
G02*
X109627800Y-59340200I0J-150000D01*
G01*
G37*
G36*
G01*
X114777800Y-59340200D02*
X114777800Y-59640200D01*
G75*
G02*
X114627800Y-59790200I-150000J0D01*
G01*
X113177800Y-59790200D01*
G75*
G02*
X113027800Y-59640200I0J150000D01*
G01*
X113027800Y-59340200D01*
G75*
G02*
X113177800Y-59190200I150000J0D01*
G01*
X114627800Y-59190200D01*
G75*
G02*
X114777800Y-59340200I0J-150000D01*
G01*
G37*
G36*
G01*
X114777800Y-60610200D02*
X114777800Y-60910200D01*
G75*
G02*
X114627800Y-61060200I-150000J0D01*
G01*
X113177800Y-61060200D01*
G75*
G02*
X113027800Y-60910200I0J150000D01*
G01*
X113027800Y-60610200D01*
G75*
G02*
X113177800Y-60460200I150000J0D01*
G01*
X114627800Y-60460200D01*
G75*
G02*
X114777800Y-60610200I0J-150000D01*
G01*
G37*
G36*
G01*
X114777800Y-61880200D02*
X114777800Y-62180200D01*
G75*
G02*
X114627800Y-62330200I-150000J0D01*
G01*
X113177800Y-62330200D01*
G75*
G02*
X113027800Y-62180200I0J150000D01*
G01*
X113027800Y-61880200D01*
G75*
G02*
X113177800Y-61730200I150000J0D01*
G01*
X114627800Y-61730200D01*
G75*
G02*
X114777800Y-61880200I0J-150000D01*
G01*
G37*
G36*
G01*
X114777800Y-63150200D02*
X114777800Y-63450200D01*
G75*
G02*
X114627800Y-63600200I-150000J0D01*
G01*
X113177800Y-63600200D01*
G75*
G02*
X113027800Y-63450200I0J150000D01*
G01*
X113027800Y-63150200D01*
G75*
G02*
X113177800Y-63000200I150000J0D01*
G01*
X114627800Y-63000200D01*
G75*
G02*
X114777800Y-63150200I0J-150000D01*
G01*
G37*
G36*
G01*
X114777800Y-64420200D02*
X114777800Y-64720200D01*
G75*
G02*
X114627800Y-64870200I-150000J0D01*
G01*
X113177800Y-64870200D01*
G75*
G02*
X113027800Y-64720200I0J150000D01*
G01*
X113027800Y-64420200D01*
G75*
G02*
X113177800Y-64270200I150000J0D01*
G01*
X114627800Y-64270200D01*
G75*
G02*
X114777800Y-64420200I0J-150000D01*
G01*
G37*
G36*
G01*
X114777800Y-65690200D02*
X114777800Y-65990200D01*
G75*
G02*
X114627800Y-66140200I-150000J0D01*
G01*
X113177800Y-66140200D01*
G75*
G02*
X113027800Y-65990200I0J150000D01*
G01*
X113027800Y-65690200D01*
G75*
G02*
X113177800Y-65540200I150000J0D01*
G01*
X114627800Y-65540200D01*
G75*
G02*
X114777800Y-65690200I0J-150000D01*
G01*
G37*
G36*
G01*
X114777800Y-66960200D02*
X114777800Y-67260200D01*
G75*
G02*
X114627800Y-67410200I-150000J0D01*
G01*
X113177800Y-67410200D01*
G75*
G02*
X113027800Y-67260200I0J150000D01*
G01*
X113027800Y-66960200D01*
G75*
G02*
X113177800Y-66810200I150000J0D01*
G01*
X114627800Y-66810200D01*
G75*
G02*
X114777800Y-66960200I0J-150000D01*
G01*
G37*
G36*
G01*
X114777800Y-68230200D02*
X114777800Y-68530200D01*
G75*
G02*
X114627800Y-68680200I-150000J0D01*
G01*
X113177800Y-68680200D01*
G75*
G02*
X113027800Y-68530200I0J150000D01*
G01*
X113027800Y-68230200D01*
G75*
G02*
X113177800Y-68080200I150000J0D01*
G01*
X114627800Y-68080200D01*
G75*
G02*
X114777800Y-68230200I0J-150000D01*
G01*
G37*
%TD*%
%TO.C,R9*%
G36*
G01*
X164131300Y-108065200D02*
X163656300Y-108065200D01*
G75*
G02*
X163418800Y-107827700I0J237500D01*
G01*
X163418800Y-107327700D01*
G75*
G02*
X163656300Y-107090200I237500J0D01*
G01*
X164131300Y-107090200D01*
G75*
G02*
X164368800Y-107327700I0J-237500D01*
G01*
X164368800Y-107827700D01*
G75*
G02*
X164131300Y-108065200I-237500J0D01*
G01*
G37*
G36*
G01*
X164131300Y-106240200D02*
X163656300Y-106240200D01*
G75*
G02*
X163418800Y-106002700I0J237500D01*
G01*
X163418800Y-105502700D01*
G75*
G02*
X163656300Y-105265200I237500J0D01*
G01*
X164131300Y-105265200D01*
G75*
G02*
X164368800Y-105502700I0J-237500D01*
G01*
X164368800Y-106002700D01*
G75*
G02*
X164131300Y-106240200I-237500J0D01*
G01*
G37*
%TD*%
%TO.C,R9*%
G36*
G01*
X112481300Y-108065200D02*
X112006300Y-108065200D01*
G75*
G02*
X111768800Y-107827700I0J237500D01*
G01*
X111768800Y-107327700D01*
G75*
G02*
X112006300Y-107090200I237500J0D01*
G01*
X112481300Y-107090200D01*
G75*
G02*
X112718800Y-107327700I0J-237500D01*
G01*
X112718800Y-107827700D01*
G75*
G02*
X112481300Y-108065200I-237500J0D01*
G01*
G37*
G36*
G01*
X112481300Y-106240200D02*
X112006300Y-106240200D01*
G75*
G02*
X111768800Y-106002700I0J237500D01*
G01*
X111768800Y-105502700D01*
G75*
G02*
X112006300Y-105265200I237500J0D01*
G01*
X112481300Y-105265200D01*
G75*
G02*
X112718800Y-105502700I0J-237500D01*
G01*
X112718800Y-106002700D01*
G75*
G02*
X112481300Y-106240200I-237500J0D01*
G01*
G37*
%TD*%
%TO.C,R10*%
G36*
G01*
X166925300Y-98112200D02*
X166450300Y-98112200D01*
G75*
G02*
X166212800Y-97874700I0J237500D01*
G01*
X166212800Y-97374700D01*
G75*
G02*
X166450300Y-97137200I237500J0D01*
G01*
X166925300Y-97137200D01*
G75*
G02*
X167162800Y-97374700I0J-237500D01*
G01*
X167162800Y-97874700D01*
G75*
G02*
X166925300Y-98112200I-237500J0D01*
G01*
G37*
G36*
G01*
X166925300Y-99937200D02*
X166450300Y-99937200D01*
G75*
G02*
X166212800Y-99699700I0J237500D01*
G01*
X166212800Y-99199700D01*
G75*
G02*
X166450300Y-98962200I237500J0D01*
G01*
X166925300Y-98962200D01*
G75*
G02*
X167162800Y-99199700I0J-237500D01*
G01*
X167162800Y-99699700D01*
G75*
G02*
X166925300Y-99937200I-237500J0D01*
G01*
G37*
%TD*%
%TO.C,R10*%
G36*
G01*
X115275300Y-98112200D02*
X114800300Y-98112200D01*
G75*
G02*
X114562800Y-97874700I0J237500D01*
G01*
X114562800Y-97374700D01*
G75*
G02*
X114800300Y-97137200I237500J0D01*
G01*
X115275300Y-97137200D01*
G75*
G02*
X115512800Y-97374700I0J-237500D01*
G01*
X115512800Y-97874700D01*
G75*
G02*
X115275300Y-98112200I-237500J0D01*
G01*
G37*
G36*
G01*
X115275300Y-99937200D02*
X114800300Y-99937200D01*
G75*
G02*
X114562800Y-99699700I0J237500D01*
G01*
X114562800Y-99199700D01*
G75*
G02*
X114800300Y-98962200I237500J0D01*
G01*
X115275300Y-98962200D01*
G75*
G02*
X115512800Y-99199700I0J-237500D01*
G01*
X115512800Y-99699700D01*
G75*
G02*
X115275300Y-99937200I-237500J0D01*
G01*
G37*
%TD*%
%TO.C,R21*%
G36*
G01*
X164131300Y-94095200D02*
X163656300Y-94095200D01*
G75*
G02*
X163418800Y-93857700I0J237500D01*
G01*
X163418800Y-93357700D01*
G75*
G02*
X163656300Y-93120200I237500J0D01*
G01*
X164131300Y-93120200D01*
G75*
G02*
X164368800Y-93357700I0J-237500D01*
G01*
X164368800Y-93857700D01*
G75*
G02*
X164131300Y-94095200I-237500J0D01*
G01*
G37*
G36*
G01*
X164131300Y-92270200D02*
X163656300Y-92270200D01*
G75*
G02*
X163418800Y-92032700I0J237500D01*
G01*
X163418800Y-91532700D01*
G75*
G02*
X163656300Y-91295200I237500J0D01*
G01*
X164131300Y-91295200D01*
G75*
G02*
X164368800Y-91532700I0J-237500D01*
G01*
X164368800Y-92032700D01*
G75*
G02*
X164131300Y-92270200I-237500J0D01*
G01*
G37*
%TD*%
%TO.C,R21*%
G36*
G01*
X112481300Y-94095200D02*
X112006300Y-94095200D01*
G75*
G02*
X111768800Y-93857700I0J237500D01*
G01*
X111768800Y-93357700D01*
G75*
G02*
X112006300Y-93120200I237500J0D01*
G01*
X112481300Y-93120200D01*
G75*
G02*
X112718800Y-93357700I0J-237500D01*
G01*
X112718800Y-93857700D01*
G75*
G02*
X112481300Y-94095200I-237500J0D01*
G01*
G37*
G36*
G01*
X112481300Y-92270200D02*
X112006300Y-92270200D01*
G75*
G02*
X111768800Y-92032700I0J237500D01*
G01*
X111768800Y-91532700D01*
G75*
G02*
X112006300Y-91295200I237500J0D01*
G01*
X112481300Y-91295200D01*
G75*
G02*
X112718800Y-91532700I0J-237500D01*
G01*
X112718800Y-92032700D01*
G75*
G02*
X112481300Y-92270200I-237500J0D01*
G01*
G37*
%TD*%
D18*
%TO.C,Q2*%
X161718800Y-108250200D03*
X161718800Y-106350200D03*
X159718800Y-107300200D03*
%TD*%
%TO.C,Q2*%
X110068800Y-108250200D03*
X110068800Y-106350200D03*
X108068800Y-107300200D03*
%TD*%
%TO.C,Q4*%
X159718800Y-102474200D03*
X161718800Y-101524200D03*
X161718800Y-103424200D03*
%TD*%
%TO.C,Q4*%
X108068800Y-102474200D03*
X110068800Y-101524200D03*
X110068800Y-103424200D03*
%TD*%
%TO.C,R8*%
G36*
G01*
X167052300Y-106367200D02*
X166577300Y-106367200D01*
G75*
G02*
X166339800Y-106129700I0J237500D01*
G01*
X166339800Y-105629700D01*
G75*
G02*
X166577300Y-105392200I237500J0D01*
G01*
X167052300Y-105392200D01*
G75*
G02*
X167289800Y-105629700I0J-237500D01*
G01*
X167289800Y-106129700D01*
G75*
G02*
X167052300Y-106367200I-237500J0D01*
G01*
G37*
G36*
G01*
X167052300Y-108192200D02*
X166577300Y-108192200D01*
G75*
G02*
X166339800Y-107954700I0J237500D01*
G01*
X166339800Y-107454700D01*
G75*
G02*
X166577300Y-107217200I237500J0D01*
G01*
X167052300Y-107217200D01*
G75*
G02*
X167289800Y-107454700I0J-237500D01*
G01*
X167289800Y-107954700D01*
G75*
G02*
X167052300Y-108192200I-237500J0D01*
G01*
G37*
%TD*%
%TO.C,R8*%
G36*
G01*
X115402300Y-106367200D02*
X114927300Y-106367200D01*
G75*
G02*
X114689800Y-106129700I0J237500D01*
G01*
X114689800Y-105629700D01*
G75*
G02*
X114927300Y-105392200I237500J0D01*
G01*
X115402300Y-105392200D01*
G75*
G02*
X115639800Y-105629700I0J-237500D01*
G01*
X115639800Y-106129700D01*
G75*
G02*
X115402300Y-106367200I-237500J0D01*
G01*
G37*
G36*
G01*
X115402300Y-108192200D02*
X114927300Y-108192200D01*
G75*
G02*
X114689800Y-107954700I0J237500D01*
G01*
X114689800Y-107454700D01*
G75*
G02*
X114927300Y-107217200I237500J0D01*
G01*
X115402300Y-107217200D01*
G75*
G02*
X115639800Y-107454700I0J-237500D01*
G01*
X115639800Y-107954700D01*
G75*
G02*
X115402300Y-108192200I-237500J0D01*
G01*
G37*
%TD*%
%TO.C,Q3*%
X161718800Y-98598200D03*
X161718800Y-96698200D03*
X159718800Y-97648200D03*
%TD*%
%TO.C,Q3*%
X110068800Y-98598200D03*
X110068800Y-96698200D03*
X108068800Y-97648200D03*
%TD*%
%TO.C,R20*%
G36*
G01*
X166925300Y-93667200D02*
X166450300Y-93667200D01*
G75*
G02*
X166212800Y-93429700I0J237500D01*
G01*
X166212800Y-92929700D01*
G75*
G02*
X166450300Y-92692200I237500J0D01*
G01*
X166925300Y-92692200D01*
G75*
G02*
X167162800Y-92929700I0J-237500D01*
G01*
X167162800Y-93429700D01*
G75*
G02*
X166925300Y-93667200I-237500J0D01*
G01*
G37*
G36*
G01*
X166925300Y-95492200D02*
X166450300Y-95492200D01*
G75*
G02*
X166212800Y-95254700I0J237500D01*
G01*
X166212800Y-94754700D01*
G75*
G02*
X166450300Y-94517200I237500J0D01*
G01*
X166925300Y-94517200D01*
G75*
G02*
X167162800Y-94754700I0J-237500D01*
G01*
X167162800Y-95254700D01*
G75*
G02*
X166925300Y-95492200I-237500J0D01*
G01*
G37*
%TD*%
%TO.C,R20*%
G36*
G01*
X115275300Y-93667200D02*
X114800300Y-93667200D01*
G75*
G02*
X114562800Y-93429700I0J237500D01*
G01*
X114562800Y-92929700D01*
G75*
G02*
X114800300Y-92692200I237500J0D01*
G01*
X115275300Y-92692200D01*
G75*
G02*
X115512800Y-92929700I0J-237500D01*
G01*
X115512800Y-93429700D01*
G75*
G02*
X115275300Y-93667200I-237500J0D01*
G01*
G37*
G36*
G01*
X115275300Y-95492200D02*
X114800300Y-95492200D01*
G75*
G02*
X114562800Y-95254700I0J237500D01*
G01*
X114562800Y-94754700D01*
G75*
G02*
X114800300Y-94517200I237500J0D01*
G01*
X115275300Y-94517200D01*
G75*
G02*
X115512800Y-94754700I0J-237500D01*
G01*
X115512800Y-95254700D01*
G75*
G02*
X115275300Y-95492200I-237500J0D01*
G01*
G37*
%TD*%
D21*
%TO.C,~*%
X164175801Y-109479201D03*
X166715801Y-109479201D03*
D19*
X169255801Y-91699201D03*
X156555801Y-91699201D03*
X169255801Y-94239201D03*
X156555801Y-94239201D03*
X169255801Y-96779201D03*
X156555801Y-96779201D03*
X169255801Y-99319201D03*
X156555801Y-99319201D03*
X169255801Y-101859201D03*
X156555801Y-101859201D03*
X169255801Y-104399201D03*
X156555801Y-104399201D03*
X169255801Y-106939201D03*
X156555801Y-106939201D03*
D20*
X169255801Y-109479201D03*
D19*
X156555801Y-109479201D03*
%TD*%
D21*
%TO.C,~*%
X112525801Y-109479201D03*
X115065801Y-109479201D03*
D19*
X117605801Y-91699201D03*
X104905801Y-91699201D03*
X117605801Y-94239201D03*
X104905801Y-94239201D03*
X117605801Y-96779201D03*
X104905801Y-96779201D03*
X117605801Y-99319201D03*
X104905801Y-99319201D03*
X117605801Y-101859201D03*
X104905801Y-101859201D03*
X117605801Y-104399201D03*
X104905801Y-104399201D03*
X117605801Y-106939201D03*
X104905801Y-106939201D03*
D20*
X117605801Y-109479201D03*
D19*
X104905801Y-109479201D03*
%TD*%
D18*
%TO.C,Q5*%
X159734800Y-92761200D03*
X161734800Y-91811200D03*
X161734800Y-93711200D03*
%TD*%
%TO.C,Q5*%
X108084800Y-92761200D03*
X110084800Y-91811200D03*
X110084800Y-93711200D03*
%TD*%
%TO.C,R19*%
G36*
G01*
X164131300Y-103366200D02*
X163656300Y-103366200D01*
G75*
G02*
X163418800Y-103128700I0J237500D01*
G01*
X163418800Y-102628700D01*
G75*
G02*
X163656300Y-102391200I237500J0D01*
G01*
X164131300Y-102391200D01*
G75*
G02*
X164368800Y-102628700I0J-237500D01*
G01*
X164368800Y-103128700D01*
G75*
G02*
X164131300Y-103366200I-237500J0D01*
G01*
G37*
G36*
G01*
X164131300Y-101541200D02*
X163656300Y-101541200D01*
G75*
G02*
X163418800Y-101303700I0J237500D01*
G01*
X163418800Y-100803700D01*
G75*
G02*
X163656300Y-100566200I237500J0D01*
G01*
X164131300Y-100566200D01*
G75*
G02*
X164368800Y-100803700I0J-237500D01*
G01*
X164368800Y-101303700D01*
G75*
G02*
X164131300Y-101541200I-237500J0D01*
G01*
G37*
%TD*%
%TO.C,R19*%
G36*
G01*
X112481300Y-103366200D02*
X112006300Y-103366200D01*
G75*
G02*
X111768800Y-103128700I0J237500D01*
G01*
X111768800Y-102628700D01*
G75*
G02*
X112006300Y-102391200I237500J0D01*
G01*
X112481300Y-102391200D01*
G75*
G02*
X112718800Y-102628700I0J-237500D01*
G01*
X112718800Y-103128700D01*
G75*
G02*
X112481300Y-103366200I-237500J0D01*
G01*
G37*
G36*
G01*
X112481300Y-101541200D02*
X112006300Y-101541200D01*
G75*
G02*
X111768800Y-101303700I0J237500D01*
G01*
X111768800Y-100803700D01*
G75*
G02*
X112006300Y-100566200I237500J0D01*
G01*
X112481300Y-100566200D01*
G75*
G02*
X112718800Y-100803700I0J-237500D01*
G01*
X112718800Y-101303700D01*
G75*
G02*
X112481300Y-101541200I-237500J0D01*
G01*
G37*
%TD*%
%TO.C,R18*%
G36*
G01*
X166925300Y-102684200D02*
X166450300Y-102684200D01*
G75*
G02*
X166212800Y-102446700I0J237500D01*
G01*
X166212800Y-101946700D01*
G75*
G02*
X166450300Y-101709200I237500J0D01*
G01*
X166925300Y-101709200D01*
G75*
G02*
X167162800Y-101946700I0J-237500D01*
G01*
X167162800Y-102446700D01*
G75*
G02*
X166925300Y-102684200I-237500J0D01*
G01*
G37*
G36*
G01*
X166925300Y-104509200D02*
X166450300Y-104509200D01*
G75*
G02*
X166212800Y-104271700I0J237500D01*
G01*
X166212800Y-103771700D01*
G75*
G02*
X166450300Y-103534200I237500J0D01*
G01*
X166925300Y-103534200D01*
G75*
G02*
X167162800Y-103771700I0J-237500D01*
G01*
X167162800Y-104271700D01*
G75*
G02*
X166925300Y-104509200I-237500J0D01*
G01*
G37*
%TD*%
%TO.C,R18*%
G36*
G01*
X115275300Y-102684200D02*
X114800300Y-102684200D01*
G75*
G02*
X114562800Y-102446700I0J237500D01*
G01*
X114562800Y-101946700D01*
G75*
G02*
X114800300Y-101709200I237500J0D01*
G01*
X115275300Y-101709200D01*
G75*
G02*
X115512800Y-101946700I0J-237500D01*
G01*
X115512800Y-102446700D01*
G75*
G02*
X115275300Y-102684200I-237500J0D01*
G01*
G37*
G36*
G01*
X115275300Y-104509200D02*
X114800300Y-104509200D01*
G75*
G02*
X114562800Y-104271700I0J237500D01*
G01*
X114562800Y-103771700D01*
G75*
G02*
X114800300Y-103534200I237500J0D01*
G01*
X115275300Y-103534200D01*
G75*
G02*
X115512800Y-103771700I0J-237500D01*
G01*
X115512800Y-104271700D01*
G75*
G02*
X115275300Y-104509200I-237500J0D01*
G01*
G37*
%TD*%
%TO.C,R17*%
G36*
G01*
X164131300Y-98540200D02*
X163656300Y-98540200D01*
G75*
G02*
X163418800Y-98302700I0J237500D01*
G01*
X163418800Y-97802700D01*
G75*
G02*
X163656300Y-97565200I237500J0D01*
G01*
X164131300Y-97565200D01*
G75*
G02*
X164368800Y-97802700I0J-237500D01*
G01*
X164368800Y-98302700D01*
G75*
G02*
X164131300Y-98540200I-237500J0D01*
G01*
G37*
G36*
G01*
X164131300Y-96715200D02*
X163656300Y-96715200D01*
G75*
G02*
X163418800Y-96477700I0J237500D01*
G01*
X163418800Y-95977700D01*
G75*
G02*
X163656300Y-95740200I237500J0D01*
G01*
X164131300Y-95740200D01*
G75*
G02*
X164368800Y-95977700I0J-237500D01*
G01*
X164368800Y-96477700D01*
G75*
G02*
X164131300Y-96715200I-237500J0D01*
G01*
G37*
%TD*%
%TO.C,R17*%
G36*
G01*
X112481300Y-98540200D02*
X112006300Y-98540200D01*
G75*
G02*
X111768800Y-98302700I0J237500D01*
G01*
X111768800Y-97802700D01*
G75*
G02*
X112006300Y-97565200I237500J0D01*
G01*
X112481300Y-97565200D01*
G75*
G02*
X112718800Y-97802700I0J-237500D01*
G01*
X112718800Y-98302700D01*
G75*
G02*
X112481300Y-98540200I-237500J0D01*
G01*
G37*
G36*
G01*
X112481300Y-96715200D02*
X112006300Y-96715200D01*
G75*
G02*
X111768800Y-96477700I0J237500D01*
G01*
X111768800Y-95977700D01*
G75*
G02*
X112006300Y-95740200I237500J0D01*
G01*
X112481300Y-95740200D01*
G75*
G02*
X112718800Y-95977700I0J-237500D01*
G01*
X112718800Y-96477700D01*
G75*
G02*
X112481300Y-96715200I-237500J0D01*
G01*
G37*
%TD*%
D17*
%TO.C,REF\u002A\u002A*%
X164694500Y-89210700D03*
X160694500Y-89210700D03*
X163694500Y-89210700D03*
X161694500Y-89210700D03*
X162694500Y-89210700D03*
%TD*%
%TO.C,REF\u002A\u002A*%
X113044500Y-89210700D03*
X109044500Y-89210700D03*
X112044500Y-89210700D03*
X110044500Y-89210700D03*
X111044500Y-89210700D03*
%TD*%
%TO.C,REF\u002A\u002A*%
X171300000Y-102136800D03*
X171300000Y-98136800D03*
X171300000Y-101136800D03*
X171300000Y-99136800D03*
X171300000Y-100136800D03*
%TD*%
%TO.C,REF\u002A\u002A*%
X119650000Y-102136800D03*
X119650000Y-98136800D03*
X119650000Y-101136800D03*
X119650000Y-99136800D03*
X119650000Y-100136800D03*
%TD*%
%TO.C,REF\u002A\u002A*%
X154600000Y-83150000D03*
X154600000Y-87150000D03*
X154600000Y-84150000D03*
X154600000Y-86150000D03*
X154600000Y-85150000D03*
%TD*%
%TO.C,REF\u002A\u002A*%
X102950000Y-83150000D03*
X102950000Y-87150000D03*
X102950000Y-84150000D03*
X102950000Y-86150000D03*
X102950000Y-85150000D03*
%TD*%
%TO.C,REF\u002A\u002A*%
X154600000Y-116150000D03*
X154600000Y-117150000D03*
X154600000Y-115150000D03*
X154600000Y-118150000D03*
X154600000Y-114150000D03*
%TD*%
%TO.C,REF\u002A\u002A*%
X102950000Y-116150000D03*
X102950000Y-117150000D03*
X102950000Y-115150000D03*
X102950000Y-118150000D03*
X102950000Y-114150000D03*
%TD*%
%TO.C,REF\u002A\u002A*%
X160910400Y-112040800D03*
X164910400Y-112040800D03*
X161910400Y-112040800D03*
X163910400Y-112040800D03*
X162910400Y-112040800D03*
%TD*%
%TO.C,REF\u002A\u002A*%
X109260400Y-112040800D03*
X113260400Y-112040800D03*
X110260400Y-112040800D03*
X112260400Y-112040800D03*
X111260400Y-112040800D03*
%TD*%
%TO.C,REF\u002A\u002A*%
X154651300Y-97998700D03*
X154651300Y-101998700D03*
X154651300Y-98998700D03*
X154651300Y-100998700D03*
X154651300Y-99998700D03*
%TD*%
%TO.C,REF\u002A\u002A*%
X103001300Y-97998700D03*
X103001300Y-101998700D03*
X103001300Y-98998700D03*
X103001300Y-100998700D03*
X103001300Y-99998700D03*
%TD*%
%TO.C,REF\u002A\u002A*%
X75150000Y-145200000D03*
X75150000Y-149200000D03*
X75150000Y-146200000D03*
X75150000Y-148200000D03*
X75150000Y-147200000D03*
%TD*%
%TO.C,REF\u002A\u002A*%
X94850000Y-149100000D03*
X94850000Y-145100000D03*
X94850000Y-148100000D03*
X94850000Y-146100000D03*
X94850000Y-147100000D03*
%TD*%
%TO.C,REF\u002A\u002A*%
X68000000Y-147150000D03*
X68000000Y-146150000D03*
X68000000Y-148150000D03*
X68000000Y-145150000D03*
X68000000Y-149150000D03*
%TD*%
%TO.C,R9*%
G36*
G01*
X60831300Y-139065200D02*
X60356300Y-139065200D01*
G75*
G02*
X60118800Y-138827700I0J237500D01*
G01*
X60118800Y-138327700D01*
G75*
G02*
X60356300Y-138090200I237500J0D01*
G01*
X60831300Y-138090200D01*
G75*
G02*
X61068800Y-138327700I0J-237500D01*
G01*
X61068800Y-138827700D01*
G75*
G02*
X60831300Y-139065200I-237500J0D01*
G01*
G37*
G36*
G01*
X60831300Y-137240200D02*
X60356300Y-137240200D01*
G75*
G02*
X60118800Y-137002700I0J237500D01*
G01*
X60118800Y-136502700D01*
G75*
G02*
X60356300Y-136265200I237500J0D01*
G01*
X60831300Y-136265200D01*
G75*
G02*
X61068800Y-136502700I0J-237500D01*
G01*
X61068800Y-137002700D01*
G75*
G02*
X60831300Y-137240200I-237500J0D01*
G01*
G37*
%TD*%
%TO.C,R10*%
G36*
G01*
X63625300Y-129112200D02*
X63150300Y-129112200D01*
G75*
G02*
X62912800Y-128874700I0J237500D01*
G01*
X62912800Y-128374700D01*
G75*
G02*
X63150300Y-128137200I237500J0D01*
G01*
X63625300Y-128137200D01*
G75*
G02*
X63862800Y-128374700I0J-237500D01*
G01*
X63862800Y-128874700D01*
G75*
G02*
X63625300Y-129112200I-237500J0D01*
G01*
G37*
G36*
G01*
X63625300Y-130937200D02*
X63150300Y-130937200D01*
G75*
G02*
X62912800Y-130699700I0J237500D01*
G01*
X62912800Y-130199700D01*
G75*
G02*
X63150300Y-129962200I237500J0D01*
G01*
X63625300Y-129962200D01*
G75*
G02*
X63862800Y-130199700I0J-237500D01*
G01*
X63862800Y-130699700D01*
G75*
G02*
X63625300Y-130937200I-237500J0D01*
G01*
G37*
%TD*%
%TO.C,R21*%
G36*
G01*
X60831300Y-125095200D02*
X60356300Y-125095200D01*
G75*
G02*
X60118800Y-124857700I0J237500D01*
G01*
X60118800Y-124357700D01*
G75*
G02*
X60356300Y-124120200I237500J0D01*
G01*
X60831300Y-124120200D01*
G75*
G02*
X61068800Y-124357700I0J-237500D01*
G01*
X61068800Y-124857700D01*
G75*
G02*
X60831300Y-125095200I-237500J0D01*
G01*
G37*
G36*
G01*
X60831300Y-123270200D02*
X60356300Y-123270200D01*
G75*
G02*
X60118800Y-123032700I0J237500D01*
G01*
X60118800Y-122532700D01*
G75*
G02*
X60356300Y-122295200I237500J0D01*
G01*
X60831300Y-122295200D01*
G75*
G02*
X61068800Y-122532700I0J-237500D01*
G01*
X61068800Y-123032700D01*
G75*
G02*
X60831300Y-123270200I-237500J0D01*
G01*
G37*
%TD*%
D18*
%TO.C,Q2*%
X58418800Y-139250200D03*
X58418800Y-137350200D03*
X56418800Y-138300200D03*
%TD*%
%TO.C,Q4*%
X56418800Y-133474200D03*
X58418800Y-132524200D03*
X58418800Y-134424200D03*
%TD*%
%TO.C,R8*%
G36*
G01*
X63752300Y-137367200D02*
X63277300Y-137367200D01*
G75*
G02*
X63039800Y-137129700I0J237500D01*
G01*
X63039800Y-136629700D01*
G75*
G02*
X63277300Y-136392200I237500J0D01*
G01*
X63752300Y-136392200D01*
G75*
G02*
X63989800Y-136629700I0J-237500D01*
G01*
X63989800Y-137129700D01*
G75*
G02*
X63752300Y-137367200I-237500J0D01*
G01*
G37*
G36*
G01*
X63752300Y-139192200D02*
X63277300Y-139192200D01*
G75*
G02*
X63039800Y-138954700I0J237500D01*
G01*
X63039800Y-138454700D01*
G75*
G02*
X63277300Y-138217200I237500J0D01*
G01*
X63752300Y-138217200D01*
G75*
G02*
X63989800Y-138454700I0J-237500D01*
G01*
X63989800Y-138954700D01*
G75*
G02*
X63752300Y-139192200I-237500J0D01*
G01*
G37*
%TD*%
%TO.C,Q3*%
X58418800Y-129598200D03*
X58418800Y-127698200D03*
X56418800Y-128648200D03*
%TD*%
%TO.C,R20*%
G36*
G01*
X63625300Y-124667200D02*
X63150300Y-124667200D01*
G75*
G02*
X62912800Y-124429700I0J237500D01*
G01*
X62912800Y-123929700D01*
G75*
G02*
X63150300Y-123692200I237500J0D01*
G01*
X63625300Y-123692200D01*
G75*
G02*
X63862800Y-123929700I0J-237500D01*
G01*
X63862800Y-124429700D01*
G75*
G02*
X63625300Y-124667200I-237500J0D01*
G01*
G37*
G36*
G01*
X63625300Y-126492200D02*
X63150300Y-126492200D01*
G75*
G02*
X62912800Y-126254700I0J237500D01*
G01*
X62912800Y-125754700D01*
G75*
G02*
X63150300Y-125517200I237500J0D01*
G01*
X63625300Y-125517200D01*
G75*
G02*
X63862800Y-125754700I0J-237500D01*
G01*
X63862800Y-126254700D01*
G75*
G02*
X63625300Y-126492200I-237500J0D01*
G01*
G37*
%TD*%
D21*
%TO.C,~*%
X60875801Y-140479201D03*
X63415801Y-140479201D03*
D19*
X65955801Y-122699201D03*
X53255801Y-122699201D03*
X65955801Y-125239201D03*
X53255801Y-125239201D03*
X65955801Y-127779201D03*
X53255801Y-127779201D03*
X65955801Y-130319201D03*
X53255801Y-130319201D03*
X65955801Y-132859201D03*
X53255801Y-132859201D03*
X65955801Y-135399201D03*
X53255801Y-135399201D03*
X65955801Y-137939201D03*
X53255801Y-137939201D03*
D20*
X65955801Y-140479201D03*
D19*
X53255801Y-140479201D03*
%TD*%
D18*
%TO.C,Q5*%
X56434800Y-123761200D03*
X58434800Y-122811200D03*
X58434800Y-124711200D03*
%TD*%
%TO.C,R19*%
G36*
G01*
X60831300Y-134366200D02*
X60356300Y-134366200D01*
G75*
G02*
X60118800Y-134128700I0J237500D01*
G01*
X60118800Y-133628700D01*
G75*
G02*
X60356300Y-133391200I237500J0D01*
G01*
X60831300Y-133391200D01*
G75*
G02*
X61068800Y-133628700I0J-237500D01*
G01*
X61068800Y-134128700D01*
G75*
G02*
X60831300Y-134366200I-237500J0D01*
G01*
G37*
G36*
G01*
X60831300Y-132541200D02*
X60356300Y-132541200D01*
G75*
G02*
X60118800Y-132303700I0J237500D01*
G01*
X60118800Y-131803700D01*
G75*
G02*
X60356300Y-131566200I237500J0D01*
G01*
X60831300Y-131566200D01*
G75*
G02*
X61068800Y-131803700I0J-237500D01*
G01*
X61068800Y-132303700D01*
G75*
G02*
X60831300Y-132541200I-237500J0D01*
G01*
G37*
%TD*%
%TO.C,R18*%
G36*
G01*
X63625300Y-133684200D02*
X63150300Y-133684200D01*
G75*
G02*
X62912800Y-133446700I0J237500D01*
G01*
X62912800Y-132946700D01*
G75*
G02*
X63150300Y-132709200I237500J0D01*
G01*
X63625300Y-132709200D01*
G75*
G02*
X63862800Y-132946700I0J-237500D01*
G01*
X63862800Y-133446700D01*
G75*
G02*
X63625300Y-133684200I-237500J0D01*
G01*
G37*
G36*
G01*
X63625300Y-135509200D02*
X63150300Y-135509200D01*
G75*
G02*
X62912800Y-135271700I0J237500D01*
G01*
X62912800Y-134771700D01*
G75*
G02*
X63150300Y-134534200I237500J0D01*
G01*
X63625300Y-134534200D01*
G75*
G02*
X63862800Y-134771700I0J-237500D01*
G01*
X63862800Y-135271700D01*
G75*
G02*
X63625300Y-135509200I-237500J0D01*
G01*
G37*
%TD*%
%TO.C,R17*%
G36*
G01*
X60831300Y-129540200D02*
X60356300Y-129540200D01*
G75*
G02*
X60118800Y-129302700I0J237500D01*
G01*
X60118800Y-128802700D01*
G75*
G02*
X60356300Y-128565200I237500J0D01*
G01*
X60831300Y-128565200D01*
G75*
G02*
X61068800Y-128802700I0J-237500D01*
G01*
X61068800Y-129302700D01*
G75*
G02*
X60831300Y-129540200I-237500J0D01*
G01*
G37*
G36*
G01*
X60831300Y-127715200D02*
X60356300Y-127715200D01*
G75*
G02*
X60118800Y-127477700I0J237500D01*
G01*
X60118800Y-126977700D01*
G75*
G02*
X60356300Y-126740200I237500J0D01*
G01*
X60831300Y-126740200D01*
G75*
G02*
X61068800Y-126977700I0J-237500D01*
G01*
X61068800Y-127477700D01*
G75*
G02*
X60831300Y-127715200I-237500J0D01*
G01*
G37*
%TD*%
D17*
%TO.C,REF\u002A\u002A*%
X61394500Y-120210700D03*
X57394500Y-120210700D03*
X60394500Y-120210700D03*
X58394500Y-120210700D03*
X59394500Y-120210700D03*
%TD*%
%TO.C,REF\u002A\u002A*%
X68000000Y-133136800D03*
X68000000Y-129136800D03*
X68000000Y-132136800D03*
X68000000Y-130136800D03*
X68000000Y-131136800D03*
%TD*%
%TO.C,REF\u002A\u002A*%
X51300000Y-147150000D03*
X51300000Y-148150000D03*
X51300000Y-146150000D03*
X51300000Y-149150000D03*
X51300000Y-145150000D03*
%TD*%
%TO.C,REF\u002A\u002A*%
X57610400Y-143040800D03*
X61610400Y-143040800D03*
X58610400Y-143040800D03*
X60610400Y-143040800D03*
X59610400Y-143040800D03*
%TD*%
%TO.C,REF\u002A\u002A*%
X51351300Y-128998700D03*
X51351300Y-132998700D03*
X51351300Y-129998700D03*
X51351300Y-131998700D03*
X51351300Y-130998700D03*
%TD*%
%TO.C,REF\u002A\u002A*%
X94900000Y-54300000D03*
X94900000Y-53300000D03*
X94900000Y-55300000D03*
X94900000Y-52300000D03*
X94900000Y-56300000D03*
%TD*%
%TO.C,REF\u002A\u002A*%
X75150000Y-52300000D03*
X75150000Y-56300000D03*
X75150000Y-53300000D03*
X75150000Y-55300000D03*
X75150000Y-54300000D03*
%TD*%
%TO.C,REF\u002A\u002A*%
X51300000Y-54250000D03*
X51300000Y-55250000D03*
X51300000Y-53250000D03*
X51300000Y-56250000D03*
X51300000Y-52250000D03*
%TD*%
%TO.C,REF\u002A\u002A*%
X68000000Y-118150000D03*
X68000000Y-114150000D03*
X68000000Y-117150000D03*
X68000000Y-115150000D03*
X68000000Y-116150000D03*
%TD*%
%TO.C,REF\u002A\u002A*%
X68000000Y-54350000D03*
X68000000Y-53350000D03*
X68000000Y-55350000D03*
X68000000Y-52350000D03*
X68000000Y-56350000D03*
%TD*%
%TO.C,REF\u002A\u002A*%
X68000000Y-87150000D03*
X68000000Y-83150000D03*
X68000000Y-86150000D03*
X68000000Y-84150000D03*
X68000000Y-85150000D03*
%TD*%
%TO.C,REF\u002A\u002A*%
X61452900Y-58326700D03*
X57452900Y-58326700D03*
X60452900Y-58326700D03*
X58452900Y-58326700D03*
X59452900Y-58326700D03*
%TD*%
%TO.C,REF\u002A\u002A*%
X51409700Y-67214700D03*
X51409700Y-71214700D03*
X51409700Y-68214700D03*
X51409700Y-70214700D03*
X51409700Y-69214700D03*
%TD*%
%TO.C,REF\u002A\u002A*%
X68100000Y-71250000D03*
X68100000Y-67250000D03*
X68100000Y-70250000D03*
X68100000Y-68250000D03*
X68100000Y-69250000D03*
%TD*%
%TO.C,REF\u002A\u002A*%
X57668800Y-81156800D03*
X61668800Y-81156800D03*
X58668800Y-81156800D03*
X60668800Y-81156800D03*
X59668800Y-81156800D03*
%TD*%
D19*
%TO.C,J3*%
X53327800Y-78616400D03*
D20*
X66027800Y-78616400D03*
D19*
X53327800Y-76076400D03*
X66027800Y-76076400D03*
X53327800Y-73536400D03*
X66027800Y-73536400D03*
X53327800Y-70996400D03*
X66027800Y-70996400D03*
X53327800Y-68456400D03*
X66027800Y-68456400D03*
X53327800Y-65916400D03*
X66027800Y-65916400D03*
X53327800Y-63376400D03*
X66027800Y-63376400D03*
X53327800Y-60836400D03*
X66027800Y-60836400D03*
D21*
X60947800Y-78616400D03*
X60947800Y-78616400D03*
X63487800Y-78616400D03*
%TD*%
D17*
%TO.C,REF\u002A\u002A*%
X85121000Y-57527000D03*
X84121000Y-57527000D03*
X86121000Y-57527000D03*
X83121000Y-57527000D03*
X87121000Y-57527000D03*
%TD*%
%TO.C,REF\u002A\u002A*%
X75100000Y-67246600D03*
X75100000Y-68246600D03*
X75100000Y-66246600D03*
X75100000Y-69246600D03*
X75100000Y-65246600D03*
%TD*%
%TO.C,REF\u002A\u002A*%
X94900000Y-67297400D03*
X94900000Y-66297400D03*
X94900000Y-68297400D03*
X94900000Y-65297400D03*
X94900000Y-69297400D03*
%TD*%
%TO.C,REF\u002A\u002A*%
X85578200Y-81241000D03*
X86578200Y-81241000D03*
X84578200Y-81241000D03*
X87578200Y-81241000D03*
X83578200Y-81241000D03*
%TD*%
%TO.C,REF\u002A\u002A*%
X51351300Y-99998700D03*
X51351300Y-100998700D03*
X51351300Y-98998700D03*
X51351300Y-101998700D03*
X51351300Y-97998700D03*
%TD*%
%TO.C,REF\u002A\u002A*%
X51300000Y-85150000D03*
X51300000Y-86150000D03*
X51300000Y-84150000D03*
X51300000Y-87150000D03*
X51300000Y-83150000D03*
%TD*%
%TO.C,REF\u002A\u002A*%
X59394500Y-89210700D03*
X58394500Y-89210700D03*
X60394500Y-89210700D03*
X57394500Y-89210700D03*
X61394500Y-89210700D03*
%TD*%
%TO.C,REF\u002A\u002A*%
X68000000Y-100136800D03*
X68000000Y-99136800D03*
X68000000Y-101136800D03*
X68000000Y-98136800D03*
X68000000Y-102136800D03*
%TD*%
%TO.C,REF\u002A\u002A*%
X59610400Y-112040800D03*
X60610400Y-112040800D03*
X58610400Y-112040800D03*
X61610400Y-112040800D03*
X57610400Y-112040800D03*
%TD*%
%TO.C,REF\u002A\u002A*%
X51300000Y-114150000D03*
X51300000Y-118150000D03*
X51300000Y-115150000D03*
X51300000Y-117150000D03*
X51300000Y-116150000D03*
%TD*%
%TO.C,U1*%
G36*
G01*
X63127800Y-68230200D02*
X63127800Y-68530200D01*
G75*
G02*
X62977800Y-68680200I-150000J0D01*
G01*
X61527800Y-68680200D01*
G75*
G02*
X61377800Y-68530200I0J150000D01*
G01*
X61377800Y-68230200D01*
G75*
G02*
X61527800Y-68080200I150000J0D01*
G01*
X62977800Y-68080200D01*
G75*
G02*
X63127800Y-68230200I0J-150000D01*
G01*
G37*
G36*
G01*
X63127800Y-66960200D02*
X63127800Y-67260200D01*
G75*
G02*
X62977800Y-67410200I-150000J0D01*
G01*
X61527800Y-67410200D01*
G75*
G02*
X61377800Y-67260200I0J150000D01*
G01*
X61377800Y-66960200D01*
G75*
G02*
X61527800Y-66810200I150000J0D01*
G01*
X62977800Y-66810200D01*
G75*
G02*
X63127800Y-66960200I0J-150000D01*
G01*
G37*
G36*
G01*
X63127800Y-65690200D02*
X63127800Y-65990200D01*
G75*
G02*
X62977800Y-66140200I-150000J0D01*
G01*
X61527800Y-66140200D01*
G75*
G02*
X61377800Y-65990200I0J150000D01*
G01*
X61377800Y-65690200D01*
G75*
G02*
X61527800Y-65540200I150000J0D01*
G01*
X62977800Y-65540200D01*
G75*
G02*
X63127800Y-65690200I0J-150000D01*
G01*
G37*
G36*
G01*
X63127800Y-64420200D02*
X63127800Y-64720200D01*
G75*
G02*
X62977800Y-64870200I-150000J0D01*
G01*
X61527800Y-64870200D01*
G75*
G02*
X61377800Y-64720200I0J150000D01*
G01*
X61377800Y-64420200D01*
G75*
G02*
X61527800Y-64270200I150000J0D01*
G01*
X62977800Y-64270200D01*
G75*
G02*
X63127800Y-64420200I0J-150000D01*
G01*
G37*
G36*
G01*
X63127800Y-63150200D02*
X63127800Y-63450200D01*
G75*
G02*
X62977800Y-63600200I-150000J0D01*
G01*
X61527800Y-63600200D01*
G75*
G02*
X61377800Y-63450200I0J150000D01*
G01*
X61377800Y-63150200D01*
G75*
G02*
X61527800Y-63000200I150000J0D01*
G01*
X62977800Y-63000200D01*
G75*
G02*
X63127800Y-63150200I0J-150000D01*
G01*
G37*
G36*
G01*
X63127800Y-61880200D02*
X63127800Y-62180200D01*
G75*
G02*
X62977800Y-62330200I-150000J0D01*
G01*
X61527800Y-62330200D01*
G75*
G02*
X61377800Y-62180200I0J150000D01*
G01*
X61377800Y-61880200D01*
G75*
G02*
X61527800Y-61730200I150000J0D01*
G01*
X62977800Y-61730200D01*
G75*
G02*
X63127800Y-61880200I0J-150000D01*
G01*
G37*
G36*
G01*
X63127800Y-60610200D02*
X63127800Y-60910200D01*
G75*
G02*
X62977800Y-61060200I-150000J0D01*
G01*
X61527800Y-61060200D01*
G75*
G02*
X61377800Y-60910200I0J150000D01*
G01*
X61377800Y-60610200D01*
G75*
G02*
X61527800Y-60460200I150000J0D01*
G01*
X62977800Y-60460200D01*
G75*
G02*
X63127800Y-60610200I0J-150000D01*
G01*
G37*
G36*
G01*
X63127800Y-59340200D02*
X63127800Y-59640200D01*
G75*
G02*
X62977800Y-59790200I-150000J0D01*
G01*
X61527800Y-59790200D01*
G75*
G02*
X61377800Y-59640200I0J150000D01*
G01*
X61377800Y-59340200D01*
G75*
G02*
X61527800Y-59190200I150000J0D01*
G01*
X62977800Y-59190200D01*
G75*
G02*
X63127800Y-59340200I0J-150000D01*
G01*
G37*
G36*
G01*
X57977800Y-59340200D02*
X57977800Y-59640200D01*
G75*
G02*
X57827800Y-59790200I-150000J0D01*
G01*
X56377800Y-59790200D01*
G75*
G02*
X56227800Y-59640200I0J150000D01*
G01*
X56227800Y-59340200D01*
G75*
G02*
X56377800Y-59190200I150000J0D01*
G01*
X57827800Y-59190200D01*
G75*
G02*
X57977800Y-59340200I0J-150000D01*
G01*
G37*
G36*
G01*
X57977800Y-60610200D02*
X57977800Y-60910200D01*
G75*
G02*
X57827800Y-61060200I-150000J0D01*
G01*
X56377800Y-61060200D01*
G75*
G02*
X56227800Y-60910200I0J150000D01*
G01*
X56227800Y-60610200D01*
G75*
G02*
X56377800Y-60460200I150000J0D01*
G01*
X57827800Y-60460200D01*
G75*
G02*
X57977800Y-60610200I0J-150000D01*
G01*
G37*
G36*
G01*
X57977800Y-61880200D02*
X57977800Y-62180200D01*
G75*
G02*
X57827800Y-62330200I-150000J0D01*
G01*
X56377800Y-62330200D01*
G75*
G02*
X56227800Y-62180200I0J150000D01*
G01*
X56227800Y-61880200D01*
G75*
G02*
X56377800Y-61730200I150000J0D01*
G01*
X57827800Y-61730200D01*
G75*
G02*
X57977800Y-61880200I0J-150000D01*
G01*
G37*
G36*
G01*
X57977800Y-63150200D02*
X57977800Y-63450200D01*
G75*
G02*
X57827800Y-63600200I-150000J0D01*
G01*
X56377800Y-63600200D01*
G75*
G02*
X56227800Y-63450200I0J150000D01*
G01*
X56227800Y-63150200D01*
G75*
G02*
X56377800Y-63000200I150000J0D01*
G01*
X57827800Y-63000200D01*
G75*
G02*
X57977800Y-63150200I0J-150000D01*
G01*
G37*
G36*
G01*
X57977800Y-64420200D02*
X57977800Y-64720200D01*
G75*
G02*
X57827800Y-64870200I-150000J0D01*
G01*
X56377800Y-64870200D01*
G75*
G02*
X56227800Y-64720200I0J150000D01*
G01*
X56227800Y-64420200D01*
G75*
G02*
X56377800Y-64270200I150000J0D01*
G01*
X57827800Y-64270200D01*
G75*
G02*
X57977800Y-64420200I0J-150000D01*
G01*
G37*
G36*
G01*
X57977800Y-65690200D02*
X57977800Y-65990200D01*
G75*
G02*
X57827800Y-66140200I-150000J0D01*
G01*
X56377800Y-66140200D01*
G75*
G02*
X56227800Y-65990200I0J150000D01*
G01*
X56227800Y-65690200D01*
G75*
G02*
X56377800Y-65540200I150000J0D01*
G01*
X57827800Y-65540200D01*
G75*
G02*
X57977800Y-65690200I0J-150000D01*
G01*
G37*
G36*
G01*
X57977800Y-66960200D02*
X57977800Y-67260200D01*
G75*
G02*
X57827800Y-67410200I-150000J0D01*
G01*
X56377800Y-67410200D01*
G75*
G02*
X56227800Y-67260200I0J150000D01*
G01*
X56227800Y-66960200D01*
G75*
G02*
X56377800Y-66810200I150000J0D01*
G01*
X57827800Y-66810200D01*
G75*
G02*
X57977800Y-66960200I0J-150000D01*
G01*
G37*
G36*
G01*
X57977800Y-68230200D02*
X57977800Y-68530200D01*
G75*
G02*
X57827800Y-68680200I-150000J0D01*
G01*
X56377800Y-68680200D01*
G75*
G02*
X56227800Y-68530200I0J150000D01*
G01*
X56227800Y-68230200D01*
G75*
G02*
X56377800Y-68080200I150000J0D01*
G01*
X57827800Y-68080200D01*
G75*
G02*
X57977800Y-68230200I0J-150000D01*
G01*
G37*
%TD*%
D19*
%TO.C,~*%
X53255801Y-109479201D03*
D20*
X65955801Y-109479201D03*
D19*
X53255801Y-106939201D03*
X65955801Y-106939201D03*
X53255801Y-104399201D03*
X65955801Y-104399201D03*
X53255801Y-101859201D03*
X65955801Y-101859201D03*
X53255801Y-99319201D03*
X65955801Y-99319201D03*
X53255801Y-96779201D03*
X65955801Y-96779201D03*
X53255801Y-94239201D03*
X65955801Y-94239201D03*
X53255801Y-91699201D03*
X65955801Y-91699201D03*
D21*
X63415801Y-109479201D03*
X60875801Y-109479201D03*
%TD*%
D18*
%TO.C,Q2*%
X56418800Y-107300200D03*
X58418800Y-106350200D03*
X58418800Y-108250200D03*
%TD*%
%TO.C,Q3*%
X56418800Y-97648200D03*
X58418800Y-96698200D03*
X58418800Y-98598200D03*
%TD*%
%TO.C,Q4*%
X58418800Y-103424200D03*
X58418800Y-101524200D03*
X56418800Y-102474200D03*
%TD*%
%TO.C,Q5*%
X58434800Y-93711200D03*
X58434800Y-91811200D03*
X56434800Y-92761200D03*
%TD*%
%TO.C,R8*%
G36*
G01*
X63752300Y-108192200D02*
X63277300Y-108192200D01*
G75*
G02*
X63039800Y-107954700I0J237500D01*
G01*
X63039800Y-107454700D01*
G75*
G02*
X63277300Y-107217200I237500J0D01*
G01*
X63752300Y-107217200D01*
G75*
G02*
X63989800Y-107454700I0J-237500D01*
G01*
X63989800Y-107954700D01*
G75*
G02*
X63752300Y-108192200I-237500J0D01*
G01*
G37*
G36*
G01*
X63752300Y-106367200D02*
X63277300Y-106367200D01*
G75*
G02*
X63039800Y-106129700I0J237500D01*
G01*
X63039800Y-105629700D01*
G75*
G02*
X63277300Y-105392200I237500J0D01*
G01*
X63752300Y-105392200D01*
G75*
G02*
X63989800Y-105629700I0J-237500D01*
G01*
X63989800Y-106129700D01*
G75*
G02*
X63752300Y-106367200I-237500J0D01*
G01*
G37*
%TD*%
%TO.C,R9*%
G36*
G01*
X60831300Y-106240200D02*
X60356300Y-106240200D01*
G75*
G02*
X60118800Y-106002700I0J237500D01*
G01*
X60118800Y-105502700D01*
G75*
G02*
X60356300Y-105265200I237500J0D01*
G01*
X60831300Y-105265200D01*
G75*
G02*
X61068800Y-105502700I0J-237500D01*
G01*
X61068800Y-106002700D01*
G75*
G02*
X60831300Y-106240200I-237500J0D01*
G01*
G37*
G36*
G01*
X60831300Y-108065200D02*
X60356300Y-108065200D01*
G75*
G02*
X60118800Y-107827700I0J237500D01*
G01*
X60118800Y-107327700D01*
G75*
G02*
X60356300Y-107090200I237500J0D01*
G01*
X60831300Y-107090200D01*
G75*
G02*
X61068800Y-107327700I0J-237500D01*
G01*
X61068800Y-107827700D01*
G75*
G02*
X60831300Y-108065200I-237500J0D01*
G01*
G37*
%TD*%
%TO.C,R10*%
G36*
G01*
X63625300Y-99937200D02*
X63150300Y-99937200D01*
G75*
G02*
X62912800Y-99699700I0J237500D01*
G01*
X62912800Y-99199700D01*
G75*
G02*
X63150300Y-98962200I237500J0D01*
G01*
X63625300Y-98962200D01*
G75*
G02*
X63862800Y-99199700I0J-237500D01*
G01*
X63862800Y-99699700D01*
G75*
G02*
X63625300Y-99937200I-237500J0D01*
G01*
G37*
G36*
G01*
X63625300Y-98112200D02*
X63150300Y-98112200D01*
G75*
G02*
X62912800Y-97874700I0J237500D01*
G01*
X62912800Y-97374700D01*
G75*
G02*
X63150300Y-97137200I237500J0D01*
G01*
X63625300Y-97137200D01*
G75*
G02*
X63862800Y-97374700I0J-237500D01*
G01*
X63862800Y-97874700D01*
G75*
G02*
X63625300Y-98112200I-237500J0D01*
G01*
G37*
%TD*%
%TO.C,R17*%
G36*
G01*
X60831300Y-96715200D02*
X60356300Y-96715200D01*
G75*
G02*
X60118800Y-96477700I0J237500D01*
G01*
X60118800Y-95977700D01*
G75*
G02*
X60356300Y-95740200I237500J0D01*
G01*
X60831300Y-95740200D01*
G75*
G02*
X61068800Y-95977700I0J-237500D01*
G01*
X61068800Y-96477700D01*
G75*
G02*
X60831300Y-96715200I-237500J0D01*
G01*
G37*
G36*
G01*
X60831300Y-98540200D02*
X60356300Y-98540200D01*
G75*
G02*
X60118800Y-98302700I0J237500D01*
G01*
X60118800Y-97802700D01*
G75*
G02*
X60356300Y-97565200I237500J0D01*
G01*
X60831300Y-97565200D01*
G75*
G02*
X61068800Y-97802700I0J-237500D01*
G01*
X61068800Y-98302700D01*
G75*
G02*
X60831300Y-98540200I-237500J0D01*
G01*
G37*
%TD*%
%TO.C,R18*%
G36*
G01*
X63625300Y-104509200D02*
X63150300Y-104509200D01*
G75*
G02*
X62912800Y-104271700I0J237500D01*
G01*
X62912800Y-103771700D01*
G75*
G02*
X63150300Y-103534200I237500J0D01*
G01*
X63625300Y-103534200D01*
G75*
G02*
X63862800Y-103771700I0J-237500D01*
G01*
X63862800Y-104271700D01*
G75*
G02*
X63625300Y-104509200I-237500J0D01*
G01*
G37*
G36*
G01*
X63625300Y-102684200D02*
X63150300Y-102684200D01*
G75*
G02*
X62912800Y-102446700I0J237500D01*
G01*
X62912800Y-101946700D01*
G75*
G02*
X63150300Y-101709200I237500J0D01*
G01*
X63625300Y-101709200D01*
G75*
G02*
X63862800Y-101946700I0J-237500D01*
G01*
X63862800Y-102446700D01*
G75*
G02*
X63625300Y-102684200I-237500J0D01*
G01*
G37*
%TD*%
%TO.C,R19*%
G36*
G01*
X60831300Y-101541200D02*
X60356300Y-101541200D01*
G75*
G02*
X60118800Y-101303700I0J237500D01*
G01*
X60118800Y-100803700D01*
G75*
G02*
X60356300Y-100566200I237500J0D01*
G01*
X60831300Y-100566200D01*
G75*
G02*
X61068800Y-100803700I0J-237500D01*
G01*
X61068800Y-101303700D01*
G75*
G02*
X60831300Y-101541200I-237500J0D01*
G01*
G37*
G36*
G01*
X60831300Y-103366200D02*
X60356300Y-103366200D01*
G75*
G02*
X60118800Y-103128700I0J237500D01*
G01*
X60118800Y-102628700D01*
G75*
G02*
X60356300Y-102391200I237500J0D01*
G01*
X60831300Y-102391200D01*
G75*
G02*
X61068800Y-102628700I0J-237500D01*
G01*
X61068800Y-103128700D01*
G75*
G02*
X60831300Y-103366200I-237500J0D01*
G01*
G37*
%TD*%
%TO.C,R20*%
G36*
G01*
X63625300Y-95492200D02*
X63150300Y-95492200D01*
G75*
G02*
X62912800Y-95254700I0J237500D01*
G01*
X62912800Y-94754700D01*
G75*
G02*
X63150300Y-94517200I237500J0D01*
G01*
X63625300Y-94517200D01*
G75*
G02*
X63862800Y-94754700I0J-237500D01*
G01*
X63862800Y-95254700D01*
G75*
G02*
X63625300Y-95492200I-237500J0D01*
G01*
G37*
G36*
G01*
X63625300Y-93667200D02*
X63150300Y-93667200D01*
G75*
G02*
X62912800Y-93429700I0J237500D01*
G01*
X62912800Y-92929700D01*
G75*
G02*
X63150300Y-92692200I237500J0D01*
G01*
X63625300Y-92692200D01*
G75*
G02*
X63862800Y-92929700I0J-237500D01*
G01*
X63862800Y-93429700D01*
G75*
G02*
X63625300Y-93667200I-237500J0D01*
G01*
G37*
%TD*%
%TO.C,R21*%
G36*
G01*
X60831300Y-92270200D02*
X60356300Y-92270200D01*
G75*
G02*
X60118800Y-92032700I0J237500D01*
G01*
X60118800Y-91532700D01*
G75*
G02*
X60356300Y-91295200I237500J0D01*
G01*
X60831300Y-91295200D01*
G75*
G02*
X61068800Y-91532700I0J-237500D01*
G01*
X61068800Y-92032700D01*
G75*
G02*
X60831300Y-92270200I-237500J0D01*
G01*
G37*
G36*
G01*
X60831300Y-94095200D02*
X60356300Y-94095200D01*
G75*
G02*
X60118800Y-93857700I0J237500D01*
G01*
X60118800Y-93357700D01*
G75*
G02*
X60356300Y-93120200I237500J0D01*
G01*
X60831300Y-93120200D01*
G75*
G02*
X61068800Y-93357700I0J-237500D01*
G01*
X61068800Y-93857700D01*
G75*
G02*
X60831300Y-94095200I-237500J0D01*
G01*
G37*
%TD*%
D16*
%TO.C,J6*%
X81400000Y-66100000D03*
D13*
X83432000Y-66100000D03*
X85464000Y-66100000D03*
X87496000Y-66100000D03*
X82416000Y-67880000D03*
X84448000Y-67880000D03*
X86480000Y-67880000D03*
X88512000Y-67880000D03*
D15*
X78610000Y-63560000D03*
X91310000Y-63560000D03*
D14*
X93090000Y-66990000D03*
X76830000Y-66990000D03*
D13*
X78100000Y-72700000D03*
X80390000Y-72700000D03*
X89530000Y-72700000D03*
X91820000Y-72700000D03*
%TD*%
M02*
