G04 #@! TF.GenerationSoftware,KiCad,Pcbnew,(6.0.0)*
G04 #@! TF.CreationDate,2022-02-08T09:03:49-06:00*
G04 #@! TF.ProjectId,Main Board V1,4d61696e-2042-46f6-9172-642056312e6b,rev?*
G04 #@! TF.SameCoordinates,Original*
G04 #@! TF.FileFunction,Soldermask,Top*
G04 #@! TF.FilePolarity,Negative*
%FSLAX46Y46*%
G04 Gerber Fmt 4.6, Leading zero omitted, Abs format (unit mm)*
G04 Created by KiCad (PCBNEW (6.0.0)) date 2022-02-08 09:03:49*
%MOMM*%
%LPD*%
G01*
G04 APERTURE LIST*
G04 Aperture macros list*
%AMRoundRect*
0 Rectangle with rounded corners*
0 $1 Rounding radius*
0 $2 $3 $4 $5 $6 $7 $8 $9 X,Y pos of 4 corners*
0 Add a 4 corners polygon primitive as box body*
4,1,4,$2,$3,$4,$5,$6,$7,$8,$9,$2,$3,0*
0 Add four circle primitives for the rounded corners*
1,1,$1+$1,$2,$3*
1,1,$1+$1,$4,$5*
1,1,$1+$1,$6,$7*
1,1,$1+$1,$8,$9*
0 Add four rect primitives between the rounded corners*
20,1,$1+$1,$2,$3,$4,$5,0*
20,1,$1+$1,$4,$5,$6,$7,0*
20,1,$1+$1,$6,$7,$8,$9,0*
20,1,$1+$1,$8,$9,$2,$3,0*%
G04 Aperture macros list end*
%ADD10RoundRect,0.237500X-0.300000X-0.237500X0.300000X-0.237500X0.300000X0.237500X-0.300000X0.237500X0*%
%ADD11RoundRect,0.237500X0.300000X0.237500X-0.300000X0.237500X-0.300000X-0.237500X0.300000X-0.237500X0*%
%ADD12RoundRect,0.237500X0.237500X-0.300000X0.237500X0.300000X-0.237500X0.300000X-0.237500X-0.300000X0*%
%ADD13RoundRect,0.237500X-0.237500X0.300000X-0.237500X-0.300000X0.237500X-0.300000X0.237500X0.300000X0*%
%ADD14RoundRect,0.249999X-0.325001X-0.450001X0.325001X-0.450001X0.325001X0.450001X-0.325001X0.450001X0*%
%ADD15RoundRect,0.237500X0.287500X0.237500X-0.287500X0.237500X-0.287500X-0.237500X0.287500X-0.237500X0*%
%ADD16R,1.700000X1.700000*%
%ADD17O,1.700000X1.700000*%
%ADD18R,2.400000X2.400000*%
%ADD19C,2.400000*%
%ADD20R,1.200000X0.700000*%
%ADD21R,0.800000X1.000000*%
%ADD22R,1.200000X1.000000*%
%ADD23R,2.800000X1.000000*%
%ADD24R,1.900000X1.300000*%
%ADD25R,1.200000X4.700000*%
%ADD26R,1.200000X2.000000*%
%ADD27RoundRect,0.237500X-0.250000X-0.237500X0.250000X-0.237500X0.250000X0.237500X-0.250000X0.237500X0*%
%ADD28RoundRect,0.237500X0.250000X0.237500X-0.250000X0.237500X-0.250000X-0.237500X0.250000X-0.237500X0*%
%ADD29O,1.200000X2.000000*%
%ADD30RoundRect,0.150000X-0.850000X-0.150000X0.850000X-0.150000X0.850000X0.150000X-0.850000X0.150000X0*%
%ADD31R,1.500000X2.000000*%
%ADD32R,3.800000X2.000000*%
%ADD33RoundRect,0.150000X-0.837500X-0.150000X0.837500X-0.150000X0.837500X0.150000X-0.837500X0.150000X0*%
%ADD34RoundRect,0.150000X-0.150000X0.837500X-0.150000X-0.837500X0.150000X-0.837500X0.150000X0.837500X0*%
%ADD35R,2.000000X1.200000*%
%ADD36O,2.000000X1.200000*%
%ADD37C,1.524000*%
%ADD38C,3.100000*%
%ADD39C,4.700000*%
%ADD40RoundRect,0.249998X0.700002X-1.950002X0.700002X1.950002X-0.700002X1.950002X-0.700002X-1.950002X0*%
%ADD41RoundRect,0.249998X1.950002X0.700002X-1.950002X0.700002X-1.950002X-0.700002X1.950002X-0.700002X0*%
%ADD42C,3.650000*%
%ADD43R,1.500000X1.500000*%
%ADD44C,1.500000*%
%ADD45C,1.800000*%
G04 APERTURE END LIST*
D10*
X67590500Y-44196000D03*
X69315500Y-44196000D03*
D11*
X69315500Y-79756000D03*
X67590500Y-79756000D03*
D12*
X144526000Y-59536500D03*
X144526000Y-57811500D03*
X144780000Y-88238500D03*
X144780000Y-86513500D03*
D10*
X128169500Y-69850000D03*
X129894500Y-69850000D03*
D11*
X101192500Y-108204000D03*
X99467500Y-108204000D03*
X189330500Y-106934000D03*
X187605500Y-106934000D03*
D13*
X185420000Y-95911500D03*
X185420000Y-97636500D03*
D11*
X144118500Y-107442000D03*
X142393500Y-107442000D03*
D14*
X78223000Y-53848000D03*
X80273000Y-53848000D03*
D15*
X144639000Y-38608000D03*
X142889000Y-38608000D03*
X144639000Y-47498000D03*
X142889000Y-47498000D03*
X144639000Y-43053000D03*
X142889000Y-43053000D03*
X144639000Y-51500000D03*
X142889000Y-51500000D03*
D16*
X164592000Y-101727000D03*
D17*
X164592000Y-99187000D03*
X164592000Y-96647000D03*
X164592000Y-94107000D03*
X164592000Y-91567000D03*
X164592000Y-89027000D03*
X164592000Y-86487000D03*
X164592000Y-83947000D03*
X164592000Y-81407000D03*
X164592000Y-78867000D03*
X164592000Y-76327000D03*
X164592000Y-73787000D03*
D18*
X66294000Y-109728000D03*
D19*
X66294000Y-113228000D03*
D16*
X130048000Y-33274000D03*
D17*
X127508000Y-33274000D03*
X124968000Y-33274000D03*
X122428000Y-33274000D03*
X119888000Y-33274000D03*
X117348000Y-33274000D03*
X114808000Y-33274000D03*
X112268000Y-33274000D03*
X109728000Y-33274000D03*
X107188000Y-33274000D03*
X104648000Y-33274000D03*
X102108000Y-33274000D03*
D16*
X72390000Y-116586000D03*
D17*
X72390000Y-119126000D03*
X72390000Y-121666000D03*
D16*
X164592000Y-67437000D03*
D17*
X164592000Y-64897000D03*
X164592000Y-62357000D03*
X164592000Y-59817000D03*
X164592000Y-57277000D03*
X164592000Y-54737000D03*
X164592000Y-52197000D03*
X164592000Y-49657000D03*
X164592000Y-47117000D03*
X164592000Y-44577000D03*
X164592000Y-42037000D03*
X164592000Y-39497000D03*
D16*
X160528000Y-63754000D03*
D17*
X160528000Y-66294000D03*
X160528000Y-68834000D03*
D16*
X198120000Y-33274000D03*
D17*
X195580000Y-33274000D03*
X193040000Y-33274000D03*
X190500000Y-33274000D03*
X187960000Y-33274000D03*
X185420000Y-33274000D03*
X182880000Y-33274000D03*
X180340000Y-33274000D03*
X177800000Y-33274000D03*
X175260000Y-33274000D03*
X172720000Y-33274000D03*
X170180000Y-33274000D03*
D20*
X79353000Y-93961000D03*
X79353000Y-92861000D03*
X79353000Y-91761000D03*
X79353000Y-90661000D03*
X79353000Y-89561000D03*
X79353000Y-88461000D03*
X79353000Y-87361000D03*
X79353000Y-86261000D03*
X79353000Y-85311000D03*
D21*
X68853000Y-84361000D03*
D22*
X75053000Y-84361000D03*
D23*
X64703000Y-84361000D03*
D24*
X64253000Y-97861000D03*
D22*
X79353000Y-95511000D03*
D16*
X119634000Y-82042000D03*
D17*
X119634000Y-79502000D03*
X119634000Y-76962000D03*
D16*
X131318000Y-82042000D03*
D17*
X131318000Y-79502000D03*
X131318000Y-76962000D03*
D16*
X137160000Y-82042000D03*
D17*
X137160000Y-79502000D03*
X137160000Y-76962000D03*
D25*
X152531000Y-90932000D03*
X149221000Y-90932000D03*
D26*
X119507000Y-55499000D03*
X119507000Y-72009000D03*
X157607000Y-55499000D03*
X157607000Y-72009000D03*
X119761000Y-86487000D03*
X119761000Y-102997000D03*
X157861000Y-86487000D03*
X157861000Y-102997000D03*
D27*
X102211500Y-85598000D03*
X104036500Y-85598000D03*
X102211500Y-89408000D03*
X104036500Y-89408000D03*
X102211500Y-97663000D03*
X104036500Y-97663000D03*
D28*
X140231500Y-38608000D03*
X138406500Y-38608000D03*
X140231500Y-47498000D03*
X138406500Y-47498000D03*
X140231500Y-43053000D03*
X138406500Y-43053000D03*
X140231500Y-51500000D03*
X138406500Y-51500000D03*
D26*
X62738000Y-65786000D03*
D29*
X65278000Y-65786000D03*
X67818000Y-65786000D03*
X70358000Y-65786000D03*
X72898000Y-65786000D03*
X75438000Y-65786000D03*
X77978000Y-65786000D03*
X80518000Y-65786000D03*
X83058000Y-65786000D03*
X85598000Y-65786000D03*
X88138000Y-65786000D03*
X90678000Y-65786000D03*
X93218000Y-65786000D03*
X95758000Y-65786000D03*
X98298000Y-65786000D03*
X100838000Y-65786000D03*
X103378000Y-65786000D03*
X105918000Y-65786000D03*
X108458000Y-65786000D03*
X108458000Y-40386000D03*
X105918000Y-40386000D03*
X103378000Y-40386000D03*
X100838000Y-40386000D03*
X98298000Y-40386000D03*
X95758000Y-40386000D03*
X93218000Y-40386000D03*
X90678000Y-40386000D03*
X88138000Y-40386000D03*
X85598000Y-40386000D03*
X83058000Y-40386000D03*
X80518000Y-40386000D03*
X77978000Y-40386000D03*
X75438000Y-40386000D03*
X72898000Y-40386000D03*
X70358000Y-40386000D03*
X67818000Y-40386000D03*
X65278000Y-40386000D03*
X62738000Y-40386000D03*
D30*
X135676000Y-91567000D03*
X135676000Y-92837000D03*
X135676000Y-94107000D03*
X135676000Y-95377000D03*
X135676000Y-96647000D03*
X135676000Y-97917000D03*
X135676000Y-99187000D03*
X135676000Y-100457000D03*
X140676000Y-100457000D03*
X140676000Y-99187000D03*
X140676000Y-97917000D03*
X140676000Y-96647000D03*
X140676000Y-95377000D03*
X140676000Y-94107000D03*
X140676000Y-92837000D03*
X140676000Y-91567000D03*
D26*
X62738000Y-101981000D03*
D29*
X65278000Y-101981000D03*
X67818000Y-101981000D03*
X70358000Y-101981000D03*
X72898000Y-101981000D03*
X75438000Y-101981000D03*
X77978000Y-101981000D03*
X80518000Y-101981000D03*
X83058000Y-101981000D03*
X85598000Y-101981000D03*
X88138000Y-101981000D03*
X90678000Y-101981000D03*
X93218000Y-101981000D03*
X95758000Y-101981000D03*
X98298000Y-101981000D03*
X100838000Y-101981000D03*
X103378000Y-101981000D03*
X105918000Y-101981000D03*
X108458000Y-101981000D03*
X108458000Y-76581000D03*
X105918000Y-76581000D03*
X103378000Y-76581000D03*
X100838000Y-76581000D03*
X98298000Y-76581000D03*
X95758000Y-76581000D03*
X93218000Y-76581000D03*
X90678000Y-76581000D03*
X88138000Y-76581000D03*
X85598000Y-76581000D03*
X83058000Y-76581000D03*
X80518000Y-76581000D03*
X77978000Y-76581000D03*
X75438000Y-76581000D03*
X72898000Y-76581000D03*
X70358000Y-76581000D03*
X67818000Y-76581000D03*
X65278000Y-76581000D03*
X62738000Y-76581000D03*
D31*
X135622000Y-71476000D03*
X137922000Y-71476000D03*
X140222000Y-71476000D03*
D32*
X137922000Y-65176000D03*
D33*
X92295500Y-110236000D03*
X92295500Y-111506000D03*
X92295500Y-112776000D03*
X92295500Y-114046000D03*
X92295500Y-115316000D03*
X92295500Y-116586000D03*
X92295500Y-117856000D03*
X92295500Y-119126000D03*
X99220500Y-119126000D03*
X99220500Y-117856000D03*
X99220500Y-116586000D03*
X99220500Y-115316000D03*
X99220500Y-114046000D03*
X99220500Y-112776000D03*
X99220500Y-111506000D03*
X99220500Y-110236000D03*
X180560500Y-108966000D03*
X180560500Y-110236000D03*
X180560500Y-111506000D03*
X180560500Y-112776000D03*
X180560500Y-114046000D03*
X180560500Y-115316000D03*
X180560500Y-116586000D03*
X180560500Y-117856000D03*
X187485500Y-117856000D03*
X187485500Y-116586000D03*
X187485500Y-115316000D03*
X187485500Y-114046000D03*
X187485500Y-112776000D03*
X187485500Y-111506000D03*
X187485500Y-110236000D03*
X187485500Y-108966000D03*
X136110500Y-109601000D03*
X136110500Y-110871000D03*
X136110500Y-112141000D03*
X136110500Y-113411000D03*
X136110500Y-114681000D03*
X136110500Y-115951000D03*
X136110500Y-117221000D03*
X136110500Y-118491000D03*
X143035500Y-118491000D03*
X143035500Y-117221000D03*
X143035500Y-115951000D03*
X143035500Y-114681000D03*
X143035500Y-113411000D03*
X143035500Y-112141000D03*
X143035500Y-110871000D03*
X143035500Y-109601000D03*
D34*
X181102000Y-93819500D03*
X179832000Y-93819500D03*
X178562000Y-93819500D03*
X177292000Y-93819500D03*
X176022000Y-93819500D03*
X174752000Y-93819500D03*
X173482000Y-93819500D03*
X172212000Y-93819500D03*
X172212000Y-100744500D03*
X173482000Y-100744500D03*
X174752000Y-100744500D03*
X176022000Y-100744500D03*
X177292000Y-100744500D03*
X178562000Y-100744500D03*
X179832000Y-100744500D03*
X181102000Y-100744500D03*
D35*
X74803000Y-126492000D03*
D36*
X74803000Y-129032000D03*
X74803000Y-131572000D03*
X74803000Y-134112000D03*
X74803000Y-136652000D03*
X74803000Y-139192000D03*
X74803000Y-141732000D03*
X74803000Y-144272000D03*
X87503000Y-144272000D03*
X87503000Y-141732000D03*
X87503000Y-139192000D03*
X87503000Y-136652000D03*
X87503000Y-134112000D03*
X87503000Y-131572000D03*
X87503000Y-129032000D03*
X87503000Y-126492000D03*
D37*
X79883000Y-126492000D03*
X77343000Y-126492000D03*
D35*
X97663000Y-126492000D03*
D36*
X97663000Y-129032000D03*
X97663000Y-131572000D03*
X97663000Y-134112000D03*
X97663000Y-136652000D03*
X97663000Y-139192000D03*
X97663000Y-141732000D03*
X97663000Y-144272000D03*
X110363000Y-144272000D03*
X110363000Y-141732000D03*
X110363000Y-139192000D03*
X110363000Y-136652000D03*
X110363000Y-134112000D03*
X110363000Y-131572000D03*
X110363000Y-129032000D03*
X110363000Y-126492000D03*
D37*
X102743000Y-126492000D03*
X100203000Y-126492000D03*
D35*
X120523000Y-126492000D03*
D36*
X120523000Y-129032000D03*
X120523000Y-131572000D03*
X120523000Y-134112000D03*
X120523000Y-136652000D03*
X120523000Y-139192000D03*
X120523000Y-141732000D03*
X120523000Y-144272000D03*
X133223000Y-144272000D03*
X133223000Y-141732000D03*
X133223000Y-139192000D03*
X133223000Y-136652000D03*
X133223000Y-134112000D03*
X133223000Y-131572000D03*
X133223000Y-129032000D03*
X133223000Y-126492000D03*
D37*
X125603000Y-126492000D03*
X123063000Y-126492000D03*
D35*
X143383000Y-126492000D03*
D36*
X143383000Y-129032000D03*
X143383000Y-131572000D03*
X143383000Y-134112000D03*
X143383000Y-136652000D03*
X143383000Y-139192000D03*
X143383000Y-141732000D03*
X143383000Y-144272000D03*
X156083000Y-144272000D03*
X156083000Y-141732000D03*
X156083000Y-139192000D03*
X156083000Y-136652000D03*
X156083000Y-134112000D03*
X156083000Y-131572000D03*
X156083000Y-129032000D03*
X156083000Y-126492000D03*
D37*
X148463000Y-126492000D03*
X145923000Y-126492000D03*
D35*
X166243000Y-126492000D03*
D36*
X166243000Y-129032000D03*
X166243000Y-131572000D03*
X166243000Y-134112000D03*
X166243000Y-136652000D03*
X166243000Y-139192000D03*
X166243000Y-141732000D03*
X166243000Y-144272000D03*
X178943000Y-144272000D03*
X178943000Y-141732000D03*
X178943000Y-139192000D03*
X178943000Y-136652000D03*
X178943000Y-134112000D03*
X178943000Y-131572000D03*
X178943000Y-129032000D03*
X178943000Y-126492000D03*
D37*
X171323000Y-126492000D03*
X168783000Y-126492000D03*
D35*
X189103000Y-126492000D03*
D36*
X189103000Y-129032000D03*
X189103000Y-131572000D03*
X189103000Y-134112000D03*
X189103000Y-136652000D03*
X189103000Y-139192000D03*
X189103000Y-141732000D03*
X189103000Y-144272000D03*
X201803000Y-144272000D03*
X201803000Y-141732000D03*
X201803000Y-139192000D03*
X201803000Y-136652000D03*
X201803000Y-134112000D03*
X201803000Y-131572000D03*
X201803000Y-129032000D03*
X201803000Y-126492000D03*
D37*
X194183000Y-126492000D03*
X191643000Y-126492000D03*
D18*
X66294000Y-121666000D03*
D19*
X66294000Y-125166000D03*
D25*
X151769000Y-60198000D03*
X148459000Y-60198000D03*
D16*
X125476000Y-82169000D03*
D17*
X125476000Y-79629000D03*
X125476000Y-77089000D03*
D27*
X102211500Y-93853000D03*
X104036500Y-93853000D03*
D16*
X96266000Y-33274000D03*
D17*
X93726000Y-33274000D03*
X91186000Y-33274000D03*
X88646000Y-33274000D03*
X86106000Y-33274000D03*
X83566000Y-33274000D03*
X81026000Y-33274000D03*
X78486000Y-33274000D03*
X75946000Y-33274000D03*
X73406000Y-33274000D03*
X70866000Y-33274000D03*
X68326000Y-33274000D03*
D38*
X64770000Y-153035000D03*
D39*
X64770000Y-153035000D03*
D38*
X116586000Y-106934000D03*
D39*
X116586000Y-106934000D03*
X201930000Y-153035000D03*
D38*
X201930000Y-153035000D03*
D39*
X196850000Y-75311000D03*
D38*
X196850000Y-75311000D03*
D39*
X196850000Y-41021000D03*
D38*
X196850000Y-41021000D03*
X64770000Y-29210000D03*
D39*
X64770000Y-29210000D03*
D40*
X152654000Y-50070000D03*
X152654000Y-41370000D03*
D41*
X152686000Y-79248000D03*
X143986000Y-79248000D03*
D40*
X79883000Y-118777000D03*
X79883000Y-110077000D03*
X108458000Y-118904000D03*
X108458000Y-110204000D03*
X124968000Y-118777000D03*
X124968000Y-110077000D03*
X154432000Y-118650000D03*
X154432000Y-109950000D03*
X169418000Y-118650000D03*
X169418000Y-109950000D03*
X198628000Y-118650000D03*
X198628000Y-109950000D03*
D38*
X201930000Y-29210000D03*
D39*
X201930000Y-29210000D03*
D16*
X76200000Y-152400000D03*
D17*
X76200000Y-149860000D03*
X78740000Y-152400000D03*
X78740000Y-149860000D03*
X81280000Y-152400000D03*
X81280000Y-149860000D03*
X83820000Y-152400000D03*
X83820000Y-149860000D03*
X86360000Y-152400000D03*
X86360000Y-149860000D03*
D16*
X99060000Y-152400000D03*
D17*
X99060000Y-149860000D03*
X101600000Y-152400000D03*
X101600000Y-149860000D03*
X104140000Y-152400000D03*
X104140000Y-149860000D03*
X106680000Y-152400000D03*
X106680000Y-149860000D03*
X109220000Y-152400000D03*
X109220000Y-149860000D03*
D16*
X121920000Y-152400000D03*
D17*
X121920000Y-149860000D03*
X124460000Y-152400000D03*
X124460000Y-149860000D03*
X127000000Y-152400000D03*
X127000000Y-149860000D03*
X129540000Y-152400000D03*
X129540000Y-149860000D03*
X132080000Y-152400000D03*
X132080000Y-149860000D03*
D16*
X144780000Y-152400000D03*
D17*
X144780000Y-149860000D03*
X147320000Y-152400000D03*
X147320000Y-149860000D03*
X149860000Y-152400000D03*
X149860000Y-149860000D03*
X152400000Y-152400000D03*
X152400000Y-149860000D03*
X154940000Y-152400000D03*
X154940000Y-149860000D03*
D16*
X167640000Y-152400000D03*
D17*
X167640000Y-149860000D03*
X170180000Y-152400000D03*
X170180000Y-149860000D03*
X172720000Y-152400000D03*
X172720000Y-149860000D03*
X175260000Y-152400000D03*
X175260000Y-149860000D03*
X177800000Y-152400000D03*
X177800000Y-149860000D03*
D16*
X186690000Y-152400000D03*
D17*
X186690000Y-149860000D03*
X189230000Y-152400000D03*
X189230000Y-149860000D03*
X191770000Y-152400000D03*
X191770000Y-149860000D03*
X194310000Y-152400000D03*
X194310000Y-149860000D03*
X196850000Y-152400000D03*
X196850000Y-149860000D03*
D16*
X163830000Y-33274000D03*
D17*
X161290000Y-33274000D03*
X158750000Y-33274000D03*
X156210000Y-33274000D03*
X153670000Y-33274000D03*
X151130000Y-33274000D03*
X148590000Y-33274000D03*
X146050000Y-33274000D03*
X143510000Y-33274000D03*
X140970000Y-33274000D03*
X138430000Y-33274000D03*
X135890000Y-33274000D03*
D13*
X90932000Y-126645500D03*
X90932000Y-128370500D03*
X113538000Y-126645500D03*
X113538000Y-128370500D03*
X136398000Y-126645500D03*
X136398000Y-128370500D03*
X159258000Y-126645500D03*
X159258000Y-128370500D03*
X182118000Y-126645500D03*
X182118000Y-128370500D03*
X196500000Y-122887500D03*
X196500000Y-124612500D03*
D16*
X104394000Y-80772000D03*
D17*
X101854000Y-80772000D03*
D16*
X94234000Y-81280000D03*
D17*
X94234000Y-83820000D03*
X94234000Y-86360000D03*
X94234000Y-88900000D03*
X94234000Y-91440000D03*
X94234000Y-93980000D03*
D16*
X91694000Y-81280000D03*
D17*
X91694000Y-83820000D03*
X91694000Y-86360000D03*
X91694000Y-88900000D03*
X91694000Y-91440000D03*
X91694000Y-93980000D03*
D16*
X89154000Y-81280000D03*
D17*
X89154000Y-83820000D03*
X89154000Y-86360000D03*
X89154000Y-88900000D03*
X89154000Y-91440000D03*
X89154000Y-93980000D03*
D28*
X84732500Y-79502000D03*
X82907500Y-79502000D03*
X84732500Y-82296000D03*
X82907500Y-82296000D03*
X84732500Y-85090000D03*
X82907500Y-85090000D03*
X84732500Y-87884000D03*
X82907500Y-87884000D03*
D42*
X128500000Y-50430000D03*
X128500000Y-39000000D03*
D43*
X122150000Y-49160000D03*
D44*
X119610000Y-47890000D03*
X122150000Y-46620000D03*
X119610000Y-45350000D03*
X122150000Y-44080000D03*
X119610000Y-42810000D03*
X122150000Y-41540000D03*
X119610000Y-40270000D03*
D10*
X136043500Y-88392000D03*
X137768500Y-88392000D03*
D16*
X97300000Y-29000000D03*
D17*
X99840000Y-29000000D03*
D16*
X103700000Y-29100000D03*
D17*
X106240000Y-29100000D03*
D45*
X115951000Y-101600000D03*
X90043000Y-107442000D03*
M02*
