G04 #@! TF.GenerationSoftware,KiCad,Pcbnew,(6.0.0)*
G04 #@! TF.CreationDate,2022-02-08T09:03:49-06:00*
G04 #@! TF.ProjectId,Main Board V1,4d61696e-2042-46f6-9172-642056312e6b,rev?*
G04 #@! TF.SameCoordinates,Original*
G04 #@! TF.FileFunction,Paste,Top*
G04 #@! TF.FilePolarity,Positive*
%FSLAX46Y46*%
G04 Gerber Fmt 4.6, Leading zero omitted, Abs format (unit mm)*
G04 Created by KiCad (PCBNEW (6.0.0)) date 2022-02-08 09:03:49*
%MOMM*%
%LPD*%
G01*
G04 APERTURE LIST*
G04 Aperture macros list*
%AMRoundRect*
0 Rectangle with rounded corners*
0 $1 Rounding radius*
0 $2 $3 $4 $5 $6 $7 $8 $9 X,Y pos of 4 corners*
0 Add a 4 corners polygon primitive as box body*
4,1,4,$2,$3,$4,$5,$6,$7,$8,$9,$2,$3,0*
0 Add four circle primitives for the rounded corners*
1,1,$1+$1,$2,$3*
1,1,$1+$1,$4,$5*
1,1,$1+$1,$6,$7*
1,1,$1+$1,$8,$9*
0 Add four rect primitives between the rounded corners*
20,1,$1+$1,$2,$3,$4,$5,0*
20,1,$1+$1,$4,$5,$6,$7,0*
20,1,$1+$1,$6,$7,$8,$9,0*
20,1,$1+$1,$8,$9,$2,$3,0*%
G04 Aperture macros list end*
%ADD10RoundRect,0.237500X-0.300000X-0.237500X0.300000X-0.237500X0.300000X0.237500X-0.300000X0.237500X0*%
%ADD11RoundRect,0.237500X0.300000X0.237500X-0.300000X0.237500X-0.300000X-0.237500X0.300000X-0.237500X0*%
%ADD12RoundRect,0.237500X0.237500X-0.300000X0.237500X0.300000X-0.237500X0.300000X-0.237500X-0.300000X0*%
%ADD13RoundRect,0.237500X-0.237500X0.300000X-0.237500X-0.300000X0.237500X-0.300000X0.237500X0.300000X0*%
%ADD14RoundRect,0.249999X-0.325001X-0.450001X0.325001X-0.450001X0.325001X0.450001X-0.325001X0.450001X0*%
%ADD15RoundRect,0.237500X0.287500X0.237500X-0.287500X0.237500X-0.287500X-0.237500X0.287500X-0.237500X0*%
%ADD16R,1.200000X0.700000*%
%ADD17R,0.800000X1.000000*%
%ADD18R,1.200000X1.000000*%
%ADD19R,2.800000X1.000000*%
%ADD20R,1.900000X1.300000*%
%ADD21R,1.200000X4.700000*%
%ADD22RoundRect,0.237500X-0.250000X-0.237500X0.250000X-0.237500X0.250000X0.237500X-0.250000X0.237500X0*%
%ADD23RoundRect,0.237500X0.250000X0.237500X-0.250000X0.237500X-0.250000X-0.237500X0.250000X-0.237500X0*%
%ADD24RoundRect,0.150000X-0.850000X-0.150000X0.850000X-0.150000X0.850000X0.150000X-0.850000X0.150000X0*%
%ADD25R,1.500000X2.000000*%
%ADD26R,3.800000X2.000000*%
%ADD27RoundRect,0.150000X-0.837500X-0.150000X0.837500X-0.150000X0.837500X0.150000X-0.837500X0.150000X0*%
%ADD28RoundRect,0.150000X-0.150000X0.837500X-0.150000X-0.837500X0.150000X-0.837500X0.150000X0.837500X0*%
%ADD29RoundRect,0.249998X0.700002X-1.950002X0.700002X1.950002X-0.700002X1.950002X-0.700002X-1.950002X0*%
%ADD30RoundRect,0.249998X1.950002X0.700002X-1.950002X0.700002X-1.950002X-0.700002X1.950002X-0.700002X0*%
G04 APERTURE END LIST*
D10*
X67590500Y-44196000D03*
X69315500Y-44196000D03*
D11*
X69315500Y-79756000D03*
X67590500Y-79756000D03*
D12*
X144526000Y-59536500D03*
X144526000Y-57811500D03*
X144780000Y-88238500D03*
X144780000Y-86513500D03*
D10*
X128169500Y-69850000D03*
X129894500Y-69850000D03*
D11*
X101192500Y-108204000D03*
X99467500Y-108204000D03*
X189330500Y-106934000D03*
X187605500Y-106934000D03*
D13*
X185420000Y-95911500D03*
X185420000Y-97636500D03*
D11*
X144118500Y-107442000D03*
X142393500Y-107442000D03*
D14*
X78223000Y-53848000D03*
X80273000Y-53848000D03*
D15*
X144639000Y-38608000D03*
X142889000Y-38608000D03*
X144639000Y-47498000D03*
X142889000Y-47498000D03*
X144639000Y-43053000D03*
X142889000Y-43053000D03*
X144639000Y-51500000D03*
X142889000Y-51500000D03*
D16*
X79353000Y-93961000D03*
X79353000Y-92861000D03*
X79353000Y-91761000D03*
X79353000Y-90661000D03*
X79353000Y-89561000D03*
X79353000Y-88461000D03*
X79353000Y-87361000D03*
X79353000Y-86261000D03*
X79353000Y-85311000D03*
D17*
X68853000Y-84361000D03*
D18*
X75053000Y-84361000D03*
D19*
X64703000Y-84361000D03*
D20*
X64253000Y-97861000D03*
D18*
X79353000Y-95511000D03*
D21*
X152531000Y-90932000D03*
X149221000Y-90932000D03*
D22*
X102211500Y-85598000D03*
X104036500Y-85598000D03*
X102211500Y-89408000D03*
X104036500Y-89408000D03*
X102211500Y-97663000D03*
X104036500Y-97663000D03*
D23*
X140231500Y-38608000D03*
X138406500Y-38608000D03*
X140231500Y-47498000D03*
X138406500Y-47498000D03*
X140231500Y-43053000D03*
X138406500Y-43053000D03*
X140231500Y-51500000D03*
X138406500Y-51500000D03*
D24*
X135676000Y-91567000D03*
X135676000Y-92837000D03*
X135676000Y-94107000D03*
X135676000Y-95377000D03*
X135676000Y-96647000D03*
X135676000Y-97917000D03*
X135676000Y-99187000D03*
X135676000Y-100457000D03*
X140676000Y-100457000D03*
X140676000Y-99187000D03*
X140676000Y-97917000D03*
X140676000Y-96647000D03*
X140676000Y-95377000D03*
X140676000Y-94107000D03*
X140676000Y-92837000D03*
X140676000Y-91567000D03*
D25*
X135622000Y-71476000D03*
X137922000Y-71476000D03*
X140222000Y-71476000D03*
D26*
X137922000Y-65176000D03*
D27*
X92295500Y-110236000D03*
X92295500Y-111506000D03*
X92295500Y-112776000D03*
X92295500Y-114046000D03*
X92295500Y-115316000D03*
X92295500Y-116586000D03*
X92295500Y-117856000D03*
X92295500Y-119126000D03*
X99220500Y-119126000D03*
X99220500Y-117856000D03*
X99220500Y-116586000D03*
X99220500Y-115316000D03*
X99220500Y-114046000D03*
X99220500Y-112776000D03*
X99220500Y-111506000D03*
X99220500Y-110236000D03*
X180560500Y-108966000D03*
X180560500Y-110236000D03*
X180560500Y-111506000D03*
X180560500Y-112776000D03*
X180560500Y-114046000D03*
X180560500Y-115316000D03*
X180560500Y-116586000D03*
X180560500Y-117856000D03*
X187485500Y-117856000D03*
X187485500Y-116586000D03*
X187485500Y-115316000D03*
X187485500Y-114046000D03*
X187485500Y-112776000D03*
X187485500Y-111506000D03*
X187485500Y-110236000D03*
X187485500Y-108966000D03*
X136110500Y-109601000D03*
X136110500Y-110871000D03*
X136110500Y-112141000D03*
X136110500Y-113411000D03*
X136110500Y-114681000D03*
X136110500Y-115951000D03*
X136110500Y-117221000D03*
X136110500Y-118491000D03*
X143035500Y-118491000D03*
X143035500Y-117221000D03*
X143035500Y-115951000D03*
X143035500Y-114681000D03*
X143035500Y-113411000D03*
X143035500Y-112141000D03*
X143035500Y-110871000D03*
X143035500Y-109601000D03*
D28*
X181102000Y-93819500D03*
X179832000Y-93819500D03*
X178562000Y-93819500D03*
X177292000Y-93819500D03*
X176022000Y-93819500D03*
X174752000Y-93819500D03*
X173482000Y-93819500D03*
X172212000Y-93819500D03*
X172212000Y-100744500D03*
X173482000Y-100744500D03*
X174752000Y-100744500D03*
X176022000Y-100744500D03*
X177292000Y-100744500D03*
X178562000Y-100744500D03*
X179832000Y-100744500D03*
X181102000Y-100744500D03*
D21*
X151769000Y-60198000D03*
X148459000Y-60198000D03*
D22*
X102211500Y-93853000D03*
X104036500Y-93853000D03*
D29*
X152654000Y-50070000D03*
X152654000Y-41370000D03*
D30*
X152686000Y-79248000D03*
X143986000Y-79248000D03*
D29*
X79883000Y-118777000D03*
X79883000Y-110077000D03*
X108458000Y-118904000D03*
X108458000Y-110204000D03*
X124968000Y-118777000D03*
X124968000Y-110077000D03*
X154432000Y-118650000D03*
X154432000Y-109950000D03*
X169418000Y-118650000D03*
X169418000Y-109950000D03*
X198628000Y-118650000D03*
X198628000Y-109950000D03*
D13*
X90932000Y-126645500D03*
X90932000Y-128370500D03*
X113538000Y-126645500D03*
X113538000Y-128370500D03*
X136398000Y-126645500D03*
X136398000Y-128370500D03*
X159258000Y-126645500D03*
X159258000Y-128370500D03*
X182118000Y-126645500D03*
X182118000Y-128370500D03*
X196500000Y-122887500D03*
X196500000Y-124612500D03*
D23*
X84732500Y-79502000D03*
X82907500Y-79502000D03*
X84732500Y-82296000D03*
X82907500Y-82296000D03*
X84732500Y-85090000D03*
X82907500Y-85090000D03*
X84732500Y-87884000D03*
X82907500Y-87884000D03*
D10*
X136043500Y-88392000D03*
X137768500Y-88392000D03*
M02*
