G04 #@! TF.GenerationSoftware,KiCad,Pcbnew,(6.0.0)*
G04 #@! TF.CreationDate,2022-02-08T09:03:49-06:00*
G04 #@! TF.ProjectId,Main Board V1,4d61696e-2042-46f6-9172-642056312e6b,rev?*
G04 #@! TF.SameCoordinates,Original*
G04 #@! TF.FileFunction,Copper,L1,Top*
G04 #@! TF.FilePolarity,Positive*
%FSLAX46Y46*%
G04 Gerber Fmt 4.6, Leading zero omitted, Abs format (unit mm)*
G04 Created by KiCad (PCBNEW (6.0.0)) date 2022-02-08 09:03:49*
%MOMM*%
%LPD*%
G01*
G04 APERTURE LIST*
G04 Aperture macros list*
%AMRoundRect*
0 Rectangle with rounded corners*
0 $1 Rounding radius*
0 $2 $3 $4 $5 $6 $7 $8 $9 X,Y pos of 4 corners*
0 Add a 4 corners polygon primitive as box body*
4,1,4,$2,$3,$4,$5,$6,$7,$8,$9,$2,$3,0*
0 Add four circle primitives for the rounded corners*
1,1,$1+$1,$2,$3*
1,1,$1+$1,$4,$5*
1,1,$1+$1,$6,$7*
1,1,$1+$1,$8,$9*
0 Add four rect primitives between the rounded corners*
20,1,$1+$1,$2,$3,$4,$5,0*
20,1,$1+$1,$4,$5,$6,$7,0*
20,1,$1+$1,$6,$7,$8,$9,0*
20,1,$1+$1,$8,$9,$2,$3,0*%
G04 Aperture macros list end*
G04 #@! TA.AperFunction,SMDPad,CuDef*
%ADD10RoundRect,0.237500X-0.300000X-0.237500X0.300000X-0.237500X0.300000X0.237500X-0.300000X0.237500X0*%
G04 #@! TD*
G04 #@! TA.AperFunction,SMDPad,CuDef*
%ADD11RoundRect,0.237500X0.300000X0.237500X-0.300000X0.237500X-0.300000X-0.237500X0.300000X-0.237500X0*%
G04 #@! TD*
G04 #@! TA.AperFunction,SMDPad,CuDef*
%ADD12RoundRect,0.237500X0.237500X-0.300000X0.237500X0.300000X-0.237500X0.300000X-0.237500X-0.300000X0*%
G04 #@! TD*
G04 #@! TA.AperFunction,SMDPad,CuDef*
%ADD13RoundRect,0.237500X-0.237500X0.300000X-0.237500X-0.300000X0.237500X-0.300000X0.237500X0.300000X0*%
G04 #@! TD*
G04 #@! TA.AperFunction,SMDPad,CuDef*
%ADD14RoundRect,0.249999X-0.325001X-0.450001X0.325001X-0.450001X0.325001X0.450001X-0.325001X0.450001X0*%
G04 #@! TD*
G04 #@! TA.AperFunction,SMDPad,CuDef*
%ADD15RoundRect,0.237500X0.287500X0.237500X-0.287500X0.237500X-0.287500X-0.237500X0.287500X-0.237500X0*%
G04 #@! TD*
G04 #@! TA.AperFunction,ComponentPad*
%ADD16R,1.700000X1.700000*%
G04 #@! TD*
G04 #@! TA.AperFunction,ComponentPad*
%ADD17O,1.700000X1.700000*%
G04 #@! TD*
G04 #@! TA.AperFunction,ComponentPad*
%ADD18R,2.400000X2.400000*%
G04 #@! TD*
G04 #@! TA.AperFunction,ComponentPad*
%ADD19C,2.400000*%
G04 #@! TD*
G04 #@! TA.AperFunction,SMDPad,CuDef*
%ADD20R,1.200000X0.700000*%
G04 #@! TD*
G04 #@! TA.AperFunction,SMDPad,CuDef*
%ADD21R,0.800000X1.000000*%
G04 #@! TD*
G04 #@! TA.AperFunction,SMDPad,CuDef*
%ADD22R,1.200000X1.000000*%
G04 #@! TD*
G04 #@! TA.AperFunction,SMDPad,CuDef*
%ADD23R,2.800000X1.000000*%
G04 #@! TD*
G04 #@! TA.AperFunction,SMDPad,CuDef*
%ADD24R,1.900000X1.300000*%
G04 #@! TD*
G04 #@! TA.AperFunction,SMDPad,CuDef*
%ADD25R,1.200000X4.700000*%
G04 #@! TD*
G04 #@! TA.AperFunction,ComponentPad*
%ADD26R,1.200000X2.000000*%
G04 #@! TD*
G04 #@! TA.AperFunction,SMDPad,CuDef*
%ADD27RoundRect,0.237500X-0.250000X-0.237500X0.250000X-0.237500X0.250000X0.237500X-0.250000X0.237500X0*%
G04 #@! TD*
G04 #@! TA.AperFunction,SMDPad,CuDef*
%ADD28RoundRect,0.237500X0.250000X0.237500X-0.250000X0.237500X-0.250000X-0.237500X0.250000X-0.237500X0*%
G04 #@! TD*
G04 #@! TA.AperFunction,ComponentPad*
%ADD29O,1.200000X2.000000*%
G04 #@! TD*
G04 #@! TA.AperFunction,SMDPad,CuDef*
%ADD30RoundRect,0.150000X-0.850000X-0.150000X0.850000X-0.150000X0.850000X0.150000X-0.850000X0.150000X0*%
G04 #@! TD*
G04 #@! TA.AperFunction,SMDPad,CuDef*
%ADD31R,1.500000X2.000000*%
G04 #@! TD*
G04 #@! TA.AperFunction,SMDPad,CuDef*
%ADD32R,3.800000X2.000000*%
G04 #@! TD*
G04 #@! TA.AperFunction,SMDPad,CuDef*
%ADD33RoundRect,0.150000X-0.837500X-0.150000X0.837500X-0.150000X0.837500X0.150000X-0.837500X0.150000X0*%
G04 #@! TD*
G04 #@! TA.AperFunction,SMDPad,CuDef*
%ADD34RoundRect,0.150000X-0.150000X0.837500X-0.150000X-0.837500X0.150000X-0.837500X0.150000X0.837500X0*%
G04 #@! TD*
G04 #@! TA.AperFunction,ComponentPad*
%ADD35R,2.000000X1.200000*%
G04 #@! TD*
G04 #@! TA.AperFunction,ComponentPad*
%ADD36O,2.000000X1.200000*%
G04 #@! TD*
G04 #@! TA.AperFunction,ComponentPad*
%ADD37C,1.524000*%
G04 #@! TD*
G04 #@! TA.AperFunction,ComponentPad*
%ADD38C,3.100000*%
G04 #@! TD*
G04 #@! TA.AperFunction,ConnectorPad*
%ADD39C,4.700000*%
G04 #@! TD*
G04 #@! TA.AperFunction,SMDPad,CuDef*
%ADD40RoundRect,0.249998X0.700002X-1.950002X0.700002X1.950002X-0.700002X1.950002X-0.700002X-1.950002X0*%
G04 #@! TD*
G04 #@! TA.AperFunction,SMDPad,CuDef*
%ADD41RoundRect,0.249998X1.950002X0.700002X-1.950002X0.700002X-1.950002X-0.700002X1.950002X-0.700002X0*%
G04 #@! TD*
G04 #@! TA.AperFunction,WasherPad*
%ADD42C,3.650000*%
G04 #@! TD*
G04 #@! TA.AperFunction,ComponentPad*
%ADD43R,1.500000X1.500000*%
G04 #@! TD*
G04 #@! TA.AperFunction,ComponentPad*
%ADD44C,1.500000*%
G04 #@! TD*
G04 #@! TA.AperFunction,ComponentPad*
%ADD45C,1.800000*%
G04 #@! TD*
G04 #@! TA.AperFunction,ViaPad*
%ADD46C,2.500000*%
G04 #@! TD*
G04 #@! TA.AperFunction,ViaPad*
%ADD47C,1.500000*%
G04 #@! TD*
G04 #@! TA.AperFunction,ViaPad*
%ADD48C,0.800000*%
G04 #@! TD*
G04 #@! TA.AperFunction,ViaPad*
%ADD49C,1.000000*%
G04 #@! TD*
G04 #@! TA.AperFunction,Conductor*
%ADD50C,2.032000*%
G04 #@! TD*
G04 #@! TA.AperFunction,Conductor*
%ADD51C,0.762000*%
G04 #@! TD*
G04 #@! TA.AperFunction,Conductor*
%ADD52C,0.508000*%
G04 #@! TD*
G04 #@! TA.AperFunction,Conductor*
%ADD53C,1.270000*%
G04 #@! TD*
G04 #@! TA.AperFunction,Conductor*
%ADD54C,0.381000*%
G04 #@! TD*
G04 #@! TA.AperFunction,Conductor*
%ADD55C,0.254000*%
G04 #@! TD*
G04 #@! TA.AperFunction,Conductor*
%ADD56C,0.250000*%
G04 #@! TD*
G04 APERTURE END LIST*
D10*
X67590500Y-44196000D03*
X69315500Y-44196000D03*
D11*
X69315500Y-79756000D03*
X67590500Y-79756000D03*
D12*
X144526000Y-59536500D03*
X144526000Y-57811500D03*
X144780000Y-88238500D03*
X144780000Y-86513500D03*
D10*
X128169500Y-69850000D03*
X129894500Y-69850000D03*
D11*
X101192500Y-108204000D03*
X99467500Y-108204000D03*
X189330500Y-106934000D03*
X187605500Y-106934000D03*
D13*
X185420000Y-95911500D03*
X185420000Y-97636500D03*
D11*
X144118500Y-107442000D03*
X142393500Y-107442000D03*
D14*
X78223000Y-53848000D03*
X80273000Y-53848000D03*
D15*
X144639000Y-38608000D03*
X142889000Y-38608000D03*
X144639000Y-47498000D03*
X142889000Y-47498000D03*
X144639000Y-43053000D03*
X142889000Y-43053000D03*
X144639000Y-51500000D03*
X142889000Y-51500000D03*
D16*
X164592000Y-101727000D03*
D17*
X164592000Y-99187000D03*
X164592000Y-96647000D03*
X164592000Y-94107000D03*
X164592000Y-91567000D03*
X164592000Y-89027000D03*
X164592000Y-86487000D03*
X164592000Y-83947000D03*
X164592000Y-81407000D03*
X164592000Y-78867000D03*
X164592000Y-76327000D03*
X164592000Y-73787000D03*
D18*
X66294000Y-109728000D03*
D19*
X66294000Y-113228000D03*
D16*
X130048000Y-33274000D03*
D17*
X127508000Y-33274000D03*
X124968000Y-33274000D03*
X122428000Y-33274000D03*
X119888000Y-33274000D03*
X117348000Y-33274000D03*
X114808000Y-33274000D03*
X112268000Y-33274000D03*
X109728000Y-33274000D03*
X107188000Y-33274000D03*
X104648000Y-33274000D03*
X102108000Y-33274000D03*
D16*
X72390000Y-116586000D03*
D17*
X72390000Y-119126000D03*
X72390000Y-121666000D03*
D16*
X164592000Y-67437000D03*
D17*
X164592000Y-64897000D03*
X164592000Y-62357000D03*
X164592000Y-59817000D03*
X164592000Y-57277000D03*
X164592000Y-54737000D03*
X164592000Y-52197000D03*
X164592000Y-49657000D03*
X164592000Y-47117000D03*
X164592000Y-44577000D03*
X164592000Y-42037000D03*
X164592000Y-39497000D03*
D16*
X160528000Y-63754000D03*
D17*
X160528000Y-66294000D03*
X160528000Y-68834000D03*
D16*
X198120000Y-33274000D03*
D17*
X195580000Y-33274000D03*
X193040000Y-33274000D03*
X190500000Y-33274000D03*
X187960000Y-33274000D03*
X185420000Y-33274000D03*
X182880000Y-33274000D03*
X180340000Y-33274000D03*
X177800000Y-33274000D03*
X175260000Y-33274000D03*
X172720000Y-33274000D03*
X170180000Y-33274000D03*
D20*
X79353000Y-93961000D03*
X79353000Y-92861000D03*
X79353000Y-91761000D03*
X79353000Y-90661000D03*
X79353000Y-89561000D03*
X79353000Y-88461000D03*
X79353000Y-87361000D03*
X79353000Y-86261000D03*
X79353000Y-85311000D03*
D21*
X68853000Y-84361000D03*
D22*
X75053000Y-84361000D03*
D23*
X64703000Y-84361000D03*
D24*
X64253000Y-97861000D03*
D22*
X79353000Y-95511000D03*
D16*
X119634000Y-82042000D03*
D17*
X119634000Y-79502000D03*
X119634000Y-76962000D03*
D16*
X131318000Y-82042000D03*
D17*
X131318000Y-79502000D03*
X131318000Y-76962000D03*
D16*
X137160000Y-82042000D03*
D17*
X137160000Y-79502000D03*
X137160000Y-76962000D03*
D25*
X152531000Y-90932000D03*
X149221000Y-90932000D03*
D26*
X119507000Y-55499000D03*
X119507000Y-72009000D03*
X157607000Y-55499000D03*
X157607000Y-72009000D03*
X119761000Y-86487000D03*
X119761000Y-102997000D03*
X157861000Y-86487000D03*
X157861000Y-102997000D03*
D27*
X102211500Y-85598000D03*
X104036500Y-85598000D03*
X102211500Y-89408000D03*
X104036500Y-89408000D03*
X102211500Y-97663000D03*
X104036500Y-97663000D03*
D28*
X140231500Y-38608000D03*
X138406500Y-38608000D03*
X140231500Y-47498000D03*
X138406500Y-47498000D03*
X140231500Y-43053000D03*
X138406500Y-43053000D03*
X140231500Y-51500000D03*
X138406500Y-51500000D03*
D26*
X62738000Y-65786000D03*
D29*
X65278000Y-65786000D03*
X67818000Y-65786000D03*
X70358000Y-65786000D03*
X72898000Y-65786000D03*
X75438000Y-65786000D03*
X77978000Y-65786000D03*
X80518000Y-65786000D03*
X83058000Y-65786000D03*
X85598000Y-65786000D03*
X88138000Y-65786000D03*
X90678000Y-65786000D03*
X93218000Y-65786000D03*
X95758000Y-65786000D03*
X98298000Y-65786000D03*
X100838000Y-65786000D03*
X103378000Y-65786000D03*
X105918000Y-65786000D03*
X108458000Y-65786000D03*
X108458000Y-40386000D03*
X105918000Y-40386000D03*
X103378000Y-40386000D03*
X100838000Y-40386000D03*
X98298000Y-40386000D03*
X95758000Y-40386000D03*
X93218000Y-40386000D03*
X90678000Y-40386000D03*
X88138000Y-40386000D03*
X85598000Y-40386000D03*
X83058000Y-40386000D03*
X80518000Y-40386000D03*
X77978000Y-40386000D03*
X75438000Y-40386000D03*
X72898000Y-40386000D03*
X70358000Y-40386000D03*
X67818000Y-40386000D03*
X65278000Y-40386000D03*
X62738000Y-40386000D03*
D30*
X135676000Y-91567000D03*
X135676000Y-92837000D03*
X135676000Y-94107000D03*
X135676000Y-95377000D03*
X135676000Y-96647000D03*
X135676000Y-97917000D03*
X135676000Y-99187000D03*
X135676000Y-100457000D03*
X140676000Y-100457000D03*
X140676000Y-99187000D03*
X140676000Y-97917000D03*
X140676000Y-96647000D03*
X140676000Y-95377000D03*
X140676000Y-94107000D03*
X140676000Y-92837000D03*
X140676000Y-91567000D03*
D26*
X62738000Y-101981000D03*
D29*
X65278000Y-101981000D03*
X67818000Y-101981000D03*
X70358000Y-101981000D03*
X72898000Y-101981000D03*
X75438000Y-101981000D03*
X77978000Y-101981000D03*
X80518000Y-101981000D03*
X83058000Y-101981000D03*
X85598000Y-101981000D03*
X88138000Y-101981000D03*
X90678000Y-101981000D03*
X93218000Y-101981000D03*
X95758000Y-101981000D03*
X98298000Y-101981000D03*
X100838000Y-101981000D03*
X103378000Y-101981000D03*
X105918000Y-101981000D03*
X108458000Y-101981000D03*
X108458000Y-76581000D03*
X105918000Y-76581000D03*
X103378000Y-76581000D03*
X100838000Y-76581000D03*
X98298000Y-76581000D03*
X95758000Y-76581000D03*
X93218000Y-76581000D03*
X90678000Y-76581000D03*
X88138000Y-76581000D03*
X85598000Y-76581000D03*
X83058000Y-76581000D03*
X80518000Y-76581000D03*
X77978000Y-76581000D03*
X75438000Y-76581000D03*
X72898000Y-76581000D03*
X70358000Y-76581000D03*
X67818000Y-76581000D03*
X65278000Y-76581000D03*
X62738000Y-76581000D03*
D31*
X135622000Y-71476000D03*
X137922000Y-71476000D03*
X140222000Y-71476000D03*
D32*
X137922000Y-65176000D03*
D33*
X92295500Y-110236000D03*
X92295500Y-111506000D03*
X92295500Y-112776000D03*
X92295500Y-114046000D03*
X92295500Y-115316000D03*
X92295500Y-116586000D03*
X92295500Y-117856000D03*
X92295500Y-119126000D03*
X99220500Y-119126000D03*
X99220500Y-117856000D03*
X99220500Y-116586000D03*
X99220500Y-115316000D03*
X99220500Y-114046000D03*
X99220500Y-112776000D03*
X99220500Y-111506000D03*
X99220500Y-110236000D03*
X180560500Y-108966000D03*
X180560500Y-110236000D03*
X180560500Y-111506000D03*
X180560500Y-112776000D03*
X180560500Y-114046000D03*
X180560500Y-115316000D03*
X180560500Y-116586000D03*
X180560500Y-117856000D03*
X187485500Y-117856000D03*
X187485500Y-116586000D03*
X187485500Y-115316000D03*
X187485500Y-114046000D03*
X187485500Y-112776000D03*
X187485500Y-111506000D03*
X187485500Y-110236000D03*
X187485500Y-108966000D03*
X136110500Y-109601000D03*
X136110500Y-110871000D03*
X136110500Y-112141000D03*
X136110500Y-113411000D03*
X136110500Y-114681000D03*
X136110500Y-115951000D03*
X136110500Y-117221000D03*
X136110500Y-118491000D03*
X143035500Y-118491000D03*
X143035500Y-117221000D03*
X143035500Y-115951000D03*
X143035500Y-114681000D03*
X143035500Y-113411000D03*
X143035500Y-112141000D03*
X143035500Y-110871000D03*
X143035500Y-109601000D03*
D34*
X181102000Y-93819500D03*
X179832000Y-93819500D03*
X178562000Y-93819500D03*
X177292000Y-93819500D03*
X176022000Y-93819500D03*
X174752000Y-93819500D03*
X173482000Y-93819500D03*
X172212000Y-93819500D03*
X172212000Y-100744500D03*
X173482000Y-100744500D03*
X174752000Y-100744500D03*
X176022000Y-100744500D03*
X177292000Y-100744500D03*
X178562000Y-100744500D03*
X179832000Y-100744500D03*
X181102000Y-100744500D03*
D35*
X74803000Y-126492000D03*
D36*
X74803000Y-129032000D03*
X74803000Y-131572000D03*
X74803000Y-134112000D03*
X74803000Y-136652000D03*
X74803000Y-139192000D03*
X74803000Y-141732000D03*
X74803000Y-144272000D03*
X87503000Y-144272000D03*
X87503000Y-141732000D03*
X87503000Y-139192000D03*
X87503000Y-136652000D03*
X87503000Y-134112000D03*
X87503000Y-131572000D03*
X87503000Y-129032000D03*
X87503000Y-126492000D03*
D37*
X79883000Y-126492000D03*
X77343000Y-126492000D03*
D35*
X97663000Y-126492000D03*
D36*
X97663000Y-129032000D03*
X97663000Y-131572000D03*
X97663000Y-134112000D03*
X97663000Y-136652000D03*
X97663000Y-139192000D03*
X97663000Y-141732000D03*
X97663000Y-144272000D03*
X110363000Y-144272000D03*
X110363000Y-141732000D03*
X110363000Y-139192000D03*
X110363000Y-136652000D03*
X110363000Y-134112000D03*
X110363000Y-131572000D03*
X110363000Y-129032000D03*
X110363000Y-126492000D03*
D37*
X102743000Y-126492000D03*
X100203000Y-126492000D03*
D35*
X120523000Y-126492000D03*
D36*
X120523000Y-129032000D03*
X120523000Y-131572000D03*
X120523000Y-134112000D03*
X120523000Y-136652000D03*
X120523000Y-139192000D03*
X120523000Y-141732000D03*
X120523000Y-144272000D03*
X133223000Y-144272000D03*
X133223000Y-141732000D03*
X133223000Y-139192000D03*
X133223000Y-136652000D03*
X133223000Y-134112000D03*
X133223000Y-131572000D03*
X133223000Y-129032000D03*
X133223000Y-126492000D03*
D37*
X125603000Y-126492000D03*
X123063000Y-126492000D03*
D35*
X143383000Y-126492000D03*
D36*
X143383000Y-129032000D03*
X143383000Y-131572000D03*
X143383000Y-134112000D03*
X143383000Y-136652000D03*
X143383000Y-139192000D03*
X143383000Y-141732000D03*
X143383000Y-144272000D03*
X156083000Y-144272000D03*
X156083000Y-141732000D03*
X156083000Y-139192000D03*
X156083000Y-136652000D03*
X156083000Y-134112000D03*
X156083000Y-131572000D03*
X156083000Y-129032000D03*
X156083000Y-126492000D03*
D37*
X148463000Y-126492000D03*
X145923000Y-126492000D03*
D35*
X166243000Y-126492000D03*
D36*
X166243000Y-129032000D03*
X166243000Y-131572000D03*
X166243000Y-134112000D03*
X166243000Y-136652000D03*
X166243000Y-139192000D03*
X166243000Y-141732000D03*
X166243000Y-144272000D03*
X178943000Y-144272000D03*
X178943000Y-141732000D03*
X178943000Y-139192000D03*
X178943000Y-136652000D03*
X178943000Y-134112000D03*
X178943000Y-131572000D03*
X178943000Y-129032000D03*
X178943000Y-126492000D03*
D37*
X171323000Y-126492000D03*
X168783000Y-126492000D03*
D35*
X189103000Y-126492000D03*
D36*
X189103000Y-129032000D03*
X189103000Y-131572000D03*
X189103000Y-134112000D03*
X189103000Y-136652000D03*
X189103000Y-139192000D03*
X189103000Y-141732000D03*
X189103000Y-144272000D03*
X201803000Y-144272000D03*
X201803000Y-141732000D03*
X201803000Y-139192000D03*
X201803000Y-136652000D03*
X201803000Y-134112000D03*
X201803000Y-131572000D03*
X201803000Y-129032000D03*
X201803000Y-126492000D03*
D37*
X194183000Y-126492000D03*
X191643000Y-126492000D03*
D18*
X66294000Y-121666000D03*
D19*
X66294000Y-125166000D03*
D25*
X151769000Y-60198000D03*
X148459000Y-60198000D03*
D16*
X125476000Y-82169000D03*
D17*
X125476000Y-79629000D03*
X125476000Y-77089000D03*
D27*
X102211500Y-93853000D03*
X104036500Y-93853000D03*
D16*
X96266000Y-33274000D03*
D17*
X93726000Y-33274000D03*
X91186000Y-33274000D03*
X88646000Y-33274000D03*
X86106000Y-33274000D03*
X83566000Y-33274000D03*
X81026000Y-33274000D03*
X78486000Y-33274000D03*
X75946000Y-33274000D03*
X73406000Y-33274000D03*
X70866000Y-33274000D03*
X68326000Y-33274000D03*
D38*
X64770000Y-153035000D03*
D39*
X64770000Y-153035000D03*
D38*
X116586000Y-106934000D03*
D39*
X116586000Y-106934000D03*
X201930000Y-153035000D03*
D38*
X201930000Y-153035000D03*
D39*
X196850000Y-75311000D03*
D38*
X196850000Y-75311000D03*
D39*
X196850000Y-41021000D03*
D38*
X196850000Y-41021000D03*
X64770000Y-29210000D03*
D39*
X64770000Y-29210000D03*
D40*
X152654000Y-50070000D03*
X152654000Y-41370000D03*
D41*
X152686000Y-79248000D03*
X143986000Y-79248000D03*
D40*
X79883000Y-118777000D03*
X79883000Y-110077000D03*
X108458000Y-118904000D03*
X108458000Y-110204000D03*
X124968000Y-118777000D03*
X124968000Y-110077000D03*
X154432000Y-118650000D03*
X154432000Y-109950000D03*
X169418000Y-118650000D03*
X169418000Y-109950000D03*
X198628000Y-118650000D03*
X198628000Y-109950000D03*
D38*
X201930000Y-29210000D03*
D39*
X201930000Y-29210000D03*
D16*
X76200000Y-152400000D03*
D17*
X76200000Y-149860000D03*
X78740000Y-152400000D03*
X78740000Y-149860000D03*
X81280000Y-152400000D03*
X81280000Y-149860000D03*
X83820000Y-152400000D03*
X83820000Y-149860000D03*
X86360000Y-152400000D03*
X86360000Y-149860000D03*
D16*
X99060000Y-152400000D03*
D17*
X99060000Y-149860000D03*
X101600000Y-152400000D03*
X101600000Y-149860000D03*
X104140000Y-152400000D03*
X104140000Y-149860000D03*
X106680000Y-152400000D03*
X106680000Y-149860000D03*
X109220000Y-152400000D03*
X109220000Y-149860000D03*
D16*
X121920000Y-152400000D03*
D17*
X121920000Y-149860000D03*
X124460000Y-152400000D03*
X124460000Y-149860000D03*
X127000000Y-152400000D03*
X127000000Y-149860000D03*
X129540000Y-152400000D03*
X129540000Y-149860000D03*
X132080000Y-152400000D03*
X132080000Y-149860000D03*
D16*
X144780000Y-152400000D03*
D17*
X144780000Y-149860000D03*
X147320000Y-152400000D03*
X147320000Y-149860000D03*
X149860000Y-152400000D03*
X149860000Y-149860000D03*
X152400000Y-152400000D03*
X152400000Y-149860000D03*
X154940000Y-152400000D03*
X154940000Y-149860000D03*
D16*
X167640000Y-152400000D03*
D17*
X167640000Y-149860000D03*
X170180000Y-152400000D03*
X170180000Y-149860000D03*
X172720000Y-152400000D03*
X172720000Y-149860000D03*
X175260000Y-152400000D03*
X175260000Y-149860000D03*
X177800000Y-152400000D03*
X177800000Y-149860000D03*
D16*
X186690000Y-152400000D03*
D17*
X186690000Y-149860000D03*
X189230000Y-152400000D03*
X189230000Y-149860000D03*
X191770000Y-152400000D03*
X191770000Y-149860000D03*
X194310000Y-152400000D03*
X194310000Y-149860000D03*
X196850000Y-152400000D03*
X196850000Y-149860000D03*
D16*
X163830000Y-33274000D03*
D17*
X161290000Y-33274000D03*
X158750000Y-33274000D03*
X156210000Y-33274000D03*
X153670000Y-33274000D03*
X151130000Y-33274000D03*
X148590000Y-33274000D03*
X146050000Y-33274000D03*
X143510000Y-33274000D03*
X140970000Y-33274000D03*
X138430000Y-33274000D03*
X135890000Y-33274000D03*
D13*
X90932000Y-126645500D03*
X90932000Y-128370500D03*
X113538000Y-126645500D03*
X113538000Y-128370500D03*
X136398000Y-126645500D03*
X136398000Y-128370500D03*
X159258000Y-126645500D03*
X159258000Y-128370500D03*
X182118000Y-126645500D03*
X182118000Y-128370500D03*
X196500000Y-122887500D03*
X196500000Y-124612500D03*
D16*
X104394000Y-80772000D03*
D17*
X101854000Y-80772000D03*
D16*
X94234000Y-81280000D03*
D17*
X94234000Y-83820000D03*
X94234000Y-86360000D03*
X94234000Y-88900000D03*
X94234000Y-91440000D03*
X94234000Y-93980000D03*
D16*
X91694000Y-81280000D03*
D17*
X91694000Y-83820000D03*
X91694000Y-86360000D03*
X91694000Y-88900000D03*
X91694000Y-91440000D03*
X91694000Y-93980000D03*
D16*
X89154000Y-81280000D03*
D17*
X89154000Y-83820000D03*
X89154000Y-86360000D03*
X89154000Y-88900000D03*
X89154000Y-91440000D03*
X89154000Y-93980000D03*
D28*
X84732500Y-79502000D03*
X82907500Y-79502000D03*
X84732500Y-82296000D03*
X82907500Y-82296000D03*
X84732500Y-85090000D03*
X82907500Y-85090000D03*
X84732500Y-87884000D03*
X82907500Y-87884000D03*
D42*
X128500000Y-50430000D03*
X128500000Y-39000000D03*
D43*
X122150000Y-49160000D03*
D44*
X119610000Y-47890000D03*
X122150000Y-46620000D03*
X119610000Y-45350000D03*
X122150000Y-44080000D03*
X119610000Y-42810000D03*
X122150000Y-41540000D03*
X119610000Y-40270000D03*
D10*
X136043500Y-88392000D03*
X137768500Y-88392000D03*
D16*
X97300000Y-29000000D03*
D17*
X99840000Y-29000000D03*
D16*
X103700000Y-29100000D03*
D17*
X106240000Y-29100000D03*
D45*
X115951000Y-101600000D03*
X90043000Y-107442000D03*
D46*
X132715000Y-70358000D03*
D47*
X69850000Y-53848000D03*
X76200000Y-53848000D03*
X112300000Y-47800000D03*
D48*
X136398000Y-47498000D03*
X136398000Y-52500000D03*
D47*
X89100000Y-50100000D03*
X127043945Y-59861190D03*
X113284000Y-56641996D03*
D49*
X130250000Y-47500000D03*
D46*
X131064000Y-93270020D03*
D48*
X146249996Y-67750000D03*
X130500000Y-55118000D03*
X130499994Y-61500000D03*
D46*
X146812000Y-87503000D03*
D48*
X148979424Y-70355655D03*
D46*
X130683000Y-101017020D03*
D48*
X130500000Y-65250004D03*
D46*
X156972000Y-81026000D03*
X72390000Y-107188000D03*
D49*
X129794000Y-68072000D03*
X97967222Y-94310778D03*
X99568000Y-92710000D03*
X101410500Y-91758500D03*
D47*
X140221994Y-69102000D03*
D49*
X93472000Y-97790000D03*
X84138500Y-92583000D03*
X137160000Y-141732000D03*
D48*
X150241000Y-76835000D03*
D47*
X166878000Y-27493000D03*
D49*
X114046000Y-141732000D03*
X185166000Y-105918000D03*
D48*
X94774831Y-112885258D03*
D49*
X145034000Y-109474000D03*
D48*
X96647000Y-111760000D03*
D49*
X182626000Y-141732000D03*
D47*
X167640000Y-98298000D03*
D49*
X182626000Y-147066000D03*
X158750000Y-27432000D03*
X137160000Y-147066000D03*
X159512000Y-147066000D03*
D48*
X156083000Y-75311000D03*
D49*
X114046000Y-147066000D03*
D47*
X183388000Y-98298000D03*
D49*
X91313004Y-141859000D03*
X124968000Y-27432000D03*
X159512000Y-141732000D03*
X102362000Y-112522000D03*
D47*
X167894000Y-41402000D03*
X166878000Y-32766000D03*
D49*
X91948000Y-147066000D03*
D47*
X107442000Y-122174000D03*
D49*
X176276000Y-40894000D03*
D48*
X136144000Y-124968000D03*
D47*
X124460000Y-122174000D03*
X191770000Y-95504000D03*
X79248000Y-121920000D03*
D48*
X113030000Y-125222000D03*
X181610000Y-124968000D03*
D47*
X176530000Y-60706000D03*
X170688000Y-60833000D03*
D48*
X158750000Y-125222000D03*
D49*
X192532000Y-39116000D03*
D47*
X168656000Y-122174000D03*
X153670000Y-122174000D03*
X198120000Y-122174000D03*
X196088000Y-117348000D03*
D48*
X162814000Y-98298000D03*
X149860000Y-97536000D03*
X145542000Y-102616000D03*
X142748000Y-94234000D03*
X160020000Y-91440000D03*
X158496000Y-92964000D03*
X138176000Y-96520000D03*
X158242000Y-99060000D03*
X159512000Y-89154000D03*
X143001998Y-101346000D03*
X148590000Y-96519996D03*
X99822000Y-96012000D03*
X162560000Y-90170000D03*
X98297998Y-85344000D03*
X154438067Y-95256067D03*
X98044000Y-80264000D03*
X143724301Y-99993395D03*
X100584000Y-93853000D03*
X159766000Y-90170000D03*
X113030000Y-69596000D03*
X100838000Y-89408000D03*
X97536000Y-81788000D03*
X99043348Y-80300446D03*
X112231959Y-39079929D03*
X113538000Y-40386008D03*
X113023933Y-65017933D03*
X110690323Y-60334835D03*
X113538000Y-64008000D03*
X114300000Y-69596000D03*
X99822000Y-84836000D03*
X113284000Y-41910000D03*
X110744000Y-39116000D03*
X111417333Y-59632451D03*
X156210000Y-28956000D03*
X91656663Y-44756397D03*
X146050000Y-28448000D03*
X112268000Y-28448000D03*
X107188000Y-42672006D03*
X109728000Y-29718000D03*
X143764000Y-29718000D03*
X153670000Y-29718000D03*
X92236990Y-43942000D03*
X108400000Y-29972000D03*
X81026000Y-43942000D03*
X100838000Y-43942000D03*
X140970000Y-29972000D03*
X106934000Y-36068000D03*
X151130000Y-30226000D03*
X105050000Y-36100000D03*
X89916000Y-44704000D03*
X148590000Y-31242000D03*
X104648000Y-42672000D03*
X103886000Y-51308000D03*
X86868000Y-62738000D03*
X112056969Y-58863757D03*
X84328000Y-71374000D03*
X95300000Y-59600000D03*
X86614000Y-71374000D03*
X107442000Y-59690000D03*
X89408000Y-70866000D03*
X83381214Y-90481786D03*
X89408000Y-62738000D03*
X160394926Y-57524926D03*
X161500000Y-55750000D03*
X109982000Y-73914000D03*
X81026000Y-93472000D03*
X105156000Y-98806000D03*
X110998000Y-91186000D03*
X85090000Y-99060000D03*
X81280000Y-91948000D03*
X107353343Y-98906805D03*
X108204000Y-99568000D03*
X80772000Y-89916000D03*
X112522000Y-96792511D03*
X104140000Y-99568000D03*
X110744000Y-97028000D03*
X112538806Y-91238306D03*
X80772000Y-87630000D03*
X113284000Y-98516500D03*
X113284000Y-94361000D03*
X139446000Y-87122000D03*
X153162000Y-103378000D03*
X160782002Y-130302000D03*
X144780000Y-84617051D03*
X155702000Y-106680000D03*
X143810701Y-83890051D03*
X155448004Y-103378000D03*
X160782000Y-132842000D03*
X156972000Y-106680002D03*
X139495000Y-85852000D03*
X159766000Y-103378000D03*
X143256000Y-83058000D03*
X139192000Y-84836000D03*
X162052000Y-135382000D03*
X160782001Y-106425995D03*
X142494000Y-82296000D03*
X162033868Y-106360545D03*
X161798000Y-103378000D03*
D46*
X153924000Y-90932000D03*
D48*
X125730000Y-97917000D03*
X133985000Y-97790000D03*
X111760000Y-81026000D03*
X109697640Y-60455684D03*
X115824000Y-126746000D03*
X111760000Y-89408000D03*
X110889074Y-64860926D03*
X141478000Y-81280000D03*
X114554000Y-74422000D03*
X137922000Y-92710000D03*
X146558000Y-106680000D03*
X132842000Y-97190500D03*
X122428000Y-99822000D03*
X137414000Y-103378000D03*
X137414000Y-106934000D03*
X122682000Y-101346000D03*
X133223000Y-98933000D03*
X139954000Y-106934000D03*
X139954000Y-103378002D03*
X138684000Y-106934000D03*
X138684000Y-103378000D03*
X189230002Y-115316000D03*
X141171948Y-115787399D03*
X102108000Y-115824000D03*
X102108000Y-114046000D03*
X172248601Y-115787399D03*
X174752000Y-102870000D03*
X174752000Y-105664000D03*
X103886000Y-114808000D03*
X184912000Y-114519010D03*
X140970004Y-114808000D03*
X176022000Y-105664000D03*
X176022000Y-102870000D03*
X173228000Y-114808000D03*
X78994002Y-115062000D03*
X101092000Y-114046000D03*
X104613001Y-113757001D03*
X140970000Y-113538000D03*
X89154000Y-114300000D03*
X83312000Y-114299988D03*
X89154000Y-113284000D03*
X84074000Y-113538000D03*
X172974000Y-124968000D03*
X147378679Y-113850679D03*
X185674000Y-113284000D03*
X189484000Y-103886002D03*
X191008000Y-105918000D03*
X185385010Y-116586000D03*
X182118000Y-116586000D03*
X184623000Y-115570000D03*
X182153000Y-115570000D03*
X179070000Y-120396000D03*
X183858751Y-120428852D03*
X186690000Y-121412000D03*
X178562000Y-121412000D03*
X140208000Y-135128000D03*
X139954000Y-132842000D03*
X74168000Y-71882000D03*
X77470000Y-68326000D03*
X82296000Y-62992000D03*
X84328000Y-62738000D03*
D46*
X114808000Y-92837000D03*
D48*
X105918000Y-89408000D03*
X105918000Y-85598000D03*
X105918000Y-93980000D03*
X85800000Y-62000000D03*
X95246779Y-61964330D03*
X90900000Y-62000000D03*
X77200000Y-50900000D03*
X76700000Y-43900000D03*
X80400000Y-51500000D03*
X85100000Y-57300000D03*
X80900000Y-57400000D03*
X88900000Y-57200000D03*
X94270999Y-58729001D03*
X75057000Y-45500000D03*
X85400000Y-50200000D03*
X75714067Y-47114067D03*
X90800000Y-58200000D03*
X95250000Y-60960000D03*
X91186000Y-60960000D03*
X104140000Y-46228000D03*
X103950000Y-36100000D03*
X95200000Y-30550000D03*
X89662000Y-30480000D03*
X144018000Y-40894000D03*
X92450000Y-30550000D03*
X115084571Y-46233761D03*
X79400000Y-44000000D03*
X115981933Y-47581933D03*
X117800000Y-49300000D03*
X87000000Y-45800000D03*
X103500000Y-49500000D03*
X99300000Y-46517000D03*
X89200000Y-46700000D03*
X114500000Y-47700000D03*
X74988319Y-42545000D03*
X78000000Y-45500000D03*
X127598846Y-55198837D03*
X98300000Y-33600000D03*
X98552000Y-35524500D03*
X97000000Y-42100000D03*
X101700000Y-31300000D03*
X103600000Y-52800000D03*
X99568000Y-35524500D03*
X97028000Y-62700500D03*
X99314000Y-74168000D03*
X99314000Y-70647000D03*
X80264000Y-37211000D03*
X77724000Y-37973000D03*
X93890000Y-119126000D03*
X177292000Y-102870000D03*
X147066000Y-36830000D03*
X190246000Y-108204000D03*
X146812000Y-46228000D03*
X71120000Y-44196000D03*
D47*
X124714000Y-106172000D03*
D46*
X201168000Y-148897000D03*
D47*
X168656000Y-106487000D03*
D46*
X196342000Y-131826000D03*
D47*
X131318000Y-108204000D03*
X108458000Y-107061000D03*
D48*
X146000000Y-55000000D03*
D47*
X73660000Y-36068000D03*
X72009000Y-81534000D03*
D48*
X146304000Y-81534000D03*
D47*
X110744000Y-111506000D03*
D48*
X189484000Y-118110000D03*
D46*
X129286000Y-89408000D03*
X199136000Y-145034000D03*
D48*
X146304000Y-85344051D03*
X137750014Y-118500000D03*
X146050000Y-56642000D03*
D46*
X201930000Y-113284000D03*
D47*
X183642000Y-96012000D03*
D48*
X94488003Y-37084003D03*
D47*
X153416000Y-106487000D03*
D49*
X147574000Y-109728000D03*
D48*
X181864000Y-118110000D03*
D49*
X138684000Y-145034000D03*
D48*
X145288000Y-107950000D03*
X135636000Y-144526000D03*
X191770000Y-112776000D03*
D46*
X145034000Y-74422000D03*
D48*
X96012000Y-119126000D03*
X94996000Y-114046000D03*
D47*
X127441499Y-104267000D03*
D46*
X137414000Y-74422000D03*
D48*
X134620000Y-88392000D03*
X138938000Y-82296000D03*
D49*
X138684000Y-149352000D03*
D46*
X124714000Y-87757000D03*
D48*
X132588000Y-103886000D03*
D47*
X92964000Y-106934000D03*
D48*
X172212000Y-96012000D03*
X103124000Y-107061000D03*
D46*
X198500000Y-94500000D03*
D48*
X97479697Y-113356784D03*
X144750000Y-116750000D03*
X146812000Y-43688000D03*
D47*
X152654000Y-36830000D03*
X198628000Y-106426000D03*
X79756000Y-113030000D03*
D48*
X189484000Y-112776000D03*
D50*
X134849000Y-65176000D02*
X137922000Y-65176000D01*
X132842000Y-70231000D02*
X132842000Y-67183000D01*
X132842000Y-67183000D02*
X134849000Y-65176000D01*
X132715000Y-70358000D02*
X132842000Y-70231000D01*
D51*
X63919001Y-63411001D02*
X69850000Y-57480002D01*
X67590500Y-46254500D02*
X67590500Y-44196000D01*
D52*
X64008000Y-79756000D02*
X62738000Y-78486000D01*
D51*
X62738000Y-71374000D02*
X63919001Y-70192999D01*
X64770000Y-44196000D02*
X62738000Y-42164000D01*
X62738000Y-42164000D02*
X62738000Y-40386000D01*
D52*
X67590500Y-79756000D02*
X64008000Y-79756000D01*
D51*
X69850000Y-48514000D02*
X67590500Y-46254500D01*
X69850000Y-57480002D02*
X69850000Y-53848000D01*
X67590500Y-44196000D02*
X64770000Y-44196000D01*
D52*
X62738000Y-78486000D02*
X62738000Y-76581000D01*
D51*
X69850000Y-53848000D02*
X69850000Y-48514000D01*
X62738000Y-76581000D02*
X62738000Y-71374000D01*
X78223000Y-53848000D02*
X76200000Y-53848000D01*
X63919001Y-70192999D02*
X63919001Y-63411001D01*
D53*
X148082000Y-60198000D02*
X147066000Y-60198000D01*
D54*
X136398000Y-47498000D02*
X138406500Y-47498000D01*
D53*
X85352000Y-53848000D02*
X89100000Y-50100000D01*
X146050000Y-60198000D02*
X145187500Y-60198000D01*
X148459000Y-60198000D02*
X148082000Y-60198000D01*
D51*
X122150000Y-49160000D02*
X123662000Y-49160000D01*
D53*
X147320000Y-55404000D02*
X147320000Y-59436000D01*
X113284000Y-48784000D02*
X112300000Y-47800000D01*
X145187500Y-60198000D02*
X144526000Y-59536500D01*
X146050000Y-63246000D02*
X151638000Y-68834000D01*
X135622000Y-71476000D02*
X135622000Y-69206000D01*
X148336000Y-60198000D02*
X146050000Y-62484000D01*
X141986000Y-67310000D02*
X144272000Y-65024000D01*
X144850690Y-59861190D02*
X136611190Y-59861190D01*
D51*
X123662000Y-49160000D02*
X125322000Y-47500000D01*
D53*
X135622000Y-69206000D02*
X137518000Y-67310000D01*
X136611190Y-59861190D02*
X128104605Y-59861190D01*
X113284000Y-56641996D02*
X113284000Y-48784000D01*
X147320000Y-59436000D02*
X148082000Y-60198000D01*
X128104605Y-59861190D02*
X127043945Y-59861190D01*
X146050000Y-62484000D02*
X146050000Y-60198000D01*
X146050000Y-63246000D02*
X146050000Y-62484000D01*
D51*
X125322000Y-47500000D02*
X130250000Y-47500000D01*
X136398000Y-59648000D02*
X136611190Y-59861190D01*
D53*
X144272000Y-65024000D02*
X146050000Y-63246000D01*
X151638000Y-68834000D02*
X160528000Y-68834000D01*
X148459000Y-60198000D02*
X148336000Y-60198000D01*
X145187500Y-60198000D02*
X144850690Y-59861190D01*
D51*
X136398000Y-52500000D02*
X136398000Y-59648000D01*
D53*
X80273000Y-53848000D02*
X85352000Y-53848000D01*
X137518000Y-67310000D02*
X141986000Y-67310000D01*
X152654000Y-50070000D02*
X147320000Y-55404000D01*
X148459000Y-60198000D02*
X146050000Y-60198000D01*
D50*
X148082000Y-90932000D02*
X147066000Y-89916000D01*
X146812000Y-87503000D02*
X146812000Y-89662000D01*
D54*
X138406500Y-43053000D02*
X135255000Y-43053000D01*
D52*
X144780000Y-88238500D02*
X144780000Y-89154000D01*
D54*
X130499994Y-61500000D02*
X130499994Y-65249998D01*
D50*
X131064000Y-93270020D02*
X131116989Y-93323009D01*
X149221000Y-90932000D02*
X148082000Y-90932000D01*
D54*
X130499994Y-65249998D02*
X130500000Y-65250004D01*
D50*
X146812000Y-89662000D02*
X147066000Y-89916000D01*
D52*
X144780000Y-89154000D02*
X145542000Y-89916000D01*
D54*
X134555499Y-43752501D02*
X134555499Y-48451501D01*
D50*
X131116989Y-93323009D02*
X131116989Y-100531011D01*
D54*
X134555499Y-48451501D02*
X130500000Y-52507000D01*
D50*
X156972000Y-80899000D02*
X155321000Y-79248000D01*
D54*
X135255000Y-43053000D02*
X134555499Y-43752501D01*
D50*
X72390000Y-116586000D02*
X72390000Y-107188000D01*
D52*
X145542000Y-89916000D02*
X147066000Y-89916000D01*
D50*
X131116989Y-100531011D02*
X130683000Y-100965000D01*
D54*
X130500000Y-52507000D02*
X130500000Y-55118000D01*
X148855651Y-70355655D02*
X148979424Y-70355655D01*
X146249996Y-67750000D02*
X148855651Y-70355655D01*
D50*
X156972000Y-81026000D02*
X156972000Y-80899000D01*
X152686000Y-79248000D02*
X154686000Y-79248000D01*
X155321000Y-79248000D02*
X152686000Y-79248000D01*
D51*
X135417489Y-52093858D02*
X136011347Y-51500000D01*
X129794000Y-68072000D02*
X129794000Y-69749500D01*
D53*
X140222000Y-69102006D02*
X140221994Y-69102000D01*
D52*
X82487500Y-90932000D02*
X79624000Y-90932000D01*
D51*
X129794000Y-69749500D02*
X129894500Y-69850000D01*
D55*
X140222000Y-71476000D02*
X140222000Y-89394000D01*
D51*
X125222000Y-68072000D02*
X121666000Y-64516000D01*
D55*
X137668000Y-89916000D02*
X137668000Y-88492500D01*
D52*
X84138500Y-92583000D02*
X82487500Y-90932000D01*
X97967222Y-94310778D02*
X94488000Y-97790000D01*
D55*
X138811000Y-91313000D02*
X138811000Y-90805000D01*
D51*
X130951104Y-56642000D02*
X135417489Y-52175615D01*
X121666000Y-64516000D02*
X121666000Y-58166000D01*
X123190000Y-56642000D02*
X130951104Y-56642000D01*
D52*
X101410500Y-91758500D02*
X100519500Y-91758500D01*
D55*
X138811000Y-90805000D02*
X138684000Y-90932000D01*
D51*
X135417489Y-52175615D02*
X135417489Y-52093858D01*
D55*
X140222000Y-89394000D02*
X138811000Y-90805000D01*
X137668000Y-88492500D02*
X137768500Y-88392000D01*
X137668000Y-89916000D02*
X138684000Y-90932000D01*
D52*
X94488000Y-97790000D02*
X93472000Y-97790000D01*
X100519500Y-91758500D02*
X99568000Y-92710000D01*
D51*
X136011347Y-51500000D02*
X138406500Y-51500000D01*
D55*
X140676000Y-91567000D02*
X139065000Y-91567000D01*
D51*
X121666000Y-58166000D02*
X123190000Y-56642000D01*
X129794000Y-68072000D02*
X125222000Y-68072000D01*
D55*
X139065000Y-91567000D02*
X138811000Y-91313000D01*
D53*
X140222000Y-71476000D02*
X140222000Y-69102006D01*
D52*
X79624000Y-90932000D02*
X79353000Y-90661000D01*
D51*
X182626000Y-141732000D02*
X182626000Y-147066000D01*
D53*
X173228000Y-98298000D02*
X180848000Y-98298000D01*
X167894000Y-36830000D02*
X166878000Y-35814000D01*
X184758500Y-98298000D02*
X185420000Y-97636500D01*
D51*
X158750000Y-27432000D02*
X124968000Y-27432000D01*
D55*
X190246000Y-115629964D02*
X190246000Y-109855000D01*
D51*
X125349000Y-76962000D02*
X125476000Y-77089000D01*
D55*
X143035500Y-109601000D02*
X141605000Y-109601000D01*
X189289964Y-116586000D02*
X190246000Y-115629964D01*
D51*
X92688000Y-27200000D02*
X91186000Y-28702000D01*
D53*
X167640000Y-98298000D02*
X173228000Y-98298000D01*
D55*
X190246000Y-109855000D02*
X189357000Y-108966000D01*
D51*
X91186000Y-28702000D02*
X91186000Y-33274000D01*
D55*
X96647000Y-111633000D02*
X96647000Y-111760000D01*
X97536000Y-115373685D02*
X97536000Y-117602000D01*
D51*
X91948000Y-147066000D02*
X91948000Y-142493996D01*
D54*
X154559000Y-76835000D02*
X156083000Y-75311000D01*
D55*
X173482000Y-98552000D02*
X173228000Y-98298000D01*
D52*
X185674000Y-106426000D02*
X185674000Y-107442000D01*
D55*
X141605000Y-109601000D02*
X141478000Y-109474000D01*
D52*
X102362000Y-112522000D02*
X102362000Y-112209020D01*
D55*
X141478000Y-107696000D02*
X141732000Y-107442000D01*
D51*
X124968000Y-27432000D02*
X124736000Y-27200000D01*
D55*
X185674000Y-108458000D02*
X185674000Y-107442000D01*
D51*
X124736000Y-27200000D02*
X92688000Y-27200000D01*
D52*
X100388980Y-110236000D02*
X99220500Y-110236000D01*
D51*
X166817000Y-27432000D02*
X166878000Y-27493000D01*
D55*
X143035500Y-109601000D02*
X140843000Y-109601000D01*
X139954000Y-112776000D02*
X139954000Y-115435934D01*
D53*
X183388000Y-98298000D02*
X184758500Y-98298000D01*
X183388000Y-98298000D02*
X180848000Y-98298000D01*
D55*
X181102000Y-100744500D02*
X181102000Y-98552000D01*
X97536000Y-117602000D02*
X97790000Y-117856000D01*
X140408010Y-112321990D02*
X139954000Y-112776000D01*
D51*
X131191000Y-77089000D02*
X131318000Y-76962000D01*
D55*
X140843000Y-109601000D02*
X140408010Y-110035990D01*
D51*
X131318000Y-76962000D02*
X137160000Y-76962000D01*
X91948000Y-142493996D02*
X91313004Y-141859000D01*
D55*
X98044000Y-110236000D02*
X97790000Y-109982000D01*
X97790000Y-109982000D02*
X97790000Y-108204000D01*
X141478000Y-109474000D02*
X141478000Y-107696000D01*
D51*
X137160000Y-141732000D02*
X137160000Y-147066000D01*
X119634000Y-76962000D02*
X125349000Y-76962000D01*
D53*
X166878000Y-35814000D02*
X166878000Y-32766000D01*
D55*
X139954000Y-115435934D02*
X140462000Y-115943934D01*
X99220500Y-110236000D02*
X98044000Y-110236000D01*
X181102000Y-98552000D02*
X180848000Y-98298000D01*
X141732000Y-107442000D02*
X142393500Y-107442000D01*
D52*
X144907000Y-109601000D02*
X145034000Y-109474000D01*
D55*
X95047573Y-112885258D02*
X97536000Y-115373685D01*
D52*
X185166000Y-105918000D02*
X185674000Y-106426000D01*
D55*
X97790000Y-117856000D02*
X99220500Y-117856000D01*
X97790000Y-108204000D02*
X99467500Y-108204000D01*
X186182000Y-108966000D02*
X185674000Y-108458000D01*
D51*
X158750000Y-27432000D02*
X166817000Y-27432000D01*
D55*
X187485500Y-108966000D02*
X186182000Y-108966000D01*
X94774831Y-112885258D02*
X95047573Y-112885258D01*
X98044000Y-110236000D02*
X96647000Y-111633000D01*
X140462000Y-116586000D02*
X141097000Y-117221000D01*
X141097000Y-117221000D02*
X143035500Y-117221000D01*
X140408010Y-110035990D02*
X140408010Y-112321990D01*
X140462000Y-115943934D02*
X140462000Y-116586000D01*
D51*
X125476000Y-77089000D02*
X131191000Y-77089000D01*
X114046000Y-141732000D02*
X114046000Y-147066000D01*
D55*
X173482000Y-100744500D02*
X173482000Y-98552000D01*
X186182000Y-106934000D02*
X187605500Y-106934000D01*
X189357000Y-108966000D02*
X187485500Y-108966000D01*
D52*
X143035500Y-109601000D02*
X144907000Y-109601000D01*
D53*
X167894000Y-41402000D02*
X167894000Y-36830000D01*
D55*
X185674000Y-107442000D02*
X186182000Y-106934000D01*
X187485500Y-116586000D02*
X189289964Y-116586000D01*
D54*
X150241000Y-76835000D02*
X154559000Y-76835000D01*
D51*
X159512000Y-141732000D02*
X159512000Y-147066000D01*
D52*
X102362000Y-112209020D02*
X100388980Y-110236000D01*
X142889000Y-38608000D02*
X140231500Y-38608000D01*
X142889000Y-47498000D02*
X140231500Y-47498000D01*
X142889000Y-43053000D02*
X140231500Y-43053000D01*
X140231500Y-51500000D02*
X142889000Y-51500000D01*
D51*
X167640000Y-96139000D02*
X164592000Y-99187000D01*
D55*
X136398000Y-126645500D02*
X136398000Y-125222000D01*
D51*
X170688000Y-60833000D02*
X170815000Y-60833000D01*
D55*
X87503000Y-126492000D02*
X90778500Y-126492000D01*
D53*
X154432000Y-118650000D02*
X154432000Y-121412000D01*
D52*
X127508000Y-33274000D02*
X127508000Y-34258000D01*
D53*
X170815000Y-60833000D02*
X176403000Y-60833000D01*
X198628000Y-118650000D02*
X198628000Y-121666000D01*
X79883000Y-121285000D02*
X79248000Y-121920000D01*
D51*
X170688000Y-60706000D02*
X173228000Y-58166000D01*
D55*
X182118000Y-126645500D02*
X182118000Y-125476000D01*
D52*
X197406500Y-122887500D02*
X198120000Y-122174000D01*
D53*
X191770000Y-98806000D02*
X196088000Y-103124000D01*
D51*
X173228000Y-63246000D02*
X173228000Y-81534000D01*
D53*
X124968000Y-118777000D02*
X124968000Y-121666000D01*
X196088000Y-103124000D02*
X196088000Y-117348000D01*
X169418000Y-121412000D02*
X168656000Y-122174000D01*
X79883000Y-118777000D02*
X79883000Y-121285000D01*
X154432000Y-121412000D02*
X153670000Y-122174000D01*
X108458000Y-121158000D02*
X107442000Y-122174000D01*
D51*
X173228000Y-58166000D02*
X173228000Y-46482000D01*
D53*
X191770000Y-95504000D02*
X191770000Y-98806000D01*
D51*
X194818000Y-34036000D02*
X195580000Y-33274000D01*
X192532000Y-39116000D02*
X194818000Y-36830000D01*
X170815000Y-60833000D02*
X173228000Y-63246000D01*
X176276000Y-43434000D02*
X176276000Y-40894000D01*
X170688000Y-60833000D02*
X170688000Y-60706000D01*
D55*
X159258000Y-126645500D02*
X159258000Y-125730000D01*
D51*
X167640000Y-87122000D02*
X167640000Y-96139000D01*
D53*
X169418000Y-118650000D02*
X169418000Y-121412000D01*
D55*
X182118000Y-125476000D02*
X181610000Y-124968000D01*
D53*
X108458000Y-118904000D02*
X108458000Y-121158000D01*
D52*
X127508000Y-34258000D02*
X131858000Y-38608000D01*
D55*
X113538000Y-126645500D02*
X113538000Y-125730000D01*
D51*
X173228000Y-46482000D02*
X176276000Y-43434000D01*
D55*
X90778500Y-126492000D02*
X90932000Y-126645500D01*
D53*
X198628000Y-121666000D02*
X198120000Y-122174000D01*
D55*
X159258000Y-125730000D02*
X158750000Y-125222000D01*
X113538000Y-125730000D02*
X113030000Y-125222000D01*
D51*
X194818000Y-36830000D02*
X194818000Y-34036000D01*
X173228000Y-81534000D02*
X167640000Y-87122000D01*
D52*
X196500000Y-122887500D02*
X197406500Y-122887500D01*
D53*
X176403000Y-60833000D02*
X176530000Y-60706000D01*
D52*
X131858000Y-38608000D02*
X138406500Y-38608000D01*
D53*
X124968000Y-121666000D02*
X124460000Y-122174000D01*
D55*
X136398000Y-125222000D02*
X136144000Y-124968000D01*
X145542000Y-102616000D02*
X145542000Y-101854000D01*
X163449000Y-94107000D02*
X164592000Y-94107000D01*
X162814000Y-94742000D02*
X163449000Y-94107000D01*
X162814000Y-98298000D02*
X162814000Y-94742000D01*
X145542000Y-101854000D02*
X149860000Y-97536000D01*
X158750000Y-98552000D02*
X158750000Y-93218000D01*
X160020000Y-91440000D02*
X164465000Y-91440000D01*
X158750000Y-93218000D02*
X158496000Y-92964000D01*
X164465000Y-91440000D02*
X164592000Y-91567000D01*
X158242000Y-99060000D02*
X158750000Y-98552000D01*
X138430000Y-96520000D02*
X138430000Y-95948404D01*
X139628414Y-94749990D02*
X142232010Y-94749990D01*
X142232010Y-94749990D02*
X142748000Y-94234000D01*
X138176000Y-96520000D02*
X138430000Y-96520000D01*
X138430000Y-95948404D02*
X139628414Y-94749990D01*
X99822000Y-96012000D02*
X99822000Y-96774000D01*
X143001998Y-101346000D02*
X143763996Y-101346000D01*
X143763996Y-101346000D02*
X148590000Y-96519996D01*
X99822000Y-96774000D02*
X100711000Y-97663000D01*
X99822000Y-94996000D02*
X99822000Y-96012000D01*
D56*
X91694000Y-88900000D02*
X93058999Y-90264999D01*
D55*
X159512000Y-89154000D02*
X164465000Y-89154000D01*
X164465000Y-89154000D02*
X164592000Y-89027000D01*
X97538000Y-92712000D02*
X99822000Y-94996000D01*
D56*
X93615001Y-92615001D02*
X97441001Y-92615001D01*
D55*
X100711000Y-97663000D02*
X102211500Y-97663000D01*
X91694000Y-88900000D02*
X92998990Y-90204990D01*
D56*
X93058999Y-92058999D02*
X93615001Y-92615001D01*
X93058999Y-90264999D02*
X93058999Y-92058999D01*
X97441001Y-92615001D02*
X97538000Y-92712000D01*
D55*
X98298000Y-76581000D02*
X98298000Y-80010000D01*
X100584000Y-93853000D02*
X102211500Y-93853000D01*
X92964000Y-85090000D02*
X98043998Y-85090000D01*
X159766000Y-90170000D02*
X162560000Y-90170000D01*
X148461629Y-95256067D02*
X143724301Y-99993395D01*
X98298000Y-80010000D02*
X98044000Y-80264000D01*
X98043998Y-85090000D02*
X98297998Y-85344000D01*
X154438067Y-95256067D02*
X148461629Y-95256067D01*
X91694000Y-86360000D02*
X92964000Y-85090000D01*
X102211500Y-89408000D02*
X100838000Y-89408000D01*
X117348000Y-33274000D02*
X117348000Y-34167266D01*
X97555794Y-81788000D02*
X97536000Y-81788000D01*
X100838000Y-78505794D02*
X99043348Y-80300446D01*
X113030000Y-65024000D02*
X113023933Y-65017933D01*
X112435337Y-39079929D02*
X112231959Y-39079929D01*
X99043348Y-80300446D02*
X97555794Y-81788000D01*
X109220000Y-58864512D02*
X110690323Y-60334835D01*
X100838000Y-76581000D02*
X100838000Y-78505794D01*
X117348000Y-34167266D02*
X112435337Y-39079929D01*
X113030000Y-69596000D02*
X113030000Y-65024000D01*
X109220000Y-44704008D02*
X109220000Y-58864512D01*
X113538000Y-40386008D02*
X109220000Y-44704008D01*
X114300000Y-69596000D02*
X114300000Y-64770000D01*
X109920999Y-45273001D02*
X109920999Y-58136117D01*
X114808000Y-33274000D02*
X114808000Y-35052000D01*
X113284000Y-41910000D02*
X109920999Y-45273001D01*
X114300000Y-64770000D02*
X113538000Y-64008000D01*
X100584000Y-85598000D02*
X99822000Y-84836000D01*
X102211500Y-85598000D02*
X100584000Y-85598000D01*
X109920999Y-58136117D02*
X111417333Y-59632451D01*
X114808000Y-35052000D02*
X110744000Y-39116000D01*
X97116000Y-83058000D02*
X95338000Y-81280000D01*
X109474000Y-83058000D02*
X97116000Y-83058000D01*
X192278000Y-104902000D02*
X131318000Y-104902000D01*
X194183000Y-126492000D02*
X194183000Y-106807000D01*
X95338000Y-81280000D02*
X94234000Y-81280000D01*
X194183000Y-106807000D02*
X192278000Y-104902000D01*
X131318000Y-104902000D02*
X109474000Y-83058000D01*
X94234000Y-83820000D02*
X109474000Y-83820000D01*
X171323000Y-106553000D02*
X171323000Y-126492000D01*
X170180000Y-105410000D02*
X171323000Y-106553000D01*
X109474000Y-83820000D02*
X131064000Y-105410000D01*
X131064000Y-105410000D02*
X170180000Y-105410000D01*
X148463000Y-107255036D02*
X148463000Y-126492000D01*
X98806000Y-86868000D02*
X111760000Y-86868000D01*
X98298000Y-86360000D02*
X98806000Y-86868000D01*
X147125964Y-105918000D02*
X148463000Y-107255036D01*
X111760000Y-86868000D02*
X130810000Y-105918000D01*
X94234000Y-86360000D02*
X98298000Y-86360000D01*
X130810000Y-105918000D02*
X147125964Y-105918000D01*
X94234000Y-88900000D02*
X95250000Y-87884000D01*
X95250000Y-87884000D02*
X112133932Y-87884000D01*
X126364999Y-102115067D02*
X126364999Y-125730001D01*
X126364999Y-125730001D02*
X125603000Y-126492000D01*
X112133932Y-87884000D02*
X126364999Y-102115067D01*
X105410000Y-108458000D02*
X105410000Y-123258720D01*
X105224720Y-124010280D02*
X102743000Y-126492000D01*
X104394000Y-90932000D02*
X106934000Y-93472000D01*
X105224720Y-123444000D02*
X105224720Y-124010280D01*
X106934000Y-98298000D02*
X104648000Y-100584000D01*
X95377000Y-90932000D02*
X104394000Y-90932000D01*
X105410000Y-123258720D02*
X105224720Y-123444000D01*
X104648000Y-107696000D02*
X105410000Y-108458000D01*
X94234000Y-91440000D02*
X95377000Y-90932000D01*
X106934000Y-93472000D02*
X106934000Y-98298000D01*
X104648000Y-100584000D02*
X104648000Y-107696000D01*
X84582000Y-97536000D02*
X91948000Y-97536000D01*
X81788000Y-100330000D02*
X84582000Y-97536000D01*
X79883000Y-126492000D02*
X81788000Y-124587000D01*
X94234000Y-95250000D02*
X94234000Y-93980000D01*
X81788000Y-124587000D02*
X81788000Y-100330000D01*
X91948000Y-97536000D02*
X94234000Y-95250000D01*
X180340000Y-33274000D02*
X180340000Y-32071919D01*
X91656663Y-52936347D02*
X91656663Y-44756397D01*
X167005000Y-83947000D02*
X164592000Y-83947000D01*
X107188000Y-38354000D02*
X107188000Y-42672006D01*
X168910000Y-47463574D02*
X168910000Y-82042000D01*
X112268000Y-33274000D02*
X107188000Y-38354000D01*
X156210000Y-28956000D02*
X155702000Y-28448000D01*
X80518000Y-76581000D02*
X80518000Y-70104000D01*
X81758981Y-61810987D02*
X82782023Y-61810987D01*
X177478081Y-29210000D02*
X156464000Y-29210000D01*
X155702000Y-28448000D02*
X146050000Y-28448000D01*
X156464000Y-29210000D02*
X156210000Y-28956000D01*
X174082030Y-39531970D02*
X174082030Y-42291544D01*
X180340000Y-33274000D02*
X174082030Y-39531970D01*
X168910000Y-82042000D02*
X167005000Y-83947000D01*
X80518000Y-70104000D02*
X79248000Y-68834000D01*
X79248000Y-64321968D02*
X81758981Y-61810987D01*
X174082030Y-42291544D02*
X168910000Y-47463574D01*
X82782023Y-61810987D02*
X91656663Y-52936347D01*
X79248000Y-68834000D02*
X79248000Y-64321968D01*
X180340000Y-32071919D02*
X177478081Y-29210000D01*
X146050000Y-28448000D02*
X112268000Y-28448000D01*
X92710000Y-35814000D02*
X97136000Y-35814000D01*
X143764000Y-29718000D02*
X143290999Y-29244999D01*
X164719000Y-81280000D02*
X164592000Y-81407000D01*
X168348010Y-47311033D02*
X168348010Y-79047990D01*
X91186000Y-42672000D02*
X91948000Y-41910000D01*
X143290999Y-29244999D02*
X110201001Y-29244999D01*
X177800000Y-33274000D02*
X177800000Y-34170066D01*
X72898000Y-71882000D02*
X74168000Y-70612000D01*
X166116000Y-81280000D02*
X164719000Y-81280000D01*
X153162000Y-29210000D02*
X144234002Y-29210000D01*
X74168000Y-70612000D02*
X74168000Y-47632000D01*
X74168000Y-47632000D02*
X79128000Y-42672000D01*
X177800000Y-34170066D02*
X173628020Y-38342046D01*
X91948000Y-36576000D02*
X92710000Y-35814000D01*
X176276000Y-29718000D02*
X153670000Y-29718000D01*
X177800000Y-33274000D02*
X177800000Y-31242000D01*
X144234002Y-29210000D02*
X143764000Y-29680002D01*
X91948000Y-41910000D02*
X91948000Y-36576000D01*
X168348010Y-79047990D02*
X166116000Y-81280000D01*
X173628020Y-42031023D02*
X168348010Y-47311033D01*
X79128000Y-42672000D02*
X91186000Y-42672000D01*
X108204000Y-34798000D02*
X109728000Y-33274000D01*
X173628020Y-38342046D02*
X173628020Y-42031023D01*
X110201001Y-29244999D02*
X109728000Y-29718000D01*
X177800000Y-31242000D02*
X176276000Y-29718000D01*
X97136000Y-35814000D02*
X98152000Y-34798000D01*
X143764000Y-29680002D02*
X143764000Y-29718000D01*
X98152000Y-34798000D02*
X108204000Y-34798000D01*
X153670000Y-29718000D02*
X153162000Y-29210000D01*
X72898000Y-76581000D02*
X72898000Y-71882000D01*
X151130000Y-30226000D02*
X151384000Y-30226000D01*
X141478000Y-30480000D02*
X144272000Y-30480000D01*
X173174010Y-41709990D02*
X167894000Y-46990000D01*
X167894000Y-77470000D02*
X166497000Y-78867000D01*
X141478000Y-30480000D02*
X140970000Y-29972000D01*
X175260000Y-33274000D02*
X175260000Y-36068000D01*
X106206999Y-35340999D02*
X106934000Y-36068000D01*
X102108000Y-42672000D02*
X102108000Y-35742000D01*
X173174010Y-38153990D02*
X173174010Y-41709990D01*
X151638000Y-30480000D02*
X174752000Y-30480000D01*
X108908000Y-30480000D02*
X108400000Y-29972000D01*
X140970000Y-29972000D02*
X140462000Y-30480000D01*
X102509001Y-35340999D02*
X106206999Y-35340999D01*
X140462000Y-30480000D02*
X108908000Y-30480000D01*
X81026000Y-43942000D02*
X92236990Y-43942000D01*
X175260000Y-30988000D02*
X174752000Y-30480000D01*
X144272000Y-30480000D02*
X150876000Y-30480000D01*
X167894000Y-46990000D02*
X167894000Y-77470000D01*
X151384000Y-30226000D02*
X151638000Y-30480000D01*
X102108000Y-35742000D02*
X102509001Y-35340999D01*
X100838000Y-43942000D02*
X102108000Y-42672000D01*
X150876000Y-30480000D02*
X151130000Y-30226000D01*
X175260000Y-36068000D02*
X173174010Y-38153990D01*
X166497000Y-78867000D02*
X164592000Y-78867000D01*
X175260000Y-33274000D02*
X175260000Y-30988000D01*
X76708000Y-69342000D02*
X76708000Y-65532000D01*
X76708000Y-65532000D02*
X76708000Y-62484000D01*
X90932000Y-53018944D02*
X90932000Y-45720000D01*
X76708000Y-62484000D02*
X80264000Y-58928000D01*
X80264000Y-58928000D02*
X85022944Y-58928000D01*
X167386000Y-46482000D02*
X167386000Y-75438000D01*
X166497000Y-76327000D02*
X164592000Y-76327000D01*
X104648000Y-42672000D02*
X104648000Y-36502000D01*
X85022944Y-58928000D02*
X90932000Y-53018944D01*
X90932000Y-45720000D02*
X89916000Y-44704000D01*
X149151990Y-30988000D02*
X148897990Y-31242000D01*
X172212000Y-30988000D02*
X149151990Y-30988000D01*
X172720000Y-31496000D02*
X172720000Y-33274000D01*
X106934000Y-30988000D02*
X138430000Y-30988000D01*
X104648000Y-36502000D02*
X105050000Y-36100000D01*
X138684000Y-31242000D02*
X138430000Y-30988000D01*
X104648000Y-33274000D02*
X106934000Y-30988000D01*
X77978000Y-70612000D02*
X76708000Y-69342000D01*
X138430000Y-33274000D02*
X138430000Y-30988000D01*
X167386000Y-75438000D02*
X166497000Y-76327000D01*
X172720000Y-41148000D02*
X167386000Y-46482000D01*
X148590000Y-31242000D02*
X138684000Y-31242000D01*
X172720000Y-33274000D02*
X172720000Y-41148000D01*
X172212000Y-30988000D02*
X172720000Y-31496000D01*
X148897990Y-31242000D02*
X148590000Y-31242000D01*
X77978000Y-76581000D02*
X77978000Y-70612000D01*
X105156000Y-50038000D02*
X105156000Y-47498000D01*
X86868000Y-62738000D02*
X86868000Y-67056000D01*
X88138000Y-72016066D02*
X88138000Y-76581000D01*
X117761083Y-34892917D02*
X119081172Y-34892917D01*
X119888000Y-34086089D02*
X119888000Y-33274000D01*
X119081172Y-34892917D02*
X119888000Y-34086089D01*
X105156000Y-47498000D02*
X117761083Y-34892917D01*
X87683990Y-71562057D02*
X88138000Y-72016066D01*
X86868000Y-67056000D02*
X87683990Y-67871990D01*
X87683990Y-67871990D02*
X87683990Y-71562057D01*
X103886000Y-51308000D02*
X105156000Y-50038000D01*
X85344000Y-96131933D02*
X81399933Y-100076000D01*
X72898000Y-100584000D02*
X72898000Y-101981000D01*
X110468987Y-57275775D02*
X112056969Y-58863757D01*
X110468987Y-45800975D02*
X110468987Y-57275775D01*
X81399933Y-100076000D02*
X73406000Y-100076000D01*
X122428000Y-33841962D02*
X110468987Y-45800975D01*
X107442000Y-59690000D02*
X94996000Y-59690000D01*
X83381214Y-90481786D02*
X85344000Y-92444572D01*
X84328000Y-71374000D02*
X86614000Y-71374000D01*
X122428000Y-33274000D02*
X122428000Y-33841962D01*
X73406000Y-100076000D02*
X72898000Y-100584000D01*
X85344000Y-92444572D02*
X85344000Y-96131933D01*
X89408000Y-62738000D02*
X89408000Y-70866000D01*
X160975074Y-57524926D02*
X160394926Y-57524926D01*
X163763000Y-54737000D02*
X160975074Y-57524926D01*
X164592000Y-54737000D02*
X163763000Y-54737000D01*
X164592000Y-52197000D02*
X161500000Y-55289000D01*
X161500000Y-55289000D02*
X161500000Y-55750000D01*
X109982000Y-81639802D02*
X119909198Y-91567000D01*
X119909198Y-91567000D02*
X126492000Y-91567000D01*
X108207696Y-71574011D02*
X109982000Y-73348315D01*
X91948000Y-64770000D02*
X91948000Y-53287077D01*
X91948000Y-64770000D02*
X91948000Y-68057278D01*
X109982000Y-73348315D02*
X109982000Y-73914000D01*
X92202000Y-53033077D02*
X92202000Y-45466000D01*
X92202000Y-45466000D02*
X93218000Y-44450000D01*
X104687267Y-71574011D02*
X108207696Y-71574011D01*
X103925268Y-72336010D02*
X104687267Y-71574011D01*
X126873000Y-91186000D02*
X133858000Y-91186000D01*
X109982000Y-73914000D02*
X109982000Y-81639802D01*
X133858000Y-91186000D02*
X134239000Y-91567000D01*
X96226733Y-72336011D02*
X103925268Y-72336010D01*
X91948000Y-68057278D02*
X96226733Y-72336011D01*
X134239000Y-91567000D02*
X135676000Y-91567000D01*
X126492000Y-91567000D02*
X126873000Y-91186000D01*
X93218000Y-44450000D02*
X93218000Y-40386000D01*
X91948000Y-53287077D02*
X92202000Y-53033077D01*
X186436000Y-94234000D02*
X182880000Y-94234000D01*
X182372000Y-93726000D02*
X182372000Y-41402000D01*
X187452000Y-102616000D02*
X187452000Y-95250000D01*
X186944000Y-103124000D02*
X187452000Y-102616000D01*
X182880000Y-94234000D02*
X182372000Y-93726000D01*
X180340000Y-103124000D02*
X186944000Y-103124000D01*
X179832000Y-102616000D02*
X180340000Y-103124000D01*
X187452000Y-95250000D02*
X186436000Y-94234000D01*
X179832000Y-100744500D02*
X179832000Y-102616000D01*
X182372000Y-41402000D02*
X190500000Y-33274000D01*
X187960000Y-34290000D02*
X187960000Y-33274000D01*
X181102000Y-93819500D02*
X181102000Y-41148000D01*
X181102000Y-41148000D02*
X187960000Y-34290000D01*
X185420000Y-35306000D02*
X185420000Y-33274000D01*
X179832000Y-40894000D02*
X185420000Y-35306000D01*
X179832000Y-93819500D02*
X179832000Y-40894000D01*
X182880000Y-36322000D02*
X182880000Y-33274000D01*
X178562000Y-40640000D02*
X182880000Y-36322000D01*
X178562000Y-93819500D02*
X178562000Y-40640000D01*
X80415000Y-92861000D02*
X79353000Y-92861000D01*
X81026000Y-93472000D02*
X80415000Y-92861000D01*
X105918000Y-101981000D02*
X105918000Y-100342148D01*
X105918000Y-100342148D02*
X107353343Y-98906805D01*
X79540000Y-91948000D02*
X79353000Y-91761000D01*
X110998000Y-91186000D02*
X110998000Y-95262148D01*
X110998000Y-95262148D02*
X107353343Y-98906805D01*
X85090000Y-99060000D02*
X85344000Y-98806000D01*
X81280000Y-91948000D02*
X79540000Y-91948000D01*
X85344000Y-98806000D02*
X105156000Y-98806000D01*
X88138000Y-101981000D02*
X88138000Y-100838000D01*
X80772000Y-89916000D02*
X80417000Y-89561000D01*
X89408000Y-99568000D02*
X104140000Y-99568000D01*
X108204000Y-99568000D02*
X110744000Y-97028000D01*
X88138000Y-100838000D02*
X89408000Y-99568000D01*
X112522000Y-91255112D02*
X112522000Y-96792511D01*
X80417000Y-89561000D02*
X79353000Y-89561000D01*
X112538806Y-91238306D02*
X112522000Y-91255112D01*
X113284000Y-94361000D02*
X113284000Y-98516500D01*
X80503000Y-87361000D02*
X79353000Y-87361000D01*
X80772000Y-87630000D02*
X80503000Y-87361000D01*
D53*
X85852000Y-139192000D02*
X85090000Y-139954000D01*
X85090000Y-139954000D02*
X85090000Y-147066000D01*
X87503000Y-139192000D02*
X85852000Y-139192000D01*
X85090000Y-147066000D02*
X83820000Y-148336000D01*
X83820000Y-148336000D02*
X83820000Y-149860000D01*
X85598000Y-136652000D02*
X83058000Y-139192000D01*
X83058000Y-139192000D02*
X83058000Y-146304000D01*
X83058000Y-146304000D02*
X81280000Y-148082000D01*
X81280000Y-148082000D02*
X81280000Y-149860000D01*
X87503000Y-136652000D02*
X85598000Y-136652000D01*
X78740000Y-147574000D02*
X78740000Y-149860000D01*
X81280000Y-138430000D02*
X81280000Y-145034000D01*
X87503000Y-134112000D02*
X85598000Y-134112000D01*
X81280000Y-145034000D02*
X78740000Y-147574000D01*
X85598000Y-134112000D02*
X81280000Y-138430000D01*
X87503000Y-131572000D02*
X85344000Y-131572000D01*
X79248000Y-144272000D02*
X76200000Y-147320000D01*
X76200000Y-147320000D02*
X76200000Y-149860000D01*
X85344000Y-131572000D02*
X79248000Y-137668000D01*
X79248000Y-137668000D02*
X79248000Y-144272000D01*
X108204000Y-131572000D02*
X102108000Y-137668000D01*
X102108000Y-137668000D02*
X102108000Y-144272000D01*
X102108000Y-144272000D02*
X99060000Y-147320000D01*
X110363000Y-131572000D02*
X108204000Y-131572000D01*
X99060000Y-147320000D02*
X99060000Y-149860000D01*
X104140000Y-145034000D02*
X101600000Y-147574000D01*
X101600000Y-147574000D02*
X101600000Y-149860000D01*
X110363000Y-134112000D02*
X108458000Y-134112000D01*
X104140000Y-138430000D02*
X104140000Y-145034000D01*
X108458000Y-134112000D02*
X104140000Y-138430000D01*
X105918000Y-146304000D02*
X104140000Y-148082000D01*
X110363000Y-136652000D02*
X108458000Y-136652000D01*
X108458000Y-136652000D02*
X105918000Y-139192000D01*
X105918000Y-139192000D02*
X105918000Y-146304000D01*
X104140000Y-148082000D02*
X104140000Y-149860000D01*
X107950000Y-139954000D02*
X107950000Y-147066000D01*
X107950000Y-147066000D02*
X106680000Y-148336000D01*
X108712000Y-139192000D02*
X107950000Y-139954000D01*
X106680000Y-148336000D02*
X106680000Y-149860000D01*
X110363000Y-139192000D02*
X108712000Y-139192000D01*
X133223000Y-131572000D02*
X131064000Y-131572000D01*
X131064000Y-131572000D02*
X124968000Y-137668000D01*
X121920000Y-147320000D02*
X121920000Y-149860000D01*
X124968000Y-137668000D02*
X124968000Y-144272000D01*
X124968000Y-144272000D02*
X121920000Y-147320000D01*
X131318000Y-134112000D02*
X127000000Y-138430000D01*
X127000000Y-138430000D02*
X127000000Y-145034000D01*
X127000000Y-145034000D02*
X124460000Y-147574000D01*
X124460000Y-147574000D02*
X124460000Y-149860000D01*
X133223000Y-134112000D02*
X131318000Y-134112000D01*
X128778000Y-146304000D02*
X127000000Y-148082000D01*
X133223000Y-136652000D02*
X131318000Y-136652000D01*
X131318000Y-136652000D02*
X128778000Y-139192000D01*
X128778000Y-139192000D02*
X128778000Y-146304000D01*
X127000000Y-148082000D02*
X127000000Y-149860000D01*
X130810000Y-147066000D02*
X129540000Y-148336000D01*
X129540000Y-148336000D02*
X129540000Y-149860000D01*
X130810000Y-139954000D02*
X130810000Y-147066000D01*
X133223000Y-139192000D02*
X131572000Y-139192000D01*
X131572000Y-139192000D02*
X130810000Y-139954000D01*
X153670000Y-139954000D02*
X153670000Y-147066000D01*
X153670000Y-147066000D02*
X152400000Y-148336000D01*
X154432000Y-139192000D02*
X153670000Y-139954000D01*
X156083000Y-139192000D02*
X154432000Y-139192000D01*
X152400000Y-148336000D02*
X152400000Y-149860000D01*
X149860000Y-148082000D02*
X149860000Y-149860000D01*
X154178000Y-136652000D02*
X151638000Y-139192000D01*
X156083000Y-136652000D02*
X154178000Y-136652000D01*
X151638000Y-139192000D02*
X151638000Y-146304000D01*
X151638000Y-146304000D02*
X149860000Y-148082000D01*
X149860000Y-145034000D02*
X147320000Y-147574000D01*
X149860000Y-138430000D02*
X149860000Y-145034000D01*
X156083000Y-134112000D02*
X154178000Y-134112000D01*
X154178000Y-134112000D02*
X149860000Y-138430000D01*
X147320000Y-147574000D02*
X147320000Y-149860000D01*
X147828000Y-144272000D02*
X144780000Y-147320000D01*
X144780000Y-147320000D02*
X144780000Y-149860000D01*
X156083000Y-131572000D02*
X153924000Y-131572000D01*
X147828000Y-137668000D02*
X147828000Y-144272000D01*
X153924000Y-131572000D02*
X147828000Y-137668000D01*
X178943000Y-131572000D02*
X176784000Y-131572000D01*
X170688000Y-144272000D02*
X167640000Y-147320000D01*
X176784000Y-131572000D02*
X170688000Y-137668000D01*
X167640000Y-147320000D02*
X167640000Y-149860000D01*
X170688000Y-137668000D02*
X170688000Y-144272000D01*
X178943000Y-134112000D02*
X177038000Y-134112000D01*
X177038000Y-134112000D02*
X172720000Y-138430000D01*
X172720000Y-145034000D02*
X170180000Y-147574000D01*
X172720000Y-138430000D02*
X172720000Y-145034000D01*
X170180000Y-147574000D02*
X170180000Y-149860000D01*
X178943000Y-136652000D02*
X177038000Y-136652000D01*
X174498000Y-139192000D02*
X174498000Y-146304000D01*
X174498000Y-146304000D02*
X172720000Y-148082000D01*
X172720000Y-148082000D02*
X172720000Y-149860000D01*
X177038000Y-136652000D02*
X174498000Y-139192000D01*
X175260000Y-148336000D02*
X175260000Y-149860000D01*
X177292000Y-139192000D02*
X176530000Y-139954000D01*
X176530000Y-147066000D02*
X175260000Y-148336000D01*
X178943000Y-139192000D02*
X177292000Y-139192000D01*
X176530000Y-139954000D02*
X176530000Y-147066000D01*
D55*
X121920000Y-82550000D02*
X121920000Y-80772000D01*
X155667001Y-100872999D02*
X155667001Y-88407807D01*
X155667001Y-88407807D02*
X151876245Y-84617051D01*
X120650000Y-79502000D02*
X119634000Y-79502000D01*
X138684000Y-86360000D02*
X129405933Y-86360000D01*
X160782002Y-130302000D02*
X160782002Y-111760002D01*
X160782002Y-111760002D02*
X155702000Y-106680000D01*
X128643933Y-85598000D02*
X124968000Y-85598000D01*
X121920000Y-80772000D02*
X120650000Y-79502000D01*
X129405933Y-86360000D02*
X128643933Y-85598000D01*
X151876245Y-84617051D02*
X144780000Y-84617051D01*
X124968000Y-85598000D02*
X121920000Y-82550000D01*
X153162000Y-103378000D02*
X155667001Y-100872999D01*
X139446000Y-87122000D02*
X138684000Y-86360000D01*
X126365000Y-79629000D02*
X125476000Y-79629000D01*
X129540000Y-85852000D02*
X128016000Y-84328000D01*
X156121012Y-88219750D02*
X156121012Y-102704992D01*
X162600010Y-112308012D02*
X156972000Y-106680002D01*
X128016000Y-84328000D02*
X128016000Y-81280000D01*
X143810701Y-83890051D02*
X151791313Y-83890051D01*
X162600010Y-131023990D02*
X162600010Y-112308012D01*
X151791313Y-83890051D02*
X156121012Y-88219750D01*
X139495000Y-85852000D02*
X129540000Y-85852000D01*
X155848003Y-102978001D02*
X155448004Y-103378000D01*
X160782000Y-132842000D02*
X162600010Y-131023990D01*
X156121012Y-102704992D02*
X155848003Y-102978001D01*
X128016000Y-81280000D02*
X126365000Y-79629000D01*
X134366000Y-81280000D02*
X132588000Y-79502000D01*
X163054021Y-134379979D02*
X163054021Y-108698015D01*
X163054021Y-108698015D02*
X160782001Y-106425995D01*
X156575023Y-89907089D02*
X156575023Y-88031693D01*
X159766000Y-103378000D02*
X159766000Y-93098068D01*
X159766000Y-93098068D02*
X156575023Y-89907089D01*
X132588000Y-79502000D02*
X131318000Y-79502000D01*
X134366000Y-84836000D02*
X134366000Y-81280000D01*
X151601330Y-83058000D02*
X143256000Y-83058000D01*
X139192000Y-84836000D02*
X134366000Y-84836000D01*
X156575023Y-88031693D02*
X151601330Y-83058000D01*
X162052000Y-135382000D02*
X163054021Y-134379979D01*
X163576000Y-107902677D02*
X162033868Y-106360545D01*
X161798000Y-94487998D02*
X157029034Y-89719032D01*
X166243000Y-139192000D02*
X163576000Y-136525000D01*
X157029034Y-87843636D02*
X151481398Y-82296000D01*
X163576000Y-136525000D02*
X163576000Y-107902677D01*
X151481398Y-82296000D02*
X142494000Y-82296000D01*
X161798000Y-103378000D02*
X161798000Y-94487998D01*
X157029034Y-89719032D02*
X157029034Y-87843636D01*
D50*
X157607000Y-55499000D02*
X155829000Y-55499000D01*
X155829000Y-55499000D02*
X154940000Y-56388000D01*
X154432000Y-60198000D02*
X151769000Y-60198000D01*
X154940000Y-56388000D02*
X154940000Y-59690000D01*
X154940000Y-59690000D02*
X154432000Y-60198000D01*
X152531000Y-90932000D02*
X153924000Y-90932000D01*
D55*
X124975066Y-97917000D02*
X124844533Y-97786467D01*
X106934000Y-79875934D02*
X106934000Y-73406000D01*
X124844533Y-97786467D02*
X106934000Y-79875934D01*
X106934000Y-73406000D02*
X90170000Y-73406000D01*
X88138000Y-71374000D02*
X88138000Y-65786000D01*
X133985000Y-97790000D02*
X135549000Y-97790000D01*
X90170000Y-73406000D02*
X88138000Y-71374000D01*
X124975066Y-97917000D02*
X125730000Y-97917000D01*
X135549000Y-97790000D02*
X135676000Y-97917000D01*
X134620000Y-93980000D02*
X135549000Y-93980000D01*
X107530990Y-79830858D02*
X119775132Y-92075000D01*
X104113324Y-72790020D02*
X104812422Y-72090924D01*
X126746000Y-92075000D02*
X127181480Y-91639520D01*
X104812422Y-72090924D02*
X107530990Y-72090924D01*
X90678000Y-65786000D02*
X90678000Y-70612000D01*
X90678000Y-70612000D02*
X92856020Y-72790020D01*
X119775132Y-92075000D02*
X126746000Y-92075000D01*
X127181480Y-91639520D02*
X132279520Y-91639520D01*
X135549000Y-93980000D02*
X135676000Y-94107000D01*
X107530990Y-72090924D02*
X107530990Y-79830858D01*
X92856020Y-72790020D02*
X104113324Y-72790020D01*
X132279520Y-91639520D02*
X134620000Y-93980000D01*
X111500000Y-65471852D02*
X110889074Y-64860926D01*
X105918000Y-106660108D02*
X107188000Y-105390108D01*
X111500000Y-80766000D02*
X111500000Y-65471852D01*
X95758000Y-46516044D02*
X109697640Y-60455684D01*
X105918000Y-122809000D02*
X105918000Y-106660108D01*
X111760000Y-98171000D02*
X111760000Y-89408000D01*
X111760000Y-81026000D02*
X111500000Y-80766000D01*
X107188000Y-105390108D02*
X107188000Y-100711000D01*
X109601000Y-100330000D02*
X111760000Y-98171000D01*
X113538000Y-124460000D02*
X107569000Y-124460000D01*
X115824000Y-126746000D02*
X113538000Y-124460000D01*
X107188000Y-100711000D02*
X107569000Y-100330000D01*
X107569000Y-100330000D02*
X109601000Y-100330000D01*
X107569000Y-124460000D02*
X105918000Y-122809000D01*
X95758000Y-40386000D02*
X95758000Y-46516044D01*
X141478000Y-83058000D02*
X141605000Y-83185000D01*
X105918000Y-65786000D02*
X105918000Y-64770000D01*
X140676000Y-99187000D02*
X142367000Y-99187000D01*
X106680000Y-64008000D02*
X111112110Y-64008000D01*
X112000000Y-64895890D02*
X112000000Y-72500000D01*
X141478000Y-81280000D02*
X141478000Y-83058000D01*
X113922000Y-74422000D02*
X114554000Y-74422000D01*
X142367000Y-99187000D02*
X143510000Y-98044000D01*
X112000000Y-72500000D02*
X113922000Y-74422000D01*
X105918000Y-64770000D02*
X106680000Y-64008000D01*
X143510000Y-98044000D02*
X143510000Y-85090000D01*
X111112110Y-64008000D02*
X112000000Y-64895890D01*
X143510000Y-85090000D02*
X141605000Y-83185000D01*
X146558000Y-110236000D02*
X146558000Y-106680000D01*
X137922000Y-92710000D02*
X137795000Y-92837000D01*
X137795000Y-92837000D02*
X135676000Y-92837000D01*
X143035500Y-110871000D02*
X145923000Y-110871000D01*
X145923000Y-110871000D02*
X146558000Y-110236000D01*
X122428000Y-99822000D02*
X123409001Y-100803001D01*
X122901002Y-124513998D02*
X120923000Y-126492000D01*
X120923000Y-126492000D02*
X120523000Y-126492000D01*
X122901002Y-103218960D02*
X122901002Y-124513998D01*
X123409001Y-100803001D02*
X123409001Y-102710961D01*
X123409001Y-102710961D02*
X122901002Y-103218960D01*
X132842000Y-97190500D02*
X134655500Y-95377000D01*
X134655500Y-95377000D02*
X135676000Y-95377000D01*
X137414000Y-109728000D02*
X136237500Y-109728000D01*
X135676000Y-96647000D02*
X136779000Y-96647000D01*
X136237500Y-109728000D02*
X136110500Y-109601000D01*
X136779000Y-96647000D02*
X137414000Y-97282000D01*
X137414000Y-97282000D02*
X137414000Y-103378000D01*
X137414000Y-106934000D02*
X137414000Y-109728000D01*
X135549000Y-99060000D02*
X135676000Y-99187000D01*
X117348000Y-123698000D02*
X122282001Y-118763999D01*
X117348000Y-141097000D02*
X117348000Y-123698000D01*
X120523000Y-144272000D02*
X117348000Y-141097000D01*
X122282001Y-101745999D02*
X122682000Y-101346000D01*
X122282001Y-118763999D02*
X122282001Y-101745999D01*
X133223000Y-98933000D02*
X133350000Y-99060000D01*
X133350000Y-99060000D02*
X135549000Y-99060000D01*
X139954000Y-111506000D02*
X139954000Y-106934000D01*
X122500000Y-139755000D02*
X122500000Y-133532000D01*
X131064000Y-114300000D02*
X132588000Y-112776000D01*
X138684000Y-112776000D02*
X139954000Y-111506000D01*
X122500000Y-133532000D02*
X131064000Y-124968000D01*
X140676000Y-102656002D02*
X139954000Y-103378002D01*
X132588000Y-112776000D02*
X138684000Y-112776000D01*
X120523000Y-141732000D02*
X122500000Y-139755000D01*
X140676000Y-100457000D02*
X140676000Y-102656002D01*
X131064000Y-124968000D02*
X131064000Y-114300000D01*
X139827000Y-97917000D02*
X140676000Y-97917000D01*
X138557000Y-110871000D02*
X138684000Y-110744000D01*
X138684000Y-110744000D02*
X138684000Y-106934000D01*
X138684000Y-103378000D02*
X138684000Y-99060000D01*
X136110500Y-110871000D02*
X138557000Y-110871000D01*
X138684000Y-99060000D02*
X139827000Y-97917000D01*
X99220500Y-116586000D02*
X101346000Y-116586000D01*
X103886000Y-112268000D02*
X103886000Y-102489000D01*
X102108000Y-114046000D02*
X103886000Y-112268000D01*
X187485500Y-115316000D02*
X189230002Y-115316000D01*
X101346000Y-116586000D02*
X102108000Y-115824000D01*
X172248601Y-108167399D02*
X172248601Y-115787399D01*
X174752000Y-100744500D02*
X174752000Y-102870000D01*
X103886000Y-102489000D02*
X103378000Y-101981000D01*
X174752000Y-105664000D02*
X172248601Y-108167399D01*
X141335549Y-115951000D02*
X143035500Y-115951000D01*
X141171948Y-115787399D02*
X141335549Y-115951000D01*
X97926356Y-112776000D02*
X97780629Y-112630273D01*
X95758000Y-112199626D02*
X95758000Y-101981000D01*
X99220500Y-112776000D02*
X97926356Y-112776000D01*
X97780629Y-112630273D02*
X96188647Y-112630273D01*
X96188647Y-112630273D02*
X95758000Y-112199626D01*
X173228000Y-114808000D02*
X173228000Y-108458000D01*
X184912000Y-114519010D02*
X185454990Y-114519010D01*
X89043000Y-109220000D02*
X83058000Y-103235000D01*
X185928000Y-114046000D02*
X187485500Y-114046000D01*
X141097004Y-114681000D02*
X140970004Y-114808000D01*
X176022000Y-102870000D02*
X176022000Y-100744500D01*
X100711000Y-115316000D02*
X101219000Y-114808000D01*
X98233000Y-115316000D02*
X95250000Y-112333000D01*
X101219000Y-114808000D02*
X103886000Y-114808000D01*
X94039962Y-109220000D02*
X89043000Y-109220000D01*
X173228000Y-108458000D02*
X176022000Y-105664000D01*
X99220500Y-115316000D02*
X100711000Y-115316000D01*
X185454990Y-114519010D02*
X185928000Y-114046000D01*
X83058000Y-103235000D02*
X83058000Y-101981000D01*
X95250000Y-112333000D02*
X95250000Y-110430038D01*
X99220500Y-115316000D02*
X98233000Y-115316000D01*
X143035500Y-114681000D02*
X141097004Y-114681000D01*
X95250000Y-110430038D02*
X94039962Y-109220000D01*
X101092000Y-111760000D02*
X101092000Y-114046000D01*
X99220500Y-111506000D02*
X100838000Y-111506000D01*
X100838000Y-111506000D02*
X101092000Y-111760000D01*
X74803000Y-119253002D02*
X78994002Y-115062000D01*
X74803000Y-126492000D02*
X74803000Y-119253002D01*
X99220500Y-119126000D02*
X101600000Y-119126000D01*
X101600000Y-119126000D02*
X104613001Y-116112999D01*
X143035500Y-112141000D02*
X141478000Y-112141000D01*
X140970000Y-112649000D02*
X140970000Y-113538000D01*
X104613001Y-116112999D02*
X104613001Y-113757001D01*
X141478000Y-112141000D02*
X140970000Y-112649000D01*
D56*
X94615000Y-118237000D02*
X94234000Y-117856000D01*
X94615000Y-132080000D02*
X94615000Y-118237000D01*
X94234000Y-117856000D02*
X92295500Y-117856000D01*
X96647000Y-134112000D02*
X94615000Y-132080000D01*
X97663000Y-134112000D02*
X96647000Y-134112000D01*
X93980000Y-123825000D02*
X89662000Y-119507000D01*
X96647000Y-141732000D02*
X93980000Y-139065000D01*
X89662000Y-119507000D02*
X89662000Y-117221000D01*
X93980000Y-139065000D02*
X93980000Y-123825000D01*
X97663000Y-141732000D02*
X96647000Y-141732000D01*
X89662000Y-117221000D02*
X90297000Y-116586000D01*
X90297000Y-116586000D02*
X92295500Y-116586000D01*
X97663000Y-144272000D02*
X97282000Y-144272000D01*
X97282000Y-144272000D02*
X93345000Y-140335000D01*
X89154000Y-116459000D02*
X90297000Y-115316000D01*
X93345000Y-124015500D02*
X89154000Y-119824500D01*
X93345000Y-140335000D02*
X93345000Y-124015500D01*
X89154000Y-119824500D02*
X89154000Y-116459000D01*
X90297000Y-115316000D02*
X92295500Y-115316000D01*
X92295500Y-114046000D02*
X93726000Y-114046000D01*
X95250000Y-115570000D02*
X95250000Y-124079000D01*
X93726000Y-114046000D02*
X95250000Y-115570000D01*
X95250000Y-124079000D02*
X97663000Y-126492000D01*
D55*
X92295500Y-112776000D02*
X90737962Y-112776000D01*
X76138000Y-134112000D02*
X83312000Y-126938000D01*
X74803000Y-134112000D02*
X76138000Y-134112000D01*
X90737962Y-112776000D02*
X89213962Y-114300000D01*
X89213962Y-114300000D02*
X89154000Y-114300000D01*
X83312000Y-126938000D02*
X83312000Y-114299988D01*
X90932000Y-111506000D02*
X89154000Y-113284000D01*
X77000000Y-134000000D02*
X84074000Y-126926000D01*
X84074000Y-126926000D02*
X84074000Y-113538000D01*
X92295500Y-111506000D02*
X90932000Y-111506000D01*
X74803000Y-141732000D02*
X75785500Y-141732000D01*
X77000000Y-140517500D02*
X77000000Y-134000000D01*
X75785500Y-141732000D02*
X77000000Y-140517500D01*
X75978000Y-144272000D02*
X77500000Y-142750000D01*
X77500000Y-142750000D02*
X77500000Y-134250000D01*
X84836000Y-113792000D02*
X88392000Y-110236000D01*
X84836000Y-126914000D02*
X84836000Y-113792000D01*
X88392000Y-110236000D02*
X92295500Y-110236000D01*
X77500000Y-134250000D02*
X84836000Y-126914000D01*
X74803000Y-144272000D02*
X75978000Y-144272000D01*
X177292000Y-107696000D02*
X182753000Y-107696000D01*
X176784000Y-114673933D02*
X176784000Y-108204000D01*
X185293000Y-110236000D02*
X187485500Y-110236000D01*
X176784000Y-108204000D02*
X177292000Y-107696000D01*
X172974000Y-118483933D02*
X176784000Y-114673933D01*
X172974000Y-124968000D02*
X172974000Y-118483933D01*
X182753000Y-107696000D02*
X185293000Y-110236000D01*
X144399000Y-118491000D02*
X147378679Y-115511321D01*
X143035500Y-118491000D02*
X144399000Y-118491000D01*
X147378679Y-115511321D02*
X147378679Y-113850679D01*
X185674000Y-112014000D02*
X185674000Y-113284000D01*
X186182000Y-111506000D02*
X185674000Y-112014000D01*
X187485500Y-111506000D02*
X186182000Y-111506000D01*
X191008000Y-115510032D02*
X191008000Y-105918000D01*
X178562000Y-102362000D02*
X180086002Y-103886002D01*
X180086002Y-103886002D02*
X189484000Y-103886002D01*
X188662032Y-117856000D02*
X191008000Y-115510032D01*
X187485500Y-117856000D02*
X188662032Y-117856000D01*
X178562000Y-100744500D02*
X178562000Y-102362000D01*
X187849000Y-134112000D02*
X185420000Y-131683000D01*
X182118000Y-116586000D02*
X180560500Y-116586000D01*
X189103000Y-134112000D02*
X187849000Y-134112000D01*
X185420000Y-131683000D02*
X185420000Y-116620990D01*
X185420000Y-116620990D02*
X185385010Y-116586000D01*
X187849000Y-141732000D02*
X185331011Y-139214011D01*
X184623000Y-116135685D02*
X184623000Y-115570000D01*
X185331011Y-139214011D02*
X185331011Y-132236079D01*
X185331011Y-132236079D02*
X184623000Y-131528068D01*
X181899000Y-115316000D02*
X180560500Y-115316000D01*
X184623000Y-131528068D02*
X184623000Y-116135685D01*
X189103000Y-141732000D02*
X187849000Y-141732000D01*
X182153000Y-115570000D02*
X181899000Y-115316000D01*
X178054000Y-114935000D02*
X178054000Y-119380000D01*
X186690000Y-144272000D02*
X183858751Y-141440751D01*
X183858751Y-141440751D02*
X183858751Y-120428852D01*
X189103000Y-144272000D02*
X186690000Y-144272000D01*
X178943000Y-114046000D02*
X178054000Y-114935000D01*
X178054000Y-119380000D02*
X179070000Y-120396000D01*
X180560500Y-114046000D02*
X178943000Y-114046000D01*
X186690000Y-121412000D02*
X186690000Y-125730000D01*
X179324000Y-112776000D02*
X177292000Y-114808000D01*
X177292000Y-120142000D02*
X178562000Y-121412000D01*
X187452000Y-126492000D02*
X189103000Y-126492000D01*
X177292000Y-114808000D02*
X177292000Y-120142000D01*
X180560500Y-112776000D02*
X179324000Y-112776000D01*
X186690000Y-125730000D02*
X187452000Y-126492000D01*
X167057902Y-134112000D02*
X182880000Y-118289902D01*
X166243000Y-134112000D02*
X167057902Y-134112000D01*
X182880000Y-111887000D02*
X182499000Y-111506000D01*
X182499000Y-111506000D02*
X180560500Y-111506000D01*
X182880000Y-118289902D02*
X182880000Y-111887000D01*
X168250000Y-133561970D02*
X183388000Y-118423970D01*
X167497000Y-141732000D02*
X168250000Y-140979000D01*
X166243000Y-141732000D02*
X167497000Y-141732000D01*
X183388000Y-118423970D02*
X183388000Y-110998000D01*
X183388000Y-110998000D02*
X182626000Y-110236000D01*
X168250000Y-140979000D02*
X168250000Y-133561970D01*
X182626000Y-110236000D02*
X180560500Y-110236000D01*
X167947990Y-144272000D02*
X168750000Y-143469990D01*
X183896000Y-109982000D02*
X182880000Y-108966000D01*
X166243000Y-144272000D02*
X167947990Y-144272000D01*
X183896000Y-118558038D02*
X183896000Y-109982000D01*
X168750000Y-133704038D02*
X183896000Y-118558038D01*
X168750000Y-143469990D02*
X168750000Y-133704038D01*
X182880000Y-108966000D02*
X180560500Y-108966000D01*
X130302000Y-114046000D02*
X132207000Y-112141000D01*
X120904000Y-134112000D02*
X130302000Y-124714000D01*
X130302000Y-124714000D02*
X130302000Y-114046000D01*
X120523000Y-134112000D02*
X120904000Y-134112000D01*
X132207000Y-112141000D02*
X136110500Y-112141000D01*
X139954000Y-124968000D02*
X141478000Y-126492000D01*
X137287000Y-113411000D02*
X139954000Y-116078000D01*
X141478000Y-126492000D02*
X143383000Y-126492000D01*
X139954000Y-116078000D02*
X139954000Y-124968000D01*
X136110500Y-113411000D02*
X137287000Y-113411000D01*
X133985000Y-118661953D02*
X138430000Y-123106953D01*
X138430000Y-140573000D02*
X142129000Y-144272000D01*
X133985000Y-115819000D02*
X133985000Y-118661953D01*
X136110500Y-114681000D02*
X135123000Y-114681000D01*
X138430000Y-123106953D02*
X138430000Y-140573000D01*
X135123000Y-114681000D02*
X133985000Y-115819000D01*
X142129000Y-144272000D02*
X143383000Y-144272000D01*
X140208000Y-135128000D02*
X140208000Y-139700000D01*
X139446000Y-132334000D02*
X139954000Y-132842000D01*
X139446000Y-116967000D02*
X139446000Y-132334000D01*
X136110500Y-115951000D02*
X138430000Y-115951000D01*
X140208000Y-139700000D02*
X141986000Y-141478000D01*
X138430000Y-115951000D02*
X139446000Y-116967000D01*
X141986000Y-141478000D02*
X143129000Y-141478000D01*
X143129000Y-141478000D02*
X143383000Y-141732000D01*
X138303000Y-117221000D02*
X136110500Y-117221000D01*
X138938000Y-117856000D02*
X138303000Y-117221000D01*
X138938000Y-133350000D02*
X138938000Y-117856000D01*
X143383000Y-134112000D02*
X139700000Y-134112000D01*
X139700000Y-134112000D02*
X138938000Y-133350000D01*
X81788000Y-86207398D02*
X80772000Y-85191398D01*
X76708000Y-78994000D02*
X76708000Y-74422000D01*
X80772000Y-85191398D02*
X80772000Y-83058000D01*
D56*
X83058000Y-37338000D02*
X81026000Y-35306000D01*
D55*
X81788000Y-87757000D02*
X81915000Y-87884000D01*
X81915000Y-87884000D02*
X82907500Y-87884000D01*
D56*
X83058000Y-40386000D02*
X83058000Y-37338000D01*
X81026000Y-35306000D02*
X81026000Y-33274000D01*
D55*
X76708000Y-74422000D02*
X74168000Y-71882000D01*
X81788000Y-86207398D02*
X81788000Y-87757000D01*
X80772000Y-83058000D02*
X76708000Y-78994000D01*
X81226010Y-82496010D02*
X78994000Y-80264000D01*
D56*
X85598000Y-37338000D02*
X83566000Y-35306000D01*
D55*
X82907500Y-85090000D02*
X81734010Y-85090000D01*
X81226010Y-84582000D02*
X81226010Y-82496010D01*
D56*
X83566000Y-35306000D02*
X83566000Y-33274000D01*
D55*
X78994000Y-80264000D02*
X78994000Y-69850000D01*
X78994000Y-69850000D02*
X77470000Y-68326000D01*
D56*
X85598000Y-40386000D02*
X85598000Y-37338000D01*
D55*
X81734010Y-85090000D02*
X81226010Y-84582000D01*
D56*
X86106000Y-35306000D02*
X86106000Y-33274000D01*
D55*
X81896001Y-81284501D02*
X81896001Y-63391999D01*
X81896001Y-63391999D02*
X82296000Y-62992000D01*
X82907500Y-82296000D02*
X81896001Y-81284501D01*
D56*
X88138000Y-40386000D02*
X88138000Y-37338000D01*
X88138000Y-37338000D02*
X86106000Y-35306000D01*
D55*
X84328000Y-67564000D02*
X82804000Y-69088000D01*
D56*
X90678000Y-40386000D02*
X90678000Y-37338000D01*
X88646000Y-35306000D02*
X88646000Y-33274000D01*
D55*
X83566000Y-79502000D02*
X82907500Y-79502000D01*
X84328000Y-62738000D02*
X84328000Y-67564000D01*
X84328000Y-73660000D02*
X84328000Y-78232000D01*
X83917990Y-79150010D02*
X83566000Y-79502000D01*
X84328000Y-78232000D02*
X83917990Y-78642010D01*
X82804000Y-72136000D02*
X84328000Y-73660000D01*
D56*
X90678000Y-37338000D02*
X88646000Y-35306000D01*
D55*
X82804000Y-69088000D02*
X82804000Y-72136000D01*
X83917990Y-78642010D02*
X83917990Y-79150010D01*
D53*
X191816198Y-149860000D02*
X194818000Y-146858198D01*
X191770000Y-149860000D02*
X191816198Y-149860000D01*
X194818000Y-141732000D02*
X199898000Y-136652000D01*
X199898000Y-136652000D02*
X201803000Y-136652000D01*
X194818000Y-146858198D02*
X194818000Y-141732000D01*
X186890000Y-149860000D02*
X187544999Y-149205001D01*
X199644000Y-131572000D02*
X201803000Y-131572000D01*
X187544999Y-149205001D02*
X187544999Y-149051199D01*
X186690000Y-149860000D02*
X186890000Y-149860000D01*
X187544999Y-149051199D02*
X191770000Y-144826198D01*
X191770000Y-139446000D02*
X199644000Y-131572000D01*
X191770000Y-144826198D02*
X191770000Y-139446000D01*
X201803000Y-134112000D02*
X199898000Y-134112000D01*
X199898000Y-134112000D02*
X193240010Y-140769990D01*
X189230000Y-149596736D02*
X189230000Y-149860000D01*
X193240010Y-140769990D02*
X193240010Y-145586726D01*
X193240010Y-145586726D02*
X189230000Y-149596736D01*
D50*
X119507000Y-55499000D02*
X118999000Y-55499000D01*
X114808000Y-92837000D02*
X115951000Y-93980000D01*
X115951000Y-93980000D02*
X115951000Y-101600000D01*
X117729000Y-86487000D02*
X119761000Y-86487000D01*
X116840000Y-85598000D02*
X117729000Y-86487000D01*
X116840000Y-57658000D02*
X116840000Y-85598000D01*
X118999000Y-55499000D02*
X116840000Y-57658000D01*
D55*
X87122000Y-81280000D02*
X89154000Y-81280000D01*
X84732500Y-79502000D02*
X85344000Y-79502000D01*
X85344000Y-79502000D02*
X87122000Y-81280000D01*
X86360000Y-83820000D02*
X86106000Y-83566000D01*
X86106000Y-82550000D02*
X85852000Y-82296000D01*
X89154000Y-83820000D02*
X86360000Y-83820000D01*
X86106000Y-83566000D02*
X86106000Y-82550000D01*
X85852000Y-82296000D02*
X84732500Y-82296000D01*
X86614000Y-86360000D02*
X89154000Y-86360000D01*
X84732500Y-85090000D02*
X85344000Y-85090000D01*
X85344000Y-85090000D02*
X86614000Y-86360000D01*
X86868000Y-88900000D02*
X89154000Y-88900000D01*
X85852000Y-87884000D02*
X86868000Y-88900000D01*
X84732500Y-87884000D02*
X85852000Y-87884000D01*
X105918000Y-93980000D02*
X105918000Y-95781500D01*
X104036500Y-93853000D02*
X105791000Y-93853000D01*
X105791000Y-93853000D02*
X105918000Y-93980000D01*
X105918000Y-95781500D02*
X104036500Y-97663000D01*
X104036500Y-85598000D02*
X105918000Y-85598000D01*
X104036500Y-89408000D02*
X105918000Y-89408000D01*
D56*
X85000000Y-57400000D02*
X85100000Y-57300000D01*
X80900000Y-57400000D02*
X85000000Y-57400000D01*
X103378000Y-63178000D02*
X103378000Y-65786000D01*
X73723500Y-31051500D02*
X71310500Y-31051500D01*
X74676000Y-34290000D02*
X74676000Y-32004000D01*
X76700000Y-43900000D02*
X76700000Y-36314000D01*
X85800000Y-62000000D02*
X90900000Y-62000000D01*
X95258449Y-61976000D02*
X102176000Y-61976000D01*
X76700000Y-36314000D02*
X74676000Y-34290000D01*
D55*
X70866000Y-33274000D02*
X70866000Y-31496000D01*
X70866000Y-31496000D02*
X71310500Y-31051500D01*
D56*
X95246779Y-61964330D02*
X95258449Y-61976000D01*
X74676000Y-32004000D02*
X73723500Y-31051500D01*
X77200000Y-50900000D02*
X77800000Y-51500000D01*
X102176000Y-61976000D02*
X103378000Y-63178000D01*
X77800000Y-51500000D02*
X80400000Y-51500000D01*
X94908000Y-65786000D02*
X94270999Y-65148999D01*
D55*
X72644000Y-43688000D02*
X71628000Y-42672000D01*
D56*
X89900000Y-58200000D02*
X88900000Y-57200000D01*
X75714067Y-47114067D02*
X82314067Y-47114067D01*
X74500000Y-45500000D02*
X72688000Y-43688000D01*
X94270999Y-65148999D02*
X94270999Y-58729001D01*
X95758000Y-65786000D02*
X94908000Y-65786000D01*
D55*
X71628000Y-35052000D02*
X73406000Y-33274000D01*
D56*
X72688000Y-43688000D02*
X72644000Y-43688000D01*
X75057000Y-45500000D02*
X74500000Y-45500000D01*
X90800000Y-58200000D02*
X89900000Y-58200000D01*
X82314067Y-47114067D02*
X85400000Y-50200000D01*
D55*
X71628000Y-42672000D02*
X71628000Y-35052000D01*
D50*
X66294000Y-121666000D02*
X72390000Y-121666000D01*
D55*
X111887000Y-45339000D02*
X111898000Y-45350000D01*
X80518000Y-63694036D02*
X81947038Y-62264998D01*
X84328000Y-60960000D02*
X91186000Y-60960000D01*
X110717933Y-61359999D02*
X112875542Y-59202390D01*
X95649999Y-61359999D02*
X110717933Y-61359999D01*
X110922998Y-46303002D02*
X111887000Y-45339000D01*
X81947038Y-62264998D02*
X83023002Y-62264998D01*
X80518000Y-65786000D02*
X80518000Y-63694036D01*
X111898000Y-45350000D02*
X119610000Y-45350000D01*
X112875542Y-58265542D02*
X110922998Y-56312998D01*
X83023002Y-62264998D02*
X84328000Y-60960000D01*
X95250000Y-60960000D02*
X95649999Y-61359999D01*
X112875542Y-59202390D02*
X112875542Y-58265542D01*
X110922998Y-56312998D02*
X110922998Y-46303002D01*
D53*
X200152000Y-139192000D02*
X201803000Y-139192000D01*
X196596000Y-147574000D02*
X196596000Y-142748000D01*
X194310000Y-149860000D02*
X196596000Y-147574000D01*
X196596000Y-142748000D02*
X200152000Y-139192000D01*
D55*
X103378000Y-45466000D02*
X104140000Y-46228000D01*
X120116240Y-46633760D02*
X115484570Y-46633760D01*
D56*
X103378000Y-40386000D02*
X103378000Y-36672000D01*
D55*
X144018000Y-40894000D02*
X132334000Y-40894000D01*
X103378000Y-40386000D02*
X103378000Y-45466000D01*
X132334000Y-40894000D02*
X127885995Y-45342005D01*
D56*
X95200000Y-30550000D02*
X92450000Y-30550000D01*
X103378000Y-36672000D02*
X103950000Y-36100000D01*
X81280000Y-30480000D02*
X78486000Y-33274000D01*
X89662000Y-30480000D02*
X81280000Y-30480000D01*
D55*
X121407995Y-45342005D02*
X120116240Y-46633760D01*
X127885995Y-45342005D02*
X121407995Y-45342005D01*
X115484570Y-46633760D02*
X115084571Y-46233761D01*
D56*
X117800000Y-49300000D02*
X116081933Y-47581933D01*
X81200000Y-45800000D02*
X79400000Y-44000000D01*
X116081933Y-47581933D02*
X115981933Y-47581933D01*
X87000000Y-45800000D02*
X81200000Y-45800000D01*
X114500000Y-47700000D02*
X121998837Y-55198837D01*
X79100000Y-46600000D02*
X89100000Y-46600000D01*
X121998837Y-55198837D02*
X127598846Y-55198837D01*
X78000000Y-45500000D02*
X79100000Y-46600000D01*
X74168000Y-42545000D02*
X72898000Y-41275000D01*
X99300000Y-46517000D02*
X102283000Y-49500000D01*
X72898000Y-41275000D02*
X72898000Y-40386000D01*
X74988319Y-42545000D02*
X74168000Y-42545000D01*
X102283000Y-49500000D02*
X103500000Y-49500000D01*
X89100000Y-46600000D02*
X89200000Y-46700000D01*
X97300000Y-29000000D02*
X97300000Y-30400000D01*
X98552000Y-35524500D02*
X97000000Y-37076500D01*
X97300000Y-30400000D02*
X97300000Y-30900000D01*
X97000000Y-37076500D02*
X97000000Y-42100000D01*
X97300000Y-30900000D02*
X98300000Y-31900000D01*
X98300000Y-31900000D02*
X98300000Y-33600000D01*
D55*
X105918000Y-74422000D02*
X105664000Y-74168000D01*
D56*
X98574999Y-47774999D02*
X103600000Y-52800000D01*
X103700000Y-29300000D02*
X103700000Y-29100000D01*
D55*
X105918000Y-76581000D02*
X105918000Y-74422000D01*
X97028000Y-62700500D02*
X97000000Y-62728500D01*
X97000000Y-62728500D02*
X97000000Y-68333000D01*
X97000000Y-68333000D02*
X99314000Y-70647000D01*
X105664000Y-74168000D02*
X99314000Y-74168000D01*
D56*
X99568000Y-35524500D02*
X99500000Y-35592500D01*
X98574999Y-43125001D02*
X98574999Y-47774999D01*
X101700000Y-31300000D02*
X103700000Y-29300000D01*
X99500000Y-42200000D02*
X98574999Y-43125001D01*
X99500000Y-35592500D02*
X99500000Y-42200000D01*
D55*
X79502000Y-37973000D02*
X77724000Y-37973000D01*
X80264000Y-37211000D02*
X79502000Y-37973000D01*
D50*
X201930000Y-113284000D02*
X201930000Y-122428000D01*
D53*
X168656000Y-106426000D02*
X168656000Y-106487000D01*
D51*
X112014000Y-129540000D02*
X112522000Y-130048000D01*
D52*
X146558000Y-47498000D02*
X146812000Y-47244000D01*
D50*
X199644000Y-124714000D02*
X199390000Y-124968000D01*
D51*
X128169500Y-69850000D02*
X123698000Y-69850000D01*
X136110500Y-118491000D02*
X137741014Y-118491000D01*
D52*
X77724000Y-86122798D02*
X78535798Y-85311000D01*
D51*
X67250000Y-153250000D02*
X64985000Y-153250000D01*
D52*
X133223000Y-129032000D02*
X134620000Y-129032000D01*
D55*
X92295500Y-119126000D02*
X93890000Y-119126000D01*
D52*
X94488003Y-44449997D02*
X94488003Y-37084003D01*
D51*
X147574000Y-110435106D02*
X144598106Y-113411000D01*
D50*
X199390000Y-129208278D02*
X198959722Y-129208278D01*
D55*
X113538000Y-128370500D02*
X113183500Y-128370500D01*
D50*
X129286000Y-89408000D02*
X126365000Y-89408000D01*
D52*
X77724000Y-88392000D02*
X77724000Y-86122798D01*
D51*
X108458000Y-66802000D02*
X108458000Y-65786000D01*
X135636000Y-130048000D02*
X135636000Y-143256000D01*
D54*
X146366000Y-51500000D02*
X146000000Y-51866000D01*
D52*
X75438000Y-77597000D02*
X75438000Y-79248000D01*
D55*
X159258000Y-128370500D02*
X158903500Y-128370500D01*
D50*
X201930000Y-113284000D02*
X201930000Y-97930000D01*
X67183000Y-155448000D02*
X86106000Y-155448000D01*
X146558000Y-79248000D02*
X147701000Y-78105000D01*
D55*
X191770000Y-115824000D02*
X191770000Y-112776000D01*
D52*
X145541949Y-85344051D02*
X144780000Y-86106000D01*
D51*
X102108000Y-33274000D02*
X102108000Y-32992000D01*
D52*
X146304000Y-79502000D02*
X146558000Y-79248000D01*
D51*
X157480000Y-129794000D02*
X157988000Y-130302000D01*
D50*
X143986000Y-79248000D02*
X146558000Y-79248000D01*
D55*
X190246000Y-107442000D02*
X190246000Y-108204000D01*
D51*
X85250000Y-155000000D02*
X69000000Y-155000000D01*
X199136000Y-145034000D02*
X201041000Y-145034000D01*
D50*
X137922000Y-73914000D02*
X137414000Y-74422000D01*
D51*
X132080000Y-149860000D02*
X132080000Y-152400000D01*
D53*
X124968000Y-106426000D02*
X124714000Y-106172000D01*
X154432000Y-109950000D02*
X154432000Y-107442000D01*
D52*
X136043500Y-89561500D02*
X136043500Y-88392000D01*
D50*
X63190000Y-125166000D02*
X62484000Y-124460000D01*
D52*
X146812000Y-37084000D02*
X147066000Y-36830000D01*
X144639000Y-38608000D02*
X146558000Y-38608000D01*
D51*
X99840000Y-31006000D02*
X99840000Y-29000000D01*
D50*
X86106000Y-155448000D02*
X86360000Y-155194000D01*
D51*
X181102000Y-143764000D02*
X180594000Y-144272000D01*
D52*
X146812000Y-43688000D02*
X146812000Y-42672000D01*
X77793000Y-88461000D02*
X77724000Y-88392000D01*
D50*
X149214766Y-72009000D02*
X146801766Y-74422000D01*
X86360000Y-155194000D02*
X86360000Y-152400000D01*
D51*
X102108000Y-32992000D02*
X103800000Y-31300000D01*
D55*
X99220500Y-114046000D02*
X97790000Y-114046000D01*
D51*
X157988000Y-143764000D02*
X157480000Y-144272000D01*
X147574000Y-109728000D02*
X147574000Y-110435106D01*
D55*
X89815500Y-128370500D02*
X89154000Y-129032000D01*
D51*
X144598106Y-113411000D02*
X143035500Y-113411000D01*
D52*
X196500000Y-124612500D02*
X199034500Y-124612500D01*
X75438000Y-76581000D02*
X75438000Y-77216000D01*
X139446000Y-81788000D02*
X139446000Y-76454000D01*
D53*
X93218000Y-106680000D02*
X92964000Y-106934000D01*
D52*
X75438000Y-77216000D02*
X72898000Y-79756000D01*
D51*
X201803000Y-129032000D02*
X199136000Y-129032000D01*
D50*
X146801766Y-74422000D02*
X145034000Y-74422000D01*
D51*
X134620000Y-129032000D02*
X135636000Y-130048000D01*
D52*
X72898000Y-79756000D02*
X69315500Y-79756000D01*
D50*
X68326000Y-33274000D02*
X68326000Y-32766000D01*
D53*
X153477000Y-106487000D02*
X153416000Y-106487000D01*
D51*
X156083000Y-129032000D02*
X156718000Y-129032000D01*
D55*
X96012000Y-115062000D02*
X94996000Y-114046000D01*
D51*
X103632000Y-71628000D02*
X108458000Y-66802000D01*
X121539000Y-72009000D02*
X119507000Y-72009000D01*
D52*
X146366000Y-51500000D02*
X146812000Y-51054000D01*
D51*
X154940000Y-149860000D02*
X154940000Y-152400000D01*
X201041000Y-145034000D02*
X201803000Y-144272000D01*
X177800000Y-149860000D02*
X177800000Y-152400000D01*
D55*
X96012000Y-119126000D02*
X96012000Y-115062000D01*
D50*
X64064000Y-113228000D02*
X66294000Y-113228000D01*
X157607000Y-72009000D02*
X149214766Y-72009000D01*
D53*
X72009000Y-81534000D02*
X75438000Y-78105000D01*
D51*
X64985000Y-153250000D02*
X64770000Y-153035000D01*
X157480000Y-144272000D02*
X156083000Y-144272000D01*
D52*
X93218000Y-65786000D02*
X93218000Y-45720000D01*
D55*
X113183500Y-128370500D02*
X112014000Y-129540000D01*
X144118500Y-107442000D02*
X144780000Y-107442000D01*
D51*
X96520000Y-71628000D02*
X103632000Y-71628000D01*
D54*
X145695500Y-56642000D02*
X144526000Y-57811500D01*
D50*
X86360000Y-155194000D02*
X86360000Y-149860000D01*
D51*
X199136000Y-129032000D02*
X198959722Y-129208278D01*
X88646000Y-144272000D02*
X87503000Y-144272000D01*
D53*
X124968000Y-110077000D02*
X124968000Y-106426000D01*
D51*
X111760000Y-144272000D02*
X110363000Y-144272000D01*
D52*
X136652000Y-90176078D02*
X136652000Y-90170000D01*
D55*
X135676000Y-100798000D02*
X132588000Y-103886000D01*
X101192500Y-108204000D02*
X101981000Y-108204000D01*
D51*
X134620000Y-144272000D02*
X133223000Y-144272000D01*
D52*
X146812000Y-51054000D02*
X146812000Y-47244000D01*
D55*
X177292000Y-100744500D02*
X177292000Y-102870000D01*
D51*
X144750000Y-116750000D02*
X144750000Y-113562894D01*
D52*
X146304000Y-85344051D02*
X145541949Y-85344051D01*
D51*
X135636000Y-143256000D02*
X135128000Y-143764000D01*
D52*
X138938000Y-82296000D02*
X139446000Y-81788000D01*
X140676000Y-92837000D02*
X139312922Y-92837000D01*
D51*
X87503000Y-129032000D02*
X89154000Y-129032000D01*
D55*
X182118000Y-128370500D02*
X182017500Y-128370500D01*
D52*
X93218000Y-45720000D02*
X94488003Y-44449997D01*
D50*
X147701000Y-78105000D02*
X147701000Y-73522766D01*
D55*
X136398000Y-129286000D02*
X136398000Y-128370500D01*
D50*
X160909000Y-73787000D02*
X159131000Y-72009000D01*
D51*
X103800000Y-31300000D02*
X105100000Y-31300000D01*
X156718000Y-129032000D02*
X157480000Y-129794000D01*
D52*
X79353000Y-88461000D02*
X77793000Y-88461000D01*
D54*
X146050000Y-56642000D02*
X145695500Y-56642000D01*
D50*
X66294000Y-125166000D02*
X63190000Y-125166000D01*
D51*
X138684000Y-145034000D02*
X138684000Y-149352000D01*
X135128000Y-143764000D02*
X135128000Y-144018000D01*
D52*
X139312922Y-92837000D02*
X136652000Y-90176078D01*
D50*
X147701000Y-73522766D02*
X149214766Y-72009000D01*
X159131000Y-72009000D02*
X157607000Y-72009000D01*
D54*
X146000000Y-51866000D02*
X146000000Y-55000000D01*
D51*
X75438000Y-37846000D02*
X73660000Y-36068000D01*
D52*
X144639000Y-51500000D02*
X146366000Y-51500000D01*
D55*
X144780000Y-107442000D02*
X145288000Y-107950000D01*
X90932000Y-128370500D02*
X89815500Y-128370500D01*
D52*
X144639000Y-47498000D02*
X146558000Y-47498000D01*
D51*
X180086000Y-129032000D02*
X180721000Y-129667000D01*
X181102000Y-130048000D02*
X181102000Y-143764000D01*
D55*
X181610000Y-117856000D02*
X181864000Y-118110000D01*
D50*
X112014000Y-111506000D02*
X116586000Y-106934000D01*
D51*
X178943000Y-129032000D02*
X180086000Y-129032000D01*
D55*
X135676000Y-100457000D02*
X135676000Y-100798000D01*
D50*
X62484000Y-150749000D02*
X67183000Y-155448000D01*
X68326000Y-32766000D02*
X64770000Y-29210000D01*
D52*
X144639000Y-43053000D02*
X146431000Y-43053000D01*
D55*
X101981000Y-108204000D02*
X103124000Y-107061000D01*
D50*
X137922000Y-71476000D02*
X137922000Y-73914000D01*
D55*
X182017500Y-128370500D02*
X180721000Y-129667000D01*
D51*
X137741014Y-118491000D02*
X137750014Y-118500000D01*
D52*
X75438000Y-76581000D02*
X75438000Y-77597000D01*
X199034500Y-124612500D02*
X199390000Y-124968000D01*
D51*
X75438000Y-40386000D02*
X75438000Y-37846000D01*
X196850000Y-149860000D02*
X196850000Y-152400000D01*
D52*
X75438000Y-79248000D02*
X79353000Y-83163000D01*
X146431000Y-43053000D02*
X146812000Y-42672000D01*
D51*
X89662000Y-129540000D02*
X89662000Y-143256000D01*
D52*
X78535798Y-85311000D02*
X79353000Y-85311000D01*
X146812000Y-42672000D02*
X146812000Y-38862000D01*
X146812000Y-47244000D02*
X146812000Y-46228000D01*
D50*
X198959722Y-129208278D02*
X198247000Y-129921000D01*
D53*
X79883000Y-110077000D02*
X79883000Y-112903000D01*
X169418000Y-107188000D02*
X168656000Y-106426000D01*
D50*
X164592000Y-73787000D02*
X160909000Y-73787000D01*
X62484000Y-150749000D02*
X64770000Y-153035000D01*
X149375798Y-72170032D02*
X157445968Y-72170032D01*
D55*
X97790000Y-114046000D02*
X97479697Y-113735697D01*
D51*
X112522000Y-143510000D02*
X111760000Y-144272000D01*
D53*
X169418000Y-109950000D02*
X169418000Y-107188000D01*
X131318000Y-108143501D02*
X127441499Y-104267000D01*
D51*
X111506000Y-129032000D02*
X112014000Y-129540000D01*
D55*
X135636000Y-130048000D02*
X136398000Y-129286000D01*
D53*
X183642000Y-96012000D02*
X185319500Y-96012000D01*
D52*
X146304000Y-81534000D02*
X146304000Y-79502000D01*
D53*
X198628000Y-109950000D02*
X198628000Y-106426000D01*
D55*
X189484000Y-118110000D02*
X191770000Y-115824000D01*
D51*
X105100000Y-31300000D02*
X106240000Y-30160000D01*
D52*
X136043500Y-88392000D02*
X134620000Y-88392000D01*
D55*
X180560500Y-117856000D02*
X181610000Y-117856000D01*
D50*
X62484000Y-114808000D02*
X64064000Y-113228000D01*
D51*
X157988000Y-130302000D02*
X157988000Y-143764000D01*
D55*
X187485500Y-112776000D02*
X189484000Y-112776000D01*
D51*
X180721000Y-129667000D02*
X181102000Y-130048000D01*
D53*
X93218000Y-101981000D02*
X93218000Y-106680000D01*
D50*
X199390000Y-124968000D02*
X199390000Y-129208278D01*
D55*
X158903500Y-128370500D02*
X157480000Y-129794000D01*
D51*
X93218000Y-65786000D02*
X93218000Y-68326000D01*
D53*
X75438000Y-78105000D02*
X75438000Y-77597000D01*
D50*
X198247000Y-129921000D02*
X196342000Y-131826000D01*
D52*
X79353000Y-83163000D02*
X79353000Y-85311000D01*
D53*
X108458000Y-107061000D02*
X108458000Y-110204000D01*
D50*
X199136000Y-146865000D02*
X201168000Y-148897000D01*
X126365000Y-89408000D02*
X124714000Y-87757000D01*
D53*
X152654000Y-41370000D02*
X152654000Y-36830000D01*
D52*
X144780000Y-86106000D02*
X144780000Y-86513500D01*
D51*
X106240000Y-30160000D02*
X106240000Y-29100000D01*
D55*
X172212000Y-93819500D02*
X172212000Y-96012000D01*
D50*
X62484000Y-124460000D02*
X62484000Y-150749000D01*
D51*
X93218000Y-68326000D02*
X96520000Y-71628000D01*
X102108000Y-33274000D02*
X99840000Y-31006000D01*
D52*
X139446000Y-76454000D02*
X137414000Y-74422000D01*
D50*
X201930000Y-97930000D02*
X198500000Y-94500000D01*
D52*
X146812000Y-38862000D02*
X146812000Y-37084000D01*
D51*
X89662000Y-143256000D02*
X88646000Y-144272000D01*
D53*
X79883000Y-112903000D02*
X79756000Y-113030000D01*
D51*
X89154000Y-129032000D02*
X89662000Y-129540000D01*
X86360000Y-152400000D02*
X86360000Y-153890000D01*
D55*
X97479697Y-113735697D02*
X97479697Y-113356784D01*
D51*
X86360000Y-153890000D02*
X85250000Y-155000000D01*
D50*
X157445968Y-72170032D02*
X157607000Y-72009000D01*
D51*
X112522000Y-130048000D02*
X112522000Y-143510000D01*
D52*
X136652000Y-90170000D02*
X136043500Y-89561500D01*
D55*
X189330500Y-106934000D02*
X189738000Y-106934000D01*
D51*
X69000000Y-155000000D02*
X67250000Y-153250000D01*
X135128000Y-144018000D02*
X135636000Y-144526000D01*
D50*
X110744000Y-111506000D02*
X112014000Y-111506000D01*
D55*
X189738000Y-106934000D02*
X190246000Y-107442000D01*
D51*
X180594000Y-144272000D02*
X178943000Y-144272000D01*
D52*
X146558000Y-38608000D02*
X146812000Y-38862000D01*
D53*
X131318000Y-108204000D02*
X131318000Y-108143501D01*
D51*
X109220000Y-149860000D02*
X109220000Y-152400000D01*
D50*
X201930000Y-122428000D02*
X199644000Y-124714000D01*
X199136000Y-145034000D02*
X199136000Y-146865000D01*
D51*
X123698000Y-69850000D02*
X121539000Y-72009000D01*
D53*
X185319500Y-96012000D02*
X185420000Y-95911500D01*
D51*
X135128000Y-143764000D02*
X134620000Y-144272000D01*
D53*
X154432000Y-107442000D02*
X153477000Y-106487000D01*
D50*
X149214766Y-72009000D02*
X149375798Y-72170032D01*
D51*
X110363000Y-129032000D02*
X111506000Y-129032000D01*
D50*
X62484000Y-124460000D02*
X62484000Y-114808000D01*
D55*
X69315500Y-44196000D02*
X71120000Y-44196000D01*
M02*
