M48
; DRILL file {KiCad (6.0.0)} date Sat Mar  5 18:23:02 2022
; FORMAT={-:-/ absolute / metric / decimal}
; #@! TF.CreationDate,2022-03-05T18:23:02-06:00
; #@! TF.GenerationSoftware,Kicad,Pcbnew,(6.0.0)
; #@! TF.FileFunction,Plated,1,2,PTH
FMAT,2
METRIC
; #@! TA.AperFunction,Plated,PTH,ViaDrill
T1C0.380
; #@! TA.AperFunction,Plated,PTH,ViaDrill
T2C0.400
; #@! TA.AperFunction,Plated,PTH,ComponentDrill
T3C1.000
; #@! TA.AperFunction,Plated,PTH,ComponentDrill
T4C1.300
%
G90
G05
T1
X152.908Y-78.994
X164.211Y-80.137
X164.592Y-74.93
X164.647Y-73.152
X165.354Y-90.17
X165.608Y-85.09
X166.116Y-87.122
X166.243Y-74.776
X169.291Y-74.776
X172.339Y-74.776
X173.736Y-88.392
X173.966Y-85.38
X173.99Y-83.566
X174.498Y-82.55
X174.498Y-84.582
X174.498Y-86.614
X178.562Y-68.58
X178.816Y-71.374
X179.214Y-74.93
X179.832Y-78.486
X181.102Y-88.392
X183.642Y-83.82
T2
X163.576Y-66.04
T3
X185.42Y-63.5
X185.42Y-66.04
X185.42Y-68.58
X185.42Y-71.12
X185.42Y-73.66
X185.42Y-76.2
X185.42Y-78.74
X185.42Y-81.28
X185.42Y-83.82
X185.42Y-86.36
X185.42Y-88.9
X185.42Y-91.44
T4
X146.582Y-65.212
X146.582Y-68.712
X146.582Y-72.212
X146.582Y-78.673
X146.582Y-82.173
X146.582Y-85.673
X158.082Y-63.711
X158.082Y-67.212
X158.082Y-70.712
X158.082Y-77.173
X158.082Y-80.673
X158.082Y-84.173
T0
M30
