M48
; DRILL file {KiCad (6.0.0)} date Sun Apr 17 00:15:06 2022
; FORMAT={-:-/ absolute / metric / decimal}
; #@! TF.CreationDate,2022-04-17T00:15:06-07:00
; #@! TF.GenerationSoftware,Kicad,Pcbnew,(6.0.0)
; #@! TF.FileFunction,Plated,1,2,PTH
FMAT,2
METRIC
; #@! TA.AperFunction,Plated,PTH,ViaDrill
T1C0.500
; #@! TA.AperFunction,Plated,PTH,ViaDrill
T2C0.600
; #@! TA.AperFunction,Plated,PTH,ComponentDrill
T3C1.000
; #@! TA.AperFunction,Plated,PTH,ComponentDrill
T4C1.300
%
G90
G05
T1
X166.4Y-84.8
X169.653Y-86.98
X169.76Y-89.86
X175.89Y-84.81
X175.89Y-87.35
X175.89Y-89.65
T2
X166.21Y-91.16
X173.04Y-81.13
X173.17Y-65.85
X173.17Y-76.04
X173.19Y-70.96
X174.94Y-85.97
T3
X185.42Y-63.5
X185.42Y-66.04
X185.42Y-68.58
X185.42Y-71.12
X185.42Y-73.66
X185.42Y-76.2
X185.42Y-78.74
X185.42Y-81.28
X185.42Y-83.82
X185.42Y-86.36
X185.42Y-88.9
X185.42Y-91.44
T4
X147.14Y-65.19
X147.14Y-68.69
X147.14Y-72.19
X147.14Y-78.65
X147.14Y-82.15
X147.14Y-85.65
X158.64Y-63.69
X158.64Y-67.19
X158.64Y-70.69
X158.64Y-77.15
X158.64Y-80.65
X158.64Y-84.15
T0
M30
