G04 #@! TF.GenerationSoftware,KiCad,Pcbnew,(6.0.0)*
G04 #@! TF.CreationDate,2022-03-05T18:23:28-06:00*
G04 #@! TF.ProjectId,4 Channel Screw term,34204368-616e-46e6-956c-205363726577,rev?*
G04 #@! TF.SameCoordinates,Original*
G04 #@! TF.FileFunction,Legend,Top*
G04 #@! TF.FilePolarity,Positive*
%FSLAX46Y46*%
G04 Gerber Fmt 4.6, Leading zero omitted, Abs format (unit mm)*
G04 Created by KiCad (PCBNEW (6.0.0)) date 2022-03-05 18:23:28*
%MOMM*%
%LPD*%
G01*
G04 APERTURE LIST*
G04 Aperture macros list*
%AMRoundRect*
0 Rectangle with rounded corners*
0 $1 Rounding radius*
0 $2 $3 $4 $5 $6 $7 $8 $9 X,Y pos of 4 corners*
0 Add a 4 corners polygon primitive as box body*
4,1,4,$2,$3,$4,$5,$6,$7,$8,$9,$2,$3,0*
0 Add four circle primitives for the rounded corners*
1,1,$1+$1,$2,$3*
1,1,$1+$1,$4,$5*
1,1,$1+$1,$6,$7*
1,1,$1+$1,$8,$9*
0 Add four rect primitives between the rounded corners*
20,1,$1+$1,$2,$3,$4,$5,0*
20,1,$1+$1,$4,$5,$6,$7,0*
20,1,$1+$1,$6,$7,$8,$9,0*
20,1,$1+$1,$8,$9,$2,$3,0*%
G04 Aperture macros list end*
%ADD10C,0.150000*%
%ADD11C,0.250000*%
%ADD12C,0.120000*%
%ADD13C,2.032098*%
%ADD14C,2.032000*%
%ADD15R,1.900000X1.900000*%
%ADD16RoundRect,0.237500X0.250000X0.237500X-0.250000X0.237500X-0.250000X-0.237500X0.250000X-0.237500X0*%
%ADD17R,1.300000X0.800000*%
%ADD18RoundRect,0.100000X-0.637500X-0.100000X0.637500X-0.100000X0.637500X0.100000X-0.637500X0.100000X0*%
%ADD19RoundRect,0.237500X-0.237500X0.250000X-0.237500X-0.250000X0.237500X-0.250000X0.237500X0.250000X0*%
%ADD20R,1.700000X1.700000*%
%ADD21O,1.700000X1.700000*%
%ADD22RoundRect,0.237500X-0.237500X0.300000X-0.237500X-0.300000X0.237500X-0.300000X0.237500X0.300000X0*%
%ADD23RoundRect,0.237500X-0.300000X-0.237500X0.300000X-0.237500X0.300000X0.237500X-0.300000X0.237500X0*%
G04 APERTURE END LIST*
D10*
X156370057Y-90170000D02*
G75*
G03*
X156370057Y-90170000I-2700057J0D01*
G01*
D11*
X160940476Y-86709333D02*
X160940476Y-87947428D01*
X159416666Y-87280761D01*
X159416666Y-87566476D01*
X159226190Y-87756952D01*
X159035714Y-87852190D01*
X158654761Y-87947428D01*
X157702380Y-87947428D01*
X157321428Y-87852190D01*
X157130952Y-87756952D01*
X156940476Y-87566476D01*
X156940476Y-86995047D01*
X157130952Y-86804571D01*
X157321428Y-86709333D01*
X156940476Y-74342571D02*
X156940476Y-73485428D01*
X156940476Y-73914000D02*
X160940476Y-73914000D01*
X160369047Y-73771142D01*
X159988095Y-73628285D01*
X159797619Y-73485428D01*
D10*
X165997619Y-62734714D02*
X165997619Y-63401380D01*
X165759523Y-62353761D02*
X165521428Y-63068047D01*
X166140476Y-63068047D01*
X167854761Y-63306142D02*
X167807142Y-63353761D01*
X167664285Y-63401380D01*
X167569047Y-63401380D01*
X167426190Y-63353761D01*
X167330952Y-63258523D01*
X167283333Y-63163285D01*
X167235714Y-62972809D01*
X167235714Y-62829952D01*
X167283333Y-62639476D01*
X167330952Y-62544238D01*
X167426190Y-62449000D01*
X167569047Y-62401380D01*
X167664285Y-62401380D01*
X167807142Y-62449000D01*
X167854761Y-62496619D01*
X168283333Y-63401380D02*
X168283333Y-62401380D01*
X168711904Y-63401380D02*
X168711904Y-62877571D01*
X168664285Y-62782333D01*
X168569047Y-62734714D01*
X168426190Y-62734714D01*
X168330952Y-62782333D01*
X168283333Y-62829952D01*
X169616666Y-63401380D02*
X169616666Y-62877571D01*
X169569047Y-62782333D01*
X169473809Y-62734714D01*
X169283333Y-62734714D01*
X169188095Y-62782333D01*
X169616666Y-63353761D02*
X169521428Y-63401380D01*
X169283333Y-63401380D01*
X169188095Y-63353761D01*
X169140476Y-63258523D01*
X169140476Y-63163285D01*
X169188095Y-63068047D01*
X169283333Y-63020428D01*
X169521428Y-63020428D01*
X169616666Y-62972809D01*
X170092857Y-62734714D02*
X170092857Y-63401380D01*
X170092857Y-62829952D02*
X170140476Y-62782333D01*
X170235714Y-62734714D01*
X170378571Y-62734714D01*
X170473809Y-62782333D01*
X170521428Y-62877571D01*
X170521428Y-63401380D01*
X170997619Y-62734714D02*
X170997619Y-63401380D01*
X170997619Y-62829952D02*
X171045238Y-62782333D01*
X171140476Y-62734714D01*
X171283333Y-62734714D01*
X171378571Y-62782333D01*
X171426190Y-62877571D01*
X171426190Y-63401380D01*
X172283333Y-63353761D02*
X172188095Y-63401380D01*
X171997619Y-63401380D01*
X171902380Y-63353761D01*
X171854761Y-63258523D01*
X171854761Y-62877571D01*
X171902380Y-62782333D01*
X171997619Y-62734714D01*
X172188095Y-62734714D01*
X172283333Y-62782333D01*
X172330952Y-62877571D01*
X172330952Y-62972809D01*
X171854761Y-63068047D01*
X172902380Y-63401380D02*
X172807142Y-63353761D01*
X172759523Y-63258523D01*
X172759523Y-62401380D01*
X174045238Y-63401380D02*
X174045238Y-62734714D01*
X174045238Y-62401380D02*
X173997619Y-62449000D01*
X174045238Y-62496619D01*
X174092857Y-62449000D01*
X174045238Y-62401380D01*
X174045238Y-62496619D01*
X174521428Y-62734714D02*
X174521428Y-63401380D01*
X174521428Y-62829952D02*
X174569047Y-62782333D01*
X174664285Y-62734714D01*
X174807142Y-62734714D01*
X174902380Y-62782333D01*
X174950000Y-62877571D01*
X174950000Y-63401380D01*
X175426190Y-62734714D02*
X175426190Y-63734714D01*
X175426190Y-62782333D02*
X175521428Y-62734714D01*
X175711904Y-62734714D01*
X175807142Y-62782333D01*
X175854761Y-62829952D01*
X175902380Y-62925190D01*
X175902380Y-63210904D01*
X175854761Y-63306142D01*
X175807142Y-63353761D01*
X175711904Y-63401380D01*
X175521428Y-63401380D01*
X175426190Y-63353761D01*
X176759523Y-62734714D02*
X176759523Y-63401380D01*
X176330952Y-62734714D02*
X176330952Y-63258523D01*
X176378571Y-63353761D01*
X176473809Y-63401380D01*
X176616666Y-63401380D01*
X176711904Y-63353761D01*
X176759523Y-63306142D01*
X177092857Y-62734714D02*
X177473809Y-62734714D01*
X177235714Y-62401380D02*
X177235714Y-63258523D01*
X177283333Y-63353761D01*
X177378571Y-63401380D01*
X177473809Y-63401380D01*
X163854761Y-65011380D02*
X163283333Y-65011380D01*
X163569047Y-65011380D02*
X163569047Y-64011380D01*
X163473809Y-64154238D01*
X163378571Y-64249476D01*
X163283333Y-64297095D01*
X164997619Y-64963761D02*
X165140476Y-65011380D01*
X165378571Y-65011380D01*
X165473809Y-64963761D01*
X165521428Y-64916142D01*
X165569047Y-64820904D01*
X165569047Y-64725666D01*
X165521428Y-64630428D01*
X165473809Y-64582809D01*
X165378571Y-64535190D01*
X165188095Y-64487571D01*
X165092857Y-64439952D01*
X165045238Y-64392333D01*
X164997619Y-64297095D01*
X164997619Y-64201857D01*
X165045238Y-64106619D01*
X165092857Y-64059000D01*
X165188095Y-64011380D01*
X165426190Y-64011380D01*
X165569047Y-64059000D01*
X165997619Y-65011380D02*
X165997619Y-64344714D01*
X165997619Y-64011380D02*
X165950000Y-64059000D01*
X165997619Y-64106619D01*
X166045238Y-64059000D01*
X165997619Y-64011380D01*
X165997619Y-64106619D01*
X166902380Y-64344714D02*
X166902380Y-65154238D01*
X166854761Y-65249476D01*
X166807142Y-65297095D01*
X166711904Y-65344714D01*
X166569047Y-65344714D01*
X166473809Y-65297095D01*
X166902380Y-64963761D02*
X166807142Y-65011380D01*
X166616666Y-65011380D01*
X166521428Y-64963761D01*
X166473809Y-64916142D01*
X166426190Y-64820904D01*
X166426190Y-64535190D01*
X166473809Y-64439952D01*
X166521428Y-64392333D01*
X166616666Y-64344714D01*
X166807142Y-64344714D01*
X166902380Y-64392333D01*
X168092857Y-64106619D02*
X168140476Y-64059000D01*
X168235714Y-64011380D01*
X168473809Y-64011380D01*
X168569047Y-64059000D01*
X168616666Y-64106619D01*
X168664285Y-64201857D01*
X168664285Y-64297095D01*
X168616666Y-64439952D01*
X168045238Y-65011380D01*
X168664285Y-65011380D01*
X170378571Y-64059000D02*
X170283333Y-64011380D01*
X170140476Y-64011380D01*
X169997619Y-64059000D01*
X169902380Y-64154238D01*
X169854761Y-64249476D01*
X169807142Y-64439952D01*
X169807142Y-64582809D01*
X169854761Y-64773285D01*
X169902380Y-64868523D01*
X169997619Y-64963761D01*
X170140476Y-65011380D01*
X170235714Y-65011380D01*
X170378571Y-64963761D01*
X170426190Y-64916142D01*
X170426190Y-64582809D01*
X170235714Y-64582809D01*
X170854761Y-64344714D02*
X170854761Y-65011380D01*
X170854761Y-64439952D02*
X170902380Y-64392333D01*
X170997619Y-64344714D01*
X171140476Y-64344714D01*
X171235714Y-64392333D01*
X171283333Y-64487571D01*
X171283333Y-65011380D01*
X172188095Y-65011380D02*
X172188095Y-64011380D01*
X172188095Y-64963761D02*
X172092857Y-65011380D01*
X171902380Y-65011380D01*
X171807142Y-64963761D01*
X171759523Y-64916142D01*
X171711904Y-64820904D01*
X171711904Y-64535190D01*
X171759523Y-64439952D01*
X171807142Y-64392333D01*
X171902380Y-64344714D01*
X172092857Y-64344714D01*
X172188095Y-64392333D01*
X173330952Y-64011380D02*
X173950000Y-64011380D01*
X173616666Y-64392333D01*
X173759523Y-64392333D01*
X173854761Y-64439952D01*
X173902380Y-64487571D01*
X173950000Y-64582809D01*
X173950000Y-64820904D01*
X173902380Y-64916142D01*
X173854761Y-64963761D01*
X173759523Y-65011380D01*
X173473809Y-65011380D01*
X173378571Y-64963761D01*
X173330952Y-64916142D01*
X175140476Y-64630428D02*
X175902380Y-64630428D01*
X175521428Y-65011380D02*
X175521428Y-64249476D01*
X176235714Y-64011380D02*
X176569047Y-65011380D01*
X176902380Y-64011380D01*
X177235714Y-65011380D02*
X177235714Y-64344714D01*
X177235714Y-64439952D02*
X177283333Y-64392333D01*
X177378571Y-64344714D01*
X177521428Y-64344714D01*
X177616666Y-64392333D01*
X177664285Y-64487571D01*
X177664285Y-65011380D01*
X177664285Y-64487571D02*
X177711904Y-64392333D01*
X177807142Y-64344714D01*
X177950000Y-64344714D01*
X178045238Y-64392333D01*
X178092857Y-64487571D01*
X178092857Y-65011380D01*
X178711904Y-65011380D02*
X178616666Y-64963761D01*
X178569047Y-64916142D01*
X178521428Y-64820904D01*
X178521428Y-64535190D01*
X178569047Y-64439952D01*
X178616666Y-64392333D01*
X178711904Y-64344714D01*
X178854761Y-64344714D01*
X178950000Y-64392333D01*
X178997619Y-64439952D01*
X179045238Y-64535190D01*
X179045238Y-64820904D01*
X178997619Y-64916142D01*
X178950000Y-64963761D01*
X178854761Y-65011380D01*
X178711904Y-65011380D01*
X179330952Y-64344714D02*
X179711904Y-64344714D01*
X179473809Y-64011380D02*
X179473809Y-64868523D01*
X179521428Y-64963761D01*
X179616666Y-65011380D01*
X179711904Y-65011380D01*
D11*
X147669142Y-89947714D02*
X145002476Y-89947714D01*
X149192952Y-89590571D02*
X146335809Y-89233428D01*
X146335809Y-90162000D01*
X147915142Y-74755428D02*
X148058000Y-74826857D01*
X148200857Y-74969714D01*
X148200857Y-75326857D01*
X148058000Y-75469714D01*
X147915142Y-75541142D01*
X147629428Y-75612571D01*
X147343714Y-75612571D01*
X146915142Y-75541142D01*
X145200857Y-74684000D01*
X145200857Y-75612571D01*
D10*
X150002380Y-81603333D02*
X150716666Y-81603333D01*
X150859523Y-81650952D01*
X150954761Y-81746190D01*
X151002380Y-81889047D01*
X151002380Y-81984285D01*
X150097619Y-81174761D02*
X150050000Y-81127142D01*
X150002380Y-81031904D01*
X150002380Y-80793809D01*
X150050000Y-80698571D01*
X150097619Y-80650952D01*
X150192857Y-80603333D01*
X150288095Y-80603333D01*
X150430952Y-80650952D01*
X151002380Y-81222380D01*
X151002380Y-80603333D01*
X151683880Y-81223500D02*
X151921976Y-81223500D01*
X151826738Y-81461595D02*
X151921976Y-81223500D01*
X151826738Y-80985404D01*
X152112452Y-81366357D02*
X151921976Y-81223500D01*
X152112452Y-81080642D01*
X150172380Y-67963333D02*
X150886666Y-67963333D01*
X151029523Y-68010952D01*
X151124761Y-68106190D01*
X151172380Y-68249047D01*
X151172380Y-68344285D01*
X151172380Y-66963333D02*
X151172380Y-67534761D01*
X151172380Y-67249047D02*
X150172380Y-67249047D01*
X150315238Y-67344285D01*
X150410476Y-67439523D01*
X150458095Y-67534761D01*
X151633880Y-67786500D02*
X151871976Y-67786500D01*
X151776738Y-68024595D02*
X151871976Y-67786500D01*
X151776738Y-67548404D01*
X152062452Y-67929357D02*
X151871976Y-67786500D01*
X152062452Y-67643642D01*
X179122380Y-77962857D02*
X178646190Y-78296190D01*
X179122380Y-78534285D02*
X178122380Y-78534285D01*
X178122380Y-78153333D01*
X178170000Y-78058095D01*
X178217619Y-78010476D01*
X178312857Y-77962857D01*
X178455714Y-77962857D01*
X178550952Y-78010476D01*
X178598571Y-78058095D01*
X178646190Y-78153333D01*
X178646190Y-78534285D01*
X179122380Y-77010476D02*
X179122380Y-77581904D01*
X179122380Y-77296190D02*
X178122380Y-77296190D01*
X178265238Y-77391428D01*
X178360476Y-77486666D01*
X178408095Y-77581904D01*
X178217619Y-76629523D02*
X178170000Y-76581904D01*
X178122380Y-76486666D01*
X178122380Y-76248571D01*
X178170000Y-76153333D01*
X178217619Y-76105714D01*
X178312857Y-76058095D01*
X178408095Y-76058095D01*
X178550952Y-76105714D01*
X179122380Y-76677142D01*
X179122380Y-76058095D01*
X166370095Y-79104380D02*
X166370095Y-79913904D01*
X166417714Y-80009142D01*
X166465333Y-80056761D01*
X166560571Y-80104380D01*
X166751047Y-80104380D01*
X166846285Y-80056761D01*
X166893904Y-80009142D01*
X166941523Y-79913904D01*
X166941523Y-79104380D01*
X167941523Y-80104380D02*
X167370095Y-80104380D01*
X167655809Y-80104380D02*
X167655809Y-79104380D01*
X167560571Y-79247238D01*
X167465333Y-79342476D01*
X167370095Y-79390095D01*
X181292380Y-67016666D02*
X180816190Y-67350000D01*
X181292380Y-67588095D02*
X180292380Y-67588095D01*
X180292380Y-67207142D01*
X180340000Y-67111904D01*
X180387619Y-67064285D01*
X180482857Y-67016666D01*
X180625714Y-67016666D01*
X180720952Y-67064285D01*
X180768571Y-67111904D01*
X180816190Y-67207142D01*
X180816190Y-67588095D01*
X181292380Y-66540476D02*
X181292380Y-66350000D01*
X181244761Y-66254761D01*
X181197142Y-66207142D01*
X181054285Y-66111904D01*
X180863809Y-66064285D01*
X180482857Y-66064285D01*
X180387619Y-66111904D01*
X180340000Y-66159523D01*
X180292380Y-66254761D01*
X180292380Y-66445238D01*
X180340000Y-66540476D01*
X180387619Y-66588095D01*
X180482857Y-66635714D01*
X180720952Y-66635714D01*
X180816190Y-66588095D01*
X180863809Y-66540476D01*
X180911428Y-66445238D01*
X180911428Y-66254761D01*
X180863809Y-66159523D01*
X180816190Y-66111904D01*
X180720952Y-66064285D01*
X162262380Y-75216666D02*
X161786190Y-75550000D01*
X162262380Y-75788095D02*
X161262380Y-75788095D01*
X161262380Y-75407142D01*
X161310000Y-75311904D01*
X161357619Y-75264285D01*
X161452857Y-75216666D01*
X161595714Y-75216666D01*
X161690952Y-75264285D01*
X161738571Y-75311904D01*
X161786190Y-75407142D01*
X161786190Y-75788095D01*
X161262380Y-74883333D02*
X161262380Y-74264285D01*
X161643333Y-74597619D01*
X161643333Y-74454761D01*
X161690952Y-74359523D01*
X161738571Y-74311904D01*
X161833809Y-74264285D01*
X162071904Y-74264285D01*
X162167142Y-74311904D01*
X162214761Y-74359523D01*
X162262380Y-74454761D01*
X162262380Y-74740476D01*
X162214761Y-74835714D01*
X162167142Y-74883333D01*
X162462380Y-80876666D02*
X161986190Y-81210000D01*
X162462380Y-81448095D02*
X161462380Y-81448095D01*
X161462380Y-81067142D01*
X161510000Y-80971904D01*
X161557619Y-80924285D01*
X161652857Y-80876666D01*
X161795714Y-80876666D01*
X161890952Y-80924285D01*
X161938571Y-80971904D01*
X161986190Y-81067142D01*
X161986190Y-81448095D01*
X161795714Y-80019523D02*
X162462380Y-80019523D01*
X161414761Y-80257619D02*
X162129047Y-80495714D01*
X162129047Y-79876666D01*
X178262380Y-71122857D02*
X177786190Y-71456190D01*
X178262380Y-71694285D02*
X177262380Y-71694285D01*
X177262380Y-71313333D01*
X177310000Y-71218095D01*
X177357619Y-71170476D01*
X177452857Y-71122857D01*
X177595714Y-71122857D01*
X177690952Y-71170476D01*
X177738571Y-71218095D01*
X177786190Y-71313333D01*
X177786190Y-71694285D01*
X178262380Y-70170476D02*
X178262380Y-70741904D01*
X178262380Y-70456190D02*
X177262380Y-70456190D01*
X177405238Y-70551428D01*
X177500476Y-70646666D01*
X177548095Y-70741904D01*
X177262380Y-69551428D02*
X177262380Y-69456190D01*
X177310000Y-69360952D01*
X177357619Y-69313333D01*
X177452857Y-69265714D01*
X177643333Y-69218095D01*
X177881428Y-69218095D01*
X178071904Y-69265714D01*
X178167142Y-69313333D01*
X178214761Y-69360952D01*
X178262380Y-69456190D01*
X178262380Y-69551428D01*
X178214761Y-69646666D01*
X178167142Y-69694285D01*
X178071904Y-69741904D01*
X177881428Y-69789523D01*
X177643333Y-69789523D01*
X177452857Y-69741904D01*
X177357619Y-69694285D01*
X177310000Y-69646666D01*
X177262380Y-69551428D01*
X177800095Y-80732380D02*
X177800095Y-81541904D01*
X177847714Y-81637142D01*
X177895333Y-81684761D01*
X177990571Y-81732380D01*
X178181047Y-81732380D01*
X178276285Y-81684761D01*
X178323904Y-81637142D01*
X178371523Y-81541904D01*
X178371523Y-80732380D01*
X178800095Y-80827619D02*
X178847714Y-80780000D01*
X178942952Y-80732380D01*
X179181047Y-80732380D01*
X179276285Y-80780000D01*
X179323904Y-80827619D01*
X179371523Y-80922857D01*
X179371523Y-81018095D01*
X179323904Y-81160952D01*
X178752476Y-81732380D01*
X179371523Y-81732380D01*
X177269380Y-72911166D02*
X176793190Y-73244500D01*
X177269380Y-73482595D02*
X176269380Y-73482595D01*
X176269380Y-73101642D01*
X176317000Y-73006404D01*
X176364619Y-72958785D01*
X176459857Y-72911166D01*
X176602714Y-72911166D01*
X176697952Y-72958785D01*
X176745571Y-73006404D01*
X176793190Y-73101642D01*
X176793190Y-73482595D01*
X176269380Y-72006404D02*
X176269380Y-72482595D01*
X176745571Y-72530214D01*
X176697952Y-72482595D01*
X176650333Y-72387357D01*
X176650333Y-72149261D01*
X176697952Y-72054023D01*
X176745571Y-72006404D01*
X176840809Y-71958785D01*
X177078904Y-71958785D01*
X177174142Y-72006404D01*
X177221761Y-72054023D01*
X177269380Y-72149261D01*
X177269380Y-72387357D01*
X177221761Y-72482595D01*
X177174142Y-72530214D01*
X178692380Y-74352857D02*
X178216190Y-74686190D01*
X178692380Y-74924285D02*
X177692380Y-74924285D01*
X177692380Y-74543333D01*
X177740000Y-74448095D01*
X177787619Y-74400476D01*
X177882857Y-74352857D01*
X178025714Y-74352857D01*
X178120952Y-74400476D01*
X178168571Y-74448095D01*
X178216190Y-74543333D01*
X178216190Y-74924285D01*
X178692380Y-73400476D02*
X178692380Y-73971904D01*
X178692380Y-73686190D02*
X177692380Y-73686190D01*
X177835238Y-73781428D01*
X177930476Y-73876666D01*
X177978095Y-73971904D01*
X178692380Y-72448095D02*
X178692380Y-73019523D01*
X178692380Y-72733809D02*
X177692380Y-72733809D01*
X177835238Y-72829047D01*
X177930476Y-72924285D01*
X177978095Y-73019523D01*
X185086666Y-60622380D02*
X185086666Y-61336666D01*
X185039047Y-61479523D01*
X184943809Y-61574761D01*
X184800952Y-61622380D01*
X184705714Y-61622380D01*
X186039047Y-60622380D02*
X185562857Y-60622380D01*
X185515238Y-61098571D01*
X185562857Y-61050952D01*
X185658095Y-61003333D01*
X185896190Y-61003333D01*
X185991428Y-61050952D01*
X186039047Y-61098571D01*
X186086666Y-61193809D01*
X186086666Y-61431904D01*
X186039047Y-61527142D01*
X185991428Y-61574761D01*
X185896190Y-61622380D01*
X185658095Y-61622380D01*
X185562857Y-61574761D01*
X185515238Y-61527142D01*
X168030142Y-76975166D02*
X168077761Y-77022785D01*
X168125380Y-77165642D01*
X168125380Y-77260880D01*
X168077761Y-77403738D01*
X167982523Y-77498976D01*
X167887285Y-77546595D01*
X167696809Y-77594214D01*
X167553952Y-77594214D01*
X167363476Y-77546595D01*
X167268238Y-77498976D01*
X167173000Y-77403738D01*
X167125380Y-77260880D01*
X167125380Y-77165642D01*
X167173000Y-77022785D01*
X167220619Y-76975166D01*
X167125380Y-76070404D02*
X167125380Y-76546595D01*
X167601571Y-76594214D01*
X167553952Y-76546595D01*
X167506333Y-76451357D01*
X167506333Y-76213261D01*
X167553952Y-76118023D01*
X167601571Y-76070404D01*
X167696809Y-76022785D01*
X167934904Y-76022785D01*
X168030142Y-76070404D01*
X168077761Y-76118023D01*
X168125380Y-76213261D01*
X168125380Y-76451357D01*
X168077761Y-76546595D01*
X168030142Y-76594214D01*
X162647333Y-71732380D02*
X162314000Y-71256190D01*
X162075904Y-71732380D02*
X162075904Y-70732380D01*
X162456857Y-70732380D01*
X162552095Y-70780000D01*
X162599714Y-70827619D01*
X162647333Y-70922857D01*
X162647333Y-71065714D01*
X162599714Y-71160952D01*
X162552095Y-71208571D01*
X162456857Y-71256190D01*
X162075904Y-71256190D01*
X163599714Y-71732380D02*
X163028285Y-71732380D01*
X163314000Y-71732380D02*
X163314000Y-70732380D01*
X163218761Y-70875238D01*
X163123523Y-70970476D01*
X163028285Y-71018095D01*
X174126142Y-76975166D02*
X174173761Y-77022785D01*
X174221380Y-77165642D01*
X174221380Y-77260880D01*
X174173761Y-77403738D01*
X174078523Y-77498976D01*
X173983285Y-77546595D01*
X173792809Y-77594214D01*
X173649952Y-77594214D01*
X173459476Y-77546595D01*
X173364238Y-77498976D01*
X173269000Y-77403738D01*
X173221380Y-77260880D01*
X173221380Y-77165642D01*
X173269000Y-77022785D01*
X173316619Y-76975166D01*
X173221380Y-76641833D02*
X173221380Y-76022785D01*
X173602333Y-76356119D01*
X173602333Y-76213261D01*
X173649952Y-76118023D01*
X173697571Y-76070404D01*
X173792809Y-76022785D01*
X174030904Y-76022785D01*
X174126142Y-76070404D01*
X174173761Y-76118023D01*
X174221380Y-76213261D01*
X174221380Y-76498976D01*
X174173761Y-76594214D01*
X174126142Y-76641833D01*
X177174142Y-76975166D02*
X177221761Y-77022785D01*
X177269380Y-77165642D01*
X177269380Y-77260880D01*
X177221761Y-77403738D01*
X177126523Y-77498976D01*
X177031285Y-77546595D01*
X176840809Y-77594214D01*
X176697952Y-77594214D01*
X176507476Y-77546595D01*
X176412238Y-77498976D01*
X176317000Y-77403738D01*
X176269380Y-77260880D01*
X176269380Y-77165642D01*
X176317000Y-77022785D01*
X176364619Y-76975166D01*
X176364619Y-76594214D02*
X176317000Y-76546595D01*
X176269380Y-76451357D01*
X176269380Y-76213261D01*
X176317000Y-76118023D01*
X176364619Y-76070404D01*
X176459857Y-76022785D01*
X176555095Y-76022785D01*
X176697952Y-76070404D01*
X177269380Y-76641833D01*
X177269380Y-76022785D01*
X181951333Y-79605142D02*
X181903714Y-79652761D01*
X181760857Y-79700380D01*
X181665619Y-79700380D01*
X181522761Y-79652761D01*
X181427523Y-79557523D01*
X181379904Y-79462285D01*
X181332285Y-79271809D01*
X181332285Y-79128952D01*
X181379904Y-78938476D01*
X181427523Y-78843238D01*
X181522761Y-78748000D01*
X181665619Y-78700380D01*
X181760857Y-78700380D01*
X181903714Y-78748000D01*
X181951333Y-78795619D01*
X182903714Y-79700380D02*
X182332285Y-79700380D01*
X182618000Y-79700380D02*
X182618000Y-78700380D01*
X182522761Y-78843238D01*
X182427523Y-78938476D01*
X182332285Y-78986095D01*
X174221380Y-72911166D02*
X173745190Y-73244500D01*
X174221380Y-73482595D02*
X173221380Y-73482595D01*
X173221380Y-73101642D01*
X173269000Y-73006404D01*
X173316619Y-72958785D01*
X173411857Y-72911166D01*
X173554714Y-72911166D01*
X173649952Y-72958785D01*
X173697571Y-73006404D01*
X173745190Y-73101642D01*
X173745190Y-73482595D01*
X173221380Y-72054023D02*
X173221380Y-72244500D01*
X173269000Y-72339738D01*
X173316619Y-72387357D01*
X173459476Y-72482595D01*
X173649952Y-72530214D01*
X174030904Y-72530214D01*
X174126142Y-72482595D01*
X174173761Y-72434976D01*
X174221380Y-72339738D01*
X174221380Y-72149261D01*
X174173761Y-72054023D01*
X174126142Y-72006404D01*
X174030904Y-71958785D01*
X173792809Y-71958785D01*
X173697571Y-72006404D01*
X173649952Y-72054023D01*
X173602333Y-72149261D01*
X173602333Y-72339738D01*
X173649952Y-72434976D01*
X173697571Y-72482595D01*
X173792809Y-72530214D01*
X168125380Y-72911166D02*
X167649190Y-73244500D01*
X168125380Y-73482595D02*
X167125380Y-73482595D01*
X167125380Y-73101642D01*
X167173000Y-73006404D01*
X167220619Y-72958785D01*
X167315857Y-72911166D01*
X167458714Y-72911166D01*
X167553952Y-72958785D01*
X167601571Y-73006404D01*
X167649190Y-73101642D01*
X167649190Y-73482595D01*
X167553952Y-72339738D02*
X167506333Y-72434976D01*
X167458714Y-72482595D01*
X167363476Y-72530214D01*
X167315857Y-72530214D01*
X167220619Y-72482595D01*
X167173000Y-72434976D01*
X167125380Y-72339738D01*
X167125380Y-72149261D01*
X167173000Y-72054023D01*
X167220619Y-72006404D01*
X167315857Y-71958785D01*
X167363476Y-71958785D01*
X167458714Y-72006404D01*
X167506333Y-72054023D01*
X167553952Y-72149261D01*
X167553952Y-72339738D01*
X167601571Y-72434976D01*
X167649190Y-72482595D01*
X167744428Y-72530214D01*
X167934904Y-72530214D01*
X168030142Y-72482595D01*
X168077761Y-72434976D01*
X168125380Y-72339738D01*
X168125380Y-72149261D01*
X168077761Y-72054023D01*
X168030142Y-72006404D01*
X167934904Y-71958785D01*
X167744428Y-71958785D01*
X167649190Y-72006404D01*
X167601571Y-72054023D01*
X167553952Y-72149261D01*
X171078142Y-76975166D02*
X171125761Y-77022785D01*
X171173380Y-77165642D01*
X171173380Y-77260880D01*
X171125761Y-77403738D01*
X171030523Y-77498976D01*
X170935285Y-77546595D01*
X170744809Y-77594214D01*
X170601952Y-77594214D01*
X170411476Y-77546595D01*
X170316238Y-77498976D01*
X170221000Y-77403738D01*
X170173380Y-77260880D01*
X170173380Y-77165642D01*
X170221000Y-77022785D01*
X170268619Y-76975166D01*
X170506714Y-76118023D02*
X171173380Y-76118023D01*
X170125761Y-76356119D02*
X170840047Y-76594214D01*
X170840047Y-75975166D01*
X164012380Y-74226666D02*
X163536190Y-74560000D01*
X164012380Y-74798095D02*
X163012380Y-74798095D01*
X163012380Y-74417142D01*
X163060000Y-74321904D01*
X163107619Y-74274285D01*
X163202857Y-74226666D01*
X163345714Y-74226666D01*
X163440952Y-74274285D01*
X163488571Y-74321904D01*
X163536190Y-74417142D01*
X163536190Y-74798095D01*
X163107619Y-73845714D02*
X163060000Y-73798095D01*
X163012380Y-73702857D01*
X163012380Y-73464761D01*
X163060000Y-73369523D01*
X163107619Y-73321904D01*
X163202857Y-73274285D01*
X163298095Y-73274285D01*
X163440952Y-73321904D01*
X164012380Y-73893333D01*
X164012380Y-73274285D01*
X171173380Y-72911166D02*
X170697190Y-73244500D01*
X171173380Y-73482595D02*
X170173380Y-73482595D01*
X170173380Y-73101642D01*
X170221000Y-73006404D01*
X170268619Y-72958785D01*
X170363857Y-72911166D01*
X170506714Y-72911166D01*
X170601952Y-72958785D01*
X170649571Y-73006404D01*
X170697190Y-73101642D01*
X170697190Y-73482595D01*
X170173380Y-72577833D02*
X170173380Y-71911166D01*
X171173380Y-72339738D01*
D12*
X151231500Y-75373500D02*
X151231500Y-76398500D01*
X143356500Y-76401499D02*
X143356500Y-87698500D01*
X151231500Y-76398500D02*
X143356500Y-76401499D01*
X160958500Y-75371500D02*
X151231500Y-75373500D01*
X151556500Y-87700500D02*
X151558500Y-86023500D01*
X151558500Y-86023500D02*
X160956500Y-86039500D01*
X160956500Y-86039500D02*
X160958500Y-75371500D01*
X143356500Y-87698500D02*
X151556500Y-87700500D01*
X151556500Y-74238500D02*
X151558500Y-72561500D01*
X151231500Y-61911500D02*
X151231500Y-62936500D01*
X160958500Y-61909500D02*
X151231500Y-61911500D01*
X151231500Y-62936500D02*
X143356500Y-62939499D01*
X143356500Y-62939499D02*
X143356500Y-74236500D01*
X151558500Y-72561500D02*
X160956500Y-72577500D01*
X143356500Y-74236500D02*
X151556500Y-74238500D01*
X160956500Y-72577500D02*
X160958500Y-61909500D01*
X181356724Y-77230500D02*
X180847276Y-77230500D01*
X181356724Y-76185500D02*
X180847276Y-76185500D01*
X164732000Y-80452000D02*
X169532000Y-80452000D01*
X164732000Y-91252000D02*
X169532000Y-91252000D01*
X164732000Y-80452000D02*
X164732000Y-80852000D01*
X164732000Y-80852000D02*
X163332000Y-80852000D01*
X181102724Y-68057500D02*
X180593276Y-68057500D01*
X181102724Y-69102500D02*
X180593276Y-69102500D01*
X163068724Y-76185500D02*
X162559276Y-76185500D01*
X163068724Y-77230500D02*
X162559276Y-77230500D01*
X163068724Y-78471500D02*
X162559276Y-78471500D01*
X163068724Y-79516500D02*
X162559276Y-79516500D01*
X181102724Y-70851500D02*
X180593276Y-70851500D01*
X181102724Y-71896500D02*
X180593276Y-71896500D01*
X179324000Y-81972000D02*
X181524000Y-81972000D01*
X179324000Y-87192000D02*
X181524000Y-87192000D01*
X179324000Y-81972000D02*
X175724000Y-81972000D01*
X179324000Y-87192000D02*
X177124000Y-87192000D01*
X175909500Y-72489776D02*
X175909500Y-72999224D01*
X174864500Y-72489776D02*
X174864500Y-72999224D01*
X181102724Y-74436500D02*
X180593276Y-74436500D01*
X181102724Y-73391500D02*
X180593276Y-73391500D01*
X184090000Y-64770000D02*
X186750000Y-64770000D01*
X184090000Y-64770000D02*
X184090000Y-92770000D01*
X184090000Y-62170000D02*
X185420000Y-62170000D01*
X184090000Y-63500000D02*
X184090000Y-62170000D01*
X186750000Y-64770000D02*
X186750000Y-92770000D01*
X184090000Y-92770000D02*
X186750000Y-92770000D01*
X166753000Y-76662233D02*
X166753000Y-76954767D01*
X165733000Y-76662233D02*
X165733000Y-76954767D01*
X163068724Y-70372500D02*
X162559276Y-70372500D01*
X163068724Y-69327500D02*
X162559276Y-69327500D01*
X172849000Y-76662233D02*
X172849000Y-76954767D01*
X171829000Y-76662233D02*
X171829000Y-76954767D01*
X174877000Y-76662233D02*
X174877000Y-76954767D01*
X175897000Y-76662233D02*
X175897000Y-76954767D01*
X180955733Y-80008000D02*
X181248267Y-80008000D01*
X180955733Y-81028000D02*
X181248267Y-81028000D01*
X171816500Y-72489776D02*
X171816500Y-72999224D01*
X172861500Y-72489776D02*
X172861500Y-72999224D01*
X166765500Y-72489776D02*
X166765500Y-72999224D01*
X165720500Y-72489776D02*
X165720500Y-72999224D01*
X169801000Y-76662233D02*
X169801000Y-76954767D01*
X168781000Y-76662233D02*
X168781000Y-76954767D01*
X163068724Y-71867500D02*
X162559276Y-71867500D01*
X163068724Y-72912500D02*
X162559276Y-72912500D01*
X169813500Y-72489776D02*
X169813500Y-72999224D01*
X168768500Y-72489776D02*
X168768500Y-72999224D01*
%LPC*%
D13*
X146581500Y-85673500D03*
D14*
X146581500Y-82173500D03*
X146581500Y-78673500D03*
X158081500Y-84173500D03*
X158081500Y-80673500D03*
D15*
X158081500Y-77173500D03*
D13*
X146581500Y-72211500D03*
D14*
X146581500Y-68711500D03*
X146581500Y-65211500D03*
X158081500Y-70711500D03*
X158081500Y-67211500D03*
D15*
X158081500Y-63711500D03*
D16*
X182014500Y-76708000D03*
X180189500Y-76708000D03*
D17*
X163982000Y-81402000D03*
X163982000Y-82682000D03*
X163982000Y-83942000D03*
X163982000Y-85212000D03*
X163982000Y-86492000D03*
X163982000Y-87762000D03*
X163982000Y-89022000D03*
X163982000Y-90302000D03*
X170282000Y-90302000D03*
X170282000Y-89022000D03*
X170282000Y-87762000D03*
X170282000Y-86492000D03*
X170282000Y-85212000D03*
X170282000Y-83942000D03*
X170282000Y-82682000D03*
X170282000Y-81402000D03*
D16*
X181760500Y-68580000D03*
X179935500Y-68580000D03*
X163726500Y-76708000D03*
X161901500Y-76708000D03*
X163726500Y-78994000D03*
X161901500Y-78994000D03*
X181760500Y-71374000D03*
X179935500Y-71374000D03*
D18*
X176461500Y-82632000D03*
X176461500Y-83282000D03*
X176461500Y-83932000D03*
X176461500Y-84582000D03*
X176461500Y-85232000D03*
X176461500Y-85882000D03*
X176461500Y-86532000D03*
X182186500Y-86532000D03*
X182186500Y-85882000D03*
X182186500Y-85232000D03*
X182186500Y-84582000D03*
X182186500Y-83932000D03*
X182186500Y-83282000D03*
X182186500Y-82632000D03*
D19*
X175387000Y-71832000D03*
X175387000Y-73657000D03*
D16*
X181760500Y-73914000D03*
X179935500Y-73914000D03*
D20*
X185420000Y-63500000D03*
D21*
X185420000Y-66040000D03*
X185420000Y-68580000D03*
X185420000Y-71120000D03*
X185420000Y-73660000D03*
X185420000Y-76200000D03*
X185420000Y-78740000D03*
X185420000Y-81280000D03*
X185420000Y-83820000D03*
X185420000Y-86360000D03*
X185420000Y-88900000D03*
X185420000Y-91440000D03*
D22*
X166243000Y-75946000D03*
X166243000Y-77671000D03*
D16*
X163726500Y-69850000D03*
X161901500Y-69850000D03*
D22*
X172339000Y-75946000D03*
X172339000Y-77671000D03*
X175387000Y-75946000D03*
X175387000Y-77671000D03*
D23*
X180239500Y-80518000D03*
X181964500Y-80518000D03*
D19*
X172339000Y-71832000D03*
X172339000Y-73657000D03*
X166243000Y-71832000D03*
X166243000Y-73657000D03*
D22*
X169291000Y-75946000D03*
X169291000Y-77671000D03*
D16*
X163726500Y-72390000D03*
X161901500Y-72390000D03*
D19*
X169291000Y-71832000D03*
X169291000Y-73657000D03*
M02*
