G04 #@! TF.GenerationSoftware,KiCad,Pcbnew,(6.0.0)*
G04 #@! TF.CreationDate,2022-04-17T00:14:55-07:00*
G04 #@! TF.ProjectId,4 Channel Screw term,34204368-616e-46e6-956c-205363726577,rev?*
G04 #@! TF.SameCoordinates,Original*
G04 #@! TF.FileFunction,Copper,L2,Bot*
G04 #@! TF.FilePolarity,Positive*
%FSLAX46Y46*%
G04 Gerber Fmt 4.6, Leading zero omitted, Abs format (unit mm)*
G04 Created by KiCad (PCBNEW (6.0.0)) date 2022-04-17 00:14:55*
%MOMM*%
%LPD*%
G01*
G04 APERTURE LIST*
G04 #@! TA.AperFunction,ComponentPad*
%ADD10C,2.032098*%
G04 #@! TD*
G04 #@! TA.AperFunction,ComponentPad*
%ADD11C,2.032000*%
G04 #@! TD*
G04 #@! TA.AperFunction,ComponentPad*
%ADD12R,1.900000X1.900000*%
G04 #@! TD*
G04 #@! TA.AperFunction,ComponentPad*
%ADD13R,1.700000X1.700000*%
G04 #@! TD*
G04 #@! TA.AperFunction,ComponentPad*
%ADD14O,1.700000X1.700000*%
G04 #@! TD*
G04 #@! TA.AperFunction,ViaPad*
%ADD15C,1.200000*%
G04 #@! TD*
G04 #@! TA.AperFunction,ViaPad*
%ADD16C,1.000000*%
G04 #@! TD*
G04 #@! TA.AperFunction,Conductor*
%ADD17C,0.300000*%
G04 #@! TD*
G04 #@! TA.AperFunction,Conductor*
%ADD18C,1.000000*%
G04 #@! TD*
G04 APERTURE END LIST*
D10*
X147140000Y-85650000D03*
D11*
X147140000Y-82150000D03*
X147140000Y-78650000D03*
X158640000Y-84150000D03*
X158640000Y-80650000D03*
D12*
X158640000Y-77150000D03*
D13*
X185420000Y-63500000D03*
D14*
X185420000Y-66040000D03*
X185420000Y-68580000D03*
X185420000Y-71120000D03*
X185420000Y-73660000D03*
X185420000Y-76200000D03*
X185420000Y-78740000D03*
X185420000Y-81280000D03*
X185420000Y-83820000D03*
X185420000Y-86360000D03*
X185420000Y-88900000D03*
X185420000Y-91440000D03*
D10*
X147140000Y-72190000D03*
D11*
X147140000Y-68690000D03*
X147140000Y-65190000D03*
X158640000Y-70690000D03*
X158640000Y-67190000D03*
D12*
X158640000Y-63690000D03*
D15*
X173170000Y-65850000D03*
X173190000Y-70960000D03*
X173170000Y-76040000D03*
X166210000Y-91160000D03*
X174940000Y-85970000D03*
X173040000Y-81130000D03*
D16*
X166400000Y-84800000D03*
X169653290Y-86979759D03*
X169760000Y-89860000D03*
X175890000Y-89650000D03*
X175890000Y-87350000D03*
X175890000Y-84810000D03*
D17*
X169760000Y-89860000D02*
X175680000Y-89860000D01*
X175680000Y-89860000D02*
X175890000Y-89650000D01*
X169653290Y-86979759D02*
X175519759Y-86979759D01*
X175519759Y-86979759D02*
X175890000Y-87350000D01*
X175880000Y-84800000D02*
X175890000Y-84810000D01*
X166400000Y-84800000D02*
X175880000Y-84800000D01*
D18*
X160970000Y-73020000D02*
X160349511Y-72399511D01*
X160970000Y-81820000D02*
X160970000Y-73020000D01*
X158640000Y-84150000D02*
X160970000Y-81820000D01*
X161370000Y-73420000D02*
X160349511Y-72399511D01*
X176870000Y-73420000D02*
X161370000Y-73420000D01*
X184250000Y-66040000D02*
X176870000Y-73420000D01*
X185420000Y-66040000D02*
X184250000Y-66040000D01*
X160349511Y-72399511D02*
X158640000Y-70690000D01*
G04 #@! TA.AperFunction,Conductor*
G36*
X157252944Y-62250002D02*
G01*
X157299437Y-62303658D01*
X157309541Y-62373932D01*
X157285649Y-62431565D01*
X157239385Y-62493295D01*
X157188255Y-62629684D01*
X157181500Y-62691866D01*
X157181500Y-64688134D01*
X157188255Y-64750316D01*
X157239385Y-64886705D01*
X157326739Y-65003261D01*
X157443295Y-65090615D01*
X157579684Y-65141745D01*
X157641866Y-65148500D01*
X159638134Y-65148500D01*
X159700316Y-65141745D01*
X159836705Y-65090615D01*
X159953261Y-65003261D01*
X160040615Y-64886705D01*
X160091745Y-64750316D01*
X160098500Y-64688134D01*
X160098500Y-62691866D01*
X160091745Y-62629684D01*
X160040615Y-62493295D01*
X159994351Y-62431565D01*
X159969503Y-62365059D01*
X159984556Y-62295676D01*
X160034730Y-62245446D01*
X160095177Y-62230000D01*
X184003657Y-62230000D01*
X184071778Y-62250002D01*
X184118271Y-62303658D01*
X184128375Y-62373932D01*
X184118650Y-62403096D01*
X184119828Y-62403538D01*
X184071522Y-62532394D01*
X184067895Y-62547649D01*
X184062369Y-62598514D01*
X184062000Y-62605328D01*
X184062000Y-63227885D01*
X184066475Y-63243124D01*
X184067865Y-63244329D01*
X184075548Y-63246000D01*
X185548000Y-63246000D01*
X185616121Y-63266002D01*
X185662614Y-63319658D01*
X185674000Y-63372000D01*
X185674000Y-63628000D01*
X185653998Y-63696121D01*
X185600342Y-63742614D01*
X185548000Y-63754000D01*
X184080116Y-63754000D01*
X184064877Y-63758475D01*
X184063672Y-63759865D01*
X184062001Y-63767548D01*
X184062001Y-64394669D01*
X184062371Y-64401490D01*
X184067895Y-64452352D01*
X184071521Y-64467604D01*
X184116676Y-64588054D01*
X184125214Y-64603649D01*
X184201715Y-64705724D01*
X184214276Y-64718285D01*
X184323538Y-64800172D01*
X184321311Y-64803144D01*
X184359045Y-64840888D01*
X184374127Y-64910264D01*
X184349307Y-64976781D01*
X184292465Y-65019320D01*
X184259430Y-65026779D01*
X184210610Y-65031050D01*
X184205784Y-65031379D01*
X184203313Y-65031500D01*
X184200231Y-65031500D01*
X184177763Y-65033703D01*
X184157489Y-65035691D01*
X184156174Y-65035813D01*
X184123913Y-65038636D01*
X184063587Y-65043913D01*
X184058468Y-65045400D01*
X184053167Y-65045920D01*
X183964166Y-65072791D01*
X183963033Y-65073126D01*
X183879586Y-65097370D01*
X183879582Y-65097372D01*
X183873664Y-65099091D01*
X183868932Y-65101544D01*
X183863831Y-65103084D01*
X183858388Y-65105978D01*
X183781740Y-65146731D01*
X183780574Y-65147343D01*
X183724949Y-65176177D01*
X183698074Y-65190108D01*
X183693911Y-65193431D01*
X183689204Y-65195934D01*
X183617082Y-65254755D01*
X183616226Y-65255446D01*
X183577027Y-65286738D01*
X183574523Y-65289242D01*
X183573805Y-65289884D01*
X183569472Y-65293585D01*
X183535938Y-65320935D01*
X183532011Y-65325682D01*
X183532009Y-65325684D01*
X183506713Y-65356262D01*
X183498723Y-65365042D01*
X176489171Y-72374595D01*
X176426859Y-72408621D01*
X176400076Y-72411500D01*
X161839924Y-72411500D01*
X161771803Y-72391498D01*
X161750829Y-72374595D01*
X161724069Y-72347835D01*
X161715521Y-72338376D01*
X161709107Y-72330512D01*
X161689065Y-72305938D01*
X161653736Y-72276712D01*
X161644955Y-72268721D01*
X160202775Y-70826541D01*
X160168749Y-70764229D01*
X160166258Y-70727561D01*
X160168826Y-70694930D01*
X160169214Y-70690000D01*
X160150387Y-70450778D01*
X160149233Y-70445971D01*
X160149232Y-70445965D01*
X160095524Y-70222259D01*
X160094369Y-70217447D01*
X160063117Y-70141998D01*
X160004434Y-70000323D01*
X160004433Y-70000321D01*
X160002540Y-69995751D01*
X159877160Y-69791151D01*
X159721318Y-69608682D01*
X159661087Y-69557240D01*
X159542617Y-69456058D01*
X159542616Y-69456057D01*
X159538849Y-69452840D01*
X159334249Y-69327460D01*
X159329679Y-69325567D01*
X159329677Y-69325566D01*
X159117126Y-69237525D01*
X159117124Y-69237524D01*
X159112553Y-69235631D01*
X159030963Y-69216043D01*
X158884035Y-69180768D01*
X158884029Y-69180767D01*
X158879222Y-69179613D01*
X158640000Y-69160786D01*
X158400778Y-69179613D01*
X158395971Y-69180767D01*
X158395965Y-69180768D01*
X158249037Y-69216043D01*
X158167447Y-69235631D01*
X158162876Y-69237524D01*
X158162874Y-69237525D01*
X157950323Y-69325566D01*
X157950321Y-69325567D01*
X157945751Y-69327460D01*
X157741151Y-69452840D01*
X157737384Y-69456057D01*
X157737383Y-69456058D01*
X157618913Y-69557240D01*
X157558682Y-69608682D01*
X157402840Y-69791151D01*
X157277460Y-69995751D01*
X157275567Y-70000321D01*
X157275566Y-70000323D01*
X157216883Y-70141998D01*
X157185631Y-70217447D01*
X157184476Y-70222259D01*
X157130768Y-70445965D01*
X157130767Y-70445971D01*
X157129613Y-70450778D01*
X157110786Y-70690000D01*
X157129613Y-70929222D01*
X157130767Y-70934029D01*
X157130768Y-70934035D01*
X157136044Y-70956011D01*
X157185631Y-71162553D01*
X157187524Y-71167124D01*
X157187525Y-71167126D01*
X157244447Y-71304547D01*
X157277460Y-71384249D01*
X157402840Y-71588849D01*
X157558682Y-71771318D01*
X157741151Y-71927160D01*
X157945751Y-72052540D01*
X157950321Y-72054433D01*
X157950323Y-72054434D01*
X158162874Y-72142475D01*
X158167447Y-72144369D01*
X158249037Y-72163957D01*
X158395965Y-72199232D01*
X158395971Y-72199233D01*
X158400778Y-72200387D01*
X158640000Y-72219214D01*
X158677559Y-72216258D01*
X158747038Y-72230854D01*
X158776539Y-72252774D01*
X159186817Y-72663051D01*
X159596245Y-73072479D01*
X159596249Y-73072484D01*
X159924596Y-73400831D01*
X159958620Y-73463142D01*
X159961500Y-73489925D01*
X159961500Y-75614370D01*
X159941498Y-75682491D01*
X159887842Y-75728984D01*
X159817568Y-75739088D01*
X159791271Y-75732352D01*
X159707718Y-75701029D01*
X159707712Y-75701027D01*
X159700316Y-75698255D01*
X159638134Y-75691500D01*
X157641866Y-75691500D01*
X157579684Y-75698255D01*
X157443295Y-75749385D01*
X157326739Y-75836739D01*
X157239385Y-75953295D01*
X157188255Y-76089684D01*
X157181500Y-76151866D01*
X157181500Y-78148134D01*
X157188255Y-78210316D01*
X157239385Y-78346705D01*
X157326739Y-78463261D01*
X157443295Y-78550615D01*
X157579684Y-78601745D01*
X157641866Y-78608500D01*
X159638134Y-78608500D01*
X159700316Y-78601745D01*
X159707712Y-78598973D01*
X159707718Y-78598971D01*
X159791271Y-78567648D01*
X159862078Y-78562465D01*
X159924447Y-78596386D01*
X159958576Y-78658641D01*
X159961500Y-78685630D01*
X159961500Y-79654047D01*
X159941498Y-79722168D01*
X159885374Y-79769756D01*
X159874969Y-79774241D01*
X157767284Y-81881926D01*
X157760524Y-81894306D01*
X157766251Y-81901956D01*
X157941759Y-82009507D01*
X157950553Y-82013988D01*
X158163029Y-82101998D01*
X158172414Y-82105047D01*
X158396044Y-82158737D01*
X158405791Y-82160280D01*
X158635070Y-82178325D01*
X158644930Y-82178325D01*
X158874214Y-82160280D01*
X158882441Y-82158977D01*
X158952852Y-82168077D01*
X159007165Y-82213800D01*
X159028137Y-82281628D01*
X159009109Y-82350027D01*
X158991245Y-82372521D01*
X158776541Y-82587225D01*
X158714229Y-82621251D01*
X158677561Y-82623742D01*
X158640000Y-82620786D01*
X158400778Y-82639613D01*
X158395971Y-82640767D01*
X158395965Y-82640768D01*
X158249037Y-82676043D01*
X158167447Y-82695631D01*
X158162876Y-82697524D01*
X158162874Y-82697525D01*
X157950323Y-82785566D01*
X157950321Y-82785567D01*
X157945751Y-82787460D01*
X157741151Y-82912840D01*
X157558682Y-83068682D01*
X157555469Y-83072444D01*
X157495721Y-83142401D01*
X157402840Y-83251151D01*
X157277460Y-83455751D01*
X157275567Y-83460321D01*
X157275566Y-83460323D01*
X157232386Y-83564570D01*
X157185631Y-83677447D01*
X157184476Y-83682259D01*
X157130768Y-83905965D01*
X157130767Y-83905971D01*
X157129613Y-83910778D01*
X157110786Y-84150000D01*
X157129613Y-84389222D01*
X157130767Y-84394029D01*
X157130768Y-84394035D01*
X157136044Y-84416011D01*
X157185631Y-84622553D01*
X157187524Y-84627124D01*
X157187525Y-84627126D01*
X157263274Y-84810000D01*
X157277460Y-84844249D01*
X157402840Y-85048849D01*
X157406057Y-85052616D01*
X157406058Y-85052617D01*
X157439521Y-85091797D01*
X157558682Y-85231318D01*
X157562444Y-85234531D01*
X157709173Y-85359848D01*
X157741151Y-85387160D01*
X157945751Y-85512540D01*
X157950321Y-85514433D01*
X157950323Y-85514434D01*
X158162874Y-85602475D01*
X158167447Y-85604369D01*
X158249037Y-85623957D01*
X158395965Y-85659232D01*
X158395971Y-85659233D01*
X158400778Y-85660387D01*
X158640000Y-85679214D01*
X158879222Y-85660387D01*
X158884029Y-85659233D01*
X158884035Y-85659232D01*
X159030963Y-85623957D01*
X159112553Y-85604369D01*
X159117126Y-85602475D01*
X159329677Y-85514434D01*
X159329679Y-85514433D01*
X159334249Y-85512540D01*
X159538849Y-85387160D01*
X159570828Y-85359848D01*
X159717556Y-85234531D01*
X159721318Y-85231318D01*
X159840479Y-85091797D01*
X159873942Y-85052617D01*
X159873943Y-85052616D01*
X159877160Y-85048849D01*
X160002540Y-84844249D01*
X160016727Y-84810000D01*
X160026730Y-84785851D01*
X165386719Y-84785851D01*
X165388747Y-84810000D01*
X165401368Y-84960303D01*
X165403268Y-84982934D01*
X165418058Y-85034513D01*
X165451565Y-85151364D01*
X165457783Y-85173050D01*
X165483032Y-85222179D01*
X165543911Y-85340635D01*
X165548187Y-85348956D01*
X165671035Y-85503953D01*
X165675728Y-85507947D01*
X165675729Y-85507948D01*
X165677109Y-85509122D01*
X165821650Y-85632136D01*
X165994294Y-85728624D01*
X166182392Y-85789740D01*
X166378777Y-85813158D01*
X166384912Y-85812686D01*
X166384914Y-85812686D01*
X166569830Y-85798457D01*
X166569834Y-85798456D01*
X166575972Y-85797984D01*
X166766463Y-85744798D01*
X166771967Y-85742018D01*
X166771969Y-85742017D01*
X166937495Y-85658404D01*
X166937497Y-85658403D01*
X166942996Y-85655625D01*
X167074146Y-85553160D01*
X167093991Y-85537655D01*
X167098847Y-85533861D01*
X167121215Y-85507948D01*
X167126203Y-85502169D01*
X167185856Y-85463672D01*
X167221584Y-85458500D01*
X175056173Y-85458500D01*
X175124294Y-85478502D01*
X175154921Y-85506239D01*
X175161035Y-85513953D01*
X175311650Y-85642136D01*
X175484294Y-85738624D01*
X175672392Y-85799740D01*
X175868777Y-85823158D01*
X175874912Y-85822686D01*
X175874914Y-85822686D01*
X176059830Y-85808457D01*
X176059834Y-85808456D01*
X176065972Y-85807984D01*
X176256463Y-85754798D01*
X176261967Y-85752018D01*
X176261969Y-85752017D01*
X176427495Y-85668404D01*
X176427497Y-85668403D01*
X176432996Y-85665625D01*
X176588847Y-85543861D01*
X176703727Y-85410771D01*
X176714049Y-85398813D01*
X176714050Y-85398811D01*
X176718078Y-85394145D01*
X176815769Y-85222179D01*
X176878197Y-85034513D01*
X176902985Y-84838295D01*
X176903380Y-84810000D01*
X176884080Y-84613167D01*
X176878724Y-84595425D01*
X176828697Y-84429731D01*
X176826916Y-84423831D01*
X176734066Y-84249204D01*
X176646225Y-84141500D01*
X176612960Y-84100713D01*
X176612957Y-84100710D01*
X176609065Y-84095938D01*
X176602719Y-84090688D01*
X176461425Y-83973799D01*
X176461421Y-83973797D01*
X176456675Y-83969870D01*
X176282701Y-83875802D01*
X176093768Y-83817318D01*
X176087643Y-83816674D01*
X176087642Y-83816674D01*
X175903204Y-83797289D01*
X175903202Y-83797289D01*
X175897075Y-83796645D01*
X175816136Y-83804011D01*
X175706251Y-83814011D01*
X175706248Y-83814012D01*
X175700112Y-83814570D01*
X175694206Y-83816308D01*
X175694202Y-83816309D01*
X175589076Y-83847249D01*
X175510381Y-83870410D01*
X175504923Y-83873263D01*
X175504919Y-83873265D01*
X175423727Y-83915712D01*
X175335110Y-83962040D01*
X175180975Y-84085968D01*
X175172143Y-84096493D01*
X175113035Y-84135818D01*
X175075624Y-84141500D01*
X167224209Y-84141500D01*
X167156088Y-84121498D01*
X167126567Y-84095136D01*
X167122960Y-84090713D01*
X167122956Y-84090709D01*
X167119065Y-84085938D01*
X167020680Y-84004547D01*
X166971425Y-83963799D01*
X166971421Y-83963797D01*
X166966675Y-83959870D01*
X166792701Y-83865802D01*
X166603768Y-83807318D01*
X166597643Y-83806674D01*
X166597642Y-83806674D01*
X166413204Y-83787289D01*
X166413202Y-83787289D01*
X166407075Y-83786645D01*
X166349871Y-83791851D01*
X166216251Y-83804011D01*
X166216248Y-83804012D01*
X166210112Y-83804570D01*
X166204206Y-83806308D01*
X166204202Y-83806309D01*
X166099076Y-83837249D01*
X166020381Y-83860410D01*
X166014923Y-83863263D01*
X166014919Y-83863265D01*
X165985334Y-83878732D01*
X165845110Y-83952040D01*
X165690975Y-84075968D01*
X165563846Y-84227474D01*
X165560879Y-84232872D01*
X165560875Y-84232877D01*
X165516634Y-84313352D01*
X165468567Y-84400787D01*
X165466706Y-84406654D01*
X165466705Y-84406656D01*
X165462982Y-84418392D01*
X165408765Y-84589306D01*
X165386719Y-84785851D01*
X160026730Y-84785851D01*
X160092475Y-84627126D01*
X160092476Y-84627124D01*
X160094369Y-84622553D01*
X160143956Y-84416011D01*
X160149232Y-84394035D01*
X160149233Y-84394029D01*
X160150387Y-84389222D01*
X160169214Y-84150000D01*
X160166258Y-84112440D01*
X160180854Y-84042961D01*
X160202775Y-84013460D01*
X161639379Y-82576855D01*
X161649522Y-82567753D01*
X161674218Y-82547897D01*
X161679025Y-82544032D01*
X161711292Y-82505578D01*
X161714473Y-82501930D01*
X161716117Y-82500117D01*
X161718309Y-82497925D01*
X161745580Y-82464724D01*
X161746362Y-82463782D01*
X161758843Y-82448909D01*
X161806154Y-82392526D01*
X161808723Y-82387853D01*
X161812103Y-82383738D01*
X161847605Y-82317529D01*
X161856028Y-82301820D01*
X161856657Y-82300662D01*
X161898465Y-82224612D01*
X161898465Y-82224611D01*
X161901433Y-82219213D01*
X161903044Y-82214135D01*
X161905563Y-82209437D01*
X161932753Y-82120502D01*
X161933136Y-82119272D01*
X161945376Y-82080689D01*
X161961235Y-82030694D01*
X161961828Y-82025403D01*
X161963388Y-82020302D01*
X161972795Y-81927689D01*
X161972915Y-81926569D01*
X161978500Y-81876773D01*
X161978500Y-81873244D01*
X161978555Y-81872261D01*
X161979004Y-81866556D01*
X161982752Y-81829664D01*
X161982752Y-81829661D01*
X161983374Y-81823537D01*
X161979059Y-81777888D01*
X161978500Y-81766031D01*
X161978500Y-74554500D01*
X161998502Y-74486379D01*
X162052158Y-74439886D01*
X162104500Y-74428500D01*
X176808157Y-74428500D01*
X176821764Y-74429237D01*
X176853262Y-74432659D01*
X176853267Y-74432659D01*
X176859388Y-74433324D01*
X176885638Y-74431027D01*
X176909388Y-74428950D01*
X176914214Y-74428621D01*
X176916686Y-74428500D01*
X176919769Y-74428500D01*
X176931738Y-74427326D01*
X176962506Y-74424310D01*
X176963819Y-74424188D01*
X177008084Y-74420315D01*
X177056413Y-74416087D01*
X177061532Y-74414600D01*
X177066833Y-74414080D01*
X177155834Y-74387209D01*
X177156967Y-74386874D01*
X177240414Y-74362630D01*
X177240418Y-74362628D01*
X177246336Y-74360909D01*
X177251068Y-74358456D01*
X177256169Y-74356916D01*
X177261612Y-74354022D01*
X177338260Y-74313269D01*
X177339426Y-74312657D01*
X177416453Y-74272729D01*
X177421926Y-74269892D01*
X177426089Y-74266569D01*
X177430796Y-74264066D01*
X177502918Y-74205245D01*
X177503774Y-74204554D01*
X177542973Y-74173262D01*
X177545477Y-74170758D01*
X177546195Y-74170116D01*
X177550528Y-74166415D01*
X177584062Y-74139065D01*
X177613288Y-74103737D01*
X177621277Y-74094958D01*
X181066930Y-70649305D01*
X184519827Y-67196407D01*
X184582139Y-67162381D01*
X184652954Y-67167446D01*
X184672492Y-67176714D01*
X184711445Y-67199476D01*
X184760169Y-67251114D01*
X184773240Y-67320897D01*
X184746509Y-67386669D01*
X184706055Y-67420027D01*
X184693607Y-67426507D01*
X184689474Y-67429610D01*
X184689471Y-67429612D01*
X184523084Y-67554539D01*
X184514965Y-67560635D01*
X184360629Y-67722138D01*
X184234743Y-67906680D01*
X184140688Y-68109305D01*
X184080989Y-68324570D01*
X184057251Y-68546695D01*
X184057548Y-68551848D01*
X184057548Y-68551851D01*
X184066066Y-68699580D01*
X184070110Y-68769715D01*
X184071247Y-68774761D01*
X184071248Y-68774767D01*
X184095304Y-68881508D01*
X184119222Y-68987639D01*
X184149426Y-69062022D01*
X184192041Y-69166971D01*
X184203266Y-69194616D01*
X184205965Y-69199020D01*
X184286259Y-69330048D01*
X184319987Y-69385088D01*
X184466250Y-69553938D01*
X184638126Y-69696632D01*
X184708595Y-69737811D01*
X184711445Y-69739476D01*
X184760169Y-69791114D01*
X184773240Y-69860897D01*
X184746509Y-69926669D01*
X184706055Y-69960027D01*
X184693607Y-69966507D01*
X184689474Y-69969610D01*
X184689471Y-69969612D01*
X184648568Y-70000323D01*
X184514965Y-70100635D01*
X184360629Y-70262138D01*
X184234743Y-70446680D01*
X184140688Y-70649305D01*
X184080989Y-70864570D01*
X184057251Y-71086695D01*
X184057548Y-71091848D01*
X184057548Y-71091851D01*
X184068821Y-71287363D01*
X184070110Y-71309715D01*
X184071247Y-71314761D01*
X184071248Y-71314767D01*
X184085877Y-71379677D01*
X184119222Y-71527639D01*
X184203266Y-71734616D01*
X184319987Y-71925088D01*
X184466250Y-72093938D01*
X184638126Y-72236632D01*
X184665750Y-72252774D01*
X184711445Y-72279476D01*
X184760169Y-72331114D01*
X184773240Y-72400897D01*
X184746509Y-72466669D01*
X184706055Y-72500027D01*
X184693607Y-72506507D01*
X184689474Y-72509610D01*
X184689471Y-72509612D01*
X184665247Y-72527800D01*
X184514965Y-72640635D01*
X184360629Y-72802138D01*
X184234743Y-72986680D01*
X184140688Y-73189305D01*
X184080989Y-73404570D01*
X184057251Y-73626695D01*
X184057548Y-73631848D01*
X184057548Y-73631851D01*
X184058339Y-73645571D01*
X184070110Y-73849715D01*
X184071247Y-73854761D01*
X184071248Y-73854767D01*
X184095304Y-73961508D01*
X184119222Y-74067639D01*
X184160833Y-74170116D01*
X184201133Y-74269362D01*
X184203266Y-74274616D01*
X184226767Y-74312966D01*
X184300115Y-74432659D01*
X184319987Y-74465088D01*
X184466250Y-74633938D01*
X184638126Y-74776632D01*
X184708595Y-74817811D01*
X184711445Y-74819476D01*
X184760169Y-74871114D01*
X184773240Y-74940897D01*
X184746509Y-75006669D01*
X184706055Y-75040027D01*
X184693607Y-75046507D01*
X184689474Y-75049610D01*
X184689471Y-75049612D01*
X184665247Y-75067800D01*
X184514965Y-75180635D01*
X184360629Y-75342138D01*
X184234743Y-75526680D01*
X184140688Y-75729305D01*
X184080989Y-75944570D01*
X184057251Y-76166695D01*
X184070110Y-76389715D01*
X184071247Y-76394761D01*
X184071248Y-76394767D01*
X184095304Y-76501508D01*
X184119222Y-76607639D01*
X184203266Y-76814616D01*
X184319987Y-77005088D01*
X184466250Y-77173938D01*
X184638126Y-77316632D01*
X184708595Y-77357811D01*
X184711445Y-77359476D01*
X184760169Y-77411114D01*
X184773240Y-77480897D01*
X184746509Y-77546669D01*
X184706055Y-77580027D01*
X184693607Y-77586507D01*
X184689474Y-77589610D01*
X184689471Y-77589612D01*
X184665247Y-77607800D01*
X184514965Y-77720635D01*
X184360629Y-77882138D01*
X184234743Y-78066680D01*
X184140688Y-78269305D01*
X184080989Y-78484570D01*
X184057251Y-78706695D01*
X184070110Y-78929715D01*
X184071247Y-78934761D01*
X184071248Y-78934767D01*
X184095304Y-79041508D01*
X184119222Y-79147639D01*
X184203266Y-79354616D01*
X184319987Y-79545088D01*
X184466250Y-79713938D01*
X184638126Y-79856632D01*
X184684862Y-79883942D01*
X184711445Y-79899476D01*
X184760169Y-79951114D01*
X184773240Y-80020897D01*
X184746509Y-80086669D01*
X184706055Y-80120027D01*
X184693607Y-80126507D01*
X184689474Y-80129610D01*
X184689471Y-80129612D01*
X184519100Y-80257530D01*
X184514965Y-80260635D01*
X184360629Y-80422138D01*
X184234743Y-80606680D01*
X184140688Y-80809305D01*
X184080989Y-81024570D01*
X184057251Y-81246695D01*
X184057548Y-81251848D01*
X184057548Y-81251851D01*
X184062599Y-81339447D01*
X184070110Y-81469715D01*
X184071247Y-81474761D01*
X184071248Y-81474767D01*
X184081461Y-81520083D01*
X184119222Y-81687639D01*
X184171915Y-81817406D01*
X184197442Y-81880272D01*
X184203266Y-81894616D01*
X184319987Y-82085088D01*
X184466250Y-82253938D01*
X184638126Y-82396632D01*
X184708595Y-82437811D01*
X184711445Y-82439476D01*
X184760169Y-82491114D01*
X184773240Y-82560897D01*
X184746509Y-82626669D01*
X184706055Y-82660027D01*
X184693607Y-82666507D01*
X184689474Y-82669610D01*
X184689471Y-82669612D01*
X184519100Y-82797530D01*
X184514965Y-82800635D01*
X184360629Y-82962138D01*
X184234743Y-83146680D01*
X184140688Y-83349305D01*
X184080989Y-83564570D01*
X184057251Y-83786695D01*
X184057548Y-83791848D01*
X184057548Y-83791851D01*
X184067584Y-83965903D01*
X184070110Y-84009715D01*
X184071247Y-84014761D01*
X184071248Y-84014767D01*
X184093261Y-84112441D01*
X184119222Y-84227639D01*
X184154026Y-84313352D01*
X184194408Y-84412800D01*
X184203266Y-84434616D01*
X184205965Y-84439020D01*
X184316441Y-84619301D01*
X184319987Y-84625088D01*
X184466250Y-84793938D01*
X184638126Y-84936632D01*
X184663585Y-84951509D01*
X184711445Y-84979476D01*
X184760169Y-85031114D01*
X184773240Y-85100897D01*
X184746509Y-85166669D01*
X184706055Y-85200027D01*
X184693607Y-85206507D01*
X184689474Y-85209610D01*
X184689471Y-85209612D01*
X184656282Y-85234531D01*
X184514965Y-85340635D01*
X184360629Y-85502138D01*
X184357715Y-85506410D01*
X184357714Y-85506411D01*
X184329579Y-85547655D01*
X184234743Y-85686680D01*
X184209748Y-85740528D01*
X184143014Y-85884295D01*
X184140688Y-85889305D01*
X184080989Y-86104570D01*
X184057251Y-86326695D01*
X184057548Y-86331848D01*
X184057548Y-86331851D01*
X184061622Y-86402506D01*
X184070110Y-86549715D01*
X184071247Y-86554761D01*
X184071248Y-86554767D01*
X184095304Y-86661508D01*
X184119222Y-86767639D01*
X184203266Y-86974616D01*
X184254942Y-87058944D01*
X184317136Y-87160435D01*
X184319987Y-87165088D01*
X184466250Y-87333938D01*
X184638126Y-87476632D01*
X184708595Y-87517811D01*
X184711445Y-87519476D01*
X184760169Y-87571114D01*
X184773240Y-87640897D01*
X184746509Y-87706669D01*
X184706055Y-87740027D01*
X184693607Y-87746507D01*
X184689474Y-87749610D01*
X184689471Y-87749612D01*
X184571532Y-87838163D01*
X184514965Y-87880635D01*
X184488448Y-87908383D01*
X184430045Y-87969499D01*
X184360629Y-88042138D01*
X184357715Y-88046410D01*
X184357714Y-88046411D01*
X184329579Y-88087655D01*
X184234743Y-88226680D01*
X184209748Y-88280528D01*
X184175847Y-88353562D01*
X184140688Y-88429305D01*
X184080989Y-88644570D01*
X184057251Y-88866695D01*
X184057548Y-88871848D01*
X184057548Y-88871851D01*
X184069805Y-89084428D01*
X184070110Y-89089715D01*
X184071247Y-89094761D01*
X184071248Y-89094767D01*
X184084603Y-89154025D01*
X184119222Y-89307639D01*
X184203266Y-89514616D01*
X184205965Y-89519020D01*
X184305716Y-89681799D01*
X184319987Y-89705088D01*
X184466250Y-89873938D01*
X184638126Y-90016632D01*
X184706054Y-90056326D01*
X184711955Y-90059774D01*
X184760679Y-90111412D01*
X184773750Y-90181195D01*
X184747019Y-90246967D01*
X184706562Y-90280327D01*
X184698457Y-90284546D01*
X184689738Y-90290036D01*
X184519433Y-90417905D01*
X184511726Y-90424748D01*
X184364590Y-90578717D01*
X184358104Y-90586727D01*
X184238098Y-90762649D01*
X184233000Y-90771623D01*
X184143338Y-90964783D01*
X184139775Y-90974470D01*
X184084389Y-91174183D01*
X184085912Y-91182607D01*
X184098292Y-91186000D01*
X185548000Y-91186000D01*
X185616121Y-91206002D01*
X185662614Y-91259658D01*
X185674000Y-91312000D01*
X185674000Y-91568000D01*
X185653998Y-91636121D01*
X185600342Y-91682614D01*
X185548000Y-91694000D01*
X184103225Y-91694000D01*
X184089694Y-91697973D01*
X184088257Y-91707966D01*
X184118565Y-91842446D01*
X184121645Y-91852275D01*
X184201770Y-92049603D01*
X184206413Y-92058794D01*
X184317694Y-92240388D01*
X184323777Y-92248699D01*
X184463213Y-92409667D01*
X184470580Y-92416883D01*
X184555104Y-92487056D01*
X184594739Y-92545959D01*
X184596237Y-92616940D01*
X184559122Y-92677462D01*
X184495178Y-92708311D01*
X184474619Y-92710000D01*
X144398000Y-92710000D01*
X144329879Y-92689998D01*
X144283386Y-92636342D01*
X144272000Y-92584000D01*
X144272000Y-90148672D01*
X151633364Y-90148672D01*
X151633776Y-90155814D01*
X151649312Y-90425272D01*
X151650137Y-90429479D01*
X151650138Y-90429484D01*
X151680305Y-90583244D01*
X151702653Y-90697149D01*
X151704040Y-90701200D01*
X151774076Y-90905759D01*
X151792397Y-90959272D01*
X151916885Y-91206789D01*
X151919311Y-91210318D01*
X151919314Y-91210324D01*
X151956757Y-91264803D01*
X152073814Y-91435121D01*
X152260279Y-91640044D01*
X152324810Y-91694000D01*
X152469538Y-91815012D01*
X152469543Y-91815016D01*
X152472830Y-91817764D01*
X152531480Y-91854555D01*
X152703893Y-91962710D01*
X152703897Y-91962712D01*
X152707533Y-91964993D01*
X152960047Y-92079007D01*
X153225697Y-92157697D01*
X153229931Y-92158345D01*
X153229936Y-92158346D01*
X153495327Y-92198956D01*
X153495329Y-92198956D01*
X153499569Y-92199605D01*
X153640603Y-92201821D01*
X153772304Y-92203890D01*
X153772310Y-92203890D01*
X153776595Y-92203957D01*
X154051649Y-92170672D01*
X154319640Y-92100365D01*
X154575610Y-91994339D01*
X154814822Y-91854555D01*
X155032850Y-91683599D01*
X155078860Y-91636121D01*
X155222678Y-91487712D01*
X155225660Y-91484635D01*
X155389683Y-91261344D01*
X155476729Y-91101025D01*
X155519835Y-91021635D01*
X155519836Y-91021633D01*
X155521885Y-91017859D01*
X155576563Y-90873158D01*
X155618301Y-90762703D01*
X155618302Y-90762699D01*
X155619819Y-90758685D01*
X155654620Y-90606735D01*
X155680714Y-90492802D01*
X155680715Y-90492798D01*
X155681672Y-90488618D01*
X155687326Y-90425272D01*
X155706081Y-90215119D01*
X155706301Y-90212654D01*
X155706748Y-90170000D01*
X155705781Y-90155814D01*
X155688196Y-89897859D01*
X155688195Y-89897853D01*
X155687904Y-89893582D01*
X155678019Y-89845851D01*
X168746719Y-89845851D01*
X168747235Y-89851995D01*
X168761279Y-90019242D01*
X168763268Y-90042934D01*
X168770324Y-90067542D01*
X168811935Y-90212654D01*
X168817783Y-90233050D01*
X168820602Y-90238535D01*
X168879639Y-90353407D01*
X168908187Y-90408956D01*
X169031035Y-90563953D01*
X169035728Y-90567947D01*
X169035729Y-90567948D01*
X169117848Y-90637836D01*
X169181650Y-90692136D01*
X169354294Y-90788624D01*
X169542392Y-90849740D01*
X169738777Y-90873158D01*
X169744912Y-90872686D01*
X169744914Y-90872686D01*
X169929830Y-90858457D01*
X169929834Y-90858456D01*
X169935972Y-90857984D01*
X170126463Y-90804798D01*
X170131967Y-90802018D01*
X170131969Y-90802017D01*
X170297495Y-90718404D01*
X170297497Y-90718403D01*
X170302996Y-90715625D01*
X170458847Y-90593861D01*
X170462873Y-90589197D01*
X170486203Y-90562169D01*
X170545856Y-90523672D01*
X170581584Y-90518500D01*
X175343895Y-90518500D01*
X175405365Y-90534512D01*
X175484294Y-90578624D01*
X175672392Y-90639740D01*
X175868777Y-90663158D01*
X175874912Y-90662686D01*
X175874914Y-90662686D01*
X176059830Y-90648457D01*
X176059834Y-90648456D01*
X176065972Y-90647984D01*
X176256463Y-90594798D01*
X176261967Y-90592018D01*
X176261969Y-90592017D01*
X176427495Y-90508404D01*
X176427497Y-90508403D01*
X176432996Y-90505625D01*
X176588847Y-90383861D01*
X176682489Y-90275376D01*
X176714049Y-90238813D01*
X176714050Y-90238811D01*
X176718078Y-90234145D01*
X176815769Y-90062179D01*
X176878197Y-89874513D01*
X176902985Y-89678295D01*
X176903380Y-89650000D01*
X176884080Y-89453167D01*
X176881342Y-89444096D01*
X176849243Y-89337783D01*
X176826916Y-89263831D01*
X176734066Y-89089204D01*
X176663709Y-89002938D01*
X176612960Y-88940713D01*
X176612957Y-88940710D01*
X176609065Y-88935938D01*
X176602724Y-88930692D01*
X176461425Y-88813799D01*
X176461421Y-88813797D01*
X176456675Y-88809870D01*
X176282701Y-88715802D01*
X176093768Y-88657318D01*
X176087643Y-88656674D01*
X176087642Y-88656674D01*
X175903204Y-88637289D01*
X175903202Y-88637289D01*
X175897075Y-88636645D01*
X175814576Y-88644153D01*
X175706251Y-88654011D01*
X175706248Y-88654012D01*
X175700112Y-88654570D01*
X175694206Y-88656308D01*
X175694202Y-88656309D01*
X175634562Y-88673862D01*
X175510381Y-88710410D01*
X175504923Y-88713263D01*
X175504919Y-88713265D01*
X175414147Y-88760720D01*
X175335110Y-88802040D01*
X175180975Y-88925968D01*
X175177011Y-88930692D01*
X175102182Y-89019870D01*
X175053846Y-89077474D01*
X175021690Y-89135968D01*
X175021562Y-89136200D01*
X174971218Y-89186259D01*
X174911147Y-89201500D01*
X170584209Y-89201500D01*
X170516088Y-89181498D01*
X170486567Y-89155136D01*
X170482960Y-89150713D01*
X170482956Y-89150709D01*
X170479065Y-89145938D01*
X170396306Y-89077474D01*
X170331425Y-89023799D01*
X170331421Y-89023797D01*
X170326675Y-89019870D01*
X170152701Y-88925802D01*
X169963768Y-88867318D01*
X169957643Y-88866674D01*
X169957642Y-88866674D01*
X169773204Y-88847289D01*
X169773202Y-88847289D01*
X169767075Y-88846645D01*
X169684576Y-88854153D01*
X169576251Y-88864011D01*
X169576248Y-88864012D01*
X169570112Y-88864570D01*
X169564206Y-88866308D01*
X169564202Y-88866309D01*
X169459076Y-88897249D01*
X169380381Y-88920410D01*
X169374923Y-88923263D01*
X169374919Y-88923265D01*
X169341545Y-88940713D01*
X169205110Y-89012040D01*
X169050975Y-89135968D01*
X168923846Y-89287474D01*
X168920879Y-89292872D01*
X168920875Y-89292877D01*
X168881143Y-89365151D01*
X168828567Y-89460787D01*
X168826706Y-89466654D01*
X168826705Y-89466656D01*
X168770627Y-89643436D01*
X168768765Y-89649306D01*
X168746719Y-89845851D01*
X155678019Y-89845851D01*
X155664074Y-89778510D01*
X155632590Y-89626484D01*
X155631719Y-89622278D01*
X155625940Y-89605957D01*
X155540666Y-89365151D01*
X155539235Y-89361110D01*
X155412161Y-89114910D01*
X155398005Y-89094767D01*
X155332506Y-89001572D01*
X155252850Y-88888233D01*
X155095340Y-88718732D01*
X155067171Y-88688418D01*
X155067168Y-88688415D01*
X155064250Y-88685275D01*
X155060934Y-88682561D01*
X155060931Y-88682558D01*
X154853168Y-88512506D01*
X154849850Y-88509790D01*
X154613617Y-88365027D01*
X154609681Y-88363299D01*
X154363852Y-88255387D01*
X154363848Y-88255386D01*
X154359924Y-88253663D01*
X154093464Y-88177760D01*
X154089222Y-88177156D01*
X154089216Y-88177155D01*
X153823419Y-88139327D01*
X153819168Y-88138722D01*
X153673201Y-88137958D01*
X153546398Y-88137293D01*
X153546391Y-88137293D01*
X153542112Y-88137271D01*
X153537868Y-88137830D01*
X153537864Y-88137830D01*
X153416893Y-88153757D01*
X153267422Y-88173435D01*
X153263282Y-88174568D01*
X153263280Y-88174568D01*
X153088431Y-88222401D01*
X153000182Y-88246543D01*
X152938216Y-88272974D01*
X152749278Y-88353562D01*
X152749271Y-88353566D01*
X152745336Y-88355244D01*
X152741655Y-88357447D01*
X152511282Y-88495322D01*
X152511278Y-88495325D01*
X152507600Y-88497526D01*
X152504257Y-88500204D01*
X152504253Y-88500207D01*
X152398820Y-88584675D01*
X152291374Y-88670756D01*
X152255395Y-88708670D01*
X152107452Y-88864570D01*
X152100659Y-88871728D01*
X151938983Y-89096724D01*
X151809338Y-89341580D01*
X151714124Y-89601765D01*
X151655102Y-89872466D01*
X151633364Y-90148672D01*
X144272000Y-90148672D01*
X144272000Y-85650000D01*
X145610737Y-85650000D01*
X145629565Y-85889229D01*
X145630719Y-85894036D01*
X145630720Y-85894042D01*
X145652901Y-85986433D01*
X145685584Y-86122568D01*
X145687477Y-86127139D01*
X145687478Y-86127141D01*
X145774490Y-86337204D01*
X145777417Y-86344271D01*
X145902800Y-86548878D01*
X146058648Y-86731352D01*
X146241122Y-86887200D01*
X146445729Y-87012583D01*
X146450299Y-87014476D01*
X146450303Y-87014478D01*
X146662859Y-87102522D01*
X146662861Y-87102523D01*
X146667432Y-87104416D01*
X146747195Y-87123565D01*
X146895958Y-87159280D01*
X146895964Y-87159281D01*
X146900771Y-87160435D01*
X147140000Y-87179263D01*
X147379229Y-87160435D01*
X147384036Y-87159281D01*
X147384042Y-87159280D01*
X147532805Y-87123565D01*
X147612568Y-87104416D01*
X147617139Y-87102523D01*
X147617141Y-87102522D01*
X147829697Y-87014478D01*
X147829701Y-87014476D01*
X147834271Y-87012583D01*
X147910924Y-86965610D01*
X168640009Y-86965610D01*
X168656558Y-87162693D01*
X168673338Y-87221210D01*
X168706609Y-87337240D01*
X168711073Y-87352809D01*
X168801477Y-87528715D01*
X168924325Y-87683712D01*
X168929018Y-87687706D01*
X168929019Y-87687707D01*
X169016436Y-87762104D01*
X169074940Y-87811895D01*
X169247584Y-87908383D01*
X169435682Y-87969499D01*
X169632067Y-87992917D01*
X169638202Y-87992445D01*
X169638204Y-87992445D01*
X169823120Y-87978216D01*
X169823124Y-87978215D01*
X169829262Y-87977743D01*
X170019753Y-87924557D01*
X170025257Y-87921777D01*
X170025259Y-87921776D01*
X170190785Y-87838163D01*
X170190787Y-87838162D01*
X170196286Y-87835384D01*
X170327436Y-87732919D01*
X170347281Y-87717414D01*
X170352137Y-87713620D01*
X170379493Y-87681928D01*
X170439146Y-87643431D01*
X170474874Y-87638259D01*
X174829229Y-87638259D01*
X174897350Y-87658261D01*
X174946255Y-87717721D01*
X174947783Y-87723050D01*
X174950599Y-87728529D01*
X174950600Y-87728532D01*
X174991391Y-87807902D01*
X175038187Y-87898956D01*
X175161035Y-88053953D01*
X175165728Y-88057947D01*
X175165729Y-88057948D01*
X175302758Y-88174568D01*
X175311650Y-88182136D01*
X175484294Y-88278624D01*
X175672392Y-88339740D01*
X175868777Y-88363158D01*
X175874912Y-88362686D01*
X175874914Y-88362686D01*
X176059830Y-88348457D01*
X176059834Y-88348456D01*
X176065972Y-88347984D01*
X176256463Y-88294798D01*
X176261967Y-88292018D01*
X176261969Y-88292017D01*
X176427495Y-88208404D01*
X176427497Y-88208403D01*
X176432996Y-88205625D01*
X176588847Y-88083861D01*
X176718078Y-87934145D01*
X176815769Y-87762179D01*
X176878197Y-87574513D01*
X176902985Y-87378295D01*
X176903380Y-87350000D01*
X176884080Y-87153167D01*
X176826916Y-86963831D01*
X176734066Y-86789204D01*
X176663709Y-86702938D01*
X176612960Y-86640713D01*
X176612957Y-86640710D01*
X176609065Y-86635938D01*
X176542108Y-86580546D01*
X176461425Y-86513799D01*
X176461421Y-86513797D01*
X176456675Y-86509870D01*
X176282701Y-86415802D01*
X176093768Y-86357318D01*
X176087643Y-86356674D01*
X176087642Y-86356674D01*
X175903204Y-86337289D01*
X175903202Y-86337289D01*
X175897075Y-86336645D01*
X175756735Y-86349417D01*
X175711030Y-86345016D01*
X175704935Y-86342379D01*
X175659311Y-86335153D01*
X175647688Y-86332746D01*
X175619687Y-86325557D01*
X175602947Y-86321259D01*
X175581500Y-86321259D01*
X175561790Y-86319708D01*
X175548436Y-86317593D01*
X175540607Y-86316353D01*
X175494618Y-86320700D01*
X175482763Y-86321259D01*
X170477499Y-86321259D01*
X170409378Y-86301257D01*
X170379857Y-86274895D01*
X170376250Y-86270472D01*
X170376246Y-86270468D01*
X170372355Y-86265697D01*
X170306430Y-86211159D01*
X170224715Y-86143558D01*
X170224711Y-86143556D01*
X170219965Y-86139629D01*
X170045991Y-86045561D01*
X169857058Y-85987077D01*
X169850933Y-85986433D01*
X169850932Y-85986433D01*
X169666494Y-85967048D01*
X169666492Y-85967048D01*
X169660365Y-85966404D01*
X169577866Y-85973912D01*
X169469541Y-85983770D01*
X169469538Y-85983771D01*
X169463402Y-85984329D01*
X169457496Y-85986067D01*
X169457492Y-85986068D01*
X169352366Y-86017008D01*
X169273671Y-86040169D01*
X169268213Y-86043022D01*
X169268209Y-86043024D01*
X169177437Y-86090479D01*
X169098400Y-86131799D01*
X168944265Y-86255727D01*
X168817136Y-86407233D01*
X168814169Y-86412631D01*
X168814165Y-86412636D01*
X168738806Y-86549715D01*
X168721857Y-86580546D01*
X168719996Y-86586413D01*
X168719995Y-86586415D01*
X168702771Y-86640713D01*
X168662055Y-86769065D01*
X168640009Y-86965610D01*
X147910924Y-86965610D01*
X148038878Y-86887200D01*
X148221352Y-86731352D01*
X148377200Y-86548878D01*
X148502583Y-86344271D01*
X148505511Y-86337204D01*
X148592522Y-86127141D01*
X148592523Y-86127139D01*
X148594416Y-86122568D01*
X148627099Y-85986433D01*
X148649280Y-85894042D01*
X148649281Y-85894036D01*
X148650435Y-85889229D01*
X148669263Y-85650000D01*
X148650435Y-85410771D01*
X148647565Y-85398813D01*
X148606508Y-85227800D01*
X148594416Y-85177432D01*
X148542716Y-85052617D01*
X148504478Y-84960303D01*
X148504476Y-84960299D01*
X148502583Y-84955729D01*
X148377200Y-84751122D01*
X148221352Y-84568648D01*
X148038878Y-84412800D01*
X147834271Y-84287417D01*
X147829701Y-84285524D01*
X147829697Y-84285522D01*
X147617141Y-84197478D01*
X147617139Y-84197477D01*
X147612568Y-84195584D01*
X147532805Y-84176435D01*
X147384042Y-84140720D01*
X147384036Y-84140719D01*
X147379229Y-84139565D01*
X147140000Y-84120737D01*
X146900771Y-84139565D01*
X146895964Y-84140719D01*
X146895958Y-84140720D01*
X146747195Y-84176435D01*
X146667432Y-84195584D01*
X146662861Y-84197477D01*
X146662859Y-84197478D01*
X146450303Y-84285522D01*
X146450299Y-84285524D01*
X146445729Y-84287417D01*
X146241122Y-84412800D01*
X146058648Y-84568648D01*
X145902800Y-84751122D01*
X145777417Y-84955729D01*
X145775524Y-84960299D01*
X145775522Y-84960303D01*
X145737284Y-85052617D01*
X145685584Y-85177432D01*
X145673492Y-85227800D01*
X145632436Y-85398813D01*
X145629565Y-85410771D01*
X145610737Y-85650000D01*
X144272000Y-85650000D01*
X144272000Y-83394306D01*
X146260524Y-83394306D01*
X146266251Y-83401956D01*
X146441759Y-83509507D01*
X146450553Y-83513988D01*
X146663029Y-83601998D01*
X146672414Y-83605047D01*
X146896044Y-83658737D01*
X146905791Y-83660280D01*
X147135070Y-83678325D01*
X147144930Y-83678325D01*
X147374209Y-83660280D01*
X147383956Y-83658737D01*
X147607586Y-83605047D01*
X147616971Y-83601998D01*
X147829447Y-83513988D01*
X147838241Y-83509507D01*
X148010083Y-83404203D01*
X148019543Y-83393747D01*
X148015759Y-83384969D01*
X147152812Y-82522022D01*
X147138868Y-82514408D01*
X147137035Y-82514539D01*
X147130420Y-82518790D01*
X146267284Y-83381926D01*
X146260524Y-83394306D01*
X144272000Y-83394306D01*
X144272000Y-82154930D01*
X145611675Y-82154930D01*
X145629720Y-82384209D01*
X145631263Y-82393956D01*
X145684953Y-82617586D01*
X145688002Y-82626971D01*
X145776012Y-82839447D01*
X145780493Y-82848241D01*
X145885797Y-83020083D01*
X145896253Y-83029543D01*
X145905031Y-83025759D01*
X146767978Y-82162812D01*
X146774356Y-82151132D01*
X147504408Y-82151132D01*
X147504539Y-82152965D01*
X147508790Y-82159580D01*
X148371926Y-83022716D01*
X148384306Y-83029476D01*
X148391956Y-83023749D01*
X148499507Y-82848241D01*
X148503988Y-82839447D01*
X148591998Y-82626971D01*
X148595047Y-82617586D01*
X148648737Y-82393956D01*
X148650280Y-82384209D01*
X148668325Y-82154930D01*
X148668325Y-82145070D01*
X148650280Y-81915791D01*
X148648737Y-81906044D01*
X148595047Y-81682414D01*
X148591998Y-81673029D01*
X148503988Y-81460553D01*
X148499507Y-81451759D01*
X148394203Y-81279917D01*
X148383747Y-81270457D01*
X148374969Y-81274241D01*
X147512022Y-82137188D01*
X147504408Y-82151132D01*
X146774356Y-82151132D01*
X146775592Y-82148868D01*
X146775461Y-82147035D01*
X146771210Y-82140420D01*
X145908074Y-81277284D01*
X145895694Y-81270524D01*
X145888044Y-81276251D01*
X145780493Y-81451759D01*
X145776012Y-81460553D01*
X145688002Y-81673029D01*
X145684953Y-81682414D01*
X145631263Y-81906044D01*
X145629720Y-81915791D01*
X145611675Y-82145070D01*
X145611675Y-82154930D01*
X144272000Y-82154930D01*
X144272000Y-80906253D01*
X146260457Y-80906253D01*
X146264241Y-80915031D01*
X147127188Y-81777978D01*
X147141132Y-81785592D01*
X147142965Y-81785461D01*
X147149580Y-81781210D01*
X148012716Y-80918074D01*
X148019476Y-80905694D01*
X148013749Y-80898044D01*
X147838241Y-80790493D01*
X147829447Y-80786012D01*
X147616971Y-80698002D01*
X147607586Y-80694953D01*
X147440882Y-80654930D01*
X157111675Y-80654930D01*
X157129720Y-80884209D01*
X157131263Y-80893956D01*
X157184953Y-81117586D01*
X157188002Y-81126971D01*
X157276012Y-81339447D01*
X157280493Y-81348241D01*
X157385797Y-81520083D01*
X157396253Y-81529543D01*
X157405031Y-81525759D01*
X158267978Y-80662812D01*
X158275592Y-80648868D01*
X158275461Y-80647035D01*
X158271210Y-80640420D01*
X157408074Y-79777284D01*
X157395694Y-79770524D01*
X157388044Y-79776251D01*
X157280493Y-79951759D01*
X157276012Y-79960553D01*
X157188002Y-80173029D01*
X157184953Y-80182414D01*
X157131263Y-80406044D01*
X157129720Y-80415791D01*
X157111675Y-80645070D01*
X157111675Y-80654930D01*
X147440882Y-80654930D01*
X147383956Y-80641263D01*
X147374209Y-80639720D01*
X147144930Y-80621675D01*
X147135070Y-80621675D01*
X146905791Y-80639720D01*
X146896044Y-80641263D01*
X146672414Y-80694953D01*
X146663029Y-80698002D01*
X146450553Y-80786012D01*
X146441759Y-80790493D01*
X146269917Y-80895797D01*
X146260457Y-80906253D01*
X144272000Y-80906253D01*
X144272000Y-78650000D01*
X145610786Y-78650000D01*
X145629613Y-78889222D01*
X145630767Y-78894029D01*
X145630768Y-78894035D01*
X145640547Y-78934767D01*
X145685631Y-79122553D01*
X145687524Y-79127124D01*
X145687525Y-79127126D01*
X145755194Y-79290493D01*
X145777460Y-79344249D01*
X145902840Y-79548849D01*
X145906057Y-79552616D01*
X145906058Y-79552617D01*
X145962336Y-79618510D01*
X146058682Y-79731318D01*
X146241151Y-79887160D01*
X146445751Y-80012540D01*
X146450321Y-80014433D01*
X146450323Y-80014434D01*
X146503929Y-80036638D01*
X146667447Y-80104369D01*
X146732667Y-80120027D01*
X146895965Y-80159232D01*
X146895971Y-80159233D01*
X146900778Y-80160387D01*
X147140000Y-80179214D01*
X147379222Y-80160387D01*
X147384029Y-80159233D01*
X147384035Y-80159232D01*
X147547333Y-80120027D01*
X147612553Y-80104369D01*
X147776071Y-80036638D01*
X147829677Y-80014434D01*
X147829679Y-80014433D01*
X147834249Y-80012540D01*
X148038849Y-79887160D01*
X148221318Y-79731318D01*
X148317664Y-79618510D01*
X148373942Y-79552617D01*
X148373943Y-79552616D01*
X148377160Y-79548849D01*
X148464544Y-79406253D01*
X157760457Y-79406253D01*
X157764241Y-79415031D01*
X158627188Y-80277978D01*
X158641132Y-80285592D01*
X158642965Y-80285461D01*
X158649580Y-80281210D01*
X159512716Y-79418074D01*
X159519476Y-79405694D01*
X159513749Y-79398044D01*
X159338241Y-79290493D01*
X159329447Y-79286012D01*
X159116971Y-79198002D01*
X159107586Y-79194953D01*
X158883956Y-79141263D01*
X158874209Y-79139720D01*
X158644930Y-79121675D01*
X158635070Y-79121675D01*
X158405791Y-79139720D01*
X158396044Y-79141263D01*
X158172414Y-79194953D01*
X158163029Y-79198002D01*
X157950553Y-79286012D01*
X157941759Y-79290493D01*
X157769917Y-79395797D01*
X157760457Y-79406253D01*
X148464544Y-79406253D01*
X148502540Y-79344249D01*
X148524807Y-79290493D01*
X148592475Y-79127126D01*
X148592476Y-79127124D01*
X148594369Y-79122553D01*
X148639453Y-78934767D01*
X148649232Y-78894035D01*
X148649233Y-78894029D01*
X148650387Y-78889222D01*
X148669214Y-78650000D01*
X148650387Y-78410778D01*
X148649233Y-78405971D01*
X148649232Y-78405965D01*
X148612679Y-78253714D01*
X148594369Y-78177447D01*
X148580812Y-78144717D01*
X148504434Y-77960323D01*
X148504433Y-77960321D01*
X148502540Y-77955751D01*
X148377160Y-77751151D01*
X148367507Y-77739848D01*
X148224531Y-77572444D01*
X148221318Y-77568682D01*
X148136965Y-77496638D01*
X148042617Y-77416058D01*
X148042616Y-77416057D01*
X148038849Y-77412840D01*
X147834249Y-77287460D01*
X147829679Y-77285567D01*
X147829677Y-77285566D01*
X147617126Y-77197525D01*
X147617124Y-77197524D01*
X147612553Y-77195631D01*
X147530963Y-77176043D01*
X147384035Y-77140768D01*
X147384029Y-77140767D01*
X147379222Y-77139613D01*
X147140000Y-77120786D01*
X146900778Y-77139613D01*
X146895971Y-77140767D01*
X146895965Y-77140768D01*
X146749037Y-77176043D01*
X146667447Y-77195631D01*
X146662876Y-77197524D01*
X146662874Y-77197525D01*
X146450323Y-77285566D01*
X146450321Y-77285567D01*
X146445751Y-77287460D01*
X146241151Y-77412840D01*
X146237384Y-77416057D01*
X146237383Y-77416058D01*
X146143035Y-77496638D01*
X146058682Y-77568682D01*
X146055469Y-77572444D01*
X145912494Y-77739848D01*
X145902840Y-77751151D01*
X145777460Y-77955751D01*
X145775567Y-77960321D01*
X145775566Y-77960323D01*
X145699188Y-78144717D01*
X145685631Y-78177447D01*
X145667321Y-78253714D01*
X145630768Y-78405965D01*
X145630767Y-78405971D01*
X145629613Y-78410778D01*
X145610786Y-78650000D01*
X144272000Y-78650000D01*
X144272000Y-72190000D01*
X145610737Y-72190000D01*
X145629565Y-72429229D01*
X145630719Y-72434036D01*
X145630720Y-72434042D01*
X145648863Y-72509612D01*
X145685584Y-72662568D01*
X145687477Y-72667139D01*
X145687478Y-72667141D01*
X145734019Y-72779499D01*
X145777417Y-72884271D01*
X145902800Y-73088878D01*
X146058648Y-73271352D01*
X146241122Y-73427200D01*
X146445729Y-73552583D01*
X146450299Y-73554476D01*
X146450303Y-73554478D01*
X146662859Y-73642522D01*
X146662861Y-73642523D01*
X146667432Y-73644416D01*
X146747195Y-73663565D01*
X146895958Y-73699280D01*
X146895964Y-73699281D01*
X146900771Y-73700435D01*
X147140000Y-73719263D01*
X147379229Y-73700435D01*
X147384036Y-73699281D01*
X147384042Y-73699280D01*
X147532805Y-73663565D01*
X147612568Y-73644416D01*
X147617139Y-73642523D01*
X147617141Y-73642522D01*
X147829697Y-73554478D01*
X147829701Y-73554476D01*
X147834271Y-73552583D01*
X148038878Y-73427200D01*
X148221352Y-73271352D01*
X148377200Y-73088878D01*
X148502583Y-72884271D01*
X148545982Y-72779499D01*
X148592522Y-72667141D01*
X148592523Y-72667139D01*
X148594416Y-72662568D01*
X148631137Y-72509612D01*
X148649280Y-72434042D01*
X148649281Y-72434036D01*
X148650435Y-72429229D01*
X148669263Y-72190000D01*
X148650435Y-71950771D01*
X148645389Y-71929749D01*
X148607353Y-71771318D01*
X148594416Y-71717432D01*
X148592522Y-71712859D01*
X148504478Y-71500303D01*
X148504476Y-71500299D01*
X148502583Y-71495729D01*
X148377200Y-71291122D01*
X148221352Y-71108648D01*
X148038878Y-70952800D01*
X147834271Y-70827417D01*
X147829701Y-70825524D01*
X147829697Y-70825522D01*
X147617141Y-70737478D01*
X147617139Y-70737477D01*
X147612568Y-70735584D01*
X147532805Y-70716435D01*
X147384042Y-70680720D01*
X147384036Y-70680719D01*
X147379229Y-70679565D01*
X147140000Y-70660737D01*
X146900771Y-70679565D01*
X146895964Y-70680719D01*
X146895958Y-70680720D01*
X146747195Y-70716435D01*
X146667432Y-70735584D01*
X146662861Y-70737477D01*
X146662859Y-70737478D01*
X146450303Y-70825522D01*
X146450299Y-70825524D01*
X146445729Y-70827417D01*
X146241122Y-70952800D01*
X146058648Y-71108648D01*
X145902800Y-71291122D01*
X145777417Y-71495729D01*
X145775524Y-71500299D01*
X145775522Y-71500303D01*
X145687478Y-71712859D01*
X145685584Y-71717432D01*
X145672647Y-71771318D01*
X145634612Y-71929749D01*
X145629565Y-71950771D01*
X145610737Y-72190000D01*
X144272000Y-72190000D01*
X144272000Y-69934306D01*
X146260524Y-69934306D01*
X146266251Y-69941956D01*
X146441759Y-70049507D01*
X146450553Y-70053988D01*
X146663029Y-70141998D01*
X146672414Y-70145047D01*
X146896044Y-70198737D01*
X146905791Y-70200280D01*
X147135070Y-70218325D01*
X147144930Y-70218325D01*
X147374209Y-70200280D01*
X147383956Y-70198737D01*
X147607586Y-70145047D01*
X147616971Y-70141998D01*
X147829447Y-70053988D01*
X147838241Y-70049507D01*
X148010083Y-69944203D01*
X148019543Y-69933747D01*
X148015759Y-69924969D01*
X147152812Y-69062022D01*
X147138868Y-69054408D01*
X147137035Y-69054539D01*
X147130420Y-69058790D01*
X146267284Y-69921926D01*
X146260524Y-69934306D01*
X144272000Y-69934306D01*
X144272000Y-68694930D01*
X145611675Y-68694930D01*
X145629720Y-68924209D01*
X145631263Y-68933956D01*
X145684953Y-69157586D01*
X145688002Y-69166971D01*
X145776012Y-69379447D01*
X145780493Y-69388241D01*
X145885797Y-69560083D01*
X145896253Y-69569543D01*
X145905031Y-69565759D01*
X146767978Y-68702812D01*
X146774356Y-68691132D01*
X147504408Y-68691132D01*
X147504539Y-68692965D01*
X147508790Y-68699580D01*
X148371926Y-69562716D01*
X148384306Y-69569476D01*
X148391956Y-69563749D01*
X148499507Y-69388241D01*
X148503988Y-69379447D01*
X148591998Y-69166971D01*
X148595047Y-69157586D01*
X148648737Y-68933956D01*
X148650280Y-68924209D01*
X148668325Y-68694930D01*
X148668325Y-68685070D01*
X148650280Y-68455791D01*
X148648737Y-68446044D01*
X148645919Y-68434306D01*
X157760524Y-68434306D01*
X157766251Y-68441956D01*
X157941759Y-68549507D01*
X157950553Y-68553988D01*
X158163029Y-68641998D01*
X158172414Y-68645047D01*
X158396044Y-68698737D01*
X158405791Y-68700280D01*
X158635070Y-68718325D01*
X158644930Y-68718325D01*
X158874209Y-68700280D01*
X158883956Y-68698737D01*
X159107586Y-68645047D01*
X159116971Y-68641998D01*
X159329447Y-68553988D01*
X159338241Y-68549507D01*
X159510083Y-68444203D01*
X159519543Y-68433747D01*
X159515759Y-68424969D01*
X158652812Y-67562022D01*
X158638868Y-67554408D01*
X158637035Y-67554539D01*
X158630420Y-67558790D01*
X157767284Y-68421926D01*
X157760524Y-68434306D01*
X148645919Y-68434306D01*
X148595047Y-68222414D01*
X148591998Y-68213029D01*
X148503988Y-68000553D01*
X148499507Y-67991759D01*
X148394203Y-67819917D01*
X148383747Y-67810457D01*
X148374969Y-67814241D01*
X147512022Y-68677188D01*
X147504408Y-68691132D01*
X146774356Y-68691132D01*
X146775592Y-68688868D01*
X146775461Y-68687035D01*
X146771210Y-68680420D01*
X145908074Y-67817284D01*
X145895694Y-67810524D01*
X145888044Y-67816251D01*
X145780493Y-67991759D01*
X145776012Y-68000553D01*
X145688002Y-68213029D01*
X145684953Y-68222414D01*
X145631263Y-68446044D01*
X145629720Y-68455791D01*
X145611675Y-68685070D01*
X145611675Y-68694930D01*
X144272000Y-68694930D01*
X144272000Y-67446253D01*
X146260457Y-67446253D01*
X146264241Y-67455031D01*
X147127188Y-68317978D01*
X147141132Y-68325592D01*
X147142965Y-68325461D01*
X147149580Y-68321210D01*
X148012716Y-67458074D01*
X148019476Y-67445694D01*
X148013749Y-67438044D01*
X147838241Y-67330493D01*
X147829447Y-67326012D01*
X147616971Y-67238002D01*
X147607586Y-67234953D01*
X147440882Y-67194930D01*
X157111675Y-67194930D01*
X157129720Y-67424209D01*
X157131263Y-67433956D01*
X157184953Y-67657586D01*
X157188002Y-67666971D01*
X157276012Y-67879447D01*
X157280493Y-67888241D01*
X157385797Y-68060083D01*
X157396253Y-68069543D01*
X157405031Y-68065759D01*
X158267978Y-67202812D01*
X158274356Y-67191132D01*
X159004408Y-67191132D01*
X159004539Y-67192965D01*
X159008790Y-67199580D01*
X159871926Y-68062716D01*
X159884306Y-68069476D01*
X159891956Y-68063749D01*
X159999507Y-67888241D01*
X160003988Y-67879447D01*
X160091998Y-67666971D01*
X160095047Y-67657586D01*
X160148737Y-67433956D01*
X160150280Y-67424209D01*
X160168325Y-67194930D01*
X160168325Y-67185070D01*
X160150280Y-66955791D01*
X160148737Y-66946044D01*
X160095047Y-66722414D01*
X160091998Y-66713029D01*
X160003988Y-66500553D01*
X159999507Y-66491759D01*
X159894203Y-66319917D01*
X159883747Y-66310457D01*
X159874969Y-66314241D01*
X159012022Y-67177188D01*
X159004408Y-67191132D01*
X158274356Y-67191132D01*
X158275592Y-67188868D01*
X158275461Y-67187035D01*
X158271210Y-67180420D01*
X157408074Y-66317284D01*
X157395694Y-66310524D01*
X157388044Y-66316251D01*
X157280493Y-66491759D01*
X157276012Y-66500553D01*
X157188002Y-66713029D01*
X157184953Y-66722414D01*
X157131263Y-66946044D01*
X157129720Y-66955791D01*
X157111675Y-67185070D01*
X157111675Y-67194930D01*
X147440882Y-67194930D01*
X147383956Y-67181263D01*
X147374209Y-67179720D01*
X147144930Y-67161675D01*
X147135070Y-67161675D01*
X146905791Y-67179720D01*
X146896044Y-67181263D01*
X146672414Y-67234953D01*
X146663029Y-67238002D01*
X146450553Y-67326012D01*
X146441759Y-67330493D01*
X146269917Y-67435797D01*
X146260457Y-67446253D01*
X144272000Y-67446253D01*
X144272000Y-65190000D01*
X145610786Y-65190000D01*
X145629613Y-65429222D01*
X145630767Y-65434029D01*
X145630768Y-65434035D01*
X145659501Y-65553714D01*
X145685631Y-65662553D01*
X145687524Y-65667124D01*
X145687525Y-65667126D01*
X145755194Y-65830493D01*
X145777460Y-65884249D01*
X145902840Y-66088849D01*
X146058682Y-66271318D01*
X146241151Y-66427160D01*
X146445751Y-66552540D01*
X146450321Y-66554433D01*
X146450323Y-66554434D01*
X146662874Y-66642475D01*
X146667447Y-66644369D01*
X146749037Y-66663957D01*
X146895965Y-66699232D01*
X146895971Y-66699233D01*
X146900778Y-66700387D01*
X147140000Y-66719214D01*
X147379222Y-66700387D01*
X147384029Y-66699233D01*
X147384035Y-66699232D01*
X147530963Y-66663957D01*
X147612553Y-66644369D01*
X147617126Y-66642475D01*
X147829677Y-66554434D01*
X147829679Y-66554433D01*
X147834249Y-66552540D01*
X148038849Y-66427160D01*
X148221318Y-66271318D01*
X148377160Y-66088849D01*
X148464544Y-65946253D01*
X157760457Y-65946253D01*
X157764241Y-65955031D01*
X158627188Y-66817978D01*
X158641132Y-66825592D01*
X158642965Y-66825461D01*
X158649580Y-66821210D01*
X159512716Y-65958074D01*
X159519476Y-65945694D01*
X159513749Y-65938044D01*
X159338241Y-65830493D01*
X159329447Y-65826012D01*
X159116971Y-65738002D01*
X159107586Y-65734953D01*
X158883956Y-65681263D01*
X158874209Y-65679720D01*
X158644930Y-65661675D01*
X158635070Y-65661675D01*
X158405791Y-65679720D01*
X158396044Y-65681263D01*
X158172414Y-65734953D01*
X158163029Y-65738002D01*
X157950553Y-65826012D01*
X157941759Y-65830493D01*
X157769917Y-65935797D01*
X157760457Y-65946253D01*
X148464544Y-65946253D01*
X148502540Y-65884249D01*
X148524807Y-65830493D01*
X148592475Y-65667126D01*
X148592476Y-65667124D01*
X148594369Y-65662553D01*
X148620499Y-65553714D01*
X148649232Y-65434035D01*
X148649233Y-65434029D01*
X148650387Y-65429222D01*
X148669214Y-65190000D01*
X148650387Y-64950778D01*
X148649233Y-64945971D01*
X148649232Y-64945965D01*
X148613381Y-64796638D01*
X148594369Y-64717447D01*
X148580057Y-64682894D01*
X148504434Y-64500323D01*
X148504433Y-64500321D01*
X148502540Y-64495751D01*
X148377160Y-64291151D01*
X148221318Y-64108682D01*
X148038849Y-63952840D01*
X147834249Y-63827460D01*
X147829679Y-63825567D01*
X147829677Y-63825566D01*
X147617126Y-63737525D01*
X147617124Y-63737524D01*
X147612553Y-63735631D01*
X147530963Y-63716043D01*
X147384035Y-63680768D01*
X147384029Y-63680767D01*
X147379222Y-63679613D01*
X147140000Y-63660786D01*
X146900778Y-63679613D01*
X146895971Y-63680767D01*
X146895965Y-63680768D01*
X146749037Y-63716043D01*
X146667447Y-63735631D01*
X146662876Y-63737524D01*
X146662874Y-63737525D01*
X146450323Y-63825566D01*
X146450321Y-63825567D01*
X146445751Y-63827460D01*
X146241151Y-63952840D01*
X146058682Y-64108682D01*
X145902840Y-64291151D01*
X145777460Y-64495751D01*
X145775567Y-64500321D01*
X145775566Y-64500323D01*
X145699943Y-64682894D01*
X145685631Y-64717447D01*
X145666619Y-64796638D01*
X145630768Y-64945965D01*
X145630767Y-64945971D01*
X145629613Y-64950778D01*
X145610786Y-65190000D01*
X144272000Y-65190000D01*
X144272000Y-62356000D01*
X144292002Y-62287879D01*
X144345658Y-62241386D01*
X144398000Y-62230000D01*
X157184823Y-62230000D01*
X157252944Y-62250002D01*
G37*
G04 #@! TD.AperFunction*
M02*
