G04 #@! TF.GenerationSoftware,KiCad,Pcbnew,(6.0.0)*
G04 #@! TF.CreationDate,2022-04-17T00:14:55-07:00*
G04 #@! TF.ProjectId,4 Channel Screw term,34204368-616e-46e6-956c-205363726577,rev?*
G04 #@! TF.SameCoordinates,Original*
G04 #@! TF.FileFunction,Paste,Top*
G04 #@! TF.FilePolarity,Positive*
%FSLAX46Y46*%
G04 Gerber Fmt 4.6, Leading zero omitted, Abs format (unit mm)*
G04 Created by KiCad (PCBNEW (6.0.0)) date 2022-04-17 00:14:55*
%MOMM*%
%LPD*%
G01*
G04 APERTURE LIST*
G04 Aperture macros list*
%AMRoundRect*
0 Rectangle with rounded corners*
0 $1 Rounding radius*
0 $2 $3 $4 $5 $6 $7 $8 $9 X,Y pos of 4 corners*
0 Add a 4 corners polygon primitive as box body*
4,1,4,$2,$3,$4,$5,$6,$7,$8,$9,$2,$3,0*
0 Add four circle primitives for the rounded corners*
1,1,$1+$1,$2,$3*
1,1,$1+$1,$4,$5*
1,1,$1+$1,$6,$7*
1,1,$1+$1,$8,$9*
0 Add four rect primitives between the rounded corners*
20,1,$1+$1,$2,$3,$4,$5,0*
20,1,$1+$1,$4,$5,$6,$7,0*
20,1,$1+$1,$6,$7,$8,$9,0*
20,1,$1+$1,$8,$9,$2,$3,0*%
G04 Aperture macros list end*
%ADD10RoundRect,0.150000X-0.825000X-0.150000X0.825000X-0.150000X0.825000X0.150000X-0.825000X0.150000X0*%
%ADD11RoundRect,0.237500X0.250000X0.237500X-0.250000X0.237500X-0.250000X-0.237500X0.250000X-0.237500X0*%
%ADD12RoundRect,0.237500X0.237500X-0.250000X0.237500X0.250000X-0.237500X0.250000X-0.237500X-0.250000X0*%
%ADD13RoundRect,0.237500X-0.237500X0.250000X-0.237500X-0.250000X0.237500X-0.250000X0.237500X0.250000X0*%
%ADD14RoundRect,0.237500X0.300000X0.237500X-0.300000X0.237500X-0.300000X-0.237500X0.300000X-0.237500X0*%
%ADD15R,2.000000X1.780000*%
G04 APERTURE END LIST*
D10*
X168075000Y-83540000D03*
X168075000Y-84810000D03*
X168075000Y-86080000D03*
X168075000Y-87350000D03*
X168075000Y-88620000D03*
X168075000Y-89890000D03*
X168075000Y-91160000D03*
X173025000Y-91160000D03*
X173025000Y-89890000D03*
X173025000Y-88620000D03*
X173025000Y-87350000D03*
X173025000Y-86080000D03*
X173025000Y-84810000D03*
X173025000Y-83540000D03*
D11*
X178902500Y-91160000D03*
X177077500Y-91160000D03*
X178902500Y-89640000D03*
X177077500Y-89640000D03*
X178902500Y-87350000D03*
X177077500Y-87350000D03*
X178902500Y-84810000D03*
X177077500Y-84810000D03*
X178892500Y-78600000D03*
X177067500Y-78600000D03*
X178892500Y-73510000D03*
X177067500Y-73510000D03*
X178892500Y-68440000D03*
X177067500Y-68440000D03*
X178902500Y-63360000D03*
X177077500Y-63360000D03*
D12*
X163360000Y-81172500D03*
X163360000Y-79347500D03*
D13*
X163370000Y-75987500D03*
X163370000Y-77812500D03*
D12*
X163370000Y-70972500D03*
X163370000Y-69147500D03*
X163370000Y-65902500D03*
X163370000Y-64077500D03*
D14*
X178852500Y-76050000D03*
X177127500Y-76050000D03*
X178832500Y-71750000D03*
X177107500Y-71750000D03*
X178832500Y-70230000D03*
X177107500Y-70230000D03*
X178842500Y-65890000D03*
X177117500Y-65890000D03*
X178852500Y-81140000D03*
X177127500Y-81140000D03*
D15*
X165445000Y-63360000D03*
X174975000Y-81140000D03*
X165445000Y-65900000D03*
X174975000Y-78600000D03*
X165445000Y-68440000D03*
X174975000Y-76060000D03*
X165445000Y-70980000D03*
X174975000Y-73520000D03*
X165445000Y-73520000D03*
X174975000Y-70980000D03*
X165445000Y-76060000D03*
X174975000Y-68440000D03*
X165445000Y-78600000D03*
X174975000Y-65900000D03*
X165445000Y-81140000D03*
X174975000Y-63360000D03*
M02*
