G04 #@! TF.GenerationSoftware,KiCad,Pcbnew,(6.0.0)*
G04 #@! TF.CreationDate,2022-04-17T00:14:55-07:00*
G04 #@! TF.ProjectId,4 Channel Screw term,34204368-616e-46e6-956c-205363726577,rev?*
G04 #@! TF.SameCoordinates,Original*
G04 #@! TF.FileFunction,Legend,Top*
G04 #@! TF.FilePolarity,Positive*
%FSLAX46Y46*%
G04 Gerber Fmt 4.6, Leading zero omitted, Abs format (unit mm)*
G04 Created by KiCad (PCBNEW (6.0.0)) date 2022-04-17 00:14:55*
%MOMM*%
%LPD*%
G01*
G04 APERTURE LIST*
G04 Aperture macros list*
%AMRoundRect*
0 Rectangle with rounded corners*
0 $1 Rounding radius*
0 $2 $3 $4 $5 $6 $7 $8 $9 X,Y pos of 4 corners*
0 Add a 4 corners polygon primitive as box body*
4,1,4,$2,$3,$4,$5,$6,$7,$8,$9,$2,$3,0*
0 Add four circle primitives for the rounded corners*
1,1,$1+$1,$2,$3*
1,1,$1+$1,$4,$5*
1,1,$1+$1,$6,$7*
1,1,$1+$1,$8,$9*
0 Add four rect primitives between the rounded corners*
20,1,$1+$1,$2,$3,$4,$5,0*
20,1,$1+$1,$4,$5,$6,$7,0*
20,1,$1+$1,$6,$7,$8,$9,0*
20,1,$1+$1,$8,$9,$2,$3,0*%
G04 Aperture macros list end*
%ADD10C,0.150000*%
%ADD11C,0.120000*%
%ADD12RoundRect,0.150000X-0.825000X-0.150000X0.825000X-0.150000X0.825000X0.150000X-0.825000X0.150000X0*%
%ADD13RoundRect,0.237500X0.250000X0.237500X-0.250000X0.237500X-0.250000X-0.237500X0.250000X-0.237500X0*%
%ADD14RoundRect,0.237500X0.237500X-0.250000X0.237500X0.250000X-0.237500X0.250000X-0.237500X-0.250000X0*%
%ADD15RoundRect,0.237500X-0.237500X0.250000X-0.237500X-0.250000X0.237500X-0.250000X0.237500X0.250000X0*%
%ADD16RoundRect,0.237500X0.300000X0.237500X-0.300000X0.237500X-0.300000X-0.237500X0.300000X-0.237500X0*%
%ADD17R,2.000000X1.780000*%
%ADD18C,2.032098*%
%ADD19C,2.032000*%
%ADD20R,1.900000X1.900000*%
%ADD21R,1.700000X1.700000*%
%ADD22O,1.700000X1.700000*%
G04 APERTURE END LIST*
D10*
X156370057Y-90170000D02*
G75*
G03*
X156370057Y-90170000I-2700057J0D01*
G01*
X156938095Y-87070714D02*
X156938095Y-87737380D01*
X156700000Y-86689761D02*
X156461904Y-87404047D01*
X157080952Y-87404047D01*
X158795238Y-87642142D02*
X158747619Y-87689761D01*
X158604761Y-87737380D01*
X158509523Y-87737380D01*
X158366666Y-87689761D01*
X158271428Y-87594523D01*
X158223809Y-87499285D01*
X158176190Y-87308809D01*
X158176190Y-87165952D01*
X158223809Y-86975476D01*
X158271428Y-86880238D01*
X158366666Y-86785000D01*
X158509523Y-86737380D01*
X158604761Y-86737380D01*
X158747619Y-86785000D01*
X158795238Y-86832619D01*
X159223809Y-87737380D02*
X159223809Y-86737380D01*
X159652380Y-87737380D02*
X159652380Y-87213571D01*
X159604761Y-87118333D01*
X159509523Y-87070714D01*
X159366666Y-87070714D01*
X159271428Y-87118333D01*
X159223809Y-87165952D01*
X160557142Y-87737380D02*
X160557142Y-87213571D01*
X160509523Y-87118333D01*
X160414285Y-87070714D01*
X160223809Y-87070714D01*
X160128571Y-87118333D01*
X160557142Y-87689761D02*
X160461904Y-87737380D01*
X160223809Y-87737380D01*
X160128571Y-87689761D01*
X160080952Y-87594523D01*
X160080952Y-87499285D01*
X160128571Y-87404047D01*
X160223809Y-87356428D01*
X160461904Y-87356428D01*
X160557142Y-87308809D01*
X161033333Y-87070714D02*
X161033333Y-87737380D01*
X161033333Y-87165952D02*
X161080952Y-87118333D01*
X161176190Y-87070714D01*
X161319047Y-87070714D01*
X161414285Y-87118333D01*
X161461904Y-87213571D01*
X161461904Y-87737380D01*
X161938095Y-87070714D02*
X161938095Y-87737380D01*
X161938095Y-87165952D02*
X161985714Y-87118333D01*
X162080952Y-87070714D01*
X162223809Y-87070714D01*
X162319047Y-87118333D01*
X162366666Y-87213571D01*
X162366666Y-87737380D01*
X163223809Y-87689761D02*
X163128571Y-87737380D01*
X162938095Y-87737380D01*
X162842857Y-87689761D01*
X162795238Y-87594523D01*
X162795238Y-87213571D01*
X162842857Y-87118333D01*
X162938095Y-87070714D01*
X163128571Y-87070714D01*
X163223809Y-87118333D01*
X163271428Y-87213571D01*
X163271428Y-87308809D01*
X162795238Y-87404047D01*
X163842857Y-87737380D02*
X163747619Y-87689761D01*
X163700000Y-87594523D01*
X163700000Y-86737380D01*
X164985714Y-87737380D02*
X164985714Y-86737380D01*
X165461904Y-87070714D02*
X165461904Y-87737380D01*
X165461904Y-87165952D02*
X165509523Y-87118333D01*
X165604761Y-87070714D01*
X165747619Y-87070714D01*
X165842857Y-87118333D01*
X165890476Y-87213571D01*
X165890476Y-87737380D01*
X159676190Y-88347380D02*
X160009523Y-89347380D01*
X160342857Y-88347380D01*
X161200000Y-89347380D02*
X160628571Y-89347380D01*
X160914285Y-89347380D02*
X160914285Y-88347380D01*
X160819047Y-88490238D01*
X160723809Y-88585476D01*
X160628571Y-88633095D01*
X161628571Y-89252142D02*
X161676190Y-89299761D01*
X161628571Y-89347380D01*
X161580952Y-89299761D01*
X161628571Y-89252142D01*
X161628571Y-89347380D01*
X162057142Y-88442619D02*
X162104761Y-88395000D01*
X162200000Y-88347380D01*
X162438095Y-88347380D01*
X162533333Y-88395000D01*
X162580952Y-88442619D01*
X162628571Y-88537857D01*
X162628571Y-88633095D01*
X162580952Y-88775952D01*
X162009523Y-89347380D01*
X162628571Y-89347380D01*
X165068095Y-82902380D02*
X165068095Y-83711904D01*
X165115714Y-83807142D01*
X165163333Y-83854761D01*
X165258571Y-83902380D01*
X165449047Y-83902380D01*
X165544285Y-83854761D01*
X165591904Y-83807142D01*
X165639523Y-83711904D01*
X165639523Y-82902380D01*
X166068095Y-82997619D02*
X166115714Y-82950000D01*
X166210952Y-82902380D01*
X166449047Y-82902380D01*
X166544285Y-82950000D01*
X166591904Y-82997619D01*
X166639523Y-83092857D01*
X166639523Y-83188095D01*
X166591904Y-83330952D01*
X166020476Y-83902380D01*
X166639523Y-83902380D01*
X180427142Y-91602380D02*
X180093809Y-91126190D01*
X179855714Y-91602380D02*
X179855714Y-90602380D01*
X180236666Y-90602380D01*
X180331904Y-90650000D01*
X180379523Y-90697619D01*
X180427142Y-90792857D01*
X180427142Y-90935714D01*
X180379523Y-91030952D01*
X180331904Y-91078571D01*
X180236666Y-91126190D01*
X179855714Y-91126190D01*
X181379523Y-91602380D02*
X180808095Y-91602380D01*
X181093809Y-91602380D02*
X181093809Y-90602380D01*
X180998571Y-90745238D01*
X180903333Y-90840476D01*
X180808095Y-90888095D01*
X181760476Y-90697619D02*
X181808095Y-90650000D01*
X181903333Y-90602380D01*
X182141428Y-90602380D01*
X182236666Y-90650000D01*
X182284285Y-90697619D01*
X182331904Y-90792857D01*
X182331904Y-90888095D01*
X182284285Y-91030952D01*
X181712857Y-91602380D01*
X182331904Y-91602380D01*
X180367142Y-90102380D02*
X180033809Y-89626190D01*
X179795714Y-90102380D02*
X179795714Y-89102380D01*
X180176666Y-89102380D01*
X180271904Y-89150000D01*
X180319523Y-89197619D01*
X180367142Y-89292857D01*
X180367142Y-89435714D01*
X180319523Y-89530952D01*
X180271904Y-89578571D01*
X180176666Y-89626190D01*
X179795714Y-89626190D01*
X181319523Y-90102380D02*
X180748095Y-90102380D01*
X181033809Y-90102380D02*
X181033809Y-89102380D01*
X180938571Y-89245238D01*
X180843333Y-89340476D01*
X180748095Y-89388095D01*
X182271904Y-90102380D02*
X181700476Y-90102380D01*
X181986190Y-90102380D02*
X181986190Y-89102380D01*
X181890952Y-89245238D01*
X181795714Y-89340476D01*
X181700476Y-89388095D01*
X180357142Y-87822380D02*
X180023809Y-87346190D01*
X179785714Y-87822380D02*
X179785714Y-86822380D01*
X180166666Y-86822380D01*
X180261904Y-86870000D01*
X180309523Y-86917619D01*
X180357142Y-87012857D01*
X180357142Y-87155714D01*
X180309523Y-87250952D01*
X180261904Y-87298571D01*
X180166666Y-87346190D01*
X179785714Y-87346190D01*
X181309523Y-87822380D02*
X180738095Y-87822380D01*
X181023809Y-87822380D02*
X181023809Y-86822380D01*
X180928571Y-86965238D01*
X180833333Y-87060476D01*
X180738095Y-87108095D01*
X181928571Y-86822380D02*
X182023809Y-86822380D01*
X182119047Y-86870000D01*
X182166666Y-86917619D01*
X182214285Y-87012857D01*
X182261904Y-87203333D01*
X182261904Y-87441428D01*
X182214285Y-87631904D01*
X182166666Y-87727142D01*
X182119047Y-87774761D01*
X182023809Y-87822380D01*
X181928571Y-87822380D01*
X181833333Y-87774761D01*
X181785714Y-87727142D01*
X181738095Y-87631904D01*
X181690476Y-87441428D01*
X181690476Y-87203333D01*
X181738095Y-87012857D01*
X181785714Y-86917619D01*
X181833333Y-86870000D01*
X181928571Y-86822380D01*
X180353333Y-85312380D02*
X180020000Y-84836190D01*
X179781904Y-85312380D02*
X179781904Y-84312380D01*
X180162857Y-84312380D01*
X180258095Y-84360000D01*
X180305714Y-84407619D01*
X180353333Y-84502857D01*
X180353333Y-84645714D01*
X180305714Y-84740952D01*
X180258095Y-84788571D01*
X180162857Y-84836190D01*
X179781904Y-84836190D01*
X180829523Y-85312380D02*
X181020000Y-85312380D01*
X181115238Y-85264761D01*
X181162857Y-85217142D01*
X181258095Y-85074285D01*
X181305714Y-84883809D01*
X181305714Y-84502857D01*
X181258095Y-84407619D01*
X181210476Y-84360000D01*
X181115238Y-84312380D01*
X180924761Y-84312380D01*
X180829523Y-84360000D01*
X180781904Y-84407619D01*
X180734285Y-84502857D01*
X180734285Y-84740952D01*
X180781904Y-84836190D01*
X180829523Y-84883809D01*
X180924761Y-84931428D01*
X181115238Y-84931428D01*
X181210476Y-84883809D01*
X181258095Y-84836190D01*
X181305714Y-84740952D01*
X180353333Y-79062380D02*
X180020000Y-78586190D01*
X179781904Y-79062380D02*
X179781904Y-78062380D01*
X180162857Y-78062380D01*
X180258095Y-78110000D01*
X180305714Y-78157619D01*
X180353333Y-78252857D01*
X180353333Y-78395714D01*
X180305714Y-78490952D01*
X180258095Y-78538571D01*
X180162857Y-78586190D01*
X179781904Y-78586190D01*
X180924761Y-78490952D02*
X180829523Y-78443333D01*
X180781904Y-78395714D01*
X180734285Y-78300476D01*
X180734285Y-78252857D01*
X180781904Y-78157619D01*
X180829523Y-78110000D01*
X180924761Y-78062380D01*
X181115238Y-78062380D01*
X181210476Y-78110000D01*
X181258095Y-78157619D01*
X181305714Y-78252857D01*
X181305714Y-78300476D01*
X181258095Y-78395714D01*
X181210476Y-78443333D01*
X181115238Y-78490952D01*
X180924761Y-78490952D01*
X180829523Y-78538571D01*
X180781904Y-78586190D01*
X180734285Y-78681428D01*
X180734285Y-78871904D01*
X180781904Y-78967142D01*
X180829523Y-79014761D01*
X180924761Y-79062380D01*
X181115238Y-79062380D01*
X181210476Y-79014761D01*
X181258095Y-78967142D01*
X181305714Y-78871904D01*
X181305714Y-78681428D01*
X181258095Y-78586190D01*
X181210476Y-78538571D01*
X181115238Y-78490952D01*
X180333333Y-73982380D02*
X180000000Y-73506190D01*
X179761904Y-73982380D02*
X179761904Y-72982380D01*
X180142857Y-72982380D01*
X180238095Y-73030000D01*
X180285714Y-73077619D01*
X180333333Y-73172857D01*
X180333333Y-73315714D01*
X180285714Y-73410952D01*
X180238095Y-73458571D01*
X180142857Y-73506190D01*
X179761904Y-73506190D01*
X180666666Y-72982380D02*
X181333333Y-72982380D01*
X180904761Y-73982380D01*
X180353333Y-68902380D02*
X180020000Y-68426190D01*
X179781904Y-68902380D02*
X179781904Y-67902380D01*
X180162857Y-67902380D01*
X180258095Y-67950000D01*
X180305714Y-67997619D01*
X180353333Y-68092857D01*
X180353333Y-68235714D01*
X180305714Y-68330952D01*
X180258095Y-68378571D01*
X180162857Y-68426190D01*
X179781904Y-68426190D01*
X181210476Y-67902380D02*
X181020000Y-67902380D01*
X180924761Y-67950000D01*
X180877142Y-67997619D01*
X180781904Y-68140476D01*
X180734285Y-68330952D01*
X180734285Y-68711904D01*
X180781904Y-68807142D01*
X180829523Y-68854761D01*
X180924761Y-68902380D01*
X181115238Y-68902380D01*
X181210476Y-68854761D01*
X181258095Y-68807142D01*
X181305714Y-68711904D01*
X181305714Y-68473809D01*
X181258095Y-68378571D01*
X181210476Y-68330952D01*
X181115238Y-68283333D01*
X180924761Y-68283333D01*
X180829523Y-68330952D01*
X180781904Y-68378571D01*
X180734285Y-68473809D01*
X180363333Y-63812380D02*
X180030000Y-63336190D01*
X179791904Y-63812380D02*
X179791904Y-62812380D01*
X180172857Y-62812380D01*
X180268095Y-62860000D01*
X180315714Y-62907619D01*
X180363333Y-63002857D01*
X180363333Y-63145714D01*
X180315714Y-63240952D01*
X180268095Y-63288571D01*
X180172857Y-63336190D01*
X179791904Y-63336190D01*
X181268095Y-62812380D02*
X180791904Y-62812380D01*
X180744285Y-63288571D01*
X180791904Y-63240952D01*
X180887142Y-63193333D01*
X181125238Y-63193333D01*
X181220476Y-63240952D01*
X181268095Y-63288571D01*
X181315714Y-63383809D01*
X181315714Y-63621904D01*
X181268095Y-63717142D01*
X181220476Y-63764761D01*
X181125238Y-63812380D01*
X180887142Y-63812380D01*
X180791904Y-63764761D01*
X180744285Y-63717142D01*
X163003333Y-83152380D02*
X162670000Y-82676190D01*
X162431904Y-83152380D02*
X162431904Y-82152380D01*
X162812857Y-82152380D01*
X162908095Y-82200000D01*
X162955714Y-82247619D01*
X163003333Y-82342857D01*
X163003333Y-82485714D01*
X162955714Y-82580952D01*
X162908095Y-82628571D01*
X162812857Y-82676190D01*
X162431904Y-82676190D01*
X163860476Y-82485714D02*
X163860476Y-83152380D01*
X163622380Y-82104761D02*
X163384285Y-82819047D01*
X164003333Y-82819047D01*
X162933333Y-75012380D02*
X162600000Y-74536190D01*
X162361904Y-75012380D02*
X162361904Y-74012380D01*
X162742857Y-74012380D01*
X162838095Y-74060000D01*
X162885714Y-74107619D01*
X162933333Y-74202857D01*
X162933333Y-74345714D01*
X162885714Y-74440952D01*
X162838095Y-74488571D01*
X162742857Y-74536190D01*
X162361904Y-74536190D01*
X163266666Y-74012380D02*
X163885714Y-74012380D01*
X163552380Y-74393333D01*
X163695238Y-74393333D01*
X163790476Y-74440952D01*
X163838095Y-74488571D01*
X163885714Y-74583809D01*
X163885714Y-74821904D01*
X163838095Y-74917142D01*
X163790476Y-74964761D01*
X163695238Y-75012380D01*
X163409523Y-75012380D01*
X163314285Y-74964761D01*
X163266666Y-74917142D01*
X162953333Y-68242380D02*
X162620000Y-67766190D01*
X162381904Y-68242380D02*
X162381904Y-67242380D01*
X162762857Y-67242380D01*
X162858095Y-67290000D01*
X162905714Y-67337619D01*
X162953333Y-67432857D01*
X162953333Y-67575714D01*
X162905714Y-67670952D01*
X162858095Y-67718571D01*
X162762857Y-67766190D01*
X162381904Y-67766190D01*
X163334285Y-67337619D02*
X163381904Y-67290000D01*
X163477142Y-67242380D01*
X163715238Y-67242380D01*
X163810476Y-67290000D01*
X163858095Y-67337619D01*
X163905714Y-67432857D01*
X163905714Y-67528095D01*
X163858095Y-67670952D01*
X163286666Y-68242380D01*
X163905714Y-68242380D01*
X163043333Y-63162380D02*
X162710000Y-62686190D01*
X162471904Y-63162380D02*
X162471904Y-62162380D01*
X162852857Y-62162380D01*
X162948095Y-62210000D01*
X162995714Y-62257619D01*
X163043333Y-62352857D01*
X163043333Y-62495714D01*
X162995714Y-62590952D01*
X162948095Y-62638571D01*
X162852857Y-62686190D01*
X162471904Y-62686190D01*
X163995714Y-63162380D02*
X163424285Y-63162380D01*
X163710000Y-63162380D02*
X163710000Y-62162380D01*
X163614761Y-62305238D01*
X163519523Y-62400476D01*
X163424285Y-62448095D01*
X180393333Y-76407142D02*
X180345714Y-76454761D01*
X180202857Y-76502380D01*
X180107619Y-76502380D01*
X179964761Y-76454761D01*
X179869523Y-76359523D01*
X179821904Y-76264285D01*
X179774285Y-76073809D01*
X179774285Y-75930952D01*
X179821904Y-75740476D01*
X179869523Y-75645238D01*
X179964761Y-75550000D01*
X180107619Y-75502380D01*
X180202857Y-75502380D01*
X180345714Y-75550000D01*
X180393333Y-75597619D01*
X181298095Y-75502380D02*
X180821904Y-75502380D01*
X180774285Y-75978571D01*
X180821904Y-75930952D01*
X180917142Y-75883333D01*
X181155238Y-75883333D01*
X181250476Y-75930952D01*
X181298095Y-75978571D01*
X181345714Y-76073809D01*
X181345714Y-76311904D01*
X181298095Y-76407142D01*
X181250476Y-76454761D01*
X181155238Y-76502380D01*
X180917142Y-76502380D01*
X180821904Y-76454761D01*
X180774285Y-76407142D01*
X180383333Y-72107142D02*
X180335714Y-72154761D01*
X180192857Y-72202380D01*
X180097619Y-72202380D01*
X179954761Y-72154761D01*
X179859523Y-72059523D01*
X179811904Y-71964285D01*
X179764285Y-71773809D01*
X179764285Y-71630952D01*
X179811904Y-71440476D01*
X179859523Y-71345238D01*
X179954761Y-71250000D01*
X180097619Y-71202380D01*
X180192857Y-71202380D01*
X180335714Y-71250000D01*
X180383333Y-71297619D01*
X181240476Y-71535714D02*
X181240476Y-72202380D01*
X181002380Y-71154761D02*
X180764285Y-71869047D01*
X181383333Y-71869047D01*
X180383333Y-70587142D02*
X180335714Y-70634761D01*
X180192857Y-70682380D01*
X180097619Y-70682380D01*
X179954761Y-70634761D01*
X179859523Y-70539523D01*
X179811904Y-70444285D01*
X179764285Y-70253809D01*
X179764285Y-70110952D01*
X179811904Y-69920476D01*
X179859523Y-69825238D01*
X179954761Y-69730000D01*
X180097619Y-69682380D01*
X180192857Y-69682380D01*
X180335714Y-69730000D01*
X180383333Y-69777619D01*
X180716666Y-69682380D02*
X181335714Y-69682380D01*
X181002380Y-70063333D01*
X181145238Y-70063333D01*
X181240476Y-70110952D01*
X181288095Y-70158571D01*
X181335714Y-70253809D01*
X181335714Y-70491904D01*
X181288095Y-70587142D01*
X181240476Y-70634761D01*
X181145238Y-70682380D01*
X180859523Y-70682380D01*
X180764285Y-70634761D01*
X180716666Y-70587142D01*
X180383333Y-66247142D02*
X180335714Y-66294761D01*
X180192857Y-66342380D01*
X180097619Y-66342380D01*
X179954761Y-66294761D01*
X179859523Y-66199523D01*
X179811904Y-66104285D01*
X179764285Y-65913809D01*
X179764285Y-65770952D01*
X179811904Y-65580476D01*
X179859523Y-65485238D01*
X179954761Y-65390000D01*
X180097619Y-65342380D01*
X180192857Y-65342380D01*
X180335714Y-65390000D01*
X180383333Y-65437619D01*
X180764285Y-65437619D02*
X180811904Y-65390000D01*
X180907142Y-65342380D01*
X181145238Y-65342380D01*
X181240476Y-65390000D01*
X181288095Y-65437619D01*
X181335714Y-65532857D01*
X181335714Y-65628095D01*
X181288095Y-65770952D01*
X180716666Y-66342380D01*
X181335714Y-66342380D01*
X180413333Y-81497142D02*
X180365714Y-81544761D01*
X180222857Y-81592380D01*
X180127619Y-81592380D01*
X179984761Y-81544761D01*
X179889523Y-81449523D01*
X179841904Y-81354285D01*
X179794285Y-81163809D01*
X179794285Y-81020952D01*
X179841904Y-80830476D01*
X179889523Y-80735238D01*
X179984761Y-80640000D01*
X180127619Y-80592380D01*
X180222857Y-80592380D01*
X180365714Y-80640000D01*
X180413333Y-80687619D01*
X181365714Y-81592380D02*
X180794285Y-81592380D01*
X181080000Y-81592380D02*
X181080000Y-80592380D01*
X180984761Y-80735238D01*
X180889523Y-80830476D01*
X180794285Y-80878095D01*
X169508095Y-63642380D02*
X169508095Y-64451904D01*
X169555714Y-64547142D01*
X169603333Y-64594761D01*
X169698571Y-64642380D01*
X169889047Y-64642380D01*
X169984285Y-64594761D01*
X170031904Y-64547142D01*
X170079523Y-64451904D01*
X170079523Y-63642380D01*
X171079523Y-64642380D02*
X170508095Y-64642380D01*
X170793809Y-64642380D02*
X170793809Y-63642380D01*
X170698571Y-63785238D01*
X170603333Y-63880476D01*
X170508095Y-63928095D01*
X150560880Y-81579833D02*
X151275166Y-81579833D01*
X151418023Y-81627452D01*
X151513261Y-81722690D01*
X151560880Y-81865547D01*
X151560880Y-81960785D01*
X150656119Y-81151261D02*
X150608500Y-81103642D01*
X150560880Y-81008404D01*
X150560880Y-80770309D01*
X150608500Y-80675071D01*
X150656119Y-80627452D01*
X150751357Y-80579833D01*
X150846595Y-80579833D01*
X150989452Y-80627452D01*
X151560880Y-81198880D01*
X151560880Y-80579833D01*
X152242380Y-81200000D02*
X152480476Y-81200000D01*
X152385238Y-81438095D02*
X152480476Y-81200000D01*
X152385238Y-80961904D01*
X152670952Y-81342857D02*
X152480476Y-81200000D01*
X152670952Y-81057142D01*
X182346666Y-63102380D02*
X182346666Y-63816666D01*
X182299047Y-63959523D01*
X182203809Y-64054761D01*
X182060952Y-64102380D01*
X181965714Y-64102380D01*
X183299047Y-63102380D02*
X182822857Y-63102380D01*
X182775238Y-63578571D01*
X182822857Y-63530952D01*
X182918095Y-63483333D01*
X183156190Y-63483333D01*
X183251428Y-63530952D01*
X183299047Y-63578571D01*
X183346666Y-63673809D01*
X183346666Y-63911904D01*
X183299047Y-64007142D01*
X183251428Y-64054761D01*
X183156190Y-64102380D01*
X182918095Y-64102380D01*
X182822857Y-64054761D01*
X182775238Y-64007142D01*
X150730880Y-67941833D02*
X151445166Y-67941833D01*
X151588023Y-67989452D01*
X151683261Y-68084690D01*
X151730880Y-68227547D01*
X151730880Y-68322785D01*
X151730880Y-66941833D02*
X151730880Y-67513261D01*
X151730880Y-67227547D02*
X150730880Y-67227547D01*
X150873738Y-67322785D01*
X150968976Y-67418023D01*
X151016595Y-67513261D01*
X152192380Y-67765000D02*
X152430476Y-67765000D01*
X152335238Y-68003095D02*
X152430476Y-67765000D01*
X152335238Y-67526904D01*
X152620952Y-67907857D02*
X152430476Y-67765000D01*
X152620952Y-67622142D01*
D11*
X170550000Y-91785000D02*
X172500000Y-91785000D01*
X170550000Y-91785000D02*
X168600000Y-91785000D01*
X170550000Y-82915000D02*
X172500000Y-82915000D01*
X170550000Y-82915000D02*
X167100000Y-82915000D01*
X178244724Y-91682500D02*
X177735276Y-91682500D01*
X178244724Y-90637500D02*
X177735276Y-90637500D01*
X178244724Y-90162500D02*
X177735276Y-90162500D01*
X178244724Y-89117500D02*
X177735276Y-89117500D01*
X178244724Y-87872500D02*
X177735276Y-87872500D01*
X178244724Y-86827500D02*
X177735276Y-86827500D01*
X178244724Y-85332500D02*
X177735276Y-85332500D01*
X178244724Y-84287500D02*
X177735276Y-84287500D01*
X178234724Y-79122500D02*
X177725276Y-79122500D01*
X178234724Y-78077500D02*
X177725276Y-78077500D01*
X178234724Y-74032500D02*
X177725276Y-74032500D01*
X178234724Y-72987500D02*
X177725276Y-72987500D01*
X178234724Y-68962500D02*
X177725276Y-68962500D01*
X178234724Y-67917500D02*
X177725276Y-67917500D01*
X178244724Y-63882500D02*
X177735276Y-63882500D01*
X178244724Y-62837500D02*
X177735276Y-62837500D01*
X162837500Y-80514724D02*
X162837500Y-80005276D01*
X163882500Y-80514724D02*
X163882500Y-80005276D01*
X163892500Y-76645276D02*
X163892500Y-77154724D01*
X162847500Y-76645276D02*
X162847500Y-77154724D01*
X162847500Y-70314724D02*
X162847500Y-69805276D01*
X163892500Y-70314724D02*
X163892500Y-69805276D01*
X162847500Y-65244724D02*
X162847500Y-64735276D01*
X163892500Y-65244724D02*
X163892500Y-64735276D01*
X178136267Y-76560000D02*
X177843733Y-76560000D01*
X178136267Y-75540000D02*
X177843733Y-75540000D01*
X178116267Y-72260000D02*
X177823733Y-72260000D01*
X178116267Y-71240000D02*
X177823733Y-71240000D01*
X178116267Y-70740000D02*
X177823733Y-70740000D01*
X178116267Y-69720000D02*
X177823733Y-69720000D01*
X178126267Y-66400000D02*
X177833733Y-66400000D01*
X178126267Y-65380000D02*
X177833733Y-65380000D01*
X178136267Y-81650000D02*
X177843733Y-81650000D01*
X178136267Y-80630000D02*
X177843733Y-80630000D01*
X169210000Y-62030000D02*
G75*
G03*
X171210000Y-62030000I1000000J0D01*
G01*
X169210000Y-62030000D02*
X166975000Y-62030000D01*
X166975000Y-62030000D02*
X166975000Y-82470000D01*
X166975000Y-82470000D02*
X173445000Y-82470000D01*
X173445000Y-82470000D02*
X173445000Y-62030000D01*
X173445000Y-62030000D02*
X171210000Y-62030000D01*
X151790000Y-75350000D02*
X151790000Y-76375000D01*
X143915000Y-76377999D02*
X143915000Y-87675000D01*
X151790000Y-76375000D02*
X143915000Y-76377999D01*
X161517000Y-75348000D02*
X151790000Y-75350000D01*
X152115000Y-87677000D02*
X152117000Y-86000000D01*
X152117000Y-86000000D02*
X161515000Y-86016000D01*
X161515000Y-86016000D02*
X161517000Y-75348000D01*
X143915000Y-87675000D02*
X152115000Y-87677000D01*
X184090000Y-64770000D02*
X186750000Y-64770000D01*
X184090000Y-64770000D02*
X184090000Y-92770000D01*
X184090000Y-62170000D02*
X185420000Y-62170000D01*
X184090000Y-63500000D02*
X184090000Y-62170000D01*
X186750000Y-64770000D02*
X186750000Y-92770000D01*
X184090000Y-92770000D02*
X186750000Y-92770000D01*
X152115000Y-74217000D02*
X152117000Y-72540000D01*
X151790000Y-61890000D02*
X151790000Y-62915000D01*
X161517000Y-61888000D02*
X151790000Y-61890000D01*
X151790000Y-62915000D02*
X143915000Y-62917999D01*
X143915000Y-62917999D02*
X143915000Y-74215000D01*
X152117000Y-72540000D02*
X161515000Y-72556000D01*
X143915000Y-74215000D02*
X152115000Y-74217000D01*
X161515000Y-72556000D02*
X161517000Y-61888000D01*
%LPC*%
D12*
X168075000Y-83540000D03*
X168075000Y-84810000D03*
X168075000Y-86080000D03*
X168075000Y-87350000D03*
X168075000Y-88620000D03*
X168075000Y-89890000D03*
X168075000Y-91160000D03*
X173025000Y-91160000D03*
X173025000Y-89890000D03*
X173025000Y-88620000D03*
X173025000Y-87350000D03*
X173025000Y-86080000D03*
X173025000Y-84810000D03*
X173025000Y-83540000D03*
D13*
X178902500Y-91160000D03*
X177077500Y-91160000D03*
X178902500Y-89640000D03*
X177077500Y-89640000D03*
X178902500Y-87350000D03*
X177077500Y-87350000D03*
X178902500Y-84810000D03*
X177077500Y-84810000D03*
X178892500Y-78600000D03*
X177067500Y-78600000D03*
X178892500Y-73510000D03*
X177067500Y-73510000D03*
X178892500Y-68440000D03*
X177067500Y-68440000D03*
X178902500Y-63360000D03*
X177077500Y-63360000D03*
D14*
X163360000Y-81172500D03*
X163360000Y-79347500D03*
D15*
X163370000Y-75987500D03*
X163370000Y-77812500D03*
D14*
X163370000Y-70972500D03*
X163370000Y-69147500D03*
X163370000Y-65902500D03*
X163370000Y-64077500D03*
D16*
X178852500Y-76050000D03*
X177127500Y-76050000D03*
X178832500Y-71750000D03*
X177107500Y-71750000D03*
X178832500Y-70230000D03*
X177107500Y-70230000D03*
X178842500Y-65890000D03*
X177117500Y-65890000D03*
X178852500Y-81140000D03*
X177127500Y-81140000D03*
D17*
X165445000Y-63360000D03*
X174975000Y-81140000D03*
X165445000Y-65900000D03*
X174975000Y-78600000D03*
X165445000Y-68440000D03*
X174975000Y-76060000D03*
X165445000Y-70980000D03*
X174975000Y-73520000D03*
X165445000Y-73520000D03*
X174975000Y-70980000D03*
X165445000Y-76060000D03*
X174975000Y-68440000D03*
X165445000Y-78600000D03*
X174975000Y-65900000D03*
X165445000Y-81140000D03*
X174975000Y-63360000D03*
D18*
X147140000Y-85650000D03*
D19*
X147140000Y-82150000D03*
X147140000Y-78650000D03*
X158640000Y-84150000D03*
X158640000Y-80650000D03*
D20*
X158640000Y-77150000D03*
D21*
X185420000Y-63500000D03*
D22*
X185420000Y-66040000D03*
X185420000Y-68580000D03*
X185420000Y-71120000D03*
X185420000Y-73660000D03*
X185420000Y-76200000D03*
X185420000Y-78740000D03*
X185420000Y-81280000D03*
X185420000Y-83820000D03*
X185420000Y-86360000D03*
X185420000Y-88900000D03*
X185420000Y-91440000D03*
D18*
X147140000Y-72190000D03*
D19*
X147140000Y-68690000D03*
X147140000Y-65190000D03*
X158640000Y-70690000D03*
X158640000Y-67190000D03*
D20*
X158640000Y-63690000D03*
M02*
