G04 #@! TF.GenerationSoftware,KiCad,Pcbnew,(6.0.0)*
G04 #@! TF.CreationDate,2022-03-05T18:05:18-06:00*
G04 #@! TF.ProjectId,Clearpath MotorDriver Mosfet,436c6561-7270-4617-9468-204d6f746f72,rev?*
G04 #@! TF.SameCoordinates,Original*
G04 #@! TF.FileFunction,Legend,Bot*
G04 #@! TF.FilePolarity,Positive*
%FSLAX46Y46*%
G04 Gerber Fmt 4.6, Leading zero omitted, Abs format (unit mm)*
G04 Created by KiCad (PCBNEW (6.0.0)) date 2022-03-05 18:05:18*
%MOMM*%
%LPD*%
G01*
G04 APERTURE LIST*
%ADD10C,0.150000*%
%ADD11R,2.000000X1.200000*%
%ADD12O,2.000000X1.200000*%
%ADD13C,1.524000*%
G04 APERTURE END LIST*
D10*
X102622380Y-103823333D02*
X102146190Y-103490000D01*
X102622380Y-103251904D02*
X101622380Y-103251904D01*
X101622380Y-103632857D01*
X101670000Y-103728095D01*
X101717619Y-103775714D01*
X101812857Y-103823333D01*
X101955714Y-103823333D01*
X102050952Y-103775714D01*
X102098571Y-103728095D01*
X102146190Y-103632857D01*
X102146190Y-103251904D01*
X102622380Y-104775714D02*
X102622380Y-104204285D01*
X102622380Y-104490000D02*
X101622380Y-104490000D01*
X101765238Y-104394761D01*
X101860476Y-104299523D01*
X101908095Y-104204285D01*
X102592380Y-99543333D02*
X102116190Y-99210000D01*
X102592380Y-98971904D02*
X101592380Y-98971904D01*
X101592380Y-99352857D01*
X101640000Y-99448095D01*
X101687619Y-99495714D01*
X101782857Y-99543333D01*
X101925714Y-99543333D01*
X102020952Y-99495714D01*
X102068571Y-99448095D01*
X102116190Y-99352857D01*
X102116190Y-98971904D01*
X101592380Y-100448095D02*
X101592380Y-99971904D01*
X102068571Y-99924285D01*
X102020952Y-99971904D01*
X101973333Y-100067142D01*
X101973333Y-100305238D01*
X102020952Y-100400476D01*
X102068571Y-100448095D01*
X102163809Y-100495714D01*
X102401904Y-100495714D01*
X102497142Y-100448095D01*
X102544761Y-100400476D01*
X102592380Y-100305238D01*
X102592380Y-100067142D01*
X102544761Y-99971904D01*
X102497142Y-99924285D01*
X99902380Y-99583333D02*
X99426190Y-99250000D01*
X99902380Y-99011904D02*
X98902380Y-99011904D01*
X98902380Y-99392857D01*
X98950000Y-99488095D01*
X98997619Y-99535714D01*
X99092857Y-99583333D01*
X99235714Y-99583333D01*
X99330952Y-99535714D01*
X99378571Y-99488095D01*
X99426190Y-99392857D01*
X99426190Y-99011904D01*
X98902380Y-100440476D02*
X98902380Y-100250000D01*
X98950000Y-100154761D01*
X98997619Y-100107142D01*
X99140476Y-100011904D01*
X99330952Y-99964285D01*
X99711904Y-99964285D01*
X99807142Y-100011904D01*
X99854761Y-100059523D01*
X99902380Y-100154761D01*
X99902380Y-100345238D01*
X99854761Y-100440476D01*
X99807142Y-100488095D01*
X99711904Y-100535714D01*
X99473809Y-100535714D01*
X99378571Y-100488095D01*
X99330952Y-100440476D01*
X99283333Y-100345238D01*
X99283333Y-100154761D01*
X99330952Y-100059523D01*
X99378571Y-100011904D01*
X99473809Y-99964285D01*
X99882380Y-103623333D02*
X99406190Y-103290000D01*
X99882380Y-103051904D02*
X98882380Y-103051904D01*
X98882380Y-103432857D01*
X98930000Y-103528095D01*
X98977619Y-103575714D01*
X99072857Y-103623333D01*
X99215714Y-103623333D01*
X99310952Y-103575714D01*
X99358571Y-103528095D01*
X99406190Y-103432857D01*
X99406190Y-103051904D01*
X98977619Y-104004285D02*
X98930000Y-104051904D01*
X98882380Y-104147142D01*
X98882380Y-104385238D01*
X98930000Y-104480476D01*
X98977619Y-104528095D01*
X99072857Y-104575714D01*
X99168095Y-104575714D01*
X99310952Y-104528095D01*
X99882380Y-103956666D01*
X99882380Y-104575714D01*
X99992380Y-95563333D02*
X99516190Y-95230000D01*
X99992380Y-94991904D02*
X98992380Y-94991904D01*
X98992380Y-95372857D01*
X99040000Y-95468095D01*
X99087619Y-95515714D01*
X99182857Y-95563333D01*
X99325714Y-95563333D01*
X99420952Y-95515714D01*
X99468571Y-95468095D01*
X99516190Y-95372857D01*
X99516190Y-94991904D01*
X99325714Y-96420476D02*
X99992380Y-96420476D01*
X98944761Y-96182380D02*
X99659047Y-95944285D01*
X99659047Y-96563333D01*
X102582380Y-95383333D02*
X102106190Y-95050000D01*
X102582380Y-94811904D02*
X101582380Y-94811904D01*
X101582380Y-95192857D01*
X101630000Y-95288095D01*
X101677619Y-95335714D01*
X101772857Y-95383333D01*
X101915714Y-95383333D01*
X102010952Y-95335714D01*
X102058571Y-95288095D01*
X102106190Y-95192857D01*
X102106190Y-94811904D01*
X101582380Y-95716666D02*
X101582380Y-96335714D01*
X101963333Y-96002380D01*
X101963333Y-96145238D01*
X102010952Y-96240476D01*
X102058571Y-96288095D01*
X102153809Y-96335714D01*
X102391904Y-96335714D01*
X102487142Y-96288095D01*
X102534761Y-96240476D01*
X102582380Y-96145238D01*
X102582380Y-95859523D01*
X102534761Y-95764285D01*
X102487142Y-95716666D01*
%LPC*%
D11*
X104723000Y-106726000D03*
D12*
X104723000Y-104186000D03*
X104723000Y-101646000D03*
X104723000Y-99106000D03*
X104723000Y-96566000D03*
X104723000Y-94026000D03*
X104723000Y-91486000D03*
X104723000Y-88946000D03*
X92023000Y-88946000D03*
X92023000Y-91486000D03*
X92023000Y-94026000D03*
X92023000Y-96566000D03*
X92023000Y-99106000D03*
X92023000Y-101646000D03*
X92023000Y-104186000D03*
X92023000Y-106726000D03*
D13*
X99643000Y-106726000D03*
X102183000Y-106726000D03*
M02*
