G04 #@! TF.GenerationSoftware,KiCad,Pcbnew,(6.0.0)*
G04 #@! TF.CreationDate,2022-03-05T18:05:18-06:00*
G04 #@! TF.ProjectId,Clearpath MotorDriver Mosfet,436c6561-7270-4617-9468-204d6f746f72,rev?*
G04 #@! TF.SameCoordinates,Original*
G04 #@! TF.FileFunction,Copper,L2,Bot*
G04 #@! TF.FilePolarity,Positive*
%FSLAX46Y46*%
G04 Gerber Fmt 4.6, Leading zero omitted, Abs format (unit mm)*
G04 Created by KiCad (PCBNEW (6.0.0)) date 2022-03-05 18:05:18*
%MOMM*%
%LPD*%
G01*
G04 APERTURE LIST*
G04 #@! TA.AperFunction,ComponentPad*
%ADD10R,2.000000X1.200000*%
G04 #@! TD*
G04 #@! TA.AperFunction,ComponentPad*
%ADD11O,2.000000X1.200000*%
G04 #@! TD*
G04 #@! TA.AperFunction,ComponentPad*
%ADD12C,1.524000*%
G04 #@! TD*
G04 #@! TA.AperFunction,ViaPad*
%ADD13C,0.800000*%
G04 #@! TD*
G04 #@! TA.AperFunction,ViaPad*
%ADD14C,1.000000*%
G04 #@! TD*
G04 #@! TA.AperFunction,Conductor*
%ADD15C,0.250000*%
G04 #@! TD*
G04 #@! TA.AperFunction,Conductor*
%ADD16C,1.000000*%
G04 #@! TD*
G04 APERTURE END LIST*
D10*
X104723000Y-106726000D03*
D11*
X104723000Y-104186000D03*
X104723000Y-101646000D03*
X104723000Y-99106000D03*
X104723000Y-96566000D03*
X104723000Y-94026000D03*
X104723000Y-91486000D03*
X104723000Y-88946000D03*
X92023000Y-88946000D03*
X92023000Y-91486000D03*
X92023000Y-94026000D03*
X92023000Y-96566000D03*
X92023000Y-99106000D03*
X92023000Y-101646000D03*
X92023000Y-104186000D03*
X92023000Y-106726000D03*
D12*
X99643000Y-106726000D03*
X102183000Y-106726000D03*
D13*
X100950000Y-97690000D03*
D14*
X98171000Y-94869000D03*
X98171000Y-90551000D03*
X98171000Y-102997000D03*
X98171000Y-98679000D03*
D13*
X100965000Y-94615000D03*
D15*
X100950000Y-97700000D02*
X100950000Y-97690000D01*
X101981000Y-96669000D02*
X100950000Y-97700000D01*
X103078000Y-91486000D02*
X101981000Y-92583000D01*
X101981000Y-92583000D02*
X101981000Y-96669000D01*
X104723000Y-91486000D02*
X103078000Y-91486000D01*
D16*
X98171000Y-103505000D02*
X98171000Y-102997000D01*
X98171000Y-89281000D02*
X97836000Y-88946000D01*
X97490000Y-104186000D02*
X98171000Y-103505000D01*
X98171000Y-94869000D02*
X98171000Y-90551000D01*
X98171000Y-90551000D02*
X98171000Y-89281000D01*
X92023000Y-104186000D02*
X97490000Y-104186000D01*
X98171000Y-102997000D02*
X98171000Y-98679000D01*
X98171000Y-98679000D02*
X98171000Y-94869000D01*
X97836000Y-88946000D02*
X92023000Y-88946000D01*
D15*
X100965000Y-89662000D02*
X100965000Y-94615000D01*
X101681000Y-88946000D02*
X100965000Y-89662000D01*
X104723000Y-88946000D02*
X101681000Y-88946000D01*
M02*
