G04 #@! TF.GenerationSoftware,KiCad,Pcbnew,(6.0.0)*
G04 #@! TF.CreationDate,2022-03-05T18:05:18-06:00*
G04 #@! TF.ProjectId,Clearpath MotorDriver Mosfet,436c6561-7270-4617-9468-204d6f746f72,rev?*
G04 #@! TF.SameCoordinates,Original*
G04 #@! TF.FileFunction,Legend,Top*
G04 #@! TF.FilePolarity,Positive*
%FSLAX46Y46*%
G04 Gerber Fmt 4.6, Leading zero omitted, Abs format (unit mm)*
G04 Created by KiCad (PCBNEW (6.0.0)) date 2022-03-05 18:05:18*
%MOMM*%
%LPD*%
G01*
G04 APERTURE LIST*
G04 Aperture macros list*
%AMRoundRect*
0 Rectangle with rounded corners*
0 $1 Rounding radius*
0 $2 $3 $4 $5 $6 $7 $8 $9 X,Y pos of 4 corners*
0 Add a 4 corners polygon primitive as box body*
4,1,4,$2,$3,$4,$5,$6,$7,$8,$9,$2,$3,0*
0 Add four circle primitives for the rounded corners*
1,1,$1+$1,$2,$3*
1,1,$1+$1,$4,$5*
1,1,$1+$1,$6,$7*
1,1,$1+$1,$8,$9*
0 Add four rect primitives between the rounded corners*
20,1,$1+$1,$2,$3,$4,$5,0*
20,1,$1+$1,$4,$5,$6,$7,0*
20,1,$1+$1,$6,$7,$8,$9,0*
20,1,$1+$1,$8,$9,$2,$3,0*%
G04 Aperture macros list end*
%ADD10C,0.150000*%
%ADD11C,0.120000*%
%ADD12RoundRect,0.150000X0.587500X0.150000X-0.587500X0.150000X-0.587500X-0.150000X0.587500X-0.150000X0*%
%ADD13RoundRect,0.237500X-0.237500X0.250000X-0.237500X-0.250000X0.237500X-0.250000X0.237500X0.250000X0*%
%ADD14RoundRect,0.237500X0.237500X-0.250000X0.237500X0.250000X-0.237500X0.250000X-0.237500X-0.250000X0*%
%ADD15R,2.000000X1.200000*%
%ADD16O,2.000000X1.200000*%
%ADD17C,1.524000*%
G04 APERTURE END LIST*
D10*
X95027619Y-97335238D02*
X94980000Y-97430476D01*
X94884761Y-97525714D01*
X94741904Y-97668571D01*
X94694285Y-97763809D01*
X94694285Y-97859047D01*
X94932380Y-97811428D02*
X94884761Y-97906666D01*
X94789523Y-98001904D01*
X94599047Y-98049523D01*
X94265714Y-98049523D01*
X94075238Y-98001904D01*
X93980000Y-97906666D01*
X93932380Y-97811428D01*
X93932380Y-97620952D01*
X93980000Y-97525714D01*
X94075238Y-97430476D01*
X94265714Y-97382857D01*
X94599047Y-97382857D01*
X94789523Y-97430476D01*
X94884761Y-97525714D01*
X94932380Y-97620952D01*
X94932380Y-97811428D01*
X94027619Y-97001904D02*
X93980000Y-96954285D01*
X93932380Y-96859047D01*
X93932380Y-96620952D01*
X93980000Y-96525714D01*
X94027619Y-96478095D01*
X94122857Y-96430476D01*
X94218095Y-96430476D01*
X94360952Y-96478095D01*
X94932380Y-97049523D01*
X94932380Y-96430476D01*
X95047619Y-93305238D02*
X95000000Y-93400476D01*
X94904761Y-93495714D01*
X94761904Y-93638571D01*
X94714285Y-93733809D01*
X94714285Y-93829047D01*
X94952380Y-93781428D02*
X94904761Y-93876666D01*
X94809523Y-93971904D01*
X94619047Y-94019523D01*
X94285714Y-94019523D01*
X94095238Y-93971904D01*
X94000000Y-93876666D01*
X93952380Y-93781428D01*
X93952380Y-93590952D01*
X94000000Y-93495714D01*
X94095238Y-93400476D01*
X94285714Y-93352857D01*
X94619047Y-93352857D01*
X94809523Y-93400476D01*
X94904761Y-93495714D01*
X94952380Y-93590952D01*
X94952380Y-93781428D01*
X94285714Y-92495714D02*
X94952380Y-92495714D01*
X93904761Y-92733809D02*
X94619047Y-92971904D01*
X94619047Y-92352857D01*
X95037619Y-105475238D02*
X94990000Y-105570476D01*
X94894761Y-105665714D01*
X94751904Y-105808571D01*
X94704285Y-105903809D01*
X94704285Y-105999047D01*
X94942380Y-105951428D02*
X94894761Y-106046666D01*
X94799523Y-106141904D01*
X94609047Y-106189523D01*
X94275714Y-106189523D01*
X94085238Y-106141904D01*
X93990000Y-106046666D01*
X93942380Y-105951428D01*
X93942380Y-105760952D01*
X93990000Y-105665714D01*
X94085238Y-105570476D01*
X94275714Y-105522857D01*
X94609047Y-105522857D01*
X94799523Y-105570476D01*
X94894761Y-105665714D01*
X94942380Y-105760952D01*
X94942380Y-105951428D01*
X94942380Y-104570476D02*
X94942380Y-105141904D01*
X94942380Y-104856190D02*
X93942380Y-104856190D01*
X94085238Y-104951428D01*
X94180476Y-105046666D01*
X94228095Y-105141904D01*
X95027619Y-101335238D02*
X94980000Y-101430476D01*
X94884761Y-101525714D01*
X94741904Y-101668571D01*
X94694285Y-101763809D01*
X94694285Y-101859047D01*
X94932380Y-101811428D02*
X94884761Y-101906666D01*
X94789523Y-102001904D01*
X94599047Y-102049523D01*
X94265714Y-102049523D01*
X94075238Y-102001904D01*
X93980000Y-101906666D01*
X93932380Y-101811428D01*
X93932380Y-101620952D01*
X93980000Y-101525714D01*
X94075238Y-101430476D01*
X94265714Y-101382857D01*
X94599047Y-101382857D01*
X94789523Y-101430476D01*
X94884761Y-101525714D01*
X94932380Y-101620952D01*
X94932380Y-101811428D01*
X93932380Y-101049523D02*
X93932380Y-100430476D01*
X94313333Y-100763809D01*
X94313333Y-100620952D01*
X94360952Y-100525714D01*
X94408571Y-100478095D01*
X94503809Y-100430476D01*
X94741904Y-100430476D01*
X94837142Y-100478095D01*
X94884761Y-100525714D01*
X94932380Y-100620952D01*
X94932380Y-100906666D01*
X94884761Y-101001904D01*
X94837142Y-101049523D01*
X97086666Y-106312380D02*
X97086666Y-107026666D01*
X97039047Y-107169523D01*
X96943809Y-107264761D01*
X96800952Y-107312380D01*
X96705714Y-107312380D01*
X98086666Y-107312380D02*
X97515238Y-107312380D01*
X97800952Y-107312380D02*
X97800952Y-106312380D01*
X97705714Y-106455238D01*
X97610476Y-106550476D01*
X97515238Y-106598095D01*
X102642380Y-89176666D02*
X102166190Y-89510000D01*
X102642380Y-89748095D02*
X101642380Y-89748095D01*
X101642380Y-89367142D01*
X101690000Y-89271904D01*
X101737619Y-89224285D01*
X101832857Y-89176666D01*
X101975714Y-89176666D01*
X102070952Y-89224285D01*
X102118571Y-89271904D01*
X102166190Y-89367142D01*
X102166190Y-89748095D01*
X101642380Y-88843333D02*
X101642380Y-88176666D01*
X102642380Y-88605238D01*
X99992380Y-89196666D02*
X99516190Y-89530000D01*
X99992380Y-89768095D02*
X98992380Y-89768095D01*
X98992380Y-89387142D01*
X99040000Y-89291904D01*
X99087619Y-89244285D01*
X99182857Y-89196666D01*
X99325714Y-89196666D01*
X99420952Y-89244285D01*
X99468571Y-89291904D01*
X99516190Y-89387142D01*
X99516190Y-89768095D01*
X99420952Y-88625238D02*
X99373333Y-88720476D01*
X99325714Y-88768095D01*
X99230476Y-88815714D01*
X99182857Y-88815714D01*
X99087619Y-88768095D01*
X99040000Y-88720476D01*
X98992380Y-88625238D01*
X98992380Y-88434761D01*
X99040000Y-88339523D01*
X99087619Y-88291904D01*
X99182857Y-88244285D01*
X99230476Y-88244285D01*
X99325714Y-88291904D01*
X99373333Y-88339523D01*
X99420952Y-88434761D01*
X99420952Y-88625238D01*
X99468571Y-88720476D01*
X99516190Y-88768095D01*
X99611428Y-88815714D01*
X99801904Y-88815714D01*
X99897142Y-88768095D01*
X99944761Y-88720476D01*
X99992380Y-88625238D01*
X99992380Y-88434761D01*
X99944761Y-88339523D01*
X99897142Y-88291904D01*
X99801904Y-88244285D01*
X99611428Y-88244285D01*
X99516190Y-88291904D01*
X99468571Y-88339523D01*
X99420952Y-88434761D01*
D11*
X95885000Y-94198000D02*
X95235000Y-94198000D01*
X95885000Y-97318000D02*
X95235000Y-97318000D01*
X95885000Y-94198000D02*
X96535000Y-94198000D01*
X95885000Y-97318000D02*
X97560000Y-97318000D01*
X102630500Y-103631276D02*
X102630500Y-104140724D01*
X101585500Y-103631276D02*
X101585500Y-104140724D01*
X102630500Y-99313276D02*
X102630500Y-99822724D01*
X101585500Y-99313276D02*
X101585500Y-99822724D01*
X95885000Y-90007000D02*
X95235000Y-90007000D01*
X95885000Y-90007000D02*
X96535000Y-90007000D01*
X95885000Y-93127000D02*
X95235000Y-93127000D01*
X95885000Y-93127000D02*
X97560000Y-93127000D01*
X95885000Y-105446000D02*
X95235000Y-105446000D01*
X95885000Y-102326000D02*
X96535000Y-102326000D01*
X95885000Y-105446000D02*
X97560000Y-105446000D01*
X95885000Y-102326000D02*
X95235000Y-102326000D01*
X98918500Y-99949724D02*
X98918500Y-99440276D01*
X99963500Y-99949724D02*
X99963500Y-99440276D01*
X98918500Y-104140724D02*
X98918500Y-103631276D01*
X99963500Y-104140724D02*
X99963500Y-103631276D01*
X95885000Y-101255000D02*
X97560000Y-101255000D01*
X95885000Y-98135000D02*
X96535000Y-98135000D01*
X95885000Y-98135000D02*
X95235000Y-98135000D01*
X95885000Y-101255000D02*
X95235000Y-101255000D01*
X99963500Y-96012724D02*
X99963500Y-95503276D01*
X98918500Y-96012724D02*
X98918500Y-95503276D01*
X106722999Y-109326000D02*
X106723000Y-86346000D01*
X101156333Y-108966000D02*
X101156333Y-109326000D01*
X90023000Y-109326000D02*
X95589667Y-109326000D01*
X95589667Y-108966000D02*
X101156333Y-108966000D01*
X95589667Y-109326000D02*
X95589667Y-108966000D01*
X90023001Y-86346000D02*
X90023000Y-109326000D01*
X106723000Y-86346000D02*
X90023001Y-86346000D01*
X101156333Y-109326000D02*
X106722999Y-109326000D01*
X102630500Y-91312276D02*
X102630500Y-91821724D01*
X101585500Y-91312276D02*
X101585500Y-91821724D01*
X101585500Y-95376276D02*
X101585500Y-95885724D01*
X102630500Y-95376276D02*
X102630500Y-95885724D01*
X98918500Y-91821724D02*
X98918500Y-91312276D01*
X99963500Y-91821724D02*
X99963500Y-91312276D01*
%LPC*%
D12*
X96822500Y-96708000D03*
X96822500Y-94808000D03*
X94947500Y-95758000D03*
D13*
X102108000Y-102973500D03*
X102108000Y-104798500D03*
X102108000Y-98655500D03*
X102108000Y-100480500D03*
D12*
X96822500Y-92517000D03*
X96822500Y-90617000D03*
X94947500Y-91567000D03*
X96822500Y-104836000D03*
X96822500Y-102936000D03*
X94947500Y-103886000D03*
D14*
X99441000Y-100607500D03*
X99441000Y-98782500D03*
X99441000Y-104798500D03*
X99441000Y-102973500D03*
D12*
X96822500Y-100645000D03*
X96822500Y-98745000D03*
X94947500Y-99695000D03*
D14*
X99441000Y-96670500D03*
X99441000Y-94845500D03*
D15*
X104723000Y-106726000D03*
D16*
X104723000Y-104186000D03*
X104723000Y-101646000D03*
X104723000Y-99106000D03*
X104723000Y-96566000D03*
X104723000Y-94026000D03*
X104723000Y-91486000D03*
X104723000Y-88946000D03*
X92023000Y-88946000D03*
X92023000Y-91486000D03*
X92023000Y-94026000D03*
X92023000Y-96566000D03*
X92023000Y-99106000D03*
X92023000Y-101646000D03*
X92023000Y-104186000D03*
X92023000Y-106726000D03*
D17*
X99643000Y-106726000D03*
X102183000Y-106726000D03*
D13*
X102108000Y-90654500D03*
X102108000Y-92479500D03*
X102108000Y-94718500D03*
X102108000Y-96543500D03*
D14*
X99441000Y-92479500D03*
X99441000Y-90654500D03*
M02*
