M48
INCH,TZ
T1C0.0157
T2C0.0197
T3C0.0300
T4C0.0315
T5C0.0354
T6C0.0394
T7C0.0472
T8C0.1063
%
G90
G05
T1
X28000Y-17400
X29173Y-17126
X29200Y-28300
X29528Y-17913
X29528Y-17913
X29685Y-19213
X29809Y-18549
X30197Y-17283
X30300Y-41700
X30300Y-42200
X30394Y-20039
X30500Y-26900
X30709Y-17913
X31100Y-45300
X31260Y-17323
X31654Y-20276
X31800Y-34500
X31800Y-35400
X31850Y-22598
X31900Y-17300
X31900Y-36800
X32000Y-36200
X32400Y-24800
X32756Y-19724
X32800Y-45000
X33000Y-35700
X33100Y-44700
X33200Y-28100
X33400Y-25000
X33500Y-39000
X33504Y-22559
X33622Y-19764
X33780Y-24409
X34100Y-28100
X34200Y-24900
X34252Y-18031
X35000Y-22520
X35100Y-44600
X35100Y-45000
X35118Y-18386
X35200Y-25100
X35200Y-27900
X35400Y-17600
X35748Y-22913
X35787Y-24409
X35900Y-24000
X36085Y-17621
X36314Y-17300
X36398Y-12028
X36965Y-46900
X37115Y-23122
X37200Y-43600
X37200Y-14600
X37400Y-44900
X37441Y-24528
X37480Y-12028
X37500Y-24000
X37520Y-23465
X37800Y-46900
X38189Y-16575
X38189Y-25118
X38352Y-43648
X38378Y-44629
X38400Y-32200
X38600Y-31600
X38700Y-33600
X38701Y-13228
X38740Y-14094
X38993Y-31614
X39094Y-18314
X39100Y-27814
X39100Y-29200
X39213Y-14264
X39300Y-33400
X39300Y-37800
X39600Y-37000
X39700Y-17300
X39700Y-35200
X39800Y-44900
X40039Y-12323
X40200Y-44900
X40200Y-45600
X40500Y-42600
X40748Y-19488
X40787Y-20787
X40900Y-20200
X40900Y-45200
X40925Y-14213
X41000Y-18200
X41000Y-39200
X41186Y-44786
X41200Y-16800
X41358Y-14213
X41400Y-38900
X41700Y-33700
X41700Y-35200
X41700Y-37000
X42100Y-14200
X42200Y-16800
X42265Y-38940
X42300Y-23500
X42600Y-39200
X42677Y-11800
X43188Y-23801
X43200Y-11700
X43300Y-29100
X43579Y-23754
X43600Y-15400
X43600Y-38200
X43657Y-25536
X43700Y-35900
X43865Y-23477
X44000Y-31900
X44000Y-35200
X44117Y-23175
X44186Y-15386
X44200Y-11200
X44498Y-25598
X44500Y-27400
X44500Y-49300
X44600Y-16500
X44685Y-35543
X44700Y-15900
X44700Y-25200
X44700Y-38200
X45000Y-27400
X45079Y-18780
X45100Y-29300
X45309Y-18202
X45600Y-49900
X45662Y-18733
X46200Y-37100
X46200Y-39500
X46378Y-19409
X48200Y-39300
X48300Y-39900
X49700Y-38200
X50100Y-39000
X50236Y-21732
X51378Y-24213
X51378Y-21700
X51378Y-25689
X52200Y-40900
X53000Y-34800
X53400Y-56900
X53600Y-49200
X53700Y-18700
X53700Y-20669
X54100Y-40700
X54100Y-42100
X54232Y-46654
X54300Y-36500
X54400Y-38000
X54600Y-40700
X54600Y-42100
X54700Y-32400
X54800Y-33400
X54900Y-34300
X54919Y-33800
X55100Y-40700
X55100Y-42100
X55100Y-52300
X55200Y-53200
X55500Y-11800
X55500Y-44700
X55500Y-45200
X55580Y-45586
X55700Y-32000
X56100Y-32400
X56200Y-37100
X56300Y-39900
X56400Y-32700
X56584Y-39367
X56600Y-11700
X56618Y-33028
X56700Y-16100
X56988Y-45965
X57000Y-33314
X57200Y-42500
X57300Y-40400
X57480Y-21654
X57500Y-11200
X57500Y-22300
X57579Y-26673
X57600Y-32100
X57600Y-33600
X57700Y-42000
X57800Y-17200
X57800Y-18200
X57900Y-14500
X58023Y-44823
X58500Y-12300
X58500Y-38000
X58653Y-27699
X59000Y-38400
X59500Y-11900
X59800Y-30300
X60300Y-40700
X60500Y-11700
X60802Y-37502
X61200Y-40700
X61300Y-42000
X61450Y-29650
X61500Y-11400
X61800Y-42000
X62300Y-39000
X62400Y-36600
X62500Y-49300
X62800Y-35100
X62900Y-35500
X62900Y-40700
X63000Y-36000
X63148Y-22648
X63300Y-52300
X63300Y-41900
X63300Y-51300
X63583Y-21949
X63700Y-40700
X63793Y-41874
X63800Y-53300
X64000Y-35500
X64100Y-38700
X67800Y-37800
X67814Y-45586
X68100Y-49200
X68200Y-45200
X68800Y-40500
X68800Y-41600
X69300Y-40500
X69300Y-41600
X69800Y-40500
X70300Y-47800
X70500Y-47400
X71500Y-49200
X71600Y-46500
X71700Y-45900
X71714Y-45500
X72385Y-47413
X72686Y-45500
X72800Y-45086
X72986Y-45900
X73100Y-44600
X73500Y-47800
X74500Y-45400
X74600Y-40900
X74600Y-44400
X74600Y-46500
X74900Y-42600
X75200Y-41700
X75500Y-44400
T2
X33200Y-36400
X35950Y-55850
X36200Y-57900
X36800Y-38500
X38570Y-37130
X39200Y-36500
X39900Y-43500
X40100Y-36200
X44900Y-55800
X44900Y-57900
X49200Y-10800
X51100Y-26800
X51280Y-18701
X53127Y-20450
X54000Y-55800
X54000Y-57900
X54600Y-57100
X54600Y-58800
X57100Y-43100
X58100Y-43200
X62500Y-10800
X62800Y-55800
X62800Y-57900
X69400Y-16100
X71900Y-55800
X71900Y-57900
X72900Y-41700
X75800Y-15400
T3
X30450Y-49800
X31450Y-49800
X39450Y-49800
X40450Y-49800
X48450Y-49800
X49450Y-49800
X57450Y-49800
X58450Y-49800
X66450Y-49800
X67450Y-49800
X75450Y-49800
X76450Y-49800
T4
X24700Y-15900
X24700Y-25900
X24700Y-30150
X24700Y-40150
X25700Y-15900
X25700Y-25900
X25700Y-30150
X25700Y-40150
X26700Y-15900
X26700Y-25900
X26700Y-30150
X26700Y-40150
X27500Y-21200
X27700Y-15900
X27700Y-25900
X27700Y-30150
X27700Y-40150
X28700Y-15900
X28700Y-25900
X28700Y-30150
X28700Y-40150
X29450Y-49800
X29450Y-50800
X29450Y-51800
X29450Y-52800
X29450Y-53800
X29450Y-54800
X29450Y-55800
X29450Y-56800
X29700Y-15900
X29700Y-25900
X29700Y-30150
X29700Y-40150
X30000Y-21200
X30700Y-15900
X30700Y-25900
X30700Y-30150
X30700Y-40150
X31200Y-48000
X31400Y-44500
X31700Y-15900
X31700Y-25900
X31700Y-30150
X31700Y-40150
X32700Y-15900
X32700Y-25900
X32700Y-30150
X32700Y-40150
X33700Y-15900
X33700Y-25900
X33700Y-30150
X33700Y-40150
X34450Y-49800
X34450Y-50800
X34450Y-51800
X34450Y-52800
X34450Y-53800
X34450Y-54800
X34450Y-55800
X34450Y-56800
X34700Y-15900
X34700Y-25900
X34700Y-30150
X34700Y-40150
X35079Y-19724
X35700Y-15900
X35700Y-25900
X35700Y-30150
X35700Y-40150
X36700Y-15900
X36700Y-25900
X36700Y-30150
X36700Y-40150
X37700Y-15900
X37700Y-25900
X37700Y-30150
X37700Y-40150
X38450Y-49800
X38450Y-50800
X38450Y-51800
X38450Y-52800
X38450Y-53800
X38450Y-54800
X38450Y-55800
X38450Y-56800
X38700Y-15900
X38700Y-25900
X38700Y-30150
X38700Y-40150
X39700Y-15900
X39700Y-25900
X39700Y-30150
X39700Y-40150
X40700Y-15900
X40700Y-25900
X40700Y-30150
X40700Y-40150
X41700Y-15900
X41700Y-25900
X41700Y-30150
X41700Y-40150
X42300Y-48100
X42700Y-15900
X42700Y-25900
X42700Y-30150
X42700Y-40150
X43400Y-42200
X43450Y-49800
X43450Y-50800
X43450Y-51800
X43450Y-52800
X43450Y-53800
X43450Y-54800
X43450Y-55800
X43450Y-56800
X44213Y-18819
X44600Y-22300
X47050Y-21850
X47050Y-28350
X47150Y-34050
X47150Y-40550
X47450Y-49800
X47450Y-50800
X47450Y-51800
X47450Y-52800
X47450Y-53800
X47450Y-54800
X47450Y-55800
X47450Y-56800
X49000Y-48100
X49100Y-41800
X50017Y-23567
X52450Y-49800
X52450Y-50800
X52450Y-51800
X52450Y-52800
X52450Y-53800
X52450Y-54800
X52450Y-55800
X52450Y-56800
X55206Y-27206
X56450Y-49800
X56450Y-50800
X56450Y-51800
X56450Y-52800
X56450Y-53800
X56450Y-54800
X56450Y-55800
X56450Y-56800
X60100Y-14500
X60400Y-41924
X60500Y-48100
X61450Y-49800
X61450Y-50800
X61450Y-51800
X61450Y-52800
X61450Y-53800
X61450Y-54800
X61450Y-55800
X61450Y-56800
X62050Y-21850
X62050Y-28350
X62150Y-34050
X62150Y-40550
X65450Y-49800
X65450Y-50800
X65450Y-51800
X65450Y-52800
X65450Y-53800
X65450Y-54800
X65450Y-55800
X65450Y-56800
X65700Y-10824
X65700Y-12900
X66000Y-38700
X66100Y-16300
X66400Y-41924
X66400Y-48100
X67150Y-23950
X69500Y-23900
X70450Y-49800
X70450Y-50800
X70450Y-51800
X70450Y-52800
X70450Y-53800
X70450Y-54800
X70450Y-55800
X70450Y-56800
X72200Y-38700
X72300Y-37800
X74450Y-49800
X74450Y-50800
X74450Y-51800
X74450Y-52800
X74450Y-53800
X74450Y-54800
X74450Y-55800
X74450Y-56800
X75500Y-37600
X77200Y-46200
X78000Y-48100
X78200Y-41900
X79450Y-49800
X79450Y-50800
X79450Y-51800
X79450Y-52800
X79450Y-53800
X79450Y-54800
X79450Y-55800
X79450Y-56800
T5
X25200Y-41600
X28500Y-42200
X45824Y-30819
X47091Y-15854
X47091Y-16854
X47091Y-17854
X47091Y-18854
X48091Y-16354
X48091Y-17354
X48091Y-18354
X48091Y-19354
X62500Y-32800
T6
X26900Y-13100
X27900Y-13100
X28500Y-44700
X28500Y-45700
X28500Y-46700
X28900Y-13100
X29900Y-13100
X30000Y-59000
X30000Y-60000
X30900Y-13100
X31000Y-59000
X31000Y-60000
X31900Y-13100
X32000Y-59000
X32000Y-60000
X32900Y-13100
X33000Y-59000
X33000Y-60000
X33900Y-13100
X34000Y-59000
X34000Y-60000
X34900Y-13100
X35100Y-32000
X35100Y-33000
X35100Y-34000
X35100Y-35000
X35100Y-36000
X35100Y-37000
X35900Y-13100
X36100Y-32000
X36100Y-33000
X36100Y-34000
X36100Y-35000
X36100Y-36000
X36100Y-37000
X36900Y-13100
X37100Y-32000
X37100Y-33000
X37100Y-34000
X37100Y-35000
X37100Y-36000
X37100Y-37000
X37900Y-13100
X38307Y-11417
X39000Y-59000
X39000Y-60000
X39307Y-11417
X40000Y-59000
X40000Y-60000
X40100Y-31800
X40200Y-13100
X40827Y-11457
X41000Y-59000
X41000Y-60000
X41100Y-31800
X41200Y-13100
X41827Y-11457
X42000Y-59000
X42000Y-60000
X42200Y-13100
X43000Y-59000
X43000Y-60000
X43200Y-13100
X44200Y-13100
X45200Y-13100
X46200Y-13100
X47100Y-30300
X47100Y-31300
X47100Y-32300
X47200Y-13100
X48000Y-59000
X48000Y-60000
X48200Y-13100
X49000Y-59000
X49000Y-60000
X49200Y-13100
X49400Y-30350
X49400Y-31350
X49400Y-32350
X50000Y-59000
X50000Y-60000
X50200Y-13100
X51000Y-59000
X51000Y-60000
X51200Y-13100
X51700Y-30300
X51700Y-31300
X51700Y-32300
X52000Y-59000
X52000Y-60000
X53500Y-13100
X54000Y-30300
X54000Y-31300
X54000Y-32300
X54500Y-13100
X55500Y-13100
X56500Y-13100
X57000Y-59000
X57000Y-60000
X57500Y-13100
X58000Y-59000
X58000Y-60000
X58500Y-13100
X59000Y-59000
X59000Y-60000
X59500Y-13100
X60000Y-59000
X60000Y-60000
X60500Y-13100
X61000Y-59000
X61000Y-60000
X61500Y-13100
X62500Y-13100
X63200Y-25100
X63200Y-26100
X63200Y-27100
X63500Y-13100
X64500Y-13100
X64800Y-15550
X64800Y-16550
X64800Y-17550
X64800Y-18550
X64800Y-19550
X64800Y-20550
X64800Y-21550
X64800Y-22550
X64800Y-23550
X64800Y-24550
X64800Y-25550
X64800Y-26550
X64800Y-29050
X64800Y-30050
X64800Y-31050
X64800Y-32050
X64800Y-33050
X64800Y-34050
X64800Y-35050
X64800Y-36050
X64800Y-37050
X64800Y-38050
X64800Y-39050
X64800Y-40050
X66000Y-59000
X66000Y-60000
X67000Y-13100
X67000Y-59000
X67000Y-60000
X68000Y-13100
X68000Y-59000
X68000Y-60000
X69000Y-13100
X69000Y-59000
X69000Y-60000
X70000Y-13100
X70000Y-59000
X70000Y-60000
X71000Y-13100
X72000Y-13100
X73000Y-13100
X73500Y-59000
X73500Y-60000
X74000Y-13100
X74500Y-59000
X74500Y-60000
X75000Y-13100
X75500Y-59000
X75500Y-60000
X76000Y-13100
X76500Y-59000
X76500Y-60000
X77000Y-13100
X77500Y-59000
X77500Y-60000
X78000Y-13100
T7
X26100Y-43200
X26100Y-44578
X26100Y-47900
X26100Y-49278
X54100Y-29300
X57100Y-29300
X57900Y-34500
X60600Y-35800
X61800Y-31900
X77300Y-51900
X78150Y-37205
X78400Y-57100
X79200Y-58621
X79500Y-44600
T8
X25500Y-11500
X25500Y-60250
X45900Y-42100
X77500Y-16150
X77500Y-29650
X79500Y-11500
X79500Y-60250
T0
M30
