M48
; DRILL file {KiCad (6.0.0)} date Sat Apr 16 22:58:22 2022
; FORMAT={-:-/ absolute / metric / decimal}
; #@! TF.CreationDate,2022-04-16T22:58:22-07:00
; #@! TF.GenerationSoftware,Kicad,Pcbnew,(6.0.0)
; #@! TF.FileFunction,Plated,1,2,PTH
FMAT,2
METRIC
; #@! TA.AperFunction,Plated,PTH,ComponentDrill
T1C1.000
; #@! TA.AperFunction,Plated,PTH,ComponentDrill
T2C1.300
%
G90
G05
T1
X104.14Y-73.66
X104.14Y-76.2
X104.14Y-78.74
X104.14Y-81.28
X104.14Y-83.82
X104.14Y-86.36
X104.14Y-88.9
X104.14Y-91.44
X104.14Y-93.98
X104.14Y-96.52
X104.14Y-99.06
X104.14Y-101.6
X124.46Y-81.28
X124.46Y-83.82
X124.46Y-86.36
X124.46Y-93.98
X124.46Y-96.52
X124.46Y-99.06
T2
X129.37Y-94.51
X129.37Y-98.01
X129.37Y-101.51
X129.38Y-81.83
X129.38Y-85.33
X129.38Y-88.83
X140.87Y-93.01
X140.87Y-96.51
X140.87Y-100.01
X140.88Y-80.33
X140.88Y-83.83
X140.88Y-87.33
T0
M30
