G04 #@! TF.GenerationSoftware,KiCad,Pcbnew,(6.0.0)*
G04 #@! TF.CreationDate,2022-03-05T17:50:27-06:00*
G04 #@! TF.ProjectId,Output Module,4f757470-7574-4204-9d6f-64756c652e6b,rev?*
G04 #@! TF.SameCoordinates,Original*
G04 #@! TF.FileFunction,Legend,Top*
G04 #@! TF.FilePolarity,Positive*
%FSLAX46Y46*%
G04 Gerber Fmt 4.6, Leading zero omitted, Abs format (unit mm)*
G04 Created by KiCad (PCBNEW (6.0.0)) date 2022-03-05 17:50:27*
%MOMM*%
%LPD*%
G01*
G04 APERTURE LIST*
G04 Aperture macros list*
%AMRoundRect*
0 Rectangle with rounded corners*
0 $1 Rounding radius*
0 $2 $3 $4 $5 $6 $7 $8 $9 X,Y pos of 4 corners*
0 Add a 4 corners polygon primitive as box body*
4,1,4,$2,$3,$4,$5,$6,$7,$8,$9,$2,$3,0*
0 Add four circle primitives for the rounded corners*
1,1,$1+$1,$2,$3*
1,1,$1+$1,$4,$5*
1,1,$1+$1,$6,$7*
1,1,$1+$1,$8,$9*
0 Add four rect primitives between the rounded corners*
20,1,$1+$1,$2,$3,$4,$5,0*
20,1,$1+$1,$4,$5,$6,$7,0*
20,1,$1+$1,$6,$7,$8,$9,0*
20,1,$1+$1,$8,$9,$2,$3,0*%
G04 Aperture macros list end*
%ADD10C,0.150000*%
%ADD11C,0.300000*%
%ADD12C,0.100000*%
%ADD13C,0.120000*%
%ADD14RoundRect,0.100000X0.217500X0.100000X-0.217500X0.100000X-0.217500X-0.100000X0.217500X-0.100000X0*%
%ADD15RoundRect,0.100000X-0.217500X-0.100000X0.217500X-0.100000X0.217500X0.100000X-0.217500X0.100000X0*%
%ADD16R,2.400000X2.400000*%
%ADD17C,2.400000*%
%ADD18R,2.000000X1.500000*%
%ADD19R,2.000000X3.800000*%
%ADD20R,1.700000X1.700000*%
%ADD21O,1.700000X1.700000*%
%ADD22RoundRect,0.100000X0.130000X0.100000X-0.130000X0.100000X-0.130000X-0.100000X0.130000X-0.100000X0*%
G04 APERTURE END LIST*
D10*
X140068057Y-75500000D02*
G75*
G03*
X140068057Y-75500000I-2700057J0D01*
G01*
D11*
X135445571Y-102088142D02*
X136588428Y-102088142D01*
X136017000Y-102659571D02*
X136017000Y-101516714D01*
X136265928Y-94253142D02*
X136194500Y-94396000D01*
X136051642Y-94538857D01*
X135837357Y-94753142D01*
X135765928Y-94896000D01*
X135765928Y-95038857D01*
X136123071Y-94967428D02*
X136051642Y-95110285D01*
X135908785Y-95253142D01*
X135623071Y-95324571D01*
X135123071Y-95324571D01*
X134837357Y-95253142D01*
X134694500Y-95110285D01*
X134623071Y-94967428D01*
X134623071Y-94681714D01*
X134694500Y-94538857D01*
X134837357Y-94396000D01*
X135123071Y-94324571D01*
X135623071Y-94324571D01*
X135908785Y-94396000D01*
X136051642Y-94538857D01*
X136123071Y-94681714D01*
X136123071Y-94967428D01*
X135123071Y-93038857D02*
X136123071Y-93038857D01*
X135123071Y-93681714D02*
X135908785Y-93681714D01*
X136051642Y-93610285D01*
X136123071Y-93467428D01*
X136123071Y-93253142D01*
X136051642Y-93110285D01*
X135980214Y-93038857D01*
X136123071Y-91681714D02*
X135337357Y-91681714D01*
X135194500Y-91753142D01*
X135123071Y-91896000D01*
X135123071Y-92181714D01*
X135194500Y-92324571D01*
X136051642Y-91681714D02*
X136123071Y-91824571D01*
X136123071Y-92181714D01*
X136051642Y-92324571D01*
X135908785Y-92396000D01*
X135765928Y-92396000D01*
X135623071Y-92324571D01*
X135551642Y-92181714D01*
X135551642Y-91824571D01*
X135480214Y-91681714D01*
X136123071Y-90324571D02*
X134623071Y-90324571D01*
X136051642Y-90324571D02*
X136123071Y-90467428D01*
X136123071Y-90753142D01*
X136051642Y-90896000D01*
X135980214Y-90967428D01*
X135837357Y-91038857D01*
X135408785Y-91038857D01*
X135265928Y-90967428D01*
X135194500Y-90896000D01*
X135123071Y-90753142D01*
X135123071Y-90467428D01*
X135194500Y-90324571D01*
X136123071Y-88253142D02*
X136051642Y-88396000D01*
X135980214Y-88467428D01*
X135837357Y-88538857D01*
X135408785Y-88538857D01*
X135265928Y-88467428D01*
X135194500Y-88396000D01*
X135123071Y-88253142D01*
X135123071Y-88038857D01*
X135194500Y-87896000D01*
X135265928Y-87824571D01*
X135408785Y-87753142D01*
X135837357Y-87753142D01*
X135980214Y-87824571D01*
X136051642Y-87896000D01*
X136123071Y-88038857D01*
X136123071Y-88253142D01*
X135123071Y-86467428D02*
X136123071Y-86467428D01*
X135123071Y-87110285D02*
X135908785Y-87110285D01*
X136051642Y-87038857D01*
X136123071Y-86896000D01*
X136123071Y-86681714D01*
X136051642Y-86538857D01*
X135980214Y-86467428D01*
X135123071Y-85967428D02*
X135123071Y-85396000D01*
X134623071Y-85753142D02*
X135908785Y-85753142D01*
X136051642Y-85681714D01*
X136123071Y-85538857D01*
X136123071Y-85396000D01*
X135123071Y-84896000D02*
X136623071Y-84896000D01*
X135194500Y-84896000D02*
X135123071Y-84753142D01*
X135123071Y-84467428D01*
X135194500Y-84324571D01*
X135265928Y-84253142D01*
X135408785Y-84181714D01*
X135837357Y-84181714D01*
X135980214Y-84253142D01*
X136051642Y-84324571D01*
X136123071Y-84467428D01*
X136123071Y-84753142D01*
X136051642Y-84896000D01*
X135123071Y-82896000D02*
X136123071Y-82896000D01*
X135123071Y-83538857D02*
X135908785Y-83538857D01*
X136051642Y-83467428D01*
X136123071Y-83324571D01*
X136123071Y-83110285D01*
X136051642Y-82967428D01*
X135980214Y-82896000D01*
X135123071Y-82396000D02*
X135123071Y-81824571D01*
X134623071Y-82181714D02*
X135908785Y-82181714D01*
X136051642Y-82110285D01*
X136123071Y-81967428D01*
X136123071Y-81824571D01*
X138538071Y-92217428D02*
X137038071Y-92217428D01*
X138109500Y-91717428D01*
X137038071Y-91217428D01*
X138538071Y-91217428D01*
X138538071Y-90288857D02*
X138466642Y-90431714D01*
X138395214Y-90503142D01*
X138252357Y-90574571D01*
X137823785Y-90574571D01*
X137680928Y-90503142D01*
X137609500Y-90431714D01*
X137538071Y-90288857D01*
X137538071Y-90074571D01*
X137609500Y-89931714D01*
X137680928Y-89860285D01*
X137823785Y-89788857D01*
X138252357Y-89788857D01*
X138395214Y-89860285D01*
X138466642Y-89931714D01*
X138538071Y-90074571D01*
X138538071Y-90288857D01*
X138538071Y-88503142D02*
X137038071Y-88503142D01*
X138466642Y-88503142D02*
X138538071Y-88646000D01*
X138538071Y-88931714D01*
X138466642Y-89074571D01*
X138395214Y-89146000D01*
X138252357Y-89217428D01*
X137823785Y-89217428D01*
X137680928Y-89146000D01*
X137609500Y-89074571D01*
X137538071Y-88931714D01*
X137538071Y-88646000D01*
X137609500Y-88503142D01*
X137538071Y-87146000D02*
X138538071Y-87146000D01*
X137538071Y-87788857D02*
X138323785Y-87788857D01*
X138466642Y-87717428D01*
X138538071Y-87574571D01*
X138538071Y-87360285D01*
X138466642Y-87217428D01*
X138395214Y-87146000D01*
X138538071Y-86217428D02*
X138466642Y-86360285D01*
X138323785Y-86431714D01*
X137038071Y-86431714D01*
X138466642Y-85074571D02*
X138538071Y-85217428D01*
X138538071Y-85503142D01*
X138466642Y-85646000D01*
X138323785Y-85717428D01*
X137752357Y-85717428D01*
X137609500Y-85646000D01*
X137538071Y-85503142D01*
X137538071Y-85217428D01*
X137609500Y-85074571D01*
X137752357Y-85003142D01*
X137895214Y-85003142D01*
X138038071Y-85717428D01*
X132397571Y-93452142D02*
X133540428Y-93452142D01*
X132969000Y-94023571D02*
X132969000Y-92880714D01*
D10*
X132627714Y-75755523D02*
X133294380Y-75755523D01*
X132246761Y-75993619D02*
X132961047Y-76231714D01*
X132961047Y-75612666D01*
X133294380Y-96742285D02*
X133294380Y-97313714D01*
X133294380Y-97028000D02*
X132294380Y-97028000D01*
X132437238Y-97123238D01*
X132532476Y-97218476D01*
X132580095Y-97313714D01*
D11*
X132270571Y-100310142D02*
X133413428Y-100310142D01*
X132842000Y-100881571D02*
X132842000Y-99738714D01*
D12*
X140452380Y-81452380D02*
X141452380Y-81119047D01*
X140452380Y-80785714D01*
X141404761Y-80071428D02*
X141452380Y-80166666D01*
X141452380Y-80357142D01*
X141404761Y-80452380D01*
X141309523Y-80500000D01*
X140928571Y-80500000D01*
X140833333Y-80452380D01*
X140785714Y-80357142D01*
X140785714Y-80166666D01*
X140833333Y-80071428D01*
X140928571Y-80023809D01*
X141023809Y-80023809D01*
X141119047Y-80500000D01*
X141452380Y-79690476D02*
X140785714Y-79166666D01*
X140785714Y-79690476D02*
X141452380Y-79166666D01*
X140785714Y-78928571D02*
X140785714Y-78547619D01*
X140452380Y-78785714D02*
X141309523Y-78785714D01*
X141404761Y-78738095D01*
X141452380Y-78642857D01*
X141452380Y-78547619D01*
D11*
X132270571Y-86213142D02*
X133413428Y-86213142D01*
X132842000Y-86784571D02*
X132842000Y-85641714D01*
X135318571Y-97135142D02*
X136461428Y-97135142D01*
D10*
X132389619Y-90328714D02*
X132342000Y-90281095D01*
X132294380Y-90185857D01*
X132294380Y-89947761D01*
X132342000Y-89852523D01*
X132389619Y-89804904D01*
X132484857Y-89757285D01*
X132580095Y-89757285D01*
X132722952Y-89804904D01*
X133294380Y-90376333D01*
X133294380Y-89757285D01*
D11*
X132270571Y-79355142D02*
X133413428Y-79355142D01*
X132842000Y-79926571D02*
X132842000Y-78783714D01*
D12*
X140452380Y-77738095D02*
X141452380Y-77404761D01*
X140452380Y-77071428D01*
X141452380Y-76738095D02*
X140785714Y-76738095D01*
X140880952Y-76738095D02*
X140833333Y-76690476D01*
X140785714Y-76595238D01*
X140785714Y-76452380D01*
X140833333Y-76357142D01*
X140928571Y-76309523D01*
X141452380Y-76309523D01*
X140928571Y-76309523D02*
X140833333Y-76261904D01*
X140785714Y-76166666D01*
X140785714Y-76023809D01*
X140833333Y-75928571D01*
X140928571Y-75880952D01*
X141452380Y-75880952D01*
X141452380Y-75261904D02*
X141404761Y-75357142D01*
X141357142Y-75404761D01*
X141261904Y-75452380D01*
X140976190Y-75452380D01*
X140880952Y-75404761D01*
X140833333Y-75357142D01*
X140785714Y-75261904D01*
X140785714Y-75119047D01*
X140833333Y-75023809D01*
X140880952Y-74976190D01*
X140976190Y-74928571D01*
X141261904Y-74928571D01*
X141357142Y-74976190D01*
X141404761Y-75023809D01*
X141452380Y-75119047D01*
X141452380Y-75261904D01*
X140785714Y-74642857D02*
X140785714Y-74261904D01*
X140452380Y-74500000D02*
X141309523Y-74500000D01*
X141404761Y-74452380D01*
X141452380Y-74357142D01*
X141452380Y-74261904D01*
D10*
X132421380Y-83264333D02*
X132421380Y-82645285D01*
X132802333Y-82978619D01*
X132802333Y-82835761D01*
X132849952Y-82740523D01*
X132897571Y-82692904D01*
X132992809Y-82645285D01*
X133230904Y-82645285D01*
X133326142Y-82692904D01*
X133373761Y-82740523D01*
X133421380Y-82835761D01*
X133421380Y-83121476D01*
X133373761Y-83216714D01*
X133326142Y-83264333D01*
X110640904Y-94085380D02*
X110640904Y-93085380D01*
X110879000Y-93085380D01*
X111021857Y-93133000D01*
X111117095Y-93228238D01*
X111164714Y-93323476D01*
X111212333Y-93513952D01*
X111212333Y-93656809D01*
X111164714Y-93847285D01*
X111117095Y-93942523D01*
X111021857Y-94037761D01*
X110879000Y-94085380D01*
X110640904Y-94085380D01*
X111593285Y-93180619D02*
X111640904Y-93133000D01*
X111736142Y-93085380D01*
X111974238Y-93085380D01*
X112069476Y-93133000D01*
X112117095Y-93180619D01*
X112164714Y-93275857D01*
X112164714Y-93371095D01*
X112117095Y-93513952D01*
X111545666Y-94085380D01*
X112164714Y-94085380D01*
X108672333Y-86270380D02*
X108339000Y-85794190D01*
X108100904Y-86270380D02*
X108100904Y-85270380D01*
X108481857Y-85270380D01*
X108577095Y-85318000D01*
X108624714Y-85365619D01*
X108672333Y-85460857D01*
X108672333Y-85603714D01*
X108624714Y-85698952D01*
X108577095Y-85746571D01*
X108481857Y-85794190D01*
X108100904Y-85794190D01*
X109529476Y-85603714D02*
X109529476Y-86270380D01*
X109291380Y-85222761D02*
X109053285Y-85937047D01*
X109672333Y-85937047D01*
X132737380Y-88148333D02*
X133451666Y-88148333D01*
X133594523Y-88195952D01*
X133689761Y-88291190D01*
X133737380Y-88434047D01*
X133737380Y-88529285D01*
X133070714Y-87243571D02*
X133737380Y-87243571D01*
X132689761Y-87481666D02*
X133404047Y-87719761D01*
X133404047Y-87100714D01*
X113188761Y-74588619D02*
X113093523Y-74541000D01*
X112998285Y-74445761D01*
X112855428Y-74302904D01*
X112760190Y-74255285D01*
X112664952Y-74255285D01*
X112712571Y-74493380D02*
X112617333Y-74445761D01*
X112522095Y-74350523D01*
X112474476Y-74160047D01*
X112474476Y-73826714D01*
X112522095Y-73636238D01*
X112617333Y-73541000D01*
X112712571Y-73493380D01*
X112903047Y-73493380D01*
X112998285Y-73541000D01*
X113093523Y-73636238D01*
X113141142Y-73826714D01*
X113141142Y-74160047D01*
X113093523Y-74350523D01*
X112998285Y-74445761D01*
X112903047Y-74493380D01*
X112712571Y-74493380D01*
X113998285Y-73826714D02*
X113998285Y-74493380D01*
X113760190Y-73445761D02*
X113522095Y-74160047D01*
X114141142Y-74160047D01*
X108672333Y-93890380D02*
X108339000Y-93414190D01*
X108100904Y-93890380D02*
X108100904Y-92890380D01*
X108481857Y-92890380D01*
X108577095Y-92938000D01*
X108624714Y-92985619D01*
X108672333Y-93080857D01*
X108672333Y-93223714D01*
X108624714Y-93318952D01*
X108577095Y-93366571D01*
X108481857Y-93414190D01*
X108100904Y-93414190D01*
X109624714Y-93890380D02*
X109053285Y-93890380D01*
X109339000Y-93890380D02*
X109339000Y-92890380D01*
X109243761Y-93033238D01*
X109148523Y-93128476D01*
X109053285Y-93176095D01*
X113315761Y-90082619D02*
X113220523Y-90035000D01*
X113125285Y-89939761D01*
X112982428Y-89796904D01*
X112887190Y-89749285D01*
X112791952Y-89749285D01*
X112839571Y-89987380D02*
X112744333Y-89939761D01*
X112649095Y-89844523D01*
X112601476Y-89654047D01*
X112601476Y-89320714D01*
X112649095Y-89130238D01*
X112744333Y-89035000D01*
X112839571Y-88987380D01*
X113030047Y-88987380D01*
X113125285Y-89035000D01*
X113220523Y-89130238D01*
X113268142Y-89320714D01*
X113268142Y-89654047D01*
X113220523Y-89844523D01*
X113125285Y-89939761D01*
X113030047Y-89987380D01*
X112839571Y-89987380D01*
X113649095Y-89082619D02*
X113696714Y-89035000D01*
X113791952Y-88987380D01*
X114030047Y-88987380D01*
X114125285Y-89035000D01*
X114172904Y-89082619D01*
X114220523Y-89177857D01*
X114220523Y-89273095D01*
X114172904Y-89415952D01*
X113601476Y-89987380D01*
X114220523Y-89987380D01*
X143303666Y-81523380D02*
X143303666Y-82237666D01*
X143256047Y-82380523D01*
X143160809Y-82475761D01*
X143017952Y-82523380D01*
X142922714Y-82523380D01*
X143732238Y-81618619D02*
X143779857Y-81571000D01*
X143875095Y-81523380D01*
X144113190Y-81523380D01*
X144208428Y-81571000D01*
X144256047Y-81618619D01*
X144303666Y-81713857D01*
X144303666Y-81809095D01*
X144256047Y-81951952D01*
X143684619Y-82523380D01*
X144303666Y-82523380D01*
X113061761Y-82335619D02*
X112966523Y-82288000D01*
X112871285Y-82192761D01*
X112728428Y-82049904D01*
X112633190Y-82002285D01*
X112537952Y-82002285D01*
X112585571Y-82240380D02*
X112490333Y-82192761D01*
X112395095Y-82097523D01*
X112347476Y-81907047D01*
X112347476Y-81573714D01*
X112395095Y-81383238D01*
X112490333Y-81288000D01*
X112585571Y-81240380D01*
X112776047Y-81240380D01*
X112871285Y-81288000D01*
X112966523Y-81383238D01*
X113014142Y-81573714D01*
X113014142Y-81907047D01*
X112966523Y-82097523D01*
X112871285Y-82192761D01*
X112776047Y-82240380D01*
X112585571Y-82240380D01*
X113347476Y-81240380D02*
X113966523Y-81240380D01*
X113633190Y-81621333D01*
X113776047Y-81621333D01*
X113871285Y-81668952D01*
X113918904Y-81716571D01*
X113966523Y-81811809D01*
X113966523Y-82049904D01*
X113918904Y-82145142D01*
X113871285Y-82192761D01*
X113776047Y-82240380D01*
X113490333Y-82240380D01*
X113395095Y-82192761D01*
X113347476Y-82145142D01*
X110767904Y-90148380D02*
X110767904Y-89148380D01*
X111006000Y-89148380D01*
X111148857Y-89196000D01*
X111244095Y-89291238D01*
X111291714Y-89386476D01*
X111339333Y-89576952D01*
X111339333Y-89719809D01*
X111291714Y-89910285D01*
X111244095Y-90005523D01*
X111148857Y-90100761D01*
X111006000Y-90148380D01*
X110767904Y-90148380D01*
X111672666Y-89148380D02*
X112291714Y-89148380D01*
X111958380Y-89529333D01*
X112101238Y-89529333D01*
X112196476Y-89576952D01*
X112244095Y-89624571D01*
X112291714Y-89719809D01*
X112291714Y-89957904D01*
X112244095Y-90053142D01*
X112196476Y-90100761D01*
X112101238Y-90148380D01*
X111815523Y-90148380D01*
X111720285Y-90100761D01*
X111672666Y-90053142D01*
X110640904Y-97641380D02*
X110640904Y-96641380D01*
X110879000Y-96641380D01*
X111021857Y-96689000D01*
X111117095Y-96784238D01*
X111164714Y-96879476D01*
X111212333Y-97069952D01*
X111212333Y-97212809D01*
X111164714Y-97403285D01*
X111117095Y-97498523D01*
X111021857Y-97593761D01*
X110879000Y-97641380D01*
X110640904Y-97641380D01*
X112164714Y-97641380D02*
X111593285Y-97641380D01*
X111879000Y-97641380D02*
X111879000Y-96641380D01*
X111783761Y-96784238D01*
X111688523Y-96879476D01*
X111593285Y-96927095D01*
X107870666Y-77684380D02*
X107870666Y-78398666D01*
X107823047Y-78541523D01*
X107727809Y-78636761D01*
X107584952Y-78684380D01*
X107489714Y-78684380D01*
X108870666Y-78684380D02*
X108299238Y-78684380D01*
X108584952Y-78684380D02*
X108584952Y-77684380D01*
X108489714Y-77827238D01*
X108394476Y-77922476D01*
X108299238Y-77970095D01*
X135816380Y-100028333D02*
X136530666Y-100028333D01*
X136673523Y-100075952D01*
X136768761Y-100171190D01*
X136816380Y-100314047D01*
X136816380Y-100409285D01*
X135816380Y-99647380D02*
X135816380Y-99028333D01*
X136197333Y-99361666D01*
X136197333Y-99218809D01*
X136244952Y-99123571D01*
X136292571Y-99075952D01*
X136387809Y-99028333D01*
X136625904Y-99028333D01*
X136721142Y-99075952D01*
X136768761Y-99123571D01*
X136816380Y-99218809D01*
X136816380Y-99504523D01*
X136768761Y-99599761D01*
X136721142Y-99647380D01*
X113442761Y-97829619D02*
X113347523Y-97782000D01*
X113252285Y-97686761D01*
X113109428Y-97543904D01*
X113014190Y-97496285D01*
X112918952Y-97496285D01*
X112966571Y-97734380D02*
X112871333Y-97686761D01*
X112776095Y-97591523D01*
X112728476Y-97401047D01*
X112728476Y-97067714D01*
X112776095Y-96877238D01*
X112871333Y-96782000D01*
X112966571Y-96734380D01*
X113157047Y-96734380D01*
X113252285Y-96782000D01*
X113347523Y-96877238D01*
X113395142Y-97067714D01*
X113395142Y-97401047D01*
X113347523Y-97591523D01*
X113252285Y-97686761D01*
X113157047Y-97734380D01*
X112966571Y-97734380D01*
X114347523Y-97734380D02*
X113776095Y-97734380D01*
X114061809Y-97734380D02*
X114061809Y-96734380D01*
X113966571Y-96877238D01*
X113871333Y-96972476D01*
X113776095Y-97020095D01*
X108672333Y-91350380D02*
X108339000Y-90874190D01*
X108100904Y-91350380D02*
X108100904Y-90350380D01*
X108481857Y-90350380D01*
X108577095Y-90398000D01*
X108624714Y-90445619D01*
X108672333Y-90540857D01*
X108672333Y-90683714D01*
X108624714Y-90778952D01*
X108577095Y-90826571D01*
X108481857Y-90874190D01*
X108100904Y-90874190D01*
X109053285Y-90445619D02*
X109100904Y-90398000D01*
X109196142Y-90350380D01*
X109434238Y-90350380D01*
X109529476Y-90398000D01*
X109577095Y-90445619D01*
X109624714Y-90540857D01*
X109624714Y-90636095D01*
X109577095Y-90778952D01*
X109005666Y-91350380D01*
X109624714Y-91350380D01*
X108672333Y-88810380D02*
X108339000Y-88334190D01*
X108100904Y-88810380D02*
X108100904Y-87810380D01*
X108481857Y-87810380D01*
X108577095Y-87858000D01*
X108624714Y-87905619D01*
X108672333Y-88000857D01*
X108672333Y-88143714D01*
X108624714Y-88238952D01*
X108577095Y-88286571D01*
X108481857Y-88334190D01*
X108100904Y-88334190D01*
X109005666Y-87810380D02*
X109624714Y-87810380D01*
X109291380Y-88191333D01*
X109434238Y-88191333D01*
X109529476Y-88238952D01*
X109577095Y-88286571D01*
X109624714Y-88381809D01*
X109624714Y-88619904D01*
X109577095Y-88715142D01*
X109529476Y-88762761D01*
X109434238Y-88810380D01*
X109148523Y-88810380D01*
X109053285Y-88762761D01*
X109005666Y-88715142D01*
X110767904Y-86592380D02*
X110767904Y-85592380D01*
X111006000Y-85592380D01*
X111148857Y-85640000D01*
X111244095Y-85735238D01*
X111291714Y-85830476D01*
X111339333Y-86020952D01*
X111339333Y-86163809D01*
X111291714Y-86354285D01*
X111244095Y-86449523D01*
X111148857Y-86544761D01*
X111006000Y-86592380D01*
X110767904Y-86592380D01*
X112196476Y-85925714D02*
X112196476Y-86592380D01*
X111958380Y-85544761D02*
X111720285Y-86259047D01*
X112339333Y-86259047D01*
D12*
X112464000Y-92583000D02*
G75*
G03*
X112464000Y-92583000I-50000J0D01*
G01*
D13*
X124029000Y-74078000D02*
X131749000Y-74078000D01*
X130189000Y-102198000D02*
X130189000Y-74078000D01*
X128370000Y-90863000D02*
X128463000Y-90957000D01*
X125914000Y-74818000D02*
X126008000Y-74912000D01*
X126120000Y-78113000D02*
X126248000Y-78242000D01*
X128130000Y-77033000D02*
X128258000Y-77162000D01*
X131349000Y-102438000D02*
X131989000Y-102438000D01*
X128130000Y-91033000D02*
X128258000Y-91162000D01*
X126120000Y-74613000D02*
X126248000Y-74742000D01*
X128370000Y-76863000D02*
X128463000Y-76957000D01*
X128370000Y-83863000D02*
X128463000Y-83957000D01*
X128130000Y-80533000D02*
X128258000Y-80662000D01*
X125914000Y-85318000D02*
X126008000Y-85412000D01*
X128130000Y-87533000D02*
X128258000Y-87662000D01*
X126120000Y-85113000D02*
X126248000Y-85242000D01*
X125914000Y-78318000D02*
X126008000Y-78412000D01*
X128370000Y-87363000D02*
X128463000Y-87457000D01*
X131989000Y-102438000D02*
X131989000Y-102038000D01*
X128370000Y-80363000D02*
X128463000Y-80457000D01*
X125914000Y-81818000D02*
X126008000Y-81912000D01*
X128130000Y-94533000D02*
X128258000Y-94662000D01*
X125914000Y-95818000D02*
X126008000Y-95912000D01*
X125914000Y-92318000D02*
X126008000Y-92412000D01*
X128370000Y-94363000D02*
X128463000Y-94457000D01*
X131749000Y-102198000D02*
X131749000Y-74078000D01*
X124029000Y-102198000D02*
X131749000Y-102198000D01*
X126120000Y-92113000D02*
X126248000Y-92242000D01*
X128130000Y-84033000D02*
X128258000Y-84162000D01*
X126120000Y-88613000D02*
X126248000Y-88742000D01*
X126120000Y-95613000D02*
X126248000Y-95742000D01*
X131289000Y-102198000D02*
X131289000Y-74078000D01*
X128130000Y-98033000D02*
X128258000Y-98162000D01*
X124029000Y-102198000D02*
X124029000Y-74078000D01*
X126120000Y-81613000D02*
X126248000Y-81742000D01*
X128370000Y-97863000D02*
X128463000Y-97957000D01*
X125914000Y-88818000D02*
X126008000Y-88912000D01*
X125748999Y-99522000D02*
G75*
G03*
X125763642Y-101277894I1439999J-866000D01*
G01*
X128869000Y-100388000D02*
G75*
G03*
X128613721Y-99497736I-1679990J3D01*
G01*
X128080000Y-98963000D02*
G75*
G03*
X126298807Y-98962496I-891000J-1425003D01*
G01*
X126323000Y-101828001D02*
G75*
G03*
X128078894Y-101813358I866000J1439999D01*
G01*
X128629000Y-101254000D02*
G75*
G03*
X128869099Y-100359326I-1440014J866003D01*
G01*
X128869000Y-93388000D02*
G75*
G03*
X128869000Y-93388000I-1680000J0D01*
G01*
X128869000Y-79388000D02*
G75*
G03*
X128869000Y-79388000I-1680000J0D01*
G01*
X128869000Y-82888000D02*
G75*
G03*
X128869000Y-82888000I-1680000J0D01*
G01*
X128869000Y-96888000D02*
G75*
G03*
X128869000Y-96888000I-1680000J0D01*
G01*
X128869000Y-75888000D02*
G75*
G03*
X128869000Y-75888000I-1680000J0D01*
G01*
X128869000Y-86388000D02*
G75*
G03*
X128869000Y-86388000I-1680000J0D01*
G01*
X128869000Y-89888000D02*
G75*
G03*
X128869000Y-89888000I-1680000J0D01*
G01*
X120782000Y-80118000D02*
X120782000Y-78858000D01*
X120782000Y-73298000D02*
X120782000Y-74558000D01*
X114772000Y-73298000D02*
X120782000Y-73298000D01*
X117022000Y-80118000D02*
X120782000Y-80118000D01*
X117022000Y-95612000D02*
X120782000Y-95612000D01*
X120782000Y-88792000D02*
X120782000Y-90052000D01*
X114772000Y-88792000D02*
X120782000Y-88792000D01*
X120782000Y-95612000D02*
X120782000Y-94352000D01*
X144967000Y-79741000D02*
X144967000Y-81071000D01*
X144967000Y-78471000D02*
X142307000Y-78471000D01*
X144967000Y-73331000D02*
X142307000Y-73331000D01*
X144967000Y-81071000D02*
X143637000Y-81071000D01*
X144967000Y-78471000D02*
X144967000Y-73331000D01*
X142307000Y-78471000D02*
X142307000Y-73331000D01*
X120782000Y-81045000D02*
X120782000Y-82305000D01*
X120782000Y-87865000D02*
X120782000Y-86605000D01*
X117022000Y-87865000D02*
X120782000Y-87865000D01*
X114772000Y-81045000D02*
X120782000Y-81045000D01*
D12*
X112591000Y-88646000D02*
G75*
G03*
X112591000Y-88646000I-50000J0D01*
G01*
X112464000Y-96139000D02*
G75*
G03*
X112464000Y-96139000I-50000J0D01*
G01*
D13*
X106994000Y-103438000D02*
X105664000Y-103438000D01*
X106994000Y-72838000D02*
X104334000Y-72838000D01*
X106994000Y-100838000D02*
X104334000Y-100838000D01*
X106994000Y-100838000D02*
X106994000Y-72838000D01*
X104334000Y-100838000D02*
X104334000Y-72838000D01*
X106994000Y-102108000D02*
X106994000Y-103438000D01*
X137364000Y-103255000D02*
X145084000Y-103255000D01*
X144624000Y-103255000D02*
X144624000Y-96135000D01*
X137364000Y-96135000D02*
X145084000Y-96135000D01*
X139249000Y-96875000D02*
X139343000Y-96969000D01*
X144684000Y-103495000D02*
X145324000Y-103495000D01*
X145084000Y-103255000D02*
X145084000Y-96135000D01*
X141465000Y-99090000D02*
X141593000Y-99219000D01*
X143524000Y-103255000D02*
X143524000Y-96135000D01*
X141705000Y-98920000D02*
X141798000Y-99014000D01*
X137364000Y-103255000D02*
X137364000Y-96135000D01*
X145324000Y-103495000D02*
X145324000Y-103095000D01*
X139455000Y-96670000D02*
X139583000Y-96799000D01*
X139658000Y-102885001D02*
G75*
G03*
X141413894Y-102870358I866000J1439999D01*
G01*
X141415000Y-100020000D02*
G75*
G03*
X139633807Y-100019496I-891000J-1425003D01*
G01*
X142204000Y-101445000D02*
G75*
G03*
X141948721Y-100554736I-1679990J3D01*
G01*
X141964000Y-102311000D02*
G75*
G03*
X142204099Y-101416326I-1440014J866003D01*
G01*
X139083999Y-100579000D02*
G75*
G03*
X139098642Y-102334894I1439999J-866000D01*
G01*
X142204000Y-97945000D02*
G75*
G03*
X142204000Y-97945000I-1680000J0D01*
G01*
X120782000Y-96412000D02*
X120782000Y-97672000D01*
X117022000Y-103232000D02*
X120782000Y-103232000D01*
X120782000Y-103232000D02*
X120782000Y-101972000D01*
X114772000Y-96412000D02*
X120782000Y-96412000D01*
D12*
X112416000Y-85090000D02*
G75*
G03*
X112416000Y-85090000I-50000J0D01*
G01*
%LPC*%
D14*
X111786500Y-92583000D03*
X110971500Y-92583000D03*
D15*
X108431500Y-86868000D03*
X109246500Y-86868000D03*
D16*
X127189000Y-100388000D03*
D17*
X127189000Y-96888000D03*
X127189000Y-93388000D03*
X127189000Y-89888000D03*
X127189000Y-86388000D03*
X127189000Y-82888000D03*
X127189000Y-79388000D03*
X127189000Y-75888000D03*
D18*
X115722000Y-74408000D03*
X115722000Y-76708000D03*
X115722000Y-79008000D03*
D19*
X122022000Y-76708000D03*
D15*
X108431500Y-94488000D03*
X109246500Y-94488000D03*
D18*
X115722000Y-89902000D03*
X115722000Y-92202000D03*
X115722000Y-94502000D03*
D19*
X122022000Y-92202000D03*
D20*
X143637000Y-79741000D03*
D21*
X143637000Y-77201000D03*
X143637000Y-74661000D03*
D18*
X115722000Y-82155000D03*
X115722000Y-84455000D03*
X115722000Y-86755000D03*
D19*
X122022000Y-84455000D03*
D14*
X111913500Y-88646000D03*
X111098500Y-88646000D03*
X111786500Y-96139000D03*
X110971500Y-96139000D03*
D20*
X105664000Y-102108000D03*
D21*
X105664000Y-99568000D03*
X105664000Y-97028000D03*
X105664000Y-94488000D03*
X105664000Y-91948000D03*
X105664000Y-89408000D03*
X105664000Y-86868000D03*
X105664000Y-84328000D03*
X105664000Y-81788000D03*
X105664000Y-79248000D03*
X105664000Y-76708000D03*
X105664000Y-74168000D03*
D16*
X140524000Y-101445000D03*
D17*
X140524000Y-97945000D03*
D18*
X115722000Y-97522000D03*
X115722000Y-99822000D03*
X115722000Y-102122000D03*
D19*
X122022000Y-99822000D03*
D15*
X108431500Y-91948000D03*
X109246500Y-91948000D03*
X108431500Y-89408000D03*
X109246500Y-89408000D03*
D22*
X111826000Y-85090000D03*
X111186000Y-85090000D03*
M02*
