G04 #@! TF.GenerationSoftware,KiCad,Pcbnew,(6.0.0)*
G04 #@! TF.CreationDate,2022-03-05T17:50:27-06:00*
G04 #@! TF.ProjectId,Output Module,4f757470-7574-4204-9d6f-64756c652e6b,rev?*
G04 #@! TF.SameCoordinates,Original*
G04 #@! TF.FileFunction,Copper,L1,Top*
G04 #@! TF.FilePolarity,Positive*
%FSLAX46Y46*%
G04 Gerber Fmt 4.6, Leading zero omitted, Abs format (unit mm)*
G04 Created by KiCad (PCBNEW (6.0.0)) date 2022-03-05 17:50:27*
%MOMM*%
%LPD*%
G01*
G04 APERTURE LIST*
G04 Aperture macros list*
%AMRoundRect*
0 Rectangle with rounded corners*
0 $1 Rounding radius*
0 $2 $3 $4 $5 $6 $7 $8 $9 X,Y pos of 4 corners*
0 Add a 4 corners polygon primitive as box body*
4,1,4,$2,$3,$4,$5,$6,$7,$8,$9,$2,$3,0*
0 Add four circle primitives for the rounded corners*
1,1,$1+$1,$2,$3*
1,1,$1+$1,$4,$5*
1,1,$1+$1,$6,$7*
1,1,$1+$1,$8,$9*
0 Add four rect primitives between the rounded corners*
20,1,$1+$1,$2,$3,$4,$5,0*
20,1,$1+$1,$4,$5,$6,$7,0*
20,1,$1+$1,$6,$7,$8,$9,0*
20,1,$1+$1,$8,$9,$2,$3,0*%
G04 Aperture macros list end*
G04 #@! TA.AperFunction,SMDPad,CuDef*
%ADD10RoundRect,0.100000X0.217500X0.100000X-0.217500X0.100000X-0.217500X-0.100000X0.217500X-0.100000X0*%
G04 #@! TD*
G04 #@! TA.AperFunction,SMDPad,CuDef*
%ADD11RoundRect,0.100000X-0.217500X-0.100000X0.217500X-0.100000X0.217500X0.100000X-0.217500X0.100000X0*%
G04 #@! TD*
G04 #@! TA.AperFunction,ComponentPad*
%ADD12R,2.400000X2.400000*%
G04 #@! TD*
G04 #@! TA.AperFunction,ComponentPad*
%ADD13C,2.400000*%
G04 #@! TD*
G04 #@! TA.AperFunction,SMDPad,CuDef*
%ADD14R,2.000000X1.500000*%
G04 #@! TD*
G04 #@! TA.AperFunction,SMDPad,CuDef*
%ADD15R,2.000000X3.800000*%
G04 #@! TD*
G04 #@! TA.AperFunction,ComponentPad*
%ADD16R,1.700000X1.700000*%
G04 #@! TD*
G04 #@! TA.AperFunction,ComponentPad*
%ADD17O,1.700000X1.700000*%
G04 #@! TD*
G04 #@! TA.AperFunction,SMDPad,CuDef*
%ADD18RoundRect,0.100000X0.130000X0.100000X-0.130000X0.100000X-0.130000X-0.100000X0.130000X-0.100000X0*%
G04 #@! TD*
G04 #@! TA.AperFunction,ViaPad*
%ADD19C,0.760000*%
G04 #@! TD*
G04 #@! TA.AperFunction,Conductor*
%ADD20C,1.270000*%
G04 #@! TD*
G04 #@! TA.AperFunction,Conductor*
%ADD21C,0.254000*%
G04 #@! TD*
G04 APERTURE END LIST*
D10*
X111786500Y-92583000D03*
X110971500Y-92583000D03*
D11*
X108431500Y-86868000D03*
X109246500Y-86868000D03*
D12*
X127189000Y-100388000D03*
D13*
X127189000Y-96888000D03*
X127189000Y-93388000D03*
X127189000Y-89888000D03*
X127189000Y-86388000D03*
X127189000Y-82888000D03*
X127189000Y-79388000D03*
X127189000Y-75888000D03*
D14*
X115722000Y-74408000D03*
X115722000Y-76708000D03*
X115722000Y-79008000D03*
D15*
X122022000Y-76708000D03*
D11*
X108431500Y-94488000D03*
X109246500Y-94488000D03*
D14*
X115722000Y-89902000D03*
X115722000Y-92202000D03*
X115722000Y-94502000D03*
D15*
X122022000Y-92202000D03*
D16*
X143637000Y-79741000D03*
D17*
X143637000Y-77201000D03*
X143637000Y-74661000D03*
D14*
X115722000Y-82155000D03*
X115722000Y-84455000D03*
X115722000Y-86755000D03*
D15*
X122022000Y-84455000D03*
D10*
X111913500Y-88646000D03*
X111098500Y-88646000D03*
X111786500Y-96139000D03*
X110971500Y-96139000D03*
D16*
X105664000Y-102108000D03*
D17*
X105664000Y-99568000D03*
X105664000Y-97028000D03*
X105664000Y-94488000D03*
X105664000Y-91948000D03*
X105664000Y-89408000D03*
X105664000Y-86868000D03*
X105664000Y-84328000D03*
X105664000Y-81788000D03*
X105664000Y-79248000D03*
X105664000Y-76708000D03*
X105664000Y-74168000D03*
D12*
X140524000Y-101445000D03*
D13*
X140524000Y-97945000D03*
D14*
X115722000Y-97522000D03*
X115722000Y-99822000D03*
X115722000Y-102122000D03*
D15*
X122022000Y-99822000D03*
D11*
X108431500Y-91948000D03*
X109246500Y-91948000D03*
X108431500Y-89408000D03*
X109246500Y-89408000D03*
D18*
X111826000Y-85090000D03*
X111186000Y-85090000D03*
D19*
X110871000Y-78740000D03*
X113157000Y-76454000D03*
D20*
X115722000Y-94502000D02*
X118378000Y-94502000D01*
X105664000Y-74168000D02*
X108458000Y-74168000D01*
X118745000Y-94869000D02*
X118745000Y-86995000D01*
X117461000Y-102122000D02*
X118505000Y-102122000D01*
X118378000Y-94502000D02*
X118745000Y-94869000D01*
X118505000Y-86755000D02*
X118745000Y-86995000D01*
X136751000Y-97945000D02*
X140524000Y-97945000D01*
X115722000Y-86755000D02*
X118505000Y-86755000D01*
X133985000Y-103312980D02*
X135128000Y-102169980D01*
X118745000Y-80645000D02*
X117108000Y-79008000D01*
X118745000Y-100838000D02*
X118745000Y-94869000D01*
X118505000Y-102122000D02*
X119695980Y-103312980D01*
X115722000Y-102122000D02*
X117461000Y-102122000D01*
D21*
X114032000Y-94502000D02*
X115722000Y-94502000D01*
D20*
X118745000Y-86995000D02*
X118745000Y-80645000D01*
X115708000Y-102108000D02*
X115722000Y-102122000D01*
X113298000Y-79008000D02*
X115722000Y-79008000D01*
X119695980Y-103312980D02*
X133985000Y-103312980D01*
D21*
X112522000Y-88646000D02*
X114413000Y-86755000D01*
X112113000Y-92583000D02*
X114032000Y-94502000D01*
X111913500Y-88646000D02*
X112522000Y-88646000D01*
X113030000Y-85090000D02*
X113298000Y-84822000D01*
X112395000Y-96139000D02*
X114032000Y-94502000D01*
X114413000Y-86755000D02*
X115722000Y-86755000D01*
D20*
X135128000Y-99568000D02*
X136751000Y-97945000D01*
D21*
X113298000Y-84822000D02*
X113298000Y-79008000D01*
D20*
X108458000Y-74168000D02*
X113298000Y-79008000D01*
D21*
X111786500Y-92583000D02*
X112113000Y-92583000D01*
X111786500Y-96139000D02*
X112395000Y-96139000D01*
D20*
X117461000Y-102122000D02*
X118745000Y-100838000D01*
X135128000Y-102169980D02*
X135128000Y-99568000D01*
X117108000Y-79008000D02*
X115722000Y-79008000D01*
X105664000Y-102108000D02*
X115708000Y-102108000D01*
D21*
X111826000Y-85090000D02*
X113030000Y-85090000D01*
X110490000Y-96139000D02*
X110971500Y-96139000D01*
X110236000Y-94742000D02*
X110236000Y-95885000D01*
X109246500Y-94488000D02*
X109982000Y-94488000D01*
X110236000Y-95885000D02*
X110490000Y-96139000D01*
X109982000Y-94488000D02*
X110236000Y-94742000D01*
X109728000Y-91948000D02*
X110236000Y-92456000D01*
X110236000Y-92583000D02*
X110971500Y-92583000D01*
X109246500Y-91948000D02*
X109728000Y-91948000D01*
X110236000Y-92456000D02*
X110236000Y-92583000D01*
X109855000Y-89408000D02*
X110617000Y-88646000D01*
X109246500Y-89408000D02*
X109855000Y-89408000D01*
X110617000Y-88646000D02*
X111098500Y-88646000D01*
X110744000Y-85090000D02*
X111186000Y-85090000D01*
X109246500Y-86868000D02*
X109728000Y-86868000D01*
X110236000Y-86360000D02*
X110236000Y-85598000D01*
X110236000Y-85598000D02*
X110744000Y-85090000D01*
X109728000Y-86868000D02*
X110236000Y-86360000D01*
X107569000Y-94488000D02*
X108431500Y-94488000D01*
X107569000Y-95377000D02*
X109714000Y-97522000D01*
X105664000Y-94488000D02*
X107569000Y-94488000D01*
X109714000Y-97522000D02*
X115722000Y-97522000D01*
X107569000Y-94488000D02*
X107569000Y-95377000D01*
X107569000Y-91948000D02*
X105664000Y-91948000D01*
X112381000Y-89902000D02*
X115722000Y-89902000D01*
X112268000Y-89789000D02*
X112381000Y-89902000D01*
X108431500Y-91948000D02*
X107569000Y-91948000D01*
X107823000Y-91059000D02*
X110998000Y-91059000D01*
X110998000Y-91059000D02*
X112268000Y-89789000D01*
X107569000Y-91313000D02*
X107823000Y-91059000D01*
X107569000Y-91948000D02*
X107569000Y-91313000D01*
X114441000Y-82155000D02*
X115722000Y-82155000D01*
X113919000Y-86233000D02*
X113919000Y-82677000D01*
X109220000Y-87757000D02*
X112395000Y-87757000D01*
X107569000Y-89408000D02*
X105664000Y-89408000D01*
X113919000Y-82677000D02*
X114441000Y-82155000D01*
X112395000Y-87757000D02*
X113919000Y-86233000D01*
X108431500Y-89408000D02*
X107569000Y-89408000D01*
X107569000Y-89408000D02*
X109220000Y-87757000D01*
X108431500Y-86868000D02*
X105664000Y-86868000D01*
X113792000Y-75819000D02*
X113792000Y-74930000D01*
X113157000Y-76454000D02*
X113792000Y-75819000D01*
X108431500Y-86868000D02*
X108431500Y-81179500D01*
X113792000Y-74930000D02*
X114314000Y-74408000D01*
X108431500Y-81179500D02*
X110871000Y-78740000D01*
X114314000Y-74408000D02*
X115722000Y-74408000D01*
D20*
X140524000Y-101445000D02*
X142395000Y-101445000D01*
X142395000Y-101445000D02*
X143637000Y-100203000D01*
X143637000Y-100203000D02*
X143637000Y-79741000D01*
X139205000Y-79388000D02*
X130289000Y-79388000D01*
X130289000Y-86246000D02*
X130289000Y-92723000D01*
X129228000Y-100388000D02*
X127189000Y-100388000D01*
X130147000Y-86388000D02*
X130289000Y-86246000D01*
X129624000Y-93388000D02*
X130289000Y-92723000D01*
X130289000Y-79388000D02*
X127189000Y-79388000D01*
X139319000Y-79502000D02*
X139205000Y-79388000D01*
X143637000Y-77201000D02*
X141620000Y-77201000D01*
X130289000Y-92723000D02*
X130289000Y-99301000D01*
X130289000Y-79388000D02*
X130289000Y-86246000D01*
X130289000Y-99301000D02*
X130302000Y-99314000D01*
X130302000Y-99314000D02*
X129228000Y-100388000D01*
X127189000Y-93388000D02*
X129624000Y-93388000D01*
X127189000Y-86388000D02*
X130147000Y-86388000D01*
X141620000Y-77201000D02*
X139319000Y-79502000D01*
X125108000Y-96888000D02*
X127189000Y-96888000D01*
X122022000Y-99822000D02*
X122174000Y-99822000D01*
X122174000Y-99822000D02*
X125108000Y-96888000D01*
X122428000Y-92202000D02*
X124742000Y-89888000D01*
X122022000Y-92202000D02*
X122428000Y-92202000D01*
X124742000Y-89888000D02*
X127189000Y-89888000D01*
X122022000Y-84455000D02*
X123698000Y-84455000D01*
X123698000Y-84455000D02*
X125265000Y-82888000D01*
X125265000Y-82888000D02*
X127189000Y-82888000D01*
X126369000Y-76708000D02*
X127189000Y-75888000D01*
X122022000Y-76708000D02*
X126369000Y-76708000D01*
M02*
