G04 #@! TF.GenerationSoftware,KiCad,Pcbnew,(6.0.0)*
G04 #@! TF.CreationDate,2022-03-05T17:50:27-06:00*
G04 #@! TF.ProjectId,Output Module,4f757470-7574-4204-9d6f-64756c652e6b,rev?*
G04 #@! TF.SameCoordinates,Original*
G04 #@! TF.FileFunction,Copper,L2,Bot*
G04 #@! TF.FilePolarity,Positive*
%FSLAX46Y46*%
G04 Gerber Fmt 4.6, Leading zero omitted, Abs format (unit mm)*
G04 Created by KiCad (PCBNEW (6.0.0)) date 2022-03-05 17:50:27*
%MOMM*%
%LPD*%
G01*
G04 APERTURE LIST*
G04 #@! TA.AperFunction,ComponentPad*
%ADD10R,2.400000X2.400000*%
G04 #@! TD*
G04 #@! TA.AperFunction,ComponentPad*
%ADD11C,2.400000*%
G04 #@! TD*
G04 #@! TA.AperFunction,ComponentPad*
%ADD12R,1.700000X1.700000*%
G04 #@! TD*
G04 #@! TA.AperFunction,ComponentPad*
%ADD13O,1.700000X1.700000*%
G04 #@! TD*
G04 #@! TA.AperFunction,ViaPad*
%ADD14C,0.760000*%
G04 #@! TD*
G04 #@! TA.AperFunction,Conductor*
%ADD15C,1.270000*%
G04 #@! TD*
G04 #@! TA.AperFunction,Conductor*
%ADD16C,0.254000*%
G04 #@! TD*
G04 APERTURE END LIST*
D10*
X127189000Y-100388000D03*
D11*
X127189000Y-96888000D03*
X127189000Y-93388000D03*
X127189000Y-89888000D03*
X127189000Y-86388000D03*
X127189000Y-82888000D03*
X127189000Y-79388000D03*
X127189000Y-75888000D03*
D12*
X143637000Y-79741000D03*
D13*
X143637000Y-77201000D03*
X143637000Y-74661000D03*
D12*
X105664000Y-102108000D03*
D13*
X105664000Y-99568000D03*
X105664000Y-97028000D03*
X105664000Y-94488000D03*
X105664000Y-91948000D03*
X105664000Y-89408000D03*
X105664000Y-86868000D03*
X105664000Y-84328000D03*
X105664000Y-81788000D03*
X105664000Y-79248000D03*
X105664000Y-76708000D03*
X105664000Y-74168000D03*
D10*
X140524000Y-101445000D03*
D11*
X140524000Y-97945000D03*
D14*
X110871000Y-78740000D03*
X113157000Y-76454000D03*
D15*
X141097000Y-77724000D02*
X141097000Y-75438000D01*
X139319000Y-79502000D02*
X141097000Y-77724000D01*
X133477000Y-78359000D02*
X134620000Y-79502000D01*
X131445000Y-73152000D02*
X133477000Y-75184000D01*
X105664000Y-99568000D02*
X112587020Y-99568000D01*
X134620000Y-79502000D02*
X139319000Y-79502000D01*
X133477000Y-75184000D02*
X133477000Y-78359000D01*
X122174000Y-89981020D02*
X122174000Y-75311000D01*
X122174000Y-75311000D02*
X124333000Y-73152000D01*
X124333000Y-73152000D02*
X131445000Y-73152000D01*
X141874000Y-74661000D02*
X143637000Y-74661000D01*
X141097000Y-75438000D02*
X141874000Y-74661000D01*
X112587020Y-99568000D02*
X122174000Y-89981020D01*
D16*
X110871000Y-78740000D02*
X113030000Y-76581000D01*
X113030000Y-76581000D02*
X113157000Y-76454000D01*
M02*
