G04 #@! TF.GenerationSoftware,KiCad,Pcbnew,(6.0.0)*
G04 #@! TF.CreationDate,2022-04-16T22:58:20-07:00*
G04 #@! TF.ProjectId,Output Module,4f757470-7574-4204-9d6f-64756c652e6b,rev?*
G04 #@! TF.SameCoordinates,Original*
G04 #@! TF.FileFunction,Copper,L1,Top*
G04 #@! TF.FilePolarity,Positive*
%FSLAX46Y46*%
G04 Gerber Fmt 4.6, Leading zero omitted, Abs format (unit mm)*
G04 Created by KiCad (PCBNEW (6.0.0)) date 2022-04-16 22:58:20*
%MOMM*%
%LPD*%
G01*
G04 APERTURE LIST*
G04 Aperture macros list*
%AMRoundRect*
0 Rectangle with rounded corners*
0 $1 Rounding radius*
0 $2 $3 $4 $5 $6 $7 $8 $9 X,Y pos of 4 corners*
0 Add a 4 corners polygon primitive as box body*
4,1,4,$2,$3,$4,$5,$6,$7,$8,$9,$2,$3,0*
0 Add four circle primitives for the rounded corners*
1,1,$1+$1,$2,$3*
1,1,$1+$1,$4,$5*
1,1,$1+$1,$6,$7*
1,1,$1+$1,$8,$9*
0 Add four rect primitives between the rounded corners*
20,1,$1+$1,$2,$3,$4,$5,0*
20,1,$1+$1,$4,$5,$6,$7,0*
20,1,$1+$1,$6,$7,$8,$9,0*
20,1,$1+$1,$8,$9,$2,$3,0*%
G04 Aperture macros list end*
G04 #@! TA.AperFunction,ComponentPad*
%ADD10R,1.900000X1.900000*%
G04 #@! TD*
G04 #@! TA.AperFunction,ComponentPad*
%ADD11C,2.032000*%
G04 #@! TD*
G04 #@! TA.AperFunction,ComponentPad*
%ADD12C,2.032098*%
G04 #@! TD*
G04 #@! TA.AperFunction,SMDPad,CuDef*
%ADD13RoundRect,0.218750X0.218750X0.256250X-0.218750X0.256250X-0.218750X-0.256250X0.218750X-0.256250X0*%
G04 #@! TD*
G04 #@! TA.AperFunction,SMDPad,CuDef*
%ADD14RoundRect,0.200000X-0.200000X-0.275000X0.200000X-0.275000X0.200000X0.275000X-0.200000X0.275000X0*%
G04 #@! TD*
G04 #@! TA.AperFunction,ComponentPad*
%ADD15R,1.700000X1.700000*%
G04 #@! TD*
G04 #@! TA.AperFunction,ComponentPad*
%ADD16O,1.700000X1.700000*%
G04 #@! TD*
G04 #@! TA.AperFunction,SMDPad,CuDef*
%ADD17R,2.000000X1.500000*%
G04 #@! TD*
G04 #@! TA.AperFunction,SMDPad,CuDef*
%ADD18R,2.000000X3.800000*%
G04 #@! TD*
G04 #@! TA.AperFunction,Conductor*
%ADD19C,0.762000*%
G04 #@! TD*
G04 #@! TA.AperFunction,Conductor*
%ADD20C,0.254000*%
G04 #@! TD*
G04 APERTURE END LIST*
D10*
X129370000Y-101510000D03*
D11*
X129370000Y-98010000D03*
X129370000Y-94510000D03*
X140870000Y-100010000D03*
X140870000Y-96510000D03*
D12*
X140870000Y-93010000D03*
D10*
X129380000Y-88830000D03*
D11*
X129380000Y-85330000D03*
X129380000Y-81830000D03*
X140880000Y-87330000D03*
X140880000Y-83830000D03*
D12*
X140880000Y-80330000D03*
D13*
X111883500Y-76417000D03*
X110308500Y-76417000D03*
X111903500Y-83817000D03*
X110328500Y-83817000D03*
X111923500Y-91207000D03*
X110348500Y-91207000D03*
X111923500Y-98617000D03*
X110348500Y-98617000D03*
D14*
X110301000Y-78677000D03*
X111951000Y-78677000D03*
X110321000Y-74087000D03*
X111971000Y-74087000D03*
X110291000Y-86077000D03*
X111941000Y-86077000D03*
X110311000Y-81487000D03*
X111961000Y-81487000D03*
D15*
X124460000Y-81280000D03*
D16*
X124460000Y-83820000D03*
X124460000Y-86360000D03*
D14*
X110291000Y-93477000D03*
X111941000Y-93477000D03*
X110291000Y-88897000D03*
X111941000Y-88897000D03*
X110321000Y-100917000D03*
X111971000Y-100917000D03*
X110311000Y-96297000D03*
X111961000Y-96297000D03*
D17*
X113936000Y-74082000D03*
X113936000Y-76382000D03*
X113936000Y-78682000D03*
D18*
X120236000Y-76382000D03*
X120236000Y-91182000D03*
D17*
X113936000Y-93482000D03*
X113936000Y-91182000D03*
X113936000Y-88882000D03*
D15*
X124460000Y-93980000D03*
D16*
X124460000Y-96520000D03*
X124460000Y-99060000D03*
D17*
X113926000Y-81492000D03*
X113926000Y-83792000D03*
X113926000Y-86092000D03*
D18*
X120226000Y-83792000D03*
D15*
X104140000Y-101600000D03*
D16*
X104140000Y-99060000D03*
X104140000Y-96520000D03*
X104140000Y-93980000D03*
X104140000Y-91440000D03*
X104140000Y-88900000D03*
X104140000Y-86360000D03*
X104140000Y-83820000D03*
X104140000Y-81280000D03*
X104140000Y-78740000D03*
X104140000Y-76200000D03*
X104140000Y-73660000D03*
D17*
X113936000Y-96282000D03*
X113936000Y-98582000D03*
X113936000Y-100882000D03*
D18*
X120236000Y-98582000D03*
D19*
X140640000Y-99850000D02*
X140880000Y-100090000D01*
X127870000Y-99850000D02*
X140640000Y-99850000D01*
X127800000Y-87160000D02*
X140650000Y-87160000D01*
X126420000Y-88540000D02*
X127800000Y-87160000D01*
X140650000Y-87160000D02*
X140880000Y-87390000D01*
X122500000Y-88540000D02*
X126420000Y-88540000D01*
X120226000Y-86266000D02*
X122500000Y-88540000D01*
X120226000Y-83792000D02*
X120226000Y-86266000D01*
X140870000Y-83900000D02*
X140880000Y-83890000D01*
X136620000Y-83900000D02*
X140870000Y-83900000D01*
X131760000Y-79040000D02*
X136620000Y-83900000D01*
X120236000Y-76382000D02*
X122894000Y-79040000D01*
X122894000Y-79040000D02*
X131760000Y-79040000D01*
X140870000Y-96600000D02*
X140880000Y-96590000D01*
X137630000Y-96600000D02*
X140870000Y-96600000D01*
X132750000Y-91720000D02*
X137630000Y-96600000D01*
X120774000Y-91720000D02*
X132750000Y-91720000D01*
X120236000Y-91182000D02*
X120774000Y-91720000D01*
X126450000Y-101270000D02*
X127870000Y-99850000D01*
X122490000Y-101270000D02*
X126450000Y-101270000D01*
X120236000Y-99016000D02*
X122490000Y-101270000D01*
X120236000Y-98582000D02*
X120236000Y-99016000D01*
D20*
X113921000Y-81487000D02*
X113926000Y-81492000D01*
X111961000Y-81487000D02*
X113921000Y-81487000D01*
X110301000Y-78389000D02*
X110301000Y-78677000D01*
X111883500Y-76806500D02*
X110301000Y-78389000D01*
X111883500Y-76417000D02*
X111883500Y-76806500D01*
X111903500Y-84246500D02*
X110291000Y-85859000D01*
X110291000Y-85859000D02*
X110291000Y-86077000D01*
X111903500Y-83817000D02*
X111903500Y-84246500D01*
X111923500Y-99046500D02*
X110321000Y-100649000D01*
X110321000Y-100649000D02*
X110321000Y-100917000D01*
X111923500Y-98617000D02*
X111923500Y-99046500D01*
X110291000Y-93219000D02*
X110291000Y-93477000D01*
X111923500Y-91586500D02*
X110291000Y-93219000D01*
X111923500Y-91207000D02*
X111923500Y-91586500D01*
X113931000Y-74087000D02*
X113936000Y-74082000D01*
X111971000Y-74087000D02*
X113931000Y-74087000D01*
X113931000Y-78677000D02*
X113936000Y-78682000D01*
X111951000Y-78677000D02*
X113931000Y-78677000D01*
X111941000Y-86077000D02*
X113911000Y-86077000D01*
X113911000Y-86077000D02*
X113926000Y-86092000D01*
X113931000Y-93477000D02*
X113936000Y-93482000D01*
X111941000Y-93477000D02*
X113931000Y-93477000D01*
X113901000Y-100917000D02*
X113936000Y-100882000D01*
X111971000Y-100917000D02*
X113901000Y-100917000D01*
X113921000Y-96297000D02*
X113936000Y-96282000D01*
X111961000Y-96297000D02*
X113921000Y-96297000D01*
X113921000Y-88897000D02*
X113936000Y-88882000D01*
X111941000Y-88897000D02*
X113921000Y-88897000D01*
X107850000Y-78220000D02*
X109653000Y-76417000D01*
X105230000Y-86360000D02*
X107850000Y-83740000D01*
X107850000Y-83740000D02*
X107850000Y-78220000D01*
X109653000Y-76417000D02*
X110308500Y-76417000D01*
X104140000Y-86360000D02*
X105230000Y-86360000D01*
X110328500Y-83821500D02*
X110328500Y-83817000D01*
X105250000Y-88900000D02*
X110328500Y-83821500D01*
X104140000Y-88900000D02*
X105250000Y-88900000D01*
X107547000Y-96297000D02*
X110311000Y-96297000D01*
X105230000Y-93980000D02*
X107547000Y-96297000D01*
X104140000Y-93980000D02*
X105230000Y-93980000D01*
X110115500Y-91440000D02*
X110348500Y-91207000D01*
X104140000Y-91440000D02*
X110115500Y-91440000D01*
X110311000Y-98579500D02*
X110348500Y-98617000D01*
X110311000Y-96297000D02*
X110311000Y-98579500D01*
X110291000Y-91149500D02*
X110348500Y-91207000D01*
X110291000Y-88897000D02*
X110291000Y-91149500D01*
X110311000Y-83799500D02*
X110328500Y-83817000D01*
X110311000Y-81487000D02*
X110311000Y-83799500D01*
X110321000Y-76404500D02*
X110308500Y-76417000D01*
X110321000Y-74087000D02*
X110321000Y-76404500D01*
G04 #@! TA.AperFunction,Conductor*
G36*
X143660121Y-72472002D02*
G01*
X143706614Y-72525658D01*
X143718000Y-72578000D01*
X143718000Y-102806000D01*
X143697998Y-102874121D01*
X143644342Y-102920614D01*
X143592000Y-102932000D01*
X130853656Y-102932000D01*
X130785535Y-102911998D01*
X130739042Y-102858342D01*
X130728938Y-102788068D01*
X130752831Y-102730434D01*
X130765229Y-102713892D01*
X130765230Y-102713890D01*
X130770615Y-102706705D01*
X130821745Y-102570316D01*
X130828500Y-102508134D01*
X130828500Y-100865500D01*
X130848502Y-100797379D01*
X130902158Y-100750886D01*
X130954500Y-100739500D01*
X139458499Y-100739500D01*
X139526620Y-100759502D01*
X139565931Y-100799664D01*
X139632840Y-100908849D01*
X139636057Y-100912616D01*
X139636058Y-100912617D01*
X139696807Y-100983745D01*
X139788682Y-101091318D01*
X139792444Y-101094531D01*
X139851896Y-101145307D01*
X139971151Y-101247160D01*
X140175751Y-101372540D01*
X140180321Y-101374433D01*
X140180323Y-101374434D01*
X140251410Y-101403879D01*
X140397447Y-101464369D01*
X140479037Y-101483957D01*
X140625965Y-101519232D01*
X140625971Y-101519233D01*
X140630778Y-101520387D01*
X140870000Y-101539214D01*
X141109222Y-101520387D01*
X141114029Y-101519233D01*
X141114035Y-101519232D01*
X141260963Y-101483957D01*
X141342553Y-101464369D01*
X141488590Y-101403879D01*
X141559677Y-101374434D01*
X141559679Y-101374433D01*
X141564249Y-101372540D01*
X141768849Y-101247160D01*
X141888105Y-101145307D01*
X141947556Y-101094531D01*
X141951318Y-101091318D01*
X142043193Y-100983745D01*
X142103942Y-100912617D01*
X142103943Y-100912616D01*
X142107160Y-100908849D01*
X142232540Y-100704249D01*
X142259471Y-100639233D01*
X142322475Y-100487126D01*
X142322476Y-100487124D01*
X142324369Y-100482553D01*
X142345563Y-100394276D01*
X142379232Y-100254035D01*
X142379233Y-100254029D01*
X142380387Y-100249222D01*
X142399214Y-100010000D01*
X142380387Y-99770778D01*
X142379233Y-99765971D01*
X142379232Y-99765965D01*
X142334274Y-99578705D01*
X142324369Y-99537447D01*
X142288854Y-99451705D01*
X142234434Y-99320323D01*
X142234433Y-99320321D01*
X142232540Y-99315751D01*
X142107160Y-99111151D01*
X142094984Y-99096894D01*
X141954531Y-98932444D01*
X141951318Y-98928682D01*
X141842064Y-98835371D01*
X141772617Y-98776058D01*
X141772616Y-98776057D01*
X141768849Y-98772840D01*
X141564249Y-98647460D01*
X141559679Y-98645567D01*
X141559677Y-98645566D01*
X141347126Y-98557525D01*
X141347124Y-98557524D01*
X141342553Y-98555631D01*
X141260963Y-98536043D01*
X141114035Y-98500768D01*
X141114029Y-98500767D01*
X141109222Y-98499613D01*
X140870000Y-98480786D01*
X140630778Y-98499613D01*
X140625971Y-98500767D01*
X140625965Y-98500768D01*
X140479037Y-98536043D01*
X140397447Y-98555631D01*
X140392876Y-98557524D01*
X140392874Y-98557525D01*
X140180323Y-98645566D01*
X140180321Y-98645567D01*
X140175751Y-98647460D01*
X139971151Y-98772840D01*
X139967384Y-98776057D01*
X139967383Y-98776058D01*
X139897936Y-98835371D01*
X139788682Y-98928682D01*
X139787512Y-98927312D01*
X139732006Y-98957621D01*
X139705223Y-98960500D01*
X130800498Y-98960500D01*
X130732377Y-98940498D01*
X130685884Y-98886842D01*
X130675780Y-98816568D01*
X130693064Y-98768667D01*
X130732540Y-98704249D01*
X130778084Y-98594297D01*
X130822475Y-98487126D01*
X130822476Y-98487124D01*
X130824369Y-98482553D01*
X130847386Y-98386680D01*
X130879232Y-98254035D01*
X130879233Y-98254029D01*
X130880387Y-98249222D01*
X130899214Y-98010000D01*
X130880387Y-97770778D01*
X130879233Y-97765971D01*
X130879232Y-97765965D01*
X130835856Y-97585295D01*
X130824369Y-97537447D01*
X130804729Y-97490031D01*
X130734434Y-97320323D01*
X130734433Y-97320321D01*
X130732540Y-97315751D01*
X130607160Y-97111151D01*
X130583571Y-97083531D01*
X130457564Y-96935995D01*
X130451318Y-96928682D01*
X130404562Y-96888749D01*
X130272617Y-96776058D01*
X130272616Y-96776057D01*
X130268849Y-96772840D01*
X130064249Y-96647460D01*
X130059679Y-96645567D01*
X130059677Y-96645566D01*
X129847126Y-96557525D01*
X129847124Y-96557524D01*
X129842553Y-96555631D01*
X129760963Y-96536043D01*
X129614035Y-96500768D01*
X129614029Y-96500767D01*
X129609222Y-96499613D01*
X129370000Y-96480786D01*
X129130778Y-96499613D01*
X129125971Y-96500767D01*
X129125965Y-96500768D01*
X128979037Y-96536043D01*
X128897447Y-96555631D01*
X128892876Y-96557524D01*
X128892874Y-96557525D01*
X128680323Y-96645566D01*
X128680321Y-96645567D01*
X128675751Y-96647460D01*
X128471151Y-96772840D01*
X128467384Y-96776057D01*
X128467383Y-96776058D01*
X128335438Y-96888749D01*
X128288682Y-96928682D01*
X128282436Y-96935995D01*
X128156430Y-97083531D01*
X128132840Y-97111151D01*
X128007460Y-97315751D01*
X128005567Y-97320321D01*
X128005566Y-97320323D01*
X127935271Y-97490031D01*
X127915631Y-97537447D01*
X127904144Y-97585295D01*
X127860768Y-97765965D01*
X127860767Y-97765971D01*
X127859613Y-97770778D01*
X127840786Y-98010000D01*
X127859613Y-98249222D01*
X127860767Y-98254029D01*
X127860768Y-98254035D01*
X127892614Y-98386680D01*
X127915631Y-98482553D01*
X127917524Y-98487124D01*
X127917525Y-98487126D01*
X127961917Y-98594297D01*
X128007460Y-98704249D01*
X128045816Y-98766839D01*
X128064353Y-98835371D01*
X128042897Y-98903047D01*
X127988257Y-98948380D01*
X127930061Y-98955686D01*
X127929929Y-98958204D01*
X127923325Y-98957858D01*
X127916810Y-98956826D01*
X127910223Y-98957171D01*
X127910218Y-98957171D01*
X127850008Y-98960327D01*
X127843414Y-98960500D01*
X127823380Y-98960500D01*
X127820106Y-98960844D01*
X127820107Y-98960844D01*
X127803454Y-98962594D01*
X127796880Y-98963111D01*
X127736681Y-98966266D01*
X127736678Y-98966266D01*
X127730085Y-98966612D01*
X127723706Y-98968321D01*
X127723707Y-98968321D01*
X127716977Y-98970124D01*
X127697544Y-98973725D01*
X127690614Y-98974454D01*
X127690610Y-98974455D01*
X127684044Y-98975145D01*
X127620408Y-98995822D01*
X127614101Y-98997690D01*
X127549475Y-99015006D01*
X127543588Y-99018006D01*
X127543587Y-99018006D01*
X127537385Y-99021166D01*
X127519121Y-99028731D01*
X127512504Y-99030881D01*
X127512499Y-99030883D01*
X127506215Y-99032925D01*
X127465129Y-99056646D01*
X127448276Y-99066376D01*
X127442481Y-99069522D01*
X127388762Y-99096894D01*
X127388759Y-99096896D01*
X127382875Y-99099894D01*
X127377741Y-99104051D01*
X127377740Y-99104052D01*
X127372329Y-99108433D01*
X127356044Y-99119626D01*
X127344285Y-99126415D01*
X127339378Y-99130833D01*
X127339377Y-99130834D01*
X127294576Y-99171173D01*
X127289561Y-99175457D01*
X127273994Y-99188063D01*
X127259847Y-99202210D01*
X127255063Y-99206751D01*
X127205331Y-99251530D01*
X127197348Y-99262518D01*
X127184511Y-99277546D01*
X126118462Y-100343595D01*
X126056150Y-100377621D01*
X126029367Y-100380500D01*
X125341882Y-100380500D01*
X125273761Y-100360498D01*
X125227268Y-100306842D01*
X125217164Y-100236568D01*
X125246658Y-100171988D01*
X125268711Y-100151923D01*
X125339860Y-100101173D01*
X125353751Y-100087331D01*
X125452169Y-99989256D01*
X125498096Y-99943489D01*
X125504915Y-99934000D01*
X125625435Y-99766277D01*
X125628453Y-99762077D01*
X125661476Y-99695261D01*
X125725136Y-99566453D01*
X125725137Y-99566451D01*
X125727430Y-99561811D01*
X125792370Y-99348069D01*
X125821529Y-99126590D01*
X125822255Y-99096894D01*
X125823074Y-99063365D01*
X125823074Y-99063361D01*
X125823156Y-99060000D01*
X125804852Y-98837361D01*
X125750431Y-98620702D01*
X125661354Y-98415840D01*
X125592384Y-98309229D01*
X125542822Y-98232617D01*
X125542820Y-98232614D01*
X125540014Y-98228277D01*
X125389670Y-98063051D01*
X125385619Y-98059852D01*
X125385615Y-98059848D01*
X125218414Y-97927800D01*
X125218410Y-97927798D01*
X125214359Y-97924598D01*
X125173053Y-97901796D01*
X125123084Y-97851364D01*
X125108312Y-97781921D01*
X125133428Y-97715516D01*
X125160780Y-97688909D01*
X125205871Y-97656746D01*
X125339860Y-97561173D01*
X125410228Y-97491051D01*
X125432618Y-97468739D01*
X125498096Y-97403489D01*
X125504009Y-97395261D01*
X125625435Y-97226277D01*
X125628453Y-97222077D01*
X125640121Y-97198470D01*
X125725136Y-97026453D01*
X125725137Y-97026451D01*
X125727430Y-97021811D01*
X125792370Y-96808069D01*
X125821529Y-96586590D01*
X125822239Y-96557525D01*
X125823074Y-96523365D01*
X125823074Y-96523361D01*
X125823156Y-96520000D01*
X125804852Y-96297361D01*
X125750431Y-96080702D01*
X125661354Y-95875840D01*
X125619749Y-95811528D01*
X125542822Y-95692617D01*
X125542820Y-95692614D01*
X125540014Y-95688277D01*
X125536532Y-95684450D01*
X125392798Y-95526488D01*
X125361746Y-95462642D01*
X125370141Y-95392143D01*
X125415317Y-95337375D01*
X125441761Y-95323706D01*
X125548297Y-95283767D01*
X125556705Y-95280615D01*
X125673261Y-95193261D01*
X125760615Y-95076705D01*
X125811745Y-94940316D01*
X125818500Y-94878134D01*
X125818500Y-94510000D01*
X127840786Y-94510000D01*
X127859613Y-94749222D01*
X127860767Y-94754029D01*
X127860768Y-94754035D01*
X127873130Y-94805526D01*
X127915631Y-94982553D01*
X127917524Y-94987124D01*
X127917525Y-94987126D01*
X128005138Y-95198642D01*
X128007460Y-95204249D01*
X128132840Y-95408849D01*
X128136057Y-95412616D01*
X128136058Y-95412617D01*
X128227641Y-95519848D01*
X128288682Y-95591318D01*
X128471151Y-95747160D01*
X128675751Y-95872540D01*
X128680321Y-95874433D01*
X128680323Y-95874434D01*
X128892874Y-95962475D01*
X128897447Y-95964369D01*
X128979037Y-95983957D01*
X129125965Y-96019232D01*
X129125971Y-96019233D01*
X129130778Y-96020387D01*
X129370000Y-96039214D01*
X129609222Y-96020387D01*
X129614029Y-96019233D01*
X129614035Y-96019232D01*
X129760963Y-95983957D01*
X129842553Y-95964369D01*
X129847126Y-95962475D01*
X130059677Y-95874434D01*
X130059679Y-95874433D01*
X130064249Y-95872540D01*
X130268849Y-95747160D01*
X130451318Y-95591318D01*
X130512359Y-95519848D01*
X130603942Y-95412617D01*
X130603943Y-95412616D01*
X130607160Y-95408849D01*
X130732540Y-95204249D01*
X130734863Y-95198642D01*
X130822475Y-94987126D01*
X130822476Y-94987124D01*
X130824369Y-94982553D01*
X130866870Y-94805526D01*
X130879232Y-94754035D01*
X130879233Y-94754029D01*
X130880387Y-94749222D01*
X130899214Y-94510000D01*
X130880387Y-94270778D01*
X130879233Y-94265971D01*
X130879232Y-94265965D01*
X130825524Y-94042259D01*
X130824369Y-94037447D01*
X130732540Y-93815751D01*
X130607160Y-93611151D01*
X130589208Y-93590131D01*
X130476327Y-93457964D01*
X130451318Y-93428682D01*
X130328371Y-93323676D01*
X130272617Y-93276058D01*
X130272616Y-93276057D01*
X130268849Y-93272840D01*
X130064249Y-93147460D01*
X130059679Y-93145567D01*
X130059677Y-93145566D01*
X129847126Y-93057525D01*
X129847124Y-93057524D01*
X129842553Y-93055631D01*
X129725546Y-93027540D01*
X129614035Y-93000768D01*
X129614029Y-93000767D01*
X129609222Y-92999613D01*
X129370000Y-92980786D01*
X129130778Y-92999613D01*
X129125971Y-93000767D01*
X129125965Y-93000768D01*
X129014454Y-93027540D01*
X128897447Y-93055631D01*
X128892876Y-93057524D01*
X128892874Y-93057525D01*
X128680323Y-93145566D01*
X128680321Y-93145567D01*
X128675751Y-93147460D01*
X128471151Y-93272840D01*
X128467384Y-93276057D01*
X128467383Y-93276058D01*
X128411629Y-93323676D01*
X128288682Y-93428682D01*
X128263673Y-93457964D01*
X128150793Y-93590131D01*
X128132840Y-93611151D01*
X128007460Y-93815751D01*
X127915631Y-94037447D01*
X127914476Y-94042259D01*
X127860768Y-94265965D01*
X127860767Y-94265971D01*
X127859613Y-94270778D01*
X127840786Y-94510000D01*
X125818500Y-94510000D01*
X125818500Y-93081866D01*
X125811745Y-93019684D01*
X125760615Y-92883295D01*
X125734013Y-92847800D01*
X125706482Y-92811065D01*
X125681634Y-92744558D01*
X125696687Y-92675176D01*
X125746862Y-92624946D01*
X125807308Y-92609500D01*
X132329367Y-92609500D01*
X132397488Y-92629502D01*
X132418462Y-92646405D01*
X136944511Y-97172454D01*
X136957348Y-97187482D01*
X136965331Y-97198470D01*
X136970233Y-97202883D01*
X136970234Y-97202885D01*
X137015063Y-97243249D01*
X137019847Y-97247790D01*
X137033994Y-97261937D01*
X137036559Y-97264014D01*
X137049554Y-97274537D01*
X137054568Y-97278819D01*
X137056142Y-97280236D01*
X137099381Y-97319170D01*
X137099385Y-97319173D01*
X137104285Y-97323585D01*
X137109995Y-97326881D01*
X137109998Y-97326884D01*
X137116045Y-97330375D01*
X137132330Y-97341568D01*
X137142875Y-97350107D01*
X137202491Y-97380483D01*
X137208285Y-97383629D01*
X137266215Y-97417075D01*
X137272495Y-97419116D01*
X137272496Y-97419116D01*
X137279122Y-97421269D01*
X137297379Y-97428832D01*
X137303587Y-97431995D01*
X137303595Y-97431998D01*
X137309475Y-97434994D01*
X137315849Y-97436702D01*
X137315852Y-97436703D01*
X137348430Y-97445432D01*
X137374101Y-97452310D01*
X137380408Y-97454178D01*
X137444044Y-97474855D01*
X137450610Y-97475545D01*
X137450614Y-97475546D01*
X137457544Y-97476275D01*
X137476977Y-97479876D01*
X137481965Y-97481212D01*
X137490085Y-97483388D01*
X137496678Y-97483734D01*
X137496681Y-97483734D01*
X137556880Y-97486889D01*
X137563455Y-97487406D01*
X137583380Y-97489500D01*
X137603414Y-97489500D01*
X137610008Y-97489673D01*
X137670218Y-97492829D01*
X137670223Y-97492829D01*
X137676810Y-97493174D01*
X137683325Y-97492142D01*
X137683327Y-97492142D01*
X137690214Y-97491051D01*
X137709925Y-97489500D01*
X139643634Y-97489500D01*
X139711755Y-97509502D01*
X139739445Y-97533670D01*
X139785460Y-97587547D01*
X139785469Y-97587556D01*
X139788682Y-97591318D01*
X139792444Y-97594531D01*
X139792449Y-97594536D01*
X139967383Y-97743942D01*
X139971151Y-97747160D01*
X140175751Y-97872540D01*
X140180321Y-97874433D01*
X140180323Y-97874434D01*
X140309161Y-97927800D01*
X140397447Y-97964369D01*
X140479037Y-97983957D01*
X140625965Y-98019232D01*
X140625971Y-98019233D01*
X140630778Y-98020387D01*
X140870000Y-98039214D01*
X141109222Y-98020387D01*
X141114029Y-98019233D01*
X141114035Y-98019232D01*
X141260963Y-97983957D01*
X141342553Y-97964369D01*
X141430839Y-97927800D01*
X141559677Y-97874434D01*
X141559679Y-97874433D01*
X141564249Y-97872540D01*
X141768849Y-97747160D01*
X141777021Y-97740181D01*
X141947556Y-97594531D01*
X141951318Y-97591318D01*
X142000554Y-97533670D01*
X142103942Y-97412617D01*
X142103943Y-97412616D01*
X142107160Y-97408849D01*
X142232540Y-97204249D01*
X142258194Y-97142316D01*
X142322475Y-96987126D01*
X142322476Y-96987124D01*
X142324369Y-96982553D01*
X142351791Y-96868333D01*
X142379232Y-96754035D01*
X142379233Y-96754029D01*
X142380387Y-96749222D01*
X142399214Y-96510000D01*
X142380387Y-96270778D01*
X142379233Y-96265971D01*
X142379232Y-96265965D01*
X142327216Y-96049305D01*
X142324369Y-96037447D01*
X142232540Y-95815751D01*
X142107160Y-95611151D01*
X142089020Y-95589911D01*
X141954531Y-95432444D01*
X141951318Y-95428682D01*
X141843504Y-95336601D01*
X141772617Y-95276058D01*
X141772616Y-95276057D01*
X141768849Y-95272840D01*
X141564249Y-95147460D01*
X141559679Y-95145567D01*
X141559677Y-95145566D01*
X141347126Y-95057525D01*
X141347124Y-95057524D01*
X141342553Y-95055631D01*
X141233302Y-95029402D01*
X141114035Y-95000768D01*
X141114029Y-95000767D01*
X141109222Y-94999613D01*
X140870000Y-94980786D01*
X140630778Y-94999613D01*
X140625971Y-95000767D01*
X140625965Y-95000768D01*
X140506698Y-95029402D01*
X140397447Y-95055631D01*
X140392876Y-95057524D01*
X140392874Y-95057525D01*
X140180323Y-95145566D01*
X140180321Y-95145567D01*
X140175751Y-95147460D01*
X139971151Y-95272840D01*
X139967384Y-95276057D01*
X139967383Y-95276058D01*
X139896496Y-95336601D01*
X139788682Y-95428682D01*
X139785469Y-95432444D01*
X139650981Y-95589911D01*
X139632840Y-95611151D01*
X139608826Y-95650338D01*
X139556181Y-95697966D01*
X139501396Y-95710500D01*
X138050633Y-95710500D01*
X137982512Y-95690498D01*
X137961538Y-95673595D01*
X136542284Y-94254341D01*
X139990489Y-94254341D01*
X139996216Y-94261991D01*
X140171737Y-94369551D01*
X140180531Y-94374032D01*
X140393014Y-94462045D01*
X140402399Y-94465094D01*
X140626036Y-94518785D01*
X140635783Y-94520328D01*
X140865070Y-94538374D01*
X140874930Y-94538374D01*
X141104217Y-94520328D01*
X141113964Y-94518785D01*
X141337601Y-94465094D01*
X141346986Y-94462045D01*
X141559469Y-94374032D01*
X141568263Y-94369551D01*
X141740118Y-94264238D01*
X141749578Y-94253781D01*
X141745795Y-94245005D01*
X140882812Y-93382022D01*
X140868868Y-93374408D01*
X140867035Y-93374539D01*
X140860420Y-93378790D01*
X139997249Y-94241961D01*
X139990489Y-94254341D01*
X136542284Y-94254341D01*
X135302873Y-93014930D01*
X139341626Y-93014930D01*
X139359672Y-93244217D01*
X139361215Y-93253964D01*
X139414906Y-93477601D01*
X139417955Y-93486986D01*
X139505968Y-93699469D01*
X139510449Y-93708263D01*
X139615762Y-93880118D01*
X139626219Y-93889578D01*
X139634995Y-93885795D01*
X140497978Y-93022812D01*
X140504356Y-93011132D01*
X141234408Y-93011132D01*
X141234539Y-93012965D01*
X141238790Y-93019580D01*
X142101961Y-93882751D01*
X142114341Y-93889511D01*
X142121991Y-93883784D01*
X142229551Y-93708263D01*
X142234032Y-93699469D01*
X142322045Y-93486986D01*
X142325094Y-93477601D01*
X142378785Y-93253964D01*
X142380328Y-93244217D01*
X142398374Y-93014930D01*
X142398374Y-93005070D01*
X142380328Y-92775783D01*
X142378785Y-92766036D01*
X142325094Y-92542399D01*
X142322045Y-92533014D01*
X142234032Y-92320531D01*
X142229551Y-92311737D01*
X142124238Y-92139882D01*
X142113781Y-92130422D01*
X142105005Y-92134205D01*
X141242022Y-92997188D01*
X141234408Y-93011132D01*
X140504356Y-93011132D01*
X140505592Y-93008868D01*
X140505461Y-93007035D01*
X140501210Y-93000420D01*
X139638039Y-92137249D01*
X139625659Y-92130489D01*
X139618009Y-92136216D01*
X139510449Y-92311737D01*
X139505968Y-92320531D01*
X139417955Y-92533014D01*
X139414906Y-92542399D01*
X139361215Y-92766036D01*
X139359672Y-92775783D01*
X139341626Y-93005070D01*
X139341626Y-93014930D01*
X135302873Y-93014930D01*
X134054162Y-91766219D01*
X139990422Y-91766219D01*
X139994205Y-91774995D01*
X140857188Y-92637978D01*
X140871132Y-92645592D01*
X140872965Y-92645461D01*
X140879580Y-92641210D01*
X141742751Y-91778039D01*
X141749511Y-91765659D01*
X141743784Y-91758009D01*
X141568263Y-91650449D01*
X141559469Y-91645968D01*
X141346986Y-91557955D01*
X141337601Y-91554906D01*
X141113964Y-91501215D01*
X141104217Y-91499672D01*
X140874930Y-91481626D01*
X140865070Y-91481626D01*
X140635783Y-91499672D01*
X140626036Y-91501215D01*
X140402399Y-91554906D01*
X140393014Y-91557955D01*
X140180531Y-91645968D01*
X140171737Y-91650449D01*
X139999882Y-91755762D01*
X139990422Y-91766219D01*
X134054162Y-91766219D01*
X133435489Y-91147546D01*
X133422652Y-91132518D01*
X133414669Y-91121530D01*
X133364937Y-91076751D01*
X133360153Y-91072210D01*
X133346006Y-91058063D01*
X133330446Y-91045463D01*
X133325425Y-91041175D01*
X133280619Y-91000830D01*
X133280615Y-91000827D01*
X133275715Y-90996415D01*
X133270005Y-90993119D01*
X133270002Y-90993116D01*
X133263955Y-90989625D01*
X133247670Y-90978432D01*
X133237125Y-90969893D01*
X133177520Y-90939523D01*
X133171724Y-90936376D01*
X133165975Y-90933057D01*
X133113785Y-90902925D01*
X133100875Y-90898730D01*
X133082616Y-90891167D01*
X133070524Y-90885006D01*
X133005906Y-90867691D01*
X132999582Y-90865818D01*
X132990981Y-90863023D01*
X132935956Y-90845145D01*
X132929389Y-90844455D01*
X132929385Y-90844454D01*
X132923712Y-90843858D01*
X132922470Y-90843728D01*
X132903028Y-90840125D01*
X132889915Y-90836611D01*
X132883318Y-90836265D01*
X132883316Y-90836265D01*
X132823113Y-90833110D01*
X132816539Y-90832593D01*
X132799895Y-90830844D01*
X132799891Y-90830844D01*
X132796620Y-90830500D01*
X132776593Y-90830500D01*
X132769999Y-90830327D01*
X132709782Y-90827171D01*
X132709778Y-90827171D01*
X132703190Y-90826826D01*
X132696675Y-90827858D01*
X132696673Y-90827858D01*
X132689786Y-90828949D01*
X132670075Y-90830500D01*
X121870500Y-90830500D01*
X121802379Y-90810498D01*
X121755886Y-90756842D01*
X121744500Y-90704500D01*
X121744500Y-89339686D01*
X121764502Y-89271565D01*
X121818158Y-89225072D01*
X121888432Y-89214968D01*
X121954812Y-89246051D01*
X121969381Y-89259170D01*
X121969385Y-89259173D01*
X121974285Y-89263585D01*
X121979995Y-89266881D01*
X121979998Y-89266884D01*
X121986045Y-89270375D01*
X122002330Y-89281568D01*
X122012875Y-89290107D01*
X122072480Y-89320477D01*
X122078276Y-89323624D01*
X122136215Y-89357075D01*
X122149125Y-89361270D01*
X122167384Y-89368833D01*
X122179476Y-89374994D01*
X122215829Y-89384735D01*
X122244094Y-89392309D01*
X122250419Y-89394182D01*
X122314044Y-89414855D01*
X122320611Y-89415545D01*
X122320615Y-89415546D01*
X122326288Y-89416142D01*
X122327530Y-89416272D01*
X122346972Y-89419875D01*
X122360085Y-89423389D01*
X122366682Y-89423735D01*
X122366684Y-89423735D01*
X122426887Y-89426890D01*
X122433461Y-89427407D01*
X122450105Y-89429156D01*
X122450109Y-89429156D01*
X122453380Y-89429500D01*
X122473407Y-89429500D01*
X122480001Y-89429673D01*
X122540218Y-89432829D01*
X122540222Y-89432829D01*
X122546810Y-89433174D01*
X122553325Y-89432142D01*
X122553327Y-89432142D01*
X122560214Y-89431051D01*
X122579925Y-89429500D01*
X126340075Y-89429500D01*
X126359786Y-89431051D01*
X126366673Y-89432142D01*
X126366675Y-89432142D01*
X126373190Y-89433174D01*
X126379778Y-89432829D01*
X126379782Y-89432829D01*
X126439999Y-89429673D01*
X126446593Y-89429500D01*
X126466620Y-89429500D01*
X126469891Y-89429156D01*
X126469895Y-89429156D01*
X126486539Y-89427407D01*
X126493113Y-89426890D01*
X126553316Y-89423735D01*
X126553318Y-89423735D01*
X126559915Y-89423389D01*
X126573028Y-89419875D01*
X126592470Y-89416272D01*
X126593712Y-89416142D01*
X126599385Y-89415546D01*
X126599389Y-89415545D01*
X126605956Y-89414855D01*
X126669581Y-89394182D01*
X126675906Y-89392309D01*
X126704171Y-89384735D01*
X126740524Y-89374994D01*
X126752616Y-89368833D01*
X126770875Y-89361270D01*
X126783785Y-89357075D01*
X126841724Y-89323624D01*
X126847520Y-89320477D01*
X126907125Y-89290107D01*
X126917670Y-89281568D01*
X126933955Y-89270375D01*
X126940002Y-89266884D01*
X126940005Y-89266881D01*
X126945715Y-89263585D01*
X126950615Y-89259173D01*
X126950619Y-89259170D01*
X126982494Y-89230469D01*
X126995432Y-89218819D01*
X127000446Y-89214537D01*
X127013441Y-89204014D01*
X127016006Y-89201937D01*
X127030153Y-89187790D01*
X127034937Y-89183249D01*
X127079766Y-89142885D01*
X127079767Y-89142883D01*
X127084669Y-89138470D01*
X127092652Y-89127482D01*
X127105489Y-89112454D01*
X127706405Y-88511538D01*
X127768717Y-88477512D01*
X127839532Y-88482577D01*
X127896368Y-88525124D01*
X127921179Y-88591644D01*
X127921500Y-88600633D01*
X127921500Y-89828134D01*
X127928255Y-89890316D01*
X127979385Y-90026705D01*
X128066739Y-90143261D01*
X128183295Y-90230615D01*
X128319684Y-90281745D01*
X128381866Y-90288500D01*
X130378134Y-90288500D01*
X130440316Y-90281745D01*
X130576705Y-90230615D01*
X130693261Y-90143261D01*
X130780615Y-90026705D01*
X130831745Y-89890316D01*
X130838500Y-89828134D01*
X130838500Y-88175500D01*
X130858502Y-88107379D01*
X130912158Y-88060886D01*
X130964500Y-88049500D01*
X139462371Y-88049500D01*
X139530492Y-88069502D01*
X139569803Y-88109665D01*
X139584851Y-88134220D01*
X139642840Y-88228849D01*
X139646057Y-88232616D01*
X139646058Y-88232617D01*
X139773574Y-88381920D01*
X139798682Y-88411318D01*
X139981151Y-88567160D01*
X140185751Y-88692540D01*
X140190321Y-88694433D01*
X140190323Y-88694434D01*
X140402874Y-88782475D01*
X140407447Y-88784369D01*
X140489037Y-88803957D01*
X140635965Y-88839232D01*
X140635971Y-88839233D01*
X140640778Y-88840387D01*
X140880000Y-88859214D01*
X141119222Y-88840387D01*
X141124029Y-88839233D01*
X141124035Y-88839232D01*
X141270963Y-88803957D01*
X141352553Y-88784369D01*
X141357126Y-88782475D01*
X141569677Y-88694434D01*
X141569679Y-88694433D01*
X141574249Y-88692540D01*
X141778849Y-88567160D01*
X141961318Y-88411318D01*
X141986426Y-88381921D01*
X142113942Y-88232617D01*
X142113943Y-88232616D01*
X142117160Y-88228849D01*
X142242540Y-88024249D01*
X142260625Y-87980589D01*
X142332475Y-87807126D01*
X142332476Y-87807124D01*
X142334369Y-87802553D01*
X142370874Y-87650500D01*
X142389232Y-87574035D01*
X142389233Y-87574029D01*
X142390387Y-87569222D01*
X142409214Y-87330000D01*
X142390387Y-87090778D01*
X142389233Y-87085971D01*
X142389232Y-87085965D01*
X142348585Y-86916660D01*
X142334369Y-86857447D01*
X142327733Y-86841425D01*
X142244434Y-86640323D01*
X142244433Y-86640321D01*
X142242540Y-86635751D01*
X142117160Y-86431151D01*
X142111627Y-86424672D01*
X141964531Y-86252444D01*
X141961318Y-86248682D01*
X141778849Y-86092840D01*
X141574249Y-85967460D01*
X141569679Y-85965567D01*
X141569677Y-85965566D01*
X141357126Y-85877525D01*
X141357124Y-85877524D01*
X141352553Y-85875631D01*
X141242598Y-85849233D01*
X141124035Y-85820768D01*
X141124029Y-85820767D01*
X141119222Y-85819613D01*
X140880000Y-85800786D01*
X140640778Y-85819613D01*
X140635971Y-85820767D01*
X140635965Y-85820768D01*
X140517402Y-85849233D01*
X140407447Y-85875631D01*
X140402876Y-85877524D01*
X140402874Y-85877525D01*
X140190323Y-85965566D01*
X140190321Y-85965567D01*
X140185751Y-85967460D01*
X139981151Y-86092840D01*
X139808481Y-86240313D01*
X139743693Y-86269342D01*
X139726653Y-86270500D01*
X130816626Y-86270500D01*
X130748505Y-86250498D01*
X130702012Y-86196842D01*
X130691908Y-86126568D01*
X130709192Y-86078667D01*
X130742540Y-86024249D01*
X130777974Y-85938705D01*
X130832475Y-85807126D01*
X130832476Y-85807124D01*
X130834369Y-85802553D01*
X130870081Y-85653802D01*
X130889232Y-85574035D01*
X130889233Y-85574029D01*
X130890387Y-85569222D01*
X130909214Y-85330000D01*
X130890387Y-85090778D01*
X130889233Y-85085971D01*
X130889232Y-85085965D01*
X130835524Y-84862259D01*
X130834369Y-84857447D01*
X130808063Y-84793938D01*
X130744434Y-84640323D01*
X130744433Y-84640321D01*
X130742540Y-84635751D01*
X130617160Y-84431151D01*
X130519545Y-84316857D01*
X130464531Y-84252444D01*
X130461318Y-84248682D01*
X130306559Y-84116506D01*
X130282617Y-84096058D01*
X130282616Y-84096057D01*
X130278849Y-84092840D01*
X130074249Y-83967460D01*
X130069679Y-83965567D01*
X130069677Y-83965566D01*
X129857126Y-83877525D01*
X129857124Y-83877524D01*
X129852553Y-83875631D01*
X129770963Y-83856043D01*
X129624035Y-83820768D01*
X129624029Y-83820767D01*
X129619222Y-83819613D01*
X129380000Y-83800786D01*
X129140778Y-83819613D01*
X129135971Y-83820767D01*
X129135965Y-83820768D01*
X128989037Y-83856043D01*
X128907447Y-83875631D01*
X128902876Y-83877524D01*
X128902874Y-83877525D01*
X128690323Y-83965566D01*
X128690321Y-83965567D01*
X128685751Y-83967460D01*
X128481151Y-84092840D01*
X128477384Y-84096057D01*
X128477383Y-84096058D01*
X128453441Y-84116506D01*
X128298682Y-84248682D01*
X128295469Y-84252444D01*
X128240456Y-84316857D01*
X128142840Y-84431151D01*
X128017460Y-84635751D01*
X128015567Y-84640321D01*
X128015566Y-84640323D01*
X127951937Y-84793938D01*
X127925631Y-84857447D01*
X127924476Y-84862259D01*
X127870768Y-85085965D01*
X127870767Y-85085971D01*
X127869613Y-85090778D01*
X127850786Y-85330000D01*
X127869613Y-85569222D01*
X127870767Y-85574029D01*
X127870768Y-85574035D01*
X127889919Y-85653802D01*
X127925631Y-85802553D01*
X127927524Y-85807124D01*
X127927525Y-85807126D01*
X127982027Y-85938705D01*
X128017460Y-86024249D01*
X128050807Y-86078667D01*
X128069345Y-86147199D01*
X128047888Y-86214876D01*
X127993249Y-86260209D01*
X127943374Y-86270500D01*
X127879925Y-86270500D01*
X127860214Y-86268949D01*
X127853327Y-86267858D01*
X127853325Y-86267858D01*
X127846810Y-86266826D01*
X127840222Y-86267171D01*
X127840218Y-86267171D01*
X127780001Y-86270327D01*
X127773407Y-86270500D01*
X127753380Y-86270500D01*
X127750109Y-86270844D01*
X127750105Y-86270844D01*
X127733461Y-86272593D01*
X127726887Y-86273110D01*
X127666684Y-86276265D01*
X127666682Y-86276265D01*
X127660085Y-86276611D01*
X127646972Y-86280125D01*
X127627530Y-86283728D01*
X127626288Y-86283858D01*
X127620615Y-86284454D01*
X127620611Y-86284455D01*
X127614044Y-86285145D01*
X127588570Y-86293422D01*
X127550418Y-86305818D01*
X127544094Y-86307691D01*
X127479476Y-86325006D01*
X127467384Y-86331167D01*
X127449125Y-86338730D01*
X127436215Y-86342925D01*
X127400812Y-86363365D01*
X127378276Y-86376376D01*
X127372480Y-86379523D01*
X127312875Y-86409893D01*
X127302330Y-86418432D01*
X127286045Y-86429625D01*
X127279998Y-86433116D01*
X127279995Y-86433119D01*
X127274285Y-86436415D01*
X127269385Y-86440827D01*
X127269381Y-86440830D01*
X127257025Y-86451956D01*
X127230980Y-86475408D01*
X127224575Y-86481175D01*
X127219554Y-86485463D01*
X127207763Y-86495011D01*
X127203994Y-86498063D01*
X127189847Y-86512210D01*
X127185063Y-86516751D01*
X127135331Y-86561530D01*
X127127348Y-86572518D01*
X127114511Y-86587546D01*
X126088462Y-87613595D01*
X126026150Y-87647621D01*
X125999367Y-87650500D01*
X125383940Y-87650500D01*
X125315819Y-87630498D01*
X125269326Y-87576842D01*
X125259222Y-87506568D01*
X125288716Y-87441988D01*
X125310772Y-87421921D01*
X125339860Y-87401173D01*
X125391583Y-87349631D01*
X125421209Y-87320107D01*
X125498096Y-87243489D01*
X125539747Y-87185526D01*
X125625435Y-87066277D01*
X125628453Y-87062077D01*
X125630902Y-87057123D01*
X125725136Y-86866453D01*
X125725137Y-86866451D01*
X125727430Y-86861811D01*
X125792370Y-86648069D01*
X125821529Y-86426590D01*
X125821728Y-86418432D01*
X125823074Y-86363365D01*
X125823074Y-86363361D01*
X125823156Y-86360000D01*
X125804852Y-86137361D01*
X125750431Y-85920702D01*
X125661354Y-85715840D01*
X125621220Y-85653802D01*
X125542822Y-85532617D01*
X125542820Y-85532614D01*
X125540014Y-85528277D01*
X125389670Y-85363051D01*
X125385619Y-85359852D01*
X125385615Y-85359848D01*
X125218414Y-85227800D01*
X125218410Y-85227798D01*
X125214359Y-85224598D01*
X125173053Y-85201796D01*
X125123084Y-85151364D01*
X125108312Y-85081921D01*
X125133428Y-85015516D01*
X125160780Y-84988909D01*
X125224570Y-84943408D01*
X125339860Y-84861173D01*
X125383565Y-84817621D01*
X125437176Y-84764196D01*
X125498096Y-84703489D01*
X125512371Y-84683624D01*
X125625435Y-84526277D01*
X125628453Y-84522077D01*
X125640121Y-84498470D01*
X125725136Y-84326453D01*
X125725137Y-84326451D01*
X125727430Y-84321811D01*
X125770244Y-84180893D01*
X125790865Y-84113023D01*
X125790865Y-84113021D01*
X125792370Y-84108069D01*
X125821529Y-83886590D01*
X125821611Y-83883240D01*
X125823074Y-83823365D01*
X125823074Y-83823361D01*
X125823156Y-83820000D01*
X125804852Y-83597361D01*
X125750431Y-83380702D01*
X125661354Y-83175840D01*
X125588964Y-83063942D01*
X125542822Y-82992617D01*
X125542820Y-82992614D01*
X125540014Y-82988277D01*
X125535285Y-82983080D01*
X125392798Y-82826488D01*
X125361746Y-82762642D01*
X125370141Y-82692143D01*
X125415317Y-82637375D01*
X125441761Y-82623706D01*
X125548297Y-82583767D01*
X125556705Y-82580615D01*
X125673261Y-82493261D01*
X125760615Y-82376705D01*
X125811745Y-82240316D01*
X125818500Y-82178134D01*
X125818500Y-81830000D01*
X127850786Y-81830000D01*
X127869613Y-82069222D01*
X127870767Y-82074029D01*
X127870768Y-82074035D01*
X127896576Y-82181531D01*
X127925631Y-82302553D01*
X127927524Y-82307124D01*
X127927525Y-82307126D01*
X128011284Y-82509338D01*
X128017460Y-82524249D01*
X128142840Y-82728849D01*
X128146057Y-82732616D01*
X128146058Y-82732617D01*
X128240385Y-82843061D01*
X128298682Y-82911318D01*
X128302444Y-82914531D01*
X128416520Y-83011960D01*
X128481151Y-83067160D01*
X128685751Y-83192540D01*
X128690321Y-83194433D01*
X128690323Y-83194434D01*
X128902874Y-83282475D01*
X128907447Y-83284369D01*
X128989037Y-83303957D01*
X129135965Y-83339232D01*
X129135971Y-83339233D01*
X129140778Y-83340387D01*
X129380000Y-83359214D01*
X129619222Y-83340387D01*
X129624029Y-83339233D01*
X129624035Y-83339232D01*
X129770963Y-83303957D01*
X129852553Y-83284369D01*
X129857126Y-83282475D01*
X130069677Y-83194434D01*
X130069679Y-83194433D01*
X130074249Y-83192540D01*
X130278849Y-83067160D01*
X130343481Y-83011960D01*
X130457556Y-82914531D01*
X130461318Y-82911318D01*
X130519615Y-82843061D01*
X130613942Y-82732617D01*
X130613943Y-82732616D01*
X130617160Y-82728849D01*
X130742540Y-82524249D01*
X130748717Y-82509338D01*
X130832475Y-82307126D01*
X130832476Y-82307124D01*
X130834369Y-82302553D01*
X130863424Y-82181531D01*
X130889232Y-82074035D01*
X130889233Y-82074029D01*
X130890387Y-82069222D01*
X130909214Y-81830000D01*
X130890387Y-81590778D01*
X130889233Y-81585971D01*
X130889232Y-81585965D01*
X130853764Y-81438233D01*
X130834369Y-81357447D01*
X130828484Y-81343240D01*
X130744434Y-81140323D01*
X130744433Y-81140321D01*
X130742540Y-81135751D01*
X130617160Y-80931151D01*
X130461318Y-80748682D01*
X130278849Y-80592840D01*
X130074249Y-80467460D01*
X130069679Y-80465567D01*
X130069677Y-80465566D01*
X129857126Y-80377525D01*
X129857124Y-80377524D01*
X129852553Y-80375631D01*
X129770963Y-80356043D01*
X129624035Y-80320768D01*
X129624029Y-80320767D01*
X129619222Y-80319613D01*
X129380000Y-80300786D01*
X129140778Y-80319613D01*
X129135971Y-80320767D01*
X129135965Y-80320768D01*
X128989037Y-80356043D01*
X128907447Y-80375631D01*
X128902876Y-80377524D01*
X128902874Y-80377525D01*
X128690323Y-80465566D01*
X128690321Y-80465567D01*
X128685751Y-80467460D01*
X128481151Y-80592840D01*
X128298682Y-80748682D01*
X128142840Y-80931151D01*
X128017460Y-81135751D01*
X128015567Y-81140321D01*
X128015566Y-81140323D01*
X127931516Y-81343240D01*
X127925631Y-81357447D01*
X127906236Y-81438233D01*
X127870768Y-81585965D01*
X127870767Y-81585971D01*
X127869613Y-81590778D01*
X127850786Y-81830000D01*
X125818500Y-81830000D01*
X125818500Y-80381866D01*
X125811745Y-80319684D01*
X125760615Y-80183295D01*
X125721471Y-80131065D01*
X125696623Y-80064558D01*
X125711676Y-79995176D01*
X125761850Y-79944946D01*
X125822297Y-79929500D01*
X131339367Y-79929500D01*
X131407488Y-79949502D01*
X131428462Y-79966405D01*
X135934511Y-84472454D01*
X135947348Y-84487482D01*
X135955331Y-84498470D01*
X135960233Y-84502883D01*
X135960234Y-84502885D01*
X136005063Y-84543249D01*
X136009847Y-84547790D01*
X136023994Y-84561937D01*
X136026559Y-84564014D01*
X136039554Y-84574537D01*
X136044568Y-84578819D01*
X136055796Y-84588929D01*
X136089381Y-84619170D01*
X136089385Y-84619173D01*
X136094285Y-84623585D01*
X136099995Y-84626881D01*
X136099998Y-84626884D01*
X136106045Y-84630375D01*
X136122330Y-84641568D01*
X136132875Y-84650107D01*
X136192480Y-84680477D01*
X136198276Y-84683624D01*
X136256215Y-84717075D01*
X136269125Y-84721270D01*
X136287384Y-84728833D01*
X136299476Y-84734994D01*
X136356641Y-84750312D01*
X136364094Y-84752309D01*
X136370419Y-84754182D01*
X136434044Y-84774855D01*
X136440611Y-84775545D01*
X136440615Y-84775546D01*
X136446288Y-84776142D01*
X136447530Y-84776272D01*
X136466972Y-84779875D01*
X136480085Y-84783389D01*
X136486682Y-84783735D01*
X136486684Y-84783735D01*
X136546887Y-84786890D01*
X136553461Y-84787407D01*
X136570105Y-84789156D01*
X136570109Y-84789156D01*
X136573380Y-84789500D01*
X136593407Y-84789500D01*
X136600001Y-84789673D01*
X136660218Y-84792829D01*
X136660222Y-84792829D01*
X136666810Y-84793174D01*
X136673325Y-84792142D01*
X136673327Y-84792142D01*
X136680214Y-84791051D01*
X136699925Y-84789500D01*
X139636554Y-84789500D01*
X139704675Y-84809502D01*
X139732360Y-84833665D01*
X139798682Y-84911318D01*
X139981151Y-85067160D01*
X140185751Y-85192540D01*
X140190321Y-85194433D01*
X140190323Y-85194434D01*
X140299480Y-85239648D01*
X140407447Y-85284369D01*
X140489037Y-85303957D01*
X140635965Y-85339232D01*
X140635971Y-85339233D01*
X140640778Y-85340387D01*
X140880000Y-85359214D01*
X141119222Y-85340387D01*
X141124029Y-85339233D01*
X141124035Y-85339232D01*
X141270963Y-85303957D01*
X141352553Y-85284369D01*
X141460520Y-85239648D01*
X141569677Y-85194434D01*
X141569679Y-85194433D01*
X141574249Y-85192540D01*
X141778849Y-85067160D01*
X141961318Y-84911318D01*
X142007328Y-84857447D01*
X142113942Y-84732617D01*
X142113943Y-84732616D01*
X142117160Y-84728849D01*
X142242540Y-84524249D01*
X142261089Y-84479469D01*
X142332475Y-84307126D01*
X142332476Y-84307124D01*
X142334369Y-84302553D01*
X142367657Y-84163899D01*
X142389232Y-84074035D01*
X142389233Y-84074029D01*
X142390387Y-84069222D01*
X142409214Y-83830000D01*
X142390387Y-83590778D01*
X142389233Y-83585971D01*
X142389232Y-83585965D01*
X142353957Y-83439037D01*
X142334369Y-83357447D01*
X142332475Y-83352874D01*
X142244434Y-83140323D01*
X142244433Y-83140321D01*
X142242540Y-83135751D01*
X142117160Y-82931151D01*
X142088122Y-82897151D01*
X141964531Y-82752444D01*
X141961318Y-82748682D01*
X141865103Y-82666507D01*
X141782617Y-82596058D01*
X141782616Y-82596057D01*
X141778849Y-82592840D01*
X141574249Y-82467460D01*
X141569679Y-82465567D01*
X141569677Y-82465566D01*
X141357126Y-82377525D01*
X141357124Y-82377524D01*
X141352553Y-82375631D01*
X141262150Y-82353927D01*
X141124035Y-82320768D01*
X141124029Y-82320767D01*
X141119222Y-82319613D01*
X140880000Y-82300786D01*
X140640778Y-82319613D01*
X140635971Y-82320767D01*
X140635965Y-82320768D01*
X140497850Y-82353927D01*
X140407447Y-82375631D01*
X140402876Y-82377524D01*
X140402874Y-82377525D01*
X140190323Y-82465566D01*
X140190321Y-82465567D01*
X140185751Y-82467460D01*
X139981151Y-82592840D01*
X139977384Y-82596057D01*
X139977383Y-82596058D01*
X139894897Y-82666507D01*
X139798682Y-82748682D01*
X139795469Y-82752444D01*
X139671879Y-82897151D01*
X139642840Y-82931151D01*
X139640256Y-82935368D01*
X139631083Y-82950337D01*
X139578434Y-82997967D01*
X139523651Y-83010500D01*
X137040633Y-83010500D01*
X136972512Y-82990498D01*
X136951538Y-82973595D01*
X135552284Y-81574341D01*
X140000489Y-81574341D01*
X140006216Y-81581991D01*
X140181737Y-81689551D01*
X140190531Y-81694032D01*
X140403014Y-81782045D01*
X140412399Y-81785094D01*
X140636036Y-81838785D01*
X140645783Y-81840328D01*
X140875070Y-81858374D01*
X140884930Y-81858374D01*
X141114217Y-81840328D01*
X141123964Y-81838785D01*
X141347601Y-81785094D01*
X141356986Y-81782045D01*
X141569469Y-81694032D01*
X141578263Y-81689551D01*
X141750118Y-81584238D01*
X141759578Y-81573781D01*
X141755795Y-81565005D01*
X140892812Y-80702022D01*
X140878868Y-80694408D01*
X140877035Y-80694539D01*
X140870420Y-80698790D01*
X140007249Y-81561961D01*
X140000489Y-81574341D01*
X135552284Y-81574341D01*
X134312873Y-80334930D01*
X139351626Y-80334930D01*
X139369672Y-80564217D01*
X139371215Y-80573964D01*
X139424906Y-80797601D01*
X139427955Y-80806986D01*
X139515968Y-81019469D01*
X139520449Y-81028263D01*
X139625762Y-81200118D01*
X139636219Y-81209578D01*
X139644995Y-81205795D01*
X140507978Y-80342812D01*
X140514356Y-80331132D01*
X141244408Y-80331132D01*
X141244539Y-80332965D01*
X141248790Y-80339580D01*
X142111961Y-81202751D01*
X142124341Y-81209511D01*
X142131991Y-81203784D01*
X142239551Y-81028263D01*
X142244032Y-81019469D01*
X142332045Y-80806986D01*
X142335094Y-80797601D01*
X142388785Y-80573964D01*
X142390328Y-80564217D01*
X142408374Y-80334930D01*
X142408374Y-80325070D01*
X142390328Y-80095783D01*
X142388785Y-80086036D01*
X142335094Y-79862399D01*
X142332045Y-79853014D01*
X142244032Y-79640531D01*
X142239551Y-79631737D01*
X142134238Y-79459882D01*
X142123781Y-79450422D01*
X142115005Y-79454205D01*
X141252022Y-80317188D01*
X141244408Y-80331132D01*
X140514356Y-80331132D01*
X140515592Y-80328868D01*
X140515461Y-80327035D01*
X140511210Y-80320420D01*
X139648039Y-79457249D01*
X139635659Y-79450489D01*
X139628009Y-79456216D01*
X139520449Y-79631737D01*
X139515968Y-79640531D01*
X139427955Y-79853014D01*
X139424906Y-79862399D01*
X139371215Y-80086036D01*
X139369672Y-80095783D01*
X139351626Y-80325070D01*
X139351626Y-80334930D01*
X134312873Y-80334930D01*
X133064162Y-79086219D01*
X140000422Y-79086219D01*
X140004205Y-79094995D01*
X140867188Y-79957978D01*
X140881132Y-79965592D01*
X140882965Y-79965461D01*
X140889580Y-79961210D01*
X141752751Y-79098039D01*
X141759511Y-79085659D01*
X141753784Y-79078009D01*
X141578263Y-78970449D01*
X141569469Y-78965968D01*
X141356986Y-78877955D01*
X141347601Y-78874906D01*
X141123964Y-78821215D01*
X141114217Y-78819672D01*
X140884930Y-78801626D01*
X140875070Y-78801626D01*
X140645783Y-78819672D01*
X140636036Y-78821215D01*
X140412399Y-78874906D01*
X140403014Y-78877955D01*
X140190531Y-78965968D01*
X140181737Y-78970449D01*
X140009882Y-79075762D01*
X140000422Y-79086219D01*
X133064162Y-79086219D01*
X132445489Y-78467546D01*
X132432652Y-78452518D01*
X132424669Y-78441530D01*
X132409643Y-78428000D01*
X132374937Y-78396751D01*
X132370153Y-78392210D01*
X132356006Y-78378063D01*
X132340446Y-78365463D01*
X132335425Y-78361175D01*
X132290619Y-78320830D01*
X132290615Y-78320827D01*
X132285715Y-78316415D01*
X132280005Y-78313119D01*
X132280002Y-78313116D01*
X132273955Y-78309625D01*
X132257670Y-78298432D01*
X132254610Y-78295954D01*
X132247125Y-78289893D01*
X132187520Y-78259523D01*
X132181724Y-78256376D01*
X132175975Y-78253057D01*
X132123785Y-78222925D01*
X132110875Y-78218730D01*
X132092616Y-78211167D01*
X132080524Y-78205006D01*
X132015906Y-78187691D01*
X132009582Y-78185818D01*
X131960849Y-78169984D01*
X131945956Y-78165145D01*
X131939389Y-78164455D01*
X131939385Y-78164454D01*
X131933712Y-78163858D01*
X131932470Y-78163728D01*
X131913028Y-78160125D01*
X131899915Y-78156611D01*
X131893318Y-78156265D01*
X131893316Y-78156265D01*
X131833113Y-78153110D01*
X131826539Y-78152593D01*
X131809895Y-78150844D01*
X131809891Y-78150844D01*
X131806620Y-78150500D01*
X131786593Y-78150500D01*
X131779999Y-78150327D01*
X131719782Y-78147171D01*
X131719778Y-78147171D01*
X131713190Y-78146826D01*
X131706675Y-78147858D01*
X131706673Y-78147858D01*
X131699786Y-78148949D01*
X131680075Y-78150500D01*
X123314633Y-78150500D01*
X123246512Y-78130498D01*
X123225538Y-78113595D01*
X121781405Y-76669462D01*
X121747379Y-76607150D01*
X121744500Y-76580367D01*
X121744500Y-74970672D01*
X133807364Y-74970672D01*
X133807776Y-74977814D01*
X133823312Y-75247272D01*
X133824137Y-75251479D01*
X133824138Y-75251484D01*
X133853858Y-75402966D01*
X133876653Y-75519149D01*
X133878040Y-75523200D01*
X133957729Y-75755954D01*
X133966397Y-75781272D01*
X133968323Y-75785101D01*
X134072903Y-75993035D01*
X134090885Y-76028789D01*
X134093311Y-76032318D01*
X134093314Y-76032324D01*
X134210868Y-76203365D01*
X134247814Y-76257121D01*
X134434279Y-76462044D01*
X134517292Y-76531453D01*
X134643538Y-76637012D01*
X134643543Y-76637016D01*
X134646830Y-76639764D01*
X134705480Y-76676555D01*
X134877893Y-76784710D01*
X134877897Y-76784712D01*
X134881533Y-76786993D01*
X135134047Y-76901007D01*
X135399697Y-76979697D01*
X135403931Y-76980345D01*
X135403936Y-76980346D01*
X135669327Y-77020956D01*
X135669329Y-77020956D01*
X135673569Y-77021605D01*
X135814603Y-77023821D01*
X135946304Y-77025890D01*
X135946310Y-77025890D01*
X135950595Y-77025957D01*
X136225649Y-76992672D01*
X136493640Y-76922365D01*
X136749610Y-76816339D01*
X136945602Y-76701811D01*
X136985124Y-76678716D01*
X136985125Y-76678716D01*
X136988822Y-76676555D01*
X137206850Y-76505599D01*
X137399660Y-76306635D01*
X137563683Y-76083344D01*
X137684765Y-75860340D01*
X137693835Y-75843635D01*
X137693836Y-75843633D01*
X137695885Y-75839859D01*
X137769182Y-75645884D01*
X137792301Y-75584703D01*
X137792302Y-75584699D01*
X137793819Y-75580685D01*
X137840215Y-75378108D01*
X137854714Y-75314802D01*
X137854715Y-75314798D01*
X137855672Y-75310618D01*
X137861326Y-75247272D01*
X137880081Y-75037119D01*
X137880301Y-75034654D01*
X137880534Y-75012472D01*
X137880722Y-74994484D01*
X137880722Y-74994483D01*
X137880748Y-74992000D01*
X137879781Y-74977814D01*
X137862196Y-74719859D01*
X137862195Y-74719853D01*
X137861904Y-74715582D01*
X137859463Y-74703792D01*
X137806590Y-74448484D01*
X137805719Y-74444278D01*
X137803591Y-74438267D01*
X137714666Y-74187151D01*
X137713235Y-74183110D01*
X137586161Y-73936910D01*
X137582684Y-73931962D01*
X137429313Y-73713738D01*
X137426850Y-73710233D01*
X137238250Y-73507275D01*
X137234934Y-73504561D01*
X137234931Y-73504558D01*
X137065943Y-73366243D01*
X137023850Y-73331790D01*
X136787617Y-73187027D01*
X136783681Y-73185299D01*
X136537852Y-73077387D01*
X136537848Y-73077386D01*
X136533924Y-73075663D01*
X136267464Y-72999760D01*
X136263222Y-72999156D01*
X136263216Y-72999155D01*
X135997419Y-72961327D01*
X135993168Y-72960722D01*
X135847201Y-72959958D01*
X135720398Y-72959293D01*
X135720391Y-72959293D01*
X135716112Y-72959271D01*
X135711868Y-72959830D01*
X135711864Y-72959830D01*
X135590893Y-72975757D01*
X135441422Y-72995435D01*
X135437282Y-72996568D01*
X135437280Y-72996568D01*
X135425612Y-72999760D01*
X135174182Y-73068543D01*
X135115195Y-73093703D01*
X134923278Y-73175562D01*
X134923271Y-73175566D01*
X134919336Y-73177244D01*
X134915655Y-73179447D01*
X134685282Y-73317322D01*
X134685278Y-73317325D01*
X134681600Y-73319526D01*
X134678257Y-73322204D01*
X134678253Y-73322207D01*
X134616577Y-73371619D01*
X134465374Y-73492756D01*
X134274659Y-73693728D01*
X134112983Y-73918724D01*
X133983338Y-74163580D01*
X133981863Y-74167611D01*
X133909891Y-74364285D01*
X133888124Y-74423765D01*
X133829102Y-74694466D01*
X133828766Y-74698736D01*
X133808469Y-74956638D01*
X133807364Y-74970672D01*
X121744500Y-74970672D01*
X121744500Y-74433866D01*
X121737745Y-74371684D01*
X121686615Y-74235295D01*
X121599261Y-74118739D01*
X121482705Y-74031385D01*
X121346316Y-73980255D01*
X121284134Y-73973500D01*
X119187866Y-73973500D01*
X119125684Y-73980255D01*
X118989295Y-74031385D01*
X118872739Y-74118739D01*
X118785385Y-74235295D01*
X118734255Y-74371684D01*
X118727500Y-74433866D01*
X118727500Y-78330134D01*
X118734255Y-78392316D01*
X118785385Y-78528705D01*
X118872739Y-78645261D01*
X118989295Y-78732615D01*
X119125684Y-78783745D01*
X119187866Y-78790500D01*
X121284134Y-78790500D01*
X121316506Y-78786983D01*
X121386386Y-78799510D01*
X121419208Y-78823151D01*
X122208511Y-79612454D01*
X122221348Y-79627482D01*
X122229331Y-79638470D01*
X122234233Y-79642883D01*
X122234234Y-79642885D01*
X122279063Y-79683249D01*
X122283847Y-79687790D01*
X122297994Y-79701937D01*
X122300559Y-79704014D01*
X122313554Y-79714537D01*
X122318575Y-79718825D01*
X122363381Y-79759170D01*
X122363385Y-79759173D01*
X122368285Y-79763585D01*
X122373995Y-79766881D01*
X122373998Y-79766884D01*
X122380045Y-79770375D01*
X122396330Y-79781568D01*
X122406875Y-79790107D01*
X122466480Y-79820477D01*
X122472276Y-79823624D01*
X122530215Y-79857075D01*
X122543125Y-79861270D01*
X122561384Y-79868833D01*
X122573476Y-79874994D01*
X122612027Y-79885324D01*
X122638094Y-79892309D01*
X122644419Y-79894182D01*
X122708044Y-79914855D01*
X122714611Y-79915545D01*
X122714615Y-79915546D01*
X122720288Y-79916142D01*
X122721530Y-79916272D01*
X122740972Y-79919875D01*
X122754085Y-79923389D01*
X122760682Y-79923735D01*
X122760684Y-79923735D01*
X122820887Y-79926890D01*
X122827461Y-79927407D01*
X122844105Y-79929156D01*
X122844109Y-79929156D01*
X122847380Y-79929500D01*
X122867407Y-79929500D01*
X122874001Y-79929673D01*
X122934218Y-79932829D01*
X122934222Y-79932829D01*
X122940810Y-79933174D01*
X122947325Y-79932142D01*
X122947327Y-79932142D01*
X122954214Y-79931051D01*
X122973925Y-79929500D01*
X123097703Y-79929500D01*
X123165824Y-79949502D01*
X123212317Y-80003158D01*
X123222421Y-80073432D01*
X123198529Y-80131065D01*
X123159385Y-80183295D01*
X123108255Y-80319684D01*
X123101500Y-80381866D01*
X123101500Y-82178134D01*
X123108255Y-82240316D01*
X123159385Y-82376705D01*
X123246739Y-82493261D01*
X123363295Y-82580615D01*
X123371704Y-82583767D01*
X123371705Y-82583768D01*
X123480451Y-82624535D01*
X123537216Y-82667176D01*
X123561916Y-82733738D01*
X123546709Y-82803087D01*
X123527316Y-82829568D01*
X123429732Y-82931684D01*
X123400629Y-82962138D01*
X123397720Y-82966403D01*
X123397714Y-82966411D01*
X123386343Y-82983080D01*
X123274743Y-83146680D01*
X123229069Y-83245076D01*
X123184828Y-83340387D01*
X123180688Y-83349305D01*
X123120989Y-83564570D01*
X123097251Y-83786695D01*
X123097548Y-83791848D01*
X123097548Y-83791851D01*
X123105282Y-83925976D01*
X123110110Y-84009715D01*
X123111247Y-84014761D01*
X123111248Y-84014767D01*
X123130156Y-84098666D01*
X123159222Y-84227639D01*
X123243266Y-84434616D01*
X123245965Y-84439020D01*
X123355903Y-84618423D01*
X123359987Y-84625088D01*
X123363367Y-84628990D01*
X123368857Y-84635328D01*
X123506250Y-84793938D01*
X123678126Y-84936632D01*
X123689722Y-84943408D01*
X123751445Y-84979476D01*
X123800169Y-85031114D01*
X123813240Y-85100897D01*
X123786509Y-85166669D01*
X123746055Y-85200027D01*
X123733607Y-85206507D01*
X123729474Y-85209610D01*
X123729471Y-85209612D01*
X123562563Y-85334930D01*
X123554965Y-85340635D01*
X123400629Y-85502138D01*
X123274743Y-85686680D01*
X123227716Y-85787992D01*
X123200186Y-85847301D01*
X123180688Y-85889305D01*
X123120989Y-86104570D01*
X123097251Y-86326695D01*
X123097548Y-86331848D01*
X123097548Y-86331851D01*
X123108083Y-86514554D01*
X123110110Y-86549715D01*
X123111247Y-86554761D01*
X123111248Y-86554767D01*
X123130530Y-86640323D01*
X123159222Y-86767639D01*
X123243266Y-86974616D01*
X123278945Y-87032839D01*
X123355903Y-87158423D01*
X123359987Y-87165088D01*
X123506250Y-87333938D01*
X123619016Y-87427558D01*
X123658649Y-87486458D01*
X123660147Y-87557439D01*
X123623033Y-87617962D01*
X123559089Y-87648811D01*
X123538529Y-87650500D01*
X122920633Y-87650500D01*
X122852512Y-87630498D01*
X122831538Y-87613595D01*
X121511365Y-86293422D01*
X121477339Y-86231110D01*
X121482404Y-86160295D01*
X121524895Y-86103501D01*
X121582080Y-86060643D01*
X121582081Y-86060642D01*
X121589261Y-86055261D01*
X121676615Y-85938705D01*
X121727745Y-85802316D01*
X121734500Y-85740134D01*
X121734500Y-81843866D01*
X121727745Y-81781684D01*
X121676615Y-81645295D01*
X121589261Y-81528739D01*
X121472705Y-81441385D01*
X121336316Y-81390255D01*
X121274134Y-81383500D01*
X119177866Y-81383500D01*
X119115684Y-81390255D01*
X118979295Y-81441385D01*
X118862739Y-81528739D01*
X118775385Y-81645295D01*
X118724255Y-81781684D01*
X118717500Y-81843866D01*
X118717500Y-85740134D01*
X118724255Y-85802316D01*
X118775385Y-85938705D01*
X118862739Y-86055261D01*
X118979295Y-86142615D01*
X119115684Y-86193745D01*
X119177866Y-86200500D01*
X119211265Y-86200500D01*
X119279386Y-86220502D01*
X119325879Y-86274158D01*
X119336575Y-86313334D01*
X119338593Y-86332541D01*
X119339110Y-86339113D01*
X119339778Y-86351865D01*
X119342611Y-86405915D01*
X119345966Y-86418432D01*
X119346124Y-86419023D01*
X119349728Y-86438470D01*
X119351145Y-86451956D01*
X119362032Y-86485463D01*
X119371818Y-86515582D01*
X119373691Y-86521906D01*
X119391006Y-86586524D01*
X119397167Y-86598616D01*
X119404730Y-86616875D01*
X119408925Y-86629785D01*
X119439057Y-86681975D01*
X119442376Y-86687724D01*
X119445523Y-86693520D01*
X119475893Y-86753125D01*
X119480050Y-86758258D01*
X119484432Y-86763670D01*
X119495625Y-86779955D01*
X119499116Y-86786002D01*
X119499119Y-86786005D01*
X119502415Y-86791715D01*
X119506827Y-86796615D01*
X119506830Y-86796619D01*
X119547175Y-86841425D01*
X119551463Y-86846446D01*
X119564063Y-86862006D01*
X119578210Y-86876153D01*
X119582751Y-86880937D01*
X119627530Y-86930669D01*
X119638518Y-86938652D01*
X119653546Y-86951489D01*
X121260462Y-88558405D01*
X121294488Y-88620717D01*
X121289423Y-88691532D01*
X121246876Y-88748368D01*
X121180356Y-88773179D01*
X121171367Y-88773500D01*
X119187866Y-88773500D01*
X119125684Y-88780255D01*
X118989295Y-88831385D01*
X118872739Y-88918739D01*
X118785385Y-89035295D01*
X118734255Y-89171684D01*
X118727500Y-89233866D01*
X118727500Y-93130134D01*
X118734255Y-93192316D01*
X118785385Y-93328705D01*
X118872739Y-93445261D01*
X118989295Y-93532615D01*
X119125684Y-93583745D01*
X119187866Y-93590500D01*
X121284134Y-93590500D01*
X121346316Y-93583745D01*
X121482705Y-93532615D01*
X121599261Y-93445261D01*
X121686615Y-93328705D01*
X121737745Y-93192316D01*
X121744500Y-93130134D01*
X121744500Y-92735500D01*
X121764502Y-92667379D01*
X121818158Y-92620886D01*
X121870500Y-92609500D01*
X123112692Y-92609500D01*
X123180813Y-92629502D01*
X123227306Y-92683158D01*
X123237410Y-92753432D01*
X123213518Y-92811065D01*
X123185987Y-92847800D01*
X123159385Y-92883295D01*
X123108255Y-93019684D01*
X123101500Y-93081866D01*
X123101500Y-94878134D01*
X123108255Y-94940316D01*
X123159385Y-95076705D01*
X123246739Y-95193261D01*
X123363295Y-95280615D01*
X123371704Y-95283767D01*
X123371705Y-95283768D01*
X123480451Y-95324535D01*
X123537216Y-95367176D01*
X123561916Y-95433738D01*
X123546709Y-95503087D01*
X123527316Y-95529568D01*
X123400629Y-95662138D01*
X123397720Y-95666403D01*
X123397714Y-95666411D01*
X123385409Y-95684450D01*
X123274743Y-95846680D01*
X123259003Y-95880590D01*
X123183959Y-96042259D01*
X123180688Y-96049305D01*
X123120989Y-96264570D01*
X123097251Y-96486695D01*
X123097548Y-96491848D01*
X123097548Y-96491851D01*
X123103011Y-96586590D01*
X123110110Y-96709715D01*
X123111247Y-96714761D01*
X123111248Y-96714767D01*
X123131119Y-96802939D01*
X123159222Y-96927639D01*
X123195815Y-97017757D01*
X123235454Y-97115376D01*
X123243266Y-97134616D01*
X123245965Y-97139020D01*
X123355903Y-97318423D01*
X123359987Y-97325088D01*
X123506250Y-97493938D01*
X123678126Y-97636632D01*
X123689128Y-97643061D01*
X123751445Y-97679476D01*
X123800169Y-97731114D01*
X123813240Y-97800897D01*
X123786509Y-97866669D01*
X123746055Y-97900027D01*
X123733607Y-97906507D01*
X123729474Y-97909610D01*
X123729471Y-97909612D01*
X123581416Y-98020775D01*
X123554965Y-98040635D01*
X123400629Y-98202138D01*
X123274743Y-98386680D01*
X123259003Y-98420590D01*
X123195440Y-98557525D01*
X123180688Y-98589305D01*
X123120989Y-98804570D01*
X123097251Y-99026695D01*
X123097548Y-99031848D01*
X123097548Y-99031851D01*
X123103001Y-99126415D01*
X123110110Y-99249715D01*
X123111247Y-99254761D01*
X123111248Y-99254767D01*
X123124040Y-99311528D01*
X123159222Y-99467639D01*
X123243266Y-99674616D01*
X123245965Y-99679020D01*
X123355903Y-99858423D01*
X123359987Y-99865088D01*
X123506250Y-100033938D01*
X123655149Y-100157556D01*
X123694784Y-100216458D01*
X123696282Y-100287439D01*
X123659168Y-100347962D01*
X123595224Y-100378811D01*
X123574664Y-100380500D01*
X122910633Y-100380500D01*
X122842512Y-100360498D01*
X122821538Y-100343595D01*
X121781405Y-99303462D01*
X121747379Y-99241150D01*
X121744500Y-99214367D01*
X121744500Y-96633866D01*
X121737745Y-96571684D01*
X121686615Y-96435295D01*
X121599261Y-96318739D01*
X121482705Y-96231385D01*
X121346316Y-96180255D01*
X121284134Y-96173500D01*
X119187866Y-96173500D01*
X119125684Y-96180255D01*
X118989295Y-96231385D01*
X118872739Y-96318739D01*
X118785385Y-96435295D01*
X118734255Y-96571684D01*
X118727500Y-96633866D01*
X118727500Y-100530134D01*
X118734255Y-100592316D01*
X118785385Y-100728705D01*
X118872739Y-100845261D01*
X118989295Y-100932615D01*
X119125684Y-100983745D01*
X119187866Y-100990500D01*
X120900367Y-100990500D01*
X120968488Y-101010502D01*
X120989462Y-101027405D01*
X121804511Y-101842454D01*
X121817348Y-101857482D01*
X121825331Y-101868470D01*
X121830233Y-101872883D01*
X121830234Y-101872885D01*
X121875063Y-101913249D01*
X121879847Y-101917790D01*
X121893994Y-101931937D01*
X121896552Y-101934009D01*
X121896556Y-101934012D01*
X121909561Y-101944543D01*
X121914576Y-101948827D01*
X121957776Y-101987724D01*
X121964285Y-101993585D01*
X121976044Y-102000374D01*
X121992329Y-102011567D01*
X121997740Y-102015948D01*
X122002875Y-102020106D01*
X122008759Y-102023104D01*
X122008762Y-102023106D01*
X122062481Y-102050478D01*
X122068276Y-102053624D01*
X122126215Y-102087075D01*
X122132497Y-102089116D01*
X122132504Y-102089119D01*
X122139121Y-102091269D01*
X122157385Y-102098834D01*
X122157393Y-102098838D01*
X122169475Y-102104994D01*
X122234101Y-102122310D01*
X122240408Y-102124178D01*
X122304044Y-102144855D01*
X122310610Y-102145545D01*
X122310614Y-102145546D01*
X122317544Y-102146275D01*
X122336977Y-102149876D01*
X122341965Y-102151212D01*
X122350085Y-102153388D01*
X122356678Y-102153734D01*
X122356681Y-102153734D01*
X122416880Y-102156889D01*
X122423455Y-102157406D01*
X122443380Y-102159500D01*
X122463414Y-102159500D01*
X122470008Y-102159673D01*
X122530218Y-102162829D01*
X122530223Y-102162829D01*
X122536810Y-102163174D01*
X122543325Y-102162142D01*
X122543327Y-102162142D01*
X122550214Y-102161051D01*
X122569925Y-102159500D01*
X126370075Y-102159500D01*
X126389786Y-102161051D01*
X126396673Y-102162142D01*
X126396675Y-102162142D01*
X126403190Y-102163174D01*
X126409778Y-102162829D01*
X126409782Y-102162829D01*
X126469999Y-102159673D01*
X126476593Y-102159500D01*
X126496620Y-102159500D01*
X126499891Y-102159156D01*
X126499895Y-102159156D01*
X126516539Y-102157407D01*
X126523113Y-102156890D01*
X126583316Y-102153735D01*
X126583318Y-102153735D01*
X126589915Y-102153389D01*
X126596297Y-102151679D01*
X126597761Y-102151286D01*
X126603028Y-102149875D01*
X126622470Y-102146272D01*
X126623712Y-102146142D01*
X126629385Y-102145546D01*
X126629389Y-102145545D01*
X126635956Y-102144855D01*
X126699585Y-102124181D01*
X126705906Y-102122309D01*
X126713359Y-102120312D01*
X126770524Y-102104994D01*
X126782616Y-102098833D01*
X126800875Y-102091270D01*
X126813785Y-102087075D01*
X126871724Y-102053624D01*
X126877520Y-102050477D01*
X126937125Y-102020107D01*
X126947671Y-102011567D01*
X126963955Y-102000375D01*
X126970002Y-101996884D01*
X126970005Y-101996881D01*
X126975715Y-101993585D01*
X126980615Y-101989173D01*
X126980619Y-101989170D01*
X127025425Y-101948825D01*
X127030446Y-101944537D01*
X127043441Y-101934014D01*
X127043443Y-101934012D01*
X127046006Y-101931937D01*
X127060153Y-101917790D01*
X127064937Y-101913249D01*
X127109766Y-101872885D01*
X127109767Y-101872883D01*
X127114669Y-101868470D01*
X127122652Y-101857482D01*
X127135489Y-101842454D01*
X127696405Y-101281538D01*
X127758717Y-101247512D01*
X127829532Y-101252577D01*
X127886368Y-101295124D01*
X127911179Y-101361644D01*
X127911500Y-101370633D01*
X127911500Y-102508134D01*
X127918255Y-102570316D01*
X127969385Y-102706705D01*
X127974770Y-102713890D01*
X127974771Y-102713892D01*
X127987169Y-102730434D01*
X128012018Y-102796940D01*
X127996966Y-102866323D01*
X127946792Y-102916553D01*
X127886344Y-102932000D01*
X105515537Y-102932000D01*
X105447416Y-102911998D01*
X105400923Y-102858342D01*
X105390819Y-102788068D01*
X105414710Y-102730436D01*
X105434787Y-102703648D01*
X105443324Y-102688054D01*
X105488478Y-102567606D01*
X105492105Y-102552351D01*
X105497631Y-102501486D01*
X105498000Y-102494672D01*
X105498000Y-101872115D01*
X105493525Y-101856876D01*
X105492135Y-101855671D01*
X105484452Y-101854000D01*
X104012000Y-101854000D01*
X103943879Y-101833998D01*
X103897386Y-101780342D01*
X103886000Y-101728000D01*
X103886000Y-101472000D01*
X103906002Y-101403879D01*
X103959658Y-101357386D01*
X104012000Y-101346000D01*
X105479884Y-101346000D01*
X105495123Y-101341525D01*
X105496328Y-101340135D01*
X105497999Y-101332452D01*
X105497999Y-100705331D01*
X105497629Y-100698510D01*
X105492105Y-100647648D01*
X105488479Y-100632396D01*
X105443324Y-100511946D01*
X105434786Y-100496351D01*
X105358285Y-100394276D01*
X105345724Y-100381715D01*
X105243649Y-100305214D01*
X105228054Y-100296676D01*
X105117813Y-100255348D01*
X105061049Y-100212706D01*
X105036349Y-100146145D01*
X105051557Y-100076796D01*
X105073104Y-100048115D01*
X105174430Y-99947144D01*
X105174440Y-99947132D01*
X105178096Y-99943489D01*
X105184915Y-99934000D01*
X105305435Y-99766277D01*
X105308453Y-99762077D01*
X105341476Y-99695261D01*
X105405136Y-99566453D01*
X105405137Y-99566451D01*
X105407430Y-99561811D01*
X105472370Y-99348069D01*
X105501529Y-99126590D01*
X105502255Y-99096894D01*
X105503074Y-99063365D01*
X105503074Y-99063361D01*
X105503156Y-99060000D01*
X105484852Y-98837361D01*
X105430431Y-98620702D01*
X105341354Y-98415840D01*
X105272384Y-98309229D01*
X105222822Y-98232617D01*
X105222820Y-98232614D01*
X105220014Y-98228277D01*
X105069670Y-98063051D01*
X105065619Y-98059852D01*
X105065615Y-98059848D01*
X104898414Y-97927800D01*
X104898410Y-97927798D01*
X104894359Y-97924598D01*
X104853053Y-97901796D01*
X104803084Y-97851364D01*
X104788312Y-97781921D01*
X104813428Y-97715516D01*
X104840780Y-97688909D01*
X104885871Y-97656746D01*
X105019860Y-97561173D01*
X105090228Y-97491051D01*
X105112618Y-97468739D01*
X105178096Y-97403489D01*
X105184009Y-97395261D01*
X105305435Y-97226277D01*
X105308453Y-97222077D01*
X105320121Y-97198470D01*
X105405136Y-97026453D01*
X105405137Y-97026451D01*
X105407430Y-97021811D01*
X105472370Y-96808069D01*
X105501529Y-96586590D01*
X105502239Y-96557525D01*
X105503074Y-96523365D01*
X105503074Y-96523361D01*
X105503156Y-96520000D01*
X105484852Y-96297361D01*
X105430431Y-96080702D01*
X105341354Y-95875840D01*
X105299749Y-95811528D01*
X105222822Y-95692617D01*
X105222820Y-95692614D01*
X105220014Y-95688277D01*
X105069670Y-95523051D01*
X105065619Y-95519852D01*
X105065615Y-95519848D01*
X104898414Y-95387800D01*
X104898410Y-95387798D01*
X104894359Y-95384598D01*
X104853053Y-95361796D01*
X104803084Y-95311364D01*
X104788312Y-95241921D01*
X104813428Y-95175516D01*
X104840780Y-95148909D01*
X104884603Y-95117650D01*
X105019860Y-95021173D01*
X105023515Y-95017531D01*
X105023523Y-95017524D01*
X105107365Y-94933975D01*
X105169736Y-94900059D01*
X105240543Y-94905248D01*
X105285399Y-94934131D01*
X106167018Y-95815751D01*
X107041750Y-96690483D01*
X107049326Y-96698809D01*
X107053447Y-96705303D01*
X107059222Y-96710726D01*
X107103265Y-96752085D01*
X107106107Y-96754840D01*
X107125906Y-96774639D01*
X107129031Y-96777063D01*
X107129040Y-96777071D01*
X107129126Y-96777137D01*
X107138151Y-96784845D01*
X107170494Y-96815217D01*
X107177438Y-96819035D01*
X107177440Y-96819036D01*
X107188329Y-96825022D01*
X107204847Y-96835873D01*
X107220933Y-96848350D01*
X107261666Y-96865976D01*
X107272314Y-96871193D01*
X107311197Y-96892569D01*
X107318872Y-96894540D01*
X107318878Y-96894542D01*
X107330911Y-96897631D01*
X107349613Y-96904034D01*
X107368292Y-96912117D01*
X107402128Y-96917476D01*
X107412127Y-96919060D01*
X107423740Y-96921465D01*
X107466718Y-96932500D01*
X107487065Y-96932500D01*
X107506777Y-96934051D01*
X107526879Y-96937235D01*
X107534771Y-96936489D01*
X107571056Y-96933059D01*
X107582914Y-96932500D01*
X109429986Y-96932500D01*
X109498107Y-96952502D01*
X109537761Y-96993227D01*
X109549361Y-97012381D01*
X109638595Y-97101615D01*
X109672621Y-97163927D01*
X109675500Y-97190710D01*
X109675500Y-97734246D01*
X109655498Y-97802367D01*
X109638673Y-97823264D01*
X109589483Y-97872540D01*
X109555136Y-97906947D01*
X109466151Y-98051308D01*
X109412762Y-98212269D01*
X109402500Y-98312428D01*
X109402500Y-98921572D01*
X109402837Y-98924818D01*
X109402837Y-98924822D01*
X109406040Y-98955686D01*
X109413022Y-99022982D01*
X109466692Y-99183849D01*
X109555929Y-99328055D01*
X109675947Y-99447864D01*
X109820308Y-99536849D01*
X109827256Y-99539154D01*
X109827257Y-99539154D01*
X109974738Y-99588072D01*
X109974740Y-99588072D01*
X109981269Y-99590238D01*
X110081428Y-99600500D01*
X110166577Y-99600500D01*
X110234698Y-99620502D01*
X110281191Y-99674158D01*
X110291295Y-99744432D01*
X110261801Y-99809012D01*
X110255672Y-99815595D01*
X110174671Y-99896596D01*
X110112359Y-99930622D01*
X110085576Y-99933501D01*
X110064366Y-99933501D01*
X110061508Y-99933764D01*
X110061499Y-99933764D01*
X110025996Y-99937026D01*
X109990938Y-99940247D01*
X109984560Y-99942246D01*
X109984559Y-99942246D01*
X109834550Y-99989256D01*
X109834548Y-99989257D01*
X109827301Y-99991528D01*
X109680619Y-100080361D01*
X109559361Y-100201619D01*
X109470528Y-100348301D01*
X109468257Y-100355548D01*
X109468256Y-100355550D01*
X109456405Y-100393368D01*
X109419247Y-100511938D01*
X109412500Y-100585365D01*
X109412501Y-101248634D01*
X109419247Y-101322062D01*
X109421246Y-101328440D01*
X109421246Y-101328441D01*
X109464206Y-101465524D01*
X109470528Y-101485699D01*
X109559361Y-101632381D01*
X109680619Y-101753639D01*
X109827301Y-101842472D01*
X109834548Y-101844743D01*
X109834550Y-101844744D01*
X109893236Y-101863135D01*
X109990938Y-101893753D01*
X110064365Y-101900500D01*
X110067263Y-101900500D01*
X110321665Y-101900499D01*
X110577634Y-101900499D01*
X110580492Y-101900236D01*
X110580501Y-101900236D01*
X110616004Y-101896974D01*
X110651062Y-101893753D01*
X110659030Y-101891256D01*
X110807450Y-101844744D01*
X110807452Y-101844743D01*
X110814699Y-101842472D01*
X110961381Y-101753639D01*
X111057259Y-101657761D01*
X111119571Y-101623735D01*
X111190386Y-101628800D01*
X111235449Y-101657761D01*
X111325557Y-101747869D01*
X111337426Y-101757176D01*
X111471012Y-101838079D01*
X111484757Y-101844285D01*
X111634644Y-101891256D01*
X111647694Y-101893869D01*
X111702586Y-101898913D01*
X111714124Y-101895525D01*
X111715329Y-101894135D01*
X111717000Y-101886452D01*
X111717000Y-101881884D01*
X112225000Y-101881884D01*
X112229475Y-101897123D01*
X112230865Y-101898328D01*
X112235294Y-101899291D01*
X112294315Y-101893868D01*
X112307351Y-101891257D01*
X112374597Y-101870184D01*
X112445582Y-101868900D01*
X112505993Y-101906197D01*
X112513103Y-101914854D01*
X112567716Y-101987725D01*
X112580276Y-102000285D01*
X112682351Y-102076786D01*
X112697946Y-102085324D01*
X112818394Y-102130478D01*
X112833649Y-102134105D01*
X112884514Y-102139631D01*
X112891328Y-102140000D01*
X113663885Y-102140000D01*
X113679124Y-102135525D01*
X113680329Y-102134135D01*
X113682000Y-102126452D01*
X113682000Y-102121884D01*
X114190000Y-102121884D01*
X114194475Y-102137123D01*
X114195865Y-102138328D01*
X114203548Y-102139999D01*
X114980669Y-102139999D01*
X114987490Y-102139629D01*
X115038352Y-102134105D01*
X115053604Y-102130479D01*
X115174054Y-102085324D01*
X115189649Y-102076786D01*
X115291724Y-102000285D01*
X115304285Y-101987724D01*
X115380786Y-101885649D01*
X115389324Y-101870054D01*
X115434478Y-101749606D01*
X115438105Y-101734351D01*
X115443631Y-101683486D01*
X115444000Y-101676672D01*
X115444000Y-101154115D01*
X115439525Y-101138876D01*
X115438135Y-101137671D01*
X115430452Y-101136000D01*
X114208115Y-101136000D01*
X114192876Y-101140475D01*
X114191671Y-101141865D01*
X114190000Y-101149548D01*
X114190000Y-102121884D01*
X113682000Y-102121884D01*
X113682000Y-101154115D01*
X113677525Y-101138876D01*
X113676135Y-101137671D01*
X113668452Y-101136000D01*
X112937115Y-101136000D01*
X112905419Y-101145307D01*
X112873381Y-101165896D01*
X112837883Y-101171000D01*
X112243115Y-101171000D01*
X112227876Y-101175475D01*
X112226671Y-101176865D01*
X112225000Y-101184548D01*
X112225000Y-101881884D01*
X111717000Y-101881884D01*
X111717000Y-100789000D01*
X111737002Y-100720879D01*
X111790658Y-100674386D01*
X111843000Y-100663000D01*
X112369885Y-100663000D01*
X112401581Y-100653693D01*
X112433619Y-100633104D01*
X112469117Y-100628000D01*
X115425884Y-100628000D01*
X115441123Y-100623525D01*
X115442328Y-100622135D01*
X115443999Y-100614452D01*
X115443999Y-100087331D01*
X115443629Y-100080510D01*
X115438105Y-100029648D01*
X115434479Y-100014396D01*
X115389324Y-99893946D01*
X115380786Y-99878352D01*
X115328047Y-99807982D01*
X115303199Y-99741476D01*
X115318252Y-99672093D01*
X115328047Y-99656852D01*
X115364043Y-99608823D01*
X115386615Y-99578705D01*
X115437745Y-99442316D01*
X115444500Y-99380134D01*
X115444500Y-97783866D01*
X115437745Y-97721684D01*
X115386615Y-97585295D01*
X115381229Y-97578108D01*
X115328360Y-97507565D01*
X115303512Y-97441058D01*
X115318565Y-97371676D01*
X115328360Y-97356435D01*
X115381229Y-97285892D01*
X115381230Y-97285890D01*
X115386615Y-97278705D01*
X115437745Y-97142316D01*
X115444500Y-97080134D01*
X115444500Y-95483866D01*
X115437745Y-95421684D01*
X115386615Y-95285295D01*
X115299261Y-95168739D01*
X115182705Y-95081385D01*
X115046316Y-95030255D01*
X114984134Y-95023500D01*
X112887866Y-95023500D01*
X112825684Y-95030255D01*
X112689295Y-95081385D01*
X112572739Y-95168739D01*
X112485385Y-95285295D01*
X112484028Y-95284278D01*
X112441183Y-95327024D01*
X112371792Y-95342036D01*
X112343252Y-95336602D01*
X112291062Y-95320247D01*
X112217635Y-95313500D01*
X112214737Y-95313500D01*
X111960335Y-95313501D01*
X111704366Y-95313501D01*
X111701508Y-95313764D01*
X111701499Y-95313764D01*
X111665996Y-95317026D01*
X111630938Y-95320247D01*
X111624560Y-95322246D01*
X111624559Y-95322246D01*
X111474550Y-95369256D01*
X111474548Y-95369257D01*
X111467301Y-95371528D01*
X111320619Y-95460361D01*
X111225095Y-95555885D01*
X111162783Y-95589911D01*
X111091968Y-95584846D01*
X111046905Y-95555885D01*
X110951381Y-95460361D01*
X110804699Y-95371528D01*
X110797452Y-95369257D01*
X110797450Y-95369256D01*
X110693247Y-95336601D01*
X110641062Y-95320247D01*
X110567635Y-95313500D01*
X110564737Y-95313500D01*
X110310335Y-95313501D01*
X110054366Y-95313501D01*
X110051508Y-95313764D01*
X110051499Y-95313764D01*
X110015996Y-95317026D01*
X109980938Y-95320247D01*
X109974560Y-95322246D01*
X109974559Y-95322246D01*
X109824550Y-95369256D01*
X109824548Y-95369257D01*
X109817301Y-95371528D01*
X109670619Y-95460361D01*
X109549361Y-95581619D01*
X109541542Y-95594531D01*
X109537762Y-95600772D01*
X109485364Y-95648678D01*
X109429986Y-95661500D01*
X107862422Y-95661500D01*
X107794301Y-95641498D01*
X107773327Y-95624595D01*
X105735250Y-93586517D01*
X105727674Y-93578191D01*
X105723553Y-93571697D01*
X105673734Y-93524914D01*
X105670893Y-93522160D01*
X105651094Y-93502361D01*
X105647969Y-93499937D01*
X105647960Y-93499929D01*
X105647874Y-93499863D01*
X105638849Y-93492155D01*
X105633345Y-93486986D01*
X105606506Y-93461783D01*
X105588669Y-93451977D01*
X105572153Y-93441127D01*
X105556067Y-93428650D01*
X105515334Y-93411024D01*
X105504686Y-93405807D01*
X105493058Y-93399415D01*
X105465803Y-93384431D01*
X105458128Y-93382460D01*
X105458122Y-93382458D01*
X105446089Y-93379369D01*
X105427387Y-93372966D01*
X105408708Y-93364883D01*
X105400875Y-93363642D01*
X105394844Y-93361890D01*
X105335009Y-93323676D01*
X105324206Y-93309333D01*
X105222822Y-93152617D01*
X105222820Y-93152614D01*
X105220014Y-93148277D01*
X105069670Y-92983051D01*
X105065619Y-92979852D01*
X105065615Y-92979848D01*
X104898414Y-92847800D01*
X104898410Y-92847798D01*
X104894359Y-92844598D01*
X104853053Y-92821796D01*
X104803084Y-92771364D01*
X104788312Y-92701921D01*
X104813428Y-92635516D01*
X104840780Y-92608909D01*
X104884603Y-92577650D01*
X105019860Y-92481173D01*
X105060676Y-92440500D01*
X105161485Y-92340042D01*
X105178096Y-92323489D01*
X105209192Y-92280215D01*
X105305438Y-92146273D01*
X105305439Y-92146272D01*
X105308453Y-92142077D01*
X105310742Y-92137445D01*
X105311247Y-92136605D01*
X105363477Y-92088516D01*
X105419250Y-92075500D01*
X109701290Y-92075500D01*
X109767406Y-92094240D01*
X109820308Y-92126849D01*
X109827256Y-92129154D01*
X109827257Y-92129154D01*
X109974738Y-92178072D01*
X109974740Y-92178072D01*
X109981269Y-92180238D01*
X110081428Y-92190500D01*
X110116577Y-92190500D01*
X110184698Y-92210502D01*
X110231191Y-92264158D01*
X110241295Y-92334432D01*
X110211801Y-92399012D01*
X110205672Y-92405595D01*
X110154671Y-92456596D01*
X110092359Y-92490622D01*
X110065576Y-92493501D01*
X110034366Y-92493501D01*
X110031508Y-92493764D01*
X110031499Y-92493764D01*
X109995996Y-92497026D01*
X109960938Y-92500247D01*
X109954560Y-92502246D01*
X109954559Y-92502246D01*
X109804550Y-92549256D01*
X109804548Y-92549257D01*
X109797301Y-92551528D01*
X109650619Y-92640361D01*
X109529361Y-92761619D01*
X109440528Y-92908301D01*
X109389247Y-93071938D01*
X109382500Y-93145365D01*
X109382501Y-93808634D01*
X109382764Y-93811492D01*
X109382764Y-93811501D01*
X109383155Y-93815751D01*
X109389247Y-93882062D01*
X109440528Y-94045699D01*
X109529361Y-94192381D01*
X109650619Y-94313639D01*
X109797301Y-94402472D01*
X109804548Y-94404743D01*
X109804550Y-94404744D01*
X109870836Y-94425517D01*
X109960938Y-94453753D01*
X110034365Y-94460500D01*
X110037263Y-94460500D01*
X110291665Y-94460499D01*
X110547634Y-94460499D01*
X110550492Y-94460236D01*
X110550501Y-94460236D01*
X110586004Y-94456974D01*
X110621062Y-94453753D01*
X110629030Y-94451256D01*
X110777450Y-94404744D01*
X110777452Y-94404743D01*
X110784699Y-94402472D01*
X110931381Y-94313639D01*
X111027259Y-94217761D01*
X111089571Y-94183735D01*
X111160386Y-94188800D01*
X111205449Y-94217761D01*
X111295557Y-94307869D01*
X111307426Y-94317176D01*
X111441012Y-94398079D01*
X111454757Y-94404285D01*
X111604644Y-94451256D01*
X111617694Y-94453869D01*
X111672586Y-94458913D01*
X111684124Y-94455525D01*
X111685329Y-94454135D01*
X111687000Y-94446452D01*
X111687000Y-94441884D01*
X112195000Y-94441884D01*
X112199475Y-94457123D01*
X112200865Y-94458328D01*
X112205294Y-94459291D01*
X112264315Y-94453868D01*
X112277351Y-94451257D01*
X112345237Y-94429983D01*
X112416222Y-94428699D01*
X112476632Y-94465996D01*
X112485592Y-94478639D01*
X112485828Y-94478462D01*
X112567715Y-94587724D01*
X112580276Y-94600285D01*
X112682351Y-94676786D01*
X112697946Y-94685324D01*
X112818394Y-94730478D01*
X112833649Y-94734105D01*
X112884514Y-94739631D01*
X112891328Y-94740000D01*
X113663885Y-94740000D01*
X113679124Y-94735525D01*
X113680329Y-94734135D01*
X113682000Y-94726452D01*
X113682000Y-94721884D01*
X114190000Y-94721884D01*
X114194475Y-94737123D01*
X114195865Y-94738328D01*
X114203548Y-94739999D01*
X114980669Y-94739999D01*
X114987490Y-94739629D01*
X115038352Y-94734105D01*
X115053604Y-94730479D01*
X115174054Y-94685324D01*
X115189649Y-94676786D01*
X115291724Y-94600285D01*
X115304285Y-94587724D01*
X115380786Y-94485649D01*
X115389324Y-94470054D01*
X115434478Y-94349606D01*
X115438105Y-94334351D01*
X115443631Y-94283486D01*
X115444000Y-94276672D01*
X115444000Y-93754115D01*
X115439525Y-93738876D01*
X115438135Y-93737671D01*
X115430452Y-93736000D01*
X114208115Y-93736000D01*
X114192876Y-93740475D01*
X114191671Y-93741865D01*
X114190000Y-93749548D01*
X114190000Y-94721884D01*
X113682000Y-94721884D01*
X113682000Y-93754115D01*
X113677525Y-93738876D01*
X113676135Y-93737671D01*
X113668452Y-93736000D01*
X112410985Y-93736000D01*
X112384202Y-93733121D01*
X112374452Y-93731000D01*
X112213115Y-93731000D01*
X112197876Y-93735475D01*
X112196671Y-93736865D01*
X112195000Y-93744548D01*
X112195000Y-94441884D01*
X111687000Y-94441884D01*
X111687000Y-93349000D01*
X111707002Y-93280879D01*
X111760658Y-93234386D01*
X111813000Y-93223000D01*
X112866015Y-93223000D01*
X112892798Y-93225879D01*
X112902548Y-93228000D01*
X115425884Y-93228000D01*
X115441123Y-93223525D01*
X115442328Y-93222135D01*
X115443999Y-93214452D01*
X115443999Y-92687331D01*
X115443629Y-92680510D01*
X115438105Y-92629648D01*
X115434479Y-92614396D01*
X115389324Y-92493946D01*
X115380786Y-92478352D01*
X115328047Y-92407982D01*
X115303199Y-92341476D01*
X115318252Y-92272093D01*
X115328047Y-92256852D01*
X115377775Y-92190500D01*
X115386615Y-92178705D01*
X115437745Y-92042316D01*
X115444500Y-91980134D01*
X115444500Y-90383866D01*
X115437745Y-90321684D01*
X115386615Y-90185295D01*
X115374533Y-90169174D01*
X115328360Y-90107565D01*
X115303512Y-90041058D01*
X115318565Y-89971676D01*
X115328360Y-89956435D01*
X115381229Y-89885892D01*
X115381230Y-89885890D01*
X115386615Y-89878705D01*
X115437745Y-89742316D01*
X115444500Y-89680134D01*
X115444500Y-88083866D01*
X115437745Y-88021684D01*
X115386615Y-87885295D01*
X115299261Y-87768739D01*
X115182705Y-87681385D01*
X115046316Y-87630255D01*
X114984134Y-87623500D01*
X112887866Y-87623500D01*
X112825684Y-87630255D01*
X112689295Y-87681385D01*
X112572739Y-87768739D01*
X112528713Y-87827483D01*
X112490771Y-87878109D01*
X112485385Y-87885295D01*
X112485353Y-87885381D01*
X112438261Y-87932370D01*
X112368870Y-87947385D01*
X112340319Y-87941951D01*
X112271062Y-87920247D01*
X112197635Y-87913500D01*
X112194737Y-87913500D01*
X111940335Y-87913501D01*
X111684366Y-87913501D01*
X111681508Y-87913764D01*
X111681499Y-87913764D01*
X111645996Y-87917026D01*
X111610938Y-87920247D01*
X111604560Y-87922246D01*
X111604559Y-87922246D01*
X111454550Y-87969256D01*
X111454548Y-87969257D01*
X111447301Y-87971528D01*
X111300619Y-88060361D01*
X111205095Y-88155885D01*
X111142783Y-88189911D01*
X111071968Y-88184846D01*
X111026905Y-88155885D01*
X110931381Y-88060361D01*
X110784699Y-87971528D01*
X110777452Y-87969257D01*
X110777450Y-87969256D01*
X110659746Y-87932370D01*
X110621062Y-87920247D01*
X110547635Y-87913500D01*
X110544737Y-87913500D01*
X110290335Y-87913501D01*
X110034366Y-87913501D01*
X110031508Y-87913764D01*
X110031499Y-87913764D01*
X109995996Y-87917026D01*
X109960938Y-87920247D01*
X109954560Y-87922246D01*
X109954559Y-87922246D01*
X109804550Y-87969256D01*
X109804548Y-87969257D01*
X109797301Y-87971528D01*
X109650619Y-88060361D01*
X109529361Y-88181619D01*
X109440528Y-88328301D01*
X109389247Y-88491938D01*
X109382500Y-88565365D01*
X109382501Y-89228634D01*
X109382764Y-89231492D01*
X109382764Y-89231501D01*
X109383554Y-89240095D01*
X109389247Y-89302062D01*
X109391246Y-89308440D01*
X109391246Y-89308441D01*
X109417354Y-89391750D01*
X109440528Y-89465699D01*
X109529361Y-89612381D01*
X109618595Y-89701615D01*
X109652621Y-89763927D01*
X109655500Y-89790710D01*
X109655500Y-90344281D01*
X109635498Y-90412402D01*
X109618673Y-90433299D01*
X109608938Y-90443051D01*
X109555136Y-90496947D01*
X109466151Y-90641308D01*
X109463846Y-90648256D01*
X109463846Y-90648257D01*
X109440657Y-90718168D01*
X109400226Y-90776528D01*
X109334661Y-90803764D01*
X109321064Y-90804500D01*
X105415511Y-90804500D01*
X105347390Y-90784498D01*
X105309719Y-90746940D01*
X105222822Y-90612617D01*
X105222820Y-90612614D01*
X105220014Y-90608277D01*
X105069670Y-90443051D01*
X105065619Y-90439852D01*
X105065615Y-90439848D01*
X104898414Y-90307800D01*
X104898410Y-90307798D01*
X104894359Y-90304598D01*
X104853053Y-90281796D01*
X104803084Y-90231364D01*
X104788312Y-90161921D01*
X104813428Y-90095516D01*
X104840780Y-90068909D01*
X104905222Y-90022943D01*
X105019860Y-89941173D01*
X105069579Y-89891628D01*
X105133295Y-89828134D01*
X105178096Y-89783489D01*
X105219747Y-89725526D01*
X105305435Y-89606277D01*
X105308453Y-89602077D01*
X105314978Y-89588875D01*
X105363092Y-89536669D01*
X105396598Y-89522663D01*
X105401439Y-89521420D01*
X105409299Y-89520427D01*
X105423976Y-89514616D01*
X105450556Y-89504093D01*
X105461785Y-89500248D01*
X105478465Y-89495402D01*
X105504393Y-89487869D01*
X105511220Y-89483831D01*
X105511223Y-89483830D01*
X105521906Y-89477512D01*
X105539664Y-89468812D01*
X105551215Y-89464239D01*
X105551221Y-89464235D01*
X105558588Y-89461319D01*
X105594491Y-89435234D01*
X105604410Y-89428719D01*
X105635768Y-89410174D01*
X105635772Y-89410171D01*
X105642598Y-89406134D01*
X105656982Y-89391750D01*
X105672016Y-89378909D01*
X105682073Y-89371602D01*
X105688487Y-89366942D01*
X105716778Y-89332744D01*
X105724767Y-89323965D01*
X109167405Y-85881327D01*
X109229717Y-85847301D01*
X109300532Y-85852366D01*
X109357368Y-85894913D01*
X109382179Y-85961433D01*
X109382500Y-85970422D01*
X109382501Y-86190971D01*
X109382501Y-86408634D01*
X109382764Y-86411492D01*
X109382764Y-86411501D01*
X109384429Y-86429625D01*
X109389247Y-86482062D01*
X109391246Y-86488440D01*
X109391246Y-86488441D01*
X109437333Y-86635503D01*
X109440528Y-86645699D01*
X109529361Y-86792381D01*
X109650619Y-86913639D01*
X109797301Y-87002472D01*
X109804548Y-87004743D01*
X109804550Y-87004744D01*
X109870836Y-87025517D01*
X109960938Y-87053753D01*
X110034365Y-87060500D01*
X110037263Y-87060500D01*
X110291665Y-87060499D01*
X110547634Y-87060499D01*
X110550492Y-87060236D01*
X110550501Y-87060236D01*
X110586004Y-87056974D01*
X110621062Y-87053753D01*
X110627447Y-87051752D01*
X110777450Y-87004744D01*
X110777452Y-87004743D01*
X110784699Y-87002472D01*
X110931381Y-86913639D01*
X111027259Y-86817761D01*
X111089571Y-86783735D01*
X111160386Y-86788800D01*
X111205449Y-86817761D01*
X111295557Y-86907869D01*
X111307426Y-86917176D01*
X111441012Y-86998079D01*
X111454757Y-87004285D01*
X111604644Y-87051256D01*
X111617694Y-87053869D01*
X111672586Y-87058913D01*
X111684124Y-87055525D01*
X111685329Y-87054135D01*
X111687000Y-87046452D01*
X111687000Y-87041884D01*
X112195000Y-87041884D01*
X112199475Y-87057123D01*
X112200865Y-87058328D01*
X112205294Y-87059291D01*
X112264315Y-87053868D01*
X112277345Y-87051259D01*
X112332030Y-87034122D01*
X112403015Y-87032839D01*
X112463425Y-87070137D01*
X112480229Y-87093850D01*
X112481213Y-87095647D01*
X112557715Y-87197724D01*
X112570276Y-87210285D01*
X112672351Y-87286786D01*
X112687946Y-87295324D01*
X112808394Y-87340478D01*
X112823649Y-87344105D01*
X112874514Y-87349631D01*
X112881328Y-87350000D01*
X113653885Y-87350000D01*
X113669124Y-87345525D01*
X113670329Y-87344135D01*
X113672000Y-87336452D01*
X113672000Y-87331884D01*
X114180000Y-87331884D01*
X114184475Y-87347123D01*
X114185865Y-87348328D01*
X114193548Y-87349999D01*
X114970669Y-87349999D01*
X114977490Y-87349629D01*
X115028352Y-87344105D01*
X115043604Y-87340479D01*
X115164054Y-87295324D01*
X115179649Y-87286786D01*
X115281724Y-87210285D01*
X115294285Y-87197724D01*
X115370786Y-87095649D01*
X115379324Y-87080054D01*
X115424478Y-86959606D01*
X115428105Y-86944351D01*
X115433631Y-86893486D01*
X115434000Y-86886672D01*
X115434000Y-86364115D01*
X115429525Y-86348876D01*
X115428135Y-86347671D01*
X115420452Y-86346000D01*
X114198115Y-86346000D01*
X114182876Y-86350475D01*
X114181671Y-86351865D01*
X114180000Y-86359548D01*
X114180000Y-87331884D01*
X113672000Y-87331884D01*
X113672000Y-86364115D01*
X113667525Y-86348876D01*
X113666135Y-86347671D01*
X113658452Y-86346000D01*
X112434513Y-86346000D01*
X112404090Y-86337067D01*
X112403559Y-86339507D01*
X112364452Y-86331000D01*
X112213115Y-86331000D01*
X112197876Y-86335475D01*
X112196671Y-86336865D01*
X112195000Y-86344548D01*
X112195000Y-87041884D01*
X111687000Y-87041884D01*
X111687000Y-85949000D01*
X111707002Y-85880879D01*
X111760658Y-85834386D01*
X111813000Y-85823000D01*
X112832487Y-85823000D01*
X112862910Y-85831933D01*
X112863441Y-85829493D01*
X112902548Y-85838000D01*
X115415884Y-85838000D01*
X115431123Y-85833525D01*
X115432328Y-85832135D01*
X115433999Y-85824452D01*
X115433999Y-85297331D01*
X115433629Y-85290510D01*
X115428105Y-85239648D01*
X115424479Y-85224396D01*
X115379324Y-85103946D01*
X115370786Y-85088352D01*
X115318047Y-85017982D01*
X115293199Y-84951476D01*
X115308252Y-84882093D01*
X115318047Y-84866852D01*
X115328523Y-84852874D01*
X115376615Y-84788705D01*
X115427745Y-84652316D01*
X115434500Y-84590134D01*
X115434500Y-82993866D01*
X115427745Y-82931684D01*
X115376615Y-82795295D01*
X115344500Y-82752444D01*
X115318360Y-82717565D01*
X115293512Y-82651058D01*
X115308565Y-82581676D01*
X115318360Y-82566435D01*
X115371229Y-82495892D01*
X115371230Y-82495890D01*
X115376615Y-82488705D01*
X115427745Y-82352316D01*
X115434500Y-82290134D01*
X115434500Y-80693866D01*
X115427745Y-80631684D01*
X115376615Y-80495295D01*
X115289261Y-80378739D01*
X115172705Y-80291385D01*
X115036316Y-80240255D01*
X114974134Y-80233500D01*
X112877866Y-80233500D01*
X112815684Y-80240255D01*
X112679295Y-80291385D01*
X112562739Y-80378739D01*
X112557358Y-80385919D01*
X112484706Y-80482858D01*
X112427847Y-80525373D01*
X112357028Y-80530399D01*
X112346215Y-80527531D01*
X112291062Y-80510247D01*
X112217635Y-80503500D01*
X112214737Y-80503500D01*
X111960335Y-80503501D01*
X111704366Y-80503501D01*
X111701508Y-80503764D01*
X111701499Y-80503764D01*
X111665996Y-80507026D01*
X111630938Y-80510247D01*
X111624560Y-80512246D01*
X111624559Y-80512246D01*
X111474550Y-80559256D01*
X111474548Y-80559257D01*
X111467301Y-80561528D01*
X111320619Y-80650361D01*
X111225095Y-80745885D01*
X111162783Y-80779911D01*
X111091968Y-80774846D01*
X111046905Y-80745885D01*
X110951381Y-80650361D01*
X110804699Y-80561528D01*
X110797452Y-80559257D01*
X110797450Y-80559256D01*
X110731164Y-80538483D01*
X110641062Y-80510247D01*
X110567635Y-80503500D01*
X110564737Y-80503500D01*
X110310335Y-80503501D01*
X110054366Y-80503501D01*
X110051508Y-80503764D01*
X110051499Y-80503764D01*
X110015996Y-80507026D01*
X109980938Y-80510247D01*
X109974560Y-80512246D01*
X109974559Y-80512246D01*
X109824550Y-80559256D01*
X109824548Y-80559257D01*
X109817301Y-80561528D01*
X109670619Y-80650361D01*
X109549361Y-80771619D01*
X109460528Y-80918301D01*
X109409247Y-81081938D01*
X109402500Y-81155365D01*
X109402501Y-81818634D01*
X109409247Y-81892062D01*
X109460528Y-82055699D01*
X109549361Y-82202381D01*
X109638595Y-82291615D01*
X109672621Y-82353927D01*
X109675500Y-82380710D01*
X109675500Y-82914211D01*
X109655498Y-82982332D01*
X109638673Y-83003229D01*
X109595928Y-83046049D01*
X109535136Y-83106947D01*
X109446151Y-83251308D01*
X109443846Y-83258256D01*
X109443846Y-83258257D01*
X109411991Y-83354297D01*
X109392762Y-83412269D01*
X109382500Y-83512428D01*
X109382500Y-83816577D01*
X109362498Y-83884698D01*
X109345595Y-83905672D01*
X105295772Y-87955495D01*
X105233460Y-87989521D01*
X105162645Y-87984456D01*
X105113484Y-87951200D01*
X105073152Y-87906877D01*
X105073148Y-87906873D01*
X105069670Y-87903051D01*
X105065619Y-87899852D01*
X105065615Y-87899848D01*
X104898414Y-87767800D01*
X104898410Y-87767798D01*
X104894359Y-87764598D01*
X104853053Y-87741796D01*
X104803084Y-87691364D01*
X104788312Y-87621921D01*
X104813428Y-87555516D01*
X104840780Y-87528909D01*
X104900294Y-87486458D01*
X105019860Y-87401173D01*
X105071583Y-87349631D01*
X105101209Y-87320107D01*
X105178096Y-87243489D01*
X105219747Y-87185526D01*
X105305435Y-87066277D01*
X105308453Y-87062077D01*
X105317883Y-87042997D01*
X105365996Y-86990789D01*
X105389511Y-86980959D01*
X105389300Y-86980427D01*
X105430556Y-86964093D01*
X105441785Y-86960248D01*
X105458465Y-86955402D01*
X105484393Y-86947869D01*
X105491220Y-86943831D01*
X105491223Y-86943830D01*
X105501906Y-86937512D01*
X105519664Y-86928812D01*
X105531215Y-86924239D01*
X105531221Y-86924235D01*
X105538588Y-86921319D01*
X105557101Y-86907869D01*
X105574488Y-86895236D01*
X105584410Y-86888719D01*
X105615768Y-86870174D01*
X105615772Y-86870171D01*
X105622598Y-86866134D01*
X105636982Y-86851750D01*
X105652016Y-86838909D01*
X105662073Y-86831602D01*
X105668487Y-86826942D01*
X105696778Y-86792744D01*
X105704767Y-86783965D01*
X108243483Y-84245250D01*
X108251809Y-84237674D01*
X108258303Y-84233553D01*
X108305086Y-84183734D01*
X108307840Y-84180893D01*
X108327639Y-84161094D01*
X108330068Y-84157963D01*
X108330072Y-84157958D01*
X108330139Y-84157872D01*
X108337847Y-84148847D01*
X108362792Y-84122283D01*
X108368217Y-84116506D01*
X108372035Y-84109561D01*
X108372038Y-84109557D01*
X108378026Y-84098666D01*
X108388878Y-84082145D01*
X108396492Y-84072329D01*
X108396492Y-84072328D01*
X108401350Y-84066066D01*
X108418974Y-84025338D01*
X108424196Y-84014681D01*
X108441748Y-83982754D01*
X108441749Y-83982751D01*
X108445569Y-83975803D01*
X108450632Y-83956085D01*
X108457034Y-83937386D01*
X108465117Y-83918707D01*
X108466356Y-83910883D01*
X108466358Y-83910877D01*
X108472060Y-83874880D01*
X108474466Y-83863260D01*
X108483528Y-83827963D01*
X108483528Y-83827962D01*
X108485500Y-83820282D01*
X108485500Y-83799934D01*
X108487051Y-83780223D01*
X108488995Y-83767949D01*
X108490235Y-83760120D01*
X108486059Y-83715944D01*
X108485500Y-83704086D01*
X108485500Y-78535422D01*
X108505502Y-78467301D01*
X108522405Y-78446327D01*
X109618057Y-77350675D01*
X109680369Y-77316649D01*
X109751184Y-77321714D01*
X109773262Y-77332507D01*
X109774068Y-77333004D01*
X109774077Y-77333008D01*
X109780308Y-77336849D01*
X109787256Y-77339154D01*
X109787257Y-77339154D01*
X109934738Y-77388072D01*
X109934740Y-77388072D01*
X109941269Y-77390238D01*
X110041428Y-77400500D01*
X110086577Y-77400500D01*
X110154698Y-77420502D01*
X110201191Y-77474158D01*
X110211295Y-77544432D01*
X110181801Y-77609012D01*
X110175672Y-77615595D01*
X110134671Y-77656596D01*
X110072359Y-77690622D01*
X110050115Y-77693013D01*
X110050131Y-77693369D01*
X110047246Y-77693501D01*
X110044366Y-77693501D01*
X110041508Y-77693764D01*
X110041499Y-77693764D01*
X110005996Y-77697026D01*
X109970938Y-77700247D01*
X109964560Y-77702246D01*
X109964559Y-77702246D01*
X109814550Y-77749256D01*
X109814548Y-77749257D01*
X109807301Y-77751528D01*
X109660619Y-77840361D01*
X109539361Y-77961619D01*
X109450528Y-78108301D01*
X109448257Y-78115548D01*
X109448256Y-78115550D01*
X109433483Y-78162691D01*
X109399247Y-78271938D01*
X109392500Y-78345365D01*
X109392501Y-79008634D01*
X109392764Y-79011492D01*
X109392764Y-79011501D01*
X109394742Y-79033023D01*
X109399247Y-79082062D01*
X109450528Y-79245699D01*
X109539361Y-79392381D01*
X109660619Y-79513639D01*
X109807301Y-79602472D01*
X109814548Y-79604743D01*
X109814550Y-79604744D01*
X109839153Y-79612454D01*
X109970938Y-79653753D01*
X110044365Y-79660500D01*
X110047263Y-79660500D01*
X110301665Y-79660499D01*
X110557634Y-79660499D01*
X110560492Y-79660236D01*
X110560501Y-79660236D01*
X110596004Y-79656974D01*
X110631062Y-79653753D01*
X110639030Y-79651256D01*
X110787450Y-79604744D01*
X110787452Y-79604743D01*
X110794699Y-79602472D01*
X110941381Y-79513639D01*
X111037259Y-79417761D01*
X111099571Y-79383735D01*
X111170386Y-79388800D01*
X111215449Y-79417761D01*
X111305557Y-79507869D01*
X111317426Y-79517176D01*
X111451012Y-79598079D01*
X111464757Y-79604285D01*
X111614644Y-79651256D01*
X111627694Y-79653869D01*
X111682586Y-79658913D01*
X111694124Y-79655525D01*
X111695329Y-79654135D01*
X111697000Y-79646452D01*
X111697000Y-79641884D01*
X112205000Y-79641884D01*
X112209475Y-79657123D01*
X112210865Y-79658328D01*
X112215294Y-79659291D01*
X112274315Y-79653868D01*
X112287351Y-79651257D01*
X112346702Y-79632658D01*
X112417687Y-79631374D01*
X112478098Y-79668671D01*
X112485310Y-79678850D01*
X112485828Y-79678462D01*
X112567715Y-79787724D01*
X112580276Y-79800285D01*
X112682351Y-79876786D01*
X112697946Y-79885324D01*
X112818394Y-79930478D01*
X112833649Y-79934105D01*
X112884514Y-79939631D01*
X112891328Y-79940000D01*
X113663885Y-79940000D01*
X113679124Y-79935525D01*
X113680329Y-79934135D01*
X113682000Y-79926452D01*
X113682000Y-79921884D01*
X114190000Y-79921884D01*
X114194475Y-79937123D01*
X114195865Y-79938328D01*
X114203548Y-79939999D01*
X114980669Y-79939999D01*
X114987490Y-79939629D01*
X115038352Y-79934105D01*
X115053604Y-79930479D01*
X115174054Y-79885324D01*
X115189649Y-79876786D01*
X115291724Y-79800285D01*
X115304285Y-79787724D01*
X115380786Y-79685649D01*
X115389324Y-79670054D01*
X115434478Y-79549606D01*
X115438105Y-79534351D01*
X115443631Y-79483486D01*
X115444000Y-79476672D01*
X115444000Y-78954115D01*
X115439525Y-78938876D01*
X115438135Y-78937671D01*
X115430452Y-78936000D01*
X114208115Y-78936000D01*
X114192876Y-78940475D01*
X114191671Y-78941865D01*
X114190000Y-78949548D01*
X114190000Y-79921884D01*
X113682000Y-79921884D01*
X113682000Y-78954115D01*
X113677525Y-78938876D01*
X113676135Y-78937671D01*
X113668452Y-78936000D01*
X112410985Y-78936000D01*
X112384202Y-78933121D01*
X112374452Y-78931000D01*
X112223115Y-78931000D01*
X112207876Y-78935475D01*
X112206671Y-78936865D01*
X112205000Y-78944548D01*
X112205000Y-79641884D01*
X111697000Y-79641884D01*
X111697000Y-78549000D01*
X111717002Y-78480879D01*
X111770658Y-78434386D01*
X111823000Y-78423000D01*
X112876015Y-78423000D01*
X112902798Y-78425879D01*
X112912548Y-78428000D01*
X115425884Y-78428000D01*
X115441123Y-78423525D01*
X115442328Y-78422135D01*
X115443999Y-78414452D01*
X115443999Y-77887331D01*
X115443629Y-77880510D01*
X115438105Y-77829648D01*
X115434479Y-77814396D01*
X115389324Y-77693946D01*
X115380786Y-77678352D01*
X115328047Y-77607982D01*
X115303199Y-77541476D01*
X115318252Y-77472093D01*
X115328047Y-77456852D01*
X115329469Y-77454955D01*
X115386615Y-77378705D01*
X115437745Y-77242316D01*
X115444500Y-77180134D01*
X115444500Y-75583866D01*
X115437745Y-75521684D01*
X115386615Y-75385295D01*
X115381229Y-75378108D01*
X115328360Y-75307565D01*
X115303512Y-75241058D01*
X115318565Y-75171676D01*
X115328360Y-75156435D01*
X115381229Y-75085892D01*
X115381230Y-75085890D01*
X115386615Y-75078705D01*
X115437745Y-74942316D01*
X115444500Y-74880134D01*
X115444500Y-73283866D01*
X115437745Y-73221684D01*
X115386615Y-73085295D01*
X115299261Y-72968739D01*
X115182705Y-72881385D01*
X115046316Y-72830255D01*
X114984134Y-72823500D01*
X112887866Y-72823500D01*
X112825684Y-72830255D01*
X112689295Y-72881385D01*
X112572739Y-72968739D01*
X112492604Y-73075663D01*
X112488637Y-73080956D01*
X112431778Y-73123471D01*
X112360959Y-73128497D01*
X112350147Y-73125629D01*
X112301062Y-73110247D01*
X112227635Y-73103500D01*
X112224737Y-73103500D01*
X111970335Y-73103501D01*
X111714366Y-73103501D01*
X111711508Y-73103764D01*
X111711499Y-73103764D01*
X111675996Y-73107026D01*
X111640938Y-73110247D01*
X111634560Y-73112246D01*
X111634559Y-73112246D01*
X111484550Y-73159256D01*
X111484548Y-73159257D01*
X111477301Y-73161528D01*
X111330619Y-73250361D01*
X111235095Y-73345885D01*
X111172783Y-73379911D01*
X111101968Y-73374846D01*
X111056905Y-73345885D01*
X110961381Y-73250361D01*
X110814699Y-73161528D01*
X110807452Y-73159257D01*
X110807450Y-73159256D01*
X110741164Y-73138483D01*
X110651062Y-73110247D01*
X110577635Y-73103500D01*
X110574737Y-73103500D01*
X110320335Y-73103501D01*
X110064366Y-73103501D01*
X110061508Y-73103764D01*
X110061499Y-73103764D01*
X110025996Y-73107026D01*
X109990938Y-73110247D01*
X109984560Y-73112246D01*
X109984559Y-73112246D01*
X109834550Y-73159256D01*
X109834548Y-73159257D01*
X109827301Y-73161528D01*
X109680619Y-73250361D01*
X109559361Y-73371619D01*
X109470528Y-73518301D01*
X109419247Y-73681938D01*
X109412500Y-73755365D01*
X109412501Y-74418634D01*
X109412764Y-74421492D01*
X109412764Y-74421501D01*
X109413588Y-74430469D01*
X109419247Y-74492062D01*
X109421246Y-74498440D01*
X109421246Y-74498441D01*
X109438307Y-74552881D01*
X109470528Y-74655699D01*
X109559361Y-74802381D01*
X109648595Y-74891615D01*
X109682621Y-74953927D01*
X109685500Y-74980710D01*
X109685500Y-75487031D01*
X109665498Y-75555152D01*
X109638984Y-75584430D01*
X109634945Y-75586929D01*
X109515136Y-75706947D01*
X109511296Y-75713177D01*
X109511295Y-75713178D01*
X109474290Y-75773211D01*
X109421517Y-75820705D01*
X109413495Y-75823770D01*
X109413496Y-75823771D01*
X109406223Y-75826918D01*
X109398607Y-75829131D01*
X109391780Y-75833169D01*
X109391777Y-75833170D01*
X109381094Y-75839488D01*
X109363336Y-75848188D01*
X109351785Y-75852761D01*
X109351779Y-75852765D01*
X109344412Y-75855681D01*
X109338001Y-75860339D01*
X109337999Y-75860340D01*
X109308512Y-75881764D01*
X109298590Y-75888281D01*
X109267232Y-75906826D01*
X109267228Y-75906829D01*
X109260402Y-75910866D01*
X109246018Y-75925250D01*
X109230984Y-75938091D01*
X109214513Y-75950058D01*
X109209460Y-75956166D01*
X109186223Y-75984255D01*
X109178233Y-75993035D01*
X107456517Y-77714750D01*
X107448191Y-77722326D01*
X107441697Y-77726447D01*
X107414449Y-77755463D01*
X107394915Y-77776265D01*
X107392160Y-77779107D01*
X107372361Y-77798906D01*
X107369937Y-77802031D01*
X107369929Y-77802040D01*
X107369863Y-77802126D01*
X107362155Y-77811151D01*
X107331783Y-77843494D01*
X107327965Y-77850438D01*
X107327964Y-77850440D01*
X107321978Y-77861329D01*
X107311127Y-77877847D01*
X107298650Y-77893933D01*
X107281024Y-77934666D01*
X107275807Y-77945314D01*
X107254431Y-77984197D01*
X107252460Y-77991872D01*
X107252458Y-77991878D01*
X107249369Y-78003911D01*
X107242966Y-78022613D01*
X107234883Y-78041292D01*
X107233644Y-78049117D01*
X107227940Y-78085127D01*
X107225535Y-78096740D01*
X107214500Y-78139718D01*
X107214500Y-78160065D01*
X107212949Y-78179776D01*
X107209765Y-78199879D01*
X107210511Y-78207771D01*
X107213941Y-78244056D01*
X107214500Y-78255914D01*
X107214500Y-83424577D01*
X107194498Y-83492698D01*
X107177595Y-83513672D01*
X105286243Y-85405024D01*
X105223931Y-85439050D01*
X105153116Y-85433985D01*
X105103955Y-85400729D01*
X105091438Y-85386974D01*
X105069670Y-85363051D01*
X105065619Y-85359852D01*
X105065615Y-85359848D01*
X104898414Y-85227800D01*
X104898410Y-85227798D01*
X104894359Y-85224598D01*
X104853053Y-85201796D01*
X104803084Y-85151364D01*
X104788312Y-85081921D01*
X104813428Y-85015516D01*
X104840780Y-84988909D01*
X104904570Y-84943408D01*
X105019860Y-84861173D01*
X105063565Y-84817621D01*
X105117176Y-84764196D01*
X105178096Y-84703489D01*
X105192371Y-84683624D01*
X105305435Y-84526277D01*
X105308453Y-84522077D01*
X105320121Y-84498470D01*
X105405136Y-84326453D01*
X105405137Y-84326451D01*
X105407430Y-84321811D01*
X105450244Y-84180893D01*
X105470865Y-84113023D01*
X105470865Y-84113021D01*
X105472370Y-84108069D01*
X105501529Y-83886590D01*
X105501611Y-83883240D01*
X105503074Y-83823365D01*
X105503074Y-83823361D01*
X105503156Y-83820000D01*
X105484852Y-83597361D01*
X105430431Y-83380702D01*
X105341354Y-83175840D01*
X105268964Y-83063942D01*
X105222822Y-82992617D01*
X105222820Y-82992614D01*
X105220014Y-82988277D01*
X105069670Y-82823051D01*
X105065619Y-82819852D01*
X105065615Y-82819848D01*
X104898414Y-82687800D01*
X104898410Y-82687798D01*
X104894359Y-82684598D01*
X104853053Y-82661796D01*
X104803084Y-82611364D01*
X104788312Y-82541921D01*
X104813428Y-82475516D01*
X104840780Y-82448909D01*
X104897379Y-82408537D01*
X105019860Y-82321173D01*
X105040319Y-82300786D01*
X105142306Y-82199154D01*
X105178096Y-82163489D01*
X105219747Y-82105526D01*
X105305435Y-81986277D01*
X105308453Y-81982077D01*
X105356230Y-81885408D01*
X105405136Y-81786453D01*
X105405137Y-81786451D01*
X105407430Y-81781811D01*
X105463971Y-81595712D01*
X105470865Y-81573023D01*
X105470865Y-81573021D01*
X105472370Y-81568069D01*
X105501529Y-81346590D01*
X105503156Y-81280000D01*
X105484852Y-81057361D01*
X105430431Y-80840702D01*
X105341354Y-80635840D01*
X105269890Y-80525373D01*
X105222822Y-80452617D01*
X105222820Y-80452614D01*
X105220014Y-80448277D01*
X105069670Y-80283051D01*
X105065619Y-80279852D01*
X105065615Y-80279848D01*
X104898414Y-80147800D01*
X104898410Y-80147798D01*
X104894359Y-80144598D01*
X104853053Y-80121796D01*
X104803084Y-80071364D01*
X104788312Y-80001921D01*
X104813428Y-79935516D01*
X104840780Y-79908909D01*
X104907569Y-79861269D01*
X105019860Y-79781173D01*
X105025726Y-79775328D01*
X105122541Y-79678850D01*
X105178096Y-79623489D01*
X105186026Y-79612454D01*
X105305435Y-79446277D01*
X105308453Y-79442077D01*
X105402298Y-79252196D01*
X105405136Y-79246453D01*
X105405137Y-79246451D01*
X105407430Y-79241811D01*
X105472370Y-79028069D01*
X105501529Y-78806590D01*
X105502008Y-78786983D01*
X105503074Y-78743365D01*
X105503074Y-78743361D01*
X105503156Y-78740000D01*
X105484852Y-78517361D01*
X105430431Y-78300702D01*
X105341354Y-78095840D01*
X105288094Y-78013513D01*
X105222822Y-77912617D01*
X105222820Y-77912614D01*
X105220014Y-77908277D01*
X105069670Y-77743051D01*
X105065619Y-77739852D01*
X105065615Y-77739848D01*
X104898414Y-77607800D01*
X104898410Y-77607798D01*
X104894359Y-77604598D01*
X104853053Y-77581796D01*
X104803084Y-77531364D01*
X104788312Y-77461921D01*
X104813428Y-77395516D01*
X104840780Y-77368909D01*
X104906945Y-77321714D01*
X105019860Y-77241173D01*
X105178096Y-77083489D01*
X105219747Y-77025526D01*
X105305435Y-76906277D01*
X105308453Y-76902077D01*
X105407430Y-76701811D01*
X105467044Y-76505599D01*
X105470865Y-76493023D01*
X105470865Y-76493021D01*
X105472370Y-76488069D01*
X105501529Y-76266590D01*
X105501683Y-76260295D01*
X105503074Y-76203365D01*
X105503074Y-76203361D01*
X105503156Y-76200000D01*
X105484852Y-75977361D01*
X105430431Y-75760702D01*
X105341354Y-75555840D01*
X105269016Y-75444022D01*
X105222822Y-75372617D01*
X105222820Y-75372614D01*
X105220014Y-75368277D01*
X105069670Y-75203051D01*
X105065619Y-75199852D01*
X105065615Y-75199848D01*
X104898414Y-75067800D01*
X104898410Y-75067798D01*
X104894359Y-75064598D01*
X104889204Y-75061752D01*
X104861525Y-75046473D01*
X104852569Y-75041529D01*
X104802598Y-74991097D01*
X104787826Y-74921654D01*
X104812942Y-74855248D01*
X104840294Y-74828641D01*
X105015328Y-74703792D01*
X105023200Y-74697139D01*
X105174052Y-74546812D01*
X105180730Y-74538965D01*
X105305003Y-74366020D01*
X105310313Y-74357183D01*
X105404670Y-74166267D01*
X105408469Y-74156672D01*
X105470377Y-73952910D01*
X105472555Y-73942837D01*
X105473986Y-73931962D01*
X105471775Y-73917778D01*
X105458617Y-73914000D01*
X104012000Y-73914000D01*
X103943879Y-73893998D01*
X103897386Y-73840342D01*
X103886000Y-73788000D01*
X103886000Y-73532000D01*
X103906002Y-73463879D01*
X103959658Y-73417386D01*
X104012000Y-73406000D01*
X105458344Y-73406000D01*
X105471875Y-73402027D01*
X105473180Y-73392947D01*
X105431214Y-73225875D01*
X105427894Y-73216124D01*
X105342972Y-73020814D01*
X105338105Y-73011739D01*
X105222426Y-72832926D01*
X105216136Y-72824757D01*
X105069328Y-72663418D01*
X105071029Y-72661871D01*
X105039754Y-72609089D01*
X105042329Y-72538139D01*
X105082854Y-72479845D01*
X105148463Y-72452714D01*
X105161858Y-72452000D01*
X143592000Y-72452000D01*
X143660121Y-72472002D01*
G37*
G04 #@! TD.AperFunction*
M02*
