G04 #@! TF.GenerationSoftware,KiCad,Pcbnew,(6.0.0)*
G04 #@! TF.CreationDate,2022-04-16T22:58:20-07:00*
G04 #@! TF.ProjectId,Output Module,4f757470-7574-4204-9d6f-64756c652e6b,rev?*
G04 #@! TF.SameCoordinates,Original*
G04 #@! TF.FileFunction,Soldermask,Top*
G04 #@! TF.FilePolarity,Negative*
%FSLAX46Y46*%
G04 Gerber Fmt 4.6, Leading zero omitted, Abs format (unit mm)*
G04 Created by KiCad (PCBNEW (6.0.0)) date 2022-04-16 22:58:20*
%MOMM*%
%LPD*%
G01*
G04 APERTURE LIST*
G04 Aperture macros list*
%AMRoundRect*
0 Rectangle with rounded corners*
0 $1 Rounding radius*
0 $2 $3 $4 $5 $6 $7 $8 $9 X,Y pos of 4 corners*
0 Add a 4 corners polygon primitive as box body*
4,1,4,$2,$3,$4,$5,$6,$7,$8,$9,$2,$3,0*
0 Add four circle primitives for the rounded corners*
1,1,$1+$1,$2,$3*
1,1,$1+$1,$4,$5*
1,1,$1+$1,$6,$7*
1,1,$1+$1,$8,$9*
0 Add four rect primitives between the rounded corners*
20,1,$1+$1,$2,$3,$4,$5,0*
20,1,$1+$1,$4,$5,$6,$7,0*
20,1,$1+$1,$6,$7,$8,$9,0*
20,1,$1+$1,$8,$9,$2,$3,0*%
G04 Aperture macros list end*
%ADD10R,1.900000X1.900000*%
%ADD11C,2.032000*%
%ADD12C,2.032098*%
%ADD13RoundRect,0.218750X0.218750X0.256250X-0.218750X0.256250X-0.218750X-0.256250X0.218750X-0.256250X0*%
%ADD14RoundRect,0.200000X-0.200000X-0.275000X0.200000X-0.275000X0.200000X0.275000X-0.200000X0.275000X0*%
%ADD15R,1.700000X1.700000*%
%ADD16O,1.700000X1.700000*%
%ADD17R,2.000000X1.500000*%
%ADD18R,2.000000X3.800000*%
G04 APERTURE END LIST*
D10*
X129370000Y-101510000D03*
D11*
X129370000Y-98010000D03*
X129370000Y-94510000D03*
X140870000Y-100010000D03*
X140870000Y-96510000D03*
D12*
X140870000Y-93010000D03*
D10*
X129380000Y-88830000D03*
D11*
X129380000Y-85330000D03*
X129380000Y-81830000D03*
X140880000Y-87330000D03*
X140880000Y-83830000D03*
D12*
X140880000Y-80330000D03*
D13*
X111883500Y-76417000D03*
X110308500Y-76417000D03*
X111903500Y-83817000D03*
X110328500Y-83817000D03*
X111923500Y-91207000D03*
X110348500Y-91207000D03*
X111923500Y-98617000D03*
X110348500Y-98617000D03*
D14*
X110301000Y-78677000D03*
X111951000Y-78677000D03*
X110321000Y-74087000D03*
X111971000Y-74087000D03*
X110291000Y-86077000D03*
X111941000Y-86077000D03*
X110311000Y-81487000D03*
X111961000Y-81487000D03*
D15*
X124460000Y-81280000D03*
D16*
X124460000Y-83820000D03*
X124460000Y-86360000D03*
D14*
X110291000Y-93477000D03*
X111941000Y-93477000D03*
X110291000Y-88897000D03*
X111941000Y-88897000D03*
X110321000Y-100917000D03*
X111971000Y-100917000D03*
X110311000Y-96297000D03*
X111961000Y-96297000D03*
D17*
X113936000Y-74082000D03*
X113936000Y-76382000D03*
X113936000Y-78682000D03*
D18*
X120236000Y-76382000D03*
X120236000Y-91182000D03*
D17*
X113936000Y-93482000D03*
X113936000Y-91182000D03*
X113936000Y-88882000D03*
D15*
X124460000Y-93980000D03*
D16*
X124460000Y-96520000D03*
X124460000Y-99060000D03*
D17*
X113926000Y-81492000D03*
X113926000Y-83792000D03*
X113926000Y-86092000D03*
D18*
X120226000Y-83792000D03*
D15*
X104140000Y-101600000D03*
D16*
X104140000Y-99060000D03*
X104140000Y-96520000D03*
X104140000Y-93980000D03*
X104140000Y-91440000D03*
X104140000Y-88900000D03*
X104140000Y-86360000D03*
X104140000Y-83820000D03*
X104140000Y-81280000D03*
X104140000Y-78740000D03*
X104140000Y-76200000D03*
X104140000Y-73660000D03*
D17*
X113936000Y-96282000D03*
X113936000Y-98582000D03*
X113936000Y-100882000D03*
D18*
X120236000Y-98582000D03*
M02*
