M48
; DRILL file {KiCad (6.0.0)} date Sat Mar  5 17:50:22 2022
; FORMAT={-:-/ absolute / metric / decimal}
; #@! TF.CreationDate,2022-03-05T17:50:22-06:00
; #@! TF.GenerationSoftware,Kicad,Pcbnew,(6.0.0)
; #@! TF.FileFunction,Plated,1,2,PTH
FMAT,2
METRIC
; #@! TA.AperFunction,Plated,PTH,ViaDrill
T1C0.380
; #@! TA.AperFunction,Plated,PTH,ComponentDrill
T2C1.000
; #@! TA.AperFunction,Plated,PTH,ComponentDrill
T3C1.200
%
G90
G05
T1
X110.871Y-78.74
X113.157Y-76.454
T2
X105.664Y-74.168
X105.664Y-76.708
X105.664Y-79.248
X105.664Y-81.788
X105.664Y-84.328
X105.664Y-86.868
X105.664Y-89.408
X105.664Y-91.948
X105.664Y-94.488
X105.664Y-97.028
X105.664Y-99.568
X105.664Y-102.108
X143.637Y-74.661
X143.637Y-77.201
X143.637Y-79.741
T3
X127.189Y-75.888
X127.189Y-79.388
X127.189Y-82.888
X127.189Y-86.388
X127.189Y-89.888
X127.189Y-93.388
X127.189Y-96.888
X127.189Y-100.388
X140.524Y-97.945
X140.524Y-101.445
T0
M30
