G04 #@! TF.GenerationSoftware,KiCad,Pcbnew,(5.1.9)-1*
G04 #@! TF.CreationDate,2021-03-09T19:30:39-06:00*
G04 #@! TF.ProjectId,BDringController,42447269-6e67-4436-9f6e-74726f6c6c65,rev?*
G04 #@! TF.SameCoordinates,Original*
G04 #@! TF.FileFunction,Soldermask,Top*
G04 #@! TF.FilePolarity,Negative*
%FSLAX46Y46*%
G04 Gerber Fmt 4.6, Leading zero omitted, Abs format (unit mm)*
G04 Created by KiCad (PCBNEW (5.1.9)-1) date 2021-03-09 19:30:39*
%MOMM*%
%LPD*%
G01*
G04 APERTURE LIST*
%ADD10O,1.200000X2.000000*%
%ADD11R,1.200000X2.000000*%
%ADD12C,3.650000*%
%ADD13R,1.500000X1.500000*%
%ADD14C,1.500000*%
%ADD15C,1.524000*%
%ADD16O,2.000000X1.200000*%
%ADD17R,2.000000X1.200000*%
%ADD18C,4.700000*%
%ADD19C,3.100000*%
%ADD20O,1.700000X1.700000*%
%ADD21R,1.700000X1.700000*%
%ADD22R,2.400000X2.400000*%
%ADD23C,2.400000*%
%ADD24R,1.900000X1.300000*%
%ADD25R,2.800000X1.000000*%
%ADD26R,0.800000X1.000000*%
%ADD27R,1.200000X1.000000*%
%ADD28R,1.200000X0.700000*%
%ADD29R,1.200000X4.700000*%
%ADD30R,1.500000X2.000000*%
%ADD31R,3.800000X2.000000*%
%ADD32C,1.800000*%
G04 APERTURE END LIST*
D10*
X62738000Y-76581000D03*
D11*
X62738000Y-101981000D03*
D10*
X65278000Y-76581000D03*
X65278000Y-101981000D03*
X67818000Y-76581000D03*
X67818000Y-101981000D03*
X70358000Y-76581000D03*
X70358000Y-101981000D03*
X72898000Y-76581000D03*
X72898000Y-101981000D03*
X75438000Y-76581000D03*
X75438000Y-101981000D03*
X77978000Y-76581000D03*
X77978000Y-101981000D03*
X80518000Y-76581000D03*
X80518000Y-101981000D03*
X83058000Y-76581000D03*
X83058000Y-101981000D03*
X85598000Y-76581000D03*
X85598000Y-101981000D03*
X88138000Y-76581000D03*
X88138000Y-101981000D03*
X90678000Y-76581000D03*
X90678000Y-101981000D03*
X93218000Y-76581000D03*
X93218000Y-101981000D03*
X95758000Y-76581000D03*
X95758000Y-101981000D03*
X98298000Y-76581000D03*
X98298000Y-101981000D03*
X100838000Y-76581000D03*
X100838000Y-101981000D03*
X103378000Y-76581000D03*
X103378000Y-101981000D03*
X105918000Y-76581000D03*
X105918000Y-101981000D03*
X108458000Y-76581000D03*
X108458000Y-101981000D03*
X62738000Y-40386000D03*
D11*
X62738000Y-65786000D03*
D10*
X65278000Y-40386000D03*
X65278000Y-65786000D03*
X67818000Y-40386000D03*
X67818000Y-65786000D03*
X70358000Y-40386000D03*
X70358000Y-65786000D03*
X72898000Y-40386000D03*
X72898000Y-65786000D03*
X75438000Y-40386000D03*
X75438000Y-65786000D03*
X77978000Y-40386000D03*
X77978000Y-65786000D03*
X80518000Y-40386000D03*
X80518000Y-65786000D03*
X83058000Y-40386000D03*
X83058000Y-65786000D03*
X85598000Y-40386000D03*
X85598000Y-65786000D03*
X88138000Y-40386000D03*
X88138000Y-65786000D03*
X90678000Y-40386000D03*
X90678000Y-65786000D03*
X93218000Y-40386000D03*
X93218000Y-65786000D03*
X95758000Y-40386000D03*
X95758000Y-65786000D03*
X98298000Y-40386000D03*
X98298000Y-65786000D03*
X100838000Y-40386000D03*
X100838000Y-65786000D03*
X103378000Y-40386000D03*
X103378000Y-65786000D03*
X105918000Y-40386000D03*
X105918000Y-65786000D03*
X108458000Y-40386000D03*
X108458000Y-65786000D03*
D12*
X128500000Y-39000000D03*
X128500000Y-50430000D03*
D13*
X122150000Y-49160000D03*
D14*
X119610000Y-47890000D03*
X122150000Y-46620000D03*
X119610000Y-45350000D03*
X122150000Y-44080000D03*
X119610000Y-42810000D03*
X122150000Y-41540000D03*
X119610000Y-40270000D03*
D11*
X157607000Y-72009000D03*
X157607000Y-55499000D03*
X119507000Y-72009000D03*
X119507000Y-55499000D03*
D15*
X102743000Y-126492000D03*
X100203000Y-126492000D03*
D16*
X97663000Y-144272000D03*
X110363000Y-144272000D03*
X97663000Y-141732000D03*
X110363000Y-141732000D03*
X97663000Y-139192000D03*
X110363000Y-139192000D03*
X97663000Y-136652000D03*
X110363000Y-136652000D03*
X97663000Y-134112000D03*
X110363000Y-134112000D03*
X97663000Y-131572000D03*
X110363000Y-131572000D03*
X97663000Y-129032000D03*
X110363000Y-129032000D03*
D17*
X97663000Y-126492000D03*
D16*
X110363000Y-126492000D03*
D15*
X125603000Y-126492000D03*
X123063000Y-126492000D03*
D16*
X120523000Y-144272000D03*
X133223000Y-144272000D03*
X120523000Y-141732000D03*
X133223000Y-141732000D03*
X120523000Y-139192000D03*
X133223000Y-139192000D03*
X120523000Y-136652000D03*
X133223000Y-136652000D03*
X120523000Y-134112000D03*
X133223000Y-134112000D03*
X120523000Y-131572000D03*
X133223000Y-131572000D03*
X120523000Y-129032000D03*
X133223000Y-129032000D03*
D17*
X120523000Y-126492000D03*
D16*
X133223000Y-126492000D03*
D15*
X171323000Y-126492000D03*
X168783000Y-126492000D03*
D16*
X166243000Y-144272000D03*
X178943000Y-144272000D03*
X166243000Y-141732000D03*
X178943000Y-141732000D03*
X166243000Y-139192000D03*
X178943000Y-139192000D03*
X166243000Y-136652000D03*
X178943000Y-136652000D03*
X166243000Y-134112000D03*
X178943000Y-134112000D03*
X166243000Y-131572000D03*
X178943000Y-131572000D03*
X166243000Y-129032000D03*
X178943000Y-129032000D03*
D17*
X166243000Y-126492000D03*
D16*
X178943000Y-126492000D03*
D15*
X194183000Y-126492000D03*
X191643000Y-126492000D03*
D16*
X189103000Y-144272000D03*
X201803000Y-144272000D03*
X189103000Y-141732000D03*
X201803000Y-141732000D03*
X189103000Y-139192000D03*
X201803000Y-139192000D03*
X189103000Y-136652000D03*
X201803000Y-136652000D03*
X189103000Y-134112000D03*
X201803000Y-134112000D03*
X189103000Y-131572000D03*
X201803000Y-131572000D03*
X189103000Y-129032000D03*
X201803000Y-129032000D03*
D17*
X189103000Y-126492000D03*
D16*
X201803000Y-126492000D03*
D15*
X148463000Y-126492000D03*
X145923000Y-126492000D03*
D16*
X143383000Y-144272000D03*
X156083000Y-144272000D03*
X143383000Y-141732000D03*
X156083000Y-141732000D03*
X143383000Y-139192000D03*
X156083000Y-139192000D03*
X143383000Y-136652000D03*
X156083000Y-136652000D03*
X143383000Y-134112000D03*
X156083000Y-134112000D03*
X143383000Y-131572000D03*
X156083000Y-131572000D03*
X143383000Y-129032000D03*
X156083000Y-129032000D03*
D17*
X143383000Y-126492000D03*
D16*
X156083000Y-126492000D03*
D15*
X79883000Y-126492000D03*
X77343000Y-126492000D03*
D16*
X74803000Y-144272000D03*
X87503000Y-144272000D03*
X74803000Y-141732000D03*
X87503000Y-141732000D03*
X74803000Y-139192000D03*
X87503000Y-139192000D03*
X74803000Y-136652000D03*
X87503000Y-136652000D03*
X74803000Y-134112000D03*
X87503000Y-134112000D03*
X74803000Y-131572000D03*
X87503000Y-131572000D03*
X74803000Y-129032000D03*
X87503000Y-129032000D03*
D17*
X74803000Y-126492000D03*
D16*
X87503000Y-126492000D03*
G36*
G01*
X83395000Y-79264500D02*
X83395000Y-79739500D01*
G75*
G02*
X83157500Y-79977000I-237500J0D01*
G01*
X82657500Y-79977000D01*
G75*
G02*
X82420000Y-79739500I0J237500D01*
G01*
X82420000Y-79264500D01*
G75*
G02*
X82657500Y-79027000I237500J0D01*
G01*
X83157500Y-79027000D01*
G75*
G02*
X83395000Y-79264500I0J-237500D01*
G01*
G37*
G36*
G01*
X85220000Y-79264500D02*
X85220000Y-79739500D01*
G75*
G02*
X84982500Y-79977000I-237500J0D01*
G01*
X84482500Y-79977000D01*
G75*
G02*
X84245000Y-79739500I0J237500D01*
G01*
X84245000Y-79264500D01*
G75*
G02*
X84482500Y-79027000I237500J0D01*
G01*
X84982500Y-79027000D01*
G75*
G02*
X85220000Y-79264500I0J-237500D01*
G01*
G37*
G36*
G01*
X196262500Y-124075000D02*
X196737500Y-124075000D01*
G75*
G02*
X196975000Y-124312500I0J-237500D01*
G01*
X196975000Y-124912500D01*
G75*
G02*
X196737500Y-125150000I-237500J0D01*
G01*
X196262500Y-125150000D01*
G75*
G02*
X196025000Y-124912500I0J237500D01*
G01*
X196025000Y-124312500D01*
G75*
G02*
X196262500Y-124075000I237500J0D01*
G01*
G37*
G36*
G01*
X196262500Y-122350000D02*
X196737500Y-122350000D01*
G75*
G02*
X196975000Y-122587500I0J-237500D01*
G01*
X196975000Y-123187500D01*
G75*
G02*
X196737500Y-123425000I-237500J0D01*
G01*
X196262500Y-123425000D01*
G75*
G02*
X196025000Y-123187500I0J237500D01*
G01*
X196025000Y-122587500D01*
G75*
G02*
X196262500Y-122350000I237500J0D01*
G01*
G37*
G36*
G01*
X181880500Y-127833000D02*
X182355500Y-127833000D01*
G75*
G02*
X182593000Y-128070500I0J-237500D01*
G01*
X182593000Y-128670500D01*
G75*
G02*
X182355500Y-128908000I-237500J0D01*
G01*
X181880500Y-128908000D01*
G75*
G02*
X181643000Y-128670500I0J237500D01*
G01*
X181643000Y-128070500D01*
G75*
G02*
X181880500Y-127833000I237500J0D01*
G01*
G37*
G36*
G01*
X181880500Y-126108000D02*
X182355500Y-126108000D01*
G75*
G02*
X182593000Y-126345500I0J-237500D01*
G01*
X182593000Y-126945500D01*
G75*
G02*
X182355500Y-127183000I-237500J0D01*
G01*
X181880500Y-127183000D01*
G75*
G02*
X181643000Y-126945500I0J237500D01*
G01*
X181643000Y-126345500D01*
G75*
G02*
X181880500Y-126108000I237500J0D01*
G01*
G37*
G36*
G01*
X159020500Y-127833000D02*
X159495500Y-127833000D01*
G75*
G02*
X159733000Y-128070500I0J-237500D01*
G01*
X159733000Y-128670500D01*
G75*
G02*
X159495500Y-128908000I-237500J0D01*
G01*
X159020500Y-128908000D01*
G75*
G02*
X158783000Y-128670500I0J237500D01*
G01*
X158783000Y-128070500D01*
G75*
G02*
X159020500Y-127833000I237500J0D01*
G01*
G37*
G36*
G01*
X159020500Y-126108000D02*
X159495500Y-126108000D01*
G75*
G02*
X159733000Y-126345500I0J-237500D01*
G01*
X159733000Y-126945500D01*
G75*
G02*
X159495500Y-127183000I-237500J0D01*
G01*
X159020500Y-127183000D01*
G75*
G02*
X158783000Y-126945500I0J237500D01*
G01*
X158783000Y-126345500D01*
G75*
G02*
X159020500Y-126108000I237500J0D01*
G01*
G37*
G36*
G01*
X136160500Y-127833000D02*
X136635500Y-127833000D01*
G75*
G02*
X136873000Y-128070500I0J-237500D01*
G01*
X136873000Y-128670500D01*
G75*
G02*
X136635500Y-128908000I-237500J0D01*
G01*
X136160500Y-128908000D01*
G75*
G02*
X135923000Y-128670500I0J237500D01*
G01*
X135923000Y-128070500D01*
G75*
G02*
X136160500Y-127833000I237500J0D01*
G01*
G37*
G36*
G01*
X136160500Y-126108000D02*
X136635500Y-126108000D01*
G75*
G02*
X136873000Y-126345500I0J-237500D01*
G01*
X136873000Y-126945500D01*
G75*
G02*
X136635500Y-127183000I-237500J0D01*
G01*
X136160500Y-127183000D01*
G75*
G02*
X135923000Y-126945500I0J237500D01*
G01*
X135923000Y-126345500D01*
G75*
G02*
X136160500Y-126108000I237500J0D01*
G01*
G37*
G36*
G01*
X113300500Y-127833000D02*
X113775500Y-127833000D01*
G75*
G02*
X114013000Y-128070500I0J-237500D01*
G01*
X114013000Y-128670500D01*
G75*
G02*
X113775500Y-128908000I-237500J0D01*
G01*
X113300500Y-128908000D01*
G75*
G02*
X113063000Y-128670500I0J237500D01*
G01*
X113063000Y-128070500D01*
G75*
G02*
X113300500Y-127833000I237500J0D01*
G01*
G37*
G36*
G01*
X113300500Y-126108000D02*
X113775500Y-126108000D01*
G75*
G02*
X114013000Y-126345500I0J-237500D01*
G01*
X114013000Y-126945500D01*
G75*
G02*
X113775500Y-127183000I-237500J0D01*
G01*
X113300500Y-127183000D01*
G75*
G02*
X113063000Y-126945500I0J237500D01*
G01*
X113063000Y-126345500D01*
G75*
G02*
X113300500Y-126108000I237500J0D01*
G01*
G37*
G36*
G01*
X90694500Y-127833000D02*
X91169500Y-127833000D01*
G75*
G02*
X91407000Y-128070500I0J-237500D01*
G01*
X91407000Y-128670500D01*
G75*
G02*
X91169500Y-128908000I-237500J0D01*
G01*
X90694500Y-128908000D01*
G75*
G02*
X90457000Y-128670500I0J237500D01*
G01*
X90457000Y-128070500D01*
G75*
G02*
X90694500Y-127833000I237500J0D01*
G01*
G37*
G36*
G01*
X90694500Y-126108000D02*
X91169500Y-126108000D01*
G75*
G02*
X91407000Y-126345500I0J-237500D01*
G01*
X91407000Y-126945500D01*
G75*
G02*
X91169500Y-127183000I-237500J0D01*
G01*
X90694500Y-127183000D01*
G75*
G02*
X90457000Y-126945500I0J237500D01*
G01*
X90457000Y-126345500D01*
G75*
G02*
X90694500Y-126108000I237500J0D01*
G01*
G37*
D18*
X64770000Y-29210000D03*
D19*
X64770000Y-29210000D03*
D18*
X196850000Y-41021000D03*
D19*
X196850000Y-41021000D03*
D18*
X196850000Y-75311000D03*
D19*
X196850000Y-75311000D03*
D18*
X201930000Y-153035000D03*
D19*
X201930000Y-153035000D03*
D18*
X116586000Y-106934000D03*
D19*
X116586000Y-106934000D03*
D18*
X64770000Y-153035000D03*
D19*
X64770000Y-153035000D03*
G36*
G01*
X67053000Y-44433500D02*
X67053000Y-43958500D01*
G75*
G02*
X67290500Y-43721000I237500J0D01*
G01*
X67890500Y-43721000D01*
G75*
G02*
X68128000Y-43958500I0J-237500D01*
G01*
X68128000Y-44433500D01*
G75*
G02*
X67890500Y-44671000I-237500J0D01*
G01*
X67290500Y-44671000D01*
G75*
G02*
X67053000Y-44433500I0J237500D01*
G01*
G37*
G36*
G01*
X68778000Y-44433500D02*
X68778000Y-43958500D01*
G75*
G02*
X69015500Y-43721000I237500J0D01*
G01*
X69615500Y-43721000D01*
G75*
G02*
X69853000Y-43958500I0J-237500D01*
G01*
X69853000Y-44433500D01*
G75*
G02*
X69615500Y-44671000I-237500J0D01*
G01*
X69015500Y-44671000D01*
G75*
G02*
X68778000Y-44433500I0J237500D01*
G01*
G37*
G36*
G01*
X68128000Y-79518500D02*
X68128000Y-79993500D01*
G75*
G02*
X67890500Y-80231000I-237500J0D01*
G01*
X67290500Y-80231000D01*
G75*
G02*
X67053000Y-79993500I0J237500D01*
G01*
X67053000Y-79518500D01*
G75*
G02*
X67290500Y-79281000I237500J0D01*
G01*
X67890500Y-79281000D01*
G75*
G02*
X68128000Y-79518500I0J-237500D01*
G01*
G37*
G36*
G01*
X69853000Y-79518500D02*
X69853000Y-79993500D01*
G75*
G02*
X69615500Y-80231000I-237500J0D01*
G01*
X69015500Y-80231000D01*
G75*
G02*
X68778000Y-79993500I0J237500D01*
G01*
X68778000Y-79518500D01*
G75*
G02*
X69015500Y-79281000I237500J0D01*
G01*
X69615500Y-79281000D01*
G75*
G02*
X69853000Y-79518500I0J-237500D01*
G01*
G37*
G36*
G01*
X144763500Y-60074000D02*
X144288500Y-60074000D01*
G75*
G02*
X144051000Y-59836500I0J237500D01*
G01*
X144051000Y-59236500D01*
G75*
G02*
X144288500Y-58999000I237500J0D01*
G01*
X144763500Y-58999000D01*
G75*
G02*
X145001000Y-59236500I0J-237500D01*
G01*
X145001000Y-59836500D01*
G75*
G02*
X144763500Y-60074000I-237500J0D01*
G01*
G37*
G36*
G01*
X144763500Y-58349000D02*
X144288500Y-58349000D01*
G75*
G02*
X144051000Y-58111500I0J237500D01*
G01*
X144051000Y-57511500D01*
G75*
G02*
X144288500Y-57274000I237500J0D01*
G01*
X144763500Y-57274000D01*
G75*
G02*
X145001000Y-57511500I0J-237500D01*
G01*
X145001000Y-58111500D01*
G75*
G02*
X144763500Y-58349000I-237500J0D01*
G01*
G37*
G36*
G01*
X145017500Y-87051000D02*
X144542500Y-87051000D01*
G75*
G02*
X144305000Y-86813500I0J237500D01*
G01*
X144305000Y-86213500D01*
G75*
G02*
X144542500Y-85976000I237500J0D01*
G01*
X145017500Y-85976000D01*
G75*
G02*
X145255000Y-86213500I0J-237500D01*
G01*
X145255000Y-86813500D01*
G75*
G02*
X145017500Y-87051000I-237500J0D01*
G01*
G37*
G36*
G01*
X145017500Y-88776000D02*
X144542500Y-88776000D01*
G75*
G02*
X144305000Y-88538500I0J237500D01*
G01*
X144305000Y-87938500D01*
G75*
G02*
X144542500Y-87701000I237500J0D01*
G01*
X145017500Y-87701000D01*
G75*
G02*
X145255000Y-87938500I0J-237500D01*
G01*
X145255000Y-88538500D01*
G75*
G02*
X145017500Y-88776000I-237500J0D01*
G01*
G37*
G36*
G01*
X129357000Y-70087500D02*
X129357000Y-69612500D01*
G75*
G02*
X129594500Y-69375000I237500J0D01*
G01*
X130194500Y-69375000D01*
G75*
G02*
X130432000Y-69612500I0J-237500D01*
G01*
X130432000Y-70087500D01*
G75*
G02*
X130194500Y-70325000I-237500J0D01*
G01*
X129594500Y-70325000D01*
G75*
G02*
X129357000Y-70087500I0J237500D01*
G01*
G37*
G36*
G01*
X127632000Y-70087500D02*
X127632000Y-69612500D01*
G75*
G02*
X127869500Y-69375000I237500J0D01*
G01*
X128469500Y-69375000D01*
G75*
G02*
X128707000Y-69612500I0J-237500D01*
G01*
X128707000Y-70087500D01*
G75*
G02*
X128469500Y-70325000I-237500J0D01*
G01*
X127869500Y-70325000D01*
G75*
G02*
X127632000Y-70087500I0J237500D01*
G01*
G37*
G36*
G01*
X100005000Y-107966500D02*
X100005000Y-108441500D01*
G75*
G02*
X99767500Y-108679000I-237500J0D01*
G01*
X99167500Y-108679000D01*
G75*
G02*
X98930000Y-108441500I0J237500D01*
G01*
X98930000Y-107966500D01*
G75*
G02*
X99167500Y-107729000I237500J0D01*
G01*
X99767500Y-107729000D01*
G75*
G02*
X100005000Y-107966500I0J-237500D01*
G01*
G37*
G36*
G01*
X101730000Y-107966500D02*
X101730000Y-108441500D01*
G75*
G02*
X101492500Y-108679000I-237500J0D01*
G01*
X100892500Y-108679000D01*
G75*
G02*
X100655000Y-108441500I0J237500D01*
G01*
X100655000Y-107966500D01*
G75*
G02*
X100892500Y-107729000I237500J0D01*
G01*
X101492500Y-107729000D01*
G75*
G02*
X101730000Y-107966500I0J-237500D01*
G01*
G37*
G36*
G01*
X188143000Y-106696500D02*
X188143000Y-107171500D01*
G75*
G02*
X187905500Y-107409000I-237500J0D01*
G01*
X187305500Y-107409000D01*
G75*
G02*
X187068000Y-107171500I0J237500D01*
G01*
X187068000Y-106696500D01*
G75*
G02*
X187305500Y-106459000I237500J0D01*
G01*
X187905500Y-106459000D01*
G75*
G02*
X188143000Y-106696500I0J-237500D01*
G01*
G37*
G36*
G01*
X189868000Y-106696500D02*
X189868000Y-107171500D01*
G75*
G02*
X189630500Y-107409000I-237500J0D01*
G01*
X189030500Y-107409000D01*
G75*
G02*
X188793000Y-107171500I0J237500D01*
G01*
X188793000Y-106696500D01*
G75*
G02*
X189030500Y-106459000I237500J0D01*
G01*
X189630500Y-106459000D01*
G75*
G02*
X189868000Y-106696500I0J-237500D01*
G01*
G37*
G36*
G01*
X185182500Y-95374000D02*
X185657500Y-95374000D01*
G75*
G02*
X185895000Y-95611500I0J-237500D01*
G01*
X185895000Y-96211500D01*
G75*
G02*
X185657500Y-96449000I-237500J0D01*
G01*
X185182500Y-96449000D01*
G75*
G02*
X184945000Y-96211500I0J237500D01*
G01*
X184945000Y-95611500D01*
G75*
G02*
X185182500Y-95374000I237500J0D01*
G01*
G37*
G36*
G01*
X185182500Y-97099000D02*
X185657500Y-97099000D01*
G75*
G02*
X185895000Y-97336500I0J-237500D01*
G01*
X185895000Y-97936500D01*
G75*
G02*
X185657500Y-98174000I-237500J0D01*
G01*
X185182500Y-98174000D01*
G75*
G02*
X184945000Y-97936500I0J237500D01*
G01*
X184945000Y-97336500D01*
G75*
G02*
X185182500Y-97099000I237500J0D01*
G01*
G37*
G36*
G01*
X144656000Y-107204500D02*
X144656000Y-107679500D01*
G75*
G02*
X144418500Y-107917000I-237500J0D01*
G01*
X143818500Y-107917000D01*
G75*
G02*
X143581000Y-107679500I0J237500D01*
G01*
X143581000Y-107204500D01*
G75*
G02*
X143818500Y-106967000I237500J0D01*
G01*
X144418500Y-106967000D01*
G75*
G02*
X144656000Y-107204500I0J-237500D01*
G01*
G37*
G36*
G01*
X142931000Y-107204500D02*
X142931000Y-107679500D01*
G75*
G02*
X142693500Y-107917000I-237500J0D01*
G01*
X142093500Y-107917000D01*
G75*
G02*
X141856000Y-107679500I0J237500D01*
G01*
X141856000Y-107204500D01*
G75*
G02*
X142093500Y-106967000I237500J0D01*
G01*
X142693500Y-106967000D01*
G75*
G02*
X142931000Y-107204500I0J-237500D01*
G01*
G37*
G36*
G01*
X77648000Y-54298001D02*
X77648000Y-53397999D01*
G75*
G02*
X77897999Y-53148000I249999J0D01*
G01*
X78548001Y-53148000D01*
G75*
G02*
X78798000Y-53397999I0J-249999D01*
G01*
X78798000Y-54298001D01*
G75*
G02*
X78548001Y-54548000I-249999J0D01*
G01*
X77897999Y-54548000D01*
G75*
G02*
X77648000Y-54298001I0J249999D01*
G01*
G37*
G36*
G01*
X79698000Y-54298001D02*
X79698000Y-53397999D01*
G75*
G02*
X79947999Y-53148000I249999J0D01*
G01*
X80598001Y-53148000D01*
G75*
G02*
X80848000Y-53397999I0J-249999D01*
G01*
X80848000Y-54298001D01*
G75*
G02*
X80598001Y-54548000I-249999J0D01*
G01*
X79947999Y-54548000D01*
G75*
G02*
X79698000Y-54298001I0J249999D01*
G01*
G37*
G36*
G01*
X145164000Y-38370500D02*
X145164000Y-38845500D01*
G75*
G02*
X144926500Y-39083000I-237500J0D01*
G01*
X144351500Y-39083000D01*
G75*
G02*
X144114000Y-38845500I0J237500D01*
G01*
X144114000Y-38370500D01*
G75*
G02*
X144351500Y-38133000I237500J0D01*
G01*
X144926500Y-38133000D01*
G75*
G02*
X145164000Y-38370500I0J-237500D01*
G01*
G37*
G36*
G01*
X143414000Y-38370500D02*
X143414000Y-38845500D01*
G75*
G02*
X143176500Y-39083000I-237500J0D01*
G01*
X142601500Y-39083000D01*
G75*
G02*
X142364000Y-38845500I0J237500D01*
G01*
X142364000Y-38370500D01*
G75*
G02*
X142601500Y-38133000I237500J0D01*
G01*
X143176500Y-38133000D01*
G75*
G02*
X143414000Y-38370500I0J-237500D01*
G01*
G37*
G36*
G01*
X143414000Y-47260500D02*
X143414000Y-47735500D01*
G75*
G02*
X143176500Y-47973000I-237500J0D01*
G01*
X142601500Y-47973000D01*
G75*
G02*
X142364000Y-47735500I0J237500D01*
G01*
X142364000Y-47260500D01*
G75*
G02*
X142601500Y-47023000I237500J0D01*
G01*
X143176500Y-47023000D01*
G75*
G02*
X143414000Y-47260500I0J-237500D01*
G01*
G37*
G36*
G01*
X145164000Y-47260500D02*
X145164000Y-47735500D01*
G75*
G02*
X144926500Y-47973000I-237500J0D01*
G01*
X144351500Y-47973000D01*
G75*
G02*
X144114000Y-47735500I0J237500D01*
G01*
X144114000Y-47260500D01*
G75*
G02*
X144351500Y-47023000I237500J0D01*
G01*
X144926500Y-47023000D01*
G75*
G02*
X145164000Y-47260500I0J-237500D01*
G01*
G37*
G36*
G01*
X145164000Y-42815500D02*
X145164000Y-43290500D01*
G75*
G02*
X144926500Y-43528000I-237500J0D01*
G01*
X144351500Y-43528000D01*
G75*
G02*
X144114000Y-43290500I0J237500D01*
G01*
X144114000Y-42815500D01*
G75*
G02*
X144351500Y-42578000I237500J0D01*
G01*
X144926500Y-42578000D01*
G75*
G02*
X145164000Y-42815500I0J-237500D01*
G01*
G37*
G36*
G01*
X143414000Y-42815500D02*
X143414000Y-43290500D01*
G75*
G02*
X143176500Y-43528000I-237500J0D01*
G01*
X142601500Y-43528000D01*
G75*
G02*
X142364000Y-43290500I0J237500D01*
G01*
X142364000Y-42815500D01*
G75*
G02*
X142601500Y-42578000I237500J0D01*
G01*
X143176500Y-42578000D01*
G75*
G02*
X143414000Y-42815500I0J-237500D01*
G01*
G37*
G36*
G01*
X143414000Y-51262500D02*
X143414000Y-51737500D01*
G75*
G02*
X143176500Y-51975000I-237500J0D01*
G01*
X142601500Y-51975000D01*
G75*
G02*
X142364000Y-51737500I0J237500D01*
G01*
X142364000Y-51262500D01*
G75*
G02*
X142601500Y-51025000I237500J0D01*
G01*
X143176500Y-51025000D01*
G75*
G02*
X143414000Y-51262500I0J-237500D01*
G01*
G37*
G36*
G01*
X145164000Y-51262500D02*
X145164000Y-51737500D01*
G75*
G02*
X144926500Y-51975000I-237500J0D01*
G01*
X144351500Y-51975000D01*
G75*
G02*
X144114000Y-51737500I0J237500D01*
G01*
X144114000Y-51262500D01*
G75*
G02*
X144351500Y-51025000I237500J0D01*
G01*
X144926500Y-51025000D01*
G75*
G02*
X145164000Y-51262500I0J-237500D01*
G01*
G37*
D20*
X68326000Y-33274000D03*
X70866000Y-33274000D03*
X73406000Y-33274000D03*
X75946000Y-33274000D03*
X78486000Y-33274000D03*
X81026000Y-33274000D03*
X83566000Y-33274000D03*
X86106000Y-33274000D03*
X88646000Y-33274000D03*
X91186000Y-33274000D03*
X93726000Y-33274000D03*
D21*
X96266000Y-33274000D03*
D20*
X91694000Y-93980000D03*
X91694000Y-91440000D03*
X91694000Y-88900000D03*
X91694000Y-86360000D03*
X91694000Y-83820000D03*
D21*
X91694000Y-81280000D03*
X94234000Y-81280000D03*
D20*
X94234000Y-83820000D03*
X94234000Y-86360000D03*
X94234000Y-88900000D03*
X94234000Y-91440000D03*
X94234000Y-93980000D03*
D21*
X164592000Y-101727000D03*
D20*
X164592000Y-99187000D03*
X164592000Y-96647000D03*
X164592000Y-94107000D03*
X164592000Y-91567000D03*
X164592000Y-89027000D03*
X164592000Y-86487000D03*
X164592000Y-83947000D03*
X164592000Y-81407000D03*
X164592000Y-78867000D03*
X164592000Y-76327000D03*
X164592000Y-73787000D03*
D22*
X66294000Y-121666000D03*
D23*
X66294000Y-125166000D03*
D22*
X66294000Y-109728000D03*
D23*
X66294000Y-113228000D03*
D20*
X102108000Y-33274000D03*
X104648000Y-33274000D03*
X107188000Y-33274000D03*
X109728000Y-33274000D03*
X112268000Y-33274000D03*
X114808000Y-33274000D03*
X117348000Y-33274000D03*
X119888000Y-33274000D03*
X122428000Y-33274000D03*
X124968000Y-33274000D03*
X127508000Y-33274000D03*
D21*
X130048000Y-33274000D03*
D20*
X72390000Y-118618000D03*
X72390000Y-116078000D03*
D21*
X72390000Y-113538000D03*
X164592000Y-67437000D03*
D20*
X164592000Y-64897000D03*
X164592000Y-62357000D03*
X164592000Y-59817000D03*
X164592000Y-57277000D03*
X164592000Y-54737000D03*
X164592000Y-52197000D03*
X164592000Y-49657000D03*
X164592000Y-47117000D03*
X164592000Y-44577000D03*
X164592000Y-42037000D03*
X164592000Y-39497000D03*
D21*
X160528000Y-63754000D03*
D20*
X160528000Y-66294000D03*
X160528000Y-68834000D03*
X135890000Y-33274000D03*
X138430000Y-33274000D03*
X140970000Y-33274000D03*
X143510000Y-33274000D03*
X146050000Y-33274000D03*
X148590000Y-33274000D03*
X151130000Y-33274000D03*
X153670000Y-33274000D03*
X156210000Y-33274000D03*
X158750000Y-33274000D03*
X161290000Y-33274000D03*
D21*
X163830000Y-33274000D03*
X198120000Y-33274000D03*
D20*
X195580000Y-33274000D03*
X193040000Y-33274000D03*
X190500000Y-33274000D03*
X187960000Y-33274000D03*
X185420000Y-33274000D03*
X182880000Y-33274000D03*
X180340000Y-33274000D03*
X177800000Y-33274000D03*
X175260000Y-33274000D03*
X172720000Y-33274000D03*
X170180000Y-33274000D03*
D24*
X64253000Y-97861000D03*
D25*
X64703000Y-84361000D03*
D26*
X68853000Y-84361000D03*
D27*
X75053000Y-84361000D03*
X79353000Y-95511000D03*
D28*
X79353000Y-87361000D03*
X79353000Y-88461000D03*
X79353000Y-89561000D03*
X79353000Y-90661000D03*
X79353000Y-91761000D03*
X79353000Y-92861000D03*
X79353000Y-93961000D03*
X79353000Y-86261000D03*
X79353000Y-85311000D03*
D20*
X119634000Y-76962000D03*
X119634000Y-79502000D03*
D21*
X119634000Y-82042000D03*
X125476000Y-82169000D03*
D20*
X125476000Y-79629000D03*
X125476000Y-77089000D03*
X131318000Y-76962000D03*
X131318000Y-79502000D03*
D21*
X131318000Y-82042000D03*
X137160000Y-82042000D03*
D20*
X137160000Y-79502000D03*
X137160000Y-76962000D03*
D29*
X148459000Y-60198000D03*
X151769000Y-60198000D03*
X152531000Y-90932000D03*
X149221000Y-90932000D03*
D11*
X119761000Y-86487000D03*
X119761000Y-102997000D03*
X157861000Y-86487000D03*
X157861000Y-102997000D03*
G36*
G01*
X103549000Y-85835500D02*
X103549000Y-85360500D01*
G75*
G02*
X103786500Y-85123000I237500J0D01*
G01*
X104286500Y-85123000D01*
G75*
G02*
X104524000Y-85360500I0J-237500D01*
G01*
X104524000Y-85835500D01*
G75*
G02*
X104286500Y-86073000I-237500J0D01*
G01*
X103786500Y-86073000D01*
G75*
G02*
X103549000Y-85835500I0J237500D01*
G01*
G37*
G36*
G01*
X101724000Y-85835500D02*
X101724000Y-85360500D01*
G75*
G02*
X101961500Y-85123000I237500J0D01*
G01*
X102461500Y-85123000D01*
G75*
G02*
X102699000Y-85360500I0J-237500D01*
G01*
X102699000Y-85835500D01*
G75*
G02*
X102461500Y-86073000I-237500J0D01*
G01*
X101961500Y-86073000D01*
G75*
G02*
X101724000Y-85835500I0J237500D01*
G01*
G37*
G36*
G01*
X101724000Y-89645500D02*
X101724000Y-89170500D01*
G75*
G02*
X101961500Y-88933000I237500J0D01*
G01*
X102461500Y-88933000D01*
G75*
G02*
X102699000Y-89170500I0J-237500D01*
G01*
X102699000Y-89645500D01*
G75*
G02*
X102461500Y-89883000I-237500J0D01*
G01*
X101961500Y-89883000D01*
G75*
G02*
X101724000Y-89645500I0J237500D01*
G01*
G37*
G36*
G01*
X103549000Y-89645500D02*
X103549000Y-89170500D01*
G75*
G02*
X103786500Y-88933000I237500J0D01*
G01*
X104286500Y-88933000D01*
G75*
G02*
X104524000Y-89170500I0J-237500D01*
G01*
X104524000Y-89645500D01*
G75*
G02*
X104286500Y-89883000I-237500J0D01*
G01*
X103786500Y-89883000D01*
G75*
G02*
X103549000Y-89645500I0J237500D01*
G01*
G37*
G36*
G01*
X103549000Y-94090500D02*
X103549000Y-93615500D01*
G75*
G02*
X103786500Y-93378000I237500J0D01*
G01*
X104286500Y-93378000D01*
G75*
G02*
X104524000Y-93615500I0J-237500D01*
G01*
X104524000Y-94090500D01*
G75*
G02*
X104286500Y-94328000I-237500J0D01*
G01*
X103786500Y-94328000D01*
G75*
G02*
X103549000Y-94090500I0J237500D01*
G01*
G37*
G36*
G01*
X101724000Y-94090500D02*
X101724000Y-93615500D01*
G75*
G02*
X101961500Y-93378000I237500J0D01*
G01*
X102461500Y-93378000D01*
G75*
G02*
X102699000Y-93615500I0J-237500D01*
G01*
X102699000Y-94090500D01*
G75*
G02*
X102461500Y-94328000I-237500J0D01*
G01*
X101961500Y-94328000D01*
G75*
G02*
X101724000Y-94090500I0J237500D01*
G01*
G37*
G36*
G01*
X101724000Y-97900500D02*
X101724000Y-97425500D01*
G75*
G02*
X101961500Y-97188000I237500J0D01*
G01*
X102461500Y-97188000D01*
G75*
G02*
X102699000Y-97425500I0J-237500D01*
G01*
X102699000Y-97900500D01*
G75*
G02*
X102461500Y-98138000I-237500J0D01*
G01*
X101961500Y-98138000D01*
G75*
G02*
X101724000Y-97900500I0J237500D01*
G01*
G37*
G36*
G01*
X103549000Y-97900500D02*
X103549000Y-97425500D01*
G75*
G02*
X103786500Y-97188000I237500J0D01*
G01*
X104286500Y-97188000D01*
G75*
G02*
X104524000Y-97425500I0J-237500D01*
G01*
X104524000Y-97900500D01*
G75*
G02*
X104286500Y-98138000I-237500J0D01*
G01*
X103786500Y-98138000D01*
G75*
G02*
X103549000Y-97900500I0J237500D01*
G01*
G37*
G36*
G01*
X140719000Y-38370500D02*
X140719000Y-38845500D01*
G75*
G02*
X140481500Y-39083000I-237500J0D01*
G01*
X139981500Y-39083000D01*
G75*
G02*
X139744000Y-38845500I0J237500D01*
G01*
X139744000Y-38370500D01*
G75*
G02*
X139981500Y-38133000I237500J0D01*
G01*
X140481500Y-38133000D01*
G75*
G02*
X140719000Y-38370500I0J-237500D01*
G01*
G37*
G36*
G01*
X138894000Y-38370500D02*
X138894000Y-38845500D01*
G75*
G02*
X138656500Y-39083000I-237500J0D01*
G01*
X138156500Y-39083000D01*
G75*
G02*
X137919000Y-38845500I0J237500D01*
G01*
X137919000Y-38370500D01*
G75*
G02*
X138156500Y-38133000I237500J0D01*
G01*
X138656500Y-38133000D01*
G75*
G02*
X138894000Y-38370500I0J-237500D01*
G01*
G37*
G36*
G01*
X138894000Y-47260500D02*
X138894000Y-47735500D01*
G75*
G02*
X138656500Y-47973000I-237500J0D01*
G01*
X138156500Y-47973000D01*
G75*
G02*
X137919000Y-47735500I0J237500D01*
G01*
X137919000Y-47260500D01*
G75*
G02*
X138156500Y-47023000I237500J0D01*
G01*
X138656500Y-47023000D01*
G75*
G02*
X138894000Y-47260500I0J-237500D01*
G01*
G37*
G36*
G01*
X140719000Y-47260500D02*
X140719000Y-47735500D01*
G75*
G02*
X140481500Y-47973000I-237500J0D01*
G01*
X139981500Y-47973000D01*
G75*
G02*
X139744000Y-47735500I0J237500D01*
G01*
X139744000Y-47260500D01*
G75*
G02*
X139981500Y-47023000I237500J0D01*
G01*
X140481500Y-47023000D01*
G75*
G02*
X140719000Y-47260500I0J-237500D01*
G01*
G37*
G36*
G01*
X138894000Y-42815500D02*
X138894000Y-43290500D01*
G75*
G02*
X138656500Y-43528000I-237500J0D01*
G01*
X138156500Y-43528000D01*
G75*
G02*
X137919000Y-43290500I0J237500D01*
G01*
X137919000Y-42815500D01*
G75*
G02*
X138156500Y-42578000I237500J0D01*
G01*
X138656500Y-42578000D01*
G75*
G02*
X138894000Y-42815500I0J-237500D01*
G01*
G37*
G36*
G01*
X140719000Y-42815500D02*
X140719000Y-43290500D01*
G75*
G02*
X140481500Y-43528000I-237500J0D01*
G01*
X139981500Y-43528000D01*
G75*
G02*
X139744000Y-43290500I0J237500D01*
G01*
X139744000Y-42815500D01*
G75*
G02*
X139981500Y-42578000I237500J0D01*
G01*
X140481500Y-42578000D01*
G75*
G02*
X140719000Y-42815500I0J-237500D01*
G01*
G37*
G36*
G01*
X140719000Y-51262500D02*
X140719000Y-51737500D01*
G75*
G02*
X140481500Y-51975000I-237500J0D01*
G01*
X139981500Y-51975000D01*
G75*
G02*
X139744000Y-51737500I0J237500D01*
G01*
X139744000Y-51262500D01*
G75*
G02*
X139981500Y-51025000I237500J0D01*
G01*
X140481500Y-51025000D01*
G75*
G02*
X140719000Y-51262500I0J-237500D01*
G01*
G37*
G36*
G01*
X138894000Y-51262500D02*
X138894000Y-51737500D01*
G75*
G02*
X138656500Y-51975000I-237500J0D01*
G01*
X138156500Y-51975000D01*
G75*
G02*
X137919000Y-51737500I0J237500D01*
G01*
X137919000Y-51262500D01*
G75*
G02*
X138156500Y-51025000I237500J0D01*
G01*
X138656500Y-51025000D01*
G75*
G02*
X138894000Y-51262500I0J-237500D01*
G01*
G37*
G36*
G01*
X134676000Y-91717000D02*
X134676000Y-91417000D01*
G75*
G02*
X134826000Y-91267000I150000J0D01*
G01*
X136526000Y-91267000D01*
G75*
G02*
X136676000Y-91417000I0J-150000D01*
G01*
X136676000Y-91717000D01*
G75*
G02*
X136526000Y-91867000I-150000J0D01*
G01*
X134826000Y-91867000D01*
G75*
G02*
X134676000Y-91717000I0J150000D01*
G01*
G37*
G36*
G01*
X134676000Y-92987000D02*
X134676000Y-92687000D01*
G75*
G02*
X134826000Y-92537000I150000J0D01*
G01*
X136526000Y-92537000D01*
G75*
G02*
X136676000Y-92687000I0J-150000D01*
G01*
X136676000Y-92987000D01*
G75*
G02*
X136526000Y-93137000I-150000J0D01*
G01*
X134826000Y-93137000D01*
G75*
G02*
X134676000Y-92987000I0J150000D01*
G01*
G37*
G36*
G01*
X134676000Y-94257000D02*
X134676000Y-93957000D01*
G75*
G02*
X134826000Y-93807000I150000J0D01*
G01*
X136526000Y-93807000D01*
G75*
G02*
X136676000Y-93957000I0J-150000D01*
G01*
X136676000Y-94257000D01*
G75*
G02*
X136526000Y-94407000I-150000J0D01*
G01*
X134826000Y-94407000D01*
G75*
G02*
X134676000Y-94257000I0J150000D01*
G01*
G37*
G36*
G01*
X134676000Y-95527000D02*
X134676000Y-95227000D01*
G75*
G02*
X134826000Y-95077000I150000J0D01*
G01*
X136526000Y-95077000D01*
G75*
G02*
X136676000Y-95227000I0J-150000D01*
G01*
X136676000Y-95527000D01*
G75*
G02*
X136526000Y-95677000I-150000J0D01*
G01*
X134826000Y-95677000D01*
G75*
G02*
X134676000Y-95527000I0J150000D01*
G01*
G37*
G36*
G01*
X134676000Y-96797000D02*
X134676000Y-96497000D01*
G75*
G02*
X134826000Y-96347000I150000J0D01*
G01*
X136526000Y-96347000D01*
G75*
G02*
X136676000Y-96497000I0J-150000D01*
G01*
X136676000Y-96797000D01*
G75*
G02*
X136526000Y-96947000I-150000J0D01*
G01*
X134826000Y-96947000D01*
G75*
G02*
X134676000Y-96797000I0J150000D01*
G01*
G37*
G36*
G01*
X134676000Y-98067000D02*
X134676000Y-97767000D01*
G75*
G02*
X134826000Y-97617000I150000J0D01*
G01*
X136526000Y-97617000D01*
G75*
G02*
X136676000Y-97767000I0J-150000D01*
G01*
X136676000Y-98067000D01*
G75*
G02*
X136526000Y-98217000I-150000J0D01*
G01*
X134826000Y-98217000D01*
G75*
G02*
X134676000Y-98067000I0J150000D01*
G01*
G37*
G36*
G01*
X134676000Y-99337000D02*
X134676000Y-99037000D01*
G75*
G02*
X134826000Y-98887000I150000J0D01*
G01*
X136526000Y-98887000D01*
G75*
G02*
X136676000Y-99037000I0J-150000D01*
G01*
X136676000Y-99337000D01*
G75*
G02*
X136526000Y-99487000I-150000J0D01*
G01*
X134826000Y-99487000D01*
G75*
G02*
X134676000Y-99337000I0J150000D01*
G01*
G37*
G36*
G01*
X134676000Y-100607000D02*
X134676000Y-100307000D01*
G75*
G02*
X134826000Y-100157000I150000J0D01*
G01*
X136526000Y-100157000D01*
G75*
G02*
X136676000Y-100307000I0J-150000D01*
G01*
X136676000Y-100607000D01*
G75*
G02*
X136526000Y-100757000I-150000J0D01*
G01*
X134826000Y-100757000D01*
G75*
G02*
X134676000Y-100607000I0J150000D01*
G01*
G37*
G36*
G01*
X139676000Y-100607000D02*
X139676000Y-100307000D01*
G75*
G02*
X139826000Y-100157000I150000J0D01*
G01*
X141526000Y-100157000D01*
G75*
G02*
X141676000Y-100307000I0J-150000D01*
G01*
X141676000Y-100607000D01*
G75*
G02*
X141526000Y-100757000I-150000J0D01*
G01*
X139826000Y-100757000D01*
G75*
G02*
X139676000Y-100607000I0J150000D01*
G01*
G37*
G36*
G01*
X139676000Y-99337000D02*
X139676000Y-99037000D01*
G75*
G02*
X139826000Y-98887000I150000J0D01*
G01*
X141526000Y-98887000D01*
G75*
G02*
X141676000Y-99037000I0J-150000D01*
G01*
X141676000Y-99337000D01*
G75*
G02*
X141526000Y-99487000I-150000J0D01*
G01*
X139826000Y-99487000D01*
G75*
G02*
X139676000Y-99337000I0J150000D01*
G01*
G37*
G36*
G01*
X139676000Y-98067000D02*
X139676000Y-97767000D01*
G75*
G02*
X139826000Y-97617000I150000J0D01*
G01*
X141526000Y-97617000D01*
G75*
G02*
X141676000Y-97767000I0J-150000D01*
G01*
X141676000Y-98067000D01*
G75*
G02*
X141526000Y-98217000I-150000J0D01*
G01*
X139826000Y-98217000D01*
G75*
G02*
X139676000Y-98067000I0J150000D01*
G01*
G37*
G36*
G01*
X139676000Y-96797000D02*
X139676000Y-96497000D01*
G75*
G02*
X139826000Y-96347000I150000J0D01*
G01*
X141526000Y-96347000D01*
G75*
G02*
X141676000Y-96497000I0J-150000D01*
G01*
X141676000Y-96797000D01*
G75*
G02*
X141526000Y-96947000I-150000J0D01*
G01*
X139826000Y-96947000D01*
G75*
G02*
X139676000Y-96797000I0J150000D01*
G01*
G37*
G36*
G01*
X139676000Y-95527000D02*
X139676000Y-95227000D01*
G75*
G02*
X139826000Y-95077000I150000J0D01*
G01*
X141526000Y-95077000D01*
G75*
G02*
X141676000Y-95227000I0J-150000D01*
G01*
X141676000Y-95527000D01*
G75*
G02*
X141526000Y-95677000I-150000J0D01*
G01*
X139826000Y-95677000D01*
G75*
G02*
X139676000Y-95527000I0J150000D01*
G01*
G37*
G36*
G01*
X139676000Y-94257000D02*
X139676000Y-93957000D01*
G75*
G02*
X139826000Y-93807000I150000J0D01*
G01*
X141526000Y-93807000D01*
G75*
G02*
X141676000Y-93957000I0J-150000D01*
G01*
X141676000Y-94257000D01*
G75*
G02*
X141526000Y-94407000I-150000J0D01*
G01*
X139826000Y-94407000D01*
G75*
G02*
X139676000Y-94257000I0J150000D01*
G01*
G37*
G36*
G01*
X139676000Y-92987000D02*
X139676000Y-92687000D01*
G75*
G02*
X139826000Y-92537000I150000J0D01*
G01*
X141526000Y-92537000D01*
G75*
G02*
X141676000Y-92687000I0J-150000D01*
G01*
X141676000Y-92987000D01*
G75*
G02*
X141526000Y-93137000I-150000J0D01*
G01*
X139826000Y-93137000D01*
G75*
G02*
X139676000Y-92987000I0J150000D01*
G01*
G37*
G36*
G01*
X139676000Y-91717000D02*
X139676000Y-91417000D01*
G75*
G02*
X139826000Y-91267000I150000J0D01*
G01*
X141526000Y-91267000D01*
G75*
G02*
X141676000Y-91417000I0J-150000D01*
G01*
X141676000Y-91717000D01*
G75*
G02*
X141526000Y-91867000I-150000J0D01*
G01*
X139826000Y-91867000D01*
G75*
G02*
X139676000Y-91717000I0J150000D01*
G01*
G37*
D30*
X135622000Y-71476000D03*
X140222000Y-71476000D03*
X137922000Y-71476000D03*
D31*
X137922000Y-65176000D03*
G36*
G01*
X98233000Y-110386000D02*
X98233000Y-110086000D01*
G75*
G02*
X98383000Y-109936000I150000J0D01*
G01*
X100058000Y-109936000D01*
G75*
G02*
X100208000Y-110086000I0J-150000D01*
G01*
X100208000Y-110386000D01*
G75*
G02*
X100058000Y-110536000I-150000J0D01*
G01*
X98383000Y-110536000D01*
G75*
G02*
X98233000Y-110386000I0J150000D01*
G01*
G37*
G36*
G01*
X98233000Y-111656000D02*
X98233000Y-111356000D01*
G75*
G02*
X98383000Y-111206000I150000J0D01*
G01*
X100058000Y-111206000D01*
G75*
G02*
X100208000Y-111356000I0J-150000D01*
G01*
X100208000Y-111656000D01*
G75*
G02*
X100058000Y-111806000I-150000J0D01*
G01*
X98383000Y-111806000D01*
G75*
G02*
X98233000Y-111656000I0J150000D01*
G01*
G37*
G36*
G01*
X98233000Y-112926000D02*
X98233000Y-112626000D01*
G75*
G02*
X98383000Y-112476000I150000J0D01*
G01*
X100058000Y-112476000D01*
G75*
G02*
X100208000Y-112626000I0J-150000D01*
G01*
X100208000Y-112926000D01*
G75*
G02*
X100058000Y-113076000I-150000J0D01*
G01*
X98383000Y-113076000D01*
G75*
G02*
X98233000Y-112926000I0J150000D01*
G01*
G37*
G36*
G01*
X98233000Y-114196000D02*
X98233000Y-113896000D01*
G75*
G02*
X98383000Y-113746000I150000J0D01*
G01*
X100058000Y-113746000D01*
G75*
G02*
X100208000Y-113896000I0J-150000D01*
G01*
X100208000Y-114196000D01*
G75*
G02*
X100058000Y-114346000I-150000J0D01*
G01*
X98383000Y-114346000D01*
G75*
G02*
X98233000Y-114196000I0J150000D01*
G01*
G37*
G36*
G01*
X98233000Y-115466000D02*
X98233000Y-115166000D01*
G75*
G02*
X98383000Y-115016000I150000J0D01*
G01*
X100058000Y-115016000D01*
G75*
G02*
X100208000Y-115166000I0J-150000D01*
G01*
X100208000Y-115466000D01*
G75*
G02*
X100058000Y-115616000I-150000J0D01*
G01*
X98383000Y-115616000D01*
G75*
G02*
X98233000Y-115466000I0J150000D01*
G01*
G37*
G36*
G01*
X98233000Y-116736000D02*
X98233000Y-116436000D01*
G75*
G02*
X98383000Y-116286000I150000J0D01*
G01*
X100058000Y-116286000D01*
G75*
G02*
X100208000Y-116436000I0J-150000D01*
G01*
X100208000Y-116736000D01*
G75*
G02*
X100058000Y-116886000I-150000J0D01*
G01*
X98383000Y-116886000D01*
G75*
G02*
X98233000Y-116736000I0J150000D01*
G01*
G37*
G36*
G01*
X98233000Y-118006000D02*
X98233000Y-117706000D01*
G75*
G02*
X98383000Y-117556000I150000J0D01*
G01*
X100058000Y-117556000D01*
G75*
G02*
X100208000Y-117706000I0J-150000D01*
G01*
X100208000Y-118006000D01*
G75*
G02*
X100058000Y-118156000I-150000J0D01*
G01*
X98383000Y-118156000D01*
G75*
G02*
X98233000Y-118006000I0J150000D01*
G01*
G37*
G36*
G01*
X98233000Y-119276000D02*
X98233000Y-118976000D01*
G75*
G02*
X98383000Y-118826000I150000J0D01*
G01*
X100058000Y-118826000D01*
G75*
G02*
X100208000Y-118976000I0J-150000D01*
G01*
X100208000Y-119276000D01*
G75*
G02*
X100058000Y-119426000I-150000J0D01*
G01*
X98383000Y-119426000D01*
G75*
G02*
X98233000Y-119276000I0J150000D01*
G01*
G37*
G36*
G01*
X91308000Y-119276000D02*
X91308000Y-118976000D01*
G75*
G02*
X91458000Y-118826000I150000J0D01*
G01*
X93133000Y-118826000D01*
G75*
G02*
X93283000Y-118976000I0J-150000D01*
G01*
X93283000Y-119276000D01*
G75*
G02*
X93133000Y-119426000I-150000J0D01*
G01*
X91458000Y-119426000D01*
G75*
G02*
X91308000Y-119276000I0J150000D01*
G01*
G37*
G36*
G01*
X91308000Y-118006000D02*
X91308000Y-117706000D01*
G75*
G02*
X91458000Y-117556000I150000J0D01*
G01*
X93133000Y-117556000D01*
G75*
G02*
X93283000Y-117706000I0J-150000D01*
G01*
X93283000Y-118006000D01*
G75*
G02*
X93133000Y-118156000I-150000J0D01*
G01*
X91458000Y-118156000D01*
G75*
G02*
X91308000Y-118006000I0J150000D01*
G01*
G37*
G36*
G01*
X91308000Y-116736000D02*
X91308000Y-116436000D01*
G75*
G02*
X91458000Y-116286000I150000J0D01*
G01*
X93133000Y-116286000D01*
G75*
G02*
X93283000Y-116436000I0J-150000D01*
G01*
X93283000Y-116736000D01*
G75*
G02*
X93133000Y-116886000I-150000J0D01*
G01*
X91458000Y-116886000D01*
G75*
G02*
X91308000Y-116736000I0J150000D01*
G01*
G37*
G36*
G01*
X91308000Y-115466000D02*
X91308000Y-115166000D01*
G75*
G02*
X91458000Y-115016000I150000J0D01*
G01*
X93133000Y-115016000D01*
G75*
G02*
X93283000Y-115166000I0J-150000D01*
G01*
X93283000Y-115466000D01*
G75*
G02*
X93133000Y-115616000I-150000J0D01*
G01*
X91458000Y-115616000D01*
G75*
G02*
X91308000Y-115466000I0J150000D01*
G01*
G37*
G36*
G01*
X91308000Y-114196000D02*
X91308000Y-113896000D01*
G75*
G02*
X91458000Y-113746000I150000J0D01*
G01*
X93133000Y-113746000D01*
G75*
G02*
X93283000Y-113896000I0J-150000D01*
G01*
X93283000Y-114196000D01*
G75*
G02*
X93133000Y-114346000I-150000J0D01*
G01*
X91458000Y-114346000D01*
G75*
G02*
X91308000Y-114196000I0J150000D01*
G01*
G37*
G36*
G01*
X91308000Y-112926000D02*
X91308000Y-112626000D01*
G75*
G02*
X91458000Y-112476000I150000J0D01*
G01*
X93133000Y-112476000D01*
G75*
G02*
X93283000Y-112626000I0J-150000D01*
G01*
X93283000Y-112926000D01*
G75*
G02*
X93133000Y-113076000I-150000J0D01*
G01*
X91458000Y-113076000D01*
G75*
G02*
X91308000Y-112926000I0J150000D01*
G01*
G37*
G36*
G01*
X91308000Y-111656000D02*
X91308000Y-111356000D01*
G75*
G02*
X91458000Y-111206000I150000J0D01*
G01*
X93133000Y-111206000D01*
G75*
G02*
X93283000Y-111356000I0J-150000D01*
G01*
X93283000Y-111656000D01*
G75*
G02*
X93133000Y-111806000I-150000J0D01*
G01*
X91458000Y-111806000D01*
G75*
G02*
X91308000Y-111656000I0J150000D01*
G01*
G37*
G36*
G01*
X91308000Y-110386000D02*
X91308000Y-110086000D01*
G75*
G02*
X91458000Y-109936000I150000J0D01*
G01*
X93133000Y-109936000D01*
G75*
G02*
X93283000Y-110086000I0J-150000D01*
G01*
X93283000Y-110386000D01*
G75*
G02*
X93133000Y-110536000I-150000J0D01*
G01*
X91458000Y-110536000D01*
G75*
G02*
X91308000Y-110386000I0J150000D01*
G01*
G37*
G36*
G01*
X186498000Y-109116000D02*
X186498000Y-108816000D01*
G75*
G02*
X186648000Y-108666000I150000J0D01*
G01*
X188323000Y-108666000D01*
G75*
G02*
X188473000Y-108816000I0J-150000D01*
G01*
X188473000Y-109116000D01*
G75*
G02*
X188323000Y-109266000I-150000J0D01*
G01*
X186648000Y-109266000D01*
G75*
G02*
X186498000Y-109116000I0J150000D01*
G01*
G37*
G36*
G01*
X186498000Y-110386000D02*
X186498000Y-110086000D01*
G75*
G02*
X186648000Y-109936000I150000J0D01*
G01*
X188323000Y-109936000D01*
G75*
G02*
X188473000Y-110086000I0J-150000D01*
G01*
X188473000Y-110386000D01*
G75*
G02*
X188323000Y-110536000I-150000J0D01*
G01*
X186648000Y-110536000D01*
G75*
G02*
X186498000Y-110386000I0J150000D01*
G01*
G37*
G36*
G01*
X186498000Y-111656000D02*
X186498000Y-111356000D01*
G75*
G02*
X186648000Y-111206000I150000J0D01*
G01*
X188323000Y-111206000D01*
G75*
G02*
X188473000Y-111356000I0J-150000D01*
G01*
X188473000Y-111656000D01*
G75*
G02*
X188323000Y-111806000I-150000J0D01*
G01*
X186648000Y-111806000D01*
G75*
G02*
X186498000Y-111656000I0J150000D01*
G01*
G37*
G36*
G01*
X186498000Y-112926000D02*
X186498000Y-112626000D01*
G75*
G02*
X186648000Y-112476000I150000J0D01*
G01*
X188323000Y-112476000D01*
G75*
G02*
X188473000Y-112626000I0J-150000D01*
G01*
X188473000Y-112926000D01*
G75*
G02*
X188323000Y-113076000I-150000J0D01*
G01*
X186648000Y-113076000D01*
G75*
G02*
X186498000Y-112926000I0J150000D01*
G01*
G37*
G36*
G01*
X186498000Y-114196000D02*
X186498000Y-113896000D01*
G75*
G02*
X186648000Y-113746000I150000J0D01*
G01*
X188323000Y-113746000D01*
G75*
G02*
X188473000Y-113896000I0J-150000D01*
G01*
X188473000Y-114196000D01*
G75*
G02*
X188323000Y-114346000I-150000J0D01*
G01*
X186648000Y-114346000D01*
G75*
G02*
X186498000Y-114196000I0J150000D01*
G01*
G37*
G36*
G01*
X186498000Y-115466000D02*
X186498000Y-115166000D01*
G75*
G02*
X186648000Y-115016000I150000J0D01*
G01*
X188323000Y-115016000D01*
G75*
G02*
X188473000Y-115166000I0J-150000D01*
G01*
X188473000Y-115466000D01*
G75*
G02*
X188323000Y-115616000I-150000J0D01*
G01*
X186648000Y-115616000D01*
G75*
G02*
X186498000Y-115466000I0J150000D01*
G01*
G37*
G36*
G01*
X186498000Y-116736000D02*
X186498000Y-116436000D01*
G75*
G02*
X186648000Y-116286000I150000J0D01*
G01*
X188323000Y-116286000D01*
G75*
G02*
X188473000Y-116436000I0J-150000D01*
G01*
X188473000Y-116736000D01*
G75*
G02*
X188323000Y-116886000I-150000J0D01*
G01*
X186648000Y-116886000D01*
G75*
G02*
X186498000Y-116736000I0J150000D01*
G01*
G37*
G36*
G01*
X186498000Y-118006000D02*
X186498000Y-117706000D01*
G75*
G02*
X186648000Y-117556000I150000J0D01*
G01*
X188323000Y-117556000D01*
G75*
G02*
X188473000Y-117706000I0J-150000D01*
G01*
X188473000Y-118006000D01*
G75*
G02*
X188323000Y-118156000I-150000J0D01*
G01*
X186648000Y-118156000D01*
G75*
G02*
X186498000Y-118006000I0J150000D01*
G01*
G37*
G36*
G01*
X179573000Y-118006000D02*
X179573000Y-117706000D01*
G75*
G02*
X179723000Y-117556000I150000J0D01*
G01*
X181398000Y-117556000D01*
G75*
G02*
X181548000Y-117706000I0J-150000D01*
G01*
X181548000Y-118006000D01*
G75*
G02*
X181398000Y-118156000I-150000J0D01*
G01*
X179723000Y-118156000D01*
G75*
G02*
X179573000Y-118006000I0J150000D01*
G01*
G37*
G36*
G01*
X179573000Y-116736000D02*
X179573000Y-116436000D01*
G75*
G02*
X179723000Y-116286000I150000J0D01*
G01*
X181398000Y-116286000D01*
G75*
G02*
X181548000Y-116436000I0J-150000D01*
G01*
X181548000Y-116736000D01*
G75*
G02*
X181398000Y-116886000I-150000J0D01*
G01*
X179723000Y-116886000D01*
G75*
G02*
X179573000Y-116736000I0J150000D01*
G01*
G37*
G36*
G01*
X179573000Y-115466000D02*
X179573000Y-115166000D01*
G75*
G02*
X179723000Y-115016000I150000J0D01*
G01*
X181398000Y-115016000D01*
G75*
G02*
X181548000Y-115166000I0J-150000D01*
G01*
X181548000Y-115466000D01*
G75*
G02*
X181398000Y-115616000I-150000J0D01*
G01*
X179723000Y-115616000D01*
G75*
G02*
X179573000Y-115466000I0J150000D01*
G01*
G37*
G36*
G01*
X179573000Y-114196000D02*
X179573000Y-113896000D01*
G75*
G02*
X179723000Y-113746000I150000J0D01*
G01*
X181398000Y-113746000D01*
G75*
G02*
X181548000Y-113896000I0J-150000D01*
G01*
X181548000Y-114196000D01*
G75*
G02*
X181398000Y-114346000I-150000J0D01*
G01*
X179723000Y-114346000D01*
G75*
G02*
X179573000Y-114196000I0J150000D01*
G01*
G37*
G36*
G01*
X179573000Y-112926000D02*
X179573000Y-112626000D01*
G75*
G02*
X179723000Y-112476000I150000J0D01*
G01*
X181398000Y-112476000D01*
G75*
G02*
X181548000Y-112626000I0J-150000D01*
G01*
X181548000Y-112926000D01*
G75*
G02*
X181398000Y-113076000I-150000J0D01*
G01*
X179723000Y-113076000D01*
G75*
G02*
X179573000Y-112926000I0J150000D01*
G01*
G37*
G36*
G01*
X179573000Y-111656000D02*
X179573000Y-111356000D01*
G75*
G02*
X179723000Y-111206000I150000J0D01*
G01*
X181398000Y-111206000D01*
G75*
G02*
X181548000Y-111356000I0J-150000D01*
G01*
X181548000Y-111656000D01*
G75*
G02*
X181398000Y-111806000I-150000J0D01*
G01*
X179723000Y-111806000D01*
G75*
G02*
X179573000Y-111656000I0J150000D01*
G01*
G37*
G36*
G01*
X179573000Y-110386000D02*
X179573000Y-110086000D01*
G75*
G02*
X179723000Y-109936000I150000J0D01*
G01*
X181398000Y-109936000D01*
G75*
G02*
X181548000Y-110086000I0J-150000D01*
G01*
X181548000Y-110386000D01*
G75*
G02*
X181398000Y-110536000I-150000J0D01*
G01*
X179723000Y-110536000D01*
G75*
G02*
X179573000Y-110386000I0J150000D01*
G01*
G37*
G36*
G01*
X179573000Y-109116000D02*
X179573000Y-108816000D01*
G75*
G02*
X179723000Y-108666000I150000J0D01*
G01*
X181398000Y-108666000D01*
G75*
G02*
X181548000Y-108816000I0J-150000D01*
G01*
X181548000Y-109116000D01*
G75*
G02*
X181398000Y-109266000I-150000J0D01*
G01*
X179723000Y-109266000D01*
G75*
G02*
X179573000Y-109116000I0J150000D01*
G01*
G37*
G36*
G01*
X135123000Y-109751000D02*
X135123000Y-109451000D01*
G75*
G02*
X135273000Y-109301000I150000J0D01*
G01*
X136948000Y-109301000D01*
G75*
G02*
X137098000Y-109451000I0J-150000D01*
G01*
X137098000Y-109751000D01*
G75*
G02*
X136948000Y-109901000I-150000J0D01*
G01*
X135273000Y-109901000D01*
G75*
G02*
X135123000Y-109751000I0J150000D01*
G01*
G37*
G36*
G01*
X135123000Y-111021000D02*
X135123000Y-110721000D01*
G75*
G02*
X135273000Y-110571000I150000J0D01*
G01*
X136948000Y-110571000D01*
G75*
G02*
X137098000Y-110721000I0J-150000D01*
G01*
X137098000Y-111021000D01*
G75*
G02*
X136948000Y-111171000I-150000J0D01*
G01*
X135273000Y-111171000D01*
G75*
G02*
X135123000Y-111021000I0J150000D01*
G01*
G37*
G36*
G01*
X135123000Y-112291000D02*
X135123000Y-111991000D01*
G75*
G02*
X135273000Y-111841000I150000J0D01*
G01*
X136948000Y-111841000D01*
G75*
G02*
X137098000Y-111991000I0J-150000D01*
G01*
X137098000Y-112291000D01*
G75*
G02*
X136948000Y-112441000I-150000J0D01*
G01*
X135273000Y-112441000D01*
G75*
G02*
X135123000Y-112291000I0J150000D01*
G01*
G37*
G36*
G01*
X135123000Y-113561000D02*
X135123000Y-113261000D01*
G75*
G02*
X135273000Y-113111000I150000J0D01*
G01*
X136948000Y-113111000D01*
G75*
G02*
X137098000Y-113261000I0J-150000D01*
G01*
X137098000Y-113561000D01*
G75*
G02*
X136948000Y-113711000I-150000J0D01*
G01*
X135273000Y-113711000D01*
G75*
G02*
X135123000Y-113561000I0J150000D01*
G01*
G37*
G36*
G01*
X135123000Y-114831000D02*
X135123000Y-114531000D01*
G75*
G02*
X135273000Y-114381000I150000J0D01*
G01*
X136948000Y-114381000D01*
G75*
G02*
X137098000Y-114531000I0J-150000D01*
G01*
X137098000Y-114831000D01*
G75*
G02*
X136948000Y-114981000I-150000J0D01*
G01*
X135273000Y-114981000D01*
G75*
G02*
X135123000Y-114831000I0J150000D01*
G01*
G37*
G36*
G01*
X135123000Y-116101000D02*
X135123000Y-115801000D01*
G75*
G02*
X135273000Y-115651000I150000J0D01*
G01*
X136948000Y-115651000D01*
G75*
G02*
X137098000Y-115801000I0J-150000D01*
G01*
X137098000Y-116101000D01*
G75*
G02*
X136948000Y-116251000I-150000J0D01*
G01*
X135273000Y-116251000D01*
G75*
G02*
X135123000Y-116101000I0J150000D01*
G01*
G37*
G36*
G01*
X135123000Y-117371000D02*
X135123000Y-117071000D01*
G75*
G02*
X135273000Y-116921000I150000J0D01*
G01*
X136948000Y-116921000D01*
G75*
G02*
X137098000Y-117071000I0J-150000D01*
G01*
X137098000Y-117371000D01*
G75*
G02*
X136948000Y-117521000I-150000J0D01*
G01*
X135273000Y-117521000D01*
G75*
G02*
X135123000Y-117371000I0J150000D01*
G01*
G37*
G36*
G01*
X135123000Y-118641000D02*
X135123000Y-118341000D01*
G75*
G02*
X135273000Y-118191000I150000J0D01*
G01*
X136948000Y-118191000D01*
G75*
G02*
X137098000Y-118341000I0J-150000D01*
G01*
X137098000Y-118641000D01*
G75*
G02*
X136948000Y-118791000I-150000J0D01*
G01*
X135273000Y-118791000D01*
G75*
G02*
X135123000Y-118641000I0J150000D01*
G01*
G37*
G36*
G01*
X142048000Y-118641000D02*
X142048000Y-118341000D01*
G75*
G02*
X142198000Y-118191000I150000J0D01*
G01*
X143873000Y-118191000D01*
G75*
G02*
X144023000Y-118341000I0J-150000D01*
G01*
X144023000Y-118641000D01*
G75*
G02*
X143873000Y-118791000I-150000J0D01*
G01*
X142198000Y-118791000D01*
G75*
G02*
X142048000Y-118641000I0J150000D01*
G01*
G37*
G36*
G01*
X142048000Y-117371000D02*
X142048000Y-117071000D01*
G75*
G02*
X142198000Y-116921000I150000J0D01*
G01*
X143873000Y-116921000D01*
G75*
G02*
X144023000Y-117071000I0J-150000D01*
G01*
X144023000Y-117371000D01*
G75*
G02*
X143873000Y-117521000I-150000J0D01*
G01*
X142198000Y-117521000D01*
G75*
G02*
X142048000Y-117371000I0J150000D01*
G01*
G37*
G36*
G01*
X142048000Y-116101000D02*
X142048000Y-115801000D01*
G75*
G02*
X142198000Y-115651000I150000J0D01*
G01*
X143873000Y-115651000D01*
G75*
G02*
X144023000Y-115801000I0J-150000D01*
G01*
X144023000Y-116101000D01*
G75*
G02*
X143873000Y-116251000I-150000J0D01*
G01*
X142198000Y-116251000D01*
G75*
G02*
X142048000Y-116101000I0J150000D01*
G01*
G37*
G36*
G01*
X142048000Y-114831000D02*
X142048000Y-114531000D01*
G75*
G02*
X142198000Y-114381000I150000J0D01*
G01*
X143873000Y-114381000D01*
G75*
G02*
X144023000Y-114531000I0J-150000D01*
G01*
X144023000Y-114831000D01*
G75*
G02*
X143873000Y-114981000I-150000J0D01*
G01*
X142198000Y-114981000D01*
G75*
G02*
X142048000Y-114831000I0J150000D01*
G01*
G37*
G36*
G01*
X142048000Y-113561000D02*
X142048000Y-113261000D01*
G75*
G02*
X142198000Y-113111000I150000J0D01*
G01*
X143873000Y-113111000D01*
G75*
G02*
X144023000Y-113261000I0J-150000D01*
G01*
X144023000Y-113561000D01*
G75*
G02*
X143873000Y-113711000I-150000J0D01*
G01*
X142198000Y-113711000D01*
G75*
G02*
X142048000Y-113561000I0J150000D01*
G01*
G37*
G36*
G01*
X142048000Y-112291000D02*
X142048000Y-111991000D01*
G75*
G02*
X142198000Y-111841000I150000J0D01*
G01*
X143873000Y-111841000D01*
G75*
G02*
X144023000Y-111991000I0J-150000D01*
G01*
X144023000Y-112291000D01*
G75*
G02*
X143873000Y-112441000I-150000J0D01*
G01*
X142198000Y-112441000D01*
G75*
G02*
X142048000Y-112291000I0J150000D01*
G01*
G37*
G36*
G01*
X142048000Y-111021000D02*
X142048000Y-110721000D01*
G75*
G02*
X142198000Y-110571000I150000J0D01*
G01*
X143873000Y-110571000D01*
G75*
G02*
X144023000Y-110721000I0J-150000D01*
G01*
X144023000Y-111021000D01*
G75*
G02*
X143873000Y-111171000I-150000J0D01*
G01*
X142198000Y-111171000D01*
G75*
G02*
X142048000Y-111021000I0J150000D01*
G01*
G37*
G36*
G01*
X142048000Y-109751000D02*
X142048000Y-109451000D01*
G75*
G02*
X142198000Y-109301000I150000J0D01*
G01*
X143873000Y-109301000D01*
G75*
G02*
X144023000Y-109451000I0J-150000D01*
G01*
X144023000Y-109751000D01*
G75*
G02*
X143873000Y-109901000I-150000J0D01*
G01*
X142198000Y-109901000D01*
G75*
G02*
X142048000Y-109751000I0J150000D01*
G01*
G37*
G36*
G01*
X180952000Y-92832000D02*
X181252000Y-92832000D01*
G75*
G02*
X181402000Y-92982000I0J-150000D01*
G01*
X181402000Y-94657000D01*
G75*
G02*
X181252000Y-94807000I-150000J0D01*
G01*
X180952000Y-94807000D01*
G75*
G02*
X180802000Y-94657000I0J150000D01*
G01*
X180802000Y-92982000D01*
G75*
G02*
X180952000Y-92832000I150000J0D01*
G01*
G37*
G36*
G01*
X179682000Y-92832000D02*
X179982000Y-92832000D01*
G75*
G02*
X180132000Y-92982000I0J-150000D01*
G01*
X180132000Y-94657000D01*
G75*
G02*
X179982000Y-94807000I-150000J0D01*
G01*
X179682000Y-94807000D01*
G75*
G02*
X179532000Y-94657000I0J150000D01*
G01*
X179532000Y-92982000D01*
G75*
G02*
X179682000Y-92832000I150000J0D01*
G01*
G37*
G36*
G01*
X178412000Y-92832000D02*
X178712000Y-92832000D01*
G75*
G02*
X178862000Y-92982000I0J-150000D01*
G01*
X178862000Y-94657000D01*
G75*
G02*
X178712000Y-94807000I-150000J0D01*
G01*
X178412000Y-94807000D01*
G75*
G02*
X178262000Y-94657000I0J150000D01*
G01*
X178262000Y-92982000D01*
G75*
G02*
X178412000Y-92832000I150000J0D01*
G01*
G37*
G36*
G01*
X177142000Y-92832000D02*
X177442000Y-92832000D01*
G75*
G02*
X177592000Y-92982000I0J-150000D01*
G01*
X177592000Y-94657000D01*
G75*
G02*
X177442000Y-94807000I-150000J0D01*
G01*
X177142000Y-94807000D01*
G75*
G02*
X176992000Y-94657000I0J150000D01*
G01*
X176992000Y-92982000D01*
G75*
G02*
X177142000Y-92832000I150000J0D01*
G01*
G37*
G36*
G01*
X175872000Y-92832000D02*
X176172000Y-92832000D01*
G75*
G02*
X176322000Y-92982000I0J-150000D01*
G01*
X176322000Y-94657000D01*
G75*
G02*
X176172000Y-94807000I-150000J0D01*
G01*
X175872000Y-94807000D01*
G75*
G02*
X175722000Y-94657000I0J150000D01*
G01*
X175722000Y-92982000D01*
G75*
G02*
X175872000Y-92832000I150000J0D01*
G01*
G37*
G36*
G01*
X174602000Y-92832000D02*
X174902000Y-92832000D01*
G75*
G02*
X175052000Y-92982000I0J-150000D01*
G01*
X175052000Y-94657000D01*
G75*
G02*
X174902000Y-94807000I-150000J0D01*
G01*
X174602000Y-94807000D01*
G75*
G02*
X174452000Y-94657000I0J150000D01*
G01*
X174452000Y-92982000D01*
G75*
G02*
X174602000Y-92832000I150000J0D01*
G01*
G37*
G36*
G01*
X173332000Y-92832000D02*
X173632000Y-92832000D01*
G75*
G02*
X173782000Y-92982000I0J-150000D01*
G01*
X173782000Y-94657000D01*
G75*
G02*
X173632000Y-94807000I-150000J0D01*
G01*
X173332000Y-94807000D01*
G75*
G02*
X173182000Y-94657000I0J150000D01*
G01*
X173182000Y-92982000D01*
G75*
G02*
X173332000Y-92832000I150000J0D01*
G01*
G37*
G36*
G01*
X172062000Y-92832000D02*
X172362000Y-92832000D01*
G75*
G02*
X172512000Y-92982000I0J-150000D01*
G01*
X172512000Y-94657000D01*
G75*
G02*
X172362000Y-94807000I-150000J0D01*
G01*
X172062000Y-94807000D01*
G75*
G02*
X171912000Y-94657000I0J150000D01*
G01*
X171912000Y-92982000D01*
G75*
G02*
X172062000Y-92832000I150000J0D01*
G01*
G37*
G36*
G01*
X172062000Y-99757000D02*
X172362000Y-99757000D01*
G75*
G02*
X172512000Y-99907000I0J-150000D01*
G01*
X172512000Y-101582000D01*
G75*
G02*
X172362000Y-101732000I-150000J0D01*
G01*
X172062000Y-101732000D01*
G75*
G02*
X171912000Y-101582000I0J150000D01*
G01*
X171912000Y-99907000D01*
G75*
G02*
X172062000Y-99757000I150000J0D01*
G01*
G37*
G36*
G01*
X173332000Y-99757000D02*
X173632000Y-99757000D01*
G75*
G02*
X173782000Y-99907000I0J-150000D01*
G01*
X173782000Y-101582000D01*
G75*
G02*
X173632000Y-101732000I-150000J0D01*
G01*
X173332000Y-101732000D01*
G75*
G02*
X173182000Y-101582000I0J150000D01*
G01*
X173182000Y-99907000D01*
G75*
G02*
X173332000Y-99757000I150000J0D01*
G01*
G37*
G36*
G01*
X174602000Y-99757000D02*
X174902000Y-99757000D01*
G75*
G02*
X175052000Y-99907000I0J-150000D01*
G01*
X175052000Y-101582000D01*
G75*
G02*
X174902000Y-101732000I-150000J0D01*
G01*
X174602000Y-101732000D01*
G75*
G02*
X174452000Y-101582000I0J150000D01*
G01*
X174452000Y-99907000D01*
G75*
G02*
X174602000Y-99757000I150000J0D01*
G01*
G37*
G36*
G01*
X175872000Y-99757000D02*
X176172000Y-99757000D01*
G75*
G02*
X176322000Y-99907000I0J-150000D01*
G01*
X176322000Y-101582000D01*
G75*
G02*
X176172000Y-101732000I-150000J0D01*
G01*
X175872000Y-101732000D01*
G75*
G02*
X175722000Y-101582000I0J150000D01*
G01*
X175722000Y-99907000D01*
G75*
G02*
X175872000Y-99757000I150000J0D01*
G01*
G37*
G36*
G01*
X177142000Y-99757000D02*
X177442000Y-99757000D01*
G75*
G02*
X177592000Y-99907000I0J-150000D01*
G01*
X177592000Y-101582000D01*
G75*
G02*
X177442000Y-101732000I-150000J0D01*
G01*
X177142000Y-101732000D01*
G75*
G02*
X176992000Y-101582000I0J150000D01*
G01*
X176992000Y-99907000D01*
G75*
G02*
X177142000Y-99757000I150000J0D01*
G01*
G37*
G36*
G01*
X178412000Y-99757000D02*
X178712000Y-99757000D01*
G75*
G02*
X178862000Y-99907000I0J-150000D01*
G01*
X178862000Y-101582000D01*
G75*
G02*
X178712000Y-101732000I-150000J0D01*
G01*
X178412000Y-101732000D01*
G75*
G02*
X178262000Y-101582000I0J150000D01*
G01*
X178262000Y-99907000D01*
G75*
G02*
X178412000Y-99757000I150000J0D01*
G01*
G37*
G36*
G01*
X179682000Y-99757000D02*
X179982000Y-99757000D01*
G75*
G02*
X180132000Y-99907000I0J-150000D01*
G01*
X180132000Y-101582000D01*
G75*
G02*
X179982000Y-101732000I-150000J0D01*
G01*
X179682000Y-101732000D01*
G75*
G02*
X179532000Y-101582000I0J150000D01*
G01*
X179532000Y-99907000D01*
G75*
G02*
X179682000Y-99757000I150000J0D01*
G01*
G37*
G36*
G01*
X180952000Y-99757000D02*
X181252000Y-99757000D01*
G75*
G02*
X181402000Y-99907000I0J-150000D01*
G01*
X181402000Y-101582000D01*
G75*
G02*
X181252000Y-101732000I-150000J0D01*
G01*
X180952000Y-101732000D01*
G75*
G02*
X180802000Y-101582000I0J150000D01*
G01*
X180802000Y-99907000D01*
G75*
G02*
X180952000Y-99757000I150000J0D01*
G01*
G37*
G36*
G01*
X153354000Y-52270000D02*
X151954000Y-52270000D01*
G75*
G02*
X151704000Y-52020000I0J250000D01*
G01*
X151704000Y-48120000D01*
G75*
G02*
X151954000Y-47870000I250000J0D01*
G01*
X153354000Y-47870000D01*
G75*
G02*
X153604000Y-48120000I0J-250000D01*
G01*
X153604000Y-52020000D01*
G75*
G02*
X153354000Y-52270000I-250000J0D01*
G01*
G37*
G36*
G01*
X153354000Y-43570000D02*
X151954000Y-43570000D01*
G75*
G02*
X151704000Y-43320000I0J250000D01*
G01*
X151704000Y-39420000D01*
G75*
G02*
X151954000Y-39170000I250000J0D01*
G01*
X153354000Y-39170000D01*
G75*
G02*
X153604000Y-39420000I0J-250000D01*
G01*
X153604000Y-43320000D01*
G75*
G02*
X153354000Y-43570000I-250000J0D01*
G01*
G37*
G36*
G01*
X154886000Y-78548000D02*
X154886000Y-79948000D01*
G75*
G02*
X154636000Y-80198000I-250000J0D01*
G01*
X150736000Y-80198000D01*
G75*
G02*
X150486000Y-79948000I0J250000D01*
G01*
X150486000Y-78548000D01*
G75*
G02*
X150736000Y-78298000I250000J0D01*
G01*
X154636000Y-78298000D01*
G75*
G02*
X154886000Y-78548000I0J-250000D01*
G01*
G37*
G36*
G01*
X146186000Y-78548000D02*
X146186000Y-79948000D01*
G75*
G02*
X145936000Y-80198000I-250000J0D01*
G01*
X142036000Y-80198000D01*
G75*
G02*
X141786000Y-79948000I0J250000D01*
G01*
X141786000Y-78548000D01*
G75*
G02*
X142036000Y-78298000I250000J0D01*
G01*
X145936000Y-78298000D01*
G75*
G02*
X146186000Y-78548000I0J-250000D01*
G01*
G37*
G36*
G01*
X80583000Y-120977000D02*
X79183000Y-120977000D01*
G75*
G02*
X78933000Y-120727000I0J250000D01*
G01*
X78933000Y-116827000D01*
G75*
G02*
X79183000Y-116577000I250000J0D01*
G01*
X80583000Y-116577000D01*
G75*
G02*
X80833000Y-116827000I0J-250000D01*
G01*
X80833000Y-120727000D01*
G75*
G02*
X80583000Y-120977000I-250000J0D01*
G01*
G37*
G36*
G01*
X80583000Y-112277000D02*
X79183000Y-112277000D01*
G75*
G02*
X78933000Y-112027000I0J250000D01*
G01*
X78933000Y-108127000D01*
G75*
G02*
X79183000Y-107877000I250000J0D01*
G01*
X80583000Y-107877000D01*
G75*
G02*
X80833000Y-108127000I0J-250000D01*
G01*
X80833000Y-112027000D01*
G75*
G02*
X80583000Y-112277000I-250000J0D01*
G01*
G37*
G36*
G01*
X109158000Y-112404000D02*
X107758000Y-112404000D01*
G75*
G02*
X107508000Y-112154000I0J250000D01*
G01*
X107508000Y-108254000D01*
G75*
G02*
X107758000Y-108004000I250000J0D01*
G01*
X109158000Y-108004000D01*
G75*
G02*
X109408000Y-108254000I0J-250000D01*
G01*
X109408000Y-112154000D01*
G75*
G02*
X109158000Y-112404000I-250000J0D01*
G01*
G37*
G36*
G01*
X109158000Y-121104000D02*
X107758000Y-121104000D01*
G75*
G02*
X107508000Y-120854000I0J250000D01*
G01*
X107508000Y-116954000D01*
G75*
G02*
X107758000Y-116704000I250000J0D01*
G01*
X109158000Y-116704000D01*
G75*
G02*
X109408000Y-116954000I0J-250000D01*
G01*
X109408000Y-120854000D01*
G75*
G02*
X109158000Y-121104000I-250000J0D01*
G01*
G37*
G36*
G01*
X125668000Y-112277000D02*
X124268000Y-112277000D01*
G75*
G02*
X124018000Y-112027000I0J250000D01*
G01*
X124018000Y-108127000D01*
G75*
G02*
X124268000Y-107877000I250000J0D01*
G01*
X125668000Y-107877000D01*
G75*
G02*
X125918000Y-108127000I0J-250000D01*
G01*
X125918000Y-112027000D01*
G75*
G02*
X125668000Y-112277000I-250000J0D01*
G01*
G37*
G36*
G01*
X125668000Y-120977000D02*
X124268000Y-120977000D01*
G75*
G02*
X124018000Y-120727000I0J250000D01*
G01*
X124018000Y-116827000D01*
G75*
G02*
X124268000Y-116577000I250000J0D01*
G01*
X125668000Y-116577000D01*
G75*
G02*
X125918000Y-116827000I0J-250000D01*
G01*
X125918000Y-120727000D01*
G75*
G02*
X125668000Y-120977000I-250000J0D01*
G01*
G37*
G36*
G01*
X155132000Y-120850000D02*
X153732000Y-120850000D01*
G75*
G02*
X153482000Y-120600000I0J250000D01*
G01*
X153482000Y-116700000D01*
G75*
G02*
X153732000Y-116450000I250000J0D01*
G01*
X155132000Y-116450000D01*
G75*
G02*
X155382000Y-116700000I0J-250000D01*
G01*
X155382000Y-120600000D01*
G75*
G02*
X155132000Y-120850000I-250000J0D01*
G01*
G37*
G36*
G01*
X155132000Y-112150000D02*
X153732000Y-112150000D01*
G75*
G02*
X153482000Y-111900000I0J250000D01*
G01*
X153482000Y-108000000D01*
G75*
G02*
X153732000Y-107750000I250000J0D01*
G01*
X155132000Y-107750000D01*
G75*
G02*
X155382000Y-108000000I0J-250000D01*
G01*
X155382000Y-111900000D01*
G75*
G02*
X155132000Y-112150000I-250000J0D01*
G01*
G37*
G36*
G01*
X170118000Y-112150000D02*
X168718000Y-112150000D01*
G75*
G02*
X168468000Y-111900000I0J250000D01*
G01*
X168468000Y-108000000D01*
G75*
G02*
X168718000Y-107750000I250000J0D01*
G01*
X170118000Y-107750000D01*
G75*
G02*
X170368000Y-108000000I0J-250000D01*
G01*
X170368000Y-111900000D01*
G75*
G02*
X170118000Y-112150000I-250000J0D01*
G01*
G37*
G36*
G01*
X170118000Y-120850000D02*
X168718000Y-120850000D01*
G75*
G02*
X168468000Y-120600000I0J250000D01*
G01*
X168468000Y-116700000D01*
G75*
G02*
X168718000Y-116450000I250000J0D01*
G01*
X170118000Y-116450000D01*
G75*
G02*
X170368000Y-116700000I0J-250000D01*
G01*
X170368000Y-120600000D01*
G75*
G02*
X170118000Y-120850000I-250000J0D01*
G01*
G37*
G36*
G01*
X199328000Y-112150000D02*
X197928000Y-112150000D01*
G75*
G02*
X197678000Y-111900000I0J250000D01*
G01*
X197678000Y-108000000D01*
G75*
G02*
X197928000Y-107750000I250000J0D01*
G01*
X199328000Y-107750000D01*
G75*
G02*
X199578000Y-108000000I0J-250000D01*
G01*
X199578000Y-111900000D01*
G75*
G02*
X199328000Y-112150000I-250000J0D01*
G01*
G37*
G36*
G01*
X199328000Y-120850000D02*
X197928000Y-120850000D01*
G75*
G02*
X197678000Y-120600000I0J250000D01*
G01*
X197678000Y-116700000D01*
G75*
G02*
X197928000Y-116450000I250000J0D01*
G01*
X199328000Y-116450000D01*
G75*
G02*
X199578000Y-116700000I0J-250000D01*
G01*
X199578000Y-120600000D01*
G75*
G02*
X199328000Y-120850000I-250000J0D01*
G01*
G37*
D19*
X201930000Y-29210000D03*
D18*
X201930000Y-29210000D03*
D21*
X76200000Y-152400000D03*
D20*
X76200000Y-149860000D03*
X78740000Y-152400000D03*
X78740000Y-149860000D03*
X81280000Y-152400000D03*
X81280000Y-149860000D03*
X83820000Y-152400000D03*
X83820000Y-149860000D03*
X86360000Y-152400000D03*
X86360000Y-149860000D03*
X109220000Y-149860000D03*
X109220000Y-152400000D03*
X106680000Y-149860000D03*
X106680000Y-152400000D03*
X104140000Y-149860000D03*
X104140000Y-152400000D03*
X101600000Y-149860000D03*
X101600000Y-152400000D03*
X99060000Y-149860000D03*
D21*
X99060000Y-152400000D03*
X121920000Y-152400000D03*
D20*
X121920000Y-149860000D03*
X124460000Y-152400000D03*
X124460000Y-149860000D03*
X127000000Y-152400000D03*
X127000000Y-149860000D03*
X129540000Y-152400000D03*
X129540000Y-149860000D03*
X132080000Y-152400000D03*
X132080000Y-149860000D03*
X154940000Y-149860000D03*
X154940000Y-152400000D03*
X152400000Y-149860000D03*
X152400000Y-152400000D03*
X149860000Y-149860000D03*
X149860000Y-152400000D03*
X147320000Y-149860000D03*
X147320000Y-152400000D03*
X144780000Y-149860000D03*
D21*
X144780000Y-152400000D03*
X167640000Y-152400000D03*
D20*
X167640000Y-149860000D03*
X170180000Y-152400000D03*
X170180000Y-149860000D03*
X172720000Y-152400000D03*
X172720000Y-149860000D03*
X175260000Y-152400000D03*
X175260000Y-149860000D03*
X177800000Y-152400000D03*
X177800000Y-149860000D03*
X196850000Y-149860000D03*
X196850000Y-152400000D03*
X194310000Y-149860000D03*
X194310000Y-152400000D03*
X191770000Y-149860000D03*
X191770000Y-152400000D03*
X189230000Y-149860000D03*
X189230000Y-152400000D03*
X186690000Y-149860000D03*
D21*
X186690000Y-152400000D03*
X89154000Y-81280000D03*
D20*
X89154000Y-83820000D03*
X89154000Y-86360000D03*
X89154000Y-88900000D03*
X89154000Y-91440000D03*
X89154000Y-93980000D03*
D21*
X104394000Y-80772000D03*
D20*
X101854000Y-80772000D03*
G36*
G01*
X85220000Y-82058500D02*
X85220000Y-82533500D01*
G75*
G02*
X84982500Y-82771000I-237500J0D01*
G01*
X84482500Y-82771000D01*
G75*
G02*
X84245000Y-82533500I0J237500D01*
G01*
X84245000Y-82058500D01*
G75*
G02*
X84482500Y-81821000I237500J0D01*
G01*
X84982500Y-81821000D01*
G75*
G02*
X85220000Y-82058500I0J-237500D01*
G01*
G37*
G36*
G01*
X83395000Y-82058500D02*
X83395000Y-82533500D01*
G75*
G02*
X83157500Y-82771000I-237500J0D01*
G01*
X82657500Y-82771000D01*
G75*
G02*
X82420000Y-82533500I0J237500D01*
G01*
X82420000Y-82058500D01*
G75*
G02*
X82657500Y-81821000I237500J0D01*
G01*
X83157500Y-81821000D01*
G75*
G02*
X83395000Y-82058500I0J-237500D01*
G01*
G37*
G36*
G01*
X83395000Y-84852500D02*
X83395000Y-85327500D01*
G75*
G02*
X83157500Y-85565000I-237500J0D01*
G01*
X82657500Y-85565000D01*
G75*
G02*
X82420000Y-85327500I0J237500D01*
G01*
X82420000Y-84852500D01*
G75*
G02*
X82657500Y-84615000I237500J0D01*
G01*
X83157500Y-84615000D01*
G75*
G02*
X83395000Y-84852500I0J-237500D01*
G01*
G37*
G36*
G01*
X85220000Y-84852500D02*
X85220000Y-85327500D01*
G75*
G02*
X84982500Y-85565000I-237500J0D01*
G01*
X84482500Y-85565000D01*
G75*
G02*
X84245000Y-85327500I0J237500D01*
G01*
X84245000Y-84852500D01*
G75*
G02*
X84482500Y-84615000I237500J0D01*
G01*
X84982500Y-84615000D01*
G75*
G02*
X85220000Y-84852500I0J-237500D01*
G01*
G37*
G36*
G01*
X85220000Y-87646500D02*
X85220000Y-88121500D01*
G75*
G02*
X84982500Y-88359000I-237500J0D01*
G01*
X84482500Y-88359000D01*
G75*
G02*
X84245000Y-88121500I0J237500D01*
G01*
X84245000Y-87646500D01*
G75*
G02*
X84482500Y-87409000I237500J0D01*
G01*
X84982500Y-87409000D01*
G75*
G02*
X85220000Y-87646500I0J-237500D01*
G01*
G37*
G36*
G01*
X83395000Y-87646500D02*
X83395000Y-88121500D01*
G75*
G02*
X83157500Y-88359000I-237500J0D01*
G01*
X82657500Y-88359000D01*
G75*
G02*
X82420000Y-88121500I0J237500D01*
G01*
X82420000Y-87646500D01*
G75*
G02*
X82657500Y-87409000I237500J0D01*
G01*
X83157500Y-87409000D01*
G75*
G02*
X83395000Y-87646500I0J-237500D01*
G01*
G37*
G36*
G01*
X135506000Y-88629500D02*
X135506000Y-88154500D01*
G75*
G02*
X135743500Y-87917000I237500J0D01*
G01*
X136343500Y-87917000D01*
G75*
G02*
X136581000Y-88154500I0J-237500D01*
G01*
X136581000Y-88629500D01*
G75*
G02*
X136343500Y-88867000I-237500J0D01*
G01*
X135743500Y-88867000D01*
G75*
G02*
X135506000Y-88629500I0J237500D01*
G01*
G37*
G36*
G01*
X137231000Y-88629500D02*
X137231000Y-88154500D01*
G75*
G02*
X137468500Y-87917000I237500J0D01*
G01*
X138068500Y-87917000D01*
G75*
G02*
X138306000Y-88154500I0J-237500D01*
G01*
X138306000Y-88629500D01*
G75*
G02*
X138068500Y-88867000I-237500J0D01*
G01*
X137468500Y-88867000D01*
G75*
G02*
X137231000Y-88629500I0J237500D01*
G01*
G37*
D32*
X64008000Y-105664000D03*
X116393504Y-78279456D03*
X158750000Y-83312000D03*
X72390000Y-107188000D03*
D20*
X99840000Y-29000000D03*
D21*
X97300000Y-29000000D03*
X103700000Y-29100000D03*
D20*
X106240000Y-29100000D03*
M02*
